<?xml version="1.0" encoding="utf-8"?>
<!-- Generator: Adobe Illustrator 23.0.0, SVG Export Plug-In . SVG Version: 6.00 Build 0)  -->
<svg version="1.1" id="cc-by" xmlns="http://www.w3.org/2000/svg" xmlns:xlink="http://www.w3.org/1999/xlink" x="0px" y="0px"
	 viewBox="0 0 64 64" style="enable-background:new 0 0 64 64;" xml:space="preserve">
<g>
	<path d="M31.2,0C13.9,0.4,0,14.6,0,32c0,17.7,14.3,32,32,32s32-14.3,32-32S49.7,0,32,0C31.7,0,31.5,0,31.2,0z M31.2,5.5
		c0.3,0,0.6,0,0.8,0c14.6,0,26.5,11.9,26.5,26.5S46.6,58.5,32,58.5S5.5,46.6,5.5,32C5.5,17.7,16.9,6,31.2,5.5z"/>
	<path d="M36.6,15.9c0,2.6-2.1,4.6-4.6,4.6s-4.6-2.1-4.6-4.6c0-2.6,2.1-4.6,4.6-4.6S36.6,13.4,36.6,15.9z"/>
	<path d="M27.2,52.7h9.6V37.3h2.9c0,0,0-11,0-12.7c0-0.5,0-1.4-0.6-2c-0.7-0.7-1.6-0.6-2-0.6c-0.5,0-9.6,0-10.1,0s-1.4,0-2,0.6
		c-0.7,0.7-0.6,1.6-0.6,2c0,1.7,0,12.7,0,12.7h2.9v15.4H27.2z"/>
</g>
</svg>
