<?xml version="1.0" encoding="utf-8"?>
<svg version="1.1" id="cc-nc" xmlns="http://www.w3.org/2000/svg" xmlns:xlink="http://www.w3.org/1999/xlink" x="0px" y="0px"
	 viewBox="0 0 64 64" style="enable-background:new 0 0 64 64;" xml:space="preserve">
<g>
	<path d="M31.2,0C13.9,0.4,0,14.6,0,32c0,17.7,14.3,32,32,32s32-14.3,32-32S49.7,0,32,0C31.7,0,31.5,0,31.2,0z M31.2,5.5
		c0.3,0,0.6,0,0.8,0c14.6,0,26.5,11.9,26.5,26.5S46.6,58.5,32,58.5S5.5,46.6,5.5,32C5.5,17.7,16.9,6,31.2,5.5z"/>
	<path d="M25.6,38.7c2.1,2.9,8.4,3.1,10.5,1.9c0.8-0.4,1-1.8,1-2.6c0-0.6-0.2-1.1-0.5-1.4c-0.3-0.3-1.2-1.2-2.2-1.5
		c-5-1.3-8.5-2.9-9.9-4.1c-1.7-1.5-2-2.4-2-5s0.7-4.7,2.4-6.2s4.1-2.3,7.2-2.3c3,0,7.3,0.8,9.3,3.3l-3.5,3.8
		c-1.9-1.6-3.4-1.8-5.8-1.8c-1.5,0-2.3,0.2-2.9,0.6c-0.6,0.4-1,1-1,1.6c0,0.6,0.3,1.1,0.9,1.5c0.6,0.4,2.1,1,5.1,1.9
		c3.4,0.9,5.7,2.1,6.9,3.4c1.2,1.3,1.8,3.1,1.8,5.3c0,2.7-0.9,4.9-2.8,6.6c-1.9,1.7-4.1,3.1-7.4,3.1c-4.2,0-9.9-1.5-11.4-4.3"/>
	<path d="M59.3,40.1l-2.4,5.3l-51.1-23l2.4-5.3L59.3,40.1z"/>
	<path d="M30.4,12.9v6.8h3.2v-6.8H30.4z M30.4,45v6.2h3.2V45H30.4z"/>
</g>
</svg>
