<?xml version="1.0" encoding="utf-8"?>
<svg version="1.1" id="cc-sa" inkscape:version="0.43" xmlns:cc="http://web.resource.org/cc/" xmlns:dc="http://purl.org/dc/elements/1.1/" xmlns:inkscape="http://www.inkscape.org/namespaces/inkscape" xmlns:rdf="http://www.w3.org/1999/02/22-rdf-syntax-ns#" xmlns:sodipodi="http://sodipodi.sourceforge.net/DTD/sodipodi-0.dtd" xmlns:svg="http://www.w3.org/2000/svg"
	 xmlns="http://www.w3.org/2000/svg" xmlns:xlink="http://www.w3.org/1999/xlink" x="0px" y="0px" viewBox="0 0 64 64"
	 style="enable-background:new 0 0 64 64;" xml:space="preserve">
<path id="path1334" d="M31.2,0C13.9,0.4,0,14.6,0,32c0,17.7,14.3,32,32,32s32-14.3,32-32S49.7,0,32,0C31.7,0,31.5,0,31.2,0z
	 M31.2,5.5c0.3,0,0.6,0,0.8,0c14.6,0,26.5,11.9,26.5,26.5c0,14.6-11.9,26.5-26.5,26.5S5.5,46.6,5.5,32C5.5,17.7,16.9,6,31.2,5.5z"/>
<path id="path2371" sodipodi:nodetypes="cccccssssccsssssc" d="M18.1,26.8h-2.7l6.2,7l6.2-7h-2.2c0.5-3.4,3.5-5.6,6.9-5.3
	c0.1,0,0.3,0,0.4,0c5.6,0,7.8,4.3,8,10.5c0.2,6.5-3.6,10.6-8,10.5c-4.7-0.1-6.4-2.3-7.1-5.7h-8.3c1.4,7.8,7.1,12.4,15.3,12.4
	c9.2,0,15.9-7.7,15.9-17.2c0-10.2-6.7-17.2-15.9-17.2c-0.3,0-0.5,0-0.8,0c-0.1,0-0.1,0-0.2,0C25.9,14.9,18.1,18.9,18.1,26.8z"/>
</svg>
