<?xml version="1.0" encoding="utf-8"?>
<svg version="1.1" id="cc-zero" xmlns="http://www.w3.org/2000/svg" xmlns:xlink="http://www.w3.org/1999/xlink" x="0px" y="0px"
	 viewBox="0 0 64 64" style="enable-background:new 0 0 64 64;" xml:space="preserve">
<path d="M32,13.6c-10.6,0-13.2,10-13.2,18.4c0,8.5,2.7,18.4,13.2,18.4c10.6,0,13.2-10,13.2-18.4S42.6,13.6,32,13.6z M32,20.5
	c0.4,0,0.8,0.1,1.2,0.1c0.8,0.7,1.1,1.6,0.4,2.8l-7,12.9c-0.2-1.6-0.2-3.2-0.2-4.4C26.3,28.3,26.6,20.5,32,20.5L32,20.5z M37.3,26.5
	c0.4,2,0.4,4.1,0.4,5.5c0,3.7-0.3,11.5-5.7,11.5c-0.4,0-0.8,0-1.2-0.1c-0.1,0-0.1,0-0.2-0.1c-0.1,0-0.2-0.1-0.3-0.1
	c-1.2-0.5-2-1.4-0.9-3.1L37.3,26.5L37.3,26.5z"/>
<path d="M31.9,0C23.1,0,15.6,3.1,9.5,9.3C6.4,12.4,4,15.9,2.4,19.8C0.8,23.7,0,27.8,0,32c0,4.3,0.8,8.3,2.4,12.2s3.9,7.3,7,10.4
	c3.1,3,6.5,5.4,10.4,7c3.9,1.6,7.9,2.4,12.2,2.4s8.3-0.8,12.3-2.5c4-1.6,7.5-4,10.6-7.1c3-2.9,5.3-6.3,6.8-10.1
	c1.6-3.8,2.3-8,2.3-12.4c0-4.3-0.8-8.4-2.3-12.3c-1.6-3.9-3.8-7.3-6.9-10.3C48.5,3.1,40.9,0,31.9,0L31.9,0z M32.1,5.8
	c7.2,0,13.4,2.6,18.6,7.7c2.5,2.5,4.4,5.3,5.7,8.5c1.3,3.2,1.9,6.5,1.9,10.1c0,7.3-2.5,13.5-7.5,18.3c-2.6,2.5-5.5,4.4-8.7,5.8
	c-3.2,1.3-6.5,2-9.9,2c-3.1,0-6.8-0.7-9.9-1.9c-3.2-1.3-6-3.2-8.5-5.7c-2.5-2.5-4.4-5.3-5.8-8.5c-1.3-3.2-2-6.5-2-9.9
	c0-3.5,0.7-6.8,2-10c1.4-3.2,3.3-6.1,5.8-8.6C18.6,8.4,24.8,5.8,32.1,5.8z"/>
</svg>
