<?xml version="1.0" encoding="utf-8"?>
<!-- Generator: Adobe Illustrator 21.0.0, SVG Export Plug-In . SVG Version: 6.00 Build 0)  -->
<svg version="1.1"
	 id="svg2" xmlns:cc="http://creativecommons.org/ns#" xmlns:dc="http://purl.org/dc/elements/1.1/" xmlns:rdf="http://www.w3.org/1999/02/22-rdf-syntax-ns#"
	 xmlns="http://www.w3.org/2000/svg" xmlns:xlink="http://www.w3.org/1999/xlink" x="0px" y="0px" viewBox="0 0 393.9 637.1"
	 style="enable-background:new 0 0 393.9 637.1;" xml:space="preserve">
<style type="text/css">
	.st0{fill:none;enable-background:new    ;}
	.st1{fill:#EDE2E2;fill-opacity:0;}
	.st2{fill:#F4F4D2;fill-opacity:0;}
	.st3{fill:#E5EED6;fill-opacity:0;}
	.st4{fill:#CCE4C8;fill-opacity:0;}
	.st5{fill:#1BA100;stroke:#000000;stroke-width:1.725;stroke-miterlimit:10;stroke-opacity:0.5568;}
	.st6{fill:#9DCF48;stroke:#000000;stroke-width:1.725;stroke-miterlimit:10;stroke-opacity:0.5568;}
	.st7{fill:#FFFF00;stroke:#000000;stroke-width:1.725;stroke-miterlimit:10;stroke-opacity:0.5568;}
	.st8{fill:#FF2A2A;stroke:#000000;stroke-width:1.725;stroke-miterlimit:10;stroke-opacity:0.5568;}
	.st9{fill:#FFFFFF;}
	.st10{font-family:'Arial-BoldMT';}
	.st11{font-size:12.0968px;}
	.st12{font-size:12px;}
	.st13{enable-background:new    ;}
</style>
<path class="st0" d="M0,0"/>
<g>
	<rect id="rect6122" y="543.2" class="st1" width="393.9" height="93.9"/>
	<rect id="rect6120" y="396.2" class="st2" width="393.9" height="145.4"/>
	<rect id="rect6118" y="249" class="st3" width="393.9" height="145.4"/>
	<rect id="rect6116" x="0.2" class="st4" width="393.6" height="248.1"/>
	<g>
		<path id="path6114" class="st5" d="M73.2,6.2L102,239.7h48.4V6.2H73.2z"/>
		<path id="path6112" class="st6" d="M104.2,257.5l16.1,130.7h30.1V257.5H104.2z"/>
		<path id="path6110" class="st7" d="M122.5,406l15.8,127.7h12.1V406H122.5L122.5,406z"/>
		<path id="rect6031" class="st8" d="M140.5,551.5l9.9,80.5v-80.5H140.5z"/>
	</g>
</g>
<g id="g5925" transform="translate(346.3137 -70.09038)">
	<g id="g20825" transform="translate(372.6032 317.0853)">
		<g id="g20827" transform="translate(-433.2665 80.00423)">
			<circle id="circle20829" class="st9" cx="-27" cy="-42.4" r="22.6"/>
			<g id="g20831">
				<path id="path20833" d="M-27.2-68.2c7.2,0,13.3,2.5,18.2,7.4c5,5,7.5,11,7.5,18.2s-2.4,13.2-7.3,18C-14-19.5-20.1-17-27.2-17
					c-6.9,0-12.9-2.5-18-7.5c-5-5-7.5-11-7.5-18.1c0-7,2.5-13.1,7.5-18.2C-40.2-65.7-34.2-68.2-27.2-68.2z M-27.1-63.6
					c-5.8,0-10.7,2-14.8,6.1c-4.2,4.3-6.3,9.2-6.3,14.9S-46.1-32-42-27.9s9.1,6.2,14.8,6.2s10.7-2.1,14.9-6.3c4-3.9,6-8.8,6-14.7
					c0-5.8-2-10.8-6.1-14.9C-16.4-61.5-21.3-63.6-27.1-63.6z M-20.2-49v10.5h-2.9v12.4h-8v-12.4H-34V-49c0-0.5,0.2-0.8,0.5-1.2
					c0.3-0.3,0.7-0.5,1.2-0.5h10.5c0.4,0,0.8,0.2,1.1,0.5C-20.4-49.8-20.2-49.4-20.2-49z M-30.7-55.5c0-2.4,1.2-3.6,3.6-3.6
					s3.6,1.2,3.6,3.6c0,2.4-1.2,3.6-3.6,3.6S-30.7-53.2-30.7-55.5z"/>
			</g>
		</g>
		<text transform="matrix(1 0 0 1 -469.2509 72.7199)" class="st10 st11">BY</text>
	</g>
	<g id="g20839" transform="translate(372.6032 408.9181)">
		<g id="g20841" transform="translate(-433.2665 80.00423)">
			<circle id="circle20843" class="st9" cx="-27" cy="-60.7" r="22.6"/>
			<g id="g20845">
				<path id="path20847" d="M-27.2-86.6c7.2,0,13.3,2.5,18.2,7.4c5,5,7.5,11,7.5,18.2s-2.4,13.2-7.3,18c-5.2,5.1-11.3,7.6-18.3,7.6
					c-6.9,0-12.9-2.5-18-7.5c-5-5-7.5-11-7.5-18.1c0-7,2.5-13.1,7.5-18.2C-40.2-84.1-34.2-86.6-27.2-86.6z M-27.1-81.9
					c-5.8,0-10.7,2-14.8,6.1c-4.2,4.3-6.3,9.2-6.3,14.9s2.1,10.6,6.2,14.7s9.1,6.2,14.8,6.2s10.7-2.1,14.9-6.3c4-3.9,6-8.8,6-14.7
					c0-5.8-2-10.8-6.1-14.9C-16.4-79.9-21.3-81.9-27.1-81.9z M-20.2-67.3v10.5h-2.9v12.4h-8v-12.4H-34v-10.5c0-0.5,0.2-0.8,0.5-1.2
					c0.3-0.3,0.7-0.5,1.2-0.5h10.5c0.4,0,0.8,0.2,1.1,0.5C-20.4-68.2-20.2-67.8-20.2-67.3z M-30.7-73.9c0-2.4,1.2-3.6,3.6-3.6
					s3.6,1.2,3.6,3.6s-1.2,3.6-3.6,3.6S-30.7-71.5-30.7-73.9z"/>
			</g>
		</g>
		<text transform="matrix(1 0 0 1 -469.2509 54.353)" class="st10 st11">BY</text>
	</g>
	<g id="g20853" transform="translate(372.6032 500.7509)">
		<g id="g20855" transform="translate(-433.2665 80.00423)">
			<circle id="circle20857" class="st9" cx="-27" cy="-79.1" r="22.6"/>
			<g id="g20859">
				<path id="path20861" d="M-27.2-104.9c7.2,0,13.3,2.5,18.2,7.4c5,5,7.5,11,7.5,18.2s-2.4,13.2-7.3,18c-5.2,5.1-11.3,7.6-18.3,7.6
					c-6.9,0-12.9-2.5-18-7.5c-5-5-7.5-11-7.5-18.1c0-7,2.5-13.1,7.5-18.2C-40.2-102.5-34.2-104.9-27.2-104.9z M-27.1-100.3
					c-5.8,0-10.7,2-14.8,6.1c-4.2,4.3-6.3,9.2-6.3,14.9c0,5.7,2.1,10.6,6.2,14.7s9.1,6.2,14.8,6.2s10.7-2.1,14.9-6.3
					c4-3.9,6-8.8,6-14.7c0-5.8-2-10.8-6.1-14.9C-16.4-98.3-21.3-100.3-27.1-100.3z M-20.2-85.7v10.5h-2.9v12.4h-8v-12.4H-34v-10.5
					c0-0.5,0.2-0.8,0.5-1.2c0.3-0.3,0.7-0.5,1.2-0.5h10.5c0.4,0,0.8,0.2,1.1,0.5C-20.4-86.5-20.2-86.1-20.2-85.7z M-30.7-92.3
					c0-2.4,1.2-3.6,3.6-3.6s3.6,1.2,3.6,3.6s-1.2,3.6-3.6,3.6S-30.7-89.9-30.7-92.3z"/>
			</g>
		</g>
		<text transform="matrix(1 0 0 1 -469.2509 35.987)" class="st10 st11">BY</text>
	</g>
	<g id="g20867" transform="translate(372.6032 592.5837)">
		<g id="g20869" transform="translate(-433.2665 80.00423)">
			<circle id="circle20871" class="st9" cx="-27" cy="-97.5" r="22.6"/>
			<g id="g20873">
				<path id="path20875" d="M-27.2-123.3c7.2,0,13.3,2.5,18.2,7.4c5,5,7.5,11,7.5,18.2c0,7.2-2.4,13.2-7.3,18
					c-5.2,5.1-11.3,7.6-18.3,7.6c-6.9,0-12.9-2.5-18-7.5c-5-5-7.5-11-7.5-18.1c0-7,2.5-13.1,7.5-18.2
					C-40.2-120.8-34.2-123.3-27.2-123.3z M-27.1-118.7c-5.8,0-10.7,2-14.8,6.1c-4.2,4.3-6.3,9.2-6.3,14.9c0,5.7,2.1,10.6,6.2,14.7
					s9.1,6.2,14.8,6.2s10.7-2.1,14.9-6.3c4-3.9,6-8.8,6-14.7c0-5.8-2-10.8-6.1-14.9C-16.4-116.6-21.3-118.7-27.1-118.7z
					 M-20.2-104.1v10.5h-2.9v12.4h-8v-12.4H-34v-10.5c0-0.5,0.2-0.8,0.5-1.2c0.3-0.3,0.7-0.5,1.2-0.5h10.5c0.4,0,0.8,0.2,1.1,0.5
					C-20.4-104.9-20.2-104.5-20.2-104.1z M-30.7-110.6c0-2.4,1.2-3.6,3.6-3.6s3.6,1.2,3.6,3.6s-1.2,3.6-3.6,3.6
					S-30.7-108.3-30.7-110.6z"/>
			</g>
		</g>
		<text transform="matrix(1 0 0 1 -469.2509 17.62)" class="st10 st11">BY</text>
	</g>
	<g id="g21058" transform="translate(371.791 147.2063)">
		<text transform="matrix(1 0 0 1 -471.6789 22.4632)" class="st10 st11">CC0</text>
		<g id="g20729" transform="translate(-426.4543 -29.61524)">
			<circle id="circle20731" class="st9" cx="-33.3" cy="16.8" r="24.1"/>
			<path id="path20733" d="M-33.1,1.8c-8.5,0-10.6,8-10.6,14.7c0,6.8,2.1,14.7,10.6,14.7s10.6-8,10.6-14.7
				C-22.6,9.7-24.7,1.8-33.1,1.8z M-33.1,7.3c0.3,0,0.7,0.1,1,0.1c0.6,0.5,0.9,1.2,0.3,2.3L-37.5,20c-0.2-1.3-0.2-2.6-0.2-3.5
				C-37.7,13.5-37.5,7.3-33.1,7.3z M-28.9,12.1c0.3,1.6,0.3,3.2,0.3,4.4c0,3-0.2,9.2-4.6,9.2c-0.3,0-0.7,0-1-0.1
				c-0.1,0-0.1,0-0.2-0.1c-0.1,0-0.2-0.1-0.3-0.1c-1-0.4-1.6-1.2-0.7-2.5C-35.2,23-28.9,12.1-28.9,12.1z"/>
			<path id="path20735" d="M-33.2-9.1c-7.1,0-13.1,2.5-18,7.4c-2.5,2.5-4.4,5.3-5.7,8.4s-1.9,6.4-1.9,9.7c0,3.4,0.6,6.7,1.9,9.7
				c1.3,3.1,3.1,5.8,5.6,8.3c2.5,2.4,5.2,4.3,8.3,5.6s6.4,1.9,9.7,1.9c3.4,0,6.7-0.7,9.8-2c3.2-1.3,6-3.2,8.5-5.7
				c2.4-2.3,4.2-5,5.4-8.1s1.9-6.4,1.9-9.9s-0.6-6.8-1.9-9.8c-1.2-3.1-3.1-5.9-5.5-8.3C-19.9-6.6-26-9.1-33.2-9.1z M-33.1-4.5
				c5.8,0,10.7,2.1,14.8,6.2c2,2,3.5,4.2,4.5,6.8c1,2.5,1.6,5.2,1.6,8c0,5.9-2,10.8-6,14.7c-2.1,2-4.4,3.6-7,4.6
				c-2.6,1.1-5.2,1.6-7.9,1.6c-2.8,0-5.4-0.5-8-1.6c-2.5-1.1-4.8-2.6-6.8-4.6s-3.6-4.3-4.7-6.8c-1.1-2.6-1.6-5.2-1.6-7.9
				c0-2.8,0.5-5.4,1.6-8s2.6-4.9,4.7-6.9C-43.9-2.4-38.9-4.5-33.1-4.5z"/>
		</g>
	</g>
	<g id="g20803" transform="translate(372.6032 133.4196)">
		<g id="g20570" transform="translate(-433.2665 80.00423)">
			<circle id="circle20572" class="st9" cx="-27" cy="-5.6" r="22.6"/>
			<g id="g20574">
				<path id="path20576" d="M-27.2-31.5c7.2,0,13.3,2.5,18.2,7.4c5,5,7.5,11,7.5,18.2s-2.4,13.2-7.3,18c-5.2,5.1-11.3,7.6-18.3,7.6
					c-6.9,0-12.9-2.5-18-7.5c-5-5-7.5-11-7.5-18.1c0-7,2.5-13.1,7.5-18.2C-40.2-29-34.2-31.5-27.2-31.5z M-27.1-26.8
					c-5.8,0-10.7,2-14.8,6.1c-4.2,4.3-6.3,9.2-6.3,14.9S-46.1,4.8-42,8.9s9.1,6.2,14.8,6.2s10.7-2.1,14.9-6.3c4-3.9,6-8.8,6-14.7
					c0-5.8-2-10.8-6.1-14.9C-16.4-24.8-21.3-26.8-27.1-26.8z M-20.2-12.2v10.5h-2.9v12.4h-8V-1.8H-34v-10.5c0-0.5,0.2-0.8,0.5-1.2
					c0.3-0.3,0.7-0.5,1.2-0.5h10.5c0.4,0,0.8,0.2,1.1,0.5C-20.4-13.1-20.2-12.7-20.2-12.2z M-30.7-18.8c0-2.4,1.2-3.6,3.6-3.6
					s3.6,1.2,3.6,3.6s-1.2,3.6-3.6,3.6S-30.7-16.4-30.7-18.8z"/>
			</g>
		</g>
		<text transform="matrix(1 0 0 1 -469.2509 109.453)" class="st10 st11">BY</text>
	</g>
	<g id="g20811" transform="translate(372.6032 225.2524)">
		<g id="g20813" transform="translate(-433.2665 80.00423)">
			<circle id="circle20815" class="st9" cx="-27" cy="-24" r="22.6"/>
			<g id="g20817">
				<path id="path20819" d="M-27.2-49.8c7.2,0,13.3,2.5,18.2,7.4c5,5,7.5,11,7.5,18.2S-3.9-11-8.8-6.2c-5.2,5-11.3,7.6-18.4,7.6
					c-6.9,0-12.9-2.5-18-7.5c-5-5-7.5-11-7.5-18.1c0-7,2.5-13.1,7.5-18.2C-40.2-47.4-34.2-49.8-27.2-49.8z M-27.1-45.2
					c-5.8,0-10.7,2-14.8,6.1c-4.2,4.3-6.3,9.2-6.3,14.9s2.1,10.6,6.2,14.7s9.1,6.2,14.8,6.2s10.7-2.1,14.9-6.3c4-3.9,6-8.8,6-14.7
					c0-5.8-2-10.8-6.1-14.9C-16.4-43.2-21.3-45.2-27.1-45.2z M-20.2-30.6v10.5h-2.9v12.4h-8v-12.4H-34v-10.5c0-0.5,0.2-0.8,0.5-1.2
					c0.3-0.3,0.7-0.5,1.2-0.5h10.5c0.4,0,0.8,0.2,1.1,0.5C-20.4-31.4-20.2-31-20.2-30.6z M-30.7-37.2c0-2.4,1.2-3.6,3.6-3.6
					s3.6,1.2,3.6,3.6c0,2.4-1.2,3.6-3.6,3.6S-30.7-34.8-30.7-37.2z"/>
			</g>
		</g>
		<text transform="matrix(1 0 0 1 -469.2509 91.086)" class="st10 st11">BY</text>
	</g>
</g>
<g id="g6209" transform="translate(-59.03116 -18.62498)">
	<g id="g20589" transform="translate(277.4857 345.6241)">
		<circle id="circle20591" class="st9" cx="-13.5" cy="-42.6" r="23.1"/>
		<path id="path20593" d="M-13.7-68.2c7.2,0,13.3,2.5,18.3,7.5c2.4,2.4,4.2,5.2,5.5,8.3c1.2,3.1,1.9,6.4,1.9,9.9
			c0,3.5-0.6,6.8-1.9,9.9c-1.3,2.9-3.1,5.6-5.5,8c-2.5,2.5-5.3,4.4-8.5,5.7s-6.4,2-9.8,2s-6.6-0.6-9.7-1.9s-5.9-3.2-8.3-5.6
			s-4.3-5.2-5.6-8.3s-1.9-6.3-1.9-9.7s0.6-6.6,1.9-9.8c1.3-3.1,3.2-5.9,5.6-8.4C-26.8-65.7-20.8-68.2-13.7-68.2z M-13.6-63.6
			c-5.9,0-10.8,2-14.8,6.1c-2,2-3.6,4.3-4.6,6.9c-1.1,2.5-1.6,5.2-1.6,8c0,2.7,0.5,5.4,1.6,7.9c1.1,2.5,2.6,4.8,4.6,6.8
			s4.3,3.5,6.8,4.6s5.2,1.6,8,1.6c2.7,0,5.4-0.5,8-1.6s4.9-2.6,7-4.6c4-3.9,6-8.8,6-14.7c0-2.8-0.5-5.5-1.6-8
			c-1-2.5-2.5-4.8-4.5-6.8C-2.9-61.5-7.9-63.6-13.6-63.6z M-14-46.9l-3.4,1.8c-0.4-0.8-0.8-1.3-1.3-1.6s-1-0.5-1.5-0.5
			c-2.3,0-3.4,1.5-3.4,4.5c0,1.4,0.3,2.5,0.9,3.3s1.4,1.2,2.6,1.2c1.5,0,2.5-0.7,3.2-2.2l3.2,1.6c-0.7,1.3-1.6,2.2-2.8,2.9
			s-2.5,1.1-3.9,1.1c-2.3,0-4.1-0.7-5.5-2.1c-1.4-1.4-2.1-3.4-2.1-5.9c0-2.4,0.7-4.4,2.1-5.8c1.4-1.4,3.2-2.1,5.4-2.1
			C-17.6-50.6-15.3-49.3-14-46.9z M0.8-46.9l-3.4,1.8c-0.4-0.8-0.8-1.3-1.3-1.6s-1-0.5-1.5-0.5c-2.3,0-3.4,1.5-3.4,4.5
			c0,1.4,0.3,2.5,0.9,3.3s1.4,1.2,2.6,1.2c1.5,0,2.5-0.7,3.2-2.2l3.2,1.6c-0.7,1.3-1.6,2.2-2.8,2.9s-2.5,1.1-3.9,1.1
			c-2.3,0-4.2-0.7-5.6-2.1c-1.4-1.4-2.1-3.4-2.1-5.9c0-2.4,0.7-4.4,2.1-5.8c1.4-1.4,3.2-2.1,5.4-2.1C-2.8-50.6-0.5-49.3,0.8-46.9z"
			/>
	</g>
	<g id="g20781" transform="translate(277.4857 437.4569)">
		<circle id="circle20783" class="st9" cx="-13.5" cy="-61" r="23.1"/>
		<path id="path20785" d="M-13.7-86.6c7.2,0,13.3,2.5,18.3,7.5c2.4,2.4,4.2,5.2,5.5,8.3c1.2,3.1,1.9,6.4,1.9,9.9s-0.6,6.8-1.9,9.9
			c-1.3,2.9-3.1,5.7-5.5,8c-2.5,2.5-5.3,4.4-8.5,5.7s-6.4,2-9.8,2s-6.6-0.6-9.7-1.9c-3.1-1.3-5.9-3.2-8.3-5.6
			c-2.5-2.5-4.3-5.2-5.6-8.3s-1.9-6.3-1.9-9.7c0-3.4,0.6-6.6,1.9-9.8c1.3-3.1,3.2-5.9,5.6-8.4C-26.8-84.1-20.8-86.6-13.7-86.6z
			 M-13.6-81.9c-5.9,0-10.8,2-14.8,6.1c-2,2-3.6,4.3-4.6,6.9c-1.1,2.5-1.6,5.2-1.6,8c0,2.7,0.5,5.4,1.6,7.9c1.1,2.5,2.6,4.8,4.6,6.8
			s4.3,3.5,6.8,4.6s5.2,1.6,8,1.6c2.7,0,5.4-0.5,8-1.6s4.9-2.6,7-4.6c4-3.9,6-8.8,6-14.7c0-2.8-0.5-5.5-1.6-8
			c-1-2.5-2.5-4.8-4.5-6.8C-2.9-79.9-7.9-81.9-13.6-81.9z M-14-65.2l-3.4,1.8c-0.4-0.8-0.8-1.3-1.3-1.6s-1-0.5-1.5-0.5
			c-2.3,0-3.4,1.5-3.4,4.5c0,1.4,0.3,2.5,0.9,3.3s1.4,1.2,2.6,1.2c1.5,0,2.5-0.7,3.2-2.2l3.2,1.6c-0.7,1.3-1.6,2.2-2.8,2.9
			s-2.5,1.1-3.9,1.1c-2.3,0-4.1-0.7-5.5-2.1c-1.4-1.4-2.1-3.4-2.1-5.9c0-2.4,0.7-4.4,2.1-5.8s3.2-2.1,5.4-2.1
			C-17.6-68.9-15.3-67.7-14-65.2z M0.8-65.2l-3.4,1.8C-3-64.2-3.4-64.7-3.9-65s-1-0.5-1.5-0.5c-2.3,0-3.4,1.5-3.4,4.5
			c0,1.4,0.3,2.5,0.9,3.3s1.4,1.2,2.6,1.2c1.5,0,2.5-0.7,3.2-2.2l3,1.7c-0.7,1.3-1.6,2.2-2.8,2.9C-3.1-53.4-4.4-53-5.8-53
			c-2.3,0-4.2-0.7-5.6-2.1c-1.4-1.4-2.1-3.4-2.1-5.9c0-2.4,0.7-4.4,2.1-5.8s3.2-2.1,5.4-2.1C-2.8-68.9-0.5-67.7,0.8-65.2z"/>
	</g>
	<g id="g20787" transform="translate(277.4857 529.2897)">
		<circle id="circle20789" class="st9" cx="-13.5" cy="-79.3" r="23.1"/>
		<path id="path20791" d="M-13.7-104.9c7.2,0,13.3,2.5,18.3,7.5C7-95,8.8-92.3,10-89.2c1.2,3.1,1.9,6.4,1.9,9.9s-0.6,6.8-1.9,9.9
			c-1.2,3.1-3.1,5.8-5.5,8.1C2-58.8-0.8-56.9-4-55.6s-6.4,2-9.8,2s-6.6-0.6-9.7-1.9c-3.1-1.3-5.9-3.2-8.3-5.6
			c-2.5-2.5-4.3-5.2-5.6-8.3s-1.9-6.3-1.9-9.7c0-3.4,0.6-6.6,1.9-9.8c1.3-3.1,3.2-5.9,5.6-8.4C-26.8-102.4-20.8-104.9-13.7-104.9z
			 M-13.6-100.3c-5.9,0-10.8,2-14.8,6.1c-2,2-3.6,4.3-4.6,6.9c-1.1,2.5-1.6,5.2-1.6,8c0,2.7,0.5,5.4,1.6,7.9
			c1.1,2.5,2.6,4.8,4.6,6.8s4.3,3.5,6.8,4.6s5.2,1.6,8,1.6c2.7,0,5.4-0.5,8-1.6s4.9-2.6,7-4.6c4-3.9,6-8.8,6-14.7
			c0-2.8-0.5-5.5-1.6-8c-1-2.5-2.5-4.8-4.5-6.8C-2.9-98.3-7.9-100.3-13.6-100.3z M-14-83.6l-3.4,1.8c-0.4-0.8-0.8-1.3-1.3-1.6
			c-0.5-0.3-1-0.5-1.5-0.5c-2.3,0-3.4,1.5-3.4,4.5c0,1.4,0.3,2.5,0.9,3.3s1.4,1.2,2.6,1.2c1.5,0,2.5-0.7,3.2-2.2l3.2,1.6
			c-0.7,1.3-1.6,2.2-2.8,2.9c-1.2,0.7-2.5,1.1-3.9,1.1c-2.3,0-4.1-0.7-5.5-2.1S-28-77-28-79.5c0-2.4,0.7-4.4,2.1-5.8
			s3.2-2.1,5.4-2.1C-17.6-87.3-15.3-86.1-14-83.6z M0.8-83.6l-3.4,1.8c-0.4-0.8-0.8-1.3-1.3-1.6c-0.5-0.3-1-0.5-1.5-0.5
			c-2.3,0-3.4,1.5-3.4,4.5c0,1.4,0.3,2.5,0.9,3.3s1.4,1.2,2.6,1.2c1.5,0,2.5-0.7,3.2-2.2l3.2,1.6c-0.7,1.3-1.6,2.2-2.8,2.9
			c-1.2,0.7-2.5,1.1-3.9,1.1c-2.3,0-4.2-0.7-5.6-2.1s-2.1-3.4-2.1-5.9c0-2.4,0.7-4.4,2.1-5.8s3.2-2.1,5.4-2.1
			C-2.8-87.3-0.5-86.1,0.8-83.6z"/>
	</g>
	<g id="g20793" transform="translate(277.4857 621.1225)">
		<circle id="circle20795" class="st9" cx="-13.5" cy="-97.7" r="23.1"/>
		<path id="path20797" d="M-13.7-123.3c7.2,0,13.3,2.5,18.3,7.5c2.4,2.4,4.2,5.2,5.5,8.3c1.2,3.1,1.9,6.4,1.9,9.9s-0.6,6.8-1.9,9.9
			c-1.2,3.1-3.1,5.8-5.5,8.1c-2.5,2.5-5.3,4.4-8.5,5.7c-3.2,1.3-6.4,2-9.8,2s-6.6-0.6-9.7-1.9s-5.9-3.2-8.3-5.6
			c-2.5-2.5-4.3-5.2-5.6-8.3c-1.3-3.1-1.9-6.3-1.9-9.7c0-3.4,0.6-6.6,1.9-9.8c1.3-3.1,3.2-5.9,5.6-8.4
			C-26.8-120.8-20.8-123.3-13.7-123.3z M-13.6-118.7c-5.9,0-10.8,2-14.8,6.1c-2,2-3.6,4.3-4.6,6.9c-1.1,2.5-1.6,5.2-1.6,8
			c0,2.7,0.5,5.4,1.6,7.9c1.1,2.5,2.6,4.8,4.6,6.8s4.3,3.5,6.8,4.6s5.2,1.6,8,1.6c2.7,0,5.4-0.5,8-1.6s4.9-2.6,7-4.6
			c4-3.9,6-8.8,6-14.7c0-2.8-0.5-5.5-1.6-8c-1-2.5-2.5-4.8-4.5-6.8C-2.9-116.6-7.9-118.7-13.6-118.7z M-14-101.9l-3.4,1.8
			c-0.4-0.8-0.8-1.3-1.3-1.6c-0.5-0.3-1-0.5-1.5-0.5c-2.3,0-3.4,1.5-3.4,4.5c0,1.4,0.3,2.5,0.9,3.3s1.4,1.2,2.6,1.2
			c1.5,0,2.5-0.7,3.2-2.2l3.2,1.6c-0.7,1.3-1.6,2.2-2.8,2.9c-1.2,0.7-2.5,1.1-3.9,1.1c-2.3,0-4.1-0.7-5.5-2.1s-2.1-3.4-2.1-5.9
			c0-2.4,0.7-4.4,2.1-5.8s3.2-2.1,5.4-2.1C-17.6-105.7-15.3-104.4-14-101.9z M0.8-101.9l-3.4,1.8c-0.4-0.8-0.8-1.3-1.3-1.6
			c-0.5-0.3-1-0.5-1.5-0.5c-2.3,0-3.4,1.5-3.4,4.5c0,1.4,0.3,2.5,0.9,3.3s1.4,1.2,2.6,1.2c1.5,0,2.5-0.7,3.2-2.2l3.2,1.6
			c-0.7,1.3-1.6,2.2-2.8,2.9c-1.2,0.7-2.5,1.1-3.9,1.1c-2.3,0-4.2-0.7-5.6-2.1s-2.1-3.4-2.1-5.9c0-2.4,0.7-4.4,2.1-5.8
			s3.2-2.1,5.4-2.1C-2.8-105.7-0.5-104.4,0.8-101.9z"/>
	</g>
	<g id="g20707" transform="translate(277.4857 70.12562)">
		<circle id="circle20709" class="st9" cx="-13.5" cy="12.5" r="23.1"/>
		<path id="path20711" d="M-13.7-13.1c7.2,0,13.3,2.5,18.3,7.5C7-3.2,8.8-0.4,10,2.6c1.2,3.1,1.9,6.4,1.9,9.9s-0.6,6.8-1.9,9.9
			c-1.2,3.1-3.1,5.8-5.5,8.1C2,33-0.8,34.9-4,36.2s-6.4,2-9.8,2s-6.6-0.6-9.7-1.9c-3.1-1.3-5.9-3.2-8.3-5.6s-4.3-5.2-5.6-8.3
			s-1.9-6.3-1.9-9.7s0.6-6.6,1.9-9.8c1.3-3.1,3.2-5.9,5.6-8.4C-26.8-10.6-20.8-13.1-13.7-13.1z M-13.6-8.5c-5.9,0-10.8,2-14.8,6.1
			c-2,2-3.6,4.3-4.6,6.9c-1.1,2.5-1.6,5.2-1.6,8c0,2.7,0.5,5.4,1.6,7.9c1.1,2.5,2.6,4.8,4.6,6.8s4.3,3.5,6.8,4.6s5.2,1.6,8,1.6
			c2.7,0,5.4-0.5,8-1.6s4.9-2.6,7-4.6c4-3.9,6-8.8,6-14.7c0-2.8-0.5-5.5-1.6-8C4.8,2,3.3-0.3,1.3-2.3C-2.9-6.4-7.9-8.5-13.6-8.5z
			 M-14,8.2l-3.4,1.8c-0.4-0.8-0.8-1.3-1.3-1.6s-1-0.5-1.5-0.5c-2.3,0-3.4,1.5-3.4,4.5c0,1.4,0.3,2.5,0.9,3.3s1.4,1.2,2.6,1.2
			c1.5,0,2.5-0.7,3.2-2.2l3.2,1.6c-0.7,1.3-1.6,2.2-2.8,2.9c-1.2,0.7-2.5,1.1-3.9,1.1c-2.3,0-4.1-0.7-5.5-2.1s-2.1-3.4-2.1-5.9
			c0-2.4,0.7-4.4,2.1-5.8s3.2-2.1,5.4-2.1C-17.6,4.5-15.3,5.8-14,8.2z M0.8,8.2L-2.6,10C-3,9.2-3.4,8.7-3.9,8.4C-4.5,8.1-5,8-5.5,8
			c-2.3,0-3.4,1.5-3.4,4.5c0,1.4,0.3,2.5,0.9,3.3S-6.6,17-5.4,17c1.5,0,2.5-0.7,3.2-2.2L1,16.4c-0.7,1.3-1.6,2.2-2.8,2.9
			C-3,20-4.3,20.4-5.7,20.4c-2.3,0-4.2-0.7-5.6-2.1s-2.1-3.4-2.1-5.9c0-2.4,0.7-4.4,2.1-5.8C-9.9,5.3-8.1,4.5-6,4.5
			C-2.8,4.5-0.5,5.8,0.8,8.2z"/>
	</g>
	<g id="g20713" transform="translate(277.4857 161.9584)">
		<circle id="circle20715" class="st9" cx="-13.5" cy="-5.9" r="23.1"/>
		<path id="path20717" d="M-13.7-31.5c7.2,0,13.3,2.5,18.3,7.5c2.4,2.4,4.2,5.2,5.5,8.3c1.2,3.1,1.9,6.4,1.9,9.9S11.4,1,10.1,4.1
			C8.8,7,7,9.8,4.6,12.1c-2.5,2.5-5.3,4.4-8.5,5.7s-6.4,2-9.8,2s-6.6-0.6-9.7-1.9s-5.9-3.2-8.3-5.6S-36,7.1-37.3,4s-1.9-6.3-1.9-9.7
			s0.6-6.6,1.9-9.8c1.3-3.1,3.2-5.9,5.6-8.4C-26.8-29-20.8-31.5-13.7-31.5z M-13.6-26.8c-5.9,0-10.8,2-14.8,6.1
			c-2,2-3.6,4.3-4.6,6.9c-1.1,2.5-1.6,5.2-1.6,8c0,2.7,0.5,5.4,1.6,7.9c1.1,2.5,2.6,4.8,4.6,6.8s4.3,3.5,6.8,4.6s5.2,1.6,8,1.6
			c2.7,0,5.4-0.5,8-1.6s4.9-2.6,7-4.6c4-3.9,6-8.8,6-14.7c0-2.8-0.5-5.5-1.6-8c-1-2.5-2.5-4.8-4.5-6.8C-2.9-24.8-7.9-26.8-13.6-26.8
			z M-14-10.1l-3.4,1.8c-0.4-0.8-0.8-1.3-1.3-1.6s-1-0.5-1.5-0.5c-2.3,0-3.4,1.5-3.4,4.5c0,1.4,0.3,2.5,0.9,3.3s1.4,1.2,2.6,1.2
			c1.5,0,2.5-0.7,3.2-2.2l3.2,1.6c-0.7,1.3-1.6,2.2-2.8,2.9S-19,2-20.4,2c-2.3,0-4.1-0.7-5.5-2.1S-28-3.5-28-6
			c0-2.4,0.7-4.4,2.1-5.8s3.2-2.1,5.4-2.1C-17.6-13.8-15.3-12.6-14-10.1z M0.8-10.1l-3.4,1.8C-3-9.1-3.4-9.6-3.9-9.9s-1-0.5-1.5-0.5
			c-2.3,0-3.4,1.5-3.4,4.5c0,1.4,0.3,2.5,0.9,3.3s1.4,1.2,2.6,1.2c1.5,0,2.5-0.7,3.2-2.2L1.1-2c-0.9,1.3-1.9,2.3-3,3
			c-1.2,0.7-2.5,1.1-3.9,1.1c-2.3,0-4.2-0.7-5.6-2.1s-2.1-3.4-2.1-5.9c0-2.4,0.7-4.4,2.1-5.8s3.2-2.1,5.4-2.1
			C-2.8-13.8-0.5-12.6,0.8-10.1z"/>
	</g>
	<g id="g20719" transform="translate(277.4857 253.7913)">
		<circle id="circle20721" class="st9" cx="-13.5" cy="-24.2" r="23.1"/>
		<path id="path20723" d="M-13.7-49.8c7.2,0,13.3,2.5,18.3,7.5c2.4,2.4,4.2,5.2,5.5,8.3c1.2,3.1,1.9,6.4,1.9,9.9s-0.6,6.8-1.9,9.9
			C8.8-11.3,7-8.6,4.6-6.3C2.1-3.8-0.7-1.9-3.9-0.6s-6.4,2-9.8,2s-6.6-0.6-9.7-1.9s-5.9-3.2-8.3-5.6s-4.3-5.2-5.6-8.3
			s-1.9-6.3-1.9-9.7s0.6-6.6,1.9-9.8c1.3-3.1,3.2-5.9,5.6-8.4C-26.8-47.3-20.8-49.8-13.7-49.8z M-13.6-45.2c-5.9,0-10.8,2-14.8,6.1
			c-2,2-3.6,4.3-4.6,6.9c-1.1,2.5-1.6,5.2-1.6,8c0,2.7,0.5,5.4,1.6,7.9c1.1,2.5,2.6,4.8,4.6,6.8s4.3,3.5,6.8,4.6s5.2,1.6,8,1.6
			c2.7,0,5.4-0.5,8-1.6s4.9-2.6,7-4.6c4-3.9,6-8.8,6-14.7c0-2.8-0.5-5.5-1.6-8c-1-2.5-2.5-4.8-4.5-6.8C-2.9-43.2-7.9-45.2-13.6-45.2
			z M-14-28.5l-3.4,1.8c-0.4-0.8-0.8-1.3-1.3-1.6c-0.5-0.3-1-0.5-1.5-0.5c-2.3,0-3.4,1.5-3.4,4.5c0,1.4,0.3,2.5,0.9,3.3
			s1.4,1.2,2.6,1.2c1.5,0,2.5-0.7,3.2-2.2l3.2,1.6c-0.7,1.3-1.6,2.2-2.8,2.9c-1.2,0.7-2.5,1.1-3.9,1.1c-2.3,0-4.1-0.7-5.5-2.1
			s-2.1-3.4-2.1-5.9c0-2.4,0.7-4.4,2.1-5.8s3.2-2.1,5.4-2.1C-17.6-32.2-15.3-31-14-28.5z M0.8-28.5l-3.4,1.8
			C-3-27.5-3.4-28-3.9-28.3c-0.5-0.3-1-0.5-1.5-0.5c-2.3,0-3.4,1.5-3.4,4.5c0,1.4,0.3,2.5,0.9,3.3s1.4,1.2,2.6,1.2
			c1.5,0,2.5-0.7,3.2-2.2l3.2,1.6c-0.7,1.3-1.6,2.2-2.8,2.9c-1.2,0.7-2.5,1.1-3.9,1.1c-2.3,0-4.2-0.7-5.6-2.1s-2.1-3.4-2.1-5.9
			c0-2.4,0.7-4.4,2.1-5.8s3.2-2.1,5.4-2.1C-2.8-32.2-0.5-31,0.8-28.5z"/>
	</g>
</g>
<g id="g5976" transform="translate(339.2019 -70.09038)">
	<g id="g20984" transform="translate(358.5927 114.9376)">
		<g id="g20913" transform="translate(-344.9474 190.319)">
			<circle id="circle20915" class="st9" cx="-41" cy="-24.1" r="23.3"/>
			<g id="g20917">
				<path id="path20919" d="M-40.6-49.8c7.2,0,13.2,2.5,18.2,7.5c5,4.9,7.5,11,7.5,18.1c0,7.2-2.4,13.2-7.3,18
					c-5.1,5.1-11.3,7.6-18.3,7.6c-6.9,0-12.9-2.5-18-7.5c-5-5-7.5-11-7.5-18.1c0-7,2.5-13,7.5-18.1C-53.7-47.3-47.7-49.8-40.6-49.8z
					 M-40.5-45.2c-5.8,0-10.7,2.1-14.8,6.2c-4.2,4.2-6.3,9.2-6.3,14.8c0,5.7,2.1,10.6,6.2,14.7s9.1,6.2,14.8,6.2s10.7-2.1,14.9-6.3
					c4-3.9,6-8.8,6-14.7s-2-10.8-6.1-14.8C-29.8-43.2-34.7-45.2-40.5-45.2z M-52-27.8c0.5-3.1,1.8-5.6,3.8-7.3s4.5-2.6,7.5-2.6
					c4,0,7.2,1.3,9.6,3.9s3.6,5.9,3.6,10c0,3.9-1.2,7.2-3.7,9.8s-5.7,3.9-9.6,3.9c-2.9,0-5.4-0.9-7.5-2.6s-3.4-4.2-3.8-7.4h6.4
					c0.2,3.1,2,4.7,5.6,4.7c1.8,0,3.2-0.8,4.3-2.3c1.1-1.6,1.6-3.6,1.6-6.2c0-2.7-0.5-4.8-1.5-6.2c-1-1.4-2.5-2.1-4.3-2.1
					c-3.4,0-5.3,1.5-5.8,4.5h1.9l-5.1,5.1l-5.1-5.1C-54-27.8-52-27.8-52-27.8z"/>
			</g>
		</g>
		<text transform="matrix(1 0 0 1 -394.1198 201.4765)" class="st10 st11">SA</text>
	</g>
	<g id="g20996" transform="translate(361.0047 104.3092)">
		<g id="g20905" transform="translate(-347.3594 292.7803)">
			<circle id="circle20907" class="st9" cx="-40.6" cy="-42.4" r="23.6"/>
			<g id="g20909">
				<path id="path20911" d="M-40.6-68.2c7.2,0,13.3,2.5,18.2,7.4c5,4.9,7.5,11,7.5,18.2s-2.4,13.2-7.3,18
					c-5.2,5.1-11.3,7.6-18.3,7.6c-6.9,0-13-2.5-18-7.6c-5-5-7.5-11-7.5-18s2.5-13.1,7.5-18.2C-53.7-65.7-47.7-68.2-40.6-68.2z
					 M-60.4-49.5c-0.8,2.1-1.1,4.4-1.1,6.9c0,5.7,2.1,10.6,6.2,14.7c4.2,4.1,9.1,6.2,14.8,6.2c5.8,0,10.7-2.1,14.9-6.3
					c1.5-1.4,2.7-2.9,3.5-4.5l-9.6-4.3c-0.3,1.6-1.2,2.9-2.4,4c-1.3,1-2.8,1.6-4.6,1.8v3.9h-3V-31c-2.8,0-5.4-1-7.8-3.1l3.5-3.6
					c1.7,1.6,3.6,2.3,5.7,2.3c0.9,0,1.6-0.2,2.3-0.6c0.6-0.4,0.9-1,0.9-2c0-0.6-0.2-1.2-0.7-1.6l-2.5-1.1l-3-1.4l-4.1-1.8
					C-47.3-43.7-60.4-49.5-60.4-49.5z M-40.5-63.6c-5.8,0-10.7,2.1-14.8,6.2c-1,1-2,2.1-2.8,3.4l9.8,4.4c0.4-1.3,1.2-2.4,2.4-3.2
					s2.6-1.3,4.2-1.3V-58h3v3.9c2.3,0.1,4.5,0.9,6.4,2.4l-3.3,3.4c-1.4-1-2.9-1.5-4.4-1.5c-0.8,0-1.5,0.2-2.1,0.5s-0.9,0.8-0.9,1.6
					c0,0.2,0.1,0.4,0.2,0.6l3.2,1.5l2.2,1l4.1,1.8l13.1,5.9c0.4-1.8,0.6-3.6,0.6-5.5c0-5.9-2-10.8-6.1-14.9
					C-29.8-61.6-34.7-63.6-40.5-63.6z"/>
			</g>
		</g>
		<text transform="matrix(1 0 0 1 -396.8062 285.1972)" class="st10 st11">NC</text>
	</g>
	<g id="g21004" transform="translate(361.0047 196.1421)">
		<g id="g21006" transform="translate(-347.3594 292.7803)">
			<circle id="circle21008" class="st9" cx="-40.6" cy="-60.8" r="23.6"/>
			<g id="g21010">
				<path id="path21012" d="M-40.6-86.6c7.2,0,13.3,2.5,18.2,7.4c5,4.9,7.5,11,7.5,18.2s-2.4,13.2-7.3,18
					c-5.2,5.1-11.3,7.6-18.3,7.6c-6.9,0-13-2.5-18-7.6c-5-5-7.5-11-7.5-18s2.5-13.1,7.5-18.2C-53.7-84.1-47.7-86.6-40.6-86.6z
					 M-60.4-67.9c-0.8,2.1-1.1,4.4-1.1,6.9c0,5.7,2.1,10.6,6.2,14.7c4.2,4.1,9.1,6.2,14.8,6.2c5.8,0,10.7-2.1,14.9-6.3
					c1.5-1.4,2.7-2.9,3.5-4.5l-9.6-4.3c-0.3,1.6-1.2,2.9-2.4,4c-1.3,1-2.8,1.6-4.6,1.8v3.9h-3v-3.9c-2.8,0-5.4-1-7.8-3.1L-46-56
					c1.7,1.6,3.6,2.3,5.7,2.3c0.9,0,1.6-0.2,2.3-0.6c0.6-0.4,0.9-1,0.9-2c0-0.6-0.2-1.2-0.7-1.6l-2.5-1.1l-3-1.4l-4.1-1.8
					C-47.3-62-60.4-67.9-60.4-67.9z M-40.5-82c-5.8,0-10.7,2.1-14.8,6.2c-1,1-2,2.1-2.8,3.4l9.8,4.4c0.4-1.3,1.2-2.4,2.4-3.2
					c1.2-0.8,2.6-1.3,4.2-1.3v-3.9h3v3.9c2.3,0.1,4.5,0.9,6.4,2.4l-3.3,3.4c-1.4-1-2.9-1.5-4.4-1.5c-0.8,0-1.5,0.2-2.1,0.5
					s-0.9,0.8-0.9,1.6c0,0.2,0.1,0.4,0.2,0.6l3.2,1.5l2.2,1l4.1,1.8l13.1,5.9c0.4-1.8,0.6-3.6,0.6-5.5c0-5.9-2-10.8-6.1-14.9
					C-29.8-79.9-34.7-82-40.5-82z"/>
			</g>
		</g>
		<text transform="matrix(1 0 0 1 -396.8062 266.8301)" class="st10 st11">NC</text>
	</g>
	<g id="g21018" transform="translate(361.0047 379.8077)">
		<g id="g21020" transform="translate(-347.3594 292.7803)">
			<circle id="circle21022" class="st9" cx="-40.6" cy="-97.5" r="23.6"/>
			<g id="g21024">
				<path id="path21026" d="M-40.6-123.3c7.2,0,13.3,2.5,18.2,7.4c5,4.9,7.5,11,7.5,18.2c0,7.2-2.4,13.2-7.3,18
					c-5.2,5.1-11.3,7.6-18.3,7.6c-6.9,0-13-2.5-18-7.6c-5-5-7.5-11-7.5-18s2.5-13.1,7.5-18.2C-53.7-120.8-47.7-123.3-40.6-123.3z
					 M-60.4-104.6c-0.8,2.1-1.1,4.4-1.1,6.9c0,5.7,2.1,10.6,6.2,14.7c4.2,4.1,9.1,6.2,14.8,6.2c5.8,0,10.7-2.1,14.9-6.3
					c1.5-1.4,2.7-2.9,3.5-4.5l-9.6-4.3c-0.3,1.6-1.2,2.9-2.4,4c-1.3,1-2.8,1.6-4.6,1.8v3.9h-3v-3.9c-2.8,0-5.4-1-7.8-3.1l3.5-3.6
					c1.7,1.6,3.6,2.3,5.7,2.3c0.9,0,1.6-0.2,2.3-0.6c0.6-0.4,0.9-1,0.9-2c0-0.6-0.2-1.2-0.7-1.6l-2.5-1.1l-3-1.4l-4.1-1.8
					C-47.3-98.8-60.4-104.6-60.4-104.6z M-40.5-118.7c-5.8,0-10.7,2.1-14.8,6.2c-1,1-2,2.1-2.8,3.4l9.8,4.4c0.4-1.3,1.2-2.4,2.4-3.2
					c1.2-0.8,2.6-1.3,4.2-1.3v-3.9h3v3.9c2.3,0.1,4.5,0.9,6.4,2.4l-3.3,3.4c-1.4-1-2.9-1.5-4.4-1.5c-0.8,0-1.5,0.2-2.1,0.5
					s-0.9,0.8-0.9,1.6c0,0.2,0.1,0.4,0.2,0.6l3.2,1.5l2.2,1l4.1,1.8l13.1,5.9c0.4-1.8,0.6-3.6,0.6-5.5c0-5.9-2-10.8-6.1-14.9
					C-29.8-116.7-34.7-118.7-40.5-118.7z"/>
			</g>
		</g>
		<text transform="matrix(1 0 0 1 -396.8062 230.0971)" class="st10 st11">NC</text>
	</g>
	<g id="g21036" transform="translate(362.8313 116.2838)">
		<g id="g20897" transform="translate(-349.186 464.4714)">
			<circle id="circle20899" class="st9" cx="-40.5" cy="-79.5" r="23.2"/>
			<g id="g20901">
				<path id="path20903" d="M-40.6-104.9c7.2,0,13.2,2.5,18.2,7.5c5,4.9,7.5,11,7.5,18.1c0,7.2-2.4,13.2-7.3,18
					c-5.1,5.1-11.3,7.6-18.3,7.6c-6.9,0-12.9-2.5-18-7.5c-5-5-7.5-11-7.5-18.1c0-7,2.5-13,7.5-18.1
					C-53.7-102.4-47.7-104.9-40.6-104.9z M-40.5-100.3c-5.8,0-10.7,2.1-14.8,6.2c-4.2,4.2-6.3,9.2-6.3,14.8c0,5.7,2.1,10.6,6.2,14.7
					s9.1,6.2,14.8,6.2s10.7-2.1,14.9-6.3c4-3.9,6-8.8,6-14.7c0-5.9-2-10.8-6.1-14.8C-29.8-98.3-34.7-100.3-40.5-100.3z M-30.9-85.4
					v4.4h-18.6v-4.4H-30.9z M-30.9-77.1v4.4h-18.6v-4.4H-30.9z"/>
			</g>
		</g>
		<text transform="matrix(1 0 0 1 -398.6426 419.9179)" class="st10 st11">ND</text>
	</g>
</g>
<g id="g6013" transform="translate(332.0901 -70.09038)">
	<g id="g20976" transform="translate(432.9013,298.6033)">
		<g id="g20964" transform="translate(-344.9474 190.319)">
			<circle id="circle20966" class="st9" cx="-54.5" cy="-60.9" r="23.3"/>
			<g id="g20968">
				<path id="path20970" d="M-54.1-86.6c7.2,0,13.2,2.5,18.2,7.5c5,4.9,7.5,11,7.5,18.1c0,7.2-2.4,13.2-7.3,18
					c-5.1,5.1-11.3,7.6-18.3,7.6c-6.9,0-12.9-2.5-18-7.5c-5-5-7.5-11-7.5-18.1c0-7,2.5-13,7.5-18.1C-67.1-84.1-61.1-86.6-54.1-86.6z
					 M-54-81.9c-5.8,0-10.7,2.1-14.8,6.2C-72.9-71.5-75-66.6-75-61c0,5.7,2.1,10.6,6.2,14.7s9.1,6.2,14.8,6.2s10.7-2.1,14.9-6.3
					c4-3.9,6-8.8,6-14.7s-2-10.8-6.1-14.8C-43.2-79.9-48.1-81.9-54-81.9z M-65.4-64.6c0.5-3.1,1.8-5.6,3.8-7.3
					c2-1.7,4.5-2.6,7.5-2.6c4,0,7.2,1.3,9.6,3.9s3.6,5.9,3.6,10c0,3.9-1.2,7.2-3.7,9.8s-5.7,3.9-9.6,3.9c-2.9,0-5.4-0.9-7.5-2.6
					c-2.1-1.7-3.4-4.2-3.8-7.4h6.4c0.2,3.1,2,4.7,5.6,4.7c1.8,0,3.2-0.8,4.3-2.3c1.1-1.6,1.6-3.6,1.6-6.2c0-2.7-0.5-4.8-1.5-6.2
					c-1-1.4-2.5-2.1-4.3-2.1c-3.4,0-5.3,1.5-5.8,4.5h1.9l-5.1,5.1l-5.1-5.1C-67.4-64.6-65.4-64.6-65.4-64.6z"/>
			</g>
		</g>
		<text transform="matrix(1 0 0 1 -407.5598 164.7429)" class="st10 st11">SA</text>
	</g>
	<g id="g21044" transform="translate(437.1399 208.1166)">
		<g id="g21046" transform="translate(-349.186 464.4714)">
			<circle id="circle21048" class="st9" cx="-54" cy="-97.9" r="23.2"/>
			<g id="g21050">
				<path id="path21052" d="M-54.1-123.3c7.2,0,13.2,2.5,18.2,7.5c5,4.9,7.5,11,7.5,18.1c0,7.2-2.4,13.2-7.3,18
					c-5.1,5.1-11.3,7.6-18.3,7.6c-6.9,0-12.9-2.5-18-7.5c-5-5-7.5-11-7.5-18.1c0-7,2.5-13,7.5-18.1
					C-67.1-120.8-61.1-123.3-54.1-123.3z M-54-118.7c-5.8,0-10.7,2.1-14.8,6.2c-4.2,4.2-6.3,9.2-6.3,14.8c0,5.7,2.1,10.6,6.2,14.7
					s9.1,6.2,14.8,6.2s10.7-2.1,14.9-6.3c4-3.9,6-8.8,6-14.7c0-5.9-2-10.8-6.1-14.8C-43.2-116.6-48.1-118.7-54-118.7z M-44.3-103.7
					v4.4h-18.6v-4.4H-44.3z M-44.3-95.5v4.4h-18.6v-4.4H-44.3z"/>
			</g>
		</g>
		<text transform="matrix(1 0 0 1 -412.0815 401.5509)" class="st10 st11">ND</text>
	</g>
</g>
<text transform="matrix(6.123234e-17 1 -1 6.123234e-17 157.3496 9.6196)" class="st10 st11">sehr offen</text>
<text transform="matrix(6.123234e-17 1 -1 6.123234e-17 156.4336 553.8887)" class="st10 st11">geschlossen</text>
<g id="g21537" transform="translate(763.3782 87.92636)">
	<g id="g21299" transform="translate(-752.4242 465.5084)">
		<circle id="circle21301" class="st9" cx="28.2" cy="-87.6" r="23.8"/>
		<g id="g21303">
			<path id="path21305" d="M27.8-113.5C35-113.5,41-111,46-106c5,4.9,7.5,11,7.5,18.1c0,7.2-2.4,13.2-7.3,18
				c-5.1,5.1-11.3,7.6-18.3,7.6c-6.9,0-12.9-2.5-18-7.5c-5-5-7.5-11-7.5-18.1c0-7,2.5-13,7.5-18.1C14.7-111,20.7-113.5,27.8-113.5z
				 M27.9-108.9c-5.8,0-10.7,2.1-14.8,6.2c-4.2,4.2-6.3,9.2-6.3,14.8c0,5.7,2.1,10.6,6.2,14.7C17.2-69,22.1-67,27.9-67
				c5.7,0,10.7-2.1,14.9-6.3c4-3.9,6-8.8,6-14.7c0-5.9-2-10.8-6.1-14.8S33.7-108.9,27.9-108.9z M38.3-95.2c0.4,0,0.7,0.1,1,0.4
				s0.4,0.6,0.4,1V-75c0,0.4-0.1,0.7-0.4,1c-0.3,0.3-0.6,0.4-1,0.4h-14c-0.4,0-0.7-0.1-1-0.4s-0.4-0.6-0.4-1v-5.6h-5.6
				c-0.4,0-0.7-0.1-1-0.4c-0.3-0.3-0.4-0.6-0.4-1v-18.8c0-0.4,0.1-0.7,0.4-0.9c0.2-0.3,0.5-0.4,0.9-0.5h0.1h13.9
				c0.4,0,0.7,0.1,1,0.4c0.3,0.3,0.4,0.6,0.4,1v5.6L38.3-95.2L38.3-95.2z M18.7-83.3h4.2v-10.5c0-0.4,0.1-0.7,0.4-0.9
				c0.2-0.3,0.5-0.4,0.9-0.5h0.2H30v-4.2H18.7V-83.3z M36.9-92.4H25.7v16h11.2V-92.4z"/>
		</g>
	</g>
	<text transform="matrix(1 0 0 1 -738.6614 414.4066)" class="st10 st11">teilen</text>
</g>
<g id="g6184" transform="translate(-586.5515 -18.62498)">
	<g id="g21232" transform="translate(1340.176 -234.9542)">
		<g id="g21234" transform="translate(-742.6706 296.3655)">
			<circle id="circle21236" class="st9" cx="28.2" cy="14.6" r="23.8"/>
			<g id="g21238">
				<path id="path21240" d="M27.8-11.4C35-11.4,41-8.9,46-3.9c5,4.9,7.5,11,7.5,18.1c0,7.2-2.4,13.2-7.3,18
					c-5.1,5.1-11.3,7.6-18.3,7.6c-6.9,0-12.9-2.5-18-7.5c-5-5-7.5-11-7.5-18.1c0-7,2.5-13,7.5-18.1C14.7-8.9,20.7-11.4,27.8-11.4z
					 M27.9-6.7c-5.8,0-10.7,2.1-14.8,6.2C8.9,3.7,6.8,8.6,6.8,14.2c0,5.7,2.1,10.6,6.2,14.7s9.1,6.2,14.8,6.2s10.7-2.1,14.9-6.3
					c4-3.9,6-8.8,6-14.7s-2-10.8-6.1-14.8C38.6-4.7,33.7-6.7,27.9-6.7z M38.3,6.9c0.4,0,0.7,0.1,1,0.4s0.4,0.6,0.4,1v18.8
					c0,0.4-0.1,0.7-0.4,1c-0.3,0.3-0.6,0.4-1,0.4h-14c-0.4,0-0.7-0.1-1-0.4s-0.4-0.6-0.4-1v-5.6h-5.6c-0.4,0-0.7-0.1-1-0.4
					c-0.3-0.3-0.4-0.6-0.4-1V1.4c0-0.4,0.1-0.7,0.4-0.9c0.2-0.3,0.5-0.4,0.9-0.5h0.1h13.9c0.4,0,0.7,0.1,1,0.4
					c0.3,0.3,0.4,0.6,0.4,1V7L38.3,6.9L38.3,6.9z M18.7,18.8h4.2V8.3c0-0.4,0.1-0.7,0.4-0.9c0.2-0.3,0.5-0.4,0.9-0.5h0.2H30V2.8
					H18.7V18.8z M36.9,9.7H25.7v16h11.2V9.7z"/>
			</g>
		</g>
		<text transform="matrix(1 0 0 1 -730.9077 347.3931)" class="st10 st11">teilen</text>
	</g>
	<g id="g21311" transform="translate(1344.494 149.4407)">
		<g id="g21313" transform="translate(-746.9882 -3.630275)">
			<circle id="circle21315" class="st9" cx="28.1" cy="-3" r="23.1"/>
			<g id="g21317">
				<path id="path21319" d="M27.8-28.2c7.2,0,13.2,2.5,18.2,7.5c5,4.9,7.5,11,7.5,18.1c0,7.2-2.4,13.2-7.3,18
					c-5.3,5-11.4,7.6-18.4,7.6c-6.9,0-12.9-2.5-18-7.5c-5-5-7.5-11-7.5-18.1c0-7,2.5-13,7.5-18.1C14.7-25.8,20.7-28.2,27.8-28.2z
					 M27.9-23.6c-5.8,0-10.7,2.1-14.8,6.2C8.9-13.2,6.8-8.3,6.8-2.6S8.9,8,13,12.1s9.1,6.2,14.8,6.2s10.7-2.1,14.9-6.3
					c4-3.9,6-8.8,6-14.7s-2-10.8-6.1-14.8C38.6-21.6,33.7-23.6,27.9-23.6z M44.5-2.2L45-2v7.2l-0.5,0.2l-6.2,2.7L38,8.2l-0.3-0.1
					L24.4,2.6l-0.5-0.2l-6.6,2.7l-6.5-2.8v-6.6l6.1-2.6l0,0v-7.2l6.9-3.1l15.7,6.5v6.4C39.5-4.3,44.5-2.2,44.5-2.2z M37.3,6.2V1.7
					l0,0V1.5L25.5-3.3v4.7L37.3,6.2L37.3,6.2L37.3,6.2z M38,0.3l4.1-1.7L38.4-3l-4,1.7L38,0.3z M43.4,4.2v-4.4l-4.6,1.9v4.5
					L43.4,4.2z"/>
			</g>
		</g>
		<text transform="matrix(1 0 0 1 -742.6559 30.2897)" class="st10 st11">re</text>
		<text transform="matrix(1 0 0 1 -731.2559 30.2897)" class="st10 st11">m</text>
		<text transform="matrix(1 0 0 1 -719.9559 30.2897)" class="st10 st11">ixen</text>
	</g>
	<g id="g6174">
		<circle id="circle6147" class="st9" cx="625" cy="210" r="23.1"/>
		<g id="g21376" transform="translate(1352.864 187.6362)">
			<text transform="matrix(1 0 0 1 -761.0073 57.9575)" class="st10 st11">kommerziell</text>
			<g id="g21365" transform="translate(-749.8582 37.54146)">
				<path id="path21353" d="M21.7-41.3C7.8-41-3.3-29.6-3.3-15.7C-3.3-1.6,8.2,9.9,22.3,9.9S47.9-1.6,47.9-15.7S36.4-41.3,22.3-41.3
					C22.1-41.3,21.9-41.3,21.7-41.3 M21.6-36.9c0.2,0,0.4,0,0.7,0c11.7,0,21.2,9.5,21.2,21.2S34,5.5,22.3,5.5S1.1-4,1.1-15.7
					C1.1-27.2,10.2-36.6,21.6-36.9"/>
				<path id="path21355" d="M17.2-10.3c1.6,2.3,6.7,2.5,8.4,1.5c0.6-0.4,0.8-1.4,0.8-2.1c0-0.5-0.1-0.9-0.4-1.1
					c-0.3-0.3-1-1-1.7-1.2c-4-1-6.8-2.3-7.9-3.3c-1.4-1.2-1.6-1.9-1.6-4s0.6-3.8,1.9-5s3.3-1.8,5.8-1.8c2.4,0,5.8,0.6,7.5,2.6
					l-2.8,3c-1.6-1.3-2.7-1.4-4.6-1.4c-1.2,0-1.8,0.2-2.3,0.5s-0.8,0.8-0.8,1.3s0.2,0.9,0.7,1.2c0.5,0.3,1.7,0.8,4.1,1.5
					c2.7,0.7,4.6,1.6,5.6,2.7s1.4,2.5,1.4,4.2c0,2.1-0.7,3.9-2.2,5.3C27.6-5,25.8-4,23.2-4c-3.4,0-7.9-1.2-9.1-3.4"/>
				<path id="path21357" d="M21-31v5.5h2.6V-31H21 M21-5.3v4.9h2.6v-4.9H21"/>
			</g>
		</g>
	</g>
</g>
<g id="g21384" transform="translate(753.6246 36.47881)">
	<g id="g21386" transform="translate(-742.6706 296.3655)">
		<circle id="circle21388" class="st9" cx="28.2" cy="-43.5" r="23.8"/>
		<g id="g21390">
			<path id="path21392" d="M27.8-69.4c7.2,0,13.2,2.5,18.2,7.5c5,4.9,7.5,11,7.5,18.1c0,7.2-2.4,13.2-7.3,18
				c-5.1,5.1-11.3,7.6-18.3,7.6c-6.9,0-12.9-2.5-18-7.5c-5-5-7.5-11-7.5-18.1c0-7,2.5-13,7.5-18.1C14.7-66.9,20.7-69.4,27.8-69.4z
				 M27.9-64.8c-5.8,0-10.7,2.1-14.8,6.2c-4.2,4.2-6.3,9.2-6.3,14.8c0,5.7,2.1,10.6,6.2,14.7s9.1,6.2,14.8,6.2s10.7-2.1,14.9-6.3
				c4-3.9,6-8.8,6-14.7s-2-10.8-6.1-14.8C38.6-62.7,33.7-64.8,27.9-64.8z M38.3-51.1c0.4,0,0.7,0.1,1,0.4c0.3,0.3,0.4,0.6,0.4,1
				v18.8c0,0.4-0.1,0.7-0.4,1c-0.3,0.3-0.6,0.4-1,0.4h-14c-0.4,0-0.7-0.1-1-0.4s-0.4-0.6-0.4-1v-5.6h-5.6c-0.4,0-0.7-0.1-1-0.4
				c-0.3-0.3-0.4-0.6-0.4-1v-18.8c0-0.4,0.1-0.7,0.4-0.9c0.2-0.3,0.5-0.4,0.9-0.5h0.1h13.9c0.4,0,0.7,0.1,1,0.4
				c0.3,0.3,0.4,0.6,0.4,1v5.6H38.3L38.3-51.1z M18.7-39.2h4.2v-10.5c0-0.4,0.1-0.7,0.4-0.9c0.2-0.3,0.5-0.4,0.9-0.5h0.2H30v-4.2
				H18.7V-39.2z M36.9-48.3H25.7v16h11.2V-48.3z"/>
		</g>
	</g>
	<text transform="matrix(1 0 0 1 -729.9078 289.3815)" class="st10 st11">teilen</text>
</g>
<g id="g21398" transform="translate(757.9422 420.8736)">
	<g id="g21400" transform="translate(-746.9882 -3.630275)">
		<circle id="circle21402" class="st9" cx="28.1" cy="-61" r="23.1"/>
		<g id="g21404">
			<path id="path21406" d="M27.8-86.2c7.2,0,13.2,2.5,18.2,7.5c5,4.9,7.5,11,7.5,18.1c0,7.2-2.4,13.2-7.3,18
				c-5.3,5-11.4,7.6-18.4,7.6c-6.9,0-12.9-2.5-18-7.5c-5-5-7.5-11-7.5-18.1c0-7,2.5-13,7.5-18.1C14.7-83.8,20.7-86.2,27.8-86.2z
				 M27.9-81.6c-5.8,0-10.7,2.1-14.8,6.2c-4.2,4.2-6.3,9.2-6.3,14.8c0,5.7,2.1,10.6,6.2,14.7s9.1,6.2,14.8,6.2s10.7-2.1,14.9-6.3
				c4-3.9,6-8.8,6-14.7s-2-10.8-6.1-14.8C38.6-79.6,33.7-81.6,27.9-81.6z M44.5-60.2L45-60v7.2l-0.5,0.2l-6.2,2.7L38-49.8l-0.3-0.1
				l-13.4-5.5l-0.5-0.2l-6.6,2.7l-6.5-2.8v-6.6l6.1-2.6l0,0v-7.2l6.9-3.1l15.7,6.5v6.4C39.5-62.3,44.5-60.2,44.5-60.2z M37.3-51.8
				v-4.5l0,0v-0.2l-11.7-4.8v4.7L37.3-51.8L37.3-51.8L37.3-51.8z M38-57.7l4.1-1.7L38.4-61l-4,1.7L38-57.7z M43.4-53.8v-4.4
				l-4.6,1.9v4.5L43.4-53.8z"/>
		</g>
	</g>
	<text transform="matrix(1 0 0 1 -738.6556 -27.7222)" class="st10 st11">remixen</text>
</g>
<g id="g5280" transform="translate(-226.7712 -12.10037)">
	<circle id="circle5271" class="st9" cx="340.9" cy="47.5" r="23.1"/>
	<path id="path20694" d="M340.7,22c-14.1,0-25.6,11.5-25.6,25.6s11.5,25.6,25.6,25.6s25.6-11.5,25.6-25.6
		C366.3,33.4,354.8,22,340.7,22z M340.7,68.4c-11.5,0-20.8-9.3-20.8-20.8c0-2.4,0.4-4.7,1.2-6.9l8.1,3.6c-0.2,1.1-0.3,2.2-0.3,3.4
		c0,10.2,7.6,13.1,12.4,13.1c2.8,0,5.3-0.9,7.2-2.3c0.4-0.3,0.7-0.5,1-0.8l-3.7-4.5c-0.1,0.1-0.2,0.2-0.3,0.4
		c-1.5,1.4-3,1.4-3.4,1.4c-3.9,0-5.5-4.1-5.6-7.4l22.4,10c0,0,0,0,0.1,0C355.4,64,348.5,68.4,340.7,68.4L340.7,68.4z M360.7,52.9
		l-23.1-10.3c0.8-1.5,2.2-2.6,4.1-2.6c1.2,0,2.1,0.4,2.8,0.9c0.3,0.2,0.6,0.4,0.8,0.6l4.2-4.3c-2.8-2.4-6-2.8-8.1-2.8
		c-4.9,0-8.4,2.1-10.4,5.3l-7.7-3.4c3.7-5.7,10.1-9.4,17.4-9.4c11.5,0,20.8,9.3,20.8,20.8C361.5,49.4,361.2,51.2,360.7,52.9
		C360.8,52.9,360.8,52.9,360.7,52.9L360.7,52.9z"/>
	<text transform="matrix(1 0 0 1 332.1462 83.8836)" class="st10 st11">PD</text>
</g>
<g id="g21521" transform="translate(105.5176 694.3223)">
	<circle id="circle21507" class="st9" cx="4.5" cy="-113.3" r="23.2"/>
	<g id="g21509">
		<path id="path21511" d="M4.4-138.9c7.2,0,13.3,2.5,18.3,7.5c2.4,2.4,4.2,5.2,5.5,8.3c1.3,3.1,1.9,6.4,1.9,9.9s-0.6,6.8-1.9,9.9
			c-1.2,3.1-3.1,5.8-5.5,8.1c-2.5,2.5-5.3,4.4-8.5,5.7c-3.2,1.3-6.4,2-9.8,2s-6.6-0.6-9.7-1.9s-5.9-3.2-8.3-5.6
			c-2.5-2.5-4.3-5.2-5.6-8.3c-1.3-3.1-1.9-6.3-1.9-9.7c0-3.4,0.6-6.6,1.9-9.8c1.3-3.1,3.2-5.9,5.6-8.4
			C-8.6-136.4-2.7-138.9,4.4-138.9z M4.5-134.2c-5.9,0-10.8,2-14.8,6.1c-2,2-3.6,4.3-4.6,6.9c-1.1,2.5-1.6,5.2-1.6,8
			c0,2.7,0.5,5.4,1.6,7.9s2.6,4.8,4.6,6.8S-6-95-3.5-93.9s5.2,1.6,8,1.6c2.7,0,5.4-0.5,8-1.6s4.9-2.6,7-4.6c4-3.9,6-8.8,6-14.7
			c0-2.8-0.5-5.5-1.6-8c-1-2.5-2.5-4.8-4.5-6.8C15.3-132.2,10.3-134.2,4.5-134.2z"/>
		<path id="path21513" d="M12.2-107.2l-0.7-0.4c-1.6,1.7-3.8,2.8-6.3,2.8c-4.7,0-8.5-3.8-8.5-8.5s3.8-8.5,8.5-8.5
			c2.5,0,4.7,1.1,6.3,2.8l0.7-0.4l4.6-2.8c-2.7-3.4-6.8-5.6-11.5-5.6c-8.1,0-14.6,6.5-14.6,14.6s6.5,14.6,14.6,14.6
			c4.7,0,8.8-2.2,11.5-5.6L12.2-107.2z"/>
	</g>
</g>
<text transform="matrix(1 0 0 1 77.085 617.6836)" class="st10 st12">alle Rechte</text>
<text transform="matrix(1 0 0 1 75.085 630.6836)" class="st10 st12">vorbehalten</text>
<path class="st13" d="M0,0"/>
</svg>
