<?xml version="1.0" encoding="utf-8"?>
<svg version="1.1" id="pd" xmlns="http://www.w3.org/2000/svg" xmlns:xlink="http://www.w3.org/1999/xlink" x="0px" y="0px"
	 viewBox="0 0 64 64" style="enable-background:new 0 0 64 64;" xml:space="preserve">
<path d="M32,0C14.3,0,0,14.3,0,32c0,17.7,14.3,32,32,32s32-14.3,32-32C64,14.3,49.7,0,32,0z M32,58C17.7,58,6,46.3,6,32
	c0-3,0.5-5.9,1.5-8.6L17.6,28c-0.3,1.4-0.4,2.8-0.4,4.2c0,12.8,9.5,16.4,15.5,16.4c3.5,0,6.6-1.1,9-2.8c0.5-0.3,0.9-0.7,1.2-1
	l-4.7-5.7c-0.1,0.2-0.3,0.3-0.4,0.4c-1.8,1.7-3.8,1.7-4.3,1.7c-4.9,0-6.9-5.2-7-9.3l28,12.5c0,0,0.1,0,0.1,0
	C50.4,52.5,41.8,58,32,58z M57.1,38.7L28.1,25.7c1-1.9,2.7-3.3,5.2-3.3c1.4,0,2.6,0.5,3.5,1.1c0.4,0.3,0.7,0.5,1,0.8L43,19
	c-3.5-3-7.5-3.5-10.1-3.5c-6.1,0-10.4,2.6-13,6.7l-9.7-4.3C14.9,10.7,22.9,6,32,6c14.3,0,26,11.7,26,26C58,34.3,57.7,36.6,57.1,38.7
	C57.1,38.7,57.1,38.7,57.1,38.7z"/>
</svg>
