
<svg width="541px" height="286px" viewBox="0 0 541 286" version="1.1" xmlns="http://www.w3.org/2000/svg" xmlns:xlink="http://www.w3.org/1999/xlink">
    <g id="Page-1" stroke="none" stroke-width="1" fill="none" fill-rule="evenodd">
        <g id="Intro_v2-3-Copy-3" transform="translate(-630.000000, -524.000000)" fill="#6CC3F1">
            <g id="dialogue-box" transform="translate(630.000000, 524.000000)">
                <path d="M110.613574,286 C148.818138,258.945435 167.920421,236.162643 167.920421,217.651625 C177.987359,203.23439 221.194266,217.294526 331.268054,217.294526 C441.341842,217.294526 415.419301,211.777936 476.850913,217.294526 C502.898093,218.767307 529.319355,217.294526 538.107173,195.974594 C546.894992,174.654662 532.303197,120.406 538.107173,79.2315255 C543.91115,38.0570513 541.246422,1.92706602 508.697841,1.92706602 C476.149259,1.92706602 409.366863,5.62953197 356.840034,5.62953197 C304.313205,5.62953197 267.518122,1.92706602 242.326883,1.92706602 C217.135644,1.92706602 182.567862,3.58285883 141.268515,3.58285883 C99.9691676,3.58285883 28.9032276,-10.098283 15.9106259,16.0080152 C2.91802424,42.1143134 -22.8356087,211.777936 43.8889827,217.651625 C75.3526113,223.525313 102.418624,211.243965 116.683084,223.525313 C126.192724,231.712879 124.169554,252.537775 110.613574,286 Z" id="Path-4"></path>
            </g>
        </g>
    </g>
</svg>