<?xml version="1.0" encoding="utf-8"?>
<!-- Generator: Adobe Illustrator 23.0.0, SVG Export Plug-In . SVG Version: 6.00 Build 0)  -->
<svg version="1.1" id="Ebene_1" xmlns="http://www.w3.org/2000/svg" xmlns:xlink="http://www.w3.org/1999/xlink" x="0px" y="0px"
	 viewBox="0 0 541 478.2" style="enable-background:new 0 0 541 478.2;" xml:space="preserve">
<style type="text/css">
	.st0{fill-rule:evenodd;clip-rule:evenodd;fill:#6CC3F1;}
</style>
<g id="Page-1">
	<g id="Intro_v2-3-Copy-3" transform="translate(-630.000000, -524.000000)">
		<g id="dialogue-box" transform="translate(630.000000, 524.000000)">
			<path id="Path-4" class="st0" d="M111.8,478.2c44.6-34.8,46.7-38.8,61.9-66.8c20-23.9,47.5-6.7,157.6-6.7s84.2-9.6,145.6,0
				c26,2.6,52.5,0,61.3-37s-5.8-131.1,0-202.5S541.2,3.3,508.7,3.3s-99.3,6.4-151.9,6.4s-89.3-6.4-114.5-6.4s-59.8,2.9-101.1,2.9
				S28.9-17.5,15.9,27.8s-38.7,367.3,28,377.5c31.5,10.2,58.5-11.1,72.8,10.2C126.2,429.6,127.1,442.7,111.8,478.2z"/>
		</g>
	</g>
</g>
</svg>
