<svg id="game-icon" xmlns="http://www.w3.org/2000/svg" width="10.58mm" height="10.58mm" viewBox="0 0 30 30"><title>drag_icon</title><path d="M23.8,16.2l-.4-1.6a7.84,7.84,0,0,0,1.4-.5l.8,1.5A12.66,12.66,0,0,1,23.8,16.2Zm-1.8.3a5.54,5.54,0,0,1-1.8-.2l.3-1.7a7.08,7.08,0,0,0,1.4.1Zm5.1-1.9L26,13.3a9.43,9.43,0,0,0,1-1l1.4,1Zm2.2-2.9L27.7,11a5.78,5.78,0,0,0,.5-1.4l1.7.3ZM30,8.1H28.3a5.9,5.9,0,0,0-.2-1.4l1.6-.4h0A5.66,5.66,0,0,1,30,8.1ZM13.9,10.3h0a5.54,5.54,0,0,1-.2-1.8h1.7a5.9,5.9,0,0,0,.2,1.4Zm13.7-5a8.34,8.34,0,0,0-.8-1.2L28.1,3a13,13,0,0,1,1,1.5ZM15.5,7l-1.7-.3A4.92,4.92,0,0,1,14.4,5l1.5.7A5,5,0,0,0,15.5,7ZM25.7,3.1a7.46,7.46,0,0,0-1.2-.7L25.2.9c.6.3,1.1.6,1.6.9Zm-9,1.3-1.4-1a8,8,0,0,1,1.3-1.3l1.1,1.3A3.18,3.18,0,0,0,16.7,4.4Zm6.4-2.5a7.08,7.08,0,0,0-1.4-.1V.1a5.54,5.54,0,0,1,1.8.2Zm-4.2.6L18.1,1A4.92,4.92,0,0,1,19.8.4L20.2,2A6.94,6.94,0,0,0,18.9,2.5Z"/><rect x="13.37" y="12.2" width="7.4" height="2" transform="translate(-4.33 15.94) rotate(-45.02)"/><polygon points="21.1 13.1 17 9.4 21.4 8.6 21.1 13.1"/><path d="M8.1,13.75a7.89,7.89,0,0,1,5.81,2.39,7.81,7.81,0,0,1,1.76,2.61,8.23,8.23,0,0,1,.58,3.12A8.5,8.5,0,0,1,15.67,25a7.26,7.26,0,0,1-1.73,2.56,8.79,8.79,0,0,1-2.69,1.81A8.52,8.52,0,0,1,8.13,30a7.87,7.87,0,0,1-3.08-.61,8.48,8.48,0,0,1-2.64-1.78A8.11,8.11,0,0,1,.61,25,7.83,7.83,0,0,1,0,21.87a8,8,0,0,1,.61-3.09,8.33,8.33,0,0,1,1.8-2.67A7.71,7.71,0,0,1,8.1,13.75Zm.05,1.47a6.34,6.34,0,0,0-4.7,2A7,7,0,0,0,2,19.34a6.29,6.29,0,0,0-.51,2.53A6.63,6.63,0,0,0,2,24.39a7.2,7.2,0,0,0,1.47,2.16A6.81,6.81,0,0,0,5.61,28a6.63,6.63,0,0,0,2.52.51A6.72,6.72,0,0,0,10.66,28a6.84,6.84,0,0,0,2.21-1.47,6.24,6.24,0,0,0,1.91-4.65,6.46,6.46,0,0,0-1.93-4.72A6.43,6.43,0,0,0,8.15,15.22Zm-.1,5.31L7,21.09a1.12,1.12,0,0,0-.43-.51A1,1,0,0,0,6,20.43c-.73,0-1.09.48-1.09,1.44a1.81,1.81,0,0,0,.28,1.05A1,1,0,0,0,6,23.3a1,1,0,0,0,1-.69l1,.51a2.18,2.18,0,0,1-.89.94,2.31,2.31,0,0,1-1.24.33,2.37,2.37,0,0,1-1.75-.66,2.48,2.48,0,0,1-.66-1.86A2.56,2.56,0,0,1,4.16,20a2.3,2.3,0,0,1,1.71-.68A2.36,2.36,0,0,1,8.05,20.53Zm4.67,0-1.07.56a1,1,0,0,0-.43-.51,1,1,0,0,0-.48-.15c-.74,0-1.09.48-1.09,1.44a1.81,1.81,0,0,0,.28,1.05.94.94,0,0,0,.81.38,1,1,0,0,0,1-.69l1,.51a2.69,2.69,0,0,1-.89.94,2.34,2.34,0,0,1-1.25.33,2.38,2.38,0,0,1-1.75-.66,2.61,2.61,0,0,1-.66-1.86A2.52,2.52,0,0,1,8.89,20a2.26,2.26,0,0,1,1.7-.68A2.27,2.27,0,0,1,12.72,20.53Z"/></svg>