<?xml version="1.0" encoding="utf-8"?>
<!-- Generator: Adobe Illustrator 23.0.0, SVG Export Plug-In . SVG Version: 6.00 Build 0)  -->
<svg version="1.1" id="game-icon" xmlns="http://www.w3.org/2000/svg" xmlns:xlink="http://www.w3.org/1999/xlink" x="0px" y="0px"
	 viewBox="0 0 30 30" style="enable-background:new 0 0 30 30;" xml:space="preserve">
<path d="M29,20.5c0,2.2-1.8,4-4,4s-4-1.8-4-4l4-4C27.2,16.5,29,18.3,29,20.5z"/>
<path d="M1,20.5c0,2.2,1.8,4,4,4s4-1.8,4-4l-4-4C2.8,16.5,1,18.3,1,20.5z"/>
<path d="M5.4,6.6L3.1,8.9l-2,10.7L8,23.2l1.5-1.7H15v-16C10.9,5.5,5.4,6.6,5.4,6.6z M10,15.5H9v1c0,0.6-0.4,1-1,1s-1-0.4-1-1v-1H6
	c-0.6,0-1-0.4-1-1s0.4-1,1-1h1v-1c0-0.6,0.4-1,1-1s1,0.4,1,1v1h1c0.6,0,1,0.4,1,1S10.6,15.5,10,15.5z"/>
<path d="M26.9,9l-2.3-2.4c0,0-5.5-1.1-9.6-1.1v16h5.5l1.5,1.7l6.9-3.5L26.9,9z M22,11.6c0.6,0,1,0.4,1,1s-0.4,1-1,1s-1-0.4-1-1
	S21.4,11.6,22,11.6z M20,15.6c-0.6,0-1-0.4-1-1s0.4-1,1-1s1,0.4,1,1S20.6,15.6,20,15.6z M22,17.6c-0.6,0-1-0.4-1-1s0.4-1,1-1
	s1,0.4,1,1S22.6,17.6,22,17.6z M24,15.6c-0.6,0-1-0.4-1-1s0.4-1,1-1s1,0.4,1,1S24.6,15.6,24,15.6z"/>
</svg>
