<?xml version="1.0" encoding="utf-8"?>
<!-- Generator: Adobe Illustrator 23.0.0, SVG Export Plug-In . SVG Version: 6.00 Build 0)  -->
<svg version="1.1" id="Ebene_1" xmlns="http://www.w3.org/2000/svg" xmlns:xlink="http://www.w3.org/1999/xlink" x="0px" y="0px"
	 viewBox="0 0 1440 1080" style="enable-background:new 0 0 1440 1080;" xml:space="preserve">
<style type="text/css">
	.st0{display:none;fill:#FF8E1F;}
	.st1{fill:#B3B3B3;}
	.st2{fill:#000033;}
</style>
<path d="M0,0v1080l299.3,13.1l289.3-257.2V369.2h280.5v466.7l278,244.1h293V0H0z"/>
<rect x="967.5" y="798.6" class="st0" width="280.5" height="466.7"/>
<image style="display:none;overflow:visible;" width="750" height="1334" xlink:href="../../../Downloads/IMG_3809.PNG"  transform="matrix(0.7516 0 0 0.7516 824.1046 561.0513)">
</image>
<polygon class="st1" points="647.4,417.5 588.6,369.3 869.9,369.3 810.4,417.5 "/>
<polygon class="st1" points="809.2,781.2 869.9,833.9 869.9,369.3 809.2,417.5 "/>
<polygon class="st1" points="647.4,781.2 586.7,833.9 586.7,369.3 647.4,417.5 "/>
<path class="st2" d="M812.2,783.1H645.5V415.6h166.7V783.1z M649.3,779.3h159.1V419.4H649.3V779.3z"/>
<path d="M823.8,798.2c-3.5,0-6.3-2.8-6.3-6.3V405.1c0-3.5,2.8-6.3,6.3-6.3s6.3,2.8,6.3,6.3v386.8
	C830.1,795.3,827.3,798.2,823.8,798.2z"/>
<path d="M1158.4,1124.6c-1.5,0-3-0.5-4.2-1.6L818.9,817.3c-2.6-2.3-2.8-6.3-0.4-8.9c2.3-2.6,6.3-2.7,8.9-0.4l335.2,305.7
	c2.6,2.3,2.8,6.3,0.4,8.9C1161.8,1123.9,1160.1,1124.6,1158.4,1124.6z"/>
<path d="M799.3,1124.6c-3,0-5.7-2.2-6.2-5.2l-51.6-305.7c-0.6-3.4,1.7-6.7,5.2-7.2c3.4-0.6,6.7,1.7,7.2,5.2l51.6,305.7
	c0.6,3.4-1.7,6.7-5.2,7.2C800,1124.5,799.6,1124.6,799.3,1124.6z"/>
<path d="M956.5,1124.6c-2.2,0-4.3-1.2-5.5-3.2L779.9,815.7c-1.7-3-0.6-6.9,2.4-8.6c3-1.7,6.9-0.6,8.6,2.4L962,1115.2
	c1.7,3,0.6,6.9-2.4,8.6C958.6,1124.3,957.5,1124.6,956.5,1124.6z"/>
<path d="M834.8,507.6c-2.6,0-4.7-2.1-4.7-4.7v-42.8c0-2.6,2.1-4.7,4.7-4.7c2.6,0,4.7,2.1,4.7,4.7v42.8
	C839.5,505.5,837.4,507.6,834.8,507.6z"/>
<path d="M834.8,744.1c-2.6,0-4.7-2.1-4.7-4.7v-42.8c0-2.6,2.1-4.7,4.7-4.7c2.6,0,4.7,2.1,4.7,4.7v42.8
	C839.5,742,837.4,744.1,834.8,744.1z"/>
<path d="M786.1,798.2c-3.5,0-6.3-2.8-6.3-6.3V405.1c0-3.5,2.8-6.3,6.3-6.3s6.3,2.8,6.3,6.3v386.8
	C792.3,795.3,789.5,798.2,786.1,798.2z"/>
<path d="M747.7,798.2c-3.5,0-6.3-2.8-6.3-6.3V405.1c0-3.5,2.8-6.3,6.3-6.3s6.3,2.8,6.3,6.3v386.8C754,795.3,751.2,798.2,747.7,798.2
	z"/>
<path d="M710,798.2c-3.5,0-6.3-2.8-6.3-6.3V405.1c0-3.5,2.8-6.3,6.3-6.3s6.3,2.8,6.3,6.3v386.8C716.2,795.3,713.4,798.2,710,798.2z"
	/>
<path d="M672.2,798.2c-3.5,0-6.3-2.8-6.3-6.3V405.1c0-3.5,2.8-6.3,6.3-6.3s6.3,2.8,6.3,6.3v386.8
	C678.5,795.3,675.7,798.2,672.2,798.2z"/>
<path d="M634.5,798.2c-3.5,0-6.3-2.8-6.3-6.3V405.1c0-3.5,2.8-6.3,6.3-6.3s6.3,2.8,6.3,6.3v386.8C640.8,795.3,638,798.2,634.5,798.2
	z"/>
<path d="M823.8,406.3H634.5c-2.1,0-3.8-1.7-3.8-3.8s1.7-3.8,3.8-3.8h189.3c2.1,0,3.8,1.7,3.8,3.8S825.9,406.3,823.8,406.3z"/>
<path d="M823.8,566.7H634.5c-2.1,0-3.8-1.7-3.8-3.8c0-2.1,1.7-3.8,3.8-3.8h189.3c2.1,0,3.8,1.7,3.8,3.8
	C827.6,565,825.9,566.7,823.8,566.7z"/>
<path d="M823.8,798.2H634.5c-2.1,0-3.8-1.7-3.8-3.8c0-2.1,1.7-3.8,3.8-3.8h189.3c2.1,0,3.8,1.7,3.8,3.8
	C827.6,796.5,825.9,798.2,823.8,798.2z"/>
<path d="M823.2,813.9H633.9c-2.1,0-3.8-1.7-3.8-3.8c0-2.1,1.7-3.8,3.8-3.8h189.3c2.1,0,3.8,1.7,3.8,3.8
	C826.9,812.2,825.2,813.9,823.2,813.9z"/>
<path d="M823.8,638.4H634.5c-2.1,0-3.8-1.7-3.8-3.8c0-2.1,1.7-3.8,3.8-3.8h189.3c2.1,0,3.8,1.7,3.8,3.8
	C827.6,636.7,825.9,638.4,823.8,638.4z"/>
<path d="M1071.9,1054.7H385.1c-5,0-9.1-4.1-9.1-9.1c0-5,4.1-9.1,9.1-9.1h686.8c5,0,9.1,4.1,9.1,9.1
	C1081,1050.7,1076.9,1054.7,1071.9,1054.7z"/>
<path d="M984.5,973.6H471.3c-4.3,0-7.9-3.5-7.9-7.9c0-4.3,3.5-7.9,7.9-7.9h513.2c4.3,0,7.9,3.5,7.9,7.9
	C992.3,970.1,988.8,973.6,984.5,973.6z"/>
<polygon points="869.1,491.2 834.5,503.2 834.5,459.8 869.1,434 "/>
<polygon points="869.1,708.8 834.5,696.9 834.5,740.3 869.1,766.1 "/>
<path d="M299.9,1124.6c-1.7,0-3.4-0.7-4.6-2.1c-2.3-2.6-2.2-6.5,0.4-8.9L630.9,808c2.6-2.3,6.5-2.2,8.9,0.4c2.3,2.6,2.2,6.5-0.4,8.9
	l-335.2,305.7C302.9,1124,301.4,1124.6,299.9,1124.6z"/>
<path d="M658.4,1124.6c-0.3,0-0.7,0-1.1-0.1c-3.4-0.6-5.7-3.8-5.2-7.2l51.6-305.7c0.6-3.4,3.8-5.7,7.2-5.2c3.4,0.6,5.7,3.8,5.2,7.2
	l-51.6,305.7C664.1,1122.4,661.4,1124.6,658.4,1124.6z"/>
<path d="M501.2,1124.6c-1,0-2.1-0.3-3.1-0.8c-3-1.7-4.1-5.5-2.4-8.6l171.1-305.7c1.7-3,5.5-4.1,8.6-2.4c3,1.7,4.1,5.5,2.4,8.6
	l-171.1,305.7C505.5,1123.4,503.4,1124.6,501.2,1124.6z"/>
<path d="M634.6,576.1v44.7h37.7v-44.7H634.6z M648.2,608.9l2.6-11.3c-1-0.8-1.7-2.1-1.7-3.5c0-2.4,2-4.4,4.4-4.4s4.4,2,4.4,4.4
	c0,1.4-0.7,2.6-1.7,3.4l2.6,11.3H648.2z"/>
<polygon points="594.2,568 634.5,571.2 634.5,623.3 594.2,627.1 "/>
<path d="M402.4,1023.9l49.1-44.7h127.7l-25.2,44.7H402.4z M489.2,991.2l0,10.7c-2.9,0.8-6.2,2.6-6.2,4c0,2.4,5.5,4.4,12.3,4.4
	s14.8-2,14.8-4.4c0-1.4-1.8-2.6-4.7-3.4l13.6-11.3H489.2z"/>
<rect x="801.3" y="391.6" transform="matrix(0.7735 -0.6337 0.6337 0.7735 -59.2309 621.1337)" width="76.4" height="3.8"/>
<rect x="615.6" y="355.2" transform="matrix(0.6337 -0.7736 0.7736 0.6337 -78.1647 621.8226)" width="3.8" height="76.4"/>
<rect x="574.9" y="806.8" transform="matrix(0.7483 -0.6634 0.6634 0.7483 -381.3121 612.3955)" width="82.9" height="3.8"/>
<rect x="839.3" y="767.5" transform="matrix(0.6664 -0.7456 0.7456 0.6664 -322.1989 896.9393)" width="3.8" height="82"/>
</svg>
