<?xml version="1.0" encoding="utf-8"?>
<!-- Generator: Adobe Illustrator 23.0.0, SVG Export Plug-In . SVG Version: 6.00 Build 0)  -->
<svg version="1.1" id="Ebene_1" xmlns="http://www.w3.org/2000/svg" xmlns:xlink="http://www.w3.org/1999/xlink" x="0px" y="0px"
	 viewBox="0 0 296 902" style="enable-background:new 0 0 296 902;" xml:space="preserve">
<style type="text/css">
	.st0{fill:#C49A6E;}
	.st1{fill:#D8BA9E;}
	.st2{fill:#A57C56;}
	.st3{fill:#E0CAB8;}
	.st4{fill:#C1A085;}
	.st5{fill:#4D4D4D;}
	.st6{fill:#666666;}
	.st7{fill:#686868;}
	.st8{fill:#353535;}
	.st9{fill:#1BB267;}
	.st10{fill:#2FD37D;}
	.st11{fill:#FFFFFF;}
	.st12{fill:#F2F2F2;}
</style>
<path class="st0" d="M211.7,210l-26.6,1.3l-7.5-0.3l-14-5c-4.1,0.9-8.1,4.7-8.1,4.7l-12.6,1.4c0,0,11.8,0.9-6.2-1.1s-29-19-29-19
	l-3,10l-2,22l3,23c-8,5-2,15-2,15l0.4,16.3l1.1,21.2l1.7,10.6l-1.4,11.4l6.1,11.4c-6.1,3.9-5.3,18.1-5.3,18.1l-2.2,7.3
	C55.7,370,107.7,472,107.7,472L34,601.9c-8.6,15.9,2,33.8,2,33.8c-6.6,10.7,4.7,32.3,4.7,32.3c-4,6-8,10-6.3,12.8
	c1.6,2.9,8.3,14.1,8.3,14.1c-10,3-8.3,9.1-8.3,9.1c4.7,9,6.7,22.6,6.7,22.6c-12.7,14.7-5.6,22.6-5.6,22.6
	c-11.2,13.2,2.2,29.7,2.2,29.7c-13,12,2,25,2,25c-3,15,4,20,4,20c-9,10,6,13,6,13c13,9,24-0.9,24-0.9c17,2.1,13.4-3.3,13.4-3.3
	s0.6-4.7,4.5-5.6c3.9-0.9,5-5.6,5-5.6l2.5-7.5l3.6-3.6c0,0-5-11.3-0.8-15.3s10.8-5.1,9.2-14c-1.6-8.9,1.6-12.1,1.6-12.1
	c7-5,5.4-11.6,5.4-11.6l3.9-6.1l-2.2-12.3v-14c6-3,7.4-17.5,7.4-17.5c-6.5-6.5-1.5-16.5-1.5-16.5c23,13,41,0,41,0c-7,33,1,43,1,43
	c-8,7-2,26-2,26l-3.1,9.9c0,0,5.2,3.1,6.1,16.5c0.9,13.4-3.1,17-3.1,17l-2,5.6l4.1,4l-0.2,12.7c-1.2,13.8,11.2,10.3,11.2,10.3
	l5.8,0.3l4.2-2.3l5,5h16l11-8c16-9,7-29,7-29l4.6-9.5l1.1-10c0,0-3.7-9.5-3.1-9.8c6.5-3.3,10-13.7,10-13.7v-18.5l4.5-13.7l-3.6-18.4
	c4.5-4.8,3.5-9.3,3.9-17.9c0.3-8.6-5.4-12.4-2.4-16.4s5.4-12.4,5.4-12.4c-2.5-4.4-0.8-11.2-0.8-11.2c11.6-11.6-4.6-27.5-4.6-27.5
	l-48.4-28.1v-20.1l5.4-18.8l-4-29l4-30l4-27l-4.3-4.5c17.6-23.6,22-99.6,22-99.6s-9.6-0.9-8.7-18.7c0.4-7.9-5.9-20.2-5.9-20.2
	l7-11.4l-4.5-3.9l-2.6-7.7l5.1-5.1l-1.7-22.6c0,0,0.6-16.6,0.6-29.3c0-8,0-8,0-8L211.7,210z"/>
<path class="st1" d="M229.4,860.1l-3.7,8.9c0,0-10-11-23-8s-20,24-20,24c-17-5-8.9-48.3-8.9-48.3l7.8,0.9l8.1-1.6l6.8,1.8l13.2,1.2
	l6.2-3.4l3.8,8.4l10.1,3.1l4.9,5.9L229.4,860.1z"/>
<path class="st1" d="M101.4,860.1l-3.7,8.9c0,0-10-11-23-8s-20,24-20,24c-17-5-8.9-48.3-8.9-48.3l7.9,2.3l8,3l7-2l8-3l11.2-1.4
	l3.8,8.4l10.1,3.1l4.9,5.9L101.4,860.1z"/>
<path class="st2" d="M200,392.7c0.7-11.6-17.3-11.5-17.8,0.4c-0.4,7.9-2.3,14.8,0.7,22.4c1.6,4,4.4,7.4,8.3,9.4
	c1.5,0.8,3.2,1.5,4.9,1.9c1.3,0.3,2.5,0.5,3.8,0.6c0.8,0.1,0.7,0.2-0.4,0c-0.8-1.4-1.5-2.7-2.3-4c1.6,4.6,0.7,8.9-1.7,12.9
	c-2.4,4-2.7,8.6-4.8,12.6c-2.8,5.3-3,12.3-3.8,18.1c-0.8,5.4-0.3,10.5-0.6,15.9c-0.4,5.9-0.9,10.8,0.5,16.8c0.9,4,1.2,8.4,1,12.5
	c-0.4,5.2-1.9,10.3-2.3,15.4c-0.4,4.4,0.3,8.4,1.3,12.7c1.9,8.6-0.9,17.9-0.8,26.6c0,2.6,0.1,4.9-0.6,7.2c-0.9,2.8-1.7,5.2-1.6,8.2
	c0.1,4.3,0.8,8.6,1,12.9c0.1,2.3,0.8,4.5,0.6,6.7c-0.2,2.5-0.7,4.9-0.6,7.5c0.1,4.2-0.3,8.1-0.5,12.3c-0.5,9-1.1,25.6,10.3,28.2
	c4.8,1.1,11-0.2,15.7-1.5c4.4-1.3,8.7-1.7,13.3-2.2c8.1-1,16-3.6,22.5-8.7c3.8-3,3.1-9.6,0-12.7c-3.7-3.7-8.9-3-12.7,0
	c2.3-1.8-1.3,0.5-1.8,0.7c-1.2,0.6-2.5,1.2-3.8,1.8c2.8-1.2-1.5,0.5-2.2,0.6c-1.7,0.3-3.5,0.4-5.2,0.6c-4.3,0.5-8.6,0.6-12.8,1.8
	c-1.9,0.6-3.6,1-5.6,1.4c-1,0.2-2,0.4-3,0.6c-1.3,0-0.9,0.1,1.2,0.6c1,1,2.1,2.1,3.2,3.2c-1.8-2.8-1.2-10.3-1-14.3
	c0.3-4.4,0.3-8.7,0.5-13.1c0.1-2.5,0.8-4.8,0.8-7.2c0.1-2.4-0.6-4.7-0.7-7c-0.1-2-0.3-3.9-0.5-6s-1-4.9-0.7-7
	c0.5-2.7,2.1-4.7,2.3-7.7c0.1-2,0-4.1,0-6.1c0-4.2,0.4-8.2,0.6-12.3c0.2-4.3,0.8-8.4,0.5-12.7c-0.3-4-1.5-7.8-1.7-11.7
	c-0.2-4.3,1-8.9,1.5-13.2c0.5-4.1,1-8,0.7-12.1c-0.3-4.5-1.6-8.8-2.1-13.3c-0.5-4.1,0.7-8.3,0.6-12.4c-0.2-8,0-17.2,3.3-24.4
	c1.6-3.6,1.9-7.7,3.8-11.1c2.3-4.3,3.7-8.2,4.2-13c1-9.5-1.3-19.8-11.9-22c-3.9-0.8-4.9-0.2-4.9-4.6
	C198.7,400.9,199.8,396.7,200,392.7L200,392.7z"/>
<path class="st2" d="M208.8,243.7c7.8-8.5-4.9-21.2-12.8-12.5c0.9-1,0.5-0.1-0.2,0c-0.3,0.1-1.8,0.3-2.3,0.3
	c-1.7,0.2-4.1,0.5-5.8,0.1c-1-0.3-2.3-1.4-3.4-1.9c-2.3-1.2-4.6-1.6-7.2-1.7c-7.2-0.3-16.3-0.2-23.2,2.1c-3.5,1.2-5.4,4-9,4.8
	c-3.6,0.8-8.2,0.5-11.9,0.1c-4.3-0.5-6.7-0.8-10.6-1.3c1,0.2-0.3-0.1-0.6-0.1c-1.2-0.2-2.4-0.4-3.6-0.4c-2,0-4.1,0.2-6,0.8
	c-11.1,3.4-6.3,20.7,4.8,17.4c1.3-0.4,2.7,0.1,4.5,0.3c0.7,0.1,2.3,0.1,2.7,0.2c4.7,0.6,9.3,1.5,14.2,1.4c4.8-0.1,9.2-0.3,13.7-1.9
	c2-0.8,4.1-1.4,5.9-2.7c1-0.7,1.8-1.5,2.8-2.2c-1.4,1-1.4,0.5,0.2,0.4c3.8-0.2,7.7-0.9,11.6-1c0.9-0.1,5.6,0.3,3.7-0.3
	c2.1,0.7,3.8,2.3,6,3C190,251,203.1,249.9,208.8,243.7L208.8,243.7z"/>
<path d="M243.9,668.8c-1-0.9-1-2.5,0-3.5c3.4-3.4,1.8-6.6,1.6-6.9c-0.1-0.3-0.3-0.7-0.3-1c-0.9-7.5,1.9-10.8,3.5-12
	c2.8-7.2-5.8-20.6-9.5-25.3c-0.3-0.4-0.5-0.8-0.5-1.3l-26.2-249.4c-2-12-2-24.8-2-25.3c0-0.2,0-0.3,0-0.5c0.6-2.9-3-10.7-5.7-15.3
	c-0.4-0.6-0.5-1.4-0.2-2.1c0.2-0.7,0.8-1.3,1.5-1.5c1.9-0.6,3.9-2.9,5.1-5.7c0.8-1.8,0.9-3.1,0.8-3.6c-5-1.5-7.1-9.2-7.5-10.7
	c-0.2-0.9,0-1.8,0.6-2.4s1.5-0.9,2.3-0.7c0.6,0.1,0.8-0.1,1-0.2c2.2-2.1,2.3-11.9,1-19.9c-1.7-7.2-0.5-12.3,0-13.9
	c0-10.1-2.3-16.1-2.3-16.2c-0.3-0.8-0.2-1.6,0.2-2.3c0-0.1,3.4-5.6,1.6-18.3c-1.1-8-0.6-12.7,1.7-14.8c0.2-0.2,0.5-0.4,0.7-0.5
	c0.3-1.6,0.3-3.6-0.8-4.1c-1.2-0.6-1.8-2-1.3-3.3c0.6-1.2,2-1.8,3.3-1.3c4.8,2,4.4,8.1,3.4,11.4c-0.3,0.9-1.1,1.5-2,1.7
	c-0.3,0.7-1,3.2,0,10.2c1.6,11.5-0.6,18.1-1.8,20.6c0.7,2.4,2.3,8.5,2.3,17.3c0,0.3-0.1,0.6-0.2,0.9c0,0.1-1.7,4.5,0.1,11.5
	c0,0.1,0,0.1,0,0.2c0.5,3.2,2.8,19.4-2.5,24.4c-0.5,0.5-1.1,0.8-1.7,1.1c0.9,2.1,2.2,4.1,3.3,4.4c2.1,0.6,3.4,2.4,3.5,4.9
	c0.1,4-2.7,9.7-6.7,12.6c2.2,4,5.8,11.7,5.1,16.2c0,1.7,0.2,13.6,2,24.4v0.1l26.4,248.8c2.8,3.7,14.5,20.2,9.3,30.6
	c-0.2,0.6-0.4,0.9-1,1.1c-0.1,0.1-2.4,1.6-1.8,7.1c1.2,2.5,2,7.8-2.7,12.5c-0.5,0.5-1.2,0.7-1.8,0.7
	C245.1,669.5,244.4,669.3,243.9,668.8z M212.6,219.9L212.6,219.9L212.6,219.9z"/>
<path class="st2" d="M246.6,688.9c-1.9-4.5-5.9-7.7-10.9-6.3c-4.3,1.2-8.2,6.6-6.3,11.1c0.7,1.6-0.1,5.9-0.4,7.8
	c-0.6,3.2-2.1,6.1-2.5,9.4c-0.3,3.4-0.4,6.9,0.3,10.3c0.4,2.3,1.7,4.6,1.8,6.9c0.1,2.3-1.1,4.4-1.6,6.8c-0.7,3.2-0.8,6.1-1.3,9.3
	c-0.5,3.6-1.4,7.2-2.1,10.7c-0.1,0.6-0.5,3.1-0.3,2.7c0-0.1-2,1.5-2.7,2.2c-4.9,5.2-3,13.6-3.1,20.1c-0.1,2.4-0.3,5.1-0.8,7.3
	c-0.3,1.8-1.7,2.9,0.1,0.9c-1.2,1.4-2.3,3-2.9,4.8c-0.8,2.8-0.5,5.6-0.4,8.4c0.1,3.2-0.3,6.3-0.6,9.5c-0.3,2.7-0.1,3.9-1.3,5.3
	c-0.9,1.1-2.1,2.1-3.2,3c-0.9,0.7-4.5,2.1-1.7,1.4c-11.2,2.8-6.4,20.2,4.8,17.4c6.4-1.6,13.5-8.5,16.7-14.2c3-5.4,3.1-13.9,3.3-20
	c0-1.6,0.1-3.4-0.2-4.9c0.1-2.2-0.3-1.7-1.1,1.3c0.5-0.6,0.9-1.2,1.4-1.8c1.8-2.9,2.6-6.7,3-10c0.4-3.4,0.8-6.7,0.7-10.1
	c-0.1-2.8-0.8-7.1-0.1-9.4c-0.8,1.4-1.5,2.7-2.3,4c1.8-2.2,5.6-5.5,7-9.6c1.3-3.7,1.6-7.9,2.5-11.8c0.9-3.9,1.1-7.7,1.8-11.6
	c0.5-3.1,1.8-5.8,2.1-8.9c0.6-6.6-3.3-12.7-1.9-19.1C245.9,704.9,249.5,695.9,246.6,688.9L246.6,688.9z"/>
<path d="M233.5,770.5c-1.1-0.8-1.3-2.4-0.4-3.5c7.2-8.9,5.5-18.9,5.5-19c0-0.1,0-0.1,0-0.2c-1.1-9.7,3.1-17.2,3.3-17.5
	s0.4-0.6,0.7-0.8c1.4-1.1,0.8-6.7-0.8-11.1c-4-9.1-2.6-12.5-1.4-13.7c0.1-0.1,0.2-0.1,0.3-0.2c5.3-4,3.3-14.5,2.1-18.2l0,0
	c-0.4-1.3,0.3-2.8,1.6-3.2c1.4-0.4,2.8,0.3,3.2,1.6c0.3,0.7,5.3,16.2-3.3,23.4c-0.1,0.7-0.2,3,2.2,8.4c0.1,0.1,0.1,0.1,0.1,0.2
	c0.7,2,4.1,12.2-0.4,16.4c-0.7,1.5-3.3,7.1-2.5,14.1c0.2,1.3,1.8,12.5-6.5,22.9c-0.5,0.6-1.3,0.9-2,0.9
	C234.7,771,234.1,770.8,233.5,770.5z"/>
<path class="st3" d="M52.3,844.3c1.5-5.6-7.1-7.9-8.6-2.5c-1.8,6.6-2.7,14.8-1.4,21.6c0.5,2.8,1.3,5.9,2.4,8.5
	c1.3,3.3,3.9,5.4,5.7,8.4c3.1,5,10.8,0.5,7.8-4.5c-1.4-2.2-3.5-4-4.8-6.3c-1.1-1.9-1.7-4.9-2.2-7.1C50,856.9,50.8,849.7,52.3,844.3
	L52.3,844.3z"/>
<path class="st3" d="M182,841.3c0.3-5.8-8.7-5.8-9,0.1c-0.4,7.5-2.2,14.9-2.5,22.5c-0.3,6.8,2.7,12.2,7.2,17.1
	c4,4.2,10.3-2.1,6.4-6.4c-1.9-2.1-3.7-4.5-4.3-7.3c-0.6-2.9,0-6,0.2-8.9C180.3,852.7,181.6,847,182,841.3L182,841.3z"/>
<path class="st4" d="M213.9,844.9c5.8,0.5,5.7-8.5,0-9c-3.8-0.3-7.8,1.3-11.5,0.7c-1.3-0.2-2.4-0.7-3.7-0.9c-1.7-0.2-3.4,0.4-5,0.2
	c-2.9-0.3-4.9-2-8.1-1.5c-1.3,0.2-3,0.6-4,0.4c-1.6-0.4-2.8-1-4.5-1.1c-5.8-0.2-5.8,8.8,0,9c1.4,0,2.9,1,4.4,1.1
	c1.6,0.1,3.2-0.4,4.8-0.4c2.8,0,5.1,1.6,8,1.5c1.7-0.1,2.9-0.5,4.6-0.1c1.6,0.4,3,0.9,4.7,0.9C207.1,845.7,210.3,844.6,213.9,844.9
	L213.9,844.9z"/>
<path class="st4" d="M85.2,843.9c5.8-0.2,5.8-9.2-0.1-9.1c-2.8,0.1-5.8-0.6-8.5-0.2c-2.9,0.5-5,2.6-7.8,3.2
	c-5.5,1.3-12.4,1.5-17.2-2c-4.6-3.4-9.1,4.4-4.5,7.8c5.4,4,12.4,4.3,18.8,3.7c3.6-0.4,6.8-0.9,10.1-2.5c1.6-0.7,2-0.9,3.7-0.9
	C81.6,844,83.3,844,85.2,843.9L85.2,843.9z"/>
<path d="M192.6,839.9l-3-3c-1.1,1.1-2.7,2.1-4.6,2.5c-1.5,0.3-3.7,0.2-6.1-1.4c-2.5,0.7-7.9,1.7-11.3-1.5c-3-2.6-3.5-7.3-1.7-13.9
	c0-0.1,0.1-0.2,0.1-0.3c0.2-0.5,2-5.2-2.1-7.9c-0.2-0.1-0.3-0.2-0.4-0.3c-1.9-2-4-7.5,1.9-14.4c0.9-1.1,2.5-1.2,3.5-0.3
	c1.1,0.9,1.2,2.5,0.3,3.5c-3.8,4.5-2.6,6.9-2.2,7.5c5.7,4,5,10.6,3.7,13.7c-1.2,4.4-1.2,7.5,0.2,8.8c1.8,1.7,6.1,0.6,7.5,0.1
	c0.9-0.3,1.8-0.2,2.5,0.4c1.1,1,2.2,1.4,3.1,1.2c1.5-0.3,2.7-1.9,3.1-2.5c0.3-0.6,1-1.1,1.8-1.2c0.8-0.1,1.5,0.1,2.1,0.7l3.5,3.5
	c3.6-1.6,9.4-0.8,12.2-0.2c0.3,0.1,0.6,0.2,0.9,0.4c3.4,2.2,9-3.4,10.7-5.5c0.2-0.2,0.4-0.4,0.7-0.6c6.9-4,10.3-9.6,9.9-16.6
	c-0.3-5.5-2.8-9.9-2.8-9.9c-0.6-1-0.5-2.1,0.2-2.9l4.4-5.3v-7.1c0-0.1,0.1-0.3,0.1-0.5c1.7-7.8-2.6-15-2.7-15.1
	c-0.7-1.1-0.3-2.7,0.8-3.4c1.1-0.7,2.7-0.4,3.4,0.8c0.2,0.4,5.4,8.8,3.4,18.6v7.7c0,0.6-0.2,1.2-0.6,1.6l-4,4.8
	c2.3,5.2,7.8,21.4-9.3,31.6c-3.6,4.2-10.6,9.9-16.6,6.4c-3.9-0.7-8.2-0.7-9,0c-0.4,0.6-1.1,1-1.8,1.1c0,0-0.1,0-0.2,0
	C193.5,841,192.9,840.7,192.6,839.9z"/>
<path d="M167.9,793.1c-1.4-0.2-2.4-1.4-2.2-2.8c0-0.1,0.9-8.1-3.5-16.2c-1.2-1.4-3.8-5.7,1.4-14.9c-0.5-2.4-1.8-8.6-1.8-13.6
	c0-5.8,1-9.3,3.5-12.4c-1.9-3.9-5.8-14.2-2.4-25.3c0.4-1.4,1.8-2.1,3.1-1.7c1.4,0.4,2.1,1.8,1.7,3.1c-3.6,11.7,2.7,22.9,2.8,23
	c0.6,1,0.4,2.2-0.4,3c-2.2,2.2-3.3,4.3-3.3,10.2c0,5.6,1.9,13.3,1.9,13.4c0.1,0.7,0,1.3-0.3,1.9c-3.7,6.1-3.2,9-2.6,9.8
	c0.3,0.2,0.4,0.3,0.6,0.7c5.3,9.6,4.3,19.1,4.3,19.5c-0.2,1.3-1.2,2.2-2.5,2.2C168.1,793,168,793,167.9,793.1z M165.7,770.5
	L165.7,770.5L165.7,770.5L165.7,770.5z M165.7,770.5L165.7,770.5L165.7,770.5z"/>
<path class="st2" d="M147.3,698.7c4.8,0.7,9.7-1.1,11.1-6.2c1.2-4.3-1.5-10.4-6.3-11.1c-5.6-0.8-11.4-1.2-16.9-2.6
	c-5.5-1.3-10.7-3.6-15.9,0.3c-4.2,3.2-4.8,8.3-5.5,13.1c-0.9,5.9-1.6,11.9-2.5,17.8c-0.1,0.8-0.2,1.6-0.3,2.4c1.1-1.6,1.3-2,0.5-1.1
	c-0.9,0.4-2,2.4-2.6,3.2c-1.6,2.4-2.2,4.9-2.9,7.6c-1.3,5.2-1.4,10.5-1.9,15.7c-0.3,3.3-0.3,6.6-0.5,10c-0.1,1.7,0.1,6.3-0.3,7.3
	c1.3-1.8,2.7-3.6,4.1-5.4c2.1-1-2.7,1.2-3.2,1.6c-1.5,1.1-2.4,2.5-3.1,4.2c-0.5,1.4-0.6,2.9-1.1,4.1c-0.8,1.8-1.8,3.3-2.4,5.2
	c-1.7,5.3-2,11.8-4.7,16.7c-3.6,6.5-10.5,10.3-10.9,18.3c-0.2,3,0.2,6.6,0.3,9.1c0.1,3.3-1.4,5.4-2.7,8.2c-2.1,4.4-1.3,9.7,3.2,12.3
	c3.9,2.3,10.2,1.2,12.3-3.2c2.4-5.1,4.8-9.4,5.1-15.2c0.3-4.1-0.5-8.2-0.2-12.4c-0.4,1.5-0.8,3-1.2,4.5c2.2-3.9,5.8-7.1,8.4-10.8
	c2.2-3,3.5-6.5,4.5-10.1c0.9-3.4,1.7-6.9,2.6-10.3c1.3-4.5,3.6-8,4-12.9c-0.4,1.5-0.8,3-1.2,4.5c0.1-0.2,0.2-0.4,0.3-0.6
	c-1,1-2.1,2.1-3.2,3.2c-1.6,0.7,3.6-1.8,4.1-2.3c1.1-1.2,2.1-3,2.5-4.6c1-3.6,0.6-8.5,0.8-12.3c0.3-6.7,0.2-13.5,1.7-20.1
	c0.6-2.8,1.9-3.6,3.5-6.1c2.1-3.2,1.9-7,2.6-10.6c0.8-4.1,1.7-8.2,1.9-12.4c0.1-1.7,0.1-1.9,0.3-3.5c0.1-0.9,0.3-1.7,0.4-2.6
	c0.7-2.2,0-1.6-2.1,2c-1.5,0.4-3,0.8-4.5,1.2c1.9-0.3,5.7,1.5,8.1,1.9c1.3,0.3,2.7,0.4,4,0.6C140.7,697.8,144,698.2,147.3,698.7
	L147.3,698.7z"/>
<path d="M131.6,695.5c-1.1-0.8-1.3-2.4-0.5-3.5s2.4-1.3,3.5-0.5c4.7,3.6,10.3,4.7,16.6,3.3c4.9-1.1,8.4-3.3,8.5-3.4
	c1.2-0.8,2.7-0.4,3.5,0.7c0.8,1.2,0.4,2.7-0.7,3.5c-0.1,0-7.3,4.8-16.4,4.8C141.5,700.4,136.5,699.2,131.6,695.5z"/>
<path d="M118,755c-0.8-1.1-0.6-2.7,0.5-3.5c2.3-1.6,2.3-1.8,0.5-7.1l-0.4-1.1c-2.1-6.3-0.3-19.6-0.1-21.1c0.1-0.9,0.7-1.7,1.5-2
	c2.7-1.1,4.4-2.6,4.9-4.5c1-3.5-1.9-7.6-1.9-7.7c-0.8-1.1-0.5-2.7,0.6-3.5c1.1-0.8,2.7-0.5,3.5,0.6c0.2,0.3,4.4,6.1,2.7,12
	c-0.8,3.1-3,5.5-6.4,7.2c-0.5,4.5-1.2,13.5,0.1,17.5l0.4,1c1.8,5.3,3,8.8-2.2,12.7c-0.5,0.3-1,0.5-1.5,0.5
	C119.4,756,118.7,755.7,118,755z"/>
<path d="M49,838.6c-2.6-0.1-8.8-1-11.1-5.4c-1.7-3.1-0.9-6.9,2.2-11.4c0.8-1.1,2.4-1.4,3.5-0.6s1.4,2.4,0.6,3.5
	c-1.9,2.8-2.6,5-1.9,6.3c1.1,2.1,5.8,2.8,7.9,2.8c0.7,0,1.4,0.3,1.9,0.9c8.3,10,21.9-0.8,22.5-1.3c0.7-0.6,1.7-0.7,2.5-0.4
	c3.2,1.3,5.6,1.3,7.1,0.3c2-1.4,2.5-4.7,2.5-5.9c0-0.7,0.3-1.4,0.9-1.9s1.4-0.6,2.1-0.5c2.4,0.5,3.2-0.3,3.5-0.6
	c2-1.9,1.8-7,1.6-8.6c-0.1-1.1,0.4-2.1,1.4-2.6l4-2c1.2-0.6,0.5-4-0.2-5.7c-2.5-5.1-1.6-8.7-0.4-10.8c1.4-2.3,3.4-3.4,3.6-3.5
	c0.1-0.1,0.3-0.2,0.4-0.2c7.2-2.2,6.4-6.5,6.3-6.9c-0.1,0-0.1-0.1-0.1-0.2c-2.1-11.5,0-16.1,0.2-16.6c0.3-0.5,0.8-1,1.4-1.2
	c1.8-0.7,4-1.8,4.5-3.5c0.4-1.7-0.9-3.8-1.5-4.5c-0.9-1-0.8-2.6,0.2-3.5c1-0.9,2.6-0.8,3.5,0.2c0.4,0.4,3.8,4.4,2.6,9
	c-0.7,2.8-2.8,5-6.4,6.5c-0.4,1.6-0.9,5.5,0.4,12.6c0.8,3.3-0.1,10-9.5,12.9c-0.7,0.5-3.3,2.5-0.7,7.6c0.1,0,0.1,0.1,0.1,0.1
	c1.4,3.4,2.6,9.8-2.2,12.2l-2.5,1.2c0.2,2.8,0,8.1-3.2,11.1c-1,1-2.7,2-5.2,2.1c-0.5,2.3-1.6,5.5-4.4,7.4c-2.7,1.9-6.2,2.1-10.4,0.8
	c-3.9,2.8-9.9,5.8-15.9,5.8C56.7,844.1,52.5,842.7,49,838.6z"/>
<path d="M37,818.7c-0.3-0.5-2.2-4.7-0.5-16c-2-1.6-5.4-4.9-6.2-9.8c-0.7-4.4,0.9-9,4.8-13.7c-2.8-5.2-8.2-16.7-5.1-21.9
	c0.7-1.2,2.2-1.6,3.4-0.9c1.2,0.7,1.6,2.2,0.9,3.4c-1.1,1.8,1,9.7,6,18.5c0.6,0.9,0.4,2.1-0.3,2.9c-3.7,3.9-5.3,7.6-4.8,10.9
	c0.7,4.5,5.2,7.2,5.2,7.2c0.9,0.5,1.4,1.6,1.2,2.6c-1.7,10.4-0.3,14.3-0.2,14.5c0.6,1.2,0.1,2.7-1.1,3.3c-0.3,0.2-0.7,0.3-1.1,0.3
	C38.3,820,37.4,819.5,37,818.7z"/>
<path d="M37.2,759.9c-5-6.9-11.3-22.3,0.5-31.4c0.1,0,2.9-4.2-3.6-18.8c-0.7-1.2-3.3-5.6-1.6-10.1c1.1-2.8,3.4-4.8,7.1-6
	c-0.5-1.5-1.9-4.3-6-8.4c-0.1-0.1-0.2-0.2-0.3-0.3c-0.3-0.4-2.8-4.1-1.8-8.3c0.7-2.7,2.6-4.9,5.7-6.4c1.3-0.6,2.8-0.2,3.4,1.1
	s0.1,2.8-1.1,3.4c-1.8,0.9-2.8,1.9-3.1,3.1c-0.4,1.6,0.5,3.4,0.9,4.1c8.4,8.5,7.7,13.3,7.5,14.2c-0.3,0.9-1,1.6-1.9,1.8
	c-2.2,0.5-4.9,1.5-5.7,3.5s0.6,4.7,1.2,5.6c0.1,0.1,0.1,0.3,0.2,0.4c8.3,18.8,3.3,24.1,2.2,25c-10.9,8.4,0,23.9,0.5,24.6
	c0.8,1.1,0.5,2.7-0.6,3.5c-0.5,0.3-1,0.5-1.5,0.5C38.4,761,37.7,760.6,37.2,759.9z"/>
<path class="st2" d="M106.8,435.3c-0.7-4.9-6.8-7.5-10.9-6.1c-5.1,1.4-7,6.3-6.3,11.1c1.5,9.8,3.5,19.6,7.2,28.9
	c0.8,2.2,2.4,4.2,3.1,6.4c0.6,1.8,0.2,3.6,0.2,5.5c0,4.1,1.4,8.2,0.8,12.3c-1.2,9.1-6.2,16.8-4.5,26.3c1.3,7.3-0.5,14.8,0.8,22.2
	c1.4,7.8-0.1,15.4-1,23.1c-0.8,7.6,1.5,15.3,1.5,22.8c-0.1,7.6,2.2,15.5,1.2,23.1c-0.3,2.2-0.2,6-2.4,7.1c-2.4,1.2-6.2-0.4-8.6-0.6
	c-4.6-0.4-9.4,0.3-14-0.2c-3.7-0.4-7.1-2.1-10.8-2.9c-3.4-0.8-7.2-1.4-10.5-2.8c-1.1-0.5-2.1-1.4-3-2.1c-0.4-0.3-0.8-0.8-1.3-1.1
	c-2.1-1.6-0.2-0.4,0,0.5c-2.5-11.3-19.8-6.5-17.4,4.8c2,9.6,14.3,14.5,22.5,16.9c5,1.4,10.4,3.1,15.5,4c5.9,1,11.8,0.2,17.7,0.7
	c4.7,0.3,8.7,1.4,13.4,0.3c4.5-1.1,8.5-3.5,11.4-7c6.2-7.6,5.7-18.3,5.1-27.4c-0.6-9-1-18-1.7-27c-0.2-2.6-1.2-5.1-0.8-7.7
	c0.4-2.2,1-4.4,1.3-6.7c0.5-4.7,0.4-9.4,0.3-14c-0.1-4.7-1.2-9.2-1-14c0.2-4.5,0.8-9.1-0.1-13.5c-1.7-8.8,4-17.1,4.5-26
	c0.1-3-0.7-5.8-0.9-8.7c-0.2-2.1,0.1-4.2,0.1-6.3c-0.1-5.1-2-8.6-4.2-13C109.7,455.6,108.2,444.8,106.8,435.3L106.8,435.3z"/>
<path class="st2" d="M118.5,342.3c-10.2-5.5-19.3,10-9.3,15.7c2.5,1.3,4.4,3.2,6.7,4.8c1,0.7,1.9,1.3,2.9,1.9c0.1,0,3.6,2.5,2.7,1.6
	c-0.7-0.8,1.6,2.8,1.6,2.7c0.8,2.1,0.8,5.2,0.8,7.4c0,4.4,0.7,8.9,0.4,13.3c-0.3,4.9-0.9,9.8-1.5,14.6c-0.4,3.1-0.8,6.4-2.2,9.3
	c-0.6,1.2-1.7,2.1-2.3,3.3c0,0.1-1.3,1.7-0.5,1.1s-2,0.5-2.5,0.6c-1,0.3-2.1,0.7-3.2,0.8c1.4-0.1-2.4-0.4-2.3-0.4
	c-1.2-0.2-2.3-0.3-3.5-0.3c-2.5,0-4.9,0.2-7.3-0.3c-1.5-0.3-4.4-1-5.3-1.9c-1-1.1-2.1-3.7-3.5-5.2c-7.9-8.5-20.6,4.2-12.7,12.7
	c0.9,1,1.4,2.6,2.2,3.7c1.2,1.5,2.6,2.7,4.2,3.8c3.1,2,6.8,3.4,10.4,4.2c3.8,0.9,7.4,1,11.2,1c3.4,0,6.5,0.7,9.9,0.2
	c6.7-1.1,13.2-3.2,17.3-9c3.5-5.1,6.7-10.7,7.5-16.9c1.7-12.6,2.8-25.3,1.7-38c-0.5-6.7-1.9-12.5-6.1-17.9c-2.4-3.1-6.1-4.8-9.2-7
	C123.8,346.1,121.4,343.9,118.5,342.3L118.5,342.3z"/>
<path class="st2" d="M121.7,235c-0.7-4.9-6.9-7.5-11.2-6.3c-5.1,1.4-7,6.3-6.3,11.1c0.7,4.9-2,9-2.2,13.8c-0.3,4.8-0.3,9.5,0.1,14.4
	c0.5,5.1,0.1,10.4,0.3,15.6c0.2,5.6,0.6,11.2,0.8,16.7c0.2,5.6,1.2,10.8,2.2,16.3c0.9,4.9,2.8,9.3,4.1,14c0.6,2.1,1.2,3.9,0.9,6
	c-0.3,2.2-1,4.5-0.9,6.8c0.2,3,0.5-1.4,0.2-0.2c-0.2,0.8-0.4,1.5-0.6,2.2c-0.6,1.8-1.9,4,0.2,1.3c-3,3.8-3.8,8.9,0,12.7
	c3.1,3.1,9.7,3.8,12.7,0c2.5-3.2,4-7,4.9-11c0.5-1.8,0.4-3.7,0.6-5.5c0.4-2.6,1.1-5.2,1.1-7.8c0-5.8-2.4-11.2-4.2-16.5
	c-1.5-4.6-2.8-10.4-3.1-15.3c-0.9-12.4-0.3-25.1-1.4-37.5c-0.3-4-0.5-8.7,0.3-12.6c0.6-3.2,2-5.6,2.2-9
	C122.6,241.1,122.1,238,121.7,235L121.7,235z"/>
<path d="M36.1,663.9c-0.1-0.2-10.1-13.5-1.3-28.1c-3.5-3.4-10.2-12-6.1-26.1l57-234.9c0.1-0.3,0.2-0.5,0.4-0.8
	c1.4-1.9,12.3-17.3,18.9-23.2c-1.8-4.2-2.5-11.3,3.8-17.5c0.1-1.4-0.2-4.8-3.1-7.8c-0.9-0.6-3-2.2-3.7-5c-0.7-2.4,0-5.1,1.8-7.9
	c0.2-1.6,0.4-6.7-1.8-11c-0.2-0.5-0.3-1.1-0.2-1.6c0.1-0.1,1.9-10.5-0.9-19.8c-0.1-0.3-0.2-0.7-0.1-1.1c0.8-4.7,1.4-12.3,0.2-14.6
	c-0.2-0.5-5.4-12.1,2-19.3c0.3-2,1.1-7.9-1.1-13.8c-3.1-8.1,0.2-17,0.9-18.6c0.8-3.8,1.1-8.7,0.3-9.9c-2.8-4.3,2.2-10.8,3.2-12
	c0.9-1,2.4-1.2,3.5-0.3c1,0.9,1.2,2.4,0.3,3.5c-1.9,2.3-3.2,5.4-2.8,6c2.4,3.6,0.9,11.5,0.4,13.9c-0.1,0.2-0.1,0.3-0.2,0.5
	c0,0.1-3.5,8.1-0.9,15.1c3.3,8.6,1.2,17.1,1.1,17.5c-0.1,0.5-0.4,1-0.8,1.3c-5.5,4.7-1.4,14-1.4,14c2.1,4.2,0.8,13.9,0.3,17
	c2.5,8.8,1.4,18,1,20.8c2.9,6.4,1.9,13.4,1.9,13.7c0,0.4-0.2,0.8-0.4,1.1c-0.9,1.1-1.8,2.9-1.5,4.3c0.3,1.3,1.5,2,1.5,2l0,0
	c0.2,0.2,0.4,0.3,0.6,0.5c5.8,5.9,4.7,12.9,4.7,13.2c-0.1,0.6-0.4,1.1-0.8,1.5c-7.1,6.3-3.1,13-2.6,13.7c0.8,1.2,0.4,2.7-0.7,3.5
	c-4.5,3-15.1,17.3-19.1,23L33.5,611.2v0.1c-4.4,14.9,5.6,21.9,6,22.2c0.6,0.3,1,0.9,1.1,1.6s0,1.3-0.4,1.9c-8.7,12.2-0.4,23.5,0,24
	l0,0c0.8,1.1,0.6,2.7-0.5,3.5c-0.4,0.3-1,0.5-1.5,0.5C37.5,665,36.7,664.7,36.1,663.9z"/>
<path class="st5" d="M91.4,622.6l-20-5.2l-35.5-16.2l-2.6-9.4l7.1-14.2L26.5,577l-8.4-9.4L11,548.5L5.8,532l-0.3-15.5
	c0,0-1.3-5.1-2.9-14.5c-1.7-9.4,3.6-15.6,3.6-15.6l-3-18l2.6-16.8l14.9-26.8l5.8-17.1l18.1-25.5L63,366.7l22.2-8.2
	c0,0-0.4,12-1.5,33.5s24.5,79.5,24.5,79.5l2.3,21.6l-5.8,21l0.5,40.4c0,0-8,7-2.5,22.6s1.5,46.4,1.5,46.4L91.4,622.6z"/>
<path class="st5" d="M198,495.1l-0.9,16.4l-4.3,13.2v15.4l4.2,13.5l1.1,10.9l-5.9,11.9l2.9,50.5c-5.1,23.4,22,2.6,22,2.6
	c9,3,23-5.2,23-5.2l6.8-10.3c-2.3-8.4-10.7-8.5-10.7-8.5l4-7.2l7,3.2l8-4l-2-9l4.6-2.1l5.4-8.9l7.2-3.3l4.5-10.3l7.3-12.4l4-12
	l3.5-2.6l-0.3-10.4l3-5.4l-1.3-16.1l-5.8-26.6c0-9-5-13-5-13c5-6,0-20,0-20l-3-22l-13-15l0.7-5.3l-4.7-4.7l-2.4-4.3l-5.8-4.2
	l-5.8-9.6l-20.1-10.8c-6,56-28,103-28,103L198,495.1z"/>
<path class="st6" d="M234.1,892l-6.3,4.8c-23.9,3.8-38-4.8-40.9-7.8c-2.9-3,6.8-24.9,19.3-26.4s23,13.4,23,13.4s-4.5-22,6.3-21.3
	c10.9,0.8,8.6,32.4,8.6,32.4L234.1,892z"/>
<path class="st6" d="M105,891l-6.3,4.8c-23.9,3.8-38-4.8-40.9-7.8s6.8-24.9,19.3-26.4s23,13.4,23,13.4s-4.5-22.1,6.4-21.3
	c10.9,0.8,8.6,32.4,8.6,32.4L105,891z"/>
<path d="M83.4,901.3C71,900.6,60.8,896,53.8,888c-2.4-1-10-5-11.5-15.1c-0.5-1.8-3.9-15.9,0-37.1c0.2-1.3,1.6-2.3,2.9-2
	c1.3,0.2,2.2,1.5,2,2.9c-3.9,21-0.1,34.9-0.1,35c0.1,0.1,0.1,0.2,0.1,0.3c1.2,8.8,8.5,11.4,8.8,11.5c0.4,0.2,0.8,0.4,1.1,0.8
	c6.1,7.3,15,11.3,26.3,12c7.6,0.5,13.9-0.9,15.3-1.2c2.3-1.3,2.4-5.6,2.4-5.6c0-1.4,1.1-2.5,2.5-2.5h7c5.1-26.3-7.7-38.1-15.3-40.6
	c-8.8-2.9-9.6-8.5-9.7-9.1c-0.2-1.4,0.8-2.6,2.2-2.8c1.4-0.1,2.6,0.8,2.8,2.2c0,0.1,0.6,3.1,6.3,5c13,4.3,24.2,21.3,18.2,48.4
	c-0.2,1.2-1.2,2-2.4,2h-6.8c-0.4,2.4-1.7,6-5.1,7.7c-0.2,0.1-0.3,0.2-0.5,0.2s-5.9,1.5-13.7,1.5C85.5,901.5,84.4,901.4,83.4,901.3z"
	/>
<path d="M103.4,893.3c-1.3-0.5-2-1.9-1.5-3.2c0.7-1.9-0.7-10.6-5.5-18c-2.7-4.1-7.4-9.2-14.3-9.6c-6.6-0.4-14.5,2-23.6,22.5
	c-0.6,1.3-2,1.9-3.3,1.3s-1.9-2-1.3-3.3c10.4-23.5,20.6-26,28.4-25.5c7.1,0.4,13.4,4.5,18.2,11.9c5.4,8.3,7.5,18.5,6,22.5
	c-0.3,1-1.3,1.6-2.3,1.6C103.9,893.5,103.6,893.4,103.4,893.3z"/>
<path d="M98.7,875.4c-1.5-10.7-0.5-18.2,2.9-22.3c2.1-2.7,4.5-2.9,5-2.9l0.2,5c0,0,0,0,0.1,0c-1.6,0.2-5.4,4.2-3.3,19.5
	c0.2,1.4-0.7,2.6-2.1,2.8c-0.1,0-0.2,0-0.3,0C100,877.5,98.9,876.6,98.7,875.4z"/>
<path d="M213.3,900.8c-12.9-0.6-23.6-5-30.9-12.6c-2.4-1-10.4-4.7-12-14.5c-0.5-1.7-4.1-15.2,0-35.4c0.2-1.4,1.5-2.3,2.9-2
	c1.4,0.2,2.3,1.5,2,2.9c-4,19.9-0.1,33.1-0.1,33.2c0.1,0.2,0.1,0.3,0.1,0.4c1.3,8.3,9,10.8,9.3,10.9c0.4,0.1,0.8,0.4,1.1,0.7
	c14.7,16,41,10.9,43.9,10.3c2.4-1.3,2.5-5.2,2.5-5.2c0-1.4,1.1-2.5,2.5-2.5h7.4c5.3-25-8-36.1-16-38.5c-9.1-2.8-10-8.2-10.1-8.8
	l5-0.6V839c0,0,0.7,2.9,6.6,4.7c13.6,4.1,25.3,20.3,19,46.3c-0.2,1.1-1.2,1.9-2.4,1.9h-7.2c-0.5,2.4-1.9,5.8-5.4,7.4
	c-0.2,0.1-0.3,0.2-0.5,0.2c-0.3,0.1-6.2,1.5-14.3,1.5C215.6,901,214.4,901,213.3,900.8z"/>
<path d="M226.6,876.4c-0.4-2.6-1.9-16,1.4-20.7c0.5-0.8,2.6-3.8,6.3-4.1c2.9-0.3,5.7,1.2,8.3,4.3c0.9,1,0.8,2.6-0.3,3.5
	c-1,0.9-2.6,0.8-3.5-0.3c-1.5-1.8-3-2.7-4.1-2.6c-1.4,0.2-2.5,1.8-2.5,1.8l0,0c0,0.1,0,0.1-0.1,0.2c-1.5,2-1.4,10.5-0.5,17.2
	c0.2,1.4-0.7,2.6-2.1,2.8c-0.1,0-0.2,0-0.3,0C228,878.5,226.9,877.6,226.6,876.4z"/>
<path d="M231.6,889.3c0-0.3-3-22.3-23-25.9c-0.1,0-12.2-1.8-22.1,23.5c-0.5,1.3-1.9,1.9-3.2,1.4s-1.9-1.9-1.4-3.2
	c11.7-29.6,27.2-26.6,27.8-26.5c23.5,4.2,27,29.8,27,30.1c0.1,1.4-0.8,2.6-2.2,2.8c-0.1,0-0.2,0-0.3,0
	C233,891.5,231.9,890.6,231.6,889.3z"/>
<path class="st7" d="M46.9,587c-0.2-3.3-2.6-6-6-6c-3.1,0-6.2,2.8-6,6c0.3,4.3-3,10.2,0.3,14.7c1.9,2.6,5.1,4,8.2,2.2
	c2.6-1.5,4.1-5.6,2.2-8.2c-0.4-0.6-0.4-0.5-0.1,0.3c0.2,0.8,0.2,0.9,0.2,0.4c0,0,0.1-1.4,0-0.7c-0.1,0.6,0.1-0.4,0.1-0.5
	c0.1-0.4,0.2-0.8,0.3-1.2C46.5,591.7,47,589.3,46.9,587L46.9,587z"/>
<path class="st7" d="M79.9,374c7.6-1.6,4.3-13.2-3.5-11.3c-4.7,1-8.9,3.3-13.3,5.2c-3.8,1.6-8.1,3.4-11.6,5.7
	c-3.3,2.1-7,4.8-9.6,7.7c-1.2,1.4-2.5,2.8-3.7,4.2c-0.6,0.8-0.9,1.8-1.5,2.6c0.9-1.2,0.1-0.3-0.5,0.2c-3,2.7-5.9,7.5-7.7,11.1
	c-1.8,3.5-2.9,8.1-3.2,12c-0.3,4.7-0.4,9.4,1.5,13.7c1.6,3.6,4.5,6.9,5.4,10.7c1.8,7.5,13.4,4.3,11.6-3.2c-0.8-3.8-3.1-6.7-4.9-10.1
	c-1.7-3.3-2-6.8-1.6-10.4c0.8-7.1,5.4-12,9.4-17.4c0.7-0.7,1.2-1.6,1.5-2.6c-1.5,1.6-1.5,1.8,0.1,0.4c1.1-1,1.8-2.4,2.8-3.4
	c2.2-2.3,5.1-4.5,7.9-6.1C65.2,379.5,73,375.4,79.9,374L79.9,374z"/>
<path class="st7" d="M91.9,555.9c3.1-6.9-7.2-13-10.3-6c-1.2,2.5-3.6,4-5.2,6.1c-1.5,2-2.9,4.1-4.4,6.1c-2.9,3.8-6.3,7.1-9.6,10.6
	c-5.3,5.6,3.1,14.1,8.5,8.5c3.6-3.8,7.2-7.5,10.4-11.7c1.9-2.5,3.6-5.1,5.7-7.4C88.8,560.1,90.8,558.3,91.9,555.9L91.9,555.9z"/>
<path class="st7" d="M20.4,454.4c3.6-6.9-6.8-13-10.2-6.1c-1.7,3.2-1.7,7-2.6,10.5c-1.1,4.5-1.9,8.9-2.1,13.6
	c-0.2,3.9,0,7.5-1.1,11.2c-1.2,3.9-1.8,8.3-1.8,12.3c-0.1,4.1,1.6,7.4,2.3,11.2c0.7,3.7-0.7,8.1-0.3,11.9c0.6,7.1,2.3,16.2,7.5,21.5
	c5.5,5.5,14-3,8.5-8.5c-1.2-1.2-2.9-5.9-3.4-8.1c-0.8-3.3-1.2-7.4-0.8-10.8c0.4-3.6,0.7-6.9-0.4-10.4c-1-3.1-1.7-5.7-1.3-9
	c0.4-3.5,1.3-6.5,2-9.9c0.7-3.8,0.5-7.5,0.6-11.3c0.1-3.6,0.8-7,1.7-10.5c0.5-1.6,0.9-3.2,1.2-4.9C20.3,456.4,21.3,452.7,20.4,454.4
	L20.4,454.4z"/>
<path d="M100.4,627.2c-42.3-5-67.3-24.7-68.3-25.5c-0.6-0.5-0.9-1.2-0.9-2c0-9.2,1.3-15.5,2.4-19c-7.3-0.2-9.9-1-10.2-1.1
	c-0.4-0.1-0.7-0.3-1-0.6c-10.8-10.9-15.5-36-16.1-39.5c-6.1-12.5-3.4-24-2.3-27.6c-6.8-13.4-2.8-23.7-2.6-24.2
	c2.2-5.1,0.7-15.8-0.1-19.5v-0.1c-2-12.6,4.7-22.4,6.2-24.5c4.4-13.6,11.4-22.8,13.7-25.6c-0.6-8.3,3.3-14.3,3.5-14.6
	c0.1-0.2,0.2-0.3,0.3-0.4c1.2-1.1,3.3-5.5,4.5-8.2c0.1-0.3,0.3-0.6,0.5-0.8l1.8-1.8c21.5-34.5,52.6-35.9,53.9-35.9
	c0.8,0,1.5,0.3,2,0.9s0.7,1.3,0.5,2.1c-0.1,0.5-10.9,50.2,22.3,110.7c0.7,1.2,0.2,2.7-1,3.4s-2.7,0.2-3.4-1
	c-29.5-53.6-25.4-98.3-23.4-110.8c-3.1,0.5-8.3,1.7-14.3,4.3c-9,4-22.1,12.3-32.5,29.2c-0.1,0.2-0.3,0.4-0.4,0.5l-1.7,1.7
	c-0.8,1.8-3.1,6.9-5.1,9.1c-0.6,0.9-3.3,5.8-2.5,12.1c0.1,0.7-0.1,1.5-0.6,2c-0.1,0.1-8.7,9.8-13.5,25.1c-0.1,0.3-0.2,0.6-0.4,0.8
	c-0.1,0.1-7.3,9.3-5.5,21c0.3,1.3,3.1,15-0.1,22.4C6,490.2,2.7,499,9,510.7c0.3,0.7,0.4,1.4,0.1,2.1c0,0.1-4.5,12.1,1.9,25
	c0.1,0.2,0.2,0.5,0.2,0.7c0,0.2,4.3,26,14.3,36.6c1.2,0.3,4.6,0.8,11.7,0.8c0.8,0,1.6,0.5,2.1,1.2c0.5,0.8,0.5,1.7,0.1,2.5
	c0,0.1-3,6-3.2,19.1c4.9,3.6,28.5,19.5,64.8,23.8c1.4,0.2,2.4,1.4,2.2,2.8c-0.2,1.3-1.3,2.2-2.5,2.2
	C100.6,627.5,100.5,627.5,100.4,627.2z"/>
<path d="M105.1,618c-1.4-0.1-2.4-1.3-2.3-2.7c0.6-6.8,1.5-25.8-0.8-31.9c-1.7-4.4-2.7-10.9-2.7-16.8c0-4.6,0.6-10.4,3.5-13.3v-26.7
	c-0.4-3.4-1.6-18.1,3.2-23.4c0.6-3.3,3.1-17.8,0.1-30.2c-3.1-2.2-14.5-10.9-25-26.4c-11.2-16.5-23.4-43.9-18.3-81.5
	c0.2-1.3,1.4-2.3,2.8-2.1c1.3,0.2,2.3,1.4,2.1,2.8c-4.8,35.9,6.8,62.1,17.4,77.8c11.5,17.1,24.4,25.7,24.5,25.8
	c0.5,0.3,0.8,0.8,1,1.4c4.1,15.4,0.2,33.4,0,34.2c-0.1,0.5-0.5,1-0.9,1.4c-2.7,2.2-2.8,13.1-2.1,19.8c0,0.1,0,0.2,0,0.3v28
	c0,0.8-0.4,1.6-1.2,2.1c-3,1.9-3,16.8,0.1,25c3.2,8.3,1.4,31.5,1.2,34.1c-0.1,1.3-1.2,2.3-2.5,2.3C105.1,618,105.1,618,105.1,618z"
	/>
<path d="M61.5,580.2c-1-0.9-1.1-2.5-0.1-3.5c26.6-27.5,21.7-37.9,21.6-38l0.1,0.1l4.2-2.7c0.8,1.3,7.2,13.6-22.3,44.1
	c-0.5,0.5-1.1,0.8-1.8,0.8C62.6,581,61.9,580.8,61.5,580.2z"/>
<path class="st8" d="M74.6,479.5c-2.3-7.4-13.9-4.2-11.5,3.2c1.5,4.8-0.5,9.9-0.7,14.8c-0.2,5.4,0.6,11.8,2.4,16.8
	c3.5,9.9,7.1,20.4,15.4,27.2c5.9,4.8,14.5-3.6,8.5-8.5c-3.5-2.9-5.8-5.9-7.6-10.1c-2-4.7-4.6-10.1-5.6-15.2c-1.1-5.1-1.3-9.8-0.5-15
	C75.6,488.4,75.9,483.8,74.6,479.5L74.6,479.5z"/>
<path d="M83.8,550.6c-1.2-0.7-1.6-2.2-1-3.4c3.7-7.1,7.3-12.9,7.3-13c0.7-1.1,2.2-1.5,3.4-0.8c1.1,0.7,1.5,2.2,0.8,3.4
	c-0.1,0.1-3.5,5.9-7.2,12.8c-0.4,0.8-1.3,1.3-2.2,1.3C84.6,550.9,84.2,550.8,83.8,550.6z"/>
<path d="M41.5,581.5c-1.1-0.9-1.3-2.4-0.4-3.5c0.9-1.1,2.4-1.3,3.5-0.4c25,20.1,59.1,19.4,59.4,19.4c1.4-0.1,2.6,1,2.6,2.4
	c0.1,1.4-1,2.6-2.4,2.6c-0.1,0-0.4,0-1,0C97.1,602,65.8,601,41.5,581.5z"/>
<path d="M84.8,518.6c-10.1-26.1-10.2-36.5-10.2-36.9c0-0.1,0-0.1,0-0.2c0.9-13.5-2.4-21.1-2.7-21.7c-9.6-16.8-9.7-23.5-8.2-26.1
	c0.4-6.8-3.8-9.9-4-10c-0.2-0.1-0.4-0.4-0.6-0.6c-9.7-13.6-10.5-18.4-10.5-19.5h5c0,0,0-0.1,0-0.2c0,0.2,0.6,4.1,9.3,16.4
	c1.6,1.2,6.7,6,5.7,15c0,0.5-0.2,0.9-0.5,1.3c-0.1,0.2-0.2,0.9,0,2.2c0.4,2.9,2.2,8.5,8.2,19c0.1,0,0.1,0.1,0.1,0.1
	c0.2,0.4,4.3,8.8,3.3,24.2c0,0.9,0.6,11,9.8,35c0.5,1.3-0.1,2.7-1.4,3.2c-0.3,0.1-0.6,0.2-0.9,0.2C86.2,520,85.2,519.4,84.8,518.6z"
	/>
<path d="M40.3,457.2c0-0.1-1.2-7.7-10.5-19.8c-9.9-12.8-9.1-18-8.3-19.6c0.7-1.2,2.2-1.7,3.4-1.1c1.2,0.7,1.7,2.2,1.1,3.4
	c-0.1,0.1-0.1,4.3,7.7,14.4c10.3,13.4,11.5,21.8,11.5,22.2c0.1,1.4-0.8,2.6-2.2,2.8c-0.1,0-0.2,0-0.3,0
	C41.5,459.5,40.4,458.6,40.3,457.2z"/>
<path d="M82.2,550.1c-2.9-3.8-6.6-7.4-8.1-7.9c-0.1,0-0.1,0-0.1,0c-1.1,0.7-2.5,0.5-3.3-0.5s-0.7-2.5,0.2-3.4
	c0.2-0.2,0.4-0.4,0.6-0.5c0.4-0.4,1.1-1.4,0.7-3.1c-0.7-2.5-3.2-4.9-4.1-5.6c-0.7-0.5-1-1.3-1-2.1s0.4-1.5,1.1-2
	c0.2-0.1,1.2-0.8,0.2-2.8c-0.1-0.3-0.2-0.5-0.2-0.8c0-0.1-0.8-5.3-7-6.9c-1.5-0.2-10.5-1.9-16.6-11.1c-0.8-1.2-0.4-2.7,0.7-3.5
	c1.2-0.8,2.7-0.4,3.5,0.7c5.2,7.9,12.9,8.9,13.2,8.9c0.1,0.1,0.2,0.1,0.3,0.1c8.4,2.1,10.4,8.8,10.8,10.6c1.2,2.7,0.8,4.9,0,6.5
	c1.5,1.5,3.3,3.9,4,6.7c0.4,1.8,0.3,3.3-0.1,4.6c2.1,1.1,5.2,3.6,9.2,9c0.8,1.1,0.6,2.7-0.5,3.5c-0.5,0.3-1,0.5-1.5,0.5
	C83.4,551,82.7,550.6,82.2,550.1z"/>
<path d="M62.9,511.5c0-0.5-0.3-5.1-6.1-6.6c-1.1-0.2-1.9-1.2-1.9-2.4c0-1.1,0.8-2.1,1.9-2.4c3.1-0.7,8-2.9,8.6-5.1
	c0.4-1.2-0.8-2.7-1.8-3.7c-1-0.9-1-2.4-0.2-3.4c0.2-0.2,3.6-4.5,0-8.8c-0.9-1-0.8-2.6,0.3-3.5c1-0.9,2.6-0.8,3.5,0.3
	c4.1,4.9,2.9,10.2,1.2,13.4c2.2,3,2.2,5.4,1.7,7.1c-0.9,3-3.8,5.1-6.6,6.5c3.2,2.7,4.2,6.4,4.2,8.6c0,1.4-1.1,2.5-2.5,2.5l0,0
	C63.8,514,62.7,512.9,62.9,511.5z"/>
<path d="M54.9,580.8c-1.8-0.8-4.1-2.7-4.7-7.5c-0.1-1.4,0.8-2.6,2.2-2.8c1.4-0.1,2.6,0.8,2.8,2.2c0.2,1.3,0.6,3,1.7,3.5
	c1.8,0.7,5.7-1.2,7.8-2.7c1.1-0.8,2.7-0.6,3.5,0.5s0.6,2.7-0.5,3.5c-0.6,0.4-5.3,3.8-9.8,3.8C56.9,581.3,55.9,581.2,54.9,580.8z"/>
<path d="M7,539.7c-0.6-1.2-0.2-2.7,1-3.4c1.2-0.6,2.7-0.2,3.4,1C21,554.6,29.1,556,37.2,556c3.9,0,6-2.3,9.4-6.3
	c2.5-2.8,5.2-6.1,9.4-8.4c1.2-0.6,2.7-0.2,3.4,1c0.6,1.2,0.2,2.7-1,3.4c-3.4,1.9-5.7,4.6-8,7.3c-3.3,3.9-6.8,8-13.2,8
	C28.3,561,17.9,559.4,7,539.7z"/>
<path d="M43.2,572.1c-6.1-8.2-7.1-10.5-3.7-16.3c0.7-1.2,2.2-1.6,3.4-0.9s1.6,2.2,0.9,3.4c-2,3.3-2.1,3.5,3.4,10.8
	c0.8,1.1,1.3,1,1.5,1c2.4-0.3,6.3-6.3,8.2-10.6c0.6-1.3,2-1.9,3.3-1.3s1.9,2,1.3,3.3c-1,2.1-6,12.8-12.2,13.5c-0.2,0-0.5,0-0.7,0
	C47.1,575,45,574.4,43.2,572.1z"/>
<path class="st7" d="M229.4,421.2c0.5-7.7-11.5-7.7-12,0c-0.2,3.3-1.5,6.3-2.4,9.5c-0.6,1.9-0.5,4.8-1.2,6.3c-1.8,4-5,8.6-7.6,12.4
	c-4.3,6.4,6.1,12.4,10.4,6.1c1.8-2.7,3.3-5.5,4.9-8.3c1.3-2.2,3.2-4.3,3.9-6.7c0.9-3,1.1-6,2-9C228.4,428.1,229.2,424.8,229.4,421.2
	L229.4,421.2z"/>
<path class="st8" d="M290.6,506c0.1-7.7-11.9-7.7-12-0.1c0,3.7,0.6,7.5,0.4,11.3c-0.1,3.1-0.8,6.1-0.7,9.3c0.1,3.1-0.4,5.4-2.1,7.9
	c-2.1,3.1-3.7,5.4-5,9c-1.4,3.6-4.5,6.5-6.5,9.8c-2.3,3.7-3.8,7.6-5.1,11.7c-0.9,2.8-2.4,4-4.5,5.9c-2.4,2.2-3.7,4.4-4.4,6.9
	c2.5-1.4,4.9-2.8,7.4-4.2c-0.3,0-0.6-0.1-0.9-0.1c-7.6-1.1-10.8,10.4-3.2,11.6c0.3,0,0.6,0.1,0.9,0.1c3.3,0.5,6.4-0.8,7.4-4.2
	c0.3-0.7,0.4-1.4,0.4-2.1c-1,2.3-1,2.7,0.2,1.4c0.8-0.3,2.6-2.2,3.1-2.8c2.5-2.7,4.1-5.8,5.2-9.3c1.2-4.1,3-7.9,5.5-11.5
	c1.2-1.6,2.6-3.1,3.7-4.8c1.2-1.9,1.7-4,2.6-6c1.4-3.1,4.2-5.4,5.6-8.6c1.3-3,1.6-6.5,1.7-9.7c0-3.4,0.5-6.7,0.7-10.2
	C291.1,513.6,290.6,509.8,290.6,506L290.6,506z"/>
<path d="M251,589.3c-0.4-1.3,0.2-2.7,1.5-3.2c6.7-2.6,8.9-8.7,9-9c0.3-0.8,0.9-1.4,1.7-1.6c5.2-1.4,8.6-7.8,9.3-9.3
	c1.1-7.5,6.6-13.9,8.2-15.6l3.8-11.5c0.3-0.6,0.7-1.1,1.3-1.4c3.5-1.8,3.2-5.3,2.7-7.2c-1.1-4.3-0.2-6.9,0.1-7.6
	c3.2-8,2.2-13.2,2-14.1c-6.1-11.4-8.1-29.9-8.2-30.7c0-0.2,0-0.4,0-0.6c0.8-5.8-0.3-8.2-1-9.1c-0.8-0.9-1.6-1-1.6-1
	c-1.1,0-2.1-0.8-2.4-1.9c-0.3-1.1,0.3-2.3,1.3-2.8c1.6-0.7,2-4.6,1.7-7.2c-2-5.8-3-9.7-3-9.9c-0.1-0.4-0.1-0.9,0-1.3
	c1.1-3.9-0.5-10-1.7-14.5c-0.8-2.9-1.4-5.1-1.4-6.8c-0.2-1.7-5.9-7.8-12.1-13.1c-0.7-0.6-1-1.4-0.9-2.3l0.8-5.4l-3.6-2.1
	c-0.5-0.4-0.9-0.8-1.1-1.4c-0.8-2.3-1.9-5.1-2.4-6c-0.1,0-0.3-0.1-0.5-0.2c-1.9-0.8-5.4-2.2-8-7.5c-0.4-0.8-1.2-1.6-2.2-2.5
	c5.5,18.7,0.2,39.2-15.5,59.5c-12.7,16.5-27.6,27-28.2,27.4c-1,0.7-2.2,0.6-3.1-0.1c-0.8-0.7-1.1-2-0.6-3
	c22.6-46,27.3-96.1,27.3-96.6c0.1-0.8,0.5-1.5,1.2-1.9c0.7-0.4,1.6-0.5,2.3-0.2c3.3,1.4,20.1,8.7,23.3,15.2c1.8,3.6,3.9,4.5,5.4,5.1
	c0.8,0.3,1.5,0.6,2.1,1.2c0.9,0.9,2,3.3,3.3,7.1l4.2,2.5c0.9,0.5,1.3,1.5,1.2,2.5l-0.8,5.6c5.2,4.5,12.8,11.8,12.8,16
	c0,1,0.6,3.3,1.2,5.5c1.4,5.1,3.1,11.4,1.9,16.5c0.4,1.3,1.3,4.7,2.8,9.2c0,0.2,0.1,0.3,0.1,0.5c0.1,0.7,0.6,5.7-1.3,9.4
	c0.4,0.3,0.7,0.7,1.1,1.1c2.3,2.7,3,7.1,2.2,12.9c0.3,2.5,2.4,19.1,7.7,28.8c0.1,0.1,0.2,0.3,0.2,0.4c0,0.3,2.2,7-2.1,17.7
	c0,0.1,0,0.1,0,0.1v0.1c0,0.1-0.5,1.5,0.2,4.4c1.3,5.2-0.4,9.8-4.4,12.3l-3.7,11.1c-0.1,0.4-0.3,0.7-0.6,1c-0.1,0-6.4,6.5-7.3,13.5
	c0,0.2-0.1,0.5-0.2,0.7c-0.2,0.4-4.1,9.2-11.4,12c-1.1,2.5-4.4,8.1-11.5,10.8c-0.3,0.1-0.6,0.2-0.9,0.2
	C252.2,591,251.2,590.4,251,589.3z M228.8,373.7c-1.4,11.2-6.9,48.3-22.9,85.2c15.4-13.4,45.8-45.4,32-79.5
	c-0.2-0.4-0.2-0.8-0.2-1.2C234.8,376.6,231.6,375,228.8,373.7z"/>
<path class="st7" d="M214.3,569.7c-0.8-7.6-12.8-7.7-12,0c1,8.9,3.2,16.7,8.6,24c2.6,3.6,5.8,7,8.7,10.4c2.3,2.6,4.6,4.4,8.2,4.5
	c7.7,0.2,7.7-11.8,0-12c2.6,0.1,1.5,0.5,0.3-1c-1.1-1.4-2-2.9-3.1-4.2c-1.7-2.1-3.7-3.7-5.3-6c-1.6-2.4-3.3-4.9-3.8-7.7
	c-0.2-1.3-0.2-2.6-0.4-3.9S214.4,571,214.3,569.7L214.3,569.7z"/>
<path class="st8" d="M221.7,570c-2.3-3-7.5-0.1-5.2,3c3.3,4.4,5.2,10.1,8.4,14.8c2.9,4.3,5.8,8.5,8.7,12.7c2.2,3.2,7.4,0.2,5.2-3
	c-2.9-4.2-5.8-8.4-8.7-12.7C226.9,580.2,225,574.4,221.7,570L221.7,570z"/>
<path d="M234.8,607.5c-0.8-1-20.4-24.6-26.5-45.9c-0.4-1.3,0.4-2.7,1.7-3.1c1.3-0.4,2.7,0.4,3.1,1.7c4.9,16.9,19.2,36.1,24,42.2
	c0.3-1.1-0.1-2.9-0.7-4.4c-0.4-0.7-0.7-1.4-1-2.2c-0.5-1.2,0.1-2.6,1.3-3.1c1.2-0.5,2.6,0,3.2,1.1c0.1,0.2,0.6,1,1,2.1
	c2.4,4.1,6.1,3.8,6.5,3.7c0.3-0.1,0.5,0,0.8,0c1.7,0.3,2.9,0.2,3.3-0.3c0.9-1.1,0.2-4.7-1-7.2c-0.1-0.3-0.2-0.6-0.2-1
	c0-3-2.1-10.6-2.9-13.3c-0.4-1.3,0.4-2.7,1.7-3.1c1.3-0.4,2.7,0.4,3.1,1.7c0.3,1.1,2.9,9.7,3.1,14.2c0.8,2,3,8.1,0.2,11.8
	c-1.6,2-4.2,2.8-7.8,2.2c-1.5,0.1-3.6-0.1-5.7-1.1c-0.1,0.4-0.2,0.7-0.3,1.1c-0.8,1.8-2.2,3.1-4.2,3.8c-0.3,0.1-0.5,0.1-0.8,0.1
	C236,608.5,235.3,608.2,234.8,607.5z"/>
<path class="st7" d="M207.6,494.9c-0.1-7.8-12.1-7.8-12,0c0.2,5.2,0.6,9.5-1.8,14.3c-2,4.1-2.7,8-2.6,12.5c0.1,9.1-0.8,18.1,3,26.5
	c3.2,7,13.5,0.9,10.4-6.1c-1.6-3.5-1.5-8.1-1.5-12c0-3.7-0.4-8.1,0.1-11.7c0.6-3.9,3.2-7.4,4.1-11.3
	C208.1,503.1,207.7,499,207.6,494.9L207.6,494.9z"/>
<path d="M193.3,635.5c-1.3-0.2-2.3-1.4-2.1-2.8c0-0.2,2.9-21.9-1-41.2c-3.7-18.4,3.1-26.8,5.3-28.9c0.3-1,0.9-4.5-1.2-10.8
	c-0.5-1.4-1-2.7-1.4-3.9c-2.4-6.7-4.4-12.1-1.9-20.9c-0.7-2.5-2.1-10.6,3.4-17.3c0.5-1.2,2.3-6.8,0.7-17.3c-0.2-1.4,0.7-2.7,2.1-2.9
	c1.4-0.2,2.7,0.7,2.9,2.1c2.1,13.6-1.1,20.2-1.2,20.5c-0.1,0.2-0.2,0.3-0.3,0.5c-4.9,5.8-2.6,13.3-2.5,13.6c0.1,0.5,0.1,1,0,1.5
	c-2.3,7.7-0.7,12,1.6,18.5c0.5,1.3,0.9,2.6,1.4,4c3.3,9.7,1.2,14.4,0.9,14.9c-0.2,0.3-0.4,0.6-0.7,0.8c0,0.1-1.9,1.7-3.4,5.4
	c-1.4,3.5-2.6,9.7-0.7,19.2c4,20.2,1.1,41.9,1,42.8c-0.2,1.3-1.3,2.2-2.5,2.2C193.6,635.5,193.5,635.5,193.3,635.5z"/>
<path class="st8" d="M226.3,606.7c-3-1.3-6.6,1.3-7.6,4.2c-0.9,3.4,1.2,6.1,4.2,7.4c2.3,1,4.7,0.7,7.2,0.9c0.7,0.1,2.4,1,3,0.9
	c0.5,0.2,0.5,0.2,0-0.3c-0.4-0.6-0.4-0.5,0,0.1c0.4,0.6,0.9,1.2,1.4,1.7c5.3,5.7,13.8-2.8,8.5-8.5c0.5,0.6-0.9-1.3-1.1-1.5
	c-0.6-0.6-1.5-1.2-2.3-1.7c-1.3-0.8-2.9-1.5-4.4-1.9C232.4,607.2,228.5,607.6,226.3,606.7L226.3,606.7z"/>
<path d="M199.6,637.4c-0.7-1.1-0.4-2.7,0.8-3.4c8.4-5.3,16.7-6.4,17-6.4c0.3-0.1,0.6-0.1,0.9,0c11.7,2.7,22.8-6.4,22.9-6.5
	c2.3-1.9,3.3-3.7,3.2-5.6c-0.2-3.8-4.8-7.6-6.6-8.7c-1.2-0.7-1.5-2.2-0.8-3.4c0.7-1.2,2.2-1.5,3.4-0.8c0.3,0.2,8.5,5.5,8.9,12.6
	c0.2,3.5-1.5,6.8-5,9.7c-0.5,0.4-12.8,10.5-26.7,7.6c-1.7,0.3-8.2,1.6-14.6,5.6c-0.4,0.3-0.8,0.4-1.3,0.4
	C200.9,638.5,200.1,638.1,199.6,637.4z"/>
<polygon class="st9" points="232.7,383.9 228.3,405.4 218.3,416.8 201.7,422.1 190.7,412.6 187.7,396.6 186.6,381.9 191.5,366 
	202.1,355.2 215.9,353.1 229.9,359.5 232.8,374.5 "/>
<polygon class="st9" points="85.2,383.1 88.8,404.8 98.5,416.5 114.9,422.4 126.2,413.3 129.7,397.4 131.4,382.7 127,366.7 
	116.7,355.5 103.1,353 88.9,358.8 85.5,373.8 "/>
<path d="M225.3,382.9c-1.1-0.8-1.5-2.3-0.7-3.5c0.6-0.8,14.1-21.9-10.8-39.6c-1.1-0.8-1.4-2.4-0.6-3.5s2.4-1.4,3.5-0.6
	c28.8,20.5,12.3,46.2,12.1,46.5c-0.5,0.7-1.3,1.1-2.1,1.1C226.2,383.3,225.7,383.1,225.3,382.9z"/>
<path d="M218.7,402.9c-0.8-0.4-1.4-1.1-1.5-2l-3.7-26.8c-0.1-0.9,0.2-1.7,0.9-2.3l10.2-8.1c0.7-0.5,1.7-0.7,2.5-0.3
	c0.8,0.3,1.4,1.1,1.5,2l2.8,27.9c0.1,0.9-0.3,1.8-1,2.3l-9.3,7c-0.4,0.3-1,0.5-1.5,0.5C219.3,403.1,219,403,218.7,402.9z M224,370.6
	l-5.5,4.4l3,21.1l4.8-3.6L224,370.6z"/>
<path d="M217.6,416.1c-7.5-1.8-10.6-16.3-11.1-21.2c-0.9-8.4-3.2-30.5,11.6-38.7c4.3-2.4,7.6-1.6,9.5-0.5c7.6,4.3,8.2,20.5,8.3,22.3
	v0.1c-0.5,22.5-6,29.8-7.5,31.4c-3,4.5-6.1,6.8-9.2,6.8C218.7,416.3,218.1,416.2,217.6,416.1z M225.2,360c-0.4-0.2-1.8-1-4.6,0.6
	c-11.9,6.6-9.9,26.4-9.1,33.8c0.7,7.1,4.1,16.1,7.3,16.9c1.3,0.3,3.4-1.4,5.5-4.7c0.1-0.2,0.2-0.3,0.4-0.5c0.1,0,5.7-5.8,6.2-28
	C230.7,372.2,229,362.2,225.2,360z"/>
<path class="st10" d="M212.4,358.8c5.6-1.4,3.2-10-2.4-8.6c-2.3,0.6-5,1.4-7.1,2.5c-2.9,1.6-6.3,3.5-8.4,5.9
	c-4.2,4.9-5.5,11.6-6.7,17.8c-1.3,7-1.1,14.3,0.5,21.2c1,4.1,2,8,3.3,12c1.1,3.5,2.5,5.4,4.9,8.1c3.9,4.3,10.2-2.1,6.4-6.4
	c-3.7-4.2-4.7-10.6-5.8-16.1c-1.1-5.5-1.3-11-0.5-16.5c0.6-4.4,1.6-9.6,4-13.1C202.9,362.1,208.4,359.8,212.4,358.8L212.4,358.8z"/>
<path d="M188.3,413.6c0-0.1-0.1-0.3-0.1-0.4c-3.7-15.9-4.2-21-4.2-31.3c0-9.9,4.8-18,6.7-20.3c1.8-2.3,5.7-7.1,14.9-11.2
	c8.2-3.7,15.7,1.7,18.5,5.1c0.9,1,0.8,2.6-0.3,3.5c-1,0.9-2.6,0.8-3.5-0.3c-0.1-0.1-5.8-6.9-12.6-3.8c-8.1,3.7-11.4,7.7-13.1,9.8
	c-1.5,1.7-5.6,8.7-5.6,17.1c0,9.9,0.5,14.8,4,30c0.5,1.2,3.9,7.6,10.3,7c8.9-0.9,9.2-0.9,17-7.3c1-0.9,2.6-0.8,3.5,0.3
	c0.9,1,0.8,2.6-0.3,3.5c-8.6,7.2-10,7.5-19.6,8.5c-0.5,0.1-1,0.1-1.5,0.1C192.8,423.9,188.6,414,188.3,413.6z"/>
<path d="M88.8,381.4c-0.1-0.2-15.7-26.5,13.7-46c1.2-0.8,2.7-0.5,3.5,0.7s0.5,2.7-0.7,3.5c-25.4,16.8-12.8,38.4-12.2,39.3
	c0.7,1.1,0.4,2.7-0.8,3.4c-0.4,0.3-0.9,0.4-1.3,0.4C90.1,382.7,89.3,382.3,88.8,381.4z"/>
<path class="st10" d="M108.2,362.1c5.7-0.7,5.7-9.7,0.1-9c-4.9,0.6-9.2,2.9-13.4,5.4c-3.8,2.2-5,5.5-6,9.6
	c-2.5,9.6-3.4,19.2-0.9,28.9c1.4,5.6,10.1,3.2,8.7-2.4c-1.7-6.6-1.3-12.7-0.1-19.4c0.5-2.6,0.8-6.9,2.8-8.9
	C100.9,364.8,106.1,362.3,108.2,362.1L108.2,362.1z"/>
<path d="M95.9,402.2l-9.1-7.3c-0.7-0.6-1-1.4-0.9-2.3l3.8-27.7c0.1-0.9,0.7-1.7,1.6-2c0.8-0.4,1.8-0.2,2.5,0.4l9.9,8.4
	c0.6,0.5,1,1.4,0.8,2.3l-4.7,26.6c-0.2,0.9-0.8,1.6-1.6,1.9c-0.3,0.1-0.6,0.2-0.9,0.2C96.8,402.7,96.2,402.5,95.9,402.2z M93.9,370
	l-3,21.8l4.7,3.8l3.7-21L93.9,370z"/>
<path d="M88.4,408.8c-1.5-1.6-6.8-9.1-6.5-31.6v-0.1c0.1-1.8,1.3-18,9-22c2-1,5.2-1.7,9.5,0.9c14.5,8.7,11.4,30.8,10.3,39.1
	c-0.6,4.9-4.3,19.3-11.8,20.8c-0.5,0.1-0.9,0.1-1.4,0.1C94.2,416,91.2,413.6,88.4,408.8z M93.1,359.6c-3.9,2-5.9,12-6.3,17.8
	c-0.2,22.2,5.2,28.2,5.2,28.2c0.1,0.1,0.3,0.3,0.4,0.5c2,3.4,4,5.2,5.4,4.9c3.2-0.6,6.9-9.6,7.9-16.6c1-7.4,3.7-27.1-7.9-34.1
	c-1.4-0.9-2.5-1.1-3.2-1.1S93.4,359.4,93.1,359.6z"/>
<path d="M112,424c-1.5-0.4-2.8-0.6-3.9-0.9c-5.7-1.3-8-1.8-15.2-8.2c-1-0.9-1.1-2.5-0.2-3.5s2.5-1.1,3.5-0.2c6.3,5.5,7.8,5.8,13,7
	c1.2,0.2,2.5,0.5,4,0.9c6.1,1.6,7.5-1.6,7.6-1.9c0-0.2,0-0.3,0.1-0.4c5-10,5.4-18.1,5.8-25.2c0.1-2.6,0.3-5,0.6-7.4
	c1.2-8.3-2.4-17.2-3.7-18.9c-1.7-2.2-4.8-6.3-12.8-10.2c-6.7-3.3-12.5,3-12.7,3.3l0,0c-0.9,1-2.5,1.1-3.5,0.2s-1.1-2.5-0.2-3.5
	c3-3.3,10.6-8.5,18.7-4.5c9,4.5,12.7,9.4,14.5,11.7c1.9,2.5,6.1,12.7,4.7,22.6c-0.3,2.2-0.5,4.5-0.6,7c-0.4,7.1-0.9,16.1-6.2,27
	c-0.8,2.2-3.6,5.6-9.2,5.6C115,424.5,113.5,424.3,112,424z"/>
<path d="M218.2,607.8c-4-1.6-10.8-0.3-15.7,0.6c-4.5,0.8-7,1.3-8.7,0.2c-1.2-0.7-1.5-2.2-0.8-3.4c0.7-1,2.1-1.4,3.2-0.9
	c0.9,0.1,3.4-0.4,5.4-0.8c5.5-1.1,13.1-2.5,18.5-0.3c8.8,3.5,14.8,1.1,15.1,1c1.3-0.6,2.8,0,3.3,1.3c0.6,1.3,0,2.8-1.3,3.3
	c-0.2,0.1-3.1,1.3-7.7,1.3C226.4,610.1,222.6,609.6,218.2,607.8z M196.5,604.4L196.5,604.4L196.5,604.4z"/>
<path class="st7" d="M239.6,549.4c7.7-0.2,7.7-12.2,0.1-12.1c-3.6,0.1-9,1-11.7,3.6c-2.4,2.3-3,6-2.9,9.2c0.1,1.3,0,4,0.6,5
	c0,0.3,0.1,0.7,0.2,1c0.8-0.9,1.6-1.8,2.4-2.7c0,0.1-1.8,0.3-2.1,0.4c-3.4,0.8-6.7,3.1-9.2,5.4c-5.8,5.2,2.7,13.6,8.5,8.5
	c4.1-3.6,10.5-2.3,12.2-8.7c0.7-2.7-0.4-5.5-0.6-7.8c-0.1-0.7-0.1-1.3-0.1-2c0-0.9-0.4-0.5-1.3,1.1
	C235.8,550.5,239.2,549.4,239.6,549.4L239.6,549.4z"/>
<path class="st8" d="M245,470.4c1.7-7.5-9.9-10.7-11.4-3.2c-1,4.7-1.8,9.9-1.8,14.8c0,2.6,0.1,5.2,0.1,7.8c0,2.5-1,4-1.7,6.4
	c-1.3,4.5-0.4,8.5,0.8,12.8c0.6,2.3,0.2,1.6-1.5,3.3c-1.5,1.4-2.6,2.8-3.2,4.8c-0.7,2-0.6,3.8-0.8,5.8c-0.1,0.6-0.3,1.1-0.3,1.7
	c-0.1,1,1.5-1.1-0.6,0.5c-4.1,3.1-5.2,8.3-7.2,12.7c-1.5,3.2-4.4,5.7-5.5,9c-1.2,3.5-3.6,5.8-3.6,9.9c0.1,7.7,12.1,7.7,12,0
	c0,1,0.9-0.8,1.3-1.5c0.4-0.7,0.8-1.7,1.1-2.6c0.1-0.3,1-3,0.4-1.8c-0.5,1,0.9-0.9,1.1-1.1c1.2-1.5,2.7-3.3,3.2-5.3
	c0.5-2.3-1.4,1.7,0-0.2c0.8-1,1.3-2.2,1.7-3.4c0.8-2.3,1.4-4.7,3.1-6.6c1.5-1.6,3-2.6,3.9-4.8c1-2.7,0.4-6.4,1.6-8.6
	c1-1.9,3.3-2.9,4.4-4.9c1.1-1.9,1.3-4.1,1.1-6.2c-0.3-4-2.7-6.8-1.4-10.8c0.7-2.3,1.7-3.9,1.9-6.3c0.2-2.9,0-6-0.1-8.9
	C243.5,479.3,244.1,474.7,245,470.4L245,470.4z"/>
<path d="M236.8,577.6c0,0-4.7-5.1-12.8-6.9c-4.6-1-8-2.2-9.4-4.8c-1.3-2.3-0.4-4.9,0.6-7.5c1.4-3.5,3.7-5.7,6.4-6.3
	c0.1,0,0.3-0.1,0.5-0.1c-0.6-1.5-0.7-3-0.1-4.3c0.3-0.6,0.8-1.4,1.7-1.9c-0.3-1.8,0-4,1.6-6.7c0.4-0.6,0.7-1.2,1-1.7
	c2.2-3.9,3.9-6.2,9.6-4l6.5,2.8c1.2,0.6,1.8,2,1.3,3.3c-0.6,1.2-2,1.8-3.3,1.3l-6.4-2.7c-1.2-0.4-1.6-0.5-1.8-0.5
	c-0.4,0.3-1,1.4-1.6,2.4c-0.4,0.5-0.7,1.1-1.1,1.8c-1.3,2.2-1.1,3.3-0.7,3.7c1,0.5,1.4,1.6,1.1,2.7s-1.4,1.8-2.6,1.8
	c-0.4,0-0.6,0.1-0.8,0.1c0.2,1.2,1.8,3.8,3.6,5.8c0.9,1,0.9,2.6-0.1,3.5c-1,1-2.5,1-3.5,0c-1.6-1.6-3-2.3-4.1-2.1
	c-1,0.2-2,1.4-2.8,3.3c-0.8,1.8-1.1,3-0.9,3.3s1,1.2,6.1,2.3c9.6,2.1,15.2,8.1,15.4,8.4c0.9,1,0.8,2.6-0.2,3.5
	c-0.5,0.4-1.1,0.6-1.7,0.6C237.6,578.7,236.9,578.4,236.8,577.6z"/>
<path class="st7" d="M264.9,492.9c1.9-2.7,0.4-6.7-2.2-8.2c-3-1.7-6.3-0.4-8.2,2.2c-3,4.1-9.8,3.2-13.3,7.1c-2,2.2-4.2,5.6-4.2,8.7
	c0,3.7,3.3,6.6,6.6,7.5c7.5,2,10.7-9.6,3.2-11.6c0.5,0.4,0.9,0.7,1.4,1.1c0.2,1.5,0.4,3.1,0.6,4.6c0.1-0.6,2.2-2.9,0.9-2.1
	c1.4-0.8,3.7-1.1,5.2-1.7C259,498.8,262.3,496.5,264.9,492.9L264.9,492.9z"/>
<path class="st7" d="M258.9,522.6c2.5-2.1,2.1-6.4-0.1-8.4c-2.5-2.5-6-2-8.5,0c0.6-0.6,1.2-0.9,2-1c-0.4,0-0.7-0.1-1.1-0.1
	c-0.5-0.1-1.1-0.2-1.6-0.2c-1.4,0-2.8,0.2-4.1,0.7c-3.5,1.3-6.3,4.1-7.1,7.8c-0.6,2.8,0.5,5.2,2.8,6.8c0.2,0.2,0.4,0.3,0.6,0.4
	c0.4,0.1,0.3,0.1-0.3-0.3c2,2.6,6.4,2.1,8.5,0c2.5-2.5,2-5.9,0-8.5c-0.7-0.9-1.8-1.3-2.7-2c1,2.3,1.9,4.5,2.8,6.8
	c0.2-1.2-0.2,0-0.4,0.3c-0.5,0.3-0.6,0.3-0.2,0.1c0.4-0.2,0.3-0.2-0.2,0c0.2-0.1,0.4-0.1,0.6-0.2c-0.7,0.1-0.9,0.1-0.4,0.1
	c0.3,0.1,0.9,0.1,1.3,0.1C253.9,525.3,256.4,524.6,258.9,522.6L258.9,522.6z"/>
<path d="M243.2,531.2c-1.4-1.7-2.7-1.9-4.1-2c-1.2-0.1-2.9-0.3-4-1.8c-1.2-1.7-1.1-4-0.4-7.3c1.4-7,6-6.7,9-6.6
	c3,0.2,5.6,0.3,8.3-4.2c3.3-5.6,7.8-7.9,8-8c1.3-0.6,2.8-0.1,3.4,1.1c0.6,1.3,0.1,2.8-1.1,3.4c-0.1,0-3.4,1.7-6,6
	c-4.2,7-9.4,6.8-12.8,6.6c-3-0.1-3.4-0.1-3.9,2.6c-0.3,1.7-0.4,2.6-0.4,3.1c0.1,0,0.3,0,0.4,0c1.8,0.2,4.7,0.5,7.5,3.8
	c0.9,1,0.8,2.6-0.3,3.5c-0.5,0.4-1,0.6-1.6,0.6C244.5,532,243.8,531.7,243.2,531.2z"/>
<path d="M243.6,511c-3-0.8-5.3-2.3-6.5-4.6c-1.3-2.4-1.4-5.3-0.3-8.6c2.5-7.4,7.5-10.7,11.4-10.7c1.2-0.1,6.2-2.7,10.6-5.6
	c1.2-0.8,2.7-0.5,3.5,0.7c0.8,1.2,0.4,2.7-0.7,3.5c-2.9,1.9-10,6.4-13.4,6.4c-1.6,0-4.8,2-6.6,7.3c-0.7,1.9-0.7,3.5-0.1,4.6
	c0.7,1.2,2.2,1.8,3.3,2.1c1.3,0.3,2.1,1.7,1.8,3c-0.3,1.1-1.3,1.9-2.4,1.9C244,511,243.8,511,243.6,511z"/>
<path d="M240.6,480.9c-1.4-0.4-2.2-1.8-1.8-3.1c2.9-10.5,2.9-27.1,2.9-27.3c0-1.4,1.1-2.5,2.5-2.5c1.4,0,2.5,1.1,2.5,2.5
	c0,0.7,0,17.5-3.1,28.7c-0.3,1.1-1.3,1.8-2.4,1.8C241,481,240.8,481,240.6,480.9z"/>
<path class="st1" d="M96.6,195.9c6,53,52.5,40.8,52.5,40.8c8.5-4.2,37.5,1.2,37.5,1.2c12,6,33-7,33-7c25-31,3.6-61.2,3.6-61.2
	L221,144l-0.6-28.1c-5.2-0.9-16.9-6.7-16.9-6.7c-14.2,6.3-13.8-0.1-13.8-0.1c-11-10.7-15.8-6.5-15.8-6.5l1.2,16.4
	c-3.7-4.6-5.4,3.8-5.4,3.8s-5.1-7.9-8.6-11c-11.4-10-21.4,3-21.4,3l-8.2-14.4l-19.8,2.4l-8,11v52C92.6,178.9,96.6,195.9,96.6,195.9z
	 M197.1,141.4c5.3-18.2,22-15,22-15c3,6,1,20-8.5,19.8C201.1,146.1,197.1,141.4,197.1,141.4z M114.4,127.4c0,0,21-7,22,15
	c0,0-4,4.7-13.5,4.8C113.4,147.4,111.4,133.4,114.4,127.4z"/>
<path class="st0" d="M247.6,169.9l-8-3.3l6.5-6.2c0,0-9.3,3.3-11.5-4.5c-2-7-1-6.3-1-6l9.3-0.3l8.2-0.3l-8.8-10.9
	c-7.8-4.3,1.6-6.7,1.6-6.7c-13.3-5.8-15.5-12.2-15.5-12.2l-8-3.6l3.7,51.5l7.6,24.1l4.9,2.4l-3-10h10l6-3l-13-10
	C236.6,170.9,238.6,166.9,247.6,169.9z"/>
<path class="st2" d="M221.1,121.5c0,8,0.9,16.1,0.5,24c-0.5,11.8-2.3,26.4,6.3,35.9c3.9,4.3,10.3-2.1,6.4-6.4
	c-4.4-4.8-3.6-11.9-4.1-17.9c-0.4-4.6,0.5-9,0.4-13.5c-0.1-7.4-0.5-14.7-0.5-22.1C230,115.7,221,115.7,221.1,121.5L221.1,121.5z"/>
<path class="st2" d="M237.9,162c0.4-0.3-0.5,0-0.6,0.1c-0.6,0.1-1.2,0.4-1.8,0.7c-1,0.4-1.8,1-2.6,1.7c-1.5,1.6-2.2,3.9-2.5,6
	c-0.3,2.4,0.3,4.7,1.5,6.7c0.7,1.1,1.5,2,2.5,2.7c0.7,0.5,1.6,0.8,2.2,1.3c4,4.2,10.4-2.2,6.4-6.4c-0.9-1-2.1-1.4-3.1-2.2
	c-0.5-0.4-0.6-0.5-0.5-1.2c0-0.3,0.1-0.8,0.3-1c-0.4,0.6-0.3,0.3,0.3,0.2c1.5-0.2,3.1-1.4,4.2-2.3c1.9-1.5,1.6-4.8,0-6.4
	C242.4,160.1,239.8,160.5,237.9,162L237.9,162z"/>
<path class="st6" d="M177.8,202.6c0,0-22.3,0.8-22.3-9.9C155.5,187.6,178.1,191.5,177.8,202.6z"/>
<path class="st6" d="M181,203.1c0,0,25.7-8.3,17.5-13.7C192,185.1,181,203.1,181,203.1z"/>
<path class="st3" d="M205.5,177.6c-5.9-10.5-23.3-16.1-31.5-5.2c-2,2.6-0.4,6.7,2.2,8.2c3.1,1.8,6.3,0.4,8.2-2.2
	c-0.5,0.7,2.2,0.2,2.8,0.3c1.3,0.1,2.5,0.3,3.7,0.9c1.7,0.9,3.3,2.3,4.3,4.1C199,190.3,209.3,184.3,205.5,177.6L205.5,177.6z"/>
<g>
	<path d="M175.5,177.6c0,0,7-11,21-4c0,0,9,7,4,15c0,0-15,1-19,11c0,0,5-29-30-27c0,0-7,2-8,11c0,0,2,7,12,9c0,0,16-5,20,5
		c0,0,3,9,6,3"/>
	<path d="M179.3,205.2c-0.1,0-0.2,0-0.3,0c-3.3-0.2-5.2-4.7-5.9-6.7c-3.2-7.7-16.8-3.5-16.9-3.5c-0.4,0.1-0.8,0.1-1.2,0.1
		c-11.4-2.3-13.8-10.4-13.9-10.8c-0.1-0.3-0.1-0.6-0.1-1c1.2-10.5,9.4-13,9.8-13.1c0.2-0.1,0.4-0.1,0.5-0.1c9.7-0.5,17.3,1.1,22.9,5
		c3.5-4.3,11.8-9.5,23.4-3.7c0.1,0.1,0.3,0.2,0.4,0.3c3.7,2.9,9.5,10.5,4.6,18.3c-0.4,0.7-1.2,1.1-2,1.2c-0.1,0-13.1,1-16.7,9.1
		c0.1,0.5,0,1-0.2,1.5C182.4,204.6,180.6,205.2,179.3,205.2z M164,188.9c8.8,0,12.4,4.3,13.8,7.8c0,0,0,0.1,0.1,0.1
		c0.3,0.9,0.7,1.8,1.1,2.5v-0.1c0-0.1,1.6-10.4-4.6-17.3c-4.5-5-12.1-7.3-22.4-6.8c-1,0.4-5,2.3-5.9,8.2c0.6,1.3,2.8,5.2,9.4,6.7
		C156.8,189.7,160.3,188.9,164,188.9z M178.1,178.4c0.1,0.1,0.1,0.1,0.2,0.2c3.9,4.3,5.3,9.5,5.8,13.6c5.1-4.2,12-5.5,14.9-5.9
		c1-2.2,0.7-4.4-0.7-6.9c-1.1-1.9-2.6-3.2-3.1-3.7C185.1,170.9,179.6,176.5,178.1,178.4z"/>
</g>
<path class="st4" d="M139.8,198.2c-0.7,3.4-0.7,6.2,0.9,9.4c1.2,2.3,2.4,4.3,4.3,6.1c2.4,2.2,6.2,2.3,8.5,0c2.2-2.2,2.4-6.2,0-8.5
	c-0.3-0.3-0.6-0.6-0.9-0.9c-0.5-0.5-0.6-0.6-0.2-0.2c-0.3-0.5-0.5-1.1-0.8-1.6c-0.1-0.2-0.3-0.5-0.4-0.8c-0.2-0.4-0.2-0.3,0,0.2
	c0,0.3,0,0.5-0.1,0.8c0.1-0.4,0.2-0.9,0.3-1.3c0.6-3.1-0.9-6.6-4.2-7.4C144.2,193.3,140.5,194.9,139.8,198.2L139.8,198.2z"/>
<path d="M163.4,220.3c-1.3,0-2.6-0.1-4-0.2c-9.5-0.8-15.8-3.4-19.1-8c-4-5.5-2.3-12.1-1.5-15.7c0.1-0.5,0.2-1,0.3-1.4
	c0.3-1.4,1.6-2.2,2.9-2c1.4,0.3,2.2,1.6,2,2.9c-0.1,0.5-0.2,1-0.4,1.6c-0.8,3.2-1.9,7.9,0.7,11.5c2.4,3.3,7.6,5.3,15.4,5.9
	c7.7,0.6,12.9-0.6,15.1-3.5c2.4-3.3,0.7-8.1,0.6-8.1c-0.5-1.3,0.1-2.7,1.4-3.2c1.3-0.5,2.7,0.1,3.2,1.4c0.1,0.3,2.8,7.4-1.3,12.9
	C176.1,218.4,170.8,220.3,163.4,220.3z"/>
<path d="M186.9,217.8c-2.9,0-5.2-0.8-6.9-2.5c-4.4-4.1-3.1-11.4-2.9-12.2c0.3-1.4,1.6-2.2,2.9-2c1.4,0.3,2.2,1.6,2,2.9
	c-0.3,1.5-0.6,5.7,1.4,7.6c1.7,1.6,5,1.2,7.5,0.5c4.3-1.1,7.1-3,8.3-5.4c1.4-3,0.1-6.1,0.1-6.1c-0.5-1.3,0-2.7,1.3-3.3
	s2.7,0,3.3,1.2c0.1,0.2,2.3,5.2-0.1,10.3c-1.8,3.9-5.7,6.6-11.5,8.2C190.3,217.6,188.5,217.8,186.9,217.8z"/>
<path class="st3" d="M219.1,181.2c1.4,11,3.6,22.5-0.4,33.2c-2,5.4-6.6,9.7-11.9,11.6c-3.1,1.1-6.1,2.1-9.3,2.7
	c-1.1,0.2-2.1,0.3-3.2,0.5c-1.4,0.6-1.4,0.6-0.1,0.1c-0.7,0-1.3,0.1-1.9,0.4c-5.3,2.1-3,10.8,2.4,8.7c0.2-0.1,4.1-0.9,1.7-0.5
	c1.6-0.3,3.3-0.4,4.9-0.8c4-0.9,8.2-2.2,12-3.9c5.2-2.3,10.3-7.8,12.8-12.8c6.1-12.3,3.7-26.2,2.2-39.2
	C227.4,175.5,218.4,175.5,219.1,181.2L219.1,181.2z"/>
<path class="st3" d="M148.9,127.9c1.3,7.6,1.1,16.2-1.6,23.5s8.9,10.4,11.6,3.2c3.4-9.4,3.2-20.2,1.6-29.9
	C159.2,117.1,147.6,120.3,148.9,127.9L148.9,127.9z"/>
<path class="st4" d="M147.3,124c-1.4-4.1-2.8-9.2-7.6-10.4c-1.7-0.4-3.7,0.3-4.6-0.7c-1.4-1.6-1.1-6.5-1.5-8.5
	c-1-5.7-9.7-3.3-8.7,2.4c0.8,4.8,0.8,10.7,5.1,14c1.6,1.2,4.6,2,6.5,1.6c1.4-0.3,0.2-0.7,0.8,0.3c0.6,1.1,0.8,2.4,1.3,3.6
	C140.5,131.8,149.2,129.5,147.3,124L147.3,124z"/>
<path class="st4" d="M129.3,115c-3.3-1.3-8.8-2.9-12.1-1.1c-1.2,0.6-2.6,2.1-3.2,3.4c-0.8,1.9,1.7-0.9-0.6,0.5
	c-0.3,0.2-0.6,0.4-0.9,0.6c-1.9,1.4-3.4,3.7-4.9,5.5c-0.9,1.1-1.8,2.3-2.8,3.4c-0.4,0.5-0.9,0.9-1.2,1.4c-0.6,0.9-1.8,0.9,0.5,0.1
	c-5.4,1.9-3.1,10.6,2.4,8.7c4-1.4,6.8-6.5,9.4-9.6c0.6-0.7,1.2-1.5,1.8-2.1c0.7-0.8,0.1-0.2-0.1,0c-0.1,0.1,1.1-0.5,1.4-0.7
	c0.7-0.5,2.1-3,2.7-3.1c-0.7,0.2,1.6,0.9,2,1c1.1,0.2,2,0.5,3.1,0.9C132.3,125.9,134.6,117.2,129.3,115L129.3,115z"/>
<path class="st4" d="M146.5,113.7c-0.4,2.3-0.9,4.4-1.8,6.6c-0.3,0.8-0.6,1.4-1.1,2.1s-0.6,0.7-0.4,0.7c-2.4,0.4-3.7,3.4-3.1,5.5
	c0.7,2.6,3.1,3.5,5.5,3.1c6.2-0.9,8.9-10.6,9.6-15.6c0.4-2.4-0.6-4.8-3.1-5.5C149.9,110,146.8,111.3,146.5,113.7L146.5,113.7z"/>
<path d="M144.1,164.9c-0.5,0-0.9-0.1-1.3-0.4c-1.2-0.7-1.5-2.3-0.8-3.5c16.8-26.1-2.6-48.8-2.8-49c-0.9-1-0.8-2.6,0.2-3.5
	s2.6-0.8,3.5,0.2c0.2,0.3,22,25.8,3.2,55C145.7,164.5,144.9,164.9,144.1,164.9z"/>
<path class="st0" d="M101.6,165.9c1.4-4.9,0.7-21.9,0.8-35.6c0.1-5.9,9.1-7,9.1-7c2.9-22.5,14.6-1.1,14.6-1.1l1.9-20.8l5.6-1.4
	l1.7,8.7l-2.7,8.3c7-8,13,7,13,7c7-2,4.4-15.5,4.4-15.5l12,3.5l3.3,14.9l11.1-8.9l-3.5-7.5l3.7-7.5c5-2,14,6.3,14,6.3
	c2,5.3,8.4,2.5,8.4,2.5l8.4-3.8c1.9,7.9,16.6,6.8,16.6,6.8l10.9,3.3c0,0,21.6,6.6,14.6,1.6c-7-5-11-12-11-12l-1.9-6.5l8.9-2.1
	l8.2,6.3l-1-8.3l-4.5-5.9l-5.3-5.5c0,0,13.2-6.7,3.5-14c-13.8-10.4-21.5,3.9-21.5,3.9l14.5-16.5l7-23l-10-27l-5,5l-23,17l-10,23
	l2-24v-5l-4-2l-8,17l-6-5l2-11l-2-8l-10,6l-7,16l-6-17l-4,10l-10-11l-2,2l3,16l-5,1l-8-10l-5-12l-3,12l-4,6l-8-8l-19-22l-14,24
	l-4,20l4,19l14,22l-26-29l-3,4l3,7l-6,1l-8,8l8,2c0,0,10-1-1,13l-8,8c0,0,27,5,3,8c0,0-9,1-8,6c0,0,20-2,20,9c0,0-13,1-14,12l-2,2
	l2,5c0,0,7,3,13-2c0,0,6,4-6,16c0,0,0,5,11,2l-5,6c0,0,2,9-18,19c-0.6,0.3,7.9,3.2,16,2s9-4,9-4l-7,17c10-12,11-7,11-7
	s-0.1,19.6-5.1,21.6c-5,2,14.3-0.3,14.3-0.3l-3.6,15c0,0,16.6-4.1,21.6-6.1l-10-32.4L101.6,165.9z"/>
<path class="st4" d="M100.5,138.4c-0.2,6.1-0.8,12.3-1.3,18.4c-0.3,3.9-0.6,7.9-1,11.8c-0.1,1.6-0.3,3.2-0.5,4.9
	c-0.1,0.8-0.5,3.5-0.2,1.8c-2,10.1-3.6,22.4,0.5,32.2c2.5,5.9,4.2,11.1,8.2,16.2c2.7,3.4,7.9,9.2,12.2,10.3
	c7.5,1.9,10.7-9.7,3.2-11.6c1.3,0.9,1.5,1,0.7,0.3c-0.5-0.4-1-0.9-1.4-1.4c-0.8-0.7-1.6-1.5-2.4-2.2c-2.2-1.9-4.2-4.1-5.7-6.7
	c-1.4-2.3-1.8-5-2.8-7.4c-0.5-1.2-1.3-2.4-1.6-3.7c0.5,2-0.1-2.4,0-2c-1.6-8.4,0.4-16.4,1.3-24.6c1.3-12,2.6-24.3,2.9-36.3
	C112.7,130.7,100.7,130.7,100.5,138.4L100.5,138.4z"/>
<path class="st2" d="M94.7,142.7c0,7.6,1.3,16.7-0.4,24.1c-1.2,5.3-2,10.7-3.7,15.9c-1.8,5.4-2.4,11.8-2.1,17.4
	c0.3,5.2,0.3,11.7,3.1,16.3c3,4.9,10.8,0.4,7.8-4.5c-2.2-3.7-2-10.3-1.7-14.4c0.2-3.1,0.1-6.3,0.7-9.3c0.6-3.1,2-6,2.6-9.1
	c0.9-4.5,2.1-9.1,2.6-13.6c0.8-7.4,0.1-15.2,0.1-22.7C103.7,136.9,94.7,136.9,94.7,142.7L94.7,142.7z"/>
<path d="M134.7,241.5c-12.1,0-27.6-4.2-35.9-23c-9.2-20.9-3.6-39.2-0.6-49c0.7-2.2,1.3-4.2,1.4-5.3c1-6.7,0.3-33.4,0.3-33.7
	c0-1.4,1.1-2.5,2.4-2.6c1.4,0,2.5,1.1,2.6,2.4c0,1.1,0.7,27.4-0.3,34.6c-0.2,1.6-0.8,3.6-1.6,6.1c-3,9.9-8,26.3,0.4,45.5
	c5.4,12.3,14.8,19,28,20c10.1,0.8,18.8-2.3,18.9-2.3c1.3-0.5,2.7,0.2,3.2,1.5s-0.2,2.7-1.5,3.2C151.8,238.8,144.3,241.5,134.7,241.5
	z"/>
<path class="st4" d="M196.7,120.2c-3.8,3.9-9.9,7.4-11,13.2c-1,5.2,0.6,10.7,1.9,15.7c1.5,5.6,10.1,3.2,8.7-2.4
	c-0.9-3.3-2.8-8-1.7-11.5c1-3.3,6.1-6.2,8.6-8.7C207.1,122.4,200.8,116.1,196.7,120.2L196.7,120.2z"/>
<path class="st3" d="M185.7,127.8c0.4,0,0.8,0,1.1,0c-0.9-0.2-0.5-0.1,1.2,0.1c1.5,0.1,3-0.2,4.3-1c0.6-0.4,1.2-0.8,1.7-1.2
	c-0.8,0.7-0.5,0.5,0.8-0.6c1.1-1.1-1.3,0.5-0.2,0.1c1.4-0.6,3.3-1.3,4.5-2.2c2.6-2,3.9-5.2,2.2-8.2c-1.5-2.5-5.6-4.1-8.2-2.2
	c-1.1,0.9-2.7,1.4-4,2c-0.9,0.4-1.5,1-2.4,1.7c0.2-0.1,0.3-0.2,0.5-0.4c-2.1,1.4-1.5,1.4,1.8,0.1c-0.8-0.4-2.4-0.2-3.3-0.2
	c-3.2,0.1-6,2.7-6,6C179.7,125,182.4,127.9,185.7,127.8L185.7,127.8z"/>
<path class="st4" d="M221.6,115.7c-2.3-3.1-0.6-7.3-5.2-9.2c-3.6-1.5-7.1,0.2-8.2,3.9c-0.3,1.1-1,3.8-0.6,4.9c0.7,1.8,5.4,0.5,4.4-1
	c-0.2-0.4-1.1-0.7-1.4-1c-2.8-2-5.4-4.3-8.1-6.4c-1.9-1.5-4-3.2-6.6-2.9c-1.8,0.3-3.1,1.4-4.2,2.7c-0.6,0.6-1.3,1.4-1.7,2.1
	c-0.2,0.3-0.4,0.5-0.6,0.8c-0.9,0.9-0.2,0.9,2,0c-0.1,0.5-7.3-4.4-7.8-4.9c-1.1-1.1-1.9-2.2-3.2-3.1c-0.6-0.4-1.3-0.8-2-1.1
	c-1-0.5-2-1.9-0.7,0c-2.4,1.8-4.7,3.6-7.1,5.5c-0.5-0.4,0.3,1.8,0.5,2.5c0.3,1.8,0.6,3.5,0.8,5.3c0.2,1.4,0.2,2.8,0.6,4.2
	c0.8,3.2,0.4-1.1,0.6-1.1c-1.6,0.3-4.9,4.8-6.2,6c-1.7,1.5-3.5,3-4.8,4.9c-3.2,4.8,4.5,9.3,7.8,4.5c-0.7,1,1.5-1.3,2-1.8
	c1.4-1.3,2.9-2.6,4.3-3.9c2.1-2,5.4-4.5,5.5-7.7c0.1-3-1-6.6-1.5-9.5c-0.5-3-0.8-7.4-3.3-9.6c-3.7-3.1-10,0.9-7.1,5.5
	c0.8,1.2,1.9,2,3.1,2.8c1.9,1.1,2.1,1,2.9,1.8c2.1,2,4.1,4.1,6.6,5.6c2.3,1.4,5.9,3.5,8.6,3.3c1.8-0.1,3.1-1,4.3-2.2
	c0.3-0.3,3.3-3.5,3.2-3.9c0.2,0.7-3.5-0.9-3,0.6c0.1,0.3,1.3,0.9,1.5,1.1c1.3,0.9,2.5,2,3.7,3c2.1,1.7,4.3,3.8,6.8,5.1
	c2.7,1.4,5.7,1.1,7.5-1.6c1.5-2.2,0.4-6.1,1.7-7.8c-0.9,0.7-1.8,1.4-2.7,2.1c-2.2-2-3.1-2.1-2.6-0.2c0.1,0.6,0.1,1.2,0.3,1.8
	c0.4,1.4,0.9,2.6,1.8,3.8C217.2,124.8,225.1,120.3,221.6,115.7L221.6,115.7z"/>
<path d="M192.4,242.1c-4.9,0-8.2-0.7-8.3-0.7c-1.4-0.3-2.2-1.6-1.9-3s1.6-2.2,3-1.9c1.2,0.3,28.8,5.7,40.7-19.1
	c9.4-19.6-5.8-48.4-6-48.7c-0.2-0.3-0.3-0.7-0.3-1.1c-1-22.8-1-50.8-1-51.1c0-1.4,1.1-2.5,2.5-2.5s2.5,1.1,2.5,2.5
	c0,0.3,0,27.8,1,50.3c1,1.9,4.3,8.8,6.7,17.6c3.8,14,3.5,25.9-0.9,35.1C221,239,203,242.1,192.4,242.1z"/>
<path class="st1" d="M126.1,61.4c0,0-1.1-31.9-22.1-43c0,0-8.9-7-8.9-13c0,0-44,40,0,84C95.1,89.4,109.1,91.4,126.1,61.4z"/>
<path class="st1" d="M195.6,56.9c0,0,5.6-28.4,28.1-35.6c0,0,10-5.4,11.1-11.3c0,0,28.8,35.9-12.2,66.9
	C222.6,76.9,210.6,84.9,195.6,56.9z"/>
<path class="st3" d="M237.8,38.1c-0.3,3.8-0.6,9-2.2,12.5c-1,2.3-2.5,5.8-3.8,7.7c-3.8,5.4-10.9,6.9-14.8,12
	c-2.7,3.4-0.3,8.6,4.4,7.5c0.3-0.1,0.5-0.1,0.8-0.2c5.6-1.3,3.3-10-2.4-8.7c-0.3,0.1-0.5,0.1-0.8,0.2c1.5,2.5,2.9,5,4.4,7.5
	c1.8-2.3,5.5-3.8,8.1-5.8c2.9-2.1,6.2-5,8.1-8c4.7-7.4,6.6-16.1,7.3-24.8C247.2,32.3,238.2,32.4,237.8,38.1L237.8,38.1z"/>
<path class="st2" d="M64.8,70.3c2.3,2,2.6,4.3,4.1,6.8s3.8,4.6,5.9,6.6c4.4,4.1,8.6,5.3,13.2,8.9c4.5,3.6,10.9-2.8,6.4-6.4
	c-4.3-3.4-9.7-5.5-13.6-9.4c-2.1-2.1-3.9-3.7-5-6.5c-1.2-3-2.1-4.3-4.5-6.4C66.8,60.1,60.4,66.5,64.8,70.3L64.8,70.3z"/>
<path class="st2" d="M123.2,24.7c-2,3.4-2.1,8.6-1.5,12.4c1.1,6.5,2.5,12.6,2.7,19.3c0.2,5.8,9.2,5.8,9,0c-0.1-4.9-0.6-9.7-1.6-14.5
	c-0.7-3.5-2.9-9.2-0.9-12.6C133.9,24.2,126.2,19.7,123.2,24.7L123.2,24.7z"/>
<path class="st4" d="M86.9,8.2C82,14,80.5,20.9,78.6,28c-1.9,7.2-4.1,14.8-4.6,22.3c-1,13.8,3.6,28,15.6,35.8
	c6.5,4.2,12.5-6.2,6.1-10.4c-8.7-5.6-10.8-17.3-9.5-27c0.7-5.5,2.2-11.4,3.7-16.7c1.4-5,2-11.2,5.5-15.4
	C100.4,10.8,91.9,2.3,86.9,8.2L86.9,8.2z"/>
<path class="st4" d="M231.8,11.1c-3.8,4-8.8,4.5-13.3,7.1c-4,2.3-6.7,5.8-9.6,9.2c-2.7,3.1-4.2,6.4-6.3,9.9c-1,1.7-1.8,3-2.4,4.9
	c-0.5,1.7-0.6,4.1-1.4,5.5c-2.9,5,4.9,9.6,7.8,4.5c1.7-2.9,1.7-6.5,3.3-9.5c2-3.8,4.1-7.3,6.9-10.6c3-3.5,5.4-6.1,9.8-7.6
	c4.4-1.5,8.4-3.7,11.7-7.1C242.2,13.3,235.9,7,231.8,11.1L231.8,11.1z"/>
<path class="st3" d="M99.9,25.8c-1.7-0.6,1,1.2,1.7,1.8c1,0.9,1.9,1.9,2.9,2.8c2.9,2.6,6.3,4,8.8,7.1c5,6.2,5.8,14.9,6.6,22.5
	c0.6,5.7,9.6,5.8,9,0c-1-10-2.3-20.2-8.8-28.3c-2.9-3.6-6.7-5.5-10-8.5c-2.4-2.2-4.6-5-7.7-6.1C96.8,15.1,94.5,23.8,99.9,25.8
	L99.9,25.8z"/>
<path d="M94.1,91.9c-0.7,0-1.4-0.3-1.9-0.9C77.1,73.3,76.6,72.3,73.8,58.5c-0.3-1.6-0.7-3.4-1.1-5.5C69.1,35.9,85.9,7.9,92.5,2
	c0.6-0.5,2.2-2,4.1-1.4c1,0.3,1.8,1.2,2,2.3c0.3,1.4,0.2,2.5,0.2,3.4c-0.1,2.4-0.3,4.8,12.9,15.1c18.9,14.7,17,39.1,17,40.2
	c-0.1,1.4-1.3,2.4-2.7,2.3c-1.4-0.1-2.4-1.3-2.3-2.7l0,0c0-0.2,1.6-22.9-15-35.8C96.3,15.9,93.9,11.8,93.7,8
	c-6.1,7.8-19,30.3-16.1,44c0.4,2.1,0.8,3.9,1.1,5.6c2.6,13,2.6,13,17.3,30.3c0.9,1.1,0.8,2.6-0.3,3.5C95.2,91.7,94.7,91.9,94.1,91.9
	z"/>
<path d="M225.1,77.9c-0.7,0-1.3-0.3-1.8-0.8c-0.9-1-0.9-2.6,0.1-3.5c12.7-11.7,13.5-12.4,18.3-27.9c3.6-11.4-3.1-28.2-6.4-34.2
	c-2.5,3.2-7.7,8.4-17.1,13.2c-10.9,5.4-15.7,21.3-15.7,21.5c-0.4,1.3-1.8,2.1-3.1,1.7c-1.3-0.4-2.1-1.8-1.7-3.1
	c0.2-0.7,5.5-18.1,18.3-24.5c10.9-5.4,15.9-11.9,16.9-13.9c0.6-1.3,2.1-1.8,3.4-1.3c4,1.6,15,26.8,10.2,42.2
	c-5.1,16.4-6.3,17.7-19.7,30.1C226.3,77.7,225.7,77.9,225.1,77.9z"/>
<path d="M117.1,67.4c0,0-1.5-12.5-6-18s-15-11-15-15s-8,14-4,27s6,13,11,18S114.1,72.4,117.1,67.4z"/>
<path d="M203.6,58.9c0,0,22-20,27-29c0,0,0,8-1,16s-2,16-10,25C219.6,70.9,205.6,67.9,203.6,58.9z"/>
<path class="st4" d="M133.6,143.5c-1.4,1.3,0.6,0,0.6,0.1c0-0.2-2.3,0.5-2.7,0.6c-1.5,0.5,0.9-0.2-1.7,0.3c-0.4,0.1-0.7,0.1-1.1,0.2
	c0.4,0,0.3,0-0.3,0c-2.4,0.1-4.5,2-4.5,4.5c0,2.4,2.1,4.6,4.5,4.5c1.1,0,2.1-0.2,3.2-0.4c0.5-0.1,1.2-0.1,1.8-0.3
	c0.4-0.1,2.5-0.9,1.2-0.5c-1.5,0.4,1.8-0.3,1.2-0.1c0.5-0.1,0.9-0.3,1.4-0.5c1.1-0.5,1.9-1.2,2.8-2
	C144.2,145.8,137.8,139.5,133.6,143.5L133.6,143.5z"/>
<path d="M140.8,141.5c-5.1-10-11.1-19.8-23.4-19.1c-3.1,0.2-5.4,0.4-6.8,0.5c-1.3,0.1-3.5,0.3-3.6,2.6c0,1.3,1,2.4,2.3,2.6
	c0.3,0,0.6,0,0.9-0.1c-0.5,1.4-3.5,10.2,3.5,18.2c2.7,3.1,6.2,4.2,9.7,4.2c7.9,0,16.1-5.3,16.6-5.7C141,144,141.5,142.6,140.8,141.5
	z M117.5,143c-5.4-6.1-2.7-12.9-2.6-13.2c0.3-0.7,0.2-1.5-0.2-2.2c0.9-0.1,1.9-0.1,3-0.2c7.2-0.4,11.8,3.3,17.6,14.3
	C131.3,143.9,122,148.1,117.5,143z"/>
<path class="st11" d="M135.3,141.7c-4,2.2-13.3,6.4-17.8,1.3c-5.4-6.1-2.7-12.9-2.6-13.2c0.3-0.7,0.2-1.5-0.2-2.2
	c0.9-0.1,1.9-0.1,3-0.2C125,127,129.5,130.7,135.3,141.7z"/>
<ellipse transform="matrix(0.9988 -4.977189e-02 4.977189e-02 0.9988 -6.651 6.3587)" cx="124.4" cy="136.7" rx="7.2" ry="11.2"/>
<path d="M225.2,121.8c-1.1-0.2-2.1,0.2-2.7,1.1c-0.5,0.2-2.1,0.6-6.5-0.2c-8.4-1.6-13,5.1-17.9,12.2c-1.1,1.6-2.2,3.3-3.5,5
	c-0.4,0.5-0.6,1.2-0.5,1.9c0.1,0.7,0.5,1.3,1.1,1.7c0.4,0.3,7.9,5.3,15.1,5.3c3.3,0,6.5-1,9-4c6.3-7.2,3.7-15.3,3.2-16.8
	c3.2-0.5,4.2-2,4.5-3.2C227.5,123.5,226.5,122.1,225.2,121.8z M215.5,141.6c-3.7,4.4-11.4,1.1-15.2-0.9c0.7-1,1.4-2,1.9-2.9
	c4.9-7.1,7.9-11.1,12.9-10.2c0.9,0.2,1.8,0.3,2.6,0.4c-0.1,0.5-0.1,1.1,0.1,1.7C217.8,130,220.2,136.1,215.5,141.6z"/>
<path class="st11" d="M215.5,141.6c-3.7,4.4-11.4,1.1-15.2-0.9c0.7-1,1.4-2,1.9-2.9c4.9-7.1,7.9-11.1,12.9-10.2
	c0.9,0.2,1.8,0.3,2.6,0.4c-0.1,0.5-0.1,1.1,0.1,1.7C217.8,130,220.2,136.1,215.5,141.6z"/>
<ellipse cx="209.5" cy="135.8" rx="6.5" ry="10.2"/>
<path class="st2" d="M83,116.4c1.1,1,2.2,2.1,3.3,3.1c0.6,0.5,1.2,1,1.8,1.5c0.8,0.6,0.6,0.5-0.5-0.4c0.2,0.4,0.3,0.7,0.4,1.1
	c0.4,1.9,1.5,3.7,1.9,5.6c0.5,2.1,0.2,4.4,0.6,6.6c1.2,5.7,9.8,3.3,8.7-2.4c-0.5-2.6-0.1-5-1-7.6c-0.7-2.1-1.3-4.2-2.2-6.2
	c-1.6-3.9-3.7-4.7-6.8-7.7C85.2,106,78.9,112.4,83,116.4L83,116.4z"/>
<path class="st12" d="M125.1,134.4l-3-5c0,0-1.5,0.5-2.5,5.5C119.6,134.9,121.1,136.4,125.1,134.4z"/>
<path class="st12" d="M207.6,129.9c0,0-1,0-2,5c0,0,0,1,4-1"/>
<path class="st2" d="M169.5,97.3c3.4,0,5.5,3.5,8.1,5.2c1.8,1.1,3.8,1.6,5.6,2.8c1.3,0.9,1.9,2,3.1,3.1c2,1.9,5.9,3.4,8.6,3.1
	c2.1-0.3,3-0.9,5.3-0.7c1.6,0.2,2.9,0.4,4.5-0.1c-1.2-0.2-2.3-0.3-3.5-0.5c-1.8-1.4-0.5,0.3,0,1c0.6,0.8,1,1.5,1.9,2
	c1.9,1.2,4.8,0.8,6.9,0.2c2.8-0.9,2.8-1.9,5.4-0.1c1.8,1.3,3.6,2.2,5.6,2.9c3.3,1.1,6.7,1.8,10,2.8c2,0.6,3.9,1.2,5.8,1.9
	c0.8,0.3,1.6,0.7,2.5,0.9c0.9,0.2,1.9,1.6,0.4-0.3c3.5,4.6,11.3,0.1,7.8-4.5c-2.7-3.6-8-4.7-12.1-6c-4.2-1.3-9-2-13-3.8
	c-3-1.4-4.8-4-8.3-4.2c-1.8-0.1-3.4,0.2-5,1c-0.3,0.1-1.8,0.7-1.9,1c-0.1,0.2,1.4,2,1.5,1.2c0.4-3.2-4.6-3.9-6.4-4.1
	c-4.2-0.4-6.3-0.5-10.2,1.2c1.2-0.2,2.3-0.3,3.5-0.5c-2.9-0.5-3.1-1.7-5.2-3.5c-2.1-1.8-4.8-2.7-7.2-4c-4.9-2.6-7.5-6.9-13.6-6.9
	C163.8,88.4,163.7,97.4,169.5,97.3L169.5,97.3z"/>
<path class="st2" d="M125.8,97.3c1.9,1.4,4.8,2.4,6.2,4.4c1.3,1.9,0.7,5.4,1.2,7.6c1.2,5.7,9.8,3.3,8.7-2.4
	c-0.3-1.5-0.1-2.9-0.2-4.4c-0.2-2.3-1.1-4.5-2.5-6.3c-2.3-3-5.8-4.5-8.8-6.7c-2-1.4-5-0.3-6.2,1.6C122.8,93.4,123.8,95.8,125.8,97.3
	L125.8,97.3z"/>
<path class="st4" d="M168.7,130.2c-2.3-4.6-2.1-10.1-3.8-14.9c-2.7-7.6-8.5-9.2-15.4-11.9c-5.4-2.1-7.7,6.6-2.4,8.7
	c2,0.8,5.6,1,7.8,3.3c1.2,1.3,1.7,3.4,2.1,5.1c1.1,4.8,1.6,9.8,3.9,14.3C163.5,139.9,171.3,135.3,168.7,130.2L168.7,130.2z"/>
<path d="M97.2,146.7c-0.1,0-0.1,0-0.2,0c-2.3-0.1-4.1-1.3-4.6-3.4c-0.1-0.4-0.1-0.8-0.1-1.3c-4.2-4-9.7-11.3-5-21.8
	c0-0.1,0.1-0.5-0.1-0.9c-0.3-0.6-1.2-1.1-2.4-1.5c-1.3-0.4-2.1-1.8-1.7-3.1c0.4-1.3,1.8-2.1,3.1-1.7c2.7,0.8,4.5,2.2,5.5,4.2
	c1.2,2.4,0.3,4.6,0.2,4.9v0.1c-2.9,6.5-0.7,11.2,2.1,14.4c2.2-4.1,6.3-8.3,10.2-10.4c8.2-4.5,8.4-17.7,8.4-17.8
	c0-0.8,0.4-1.6,1.1-2.1c0.8-0.5,1.8-0.7,2.7-0.5c2.4,0.6,4.1,3.7,6.8,9c0.5,0.9,1,2,1.6,3c1-4.9,1.6-13.3,1.8-18.6
	c0-0.8,0.4-1.5,1.1-2c0.6-0.5,1.5-0.6,2.2-0.3c2.8,0.9,7.8,4.2,6.7,9.9c-0.3,1.5-0.5,2.9-0.6,4.2c1.5-0.6,3-0.7,4.4-0.2
	c3.2,1.1,5,4.8,6.1,8.2c0.6-1.3,0.8-2.7,0.4-3.8c-3-7.4,0.9-16.5,1-16.9c0.4-1,1.5-1.7,2.7-1.5c1.1,0.2,2,1.1,2.1,2.2
	c0.7,6.3,3.5,8.4,4.3,8.9c1.7,0.3,6.4,1.9,7.8,8.8c0.4,1.9,0.9,4.6,1.3,7.2c1.9-2.7,4.6-5.4,8-7.1c0.2-0.1,0.3-0.2,0.4-0.3
	c0.1-0.9-2.2-3.9-4.7-5.9c-0.5-0.4-0.8-1-0.9-1.6c-0.7-5.5-1.4-8.1-1.9-9.3c-0.3,0-0.6-0.1-0.9-0.3c-1.2-0.7-1.6-2.2-0.9-3.4
	c0.6-1,1.8-1.9,3.3-1.6c2.3,0.4,3.8,2.7,5.2,12.9c2.1,1.8,6.2,5.9,5.8,9.7c-0.2,1.8-1.3,3.2-3.1,4.1c-5.7,2.9-8.8,9.7-8.9,11.1
	c0,1.3-1,2.4-2.3,2.5s-2.5-0.8-2.7-2.1c0-0.1-1.6-10.2-2.6-15c-0.9-4.6-3.8-4.9-3.8-4.9c-0.3,0-0.5-0.1-0.8-0.2
	c-0.2-0.1-2.5-1-4.5-4.1c0,1.6,0.2,3.3,0.8,4.8c2.5,6.3-3.8,13-4.6,13.7c-0.7,0.7-1.7,0.9-2.6,0.6c-0.9-0.3-1.6-1.1-1.6-2.1
	c-0.4-4.3-2.1-9.4-3.8-10c-0.6-0.2-1.9,0.3-3.8,2.4c-0.7,0.8-1.8,1-2.8,0.7c-1-0.4-1.6-1.3-1.6-2.3c0-0.2,0-5.3,1-10.5
	c0.1-0.7,0-1.3-0.2-1.8c-0.3,5.9-1.1,15.5-3.1,19.2c-0.6,1.1-1.6,1.8-2.8,1.8l0,0c-2.6,0-4.1-3-6.7-8c-0.5-1-1.1-2.2-1.8-3.4
	c-1,5.3-3.5,13-10.4,16.8c-4.2,2.3-7.6,6.8-8.8,9.6c0.1,0.1,0.1,0.1,0.2,0.2c1.6,1.3,3.1,2.6,2.4,4.6
	C100.1,145.8,99.3,146.7,97.2,146.7z"/>
<path d="M211.1,121.1c-0.8,0-1.5-0.3-2-1c-2.9-3.8-8.4-9.2-11.4-9.2c-0.4,0-0.7,0.1-1.1,0.5c-1.7,2.1-4,3-6.5,2.7
	c-5.8-0.7-11.2-8-12.8-11.2c-0.6-1.2-0.1-2.7,1.1-3.4c1.2-0.6,2.7-0.1,3.4,1.1c1.6,3.1,5.9,8.1,8.9,8.5c0.6,0.1,1.3,0,2.1-1
	c1.3-1.6,3-2.4,5-2.3c3.9,0.1,8.1,3.4,11.1,6.5c0.5-2.1,1.4-4,3.2-4.8c2-0.9,4.3-0.1,6.7,2.4c1,1,1,2.6,0,3.5c-1,1-2.6,1-3.5,0
	c-0.5-0.5-0.9-0.8-1.2-1c-0.4,1.1-0.7,3.7-0.6,6c0.1,1.1-0.6,2.1-1.6,2.5C211.7,121.1,211.4,121.1,211.1,121.1z M213.7,112.3
	L213.7,112.3L213.7,112.3z"/>
<path class="st2" d="M229.1,94.7c-1.3-0.8-1.6-0.8-0.8-0.1c0.1,0.1,0.2,0.1,0.2,0.3c0.3,0.4,0.6,0.8,0.8,1.3
	c0.8,1.7,1.4,3.2,3.1,4.2c1.3,0.7,2.8,0.8,4.3,0.7c1.5-0.1,2.7,0.2,4.2,0.4c2.4,0.3,4.5-2.3,4.5-4.5c0-2.7-2.1-4.2-4.5-4.5
	c-1-0.1-2-0.4-3.1-0.4c-0.4,0-0.7,0-1.1,0c-0.3,0-0.5,0-0.8,0c-0.6,0-0.4,0.1,0.6,0.2c0.5,0.5,1.1,1.1,1.6,1.6
	c-1.2-1.7-1.8-3.6-3.2-5.2c-1.5-1.8-3.6-3.1-6-3C223.3,86,223.3,95,229.1,94.7L229.1,94.7z"/>
<path d="M249.8,126.9c-0.7,0-1.5-0.3-2.1-1.1c-0.7-0.6-4.7-1.5-7.9-1.4c-2.7,0.1-3.9-2-4.6-3.1c-0.8-1.3-0.8-1.3-1.7-1
	c-6.3,1.8-11.1-3.8-11.3-4.1c-0.9-1.1-0.7-2.6,0.3-3.5c1.1-0.9,2.6-0.7,3.5,0.3c0.1,0.1,2.9,3.4,6,2.5c4.6-1.3,6.5,1.7,7.4,3.2
	c0.1,0.2,0.3,0.5,0.4,0.7c1.6,0,4.1,0.2,6.5,0.7c-0.9-2.2-2.3-4.2-2.9-4.3c-0.5-0.1-4.3-0.7-6.4-3.5c-0.8-1.1-1.2-2.3-1.2-3.7
	c-1.1-0.8-3.2-2.4-6.7-4.8c-6.5-4.3-6.4-8.6-6.2-9.8c0-0.2,0-0.5-0.1-0.6c0,0-0.1,0-0.3,0c-0.3,0-0.8,0.1-1.7,0.4
	c-0.8,0.3-1.6,0.1-2.3-0.3c-0.7-0.5-1-1.2-1-2v-2c0-1.1,0.7-2.1,1.8-2.4c0.2-0.1,5.6-1.6,10.1,1c2.6,1.6,4.4,4.2,5.1,7.9
	c0.3,1.5,0.8,2.6,1.4,2.9c1.1,0.6,3.5-0.4,5-1c1.9-0.8,3.6-1.4,5.2-0.7c0.2,0.1,0.7,0.3,1.2,0.4s1,0.3,1.7,0.6
	c0.2-1.4,0.5-2.9,1.3-4.5l0,0c-0.3-0.1-0.7-0.1-1-0.1c-2.2-0.3-5.5-0.6-6.9-3.6c-1.7-3.5,0.2-7.2,1.8-10.1c0.8-1.6,1.8-3.3,1.8-4.4
	c0-0.8-0.6-1.8-1.7-2.6c-1.6-1.2-3.6-1.8-5-1.5c-1.3,0.3-2.7-0.5-3-1.8s0.5-2.7,1.8-3c2.9-0.7,6.5,0.2,9.3,2.4
	c2.3,1.8,3.6,4.2,3.6,6.6c0,2.3-1.2,4.5-2.4,6.7c-1.1,2-2.3,4.4-1.8,5.5c0.3,0.6,1.9,0.8,3.1,0.9c1.8,0.2,4.1,0.5,5.2,2.4
	c1.1,1.9,0.1,4.1-0.2,4.8c-0.9,1.9-1,3.8-0.8,5.4c1.5,1.5,2.7,3.7,2.7,6.8c0,1.1-0.7,2-1.7,2.4c-1,0.3-2.1,0-2.8-0.9
	c-0.1-0.2-1.8-2.4-2.7-5.7c-1-0.6-2.3-1.1-3.7-1.5c-0.5-0.2-1-0.3-1.5-0.5c-0.4,0.1-1.1,0.4-1.6,0.6c-1.4,0.6-3.1,1.2-4.9,1.5
	c1.6,1.2,2.2,1.7,2.2,1.8c0.7,0.6,1,1.5,0.8,2.4c-0.2,0.8,0,1.2,0.2,1.4c0.7,1,2.5,1.4,2.9,1.5c5.4,0.7,7.8,9.7,8.2,12.1
	c0.3,1.9-0.2,3.1-1.5,3.7C250.5,126.8,250.2,126.9,249.8,126.9z M228,95c0,0.3,0.2,1.5,2,3.2c-0.1-0.4-0.2-0.8-0.3-1.3
	c-0.3-1.6-0.9-2.8-1.7-3.7c0.1,0.8,0,1.4,0,1.5C228,94.9,228,94.9,228,95z M227.9,95.1L227.9,95.1L227.9,95.1z"/>
<path d="M197.1,56.9c-0.4,0-0.9-0.1-1.3-0.4c-1.2-0.7-1.5-2.2-0.9-3.4c0.1-0.2,2.3-4.9,0.7-19.5c-0.4-3.9,0.4-6.8,1.8-8.8
	c-0.8,0.5-1.5,1.4-2.1,2.6c-3.7,7.4-3.8,10.6-3.8,11.2c0.1,0.3,0.1,0.3,0.1,0.7c0,0.7-0.1,4.3-2.7,6c-1.1,0.7-2.9,1.4-5.7,0.3
	c-0.9-0.4-1.6-1.3-1.6-2.3v-1.7l-1.9,1.6c-0.7,0.6-1.6,0.7-2.4,0.4c-0.8-0.3-1.4-1-1.6-1.9c-0.1-0.3-1.2-6.4,4.7-12.3
	c1.1-1.1,1-2.3,0.6-4.9c-0.3-1.8-0.7-4.2,0.2-6.4c-1.9,0.4-3.8,1.2-5.4,2.4c-1.9,1.6-2.9,3.7-3.2,6.6c0.2,1.5,0.5,6.6-3.7,10.9
	c-1.5,1.5-2.9,1.3-3.6,1.1c-2.2-0.7-2.7-3.1-3.4-6.4c-0.7-3.1-1.4-6-2.6-8c0,1.6-0.2,3.4-0.8,5.3c-0.8,2.4-2.6,2.8-3.3,2.9
	c-1.1,0.1-4.1,0.3-10.5-10.4c-0.4,2.2-0.3,5,0.7,7.9c3.5,9.4-0.2,12.4-1,13c-1.1,0.7-2.5,0.5-3.3-0.5c-4.6-5.3-11.1-13.5-14.1-20.1
	c-0.4,1.9-0.6,4.1-0.4,6.5c0.1,1.4-0.9,2.6-2.3,2.7c-1.4,0.1-2.6-0.9-2.7-2.3c-0.8-9.9,3.9-17.2,6-18.1c1.1-0.4,2.3-0.2,3,0.7
	c1.4,1.6,0.2,3.5-0.4,4.5c-0.6,2,4.6,10.5,11.5,19.2c-0.2-1-0.5-2.2-1-3.6c-3.4-9,1-16.8,1.2-17.1c0.5-0.8,1.3-1.3,2.2-1.3
	c0.9,0,1.7,0.5,2.2,1.3c2.7,5,5.9,9.9,7.8,12c0.7-3.8-1-6.3-1-6.3c-0.6-0.8-0.7-1.9-0.2-2.7c0.5-0.9,1.4-1.4,2.4-1.3
	c8.4,0.8,10.3,9.7,11.4,15c0,0.2,0.1,0.4,0.1,0.6c1.2-2.4,0.8-4.5,0.8-4.6c0-0.2-0.1-0.4,0-0.7c0.3-4.4,2-7.8,5-10.3
	c6.1-5,15.4-4,15.8-4c1.1,0.1,2,1,2.2,2.2c0.1,1.1-0.5,2.2-1.5,2.6c-3.9,1.6-3.7,2.9-3.1,6.2c0.4,2.6,1,6.2-2,9.2
	c-0.3,0.3-0.6,0.7-0.9,1c0.7-0.4,1.5-0.4,2.2,0c0.9,0.4,1.4,1.3,1.4,2.3v0.8c0.3-2.3,1.3-6.1,4.3-11.9c1.5-3.1,3.7-5,6.4-5.7
	c4.2-1,7.9,1.5,8.3,1.8c0.8,0.6,1.2,1.6,1,2.6s-1.1,1.7-2.1,1.9c-0.7,0.1-4.6,1.1-3.9,7.2c1.9,16.8-1,22-1.4,22.6
	C198.8,56.5,197.9,56.9,197.1,56.9z"/>
<path d="M72.1,88.9c-1.4,0-2.5-1.1-2.5-2.5c0-0.5-0.2-0.9-0.5-1.2c-2.4-2-10.5-1.4-15.4-0.4c-0.7,0.1-1.4,0-2-0.4
	c-0.6-0.4-0.9-1.1-1-1.8c-0.3-2.9,0.5-5.5,2.4-7.5c3.1-3.4,8.3-4.6,11.7-5c-1-1.1-2.5-2.6-4.1-3.7c-1.1-0.8-1.4-2.3-0.7-3.4
	c2.3-3.6,5.1-4.3,7-4.2c7.7,0.2,15.1,12.7,16.5,15.3c0.7,1.2,0.2,2.7-1,3.4c-1.2,0.7-2.7,0.2-3.4-1c-2.9-5.2-8.7-12.6-12.3-12.7
	c-0.2,0-0.6,0-1.1,0.3c2.7,2.3,5.8,5.8,4.7,9.1c-0.3,1-1.3,1.7-2.4,1.7c-2.3,0-8.8,0.7-11.4,3.6c-0.2,0.3-0.5,0.6-0.6,0.9
	c4.7-0.6,12.3-1.1,16.1,2c1.6,1.3,2.4,3,2.4,5.1C74.6,87.8,73.5,88.9,72.1,88.9z"/>
<path d="M66.2,123.6c-0.1,0-0.2,0-0.3,0c-1.4-0.1-2.4-1.4-2.2-2.7c-0.8-1.5-8.8-2.1-16-1.2c-1.3,0.2-2.5-0.7-2.8-2
	c-0.4-2.4,0-4.4,1.2-6c2.5-3.2,7.5-3.5,11.9-3.7c1.6-0.1,4-0.2,5.2-0.6c-1.6-1.1-7.3-2-12.6-1.9c-1.3,0-2.3-0.9-2.5-2.1
	s0.6-2.4,1.7-2.8c8-2.4,13.4-15.1,13.5-15.3c0.5-1.3,2-1.9,3.3-1.3c1.3,0.5,1.9,2,1.3,3.3c-0.2,0.4-3.6,8.3-9.4,13.7
	c3.5,0.5,7.1,1.5,8.8,3.5c0.9,1.1,1.3,2.5,1,3.9c-0.8,4-5.5,4.3-10.1,4.6c-2.7,0.2-6.4,0.4-7.9,1.5c5.2-0.4,13.5-0.4,16.7,2.8
	c1.2,1.1,1.7,2.6,1.5,4.1C68.5,122.7,67.5,123.6,66.2,123.6z"/>
<path class="st2" d="M79.7,129.7c-3.5,3.1-8.2,1.5-12.1,3.7c-3.8,2.1-5.5,5.7-10.6,4.4c-3.7-0.9-5.3,4.8-1.6,5.8
	c4.8,1.2,9.1,0.2,12.9-3c1.2-1,2.2-2.1,3.9-2.6c1.6-0.4,3.5-0.1,5.1-0.5c2.6-0.6,4.7-1.9,6.7-3.6C86.9,131.3,82.6,127.1,79.7,129.7
	L79.7,129.7z"/>
<path d="M57.5,148.6c-0.5,0-1.1,0-1.6-0.1c-6.7-1-10.4-8.2-10.6-8.5c-0.6-1.2-0.2-2.7,1-3.3c1.2-0.7,2.6-0.3,3.4,0.8
	c0.2,0.3,0.4,0.6,0.7,0.8c0.2-0.5,0.6-1.4,0.9-3.1c1.8-9.6,11.5-11.6,16.4-11.4c1.4,0.1,2.4,1.2,2.4,2.6c-0.1,1.4-1.2,2.4-2.6,2.4
	c-0.4,0-9.8-0.3-11.3,7.3c-0.4,2-1,4.5-2.5,6.1c0.9,0.6,1.9,1.1,3,1.3c2.4,0.4,4.9-0.9,7.6-3.6c1-1,2.6-1,3.5,0c1,1,1,2.6,0,3.5
	C64.5,146.9,61,148.6,57.5,148.6z"/>
<path d="M67.8,170.3c-0.4,0-0.9-0.1-1.3-0.3c-1.2-0.7-1.6-2.2-0.9-3.4l1.6-2.7c-6.7,0.9-9.8-2.6-10-2.8c-0.7-0.8-0.8-2-0.3-2.9
	s1.6-1.4,2.7-1.2c1.4,0.3,4.8-3.4,7.1-8.5c0.6-1.3,2.1-1.8,3.3-1.2c1.3,0.6,1.8,2.1,1.2,3.3c-0.6,1.3-2.6,5.5-5.6,8.5
	c1.5-0.1,3.4-0.5,5.8-1.6c1-0.4,2.2-0.2,2.9,0.6c0.7,0.8,0.8,2,0.3,2.9l-4.8,8.2C69.5,169.8,68.7,170.3,67.8,170.3z"/>
<path d="M81.9,236.8c-0.4,0-0.8-0.1-1.2-0.3c-1.1-0.6-1.6-1.8-1.2-3l4.3-13.2c-10.4,2.8-15.2-2.5-15.5-2.8c-0.7-0.8-0.8-2-0.3-2.9
	s1.6-1.4,2.7-1.2c0.3,0.1,0.5,0,0.8-0.2c2.1-1.5,3.4-7.8,3.7-11.8c0.1-1.4,1.3-2.4,2.7-2.3c1.4,0.1,2.4,1.3,2.3,2.7
	c-0.1,1.8-1,10-4.4,14.1c2.3,0.4,5.9,0.2,10.8-2c0.9-0.4,2-0.2,2.7,0.4c0.7,0.7,1,1.7,0.7,2.6l-3.2,9.9c3.7-2.1,8.7-3.7,14.8-2.9
	c1.4,0.2,2.3,1.5,2.1,2.8c-0.2,1.4-1.4,2.3-2.8,2.1c-10.7-1.5-17.1,6.7-17.2,6.8C83.4,236.4,82.7,236.8,81.9,236.8z"/>
<path d="M247.1,153.4c-2.2,0-5.1-0.7-9-2.6c-0.1,0.1-0.3,0.2-0.5,0.2c-1.1,0.5-2.9,1.5-5.1,0.8c-1.3-0.4-2.1-1.8-1.7-3.1
	c0.4-1.3,1.8-2.1,3.1-1.7c0.3,0.1,0.6,0,1.4-0.4c1-0.5,2.7-1.4,4.7-0.4c2.2,1.2,4,1.8,5.3,2c-0.8-1.2-1.5-2.7-1.8-4.8
	c-1-1.3-5.6-3.3-7.7-3.6c-0.8,0.3-1.4,0.5-1.4,0.5c-1.6,0.4-2.7-0.6-3.1-1.6c-0.5-1.4,0.1-2.6,1.9-3.5c0.5-0.3,1.1-0.4,1.8-0.4
	c2-0.9,4.8-2.4,6.2-3.6c-0.9-0.3-2.6-0.6-5.8-0.7c-4.9-0.2-8.5-7.7-9.4-10c-0.5-1.3,0-2.7,1.3-3.3c1.3-0.5,2.7,0,3.3,1.3
	c1.6,3.8,4.1,6.9,5,7c5.3,0.2,10.8,0.9,11.2,4.9c0.2,2.4-2,4.6-4.6,6.3c0.5,0.2,0.9,0.4,1.2,0.6c3.2,1.7,4.9,3.4,5.2,5.2
	c0.5,3.6,2.8,4.3,3.1,4.4c0.8,0.2,1.4,0.7,1.8,1.4c0.3,0.7,0.2,1.6-0.2,2.3C252.9,151,251.3,153.4,247.1,153.4z M242.2,131.6
	L242.2,131.6L242.2,131.6z"/>
<path d="M247.5,171.9c-0.3,0-0.5,0-0.8-0.1l-9-3c-1-0.3-1.7-1.3-1.7-2.4c0-1.1,0.7-2,1.8-2.4c2.5-0.8,4.2-1.7,5.5-2.6
	c-4.2-0.3-8.5-2.1-9.8-2.7c-1.3-0.6-1.8-2.1-1.2-3.3c0.6-1.3,2.1-1.8,3.3-1.2c5.2,2.3,10.1,2.9,11,1.8c0.6-0.9,1.8-1.2,2.8-0.9
	s1.7,1.3,1.7,2.4c0,0.3-0.1,4.9-5.7,8.6l3,1c1.3,0.4,2,1.9,1.6,3.2C249.5,171.3,248.5,171.9,247.5,171.9z"/>
<path class="st2" d="M78.9,168.6c-4.4,5.5-4.8,13.7-5.3,20.5c-0.3,3.8,5.7,3.8,6,0c0.2-2.8,0.7-5.6,1.1-8.4c0.4-2.7,0.7-5.7,2.5-7.9
	C85.5,169.8,81.3,165.5,78.9,168.6L78.9,168.6z"/>
<path d="M67.7,204.1c-0.4,0-0.8-0.1-1.1-0.3c-1.2-0.6-1.7-2-1.2-3.2c0.3-0.7,0.7-1.5,1.3-2.3c2-3.7,3.6-7.4,4.3-9.9
	c-3,2.3-7.3,3.9-12.5,2.2c-0.2-0.1-0.4-0.1-0.5-0.3c-1.5-0.9-3.3-1.6-4.6-1.9c-1.3,0.5-2.3,0.8-2.7,0.9c-1.1,0.3-2.2-0.1-2.8-1
	c-0.6-0.9-0.6-2.1,0.1-3c1.2-1.5,2.9-2,4.6-2l0,0c5.5-2.2,11.2-5.8,10.6-8.8c-0.3-1.4,0.6-2.7,2-2.9c1.4-0.3,2.7,0.6,2.9,2
	c1,5.2-3.7,9.3-8.5,11.9c0.3,0.1,0.5,0.3,0.7,0.4c6,1.8,9.7-3.7,9.9-3.9c0.6-0.9,1.8-1.3,2.8-1c1.3,0.4,2.3,1.4,2.8,2.7
	c0.8,2,0.2,5.1-0.8,8.2c2.7-0.9,5.9-1,9.6,0c1.3,0.4,2.1,1.7,1.8,3.1c-0.4,1.3-1.7,2.1-3.1,1.8c-7-1.9-10.9,1.9-12.5,4.3
	c-0.4,0.8-0.8,1.4-1.1,1.9C69.4,203.7,68.6,204.1,67.7,204.1z"/>
<path class="st3" d="M173.4,134.4c-0.1,4.6,0.6,9.8,2,14.2c1,3,3.2,6.9,3.8,9c2.3,7.4,13.9,4.2,11.6-3.2c-0.9-2.9-2.6-5.6-3.6-8.4
	c-1.2-3.4-1.9-7.8-1.8-11.6C185.6,126.6,173.6,126.6,173.4,134.4L173.4,134.4z"/>
<path d="M192.4,162.1c-0.9,0-1.8-0.5-2.2-1.4c-10.1-20.1-7.2-31.7-7.1-32.2c0.3-1.3,1.7-2.1,3-1.8c1.3,0.3,2.1,1.7,1.8,3
	c0,0.2-2.4,10.6,6.7,28.7c0.6,1.2,0.1,2.7-1.1,3.4C193.1,162,192.7,162.1,192.4,162.1z"/>
<path d="M243.2,199.7c-0.4,0-0.9-0.1-1.3-0.4c-0.1,0-5.6-3.4-10.8-3.4c-1.4,0-2.5-1.1-2.5-2.5s1.1-2.5,2.5-2.5
	c1.2,0,2.4,0.1,3.6,0.4c-2.4-3.2-4.3-6.7-4-9.3c0.2-1.4,0.9-2.6,2.1-3.3c0.9-0.6,2.2-0.5,3,0.3c0.2,0.2,4.7,4.1,9.7,1.7
	c-4.2-1.5-9.5-4.5-9.9-10.4c-0.1-1.4,0.9-2.6,2.3-2.7c1.4-0.1,2.6,0.9,2.7,2.3c0.3,3.8,5.1,5.7,8.2,6.5c0.9-0.2,2.2-0.1,3.8,1
	c0.9,0.7,1.3,1.9,0.9,2.9c-0.4,1.1-1.5,1.7-2.6,1.6c0,0-0.2,0-0.3,0c0,0.1,0,0.1,0,0.2c0,0.9-0.4,1.7-1.1,2.1
	c-4.5,3-9.2,2.5-12.6,1.1c1.6,2.7,4.8,6.7,8.3,10.2c0.9,0.9,1,2.3,0.2,3.3C244.6,199.3,243.9,199.7,243.2,199.7z"/>
<path class="st2" d="M187,71.2c-1.8,0-3.6-0.4-5.4-0.3c-1.1,0.1-2.6,0-4,0c-1.5,0-2.7,0.1-4,0.8c-0.9,0.4-2.2,1.3-2.7,1.4
	c-5.6,1.3-3.3,10,2.4,8.7c1.2-0.3,2.3-1,3.4-1.5c0.1,0,1.3-0.8,1.4-0.8c-1.3,0.3-1.6,0.5-0.9,0.5c0.3,0,0.6,0,1,0.1
	c1.5,0,2.9,0,4.4-0.1s2.9,0.4,4.4,0.4C192.8,80.1,192.8,71.1,187,71.2L187,71.2z"/>
<path class="st2" d="M182.1,57.9c-2.8,0-5.5,1.2-6.6,3.9c-1,2.4-0.3,5,1.4,6.8c1.6,1.7,4.7,1.8,6.4,0s1.7-4.5,0-6.4
	c-0.1-0.1-0.1-0.1-0.2-0.2c0.2,0.3,0.5,0.6,0.7,0.9c-0.1-0.1-0.2-0.3-0.3-0.5c0.2,0.4,0.3,0.7,0.5,1.1c-0.1-0.1-0.1-0.3-0.1-0.4
	c0.1,0.4,0.1,0.8,0.2,1.2c0-0.1,0-0.3,0-0.4c-0.1,0.4-0.1,0.8-0.2,1.2c0-0.1,0-0.2,0.1-0.3c-0.2,0.4-0.3,0.7-0.5,1.1
	c0-0.1,0.1-0.2,0.2-0.3c-0.2,0.3-0.5,0.6-0.7,0.9c0.1-0.1,0.2-0.2,0.3-0.3c-0.3,0.2-0.6,0.5-0.9,0.7c0.2-0.1,0.3-0.2,0.5-0.3
	c-0.4,0.2-0.7,0.3-1.1,0.5c0.3-0.1,0.5-0.2,0.8-0.2c-0.4,0.1-0.8,0.1-1.2,0.2c0.2,0,0.5,0,0.7,0c2.4,0,4.6-2,4.5-4.5
	C186.5,60,184.6,57.9,182.1,57.9L182.1,57.9z"/>
<path d="M166.1,80.9c-0.9,0-1.7-0.4-2.1-1.2c-0.6-1-0.4-2.3,0.4-3.1c0.3-0.2,3.4-3.1,8-5.2c1.2-1.4,2.2-3,2.2-5c0-3.3,1-5.8,2.9-7.5
	c2.8-2.5,6.5-2,6.9-2c1.4,0.2,2.3,1.5,2.1,2.8c-0.2,1.4-1.4,2.3-2.8,2.1c-0.1,0-1.8-0.2-3,0.8c-0.8,0.7-1.2,2-1.2,3.7
	c0,1-0.1,2-0.4,2.9c3.5-0.5,7.3-0.1,11.1,1.9c1.2,0.7,1.7,2.2,1,3.4c-0.7,1.2-2.2,1.7-3.4,1c-4.3-2.4-8.9-1.6-12.6,0
	c-3.5,3.4-8,5-8.3,5.2C166.7,80.9,166.4,80.9,166.1,80.9z"/>
<path class="st1" d="M149,217.8c0,0,2.7,16.5,19.9,19.1c6.3,1,12-0.3,16.4-3.8c9.3-7.4,12.7-22.4,5.2-25.7c-10.9-4.8-8.3,9-21.1,8.5
	C163.8,215.7,149,217.8,149,217.8z"/>
<g>
	<path class="st3" d="M172.9,232.7c-1.2,0.9,3,0.1,4.5-0.4c0.7-0.2,1.5-0.4,2.2-0.6c0.8-0.2,1.5-0.6,2.3-0.9
		c1.4-0.5,2.5-1.4,3.7-2.3c0.8-0.6,1.4-1.2,2.1-1.9c0.4-0.4,0.6-0.8,1-1.2c0.3-0.3,0.4-0.4,0.5-0.8c0.2-0.7,0.3-1.3,0.3-2
		c0-0.5,0-0.9,0-1.4c0-0.4-1.1-9.9-1.4-10.1c-0.4-0.2-6.6,0.2-7,0c-0.9-0.5-2.2,6.6-3,7c-0.6,0.3-5,2-4.8,3.2c0.1,0.7-1.5-0.1-2.1,0
		c-0.4,0.1-0.5,0.2-0.9,0.1c-0.4-0.1-0.7-0.2-1.1-0.1C169,221.4,174.9,231.1,172.9,232.7z"/>
	<path class="st3" d="M169,230.5c-0.1,0.1-0.1,0.2-0.2,0.3c-1.5,2-0.2,5,1.6,6.2c2.8,1.7,6.9,0.2,9.8-0.6c4.5-1.3,8.7-3.8,11.6-7.6
		c3.5-4.4,2.1-12.9,0.7-18c-0.9-3.2-3.3-4-6.3-4c-3.2,0-6.2-0.9-8.6,1.4c-0.6,0.5-3.8,7.6-3.3,7.8c-1.5-0.5,3-1.7-0.1-0.8
		c-0.7,0.2-1.6,0.8-2.2,1.2c-0.7,0.4-1.3,1-1.9,1.6c-0.2,0.2-1.8,2.7-1,1.6c1.3-0.7,2.6-1.5,3.9-2.2c-1.7-0.2-2.9-0.1-4-0.3
		c-3.5-0.5-5.5,4.1-3.9,6.8c0.7,1.2,1.3,2.3,2,3.5c0.5,0.9,0.8,2,1.3,2.8c1.2,1.9-0.8,2.1,1.4-0.5c-3.7,4.4,2.7,10.8,6.4,6.4
		c4.1-5-0.4-12.2-3.2-16.8c-1.3,2.3-2.6,4.5-3.9,6.8c1.2,0.2,1.6-0.1,2.8,0c-1.5-0.1,0.7,0.2,1.2,0.3c1.6,0.2,3-1,3.9-2.2
		c1.5-2.1-0.8-0.7-0.4,0.1c0-0.1,1.7-1,1.8-1c1.1-0.5,2.2-0.9,3.1-1.8c1-1,1.4-2.4,1.8-3.6c0.3-0.8,0.5-1.6,0.7-2.4
		c0.2-0.7,1.2-2.1,0-0.8c-1.1,0.4-2.1,0.9-3.2,1.3c-1.8,0.2,0.5,0,0.9,0c0.6,0,1.3,0,1.9,0c0.7,0,1.5,0,2.2-0.1c0.3,0,2.3,0.1,1-0.1
		c-0.9-0.7-1.8-1.4-2.7-2.1c-0.8-1.4-0.1,0.5,0,1c0.1,1,0.3,2,0.4,2.9c0.2,1.2,0.5,2.6,0.4,3.8c-0.1,2.9-2.7,4.7-5.4,5.8
		c-1.3,0.5-2.7,0.8-4,1.2c-2.1,0.5-2.4-0.3-0.5,0.9c0.5,2.1,1.1,4.1,1.6,6.2c0.1-0.1,0.1-0.2,0.2-0.3
		C180.3,230.4,172.5,225.9,169,230.5z"/>
</g>
<path class="st4" d="M148.1,224.7c1.3,4.3,6.9,8.2,10.6,10.4c5,2.9,11.7,3.5,17.2,4.4c7.6,1.3,10.8-10.3,3.2-11.6
	c-3.6-0.6-7.1-1.2-10.6-2.1c-0.8-0.2-1.5-0.4-2.3-0.6c-0.4-0.1-2.5-1.1-0.9-0.2c-0.7-0.4-1.3-0.8-2-1.3c-0.8-0.6-1.7-1.2-2.4-1.9
	c-1.3-1.1-2-2.9-1.2-0.3C157.5,214.1,145.9,217.2,148.1,224.7L148.1,224.7z"/>
<path d="M174.3,239.9c-0.9,0-1.8,0-2.7-0.1c-16-1.6-24.7-9.4-25.7-23.2c-0.1-0.7,0.2-1.4,0.7-1.9s1.2-0.8,1.9-0.8
	c0.1,0,13.5,0.3,21-1.4c2.9-0.7,4.3-1.9,6-3.3c2.4-2,5-4.2,11.2-4.3c3.8,0,6.5,1.1,8.2,3.3c2.4,3.2,1.7,7.3,1.4,8.5
	c-0.2,1.7-1.6,12.5-9.2,18.7C183.6,238.5,179.2,239.9,174.3,239.9z M151.2,218.9c2.2,12.5,12.9,15.1,20.9,15.9
	c4.7,0.5,8.7-0.6,11.8-3.2c6.5-5.3,7.4-15.5,7.4-15.6c0-0.2,0-0.3,0.1-0.5c0.2-0.7,0.5-3-0.5-4.3c-0.7-0.9-2.1-1.4-4.2-1.4
	c-4.4,0-6,1.3-8.1,3.1c-1.9,1.6-4,3.4-8.1,4.3C164.6,218.7,155.8,218.9,151.2,218.9z"/>
<path d="M187.5,132.8c-0.3,0-0.7,0-1-0.1c-4.7-0.8-8.1-7.4-8.8-8.8c-0.7-1.5-0.1-3.3,1.4-4s3.3-0.1,4,1.4l0,0
	c1.3,2.8,3.5,5.3,4.4,5.5c0,0,0.1-0.1,0.2-0.2l1.1-1.1c3.9-3.8,5.6-5.4,8.1-6.2c1.6-0.5,3.3,0.3,3.8,1.9s-0.3,3.3-1.9,3.8
	c-1.2,0.4-2.3,1.5-5.8,4.8l-1.1,1.1C190.5,132.2,189,132.8,187.5,132.8z"/>
<circle class="st2" cx="137" cy="180.2" r="1.5"/>
<circle class="st2" cx="136" cy="188.2" r="1.5"/>
<circle class="st2" cx="128" cy="183.2" r="1.5"/>
<circle class="st2" cx="213" cy="176.7" r="1.5"/>
<circle class="st2" cx="210.4" cy="186.9" r="1.5"/>
<circle class="st2" cx="216.3" cy="184.2" r="1.5"/>
</svg>
