<?xml version="1.0" encoding="utf-8"?>
<!-- Generator: Adobe Illustrator 23.0.0, SVG Export Plug-In . SVG Version: 6.00 Build 0)  -->
<svg version="1.1" id="Ebene_1" xmlns="http://www.w3.org/2000/svg" xmlns:xlink="http://www.w3.org/1999/xlink" x="0px" y="0px"
	 viewBox="0 0 775.6 810.9" style="enable-background:new 0 0 775.6 810.9;" xml:space="preserve">
<style type="text/css">
	.st0{fill:#FFFFFF;}
	.st1{fill:#333333;}
	.st2{fill:#FFCC33;}
	.st3{fill:#603813;}
	.st4{fill:#BC0606;}
	.st5{fill:#CC0000;}
	.st6{fill:#754C24;}
	.st7{fill:#FF0000;}
	.st8{fill:#414141;}
	.st9{fill:#FFE633;}
	.st10{fill:#FFCC00;}
</style>
<g>
	<polygon class="st0" points="55.6,103.9 57.6,116.9 71.6,118.5 77.6,115.9 78.6,106.9 	"/>
	<polygon class="st0" points="103.6,108.5 111.6,131.9 122.1,135.4 137.6,132.9 142.6,107.9 	"/>
	<path class="st0" d="M67.1,385.4c0,0-24,27-20,34s0,11,0,11s-12,23-5,24s7-2,7-2v33l8-3.8l1.4,20.9c0,0,11.6-4.1,12.6,6.9
		s0,17,0,17l12,9l8,13l14,18.7l10,1.3l22.4-21l20.6-85l11-4l18-49l-11-37l-15-8l-7-5l-7.8,3.4L67.1,385.4z"/>
	<path class="st1" d="M224.6,646.9c0,0-13.8,10.1-25.4,14.1c-11.6,3.9-102.6-48.1-105.6-73.1c0,0-18.7-36-20.4-55.5
		c-1.6-19.5,16.4,44.5,61.4,45.5c0,0,7-50,13-78c0,0,5-9-2-22s9,8,9,8v-22l7,5l-3-16l11,6l-2-28c0,0,5-6,8,0c0,0-2-16-6-16
		s10-2,10,3s-8-20-8-20l12,4l-4-12l-11-8l3-9l-7-3v-6c0,0,14-9,30-16s112-51,193-8c0,0,40,94-6,166l-82.5,129.2
		C299.1,635.1,253.6,650.9,224.6,646.9z"/>
	<path class="st2" d="M179.6,689.9c0,0,17,31-52,39c0,0-16-11-23-6s0,13,0,13l6,19c0,0,27,6,27,16c0,0,28-15,47-22s43,3,43,3
		s17-11,11-23l-27-3c0,0-10-33-5-45s-10,4-10,4l-10-7L179.6,689.9z"/>
	<path class="st2" d="M322.6,680.9l-8,14c0,0,13,39,0,50s-44-3-46,15l4,10l12,4c0,0,2,7,7,8s9,19,9,19s27-14,32-27l33,14
		c0,0,1-16,9-18s-25-17-25-17s11-11,8-15s-7-7-11-6s-7-40-7-40l-7-13l-6,12L322.6,680.9z"/>
	<path class="st3" d="M225.1,334.4c0,0-89-70,4-64c0,0-25.5-44.5,4.5-44.5s28,5,28,5s-12-37-12-41c0-7,30-40,62,14l-5-38
		c0,0-19-30,0-42s65,22,56,44s9-84,36-82s34,65,34,65s17-92,76-68s21,83,21,83s77-54,86-9l-14,30c0,0,41-29,76,14c0,0,20,35-7,52
		c0,0,30-10,35,23s8,38-21,62s-126,49-126,49s-78,25-93,50v8c0,0,114-68,256-80c0,0,60,19,47,61c0,0-9,17-73,22s-105,17-212,22
		l-10,4c0,0,225,2,243,26s51,35,16,76c0,0-35-2-177-55l-41-8l-44-17C473.6,473.9,454.6,266.9,225.1,334.4z"/>
	<path class="st3" d="M205.6,659.9l19-13c0,0,66,2,79-16c0,0-146-34-121-154c0,0-18-67,93-53c0,0,89,18,90,81l15,5
		c0,0,50.7-78.3,5.9-169.7c0,0,104.1,49.7,77.1,174.7c0,0,27,10,39,4s-40,36-58,43c0,0,54,17,71,10s-25,28-92,41c0,0,11,10,36,10
		s-63,14-88,16c0,0-19,29-87,28S205.6,659.9,205.6,659.9z"/>
	<path class="st3" d="M314.6,694.9l8-14l5,6l4-8l8,13l3.3-31.9c0,0-19.5,8-35.4,6.9C291.6,665.9,317.6,668.9,314.6,694.9z"/>
	<polygon class="st3" points="167.6,648.9 179.6,686.9 186.6,673.9 196.6,680.9 206.6,680.9 205.6,659.9 	"/>
	<path class="st3" d="M46.6,419.9c0,0-63,74,47,181c0,0-28-71-25-96c0,0-12-17.4-12,5c0,6-4-28,2-33s-8,5-10,9c-4.7,9.3-1-29,1-34
		s-8,3-8,3s2-20,5-25S46.6,419.9,46.6,419.9z"/>
	<path class="st3" d="M217.6,130.9c10-12,7-42,7-42c-12-21,0-19,0-19l-11-10l-6-11l-7,1c-9-18-45-20-45-20l-10-10l-3,7
		c-14-21-35-7-35-7l-12-10v13c0,0-11,1-11,4s10,7,4,12s-10-3-10-3c-41-57-32,88-32,88l11-7l1-15c4,6,20,5,20,5l11-1
		c4,34,37,47,37,47c23-1,25,7,25,7c11,19-2,20-2,20c-17-3-23,11-23,11c-7,31-48,23-48,23c-1,7,26,24,26,24c38,31,17,66,17,66
		c-32,38-58,87-48,86s8,41,8,41c11,6,15,28,15,28c8-10,25-12,25-12c-1-54,24-52,24-52c1-164,36-156,36-156
		C256.6,180.9,217.6,130.9,217.6,130.9z M124.6,134.9c-20-1-23-27-23-27c27,8,41,0,41,0S144.6,135.9,124.6,134.9z"/>
	<path class="st4" d="M49.6,126.9c0,0,18.9-26.3,28,4c1.3,4.4-6.6,8.7-13,7C56.6,135.8,49.6,126.9,49.6,126.9z"/>
	<path class="st4" d="M54.6,203.9c0,0,5,28,0,40s-3,37,6,42s19,1,20-4s-1-32-9-41s0-30,0-30L54.6,203.9z"/>
	<path class="st2" d="M6.6,209.9c0,0-14-56,43-79l15,7l11.3-2.5l0.7-15.5l13-14c0,0-3.1,29,31,44c0,0,39.1,5.8,33.6,28.4
		c0,0-23.5,0.6-25.5,6.6c-2,6-11,26-25,30s-43-11-43-11s-28-8-33-4s-14.8,3.5-18,13C7.6,218.9,6.6,209.9,6.6,209.9z"/>
	<path class="st5" d="M93.6,518.9l-2,20l24,14v16c0,0,5,8,19,9c0,0-3-18,2-25s-12-7-12-7s3,1,4-20c0,0,6-5-12-13l-2,28L93.6,518.9z"
		/>
	<g>
		<g>
			<path class="st6" d="M193.1,55.4c3.8,3.8,8.2,8.3,10.1,13.5c1.9,5.3,2.3,12.3,2.7,17.9c0.5,6.5,1,13.7,0.4,20.3
				c-0.2,2.1-0.4,4.6-0.7,6.8c-0.2,1.4-0.9,2.6-1.3,3.9c-0.2,0.7-1.6,5.4-0.8,3c1.4-1.8,2.8-3.6,4.1-5.4c-0.2,0.1-0.4,0.2-0.6,0.3
				c-10.3,5.3-1.2,20.8,9.1,15.5c2.4-1.2,3.9-3.2,4.7-5.7c0.4-1,0.6-2,0.6-3.1c-0.2,1.4-0.1,1.1,0.4-0.7c1.5-3.6,1.3-7.2,1.7-11
				c0.8-8,1-16.6,0.2-24.8c-0.8-7.9-1.4-17.6-4.5-24.9c-3.1-7.1-8.1-13.1-13.5-18.5C197.7,34.4,185,47.2,193.1,55.4L193.1,55.4z"/>
		</g>
	</g>
	<g>
		<g>
			<path class="st6" d="M201.3,132.7c0,5.7,2.8,9.6,5.2,14.6c1.9,4.1,3.8,9.6,4,14.1c0.2,4.9,1.2,10,0.5,14.9
				c-0.6,4.5-2.6,8.3-3.7,12.7c5.5-0.7,11-1.4,16.4-2.1c-0.1-0.2-0.3-0.5-0.4-0.7c-5.5-10.2-21-1.1-15.5,9.1
				c0.1,0.2,0.3,0.5,0.4,0.7c3.6,6.7,14.7,5.3,16.4-2.1c1.1-4.6,3-8.7,3.8-13.4c1-5.9,0.4-11.8,0-17.7c-0.4-5.9-1.7-10.9-3.3-16.6
				c-0.8-2.7-1.9-5.4-3.1-7.9c-0.6-1.3-1.3-2.8-2.2-3.9c-0.2-0.4-0.4-0.8-0.6-1.1c0.1,1.4,0.1,1.2,0.1-0.5
				C219.2,121.1,201.2,121.1,201.3,132.7L201.3,132.7z"/>
		</g>
	</g>
	<g>
		<g>
			<path class="st6" d="M118.7,77.8c3.8-0.1,6,3.1,7.9,6.4c2.1,3.6,2,7.5,4.8,10.9c5,5.9,13.4-2.6,8.5-8.5c0.4,0.5-0.5-1.9-0.6-2.5
				c-0.4-1.4-0.8-2.7-1.3-4c-1-2.4-2.8-4.2-4.1-6.4c-3.1-5.1-9.3-7.9-15.2-7.9C111,65.9,110.9,77.9,118.7,77.8L118.7,77.8z"/>
		</g>
	</g>
	<g>
		<g>
			<path class="st6" d="M117,32.4c1-2.9,5.2-2.6,7.4-1.9c3.9,1.4,5.5,3.9,8.2,6.9c2.7,2.9,4.7,5.8,6.4,9.4c1.6,3.4,4.4,6.3,5.4,10
				c2,7.4,13.6,4.3,11.6-3.2c-0.8-3.1-2.6-6.5-4.3-9.1c-1.5-2.4-2.6-5-4.1-7.4c-3-4.9-7.5-10.3-11.7-14.1
				c-9.1-8.3-26.3-6.4-30.3,6.2C103,36.6,114.6,39.8,117,32.4L117,32.4z"/>
		</g>
	</g>
	<g>
		<g>
			<path class="st6" d="M142.7,32c4.8,4.5,7.4,12.3,9.8,18.3c1.2,3,4,5.1,7.4,4.2c2.9-0.8,5.4-4.4,4.2-7.4
				c-3.2-8.1-6.5-17.5-12.9-23.6C145.5,18.2,137,26.7,142.7,32L142.7,32z"/>
		</g>
	</g>
	<g>
		<g>
			<path class="st6" d="M79.8,34c0-4.4-3.1-8-7.1-9.4c-0.2-0.1-1.9-0.7-1-0.3c-0.7-0.3-1.4-0.7-2.1-1.1c-2.1-1-4-1.3-6.3-1.2
				c-3.2,0.1-6,2.7-6,6c0,3.2,2.7,6.1,6,6c0.7,0,1.6,0.1,0.6-0.3c1.1,0.4,2,1.1,3.1,1.5c0.5,0.2,1,0.4,1.5,0.6
				c0.4,0.1,0.7,0.4,0.6,0.1c-0.1-0.2-0.7-0.4-0.8-0.7c-0.3-0.4-0.4-0.8-0.4-1.3c0,3.2,2.8,6,6,6C77.1,40,79.8,37.3,79.8,34L79.8,34
				z"/>
		</g>
	</g>
	<g>
		<g>
			<path class="st6" d="M126.3,154.2c3.3,2.9,6.1,3.4,10.3,3.7c3.3,0.2,5.6,1.1,8.6,2.2c0.9,0.5,1.9,0.7,2.9,0.6
				c-1.4-0.2-1.5,0-0.5,0.5c0.9,1.1,1.5,1.8,2.1,3.1c1.2,2.9,1.6,6.3,2.5,9.4c2.8,9.2,17.3,5.3,14.5-4c-1.6-5.2-2.1-10.3-5.1-15
				c-3.1-4.8-7.8-8.2-13.4-8.9c1.3,0.3,2.5,0.7,3.8,1c-2.7-1.6-5.1-2.6-8.2-3.1c-1.6-0.3-3.2-0.5-4.8-0.7c-0.7-0.1-1.5-0.2-2.2-0.2
				c-2-0.2-1.9,0.1,0.3,0.7C129.6,137.2,119,147.8,126.3,154.2L126.3,154.2z"/>
		</g>
	</g>
	<g>
		<g>
			<path class="st6" d="M137.9,283c-1.8,8.2-4.3,15.7-6,23.9c-1.8,8.9-1,16.9-2,25.9c-0.4,4-1.3,7.3-1.4,11.4
				c-0.1,3.7-0.1,7.5-0.5,11.2c-0.5,4.5-1.3,8.9-1.9,13.4c-0.7,5.1-0.5,10.3-0.5,15.5c0,13.5,21,13.5,21,0c0-4.8-0.5-9.8,0.3-14.5
				c0.8-4.3,1.7-9,2-13.4c0.5-7.9,0.9-15,1.8-22.1c0.4-3.6,0.5-7.3,0.9-10.7c0.5-3.7-0.1-7.5,0.5-11.2c0.7-4.1,2.5-7.9,3.1-11.9
				c0.7-4,1.9-7.9,2.8-12C161.1,275.4,140.9,269.8,137.9,283L137.9,283z"/>
		</g>
	</g>
	<g>
		<g>
			<path class="st6" d="M229.7,274.3c-4.4-2.2-10-4.6-14.9-5.2c-2.3-0.3-3.9-1.3-6.1-1.8c-2.9-0.7-6.1-0.3-9-0.2
				c-7.7,0.2-7.7,12.2,0,12c7.9-0.2,16.7,2.1,24,5.6C230.5,288,236.6,277.7,229.7,274.3L229.7,274.3z"/>
		</g>
	</g>
	<g>
		<g>
			<path class="st6" d="M268.5,239.8c-1.9-2.8-4.5-4.3-6.9-6.5c-2.6-2.2-5.4-4.2-8.5-5.7c-2.8-1.3-6.2-1.9-9.3-2.4
				c-4-0.7-8-1.7-12-1.9c-7.7-0.4-7.7,11.6,0,12c4.7,0.3,11.5,1.2,15.9,3.1c1.5,0.6,3.6,1.9,4.9,3c1.3,1.1,4.7,3.2,5.5,4.5
				C262.5,252.2,272.9,246.2,268.5,239.8L268.5,239.8z"/>
		</g>
	</g>
	<g>
		<g>
			<path class="st6" d="M312.1,207.2c-1.2-4.7-5-9.2-7.8-12.9c-3.5-4.6-8.2-7.9-12.9-11.1c-10.6-7.2-22-10.9-34.9-7.8
				c-7.5,1.8-4.3,13.4,3.2,11.6c9.7-2.3,17.9,1.2,25.6,6.6c3,2.1,6.4,4.3,8.9,7.3c2,2.4,5.5,6.4,6.3,9.6
				C302.5,217.8,314.1,214.7,312.1,207.2L312.1,207.2z"/>
		</g>
	</g>
	<g>
		<g>
			<path class="st6" d="M366.3,168.3c-0.2-3.2-1.4-6.4-2.8-9.3c-0.6-1.2-1.3-2.6-2.2-3.6c-0.7-1.5-0.8-1.4-0.3,0.3
				c-0.1-0.8-0.2-1.6-0.3-2.4c-1.8-6.5-7.6-10.1-12.4-14.3c-4.6-4-10.1-7.4-15.4-10.3c-3.1-1.7-6-3.3-9.3-4.4
				c-3.8-1.3-8-1.6-11.9-2.4c1.4,1.4,2.8,2.8,4.2,4.2c0-0.2-0.1-0.4-0.1-0.5c-1.6-7.6-13.1-4.4-11.6,3.2c0,0.2,0.1,0.4,0.1,0.5
				c0.4,1.9,2.3,3.8,4.2,4.2c5.6,1.1,11.7,1.5,16.8,4.5c4.6,2.7,9.4,5.6,13.7,8.9c2.1,1.6,4.4,3.4,6.5,5.2c1.2,0.9,2.1,2,2.9,3.3
				c0.5,0.8,1.2,3.4,0.6,0.4c0.5,2.4,0.9,4.2,2.2,6.3c1.1,1.8,2.8,4.3,3,6.4C354.8,176,366.8,176,366.3,168.3L366.3,168.3z"/>
		</g>
	</g>
	<g>
		<g>
			<path class="st6" d="M432.3,154.5c-0.7-3.3-2.2-6.1-2.7-9.5c-0.5-3.5-1.2-6.8-2.3-10.2c-1.2-3.9-3.3-7.5-4.5-11.4
				c-1.1-3.6-1-7-2.7-10.7c-5.4-11.4-16.1-27.6-30.2-27.5c-7.7,0-7.7,12,0,12c5,0,11.1,6.8,13.7,10.8c1.4,2.2,3.1,4.2,4.2,6.5
				c1.5,3,2.2,5.5,2.6,8.8c0.9,6.6,5.6,12.6,6.8,19.2c0.4,2.2,0.6,4.5,1.1,6.7c0.3,1.5,0.3,2.9,0.8,4.4c0.5,1.4,1.4,2.6,1.7,4.1
				C422.4,165.2,434,162,432.3,154.5L432.3,154.5z"/>
		</g>
	</g>
	<g>
		<g>
			<path class="st6" d="M482.3,89.6c8.1,0.7,17.8,0.1,25,4.3c3.9,2.2,7.5,5.7,10.2,9.3c2.7,3.6,5.8,7.8,7.4,12
				c1.3,3.5,0.9,7.2,0.9,10.9c0,5.1-0.1,9.7-0.9,14.7c-0.6,3.5-1.3,5.6-2.3,9.9c-1.1,4.4-2.7,8.8-3.5,13.2
				c-1.4,7.5,10.2,10.8,11.6,3.2c0.9-5,2.5-10.1,3.8-15.1c1.2-4.7,2.4-9.1,3.1-14c0.8-5.7,0.6-12,0.4-17.7
				c-0.1-4.4-1.3-8.6-3.2-12.6c-4.5-9.3-12.2-19-21.2-24.2c-9.3-5.4-20.7-5-31.1-5.9C474.6,77,474.6,89,482.3,89.6L482.3,89.6z"/>
		</g>
	</g>
	<g>
		<g>
			<path class="st6" d="M595.8,151.7c4,0,3.8,0.2,4.4,3.8c0.6,3.6,0.2,6.1-0.6,9.7c-0.6,3-1.4,5.9-2.7,8.6c-0.5,1.1-1.5,2.4-1.7,3.6
				c-0.5,3.3-2.3-0.9,3.1-0.5c1.4,0.6,2.8,1.2,4.2,1.8c-0.2-0.2-0.4-0.4-0.7-0.6c-5.7-5.2-14.2,3.3-8.5,8.5
				c10.9,10,16.7-13.1,18.2-19.9c1.3-6,1.6-12.7-0.3-18.6c-2.1-6.5-9.4-8.4-15.4-8.3C588.1,139.7,588.1,151.7,595.8,151.7
				L595.8,151.7z"/>
		</g>
	</g>
	<g>
		<g>
			<path class="st6" d="M637.9,185.2c-2.4-0.2,0.8,1,1.4,1.4c1.2,0.9,2,2,3.4,2.7c2.8,1.5,5.6,2.6,8.3,4.3
				c4.9,3.2,9.8,5.8,13.4,10.5c4,5.3,6.2,12.5,6.9,19.1c0.3,3.1,0.2,6.5-0.4,9.5c-0.3,1.4-0.7,2.8-1,4.3c-0.1,1-0.3,2-0.4,2.9
				c-0.2,1,0,1,0.5-0.2c2.8,0,5.7,0,8.5,0c-0.2-0.1-0.3-0.3-0.5-0.4c-5.7-5.2-14.2,3.3-8.5,8.5c0.2,0.1,0.3,0.3,0.5,0.4
				c2.6,2.4,5.9,2.1,8.5,0c2.7-2.2,2.6-5.7,3.2-8.8c0.8-4.4,1.7-8.5,1.7-13.1c0-9.1-2.6-19.6-7.6-27.2c-4.3-6.5-10.1-10.8-16.7-14.8
				c-3.5-2.1-7.6-3.8-10.9-6.1c-3.4-2.4-5.8-4.7-10.2-5.1C630.2,172.5,630.2,184.5,637.9,185.2L637.9,185.2z"/>
		</g>
	</g>
	<g>
		<g>
			<path class="st6" d="M690,261.6c-1.7,0-2.4-2.1-1.5,0.4c0.4,1,1.2,2.2,1.8,3.1c1,1.8,2.2,3.6,3,5.5c1.6,3.7,1.9,7.7,2.5,11.5
				c0.6,4.4,0.7,9.3,0.7,13.7c0,5.4-1.1,9.2-3.2,14.2c-1.8,4.2-3,8.5-6.9,11.2c-1.8,1.2-3.6,2.1-5.3,3.5c-1.9,1.7-3.4,3.5-5.6,4.9
				c-3.7,2.2-7.5,4.2-11.3,6.4c-4.7,2.8-8.4,3.9-13.8,4.8c-7.6,1.3-4.4,12.9,3.2,11.6c6.4-1.1,11-2.7,16.6-6c5-3,10.7-5.4,15.1-9.1
				c2.2-1.9,4-3.8,6.4-5.4c2.3-1.5,4.7-3.2,6.4-5.3c3.9-4.6,6.3-12.1,8.3-17.7c2.1-5.9,2.4-12,1.6-18.3c-0.6-5.3-0.2-10.8-1.4-16
				c-1.2-5.4-3.1-10.2-5.9-15c-2.7-4.7-4.7-10.2-11-10.2C682.3,249.6,682.3,261.6,690,261.6L690,261.6z"/>
		</g>
	</g>
	<g>
		<g>
			<path class="st6" d="M520.4,427.1c4.2,0,8.9-1.9,12.9-3.1c3.8-1.1,7.3-3.1,11-4.6c8.6-3.5,17.5-7.2,26.6-9.4
				c4.8-1.2,9.6-2.7,14.4-3.6c4.6-0.9,9-1.1,13.5-2.2c3.8-1,7.5-2.5,11.4-3.3c5.1-1,10.5-1.4,15.5-2.7c4.4-1.1,8.9-2.9,13.2-4.4
				c4.8-1.7,9.8-2.3,14.7-3.7c2.6-0.7,5.2-1.6,7.9-2.2c2.7-0.5,5.2-0.2,7.9-0.6c2.1-0.3,3.9-1.2,6-1.7c2.9-0.7,5.9-0.9,8.8-1.5
				c4.2-0.9,8.2-2,12.4-2.5c2.5-0.3,4.9-1,7.4-1.3c2.3-0.2,4.6,0.1,6.8-0.5c8.7-2.4,17.7,0.7,25.6,4.7c4.7,2.4,9.6,3.4,13.3,7.6
				c3.2,3.7,6.7,7.3,8.9,11.6c1.2,2.3,2.2,4.9,1.8,7.6c-0.2,1.4-1,2.6-1.2,4c-0.2,0.9-0.8,2.7,0.3,0.9c-0.5,0.8-1.3,1.4-1.8,2.2
				c-1.6,2.1-2.4,4-2.4,6.6c0,7.7,12,7.7,12,0c0,0.5,2.7-3,3-3.7c0.4-0.9,1-4.7,0.7-3.5c1.3-4.8,2-9.1,0.7-14.1
				c-1.2-4.2-3.8-9.5-6.8-12.7c-1.4-1.5-3-2.6-4.3-4.3c-1.7-2.3-3.4-4.2-5.6-6c-3.9-3.1-8-4.4-12.4-6.4c-4.8-2.2-9.3-4.5-14.5-5.7
				c-4.6-1.1-9.4-1.9-14.2-1.7c-2.3,0.1-3.9,1-6,1.5c-2,0.4-4.2,0-6.2,0.3c-4.7,0.7-9.4,1.4-14.1,2.4c-5.6,1.1-11.6,1.7-17,3.4
				c-2.9,0.9-2.8,0.9-6,1.1c-2.3,0.1-4.7,0.6-7,1.1c-5.7,1.3-11.3,2.8-17,4.1c-4.7,1.1-9.6,2.9-14.2,4.6c-5.5,2.1-11.3,2.2-17,3.5
				c-4.2,0.9-8,2.5-12.2,3.5c-4.7,1.2-9.4,1.5-14.2,2.4c-11.6,2.3-22.5,6.6-33.7,9.9c-5.2,1.5-10.3,4-15.2,6.2
				c-1.9,0.9-3.9,1.8-6,2.4c-2,0.6-5.7,2-7.7,1.9C512.7,415,512.7,427,520.4,427.1L520.4,427.1z"/>
		</g>
	</g>
	<g>
		<g>
			<path class="st6" d="M540,487.3c7.2-0.1,14.2,2.3,21.4,3c7.4,0.7,14.8,1.2,22.2,1.8c8.7,0.7,17.2,0.8,25.9,0.8
				c8.1,0,16.6,0.8,24.6-0.6c3.6-0.6,6.9-0.3,10.5-0.2c4.4,0.1,8.9-0.1,13.3,0c9.1,0.3,17.9,2.9,26.2,6.5c7.5,3.2,15.2,5.8,22.4,9.6
				c6.3,3.4,10.6,9.7,14.6,15.4c5.4,7.6,10.6,14.5,10.6,24.3c0,3.5,1,9.4-0.4,12.3c-0.7,1.6-2.2,2.8-2.9,4.6c-0.8,2-0.9,4-0.8,6.1
				c3.9-0.5,7.9-1.1,11.8-1.6c-0.1-1-0.4-2-0.9-2.9c-2.8-7.1-14.4-4-11.6,3.2c0.5,0.9,0.7,1.9,0.9,2.9c1.4,6.6,12.2,5.2,11.8-1.6
				c-0.2-3.2,2.8-4.9,3.6-8c1-4,0.4-8.9,0.4-13.1c0-9.2-2.4-17.2-6.9-25.2c-1.9-3.4-4.9-6.4-7.2-9.7c-2.4-3.4-4.9-7-7.9-9.9
				c-6-5.8-12.7-8.8-20.1-12.4c-4-1.9-8.3-3-12.3-4.7c-4.4-1.9-8.9-3.7-13.5-4.9c-9.2-2.5-18.3-2.8-27.7-2.8
				c-3.9,0-7.9-0.5-11.8-0.2c-4.3,0.3-8.3,1-12.7,1c-9.3,0-18.7,0-28,0c-5.3,0-10.5-0.5-15.7-0.8c-4.3-0.3-9-0.5-13.3-1.2
				c-4.4-0.7-8.9-1.1-13.4-1.9c-4.6-0.8-8.4-1.9-13.1-1.9C532.3,475.4,532.3,487.4,540,487.3L540,487.3z"/>
		</g>
	</g>
	<g>
		<g>
			<path class="st6" d="M443.4,412.5c0.5,8.5,5.2,15.9,7,24.1c0.7,3.2,1,6.6,1.5,9.9c0.6,4.1,1.9,7.9,2.7,12c1.5,8,0.4,16.9,0.3,25
				c-0.1,4.5-0.6,8.8-1.5,13.3c-0.5,2.7-0.1,6.3-1.2,8.8c2.7-0.7,5.5-1.4,8.2-2.2c-0.2-0.1-0.3-0.2-0.5-0.3
				c-6.8-3.6-12.9,6.7-6.1,10.4c0.2,0.1,0.3,0.2,0.5,0.3c2.6,1.4,6.9,0.9,8.2-2.2c1.4-3.3,1.7-6.4,2.2-10c0.6-4.1,1.5-8.2,1.9-12.4
				c0.9-8.8,0.8-18.1,0.3-26.9c-0.2-4.3-1.2-8-2.2-12.2c-1-3.9-1.4-8-1.9-12c-0.6-4.1-1.8-7.7-3.1-11.6c-1.5-4.4-4-9.3-4.3-14
				C454.9,404.8,442.9,404.8,443.4,412.5L443.4,412.5z"/>
		</g>
	</g>
	<g>
		<g>
			<path class="st6" d="M459.2,524.6c4.8,4.9,11.6,6.9,18.3,7.5c3.4,0.3,6.9,0.1,10.2-0.7c1.5-0.4,3-1,4.5-1.4
				c1.1-0.3,3.3-0.1,1-0.7c-0.9-3.3-1.8-6.7-2.6-10c-2.5,2.5-6.2,5.5-9.3,7.2c-3.4,1.9-7.6,1.5-11.1,3.8c-3.8,2.4-7.3,5-11.1,7.4
				c-2.3,1.4-5.7,5.7-8.3,6.1c-7.6,1.1-4.4,12.7,3.2,11.6c3.4-0.5,6.8-3.6,9.3-5.8c3.8-3.2,8.7-6.2,13-8.9c3.7-2.3,8.1-1.7,11.8-4.3
				s7.8-5.5,11-8.6c3.1-3.1,1.8-9-2.6-10c-4.7-1.1-8.8,1.8-13.3,2.4c-5,0.7-11.7-0.2-15.4-3.9C462.3,510.6,453.8,519.1,459.2,524.6
				L459.2,524.6z"/>
		</g>
	</g>
	<g>
		<g>
			<path class="st6" d="M469.6,577.6c2.8,0.9,5.4,2.2,8.2,2.9c3.4,0.9,6.7,1,10.1,1.4c3.3,0.4,6.8,0.4,10.1,0.2
				c1.3-0.1,2.6-0.3,3.9-0.6c0.6-0.1,4.9-0.9,2.4-0.8c-1.9-2.5-3.9-5.1-5.8-7.6c0.6-1.7-0.4-0.4-1.4,0.4c-0.9,0.6-1.7,1.3-2.6,1.9
				c-2.1,1.4-4.6,2.8-7,3.5c-5.6,1.7-10.9,2.9-16.1,5.8c-5.3,3-9.2,5.5-15.3,6.7c-3.1,0.6-5.9,1.8-8.9,2.8c-1.1,0.4-2.2,0.7-3.4,1
				c-0.4,0.1-0.9,0.3-1.3,0.4c-1.7,0.5-1.4,0.5,0.9,0.2c-6.2-4.6-12.2,5.8-6.1,10.4c5.5,4,12.9-0.7,18.5-2.3
				c3.1-0.9,6.3-1.2,9.4-2.3c3.9-1.4,7.1-3.4,10.6-5.5c6-3.7,12.7-4.5,19-7.3c5.6-2.5,12.8-6.2,15.1-12.3c1.4-3.6-2.1-7.7-5.8-7.6
				c-2.3,0.1-4.1,1.1-6.3,1.4c-2.9,0.4-6.1,0.1-8.9-0.1c-6-0.5-10.7-2.2-16.4-4C465.4,563.7,462.3,575.3,469.6,577.6L469.6,577.6z"
				/>
		</g>
	</g>
	<g>
		<g>
			<path class="st6" d="M446.5,620.1c-4.1,0.1-8.3-1.4-12.2-2.7c-3.6-1.2-7.3-1.6-10.9-2.7c-4-1.1-8.1-1.9-12-3.2
				c-2.1-0.7-4.1-1.4-6.2-2.2c-1-0.4-3.6-0.8-4.4-1.5c-5.7-5.2-14.2,3.2-8.5,8.5c3.1,2.9,7.4,3.8,11.2,5.3c4.8,1.9,9.9,3.1,14.9,4.3
				c4.6,1.1,9.2,1.9,13.6,3.4c4.6,1.5,9.6,3,14.5,2.8C454.2,631.9,454.2,619.9,446.5,620.1L446.5,620.1z"/>
		</g>
	</g>
	<g>
		<g>
			<path class="st6" d="M312.8,446.3c2.6,4.4,8.3,7.5,12.4,10.3c5,3.4,10.2,7.7,13.5,12.8c1.4,2.2,3.3,3.9,4.8,6
				c-1.2-1.6,0.8,1.9,1.1,2.5c1,1.8,1.5,3.3,2.1,5.3c0.9,3,2.2,5.8,3.3,8.7c0.8,2.4,0.6,4.8,2,7c3.4,5.6,13.2,2,11-4.6
				c-0.1-0.4-0.3-0.8-0.4-1.2c-2.5-7.3-14.1-4.2-11.6,3.2c0.1,0.4,0.3,0.8,0.4,1.2c3.7-1.5,7.3-3.1,11-4.6c-0.6-1-0.9-4.6-1.6-6.3
				c-1.5-3.3-2.1-6.7-3.4-10.1c-1.9-5.2-5.3-9.2-8.5-13.6c-3.5-4.9-7.9-9.3-12.5-13.2c-2.1-1.8-4.5-3.3-6.8-4.8
				c-1.8-1.1-5.4-2.8-6.5-4.6C319.3,433.6,308.9,439.6,312.8,446.3L312.8,446.3z"/>
		</g>
	</g>
	<g>
		<g>
			<path class="st6" d="M355.5,638.3c1.3-1.9,1.7-0.9-0.3-0.5c-1.2,0.3-2.4,0.7-3.6,1.2c-2.5,1.1-4.8,2.5-7.2,3.6
				c-4.6,2.1-7,4.5-9.6,8.8c-5.3,8.9-5.5,21.6-3.9,31.5c3.7-1.5,7.3-3.1,11-4.6c-0.3-0.4-0.6-0.9-0.9-1.3
				c-4.2-6.4-14.6-0.4-10.4,6.1c0.3,0.4,0.6,0.9,0.9,1.3c3.9,6,12,2,11-4.6c-1.2-7.8-0.7-19.6,5.1-25.6c-0.6,0.7-1.1,0.9,0,0.3
				c0.9-0.5,1.9-0.9,2.9-1.4c2-0.9,3.8-2.1,5.8-3c4-1.8,7-1.9,9.6-5.7C370.3,638,359.9,632,355.5,638.3L355.5,638.3z"/>
		</g>
	</g>
	<g>
		<g>
			<path class="st7" d="M112.5,516.9c0.4,4.2,3.8,7.4,7.5,9.1c0.2,0.1,0.3,0.2,0.5,0.3c1.2,1.1,1.4,1,0.4-0.2
				c-0.7-1.5-0.9-1.3-0.6,0.6c0,0.5,0,1,0,1.6c0,2.8,0.2,5.6,0.4,8.4c0.1,2.4-0.4,5,0,7.4c0.4,2.3,2,4.4,3.1,6.4
				c2,3.4,5.6,7,9.4,8.1c3.1,0.9,5.4-1.5,5.7-4.3c0.1-0.4,0.1-0.8,0.2-1.2c1.1-5.7-7.6-8.1-8.7-2.4c-0.2,1.2-0.4,2.4-0.5,3.6
				c1.9-1.4,3.8-2.9,5.7-4.3c-2.4-0.7-5.5-5.6-6.1-7.7c-0.4-1.6,0.2-3.9,0.1-5.6c-0.1-2.3-0.4-4.5-0.4-6.8c0-3.1,0.6-6.8-1.6-9.3
				c-1-1.2-2.7-1.7-3.9-2.5c-0.4-0.3-2.4-2.7-2.2-1C120.9,511.2,111.8,511.2,112.5,516.9L112.5,516.9z"/>
		</g>
	</g>
	<g>
		<g>
			<path class="st8" d="M372.3,344.7c0.7,5.6,3.5,9.7,5.9,14.8c2.3,4.8,3.4,10,4.9,15.1c2.7,9.1,3.3,18.6,4.4,27.9
				c1.1,9.1,0.9,18.7,0.9,27.9s0,19-2.1,28c-2.2,9.4,12.2,13.4,14.5,4c2.2-9,2.7-19.2,2.6-28.4c0-5.6-0.2-11.1-0.5-16.6
				c-0.3-5.2,0.2-10.1-0.5-15.3c-1.2-8.9-2-17.7-3.6-26.6c-1-5.1-2.5-10.7-4.2-15.6c-0.9-2.7-2.2-5.4-3.4-7.9
				c-1-2.1-3.5-4.9-3.8-7.2c-0.5-4-3.1-7.5-7.5-7.5C376.2,337.2,371.8,340.6,372.3,344.7L372.3,344.7z"/>
		</g>
	</g>
	<g>
		<g>
			<path class="st8" d="M203,388.7c0,4.6,0,9.3,0,13.9c0,3.7,0.6,7.9-0.3,11.5c-2.3,9.4,12.2,13.4,14.5,4c2.2-9.2,0.8-19.9,0.8-29.4
				C218,379.1,203,379,203,388.7L203,388.7z"/>
		</g>
	</g>
	<g>
		<g>
			<path class="st9" d="M196.2,684.7c0,8.2,0.4,16.5,0.8,24.7c0.2,4.1,1.2,7.9,1.9,11.9c0.5,2.9,1.3,6.3,3.5,8.3
				c4.8,4.4,10.9,3.5,16.8,4.4c3.8,0.6,7.3,1.5,10.8,3.1c1.7,0.8,0.8-0.4-0.5,0.5c-0.4,0.3-1.1,1.6-1.4,2c-0.8,1.2-1.2,3.8-2.2,4.7
				c1.1-0.4,2.1-0.9,3.2-1.3c-0.3,0-0.7,0.1-1,0.1c-5.7,0.7-5.8,9.7,0,9c5.1-0.6,5.3-3.6,7.5-7.5c2-3.6,4.1-6.2,2.9-10.6
				c-0.4-1.5-1.2-2.9-2.5-3.9c-0.9-0.7-1.7-1.1-2.7-1.5c-0.2-0.1-1.8-0.5-0.7-0.1c-4.4-1.7-8.7-2.8-13.4-3.4
				c-3.5-0.5-7.2,0.3-10.2-1.8c-1.1-0.8-0.6-0.8-0.3-0.2c-0.4-0.8-0.6-1.7-0.8-2.5c-0.5-2-0.8-4.1-1.3-6.1c-1-5.1-0.4-10.3-0.6-15.5
				c-0.2-4.7-0.8-9.4-0.8-14.1C205.2,678.9,196.2,678.9,196.2,684.7L196.2,684.7z"/>
		</g>
	</g>
	<g>
		<g>
			<path class="st9" d="M325.5,694c0,4.1,0,8.1,0.6,12.1c0.4,3.1,1.3,6.8,1.7,10c1.2,8.9,2.1,14.7,3.4,23.2
				c1.2,7.8,3.8,16.6,9.4,22.4c4.9,5.1,12.3,10.3,18.6,13.3c8.7,4.2,16.3-8.7,7.6-13c1.6,0.8-2.5-1.8-3-2.1
				c-1.2-0.7-2.5-1.4-3.7-2.2c-2.8-1.7-6-3.7-8.3-6.2c-4.5-4.8-5.6-12.4-6.2-18.6c-0.3-3.1-1-6.1-1.7-9.1c-0.8-3.5-0.8-6.9-1.3-10.4
				c-1.1-7.2-1.9-12.4-1.9-19.6C340.5,684.4,325.5,684.4,325.5,694L325.5,694z"/>
		</g>
	</g>
	<g>
		<g>
			<path class="st9" d="M343,737.9c0,0.9,0,1.8,0,2.6c0,1.9,0.8,3.9,2.2,5.3c0.7,0.7,1.5,1.2,2.4,1.6c0.9,0.5,1.9,0.7,2.9,0.6
				c1.9-0.1,4-0.7,5.3-2.2s2.2-3.3,2.2-5.3c0-0.9,0-1.8,0-2.6c0-1.9-0.8-3.9-2.2-5.3c-0.7-0.7-1.5-1.2-2.4-1.6
				c-0.9-0.5-1.9-0.7-2.9-0.6c-1.9,0.1-4,0.7-5.3,2.2C343.9,734.1,343,735.9,343,737.9L343,737.9z"/>
		</g>
	</g>
	<g>
		<g>
			<path class="st9" d="M304.1,744.1c-2.5,0-4.9,0.7-7.5,0.9c-3.3,0.3-6.6,0.3-9.8,0.7c-3.3,0.4-7,0.6-10.1,1.6
				c-2.9,0.9-4.2,2.5-6.1,4.5c-3.9,4.2,2.4,10.6,6.4,6.4c1.9-2,2.6-2.3,5.5-2.8c2.7-0.4,5.3-0.7,8-1c4.4-0.4,9.3-1.4,13.7-1.4
				C309.8,753.1,309.9,744.1,304.1,744.1L304.1,744.1z"/>
		</g>
	</g>
	<g>
		<g>
			<path class="st9" d="M308.8,757.9c-2.6,0.1-4.3,1.5-6.6,2.5c-2.2,1-3.9,2-5.7,3.6c-3.4,3-6.3,6.4-8.7,10.3
				c0.9-0.7,1.8-1.4,2.7-2.1c-0.2,0-0.4,0.1-0.6,0.1c-5.7,1.3-3.3,9.9,2.4,8.7c2.1-0.5,3.2-2,4.3-3.7c1.2-1.8,2.5-3.3,4-4.8
				c1.2-1.1,2.8-2.8,3.9-3.5c0.6-0.3,2.1-0.8,3-1.3c0.5-0.3,1-0.6,1.5-0.9c0.9-0.5,0.8-0.5-0.4,0
				C314.5,766.8,314.6,757.8,308.8,757.9L308.8,757.9z"/>
		</g>
	</g>
	<g>
		<g>
			<path class="st9" d="M158.2,744c-6.5,0-13.1,1-19.5,2.1c-3.1,0.6-6.3,1.2-9.3,2.2c-1.5,0.5-2.8,1.4-4.2,2c1.5-0.9,1.5-1,0-0.3
				c-0.9,0.4-0.7,0.4,0.6-0.1c-5.7-0.6-5.7,8.4,0,9c1.3,0.1,2.3-0.4,3.4-0.9c-0.2,0.1,3.7-1.6,1.3-0.5c2.6-1.1,5.6-1.7,8.3-2.3
				c6.2-1.3,13.1-2.2,19.4-2.2C164,752.9,164,743.9,158.2,744L158.2,744z"/>
		</g>
	</g>
	<g>
		<g>
			<path class="st9" d="M155.1,732.1c-8.5,0-17-0.9-25.6-0.9c-4.5,0-8.2,0.3-12.4,1.7c-3.8,1.3-7.5,1.4-11,3.5
				c-5,3-0.4,10.8,4.5,7.8c3-1.8,6.7-1.9,10-3.1c3.9-1.3,8.3-1.1,12.4-1c7.3,0.2,14.6,0.9,22,0.9
				C160.9,741.1,160.9,732.1,155.1,732.1L155.1,732.1z"/>
		</g>
	</g>
	<g>
		<g>
			<path class="st9" d="M108.2,730.7c1.8,0,3.6,0,5.4,0c0.9,0,1.7,0,2.6,0.1c0.3,0,1.7,0.4,1-0.1c5,3,9.5-4.8,4.5-7.8
				c-1.8-1.1-4.3-1.1-6.4-1.2c-2.4-0.1-4.8,0-7.1,0C102.4,721.7,102.4,730.7,108.2,730.7L108.2,730.7z"/>
		</g>
	</g>
	<g id="kontur">
		<path d="M95.1,471.9c-0.3,0-0.7,0-1-0.1c-1.8-0.5-2.9-2.4-2.4-4.2c0.2-0.9,5.1-22.9-12.6-35.3c-1-0.7-1.6-1.9-1.5-3.1
			c0.9-15.6-1.4-33.6-6.7-35.5c-1.3-0.5-2.2-1.7-2.3-3c-0.1-1.1-1.5-28.1,49.8-87.5c0.4-0.6,6-9.1,4.3-27.5
			c-1.9-19.6-12.3-29.9-27.4-39.4c-16.4-10.2-18.1-13.8-20.5-20.9c-0.5-1.6-0.7-1.7-4.2-3.1c-3.1-1.2-7.7-3.1-14.6-7.6
			c-2.1-0.1-7.3-0.5-18.3-2c-13.2-1.8-17.2,2.2-26.8,13.8c-0.8,1-2,1.4-3.3,1.2c-1.2-0.2-2.2-1-2.7-2.2c-0.2-0.6-5.8-15.3-3.3-33.5
			c4-29.3,25.5-44.9,43.8-53c-3.3-5.3-9.2-22.7-2.7-78.2c0-0.1,0-0.1,0-0.2c0.9-5.2,5.9-31.5,18.4-34c6.1-1.2,12,3,18,12.7
			c1,1.6,0.5,3.8-1.1,4.8s-3.8,0.5-4.8-1.1c-4.1-6.6-8-10.1-10.7-9.5c-5.8,1.1-11.1,17.4-12.9,28.2c-4.5,38.2-2.9,59-0.5,68.3
			c3.6-5.5,8-7.3,11.5-7.7c7.7-1,15.4,4,17.4,7c1.4,2.1,4.8,9.3,2.4,15.3c-0.9,2.2-2.9,5-7.6,6.1c-10.9,2.4-15.1-1.8-19.2-5.9
			c-0.7-0.7-1.4-1.1-1.8-1h-0.2c-0.3,0.3-0.7,0.6-1.1,0.8c-24.8,10.2-38.9,26.5-42,48.2c-1.4,9.9-0.1,18.8,1.2,24.3
			c7.9-8.9,14.5-13.2,28.9-11.3c14.4,1.9,18.5,2,18.6,2c0.7,0,1.4,0.2,1.9,0.6c6.7,4.5,11,6.2,14.1,7.4c3.7,1.5,6.7,2.7,8.3,7.4
			c1.8,5.4,2.6,7.8,17.5,17.1c14.6,9.1,28.4,20.8,30.6,44.6c2.1,22.1-5.4,32.1-5.7,32.5l-0.1,0.1c-42.2,48.8-47.5,74.1-48.1,80.7
			c9.4,6.8,9.4,30.8,9,39.3c9.6,7.4,13.2,17.1,14.3,25.3c3-3.9,6.4-6.7,10.2-8.4c3.7-1.6,7.1-1.9,9.8-1.6
			c-1.9-18.9,1.2-33.3,9.3-42.7c4.4-5.1,9.3-7.5,12.3-8.5c0.3-33.2,5.4-69,11-105.9c5.8-38,24.7-49,27.7-50.5
			c3.4-2.5,46.3-34.5,46.3-69c0-35.4-27.8-49.7-28.1-49.9c-1.7-0.9-2.4-3-1.6-4.7c0.9-1.7,3-2.4,4.7-1.6
			c1.3,0.7,31.9,16.4,31.9,56.1c0,39.4-47.5,73.4-49.5,74.9c-0.2,0.1-0.4,0.2-0.6,0.3c-0.2,0.1-18.4,9-24,45.3
			c-5.8,37.5-11,74-11,107.5c0,1.7-1.3,3.2-3,3.5c-1,0.2-24.4,4.4-18,49c0.2,1.3-0.3,2.5-1.4,3.3c-1,0.8-2.4,0.9-3.5,0.4
			c-0.2-0.1-4.5-1.9-9.8,0.5c-5.5,2.5-10.2,8.9-13.5,18.5C97.9,471,96.6,471.9,95.1,471.9z M181.1,238.4L181.1,238.4L181.1,238.4z
			 M53.4,127c1.7,0.3,3.4,1.2,5.2,3c3.8,3.8,5.6,5.6,12.8,4.1c1.8-0.4,2.3-1.2,2.6-1.8c1-2.5-0.6-7.1-1.7-8.8
			c-0.8-1-6.1-4.7-10.9-3.9C58,120,55.3,122.5,53.4,127z"/>
		<path d="M93.1,52.9c-0.4,0-0.9-0.1-1.3-0.3c-1.3-0.5-12.8-5.4-17.1-9.8c-0.8-0.8-2.9-2.9-1.7-5.4c1.2-2.5,3.9-2.3,5.8-2.1
			c1.8,0.2,4.4,0.4,6.8-0.3c-0.2-1.5-1-3.8-3.2-6.5c-3.5-4.2-1.2-6.8-0.5-7.5c2.2-2,6.7-1.5,10.5-0.3c-0.2-4.1-0.7-7.6-1.3-8.5
			c-1.5-2.3-0.4-4.2,0.5-5C94,5.1,96.4,7,98.5,8.6c1.2,1,2.9,2.3,4.9,4c3.5,2.9,6.9,5.9,6.9,5.9c1.5,1.3,1.6,3.5,0.3,4.9
			c-1.3,1.5-3.5,1.6-4.9,0.3c-2.1-1.8-4.4-3.8-6.5-5.6c0.3,3.1,0.3,6.1,0.3,7.9v8.4l-5.9-5.9c-0.6-0.4-2-1-3.6-1.4
			c3.2,5.6,2.5,10,2.4,10.6l-0.3,1.6l-1.4,0.8c-1.6,0.9-3.2,1.4-4.8,1.7c2.9,1.6,6.1,3,8.4,4c1.8,0.7,2.6,2.8,1.9,4.6
			C95.8,52.1,94.5,52.9,93.1,52.9z M93.6,28.9L93.6,28.9L93.6,28.9z"/>
		<path d="M160.1,66.9c-1.3,0-2.5-0.7-3.1-1.9c-2.2-4.3-4.3-8.5-6.3-12.5c-9.4-19.2-16.8-34.3-29.4-33.6
			c-14.5,0.8-14.7,18.7-14.7,19.5c0,1.9-1.6,3.5-3.5,3.5s-3.5-1.6-3.5-3.5c0-8.8,4.5-25.6,21.3-26.5c17.3-1,26,16.9,36.1,37.5
			c2,4,4,8.2,6.2,12.4c0.9,1.7,0.2,3.8-1.5,4.7C161.2,66.8,160.6,66.9,160.1,66.9z"/>
		<path d="M201.1,53.9c-1.2,0-2.3-0.6-3-1.7c-11.4-18.5-27.2-18.2-36.6-18c-3.3,0.1-5.6,0.1-7.5-0.5c-4-1.3-6.1-6.1-7.5-10.7
			c-3.2,2.9-7,4.1-7.2,4.2l-2,0.6l-1.5-1.4c-4.2-4-8.2-8.4-10.8-11.4c-0.2,0.8-0.4,1.3-0.6,1.7c-0.7,1.8-2.7,2.7-4.5,2
			s-2.7-2.7-2.1-4.5c0.9-2.4,1.2-5,1.1-6.4c-2.2-2.9-2-3.4-1.7-4.7l0.5-2l2-0.6c2-0.6,3.4,0.8,3.9,1.3c0.7,0.7,1.2,1.6,1.6,2.5
			c2.6,3.3,8.1,9.7,13.8,15.3c1.8-0.9,4.3-2.6,4.7-4.9c0.5-3.3,2.3-4,3.7-4.1c3.2-0.1,3.8,2.6,4.6,6c2,8,3.4,10,4.2,10.4
			c0.8,0.2,3.1,0.2,5.2,0.2c10.2-0.2,29.2-0.6,42.7,21.3c1,1.6,0.5,3.8-1.1,4.8C202.4,53.7,201.7,53.9,201.1,53.9z"/>
		<path d="M218.1,78.9c-1.2,0-2.4-0.6-3-1.8c-1-1.7-0.4-3.8,1.3-4.8c1.9-1.1,3.9-1.8,5.8-2.3c-0.5-0.1-1.1-0.3-1.6-0.6
			c-0.8-0.4-2.6-1.3-3.1-5.9c-1.8,0.9-2.8,0.7-3.4,0.6c-1.4-0.2-2.5-1.1-3.1-2.3c-0.5-1.1-0.9-3.1-1.7-8.3c0,0,0,0-0.1,0
			c-1.8,0.6-3.8-0.4-4.4-2.2c-0.6-1.8,0.3-3.7,2-4.3c0.1-0.1,0.8-0.7,0.8-2.8c0-3.7,2.3-4.3,3.3-4.3c3.3-0.2,3.8,3,4.1,4.8
			c0.2,1.1,0.4,2.7,0.7,4.4c0.2,1.7,0.6,4.3,1,6.4c0.7-0.6,1.4-1.2,2-1.8l7-7l-1.1,9.9c-0.3,2.4-0.3,5.2-0.1,6.7c0.1,0,0.1,0,0.2,0
			c2.7,0.5,7.6,1.5,11.5,8.2l4.1,7.1l-8-2c-0.1,0-6.8-1.6-12.4,1.6C219.3,78.8,218.7,78.9,218.1,78.9z M207,47.1L207,47.1L207,47.1z
			 M207,47.1L207,47.1L207,47.1z M207,47.1L207,47.1L207,47.1z"/>
		<path d="M218.1,134.1c-1,0-2-0.4-2.7-1.3c-1.2-1.5-1-3.7,0.5-4.9c3.5-2.8,5.4-11.6,5.3-24.1c-0.1-10.3-1.5-19.7-1.5-19.8
			c-0.3-1.9,1-3.7,2.9-4s3.7,1,4,2.9c0.6,4.1,5.9,40.8-6.3,50.5C219.6,133.9,218.8,134.1,218.1,134.1z"/>
		<path d="M73.7,123.2c-0.3,0-0.5,0-0.7,0c-1.9-0.2-3.3-1.9-3.1-3.8s1.9-3.3,3.8-3.1c2.6-0.7,7.1-20.4,2.2-38.6
			c-1.2-4.5-3.5-9.4-5.9-8.8c-4.4,1.2-7.7,10-8.8,24.2c-1,12-0.2,23.7-0.2,23.8c0.1,1.9-1.3,3.6-3.2,3.7c-1.9,0.1-3.6-1.3-3.7-3.2
			c0-0.5-0.9-12.3,0.2-24.8c1.5-18.3,6.1-28.3,14-30.4c2.1-0.6,6.3-0.8,10,3.8c8.2,10.5,8.9,41.5,2.9,52.3
			C78.7,122.4,75.6,123.2,73.7,123.2z"/>
		<path d="M71.3,111.4c-9.8,0-14.7-2.9-15-3c-1.7-1-2.2-3.1-1.2-4.8c1-1.6,3.1-2.2,4.8-1.2c0.2,0.1,6.8,3.6,20.3,1.3
			c1.9-0.3,3.7,0.9,4,2.8s-0.9,3.7-2.8,4C77.6,111.2,74.2,111.4,71.3,111.4z"/>
		<ellipse cx="68.1" cy="111.7" rx="3.5" ry="5.2"/>
		<ellipse cx="114.1" cy="122.1" rx="4.5" ry="10.8"/>
		<path d="M126,138.9c-0.3,0-0.7,0-1,0c-15.9-0.8-25.7-13.8-26.8-35.8c-0.1-1.5-1.6-23.7,8.4-35.1c3.7-4.2,8.4-6.4,14-6.6
			c5.5-0.2,10.3,1.5,14.2,5.3c10.8,10.5,11,33.1,11,35.5c0.2,2.2,1.5,22.2-7.6,31.6C134.8,137.2,130.7,138.9,126,138.9z M121.4,68.4
			c-0.2,0-0.4,0-0.7,0c-3.7,0.2-6.6,1.6-9,4.3c-8.2,9.3-6.7,29.7-6.6,29.9v0.1c1.2,23.4,11.7,28.8,20.2,29.2
			c3.2,0.2,5.7-0.8,7.7-2.8c6-6.2,6.1-21.1,5.7-26.4v-0.2v-0.2c0-0.2,0.2-21.9-8.8-30.6C127.4,69.5,124.7,68.4,121.4,68.4z"/>
		<path d="M117.3,115c-12.7,0-18.3-8.1-19.5-12.6l6.7-1.9c0,0,0.7,2.1,2.7,4.1c2.7,2.6,6.7,3.7,11.7,3.4c3.6-0.2,6.8-0.3,9.5-0.4
			c9.7-0.2,10.2-0.7,10.4-2.6l6.9,0.9c-1,8.4-8.2,8.5-17.2,8.7c-2.7,0.1-5.7,0.1-9.2,0.4C118.6,114.9,117.9,115,117.3,115z"/>
		<path d="M57.8,204.8l-1.3-6.9c25.7-4.9,35.1-13,42-18.9c2.8-2.4,5.3-4.6,8.3-5.9c8.9-4,14.8-2,16.6-1.1c20.7,5,27,4.1,28.6,3.6
			c0.5-2.3,1.6-10-5.9-15.4c-3.4-2.5-6.2-2.5-10.1-2.6c-7-0.2-15.7-0.5-30.2-13.6c-7.3-6.6-15.9-17.5-18.9-33.4
			c-2.3,2.9-4.6,5.6-5.7,6.9l-5.2-4.6c4.3-4.9,9.3-11.4,9.7-13.3c0.8-3.2,3.4-3.1,3.9-3.1c3.1,0.3,3.2,3.4,3.2,4.4
			c0.7,18.8,10,31,17.6,37.9c12.5,11.4,19.5,11.6,25.7,11.8c4.4,0.1,8.9,0.3,14,4c10.2,7.4,9.9,18.6,8.3,23.7
			c-0.2,0.8-0.6,1.8-1.8,2.8c-2.7,2.1-9.2,4.1-35.4-2.2l-0.6-0.1l-0.4-0.3c-0.1,0-3.8-1.9-10.8,1.2c-2,0.9-4,2.6-6.5,4.8
			C95.9,190.5,85.3,199.6,57.8,204.8z"/>
		<path d="M101.1,217.9c-17.2,0-23.5-2-24.1-2.2l2.2-6.6c0.1,0,5.9,1.8,21.9,1.8c11.2,0,20.2-16.5,22.8-22.8l0.1-0.2
			c0.5-1,4.9-9.6,21.5-11.9l1,6.9c-12.2,1.7-15.7,7.2-16.1,7.9C129.2,193.4,118.7,217.9,101.1,217.9z"/>
		<path d="M71,294.1c-0.9,0-1.7-0.1-2.6-0.3c-11.6-2.5-13.7-7.2-15.5-14.1c-0.5-1.9-1-3.8-1.9-5.9c-4.2-9.4,0.7-28.3,1.7-32
			c0.9-28.5-2.2-39.3-2.3-39.4l6.7-2.1c0.1,0.5,3.6,11.9,2.6,42.2v0.4l-0.1,0.4c-1.6,5.5-5,21.2-2.2,27.6c1.1,2.6,1.8,4.9,2.3,6.9
			c1.4,5.2,2,7.3,10.2,9.1c1.5,0.3,3.4,0.3,5.4-2.8c4.5-7.2,4-23.5-0.8-29.6c-8.6-10.7-7.5-42.5-7.3-46.1l7,0.3
			c-0.4,9-0.1,34.1,5.8,41.4c6.6,8.3,7.3,27.9,1.3,37.6C78.6,291.9,75.1,294.1,71,294.1z"/>
		<path d="M46.6,427.4c-0.2,0-0.5,0-0.7-0.1c-1.9-0.4-3.1-2.2-2.7-4.1c6.2-30.1,27.4-43.3,28.3-43.8c1.7-1,3.8-0.5,4.8,1.2
			s0.5,3.8-1.2,4.8c-0.2,0.1-19.4,12.2-25,39.3C49.7,426.3,48.2,427.4,46.6,427.4z"/>
		<path d="M49.1,488.9c-1.4,0-2.8-0.9-3.3-2.3c-3.5-9.9-1.3-21.5,0.2-29.2c0.1-0.7,0.3-1.4,0.4-2.2c-0.6,0.5-1.3,1.1-1.9,1.7
			l-5.2,5.2l-0.8-7.3c-3.2-30.3,16.4-38.3,17.2-38.6c1.8-0.7,3.8,0.2,4.5,2s-0.2,3.8-2,4.5c-0.6,0.2-12.8,5.5-13.1,24.9
			c3.8-2,6.1-0.8,7.3,0.4c2,2,1.5,5,0.3,10.8c-1.4,6.9-3.4,17.4-0.5,25.5c0.7,1.8-0.3,3.8-2.1,4.5C49.9,488.8,49.5,488.9,49.1,488.9
			z"/>
		<path d="M57.7,514.4l-3.7-7.5c-6.7-13.4,1.6-30.4,2-31.1c0.9-1.7,3-2.4,4.7-1.6c1.7,0.9,2.4,3,1.6,4.7c-0.1,0.1-4.7,9.6-3.7,18.6
			c1.6-0.9,3.3-1,4.7-0.5c1.8,0.6,2.8,2.6,2.2,4.4c-0.5,1.6-2.1,2.5-3.6,2.4c-0.4,0.5-1.1,1.7-1.4,2.6L57.7,514.4z"/>
		<path d="M346.9,700.2l-5.4-2.7c-1.7-0.9-7.4-4-8.8-8c-0.6-1.8,0.4-3.8,2.2-4.4c1.8-0.6,3.7,0.3,4.3,2c-0.1-8.8,0.3-16.8,0.7-22
			c-12.8,4.9-28.2,4.9-57.4,4.8c-3.9,0-8.1,0-12.5,0c-41.9,0-67.6-4.9-68.7-5.1h-0.2c-68.4-16.3-101.7-55.4-117.5-85.4
			c-17-32.5-18-60.7-18-61.9v-0.8l0.3-0.7c3.4-7.8,0.8-18.6,0.8-18.7c-0.5-1.9,0.7-3.8,2.6-4.2c1.9-0.5,3.8,0.7,4.2,2.5
			c0.1,0.5,3.1,12.6-0.9,22.5c0.3,4.6,2.4,30.1,17.5,58.4c9.7,18.2,22.7,33.9,38.7,46.8c20.1,16.1,45,27.8,74,34.8
			c1.5,0.3,27.2,4.9,67.3,4.9c4.5,0,8.6,0,12.6,0c32.4,0.1,47.2,0.1,59.8-6.6l5.9-3.1l-0.8,6.6c0,0.2-2,16.9-1,34.4L346.9,700.2z"/>
		<path d="M77.5,522.2c-2.3,0-3.2-0.9-3.7-1.3c-1.2-1.2-1.6-2.9-1-4.6c0-0.5-1.1-2.3-2.2-3.4c-1.4-1.4-1.4-3.6,0-4.9
			c1.4-1.4,3.6-1.4,5,0c0.7,0.7,3.4,3.5,4,6.9c0.7-0.2,1.5-0.4,2.3-0.7c1.8-0.7,3.8,0.2,4.5,2.1c0.7,1.8-0.2,3.8-2,4.5
			C81.2,521.8,79,522.2,77.5,522.2z"/>
		<path d="M113.3,544.1c-1.2,0-2.8-0.5-4.5-2.1c-9.4-8.3-18.4-25.3-18.8-26c-0.9-1.7-0.3-3.8,1.5-4.7c1.7-0.9,3.8-0.3,4.7,1.5
			c0.1,0.2,7.6,14.2,15.3,22.2c-0.1-2.7-0.4-6.4-0.6-9.1c-1-11-1.4-18.5,1.4-22.5c1.1-1.6,3.3-1.9,4.9-0.8c1.6,1.1,1.9,3.3,0.8,4.9
			c-1.5,2.1-0.6,12.3-0.1,17.8c0.9,10.2,1.5,16.4-2.5,18.4C114.8,543.9,114.1,544.1,113.3,544.1z"/>
		<path d="M138,516.8c-1.7,0-3.3-0.8-4.3-1.2c-12.4-5.6-15.8-17.8-15.9-18.3c-0.5-1.9,0.6-3.8,2.5-4.3s3.8,0.6,4.3,2.4
			c0,0.2,2.3,7.6,9.3,12.2c-2.1-5.8-5-14.6-0.8-22.9l1.7-3.4l3.2,1.9c1.2,0.7,11.4,7,12.7,14.4c0.3,1.9-1,3.7-2.9,4s-3.7-1-4-2.9
			c-0.3-2.1-2.9-4.8-5.6-7c-0.7,5.1,1.3,10.6,2.8,14.4c1.5,3.9,2.6,6.9,0.2,9.2C140.1,516.5,139.1,516.8,138,516.8z"/>
		<path d="M154.5,490.3c-0.1,0-0.2,0-0.4,0c-2.9-0.3-3.3-3.2-3.5-4.4c-0.6-4.5-6.3-6.1-6.4-6.1c-1.9-0.5-3-2.4-2.5-4.2
			c0.5-1.9,2.4-3,4.2-2.5c0.2,0,2.2,0.6,4.6,2c-0.5-2.7-1.3-5-2.4-5.7c-3.6-2.4-3-5-2.6-6c1-2.5,4.1-3.4,8.6-2.5
			c0.8,0.2,1.5,0.3,2.2,0.6c-0.8-1.3-1.9-2.2-3.5-2.7c-2-0.7-5.5-2-5.4-5.1c0-1.3,0.7-2.9,2.7-3.7c2.9-1,12.4,0,18.3,3.5
			c0.1-2.1,0-5.1-0.4-8.7c-0.8-7.1-2.3-10.7-2.9-11.5c-1.5-1-2-3.1-1.1-4.7c1-1.7,3.1-2.2,4.8-1.2c1.1,0.6,3.9,2.3,5.7,13.3
			c0.9,5.6,1.2,11.8,0.7,15.6c-0.2,1.4-0.7,5.2-3.8,6.2c-0.8,0.2-3,0.5-5-1.9c-0.7-0.8-2.1-1.6-3.7-2.2c2.2,4,2.4,8.8,1.6,12
			c-0.9,3.9-3.6,3.9-4.4,3.8c-1-0.1-3.4-0.8-3.4-4.8c-0.1-0.2-0.3-0.4-0.7-0.6c2.8,6.8,2.7,17,2,19
			C157.4,489.3,156,490.3,154.5,490.3z M165.3,433.4L165.3,433.4L165.3,433.4z M165.1,433.3L165.1,433.3L165.1,433.3z"/>
		<path d="M178.1,421.1c-0.9,0-2.3-0.3-3.1-2c-1.1-0.4-3.3-0.9-5.3-1.2c-1.9-0.2-3.3-2-3-3.9c0.2-1.9,2-3.3,3.9-3
			c0.8,0.1,1.6,0.2,2.5,0.4c-1.5-4.7-3.4-7-4.9-8c-1.9-1.3-3.8-3.5-2.6-6.1c1.5-3.2,5.6-2.8,11.3-1.7c0.6,0.1,1.2,0.2,1.8,0.4
			c-0.5-1.5-1-2.7-1.5-3c-1.8-0.5-2.9-2.4-2.4-4.2c0.5-1.9,2.4-3,4.2-2.5c5.9,1.5,7.3,11.1,7.6,14l0.5,4.9l-4.8-1.2
			c-1.8-0.4-3.7-0.9-5.6-1.2c2.1,3.3,3.6,7.8,4.6,13.2c0.2,0.5,0.3,1,0.3,1.6c0,2.3-1.7,3.5-3.2,3.7
			C178.3,421.1,178.2,421.1,178.1,421.1z M175.4,419.3L175.4,419.3L175.4,419.3z M177.2,392.8C177.3,392.8,177.3,392.8,177.2,392.8
			C177.3,392.8,177.3,392.8,177.2,392.8z"/>
		<path d="M165.8,389.3c-0.1,0-0.3,0-0.4,0c-0.5-0.1-3-0.5-3.2-3.8c-0.2-2.3,0.5-7.7,3.4-11.5c-2.8-0.7-5-1.8-5-4.6
			c0-0.9-0.8-4.5-2.5-5.7c-0.3-0.2-1-0.7-2.7,0c-1.8,0.7-3.8-0.2-4.5-2s0.2-3.8,2-4.5c4.3-1.6,7.4-0.4,9.2,0.8
			c3.4,2.3,4.8,6.6,5.3,9.3c0.9,0.2,2.1,0.4,2.9,0.5c3.7,0.6,7,1.2,7.2,4.5c0.2,3.2-3.1,4.2-4.4,4.5c-1.4,0.4-2.3,1.8-3,3.4
			c1.8,0,4,0.2,6.8,0.8c1.9,0.4,3.1,2.3,2.7,4.2c-0.4,1.9-2.3,3.1-4.2,2.7l0,0c-2.3-0.5-5.1-0.7-6.3-0.5
			C168.3,388.8,166.9,389.3,165.8,389.3z"/>
		<path d="M110.7,558.6L87.4,540l2.2-22.9c0.2-1.9,1.9-3.3,3.8-3.2c1.9,0.2,3.3,1.9,3.2,3.8l-1.8,19.1l16.7,13.4l13.3-7l1.7-20.1
			l-13.4-9.8c-1.6-1.1-1.9-3.3-0.8-4.9s3.3-1.9,4.9-0.8l16.6,12.2l-2.3,27.9L110.7,558.6z"/>
		<path d="M115.1,575.9c-1.9,0-3.5-1.6-3.5-3.5v-20.1c0-1.9,1.6-3.5,3.5-3.5s3.5,1.6,3.5,3.5v20.1
			C118.6,574.3,117,575.9,115.1,575.9z"/>
		<path d="M136.1,555.9c-0.8,0-1.6-0.3-2.3-0.9l-8-7c-1.5-1.3-1.6-3.5-0.3-4.9s3.5-1.6,4.9-0.3l8,7c1.5,1.3,1.6,3.5,0.3,4.9
			C138,555.5,137.1,555.9,136.1,555.9z"/>
		<path d="M108.1,616.9c-0.9,0-1.8-0.3-2.4-1c-66.8-64.9-80.9-98-82.1-130.4c-1-29.4,8.8-55.3,9.2-56.4c0.7-1.8,2.7-2.7,4.5-2
			s2.7,2.7,2,4.5c-0.1,0.3-9.7,25.7-8.8,53.6c1.1,30.7,14.8,62.4,79.9,125.6c1.4,1.3,1.4,3.6,0.1,4.9
			C109.9,616.5,109,616.9,108.1,616.9z"/>
		<path d="M326.2,698.5c-1.7,0-2.8-0.9-3.4-2.8l0,0v-0.1c0-0.1-0.1-0.3-0.1-0.4c0-0.1-0.1-0.3-0.1-0.4c-0.8-3.2-2.8-10-3.8-11.7
			c-1.2-1-1.6-2.8-0.9-4.2c0.9-1.7,3-2.4,4.7-1.6c1.2,0.6,2.2,1.7,3.6,5.3c1.1-2,2.2-3.8,2.9-5c1-1.6,3.2-2.1,4.8-1.1
			s2.1,3.2,1.1,4.8c-3,4.7-5.6,10.4-5.6,12.2c0.4,1.6,0.3,1.9,0.2,2.4C329.3,697.4,327.9,698.5,326.2,698.5
			C326.3,698.5,326.3,698.5,326.2,698.5z M319.5,683.5L319.5,683.5L319.5,683.5z"/>
		<path d="M314.1,698.9c-0.1,0-0.1,0-0.2,0c-1.9-0.1-3.4-1.8-3.3-3.7c0.9-14.1-12-26.1-12.1-26.2c-1.4-1.3-1.5-3.5-0.2-4.9
			s3.5-1.5,4.9-0.2c0.6,0.6,15.5,14.3,14.4,31.8C317.5,697.5,315.9,698.9,314.1,698.9z"/>
		<path d="M179.9,694.3c-0.1,0-0.3,0-0.4,0c-1-0.1-3.3-0.7-3.9-4.4c-0.7-4.8-9.1-26.4-14.5-39.8c-0.7-1.8,0.1-3.8,1.9-4.6
			c1.8-0.7,3.8,0.1,4.6,1.9c1.1,2.8,9.3,22.9,13.1,34.6c1-2.7,2.1-5.8,3.1-8.7l1.6-5.1l4,3.6c3.2,2.9,5.7,5.4,7.4,7.6
			c0.4-0.8,0.7-1.7,0.9-2.2c-0.5-1.7,0.3-2.9,0.6-3.3c0.8-1.1,2.2-1.6,3.6-1.3c0.6,0.1,1.2,0.5,2,1c-1-9-0.1-12.1,1.7-13.8
			c1.4-1.3,3.6-1.3,4.9,0.1c1.2,1.3,1.3,3.3,0.2,4.6c-0.3,0.9-0.8,4.7,1.7,19.2c0.3,1.6,0.8,4.8-2.5,5.5c-0.3,0.1-3.3,0.6-4.2-3
			c-0.2-0.9-1.3-2.4-2.6-3.8c-1.4,2.9-3.3,5.3-3.3,5.3c-1.9,2.1-3.8,1.8-4.7,1.5c-0.5-0.2-2.3-1.1-2.4-3.5c-0.4-0.9-1.9-2.8-4-4.9
			c-0.4,1-0.8,2.1-1.2,3.2C184.8,691,183,694.3,179.9,694.3z M210.4,664.9L210.4,664.9L210.4,664.9z"/>
		<path d="M105.1,741.9c-1.4,0-2.7-0.8-3.2-2.2c-1-2.5-5.8-15,1.4-19.3c5.7-3.4,17.9,0.7,22.5,2.5c4.4,0,31-0.5,43.8-9.8
			c12.5-9.2,7.1-21.2,6.9-21.7c-0.8-1.8-0.1-3.8,1.7-4.7c1.8-0.8,3.8-0.1,4.7,1.7c2.8,6.1,4.6,20.3-9.1,30.3
			c-15.8,11.6-47.3,11.2-48.6,11.2c-0.4,0-0.8-0.1-1.2-0.2c-7.1-2.8-15-4.4-16.9-3.2c-1,0.6-0.5,5.9,1.4,10.7
			c0.7,1.8-0.1,3.8-1.9,4.6C106,741.8,105.5,741.9,105.1,741.9z"/>
		<path d="M108.1,757.9c-0.3,0-0.5,0-0.8-0.1c-1.9-0.4-3.1-2.3-2.7-4.2c1.3-5.9-5.6-8.9-5.9-9c-0.9-0.4-1.7-1.2-2-2.1
			s-0.2-2,0.3-2.9c2-3.4,7.7-8,33.6-8.9c13.5-0.5,26.1,0.2,26.6,0.3c1.9,0.1,3.4,1.8,3.3,3.7c-0.1,1.9-1.8,3.4-3.7,3.3
			c-19.8-1.2-42.2-0.1-50.6,3.2c3.5,2.9,6.7,7.7,5.3,14.1C111.2,756.8,109.7,757.9,108.1,757.9z"/>
		<path d="M132.1,773.9c-1,0-2-0.4-2.6-1.2c-0.8-0.9-1.1-2.1-0.7-3.3c0.7-2.4,0.1-3.6-0.5-4.2c-2.9-3.7-12.7-4.5-17-4.3
			c-1.5,0.1-2.9-0.9-3.4-2.3s0-3,1.2-4c17.8-13.6,50.9-11.8,52.3-11.7c1.9,0.1,3.4,1.8,3.3,3.7c-0.1,1.9-1.8,3.4-3.7,3.3
			c-0.3,0-21.7-1.2-38,5.1c4.2,1,8.4,2.7,10.9,5.9c0.9,1.2,1.9,2.9,2.2,5.1c5.8-1.5,17.1-5.2,33.1-13.5c1.8-1.7,9.2-7.6,20.7-8.6
			c12.6-1,19.8-0.9,39.9,4.7c1.7-1.2,5.6-4.7,6.9-13.7c0.2-1.7-0.2-2.4-0.6-2.9c-2.7-3-12.1-2.8-17.7-2.7c-5.1,0.1-7.5,0.1-9.1-1
			c-1.3-0.9-3.5-2.3-5.5-23.7c-0.2-2.1-1.8-20.2-0.4-24.5c0.6-1.8,2.6-2.9,4.4-2.3c1.8,0.6,2.9,2.5,2.3,4.4
			c-1,3.9,1.2,33.7,3.4,40.2c1.2,0.1,3.1,0,4.8,0c7.7-0.2,18.3-0.4,23.1,5c1.4,1.6,2.9,4.3,2.3,8.5c-2.3,15.9-11.8,19.6-12.2,19.8
			c-0.7,0.3-1.5,0.3-2.2,0.1c-21-6-27.4-5.8-38.7-4.9c-10.5,0.9-16.8,6.9-16.8,7c-0.2,0.2-0.5,0.5-0.8,0.6
			c-25.2,13.1-39.5,15.3-40.1,15.4C132.4,773.9,132.3,773.9,132.1,773.9z"/>
		<path d="M102.9,737.9c-0.5,0-1-0.1-1.5-0.4c-5.7-2.8-15.1-0.8-18.2,0.2c-1.2,0.4-2.4,0.1-3.4-0.7c-0.9-0.8-1.4-2-1.2-3.2
			c2.5-14.9,25.6-14,26.6-13.9c1.9,0.1,3.4,1.7,3.3,3.7s-1.7,3.4-3.7,3.3l0,0c-0.1,0-8.5-0.3-14.3,2.4c4.4-0.3,9.5-0.1,13.7,2
			c1.7,0.8,2.5,2.9,1.6,4.7C105.4,737.2,104.2,737.9,102.9,737.9z"/>
		<path d="M87.6,759.7c-0.8,0-1.5-0.2-2.3-0.6c-1.4-0.8-2.3-2.2-2.7-4.2c-1.3-8,11.9-14.8,16-16.7c1.8-0.8,3.8-0.1,4.6,1.7
			c0.8,1.8,0.1,3.8-1.7,4.7c-4.3,2-8.1,4.6-10.2,6.6c3.6-1.5,8.9-2.9,15.2,0c1.8,0.8,2.5,2.9,1.7,4.6c-0.8,1.8-2.9,2.5-4.6,1.7
			c-4.7-2.1-8.2-0.6-11.4,0.8C90.8,759.1,89.2,759.7,87.6,759.7z M89.6,754L89.6,754L89.6,754z"/>
		<path d="M112.1,777.4c-0.7,0-1.4-0.2-2.2-0.5c-2.8-1.4-3.1-4.9-3.3-6.2c-1-11.3,7.1-15.6,11.5-16.4c1.9-0.3,3.7,1,4,2.9
			s-1,3.7-2.9,4c-1.1,0.2-6.1,1.5-5.8,8.3c0.3-0.2,0.5-0.3,0.8-0.5c4-2.5,11.4-7.1,19.7-1.6c1.6,1.1,2,3.2,1,4.9
			c-1.1,1.6-3.2,2-4.9,1c-4.2-2.8-7.7-1.1-12.1,1.7C116.1,776.2,114.1,777.4,112.1,777.4z"/>
		<path d="M260.6,752.8c-1.2,0-2.6-0.4-4.2-1.3c-6.2-3.4-16.9-0.7-20.5,0.6c-1.8,0.7-3.8-0.2-4.5-2.1c-0.7-1.8,0.2-3.8,2-4.5
			c0.6-0.2,11.9-4.4,21.6-2c-3.1-3.3-8.3-7.1-15.4-8.4c-1.9-0.3-3.2-2.2-2.8-4.1c0.3-1.9,2.2-3.2,4.1-2.8
			c13.3,2.4,22.7,12.3,24.1,18.3c0.8,3.2-0.8,4.8-1.6,5.3C262.6,752.4,261.7,752.8,260.6,752.8z"/>
		<path d="M285.1,779.9c-1.2,0-2.3-0.6-3-1.7c-1-1.7-6-1.3-9-0.4c-1.3,0.4-2.7,0-3.6-1c-0.9-1-1.2-2.4-0.7-3.7
			c1.4-3.5,0.5-4.7-1-6.7c-1.6-2.1-4.1-5.3-1.9-10.4c0.3-0.7,0.6-1.4,0.8-2c2.9-7.6,5.9-8.3,23.3-9.2c14.4-0.7,20-2.5,21.6-3.1
			c6.2-11.8,3.6-36.9,2.1-45.8c-0.3-1.9,0.9-3.7,2.8-4.1c1.9-0.3,3.7,0.9,4.1,2.8c0.3,1.4,6.1,35.5-3.4,51.4c-0.2,0.4-0.5,0.7-0.9,1
			c-1.1,0.9-6.4,3.7-25.9,4.7c-7.6,0.4-12.7,0.8-15,1.6c-1,0.4-1.1,0.5-2.1,3.1c-0.3,0.7-0.5,1.4-0.9,2.2c-0.5,1.2-0.5,1.4,1,3.3
			c1.3,1.7,3.2,4.1,3.2,8c4-0.3,9,0.3,11.6,4.5c1,1.7,0.5,3.8-1.2,4.8C286.3,779.7,285.7,779.9,285.1,779.9z M314.1,744.4
			L314.1,744.4L314.1,744.4z"/>
		<path d="M298.1,805.9c-0.9,0-1.8-0.4-2.4-1c-0.8-0.7-1.1-1.8-1-2.8c0.6-6.4-0.4-11.1-3-14c-2.7-3.1-6.4-3.2-6.6-3.2
			c-1.5,0-2.9-1.1-3.3-2.6c-3.6-13.1,19.2-25.6,23.8-28c1.7-0.9,3.8-0.2,4.7,1.5s0.2,3.8-1.5,4.7c-8,4.2-18.9,12.2-20.2,17.9
			c2.4,0.6,5.6,1.9,8.2,4.9c3.2,3.5,4.9,8.3,5,14.4c5.7-2.3,16.5-8.5,27.4-25.2c0.7-1.1,2-1.7,3.4-1.6c0.6,0.1,13.9,1.9,30.1,12.6
			c0.4-4.9,1.7-11.1,5.5-14.5c0.4-0.3,0.8-0.7,1.4-1c-1.8-1.4-4.2-3-7.1-4.7l-0.6-0.3c-12.6-6.9-24.9-18.1-26-71
			c0-1.9,1.5-3.5,3.4-3.6c0,0,0,0,0.1,0c1.9,0,3.5,1.5,3.5,3.4c1.1,53.3,13.9,60.4,22.4,65.1l0.6,0.4c9.5,5.3,13.9,10.6,14,10.9
			c0.9,1.2,1,2.8,0.2,4c-0.8,1.3-2.3,1.9-3.8,1.5c-2-0.5-3,0.1-3.6,0.6c-3.2,2.7-3.5,11.8-3.1,15.7c0.1,1.4-0.6,2.7-1.8,3.4
			c-1.2,0.7-2.7,0.5-3.8-0.3c-13.4-10.4-25.5-13.9-30.2-14.9c-17.3,25.2-34.5,27.5-35.2,27.6C298.4,805.9,298.2,805.9,298.1,805.9z"
			/>
		<path d="M352.3,752.8c-1,0-1.7-0.1-1.9-0.1c-1.9-0.3-3.2-2.1-2.9-4s2.1-3.2,4-2.9c0.8,0.1,2.3,0,2.9-0.4c0.2-0.2,0.2-0.6,0.2-1
			c0-3.2-2-7.1-3.4-9.5h-5.1c-1.9,0-3.5-1.6-3.5-3.5s1.6-3.5,3.5-3.5h7c1.1,0,2.2,0.5,2.8,1.5c0.6,0.8,5.7,8.1,5.7,15
			c0,3.3-1.5,5.2-2.7,6.3C356.8,752.5,354.1,752.8,352.3,752.8z"/>
		<path d="M358.1,747.9c-1.6,0-3-1.1-3.4-2.7c-0.3-1.4-0.1-2.8,0.8-4.1c1.1-1.7,3.6-2.9,6.4-3.9c-1.7,0.1-2.8,0.4-2.9,0.4
			c-1.9,0.5-3.8-0.6-4.3-2.5s0.6-3.8,2.5-4.3c0.5-0.1,13.4-3.5,19.8,5.3c0.7,1,0.9,2.3,0.4,3.5c-0.5,1.1-1.6,1.9-2.8,2.1
			c-5.5,0.6-11.1,2-13,3.1c-0.2,1.3-1.2,2.5-2.6,2.8C358.7,747.9,358.4,747.9,358.1,747.9z M361.5,743.6L361.5,743.6L361.5,743.6z"
			/>
		<path d="M273.1,773.9c-0.3,0-0.5,0-0.8-0.1c-1.1-0.3-1.9-1-2.4-1.9c-2.6-0.6-10.2-0.7-17.5,0c-1.9,0.2-3.6-1.2-3.8-3.1
			c-1.1-9.8,11.5-14,19.1-14.9c1.9-0.2,3.7,1.1,3.9,3.1c0.2,1.9-1.1,3.7-3.1,3.9l0,0c-2.8,0.3-7.9,1.6-10.8,3.6
			c14.7-0.8,16.9,1.8,17.7,2.7c1,1.1,1.3,2.6,1,4C276.1,772.8,274.6,773.9,273.1,773.9z M269.6,769.6L269.6,769.6L269.6,769.6z"/>
		<path d="M277.1,810.9c-1.2,0-2.3-0.6-2.9-1.6c-4.9-7.3,4.8-24.6,7.9-29.7c1-1.7,3.1-2.2,4.8-1.2s2.2,3.1,1.2,4.8
			c-3.3,5.5-5.9,11.3-7.3,15.7c4.2-2.9,10.3-5.3,18.2-3.7c1.9,0.4,3.1,2.2,2.7,4.1c-0.4,1.9-2.2,3.1-4.1,2.7
			c-11.2-2.3-17.3,6.9-17.5,7.3C279.4,810.3,278.3,810.9,277.1,810.9L277.1,810.9z"/>
		<path d="M386.1,797.9c-0.7,0-1.4-0.2-2-0.7c-6.2-4.5-13-7.2-14.4-6.4c0,0,0,0.1-0.1,0.4c-0.4,1.9-2.3,3.1-4.2,2.7
			s-3.1-2.3-2.7-4.2c0.6-2.6,2.2-4.5,4.5-5.4c4.3-1.6,10.4,0.9,15.1,3.5c-2.1-6.1-8.6-12.4-11.4-14.7c-1.5-1.2-1.7-3.4-0.5-4.9
			s3.4-1.7,4.9-0.5c0.2,0.1,4.3,3.6,8.2,8.4c5.5,7.1,7.5,13.5,6,19.2c-0.3,1.1-1.1,2-2.2,2.4C386.9,797.8,386.5,797.9,386.1,797.9z"
			/>
		<path d="M134.1,580.9C134.1,580.9,134,580.9,134.1,580.9c-16.7-0.4-32.6-9.5-46-26.2c-9.9-12.4-15-24.5-15.3-25
			c-0.7-1.8,0.1-3.8,1.9-4.6c1.8-0.7,3.8,0.1,4.6,1.9c0.2,0.5,19.6,45.9,54.9,46.8c1.9,0.1,3.5,1.7,3.4,3.6
			C137.5,579.4,136,580.9,134.1,580.9z"/>
		<path d="M130.1,595.7c-23.1,0-35.5-9.1-36.1-9.5c-1.5-1.2-1.9-3.4-0.7-4.9c1.2-1.5,3.3-1.9,4.9-0.7c0.2,0.1,15.5,11.1,43.4,7.3
			c1.9-0.3,3.7,1.1,3.9,3s-1.1,3.7-3,3.9C138.1,595.5,133.9,595.7,130.1,595.7z"/>
		<path d="M242.5,650.8c-5.2,0-10.3-0.3-15.3-0.9c-18.7-2.3-35.9-8.9-51.2-19.6c-31.3-21.9-45.4-54.9-45.4-61.9
			c0-9.2,11.8-54.7,13.1-59.9c0.5-1.9,2.4-3,4.3-2.5s3,2.4,2.5,4.3c-3.6,13.8-12.9,51.1-12.9,58.1c0.2,4.2,12.9,36.3,44,57.3
			c31.8,21.4,70.9,23.9,116.3,7.4c1.8-0.7,3.8,0.3,4.5,2.1s-0.3,3.8-2.1,4.5C280,647.1,260.6,650.8,242.5,650.8z"/>
		<path d="M196.5,663.5c-1.7,0-3.2-1.3-3.5-3.1c-0.2-1.9,1.1-3.7,3-3.9l0,0c7.3-0.9,20-4.4,23-9.8c0.9-1.7,3.1-2.3,4.8-1.4
			c1.7,0.9,2.3,3.1,1.4,4.8c-5.7,10.3-25.9,13.1-28.2,13.4C196.8,663.5,196.7,663.5,196.5,663.5z"/>
		<path d="M149,598.9c-0.9,0-1.8-0.3-2.5-1c-1.4-1.4-1.4-3.6,0-5c0.1-0.1,8.8-8.8,17.8-19c15.4-17.5,18.8-24.6,19.4-27.3
			c0.4-1.9,2.3-3.1,4.2-2.6c1.9,0.4,3.1,2.3,2.6,4.2c-3.1,13.6-35.4,46-39.1,49.7C150.8,598.6,149.9,598.9,149,598.9z"/>
		<path d="M179.6,613.5c-3.7,0-8-2.1-11.4-5.8c-2.3-2.6-3.9-5.6-4.5-8.5c-0.7-3.5,0.2-6.7,2.4-8.6c2.2-2,5.4-2.5,8.8-1.5
			c2.9,0.9,5.7,2.8,8,5.3l0,0c5.3,5.9,6.3,13.4,2.1,17.2C183.5,612.8,181.6,613.5,179.6,613.5z M171.5,595.5c-0.4,0-0.7,0.1-0.8,0.2
			c-0.2,0.2-0.4,1-0.2,2.1c0.3,1.7,1.4,3.6,2.8,5.2c3.1,3.5,6.4,3.9,7,3.3c0.6-0.6,0.5-3.8-2.6-7.3l0,0c-1.5-1.6-3.2-2.8-4.9-3.3
			C172.3,595.5,171.9,595.5,171.5,595.5z"/>
		<path d="M211,634c-2.9,0-6.2-1.1-9.3-3.3c-2.6-1.8-4.6-4.2-5.8-6.6c-1.4-3-1.4-6.1,0.2-8.3c2.9-4.2,9.8-4.1,15.9,0.2l0,0
			c2.6,1.8,4.6,4.2,5.8,6.6c1.4,3,1.4,6.1-0.2,8.3C216.1,633,213.7,634,211,634z M201.8,619.9c0,0.7,1,3.1,3.9,5.1s5.4,2.2,6.1,1.9
			c0-0.7-1-3.1-3.9-5.1l0,0C205.1,619.8,202.5,619.6,201.8,619.9z"/>
		<path d="M465.1,513.9c-0.3,0-0.7-0.1-1.1-0.2c-1.8-0.6-2.9-2.6-2.3-4.4c9.3-29.3,5.5-64.6-10.4-96.8c-17.3-35-47.4-63.1-84.6-79
			c-79.5-33.9-194.8,28.2-195.9,28.9c-1.7,0.9-3.8,0.3-4.8-1.4c-0.9-1.7-0.3-3.8,1.4-4.8c0.3-0.2,30-16.3,69.4-27.9
			c66.3-19.5,108.7-11.4,132.6-1.2c38.8,16.6,70.1,45.8,88.1,82.3c16.7,33.8,20.6,71,10.8,102C468,512.9,466.6,513.9,465.1,513.9z"
			/>
		<path d="M381.1,508.9c-0.7,0-1.4-0.2-2-0.7c-1.6-1.1-1.9-3.3-0.8-4.9c0.2-0.3,12.4-17.7,18.7-46.3c5.8-26.5,7.6-68.5-16.8-117.7
			c-0.9-1.7-0.2-3.8,1.6-4.7c1.7-0.9,3.8-0.1,4.7,1.6c25.4,51.2,23.4,95,17.3,122.6c-6.7,30.1-19.3,47.8-19.8,48.6
			C383.3,508.4,382.2,508.9,381.1,508.9z"/>
		<path d="M216.1,426.9c-0.1,0-0.2,0-0.3,0c-1.9-0.2-3.4-1.8-3.2-3.8c3.8-48.8-20.7-72.8-20.9-73c-1.4-1.3-1.4-3.6-0.1-4.9
			c1.3-1.4,3.6-1.4,4.9-0.1c1.1,1.1,27.1,26.6,23.1,78.6C219.4,425.5,217.9,426.9,216.1,426.9z"/>
		<path d="M368.1,508.9c-1.8,0-3.3-1.4-3.5-3.2c0-0.2-1.6-15.9-12.3-32.9c-14.2-22.7-37-36.8-67.8-42c-47.3-8-75.8-5.6-89.8,7.6
			c-8.6,8.1-11.9,20.7-10.1,38.6c0.2,1.9-1.2,3.6-3.1,3.8c-1.9,0.2-3.6-1.2-3.8-3.1c-2.1-20.2,2-34.8,12.3-44.5
			c15.7-14.7,46.2-17.7,95.8-9.3c41.1,6.9,62.2,28.6,72.8,45.5c11.4,18.4,13.1,35,13.1,35.7c0.2,1.9-1.2,3.6-3.2,3.8
			C368.3,508.9,368.2,508.9,368.1,508.9z"/>
		<path d="M361.7,642.3c-13.2,0-25.8-0.9-37.7-2.8c-40.5-6.4-76.5-23.9-110.1-53.5c-35.2-31-39.5-66.2-36.9-90.3
			c2.8-26,13.8-44.4,14.2-45.2c1-1.7,3.1-2.2,4.8-1.2s2.2,3.1,1.2,4.8l0,0c-0.1,0.2-10.7,18.1-13.3,42.6c-3.4,32.5,8.2,60.8,34.6,84
			c32.6,28.7,67.5,45.6,106.6,51.8c34.8,5.5,74.9,2.8,122.2-8.3c-23.7-4.5-67.3-16-105.2-44.1c-1.6-1.2-1.9-3.3-0.7-4.9
			c1.2-1.6,3.3-1.9,4.9-0.7c52.5,38.9,118.6,45.3,119.2,45.3c1.7,0.2,3,1.5,3.2,3.2c0.1,1.7-0.9,3.2-2.6,3.7
			C427,637.2,392.5,642.3,361.7,642.3z"/>
		<path d="M458.1,555.9c-1.3,0-2.5-0.7-3.1-1.9c-0.9-1.7-0.3-3.8,1.5-4.7c25.1-13.3,35.3-21.5,39.4-26c-15.3,2.4-26.4-1.4-27-1.6
			c-0.1,0-0.2-0.1-0.3-0.1c-0.2-0.1-23.6-10.6-53.2-7.7c-31.5,3.1-63.4-10.7-64.7-11.3c-1.8-0.8-2.6-2.8-1.8-4.6s2.8-2.6,4.6-1.8
			c0.3,0.1,31.6,13.6,61.3,10.7c30.5-3,54.2,7.1,56.6,8.2c1.3,0.4,14,4.3,29.8-0.1c1.5-0.4,3.1,0.2,3.9,1.5c0.3,0.5,1.1,2.1,0.4,4.5
			c-2.1,7.9-17.5,19.5-45.7,34.5C459.2,555.8,458.7,555.9,458.1,555.9z"/>
		<path d="M436.1,612.9c-1.7,0-3.2-1.3-3.5-3c-0.3-1.9,1-3.7,3-4c44.6-6.6,65.2-22.2,73.8-31.5c-21.6,3.2-51-6.2-52.4-6.7
			c-0.2-0.1-0.3-0.1-0.5-0.2c-0.1-0.1-13.7-6.6-38.3-5.6c-26.7,1-52.7-12.8-53.8-13.4c-1.7-0.9-2.3-3-1.4-4.7c0.9-1.7,3-2.3,4.7-1.4
			c0.3,0.1,25.5,13.5,50.2,12.6c24.9-1,39.2,5.2,41.4,6.2c3.1,1,39.5,12.1,57.3,4.1c1.3-0.6,2.9-0.3,3.9,0.7s1.3,2.6,0.7,3.9
			c-0.6,1.3-15.6,32.9-84.7,43C436.4,612.9,436.3,612.9,436.1,612.9z"/>
		<path d="M229.1,338c-0.5,0-1.1-0.1-1.6-0.4c-2.1-1.1-52.5-27.7-43.7-55.2c2.6-8,7.1-13.6,13.5-16.5c11.5-5.3,24.6,0.2,25.2,0.4
			c1.8,0.8,2.6,2.8,1.9,4.6c-0.8,1.8-2.8,2.6-4.6,1.9c-0.2-0.1-10.9-4.5-19.6-0.5c-4.5,2.1-7.8,6.2-9.7,12.3
			c-5.8,18.2,27.1,40,40.3,46.9c1.7,0.9,2.4,3,1.5,4.7C231.6,337.3,230.4,338,229.1,338z"/>
		<path d="M261.2,329.3c-1.1,0-2.1-0.5-2.8-1.4c-5.4-7.3-52.2-71.6-42.2-95.2c1.4-3.4,4.7-7.7,12.3-8.8c1.8-0.4,12.6-3,22.7,0.1
			c1.9,0.6,2.9,2.5,2.3,4.4c-0.6,1.9-2.5,2.9-4.4,2.3c-8.9-2.7-19,0-19.1,0s-0.3,0.1-0.4,0.1c-4.8,0.6-6.3,2.9-7,4.6
			c-2,4.6-2.3,17.4,17.2,51.1c11.4,19.7,24.1,37,24.2,37.1c1.1,1.6,0.8,3.7-0.7,4.9C262.6,329.1,261.9,329.3,261.2,329.3z"/>
		<path d="M301.1,320.9c-1.2,0-2.4-0.7-3.1-1.8c-0.2-0.3-17.5-31.8-32-64.4c-27.3-61.4-21.5-74.1-14.8-78.3
			c18.5-11.5,33.5-8.9,45.7,7.9c1.1,1.6,0.8,3.8-0.8,4.9s-3.8,0.8-4.9-0.8c-12.6-17.4-25.4-12.8-36.3-6.1
			c-1.8,1.1-9.2,9.5,17.5,69.4c14.4,32.4,31.6,63.6,31.8,63.9c0.9,1.7,0.3,3.8-1.4,4.8C302.3,320.8,301.7,320.9,301.1,320.9z"/>
		<path d="M312.1,320.9L312.1,320.9c-2,0-3.5-1.6-3.5-3.6C309.3,272,308,181.4,298,163c-0.1-0.1-0.1-0.3-0.2-0.4
			c-0.4-1-8.8-23.6,0.6-35.4c4.5-5.6,12-7.7,22.2-6.3c36.8,5.3,44.6,30.4,44.9,31.5c0.5,1.9-0.5,3.8-2.4,4.3s-3.8-0.5-4.3-2.4
			c-0.3-0.9-7-21.9-39.1-26.5c-7.6-1.1-12.9,0.2-15.7,3.7c-5.7,7.1-1.7,22.7,0.4,28.4c13.2,25.1,11.4,152.1,11.3,157.5
			C315.6,319.4,314,320.9,312.1,320.9z"/>
		<path d="M368.1,333.9c-1.8,0-3.3-1.3-3.5-3.2c-0.8-8.1-19.5-199.6,14-239.8c4.1-4.9,8.9-7.6,14.2-8c1.2-0.1,28.3-1.6,37.7,54.9
			c0.3,1.9-1,3.7-2.9,4s-3.7-1-4-2.9c-4.4-26.3-12.6-38.3-18.6-43.7c-6.3-5.6-11.4-5.4-11.7-5.4c-3.4,0.3-6.5,2.1-9.3,5.5
			c-12.9,15.5-19.2,60.9-18.2,131.1c0.8,53.6,5.7,103,5.7,103.5c0.2,1.9-1.2,3.6-3.1,3.8C368.3,333.9,368.2,333.9,368.1,333.9z"/>
		<path d="M387.7,343.7c-0.1,0-0.2,0-0.3,0c-1.9-0.2-3.3-1.9-3.2-3.8c0.1-0.7,1.7-18.6,8.9-54.3c6.6-32.9,19.3-87.6,42.6-162.1
			c0.4-2,3.1-14.7,12.7-26.7c9.5-11.8,27.6-25,60.1-21c0.4,0.1,0.9,0.2,1.3,0.4c1.5,0.8,36,20.5,32.8,52.4
			c-0.5,4.6-0.8,8.1-1.1,10.9c-1,10.4-1,10.8-2.4,13.5c-0.5,1-1.3,2.6-2.7,6.5c-0.6,1.8-2.7,2.8-4.5,2.1c-1.8-0.6-2.8-2.7-2.1-4.5
			c1.5-4.3,2.5-6.1,3.1-7.3c0.8-1.5,0.8-1.5,1.7-10.9c0.3-2.8,0.6-6.3,1.1-10.9c2.5-25.4-24.4-42.7-28.7-45.3
			c-23.2-2.7-41.1,3.5-53.1,18.5c-9.1,11.4-11.3,23.6-11.3,23.7c0,0.2-0.1,0.3-0.1,0.4c-23.2,74.1-35.9,128.7-42.4,161.4
			c-7.1,35.4-8.8,53.6-8.8,53.7C391,342.4,389.5,343.7,387.7,343.7z"/>
		<path d="M421,368.8c-0.3,0-0.5,0-0.8-0.1c-1.9-0.5-3-2.3-2.6-4.2c0.3-1,25.8-105.3,71.8-165.2c39.6-51.7,98-67.1,118.1-60.9
			c7.6,2.4,9,7.2,9.2,9.8c0.3,5,1,7.8,1.5,9.8c1.6,6.6,0.8,7.8-9,23.3c-1,1.6-3.2,2.1-4.8,1.1s-2.1-3.2-1.1-4.8
			c9-14.2,9-14.2,8.1-17.9c-0.5-2.1-1.3-5.4-1.7-11.1c-0.1-1.5-1.5-2.7-4.2-3.5c-18-5.6-73.4,10-110.5,58.5
			c-45,58.7-70.3,161.6-70.5,162.6C424,367.7,422.6,368.8,421,368.8z"/>
		<path d="M461.1,418.9c-0.6,0-1.3-0.2-1.9-0.6c-1.6-1-2.1-3.2-1.1-4.8c18.2-28.3,76.5-67.4,79-69c0.1,0,0.1-0.1,0.2-0.1
			c105.9-60.2,142.5-104.7,143.2-113.2c1.7-20.8-10.4-38.2-35.1-50.6c-14.3-7.2-40.6,4.3-74.1,32.3c-32.2,27-61.4,60.8-76.5,81.6
			c-34.3,47.1-52.7,91.9-52.9,92.3c-0.7,1.8-2.8,2.6-4.6,1.9c-1.8-0.7-2.7-2.8-1.9-4.6c0.2-0.5,18.9-46,53.7-93.8
			c15.4-21.1,45-55.5,77.7-82.9c25.3-21.1,59.9-44.1,81.7-33.2c34.7,17.3,40.3,40.8,38.9,57.4c-0.7,8.1-14.1,24.3-35.8,43.1
			c-19.2,16.7-54.1,43.3-110.8,75.6c-2.8,1.9-59.8,40.4-76.9,66.9C463.4,418.3,462.2,418.9,461.1,418.9z"/>
		<path d="M465.6,444.2c-1.7,0-3.2-1.2-3.5-2.9c-1.8-11.1,14.4-23.8,51-40c25.4-11.3,51.6-20,51.9-20.1h0.1
			c102.7-30.3,136.3-60.9,136.6-61.2c0.4-0.4,0.5-0.5,0.9-0.6c0.9-0.7,8.7-7.7,2-42.1c-2.4-12.1-6.9-19.8-13.4-22.7
			c-8.9-4-19.2,2-19.3,2.1c-1.7,1-3.8,0.4-4.8-1.2c-1-1.7-0.5-3.8,1.2-4.8c0.5-0.3,13.5-7.9,25.7-2.5c8.8,3.9,14.7,13.3,17.5,27.8
			c7.5,38.7-2.1,47.7-5.4,49.6c-4.2,3.7-39.1,33-139,62.4c-1.3,0.4-26.7,9-51.2,19.9c-45.1,20-47.3,29.9-46.9,32.5
			c0.3,1.9-1,3.7-2.9,4C466,444.2,465.8,444.2,465.6,444.2z"/>
		<path d="M726.2,579.1c-6.8,0-16.4-1.2-30.1-4.6c-18.1-4.5-35.1-10.8-35.3-10.9c-0.3-0.1-35.5-12.2-80.1-30
			c-31-12.4-44-14.2-55.4-15.8c-5.2-0.7-10.1-1.4-16.2-3c-19.2-5-39.7-15.8-40.6-16.3c-1.7-0.9-2.4-3-1.5-4.7s3-2.4,4.7-1.5
			c0.2,0.1,20.7,10.9,39.1,15.7c5.6,1.5,10.4,2.2,15.4,2.9c11.9,1.7,25.3,3.6,57.1,16.3c44.4,17.8,79.5,29.8,79.8,29.9
			c0.3,0.1,16.9,6.3,34.6,10.7c31.6,7.8,38.2,3.1,39.5,1.5c4.6-5.8,8.5-16.7,5.9-29.6c-2.4-11.7-11.3-28.8-39.8-44.2l-0.1-0.1
			c-5.3-3-29.5-9.7-83.4-13.5c-37-2.6-44.9-2.5-60.7-2.1c-13.8,0.3-34.6,0.7-87.2-0.5c-0.8,0-3-0.1-4.1-2.1
			c-0.6-1.1-0.6-2.5,0.1-3.6c0.7-1.1,1.9-3.1,25.7-7.1c9.2-1.5,26.6-4.1,39.5-3.5c16.5,0.7,30.1-0.9,47.2-2.9
			c8.5-1,18.1-2.1,29.3-3.1c33.5-3,90.1-12.9,90.7-13c0.1,0,0.3,0,0.4,0c52.3-2.6,65.1-17.4,68.1-25.9c3.3-9.2-1.6-20.5-13.3-31
			c-30.8-27.5-53-21.7-112.6-6.2c-10.4,2.7-22.2,5.8-35.3,9c-104,25.4-134.7,54.7-135,55c-1.4,1.4-3.6,1.3-4.9,0
			c-1.4-1.4-1.3-3.6,0-4.9c1.3-1.3,32.4-31,138.6-56.9c13-3.2,24.8-6.2,35.1-8.9c58.7-15.3,85.4-22.2,119,7.7
			c13.9,12.4,19.5,26.5,15.2,38.5c-4.4,12.5-20.8,27.9-74.2,30.6c-3.9,0.7-58.4,10.1-91.1,13c-11.2,1-20.7,2.1-29.1,3.1
			c-17.5,2-31.3,3.6-48.3,2.9c-9.9-0.4-23,1-34.6,2.9c33.7,0.6,49.5,0.2,60.6,0c16-0.3,24-0.5,61.3,2.2
			c67.8,4.8,84.8,13.5,86.4,14.4c30.8,16.6,40.5,35.7,43.3,48.9c3.2,15.3-1.6,28.3-7.2,35.4C741.5,575.2,738.5,579.1,726.2,579.1z"
			/>
	</g>
	<path d="M108.1,164.9c-13.5,0-24.5-16.6-24.5-37c0-0.6,0-1.1,0-1.7h3c0.4,18.7,10.7,34,23.8,35.6l11.2,1.4l-11.2,1.6
		C109.7,164.8,108.9,164.9,108.1,164.9z"/>
	<g id="Monokel">
		<g>
			
				<ellipse transform="matrix(0.9804 -0.1969 0.1969 0.9804 -31.0524 28.8005)" class="st10" cx="129.3" cy="170.6" rx="6.9" ry="10.4"/>
			<path d="M130.4,182.4c-1.9,0-3.8-0.9-5.5-2.6c-1.9-1.9-3.2-4.6-3.8-7.6c-0.6-3-0.4-6,0.6-8.5c1.1-2.7,3-4.4,5.3-4.8
				c2.3-0.5,4.7,0.4,6.8,2.4c1.9,1.9,3.2,4.6,3.8,7.6s0.4,6-0.6,8.5c-1.1,2.7-3,4.4-5.3,4.8C131.2,182.3,130.8,182.4,130.4,182.4z
				 M128.2,161.8c-0.2,0-0.4,0-0.6,0.1c-1.3,0.3-2.4,1.3-3.1,3c-0.8,1.9-0.9,4.3-0.5,6.7c0.5,2.4,1.6,4.6,3,6c1.3,1.3,2.7,1.9,4,1.6
				s2.4-1.3,3.1-3c0.8-1.9,0.9-4.3,0.5-6.7s-1.6-4.6-3-6C130.5,162.4,129.3,161.8,128.2,161.8z"/>
		</g>
		<g>
			
				<ellipse transform="matrix(0.9804 -0.1969 0.1969 0.9804 -34.8925 30.1766)" class="st10" cx="134.3" cy="190.6" rx="6.9" ry="10.4"/>
			<path d="M135.4,202.4c-1.9,0-3.8-0.9-5.5-2.6c-1.9-1.9-3.2-4.6-3.8-7.6c-0.6-3-0.4-6,0.6-8.5c1.1-2.7,3-4.4,5.3-4.8
				c2.3-0.5,4.7,0.4,6.8,2.4c1.9,1.9,3.2,4.6,3.8,7.6s0.4,6-0.6,8.5c-1.1,2.7-3,4.4-5.3,4.8C136.2,202.3,135.8,202.4,135.4,202.4z
				 M133.2,181.8c-0.2,0-0.4,0-0.6,0.1c-1.3,0.3-2.4,1.3-3.1,3c-0.8,1.9-0.9,4.3-0.5,6.7c0.5,2.4,1.6,4.6,3,6c1.3,1.3,2.7,1.9,4,1.6
				s2.4-1.3,3.1-3c0.8-1.9,0.9-4.3,0.5-6.7s-1.6-4.6-3-6C135.5,182.4,134.3,181.8,133.2,181.8z"/>
		</g>
		<g>
			
				<ellipse transform="matrix(0.9947 -0.1027 0.1027 0.9947 -21.0049 15.2191)" class="st10" cx="137.3" cy="211.6" rx="6.9" ry="10.4"/>
			<path d="M137.8,223.4c-2.1,0-4.2-1.1-5.8-3.1c-1.7-2-2.8-4.8-3.1-7.9c-0.7-6.6,2.5-12.2,7.2-12.7c2.4-0.2,4.7,0.8,6.5,3.1
				c1.7,2,2.8,4.8,3.1,7.9l0,0c0.7,6.6-2.5,12.2-7.2,12.7C138.3,223.4,138.1,223.4,137.8,223.4z M136.7,202.7c-0.1,0-0.2,0-0.3,0
				c-2.9,0.3-5,4.6-4.5,9.4c0.3,2.5,1.1,4.7,2.4,6.3c1.2,1.4,2.5,2.1,3.9,2c2.9-0.3,5-4.6,4.5-9.4c-0.3-2.5-1.1-4.7-2.4-6.3
				C139.2,203.4,137.9,202.7,136.7,202.7z"/>
		</g>
		<g>
			
				<ellipse transform="matrix(0.9947 -0.1027 0.1027 0.9947 -23.1511 15.5355)" class="st10" cx="139.3" cy="232.6" rx="6.9" ry="10.4"/>
			<path d="M139.8,244.4c-2.1,0-4.2-1.1-5.8-3.1c-1.7-2-2.8-4.8-3.1-7.9c-0.7-6.6,2.5-12.2,7.2-12.7c2.4-0.2,4.7,0.8,6.5,3.1
				c1.7,2,2.8,4.8,3.1,7.9l0,0c0.7,6.6-2.5,12.2-7.2,12.7C140.3,244.4,140.1,244.4,139.8,244.4z M138.7,223.7c-0.1,0-0.2,0-0.3,0
				c-2.9,0.3-5,4.6-4.5,9.4c0.3,2.5,1.1,4.7,2.4,6.3c1.2,1.4,2.5,2.1,3.9,2c2.9-0.3,5-4.6,4.5-9.4c-0.3-2.5-1.1-4.7-2.4-6.3
				C141.2,224.4,139.9,223.7,138.7,223.7z"/>
		</g>
		<g>
			
				<ellipse transform="matrix(0.9947 -0.1027 0.1027 0.9947 -25.3025 15.7492)" class="st10" cx="140.3" cy="253.6" rx="6.9" ry="10.4"/>
			<path d="M140.8,265.4c-2.1,0-4.2-1.1-5.8-3.1c-1.7-2-2.8-4.8-3.1-7.9c-0.7-6.6,2.5-12.2,7.2-12.7c2.4-0.2,4.7,0.8,6.5,3.1
				c1.7,2,2.8,4.8,3.1,7.9l0,0c0.7,6.6-2.5,12.2-7.2,12.7C141.3,265.4,141.1,265.4,140.8,265.4z M139.7,244.7c-0.1,0-0.2,0-0.3,0
				c-2.9,0.3-5,4.6-4.5,9.4c0.3,2.5,1.1,4.7,2.4,6.3c1.2,1.4,2.5,2.1,3.9,2c2.9-0.3,5-4.6,4.5-9.4c-0.3-2.5-1.1-4.7-2.4-6.3
				C142.2,245.4,140.9,244.7,139.7,244.7z"/>
		</g>
		<g>
			
				<ellipse transform="matrix(0.9977 -6.780923e-02 6.780923e-02 0.9977 -18.2922 10.2819)" class="st10" cx="142.3" cy="274.6" rx="6.9" ry="10.4"/>
			<path d="M142.6,286.5c-4.5,0-8.3-4.9-8.8-11.3c-0.5-6.6,2.9-12.1,7.6-12.4c4.7-0.3,8.8,4.6,9.2,11.3l0,0
				c0.5,6.6-2.9,12.1-7.6,12.4C142.9,286.4,142.8,286.5,142.6,286.5z M141.9,265.7c-0.1,0-0.1,0-0.2,0c-2.9,0.2-5.1,4.4-4.8,9.2
				c0.3,4.8,3.1,8.7,6,8.5s5.1-4.4,4.8-9.2C147.4,269.5,144.7,265.7,141.9,265.7z"/>
		</g>
		<g>
			
				<ellipse transform="matrix(0.1708 -0.9853 0.9853 0.1708 -174.8622 383.2912)" class="st10" cx="140.3" cy="295.5" rx="10.4" ry="6.9"/>
			<path d="M139.3,307.4c-0.4,0-0.7,0-1.1-0.1c-4.7-0.8-7.4-6.6-6.3-13.1c0.5-3,1.8-5.7,3.6-7.7c2-2.1,4.4-3,6.7-2.6
				c4.7,0.8,7.4,6.6,6.3,13.1C147.5,303.1,143.6,307.4,139.3,307.4z M141.2,286.8c-1.2,0-2.4,0.6-3.5,1.8c-1.4,1.5-2.4,3.7-2.9,6.1
				c-0.8,4.7,0.9,9.2,3.8,9.7s6-3.1,6.9-7.8s-0.9-9.2-3.8-9.7C141.6,286.8,141.4,286.8,141.2,286.8z"/>
		</g>
		<g>
			
				<ellipse transform="matrix(0.1133 -0.9936 0.9936 0.1133 -192.7133 417.086)" class="st10" cx="137.3" cy="316.5" rx="10.4" ry="6.9"/>
			<path d="M136.6,328.4c-0.2,0-0.5,0-0.7,0c-2.4-0.3-4.4-1.8-5.7-4.4c-1.2-2.4-1.7-5.3-1.3-8.4c0.8-6.6,5-11.4,9.7-10.9
				c2.4,0.3,4.4,1.8,5.7,4.4c1.2,2.4,1.7,5.3,1.3,8.4l0,0C144.9,323.8,141,328.4,136.6,328.4z M137.9,307.7c-2.8,0-5.5,3.6-6,8.2
				c-0.3,2.5,0.1,4.8,1,6.7c0.8,1.6,2,2.6,3.4,2.8c2.9,0.3,5.8-3.4,6.4-8.2l0,0c0.3-2.5-0.1-4.8-1-6.7c-0.8-1.6-2-2.6-3.4-2.8
				C138.2,307.7,138,307.7,137.9,307.7z"/>
		</g>
		<g>
			
				<ellipse transform="matrix(0.2499 -0.9683 0.9683 0.2499 -227.7997 383.0555)" class="st10" cx="133.3" cy="338.6" rx="10.4" ry="6.9"/>
			<path d="M131.9,350.3c-0.5,0-1.1-0.1-1.6-0.2c-2.3-0.6-4.1-2.4-5-5.1c-0.9-2.5-0.9-5.5-0.2-8.5c0.8-3,2.3-5.6,4.2-7.3
				c2.1-1.9,4.6-2.6,6.9-2.1c2.3,0.6,4.1,2.4,5,5.1c0.9,2.5,0.9,5.5,0.2,8.5c-0.8,3-2.3,5.6-4.2,7.3
				C135.5,349.5,133.7,350.3,131.9,350.3z M134.7,329.9c-1.1,0-2.2,0.5-3.3,1.5c-1.5,1.4-2.7,3.5-3.3,5.9c-0.6,2.4-0.6,4.8,0.1,6.8
				c0.6,1.7,1.6,2.9,2.9,3.2s2.8-0.2,4.1-1.4c1.5-1.4,2.7-3.5,3.3-5.9l0,0c0.6-2.4,0.6-4.8-0.1-6.7c-0.6-1.7-1.6-2.9-2.9-3.2
				C135.2,329.9,135,329.9,134.7,329.9z"/>
		</g>
		<g>
			
				<ellipse transform="matrix(0.1708 -0.9853 0.9853 0.1708 -247.0417 425.5207)" class="st10" cx="129.3" cy="359.5" rx="10.4" ry="6.9"/>
			<path d="M128.3,371.4c-0.4,0-0.7,0-1.1-0.1c-4.7-0.8-7.4-6.6-6.3-13.1c0.5-3,1.8-5.7,3.6-7.7c2-2.1,4.4-3,6.7-2.6
				c4.7,0.8,7.4,6.6,6.3,13.1C136.5,367.1,132.6,371.4,128.3,371.4z M130.2,350.8c-1.2,0-2.4,0.6-3.5,1.8c-1.4,1.5-2.4,3.7-2.9,6.1
				c-0.8,4.7,0.9,9.2,3.8,9.7c2.9,0.5,6-3.1,6.9-7.8s-0.9-9.2-3.8-9.7C130.6,350.8,130.4,350.8,130.2,350.8z"/>
		</g>
		<g>
			
				<ellipse transform="matrix(0.1133 -0.9936 0.9936 0.1133 -265.1649 463.9015)" class="st10" cx="127.3" cy="380.5" rx="10.4" ry="6.9"/>
			<path d="M126.6,392.4c-0.2,0-0.5,0-0.7,0c-2.4-0.3-4.4-1.8-5.7-4.4c-1.2-2.4-1.7-5.3-1.3-8.4c0.8-6.6,5-11.4,9.7-10.9
				c2.4,0.3,4.4,1.8,5.7,4.4c1.2,2.4,1.7,5.3,1.3,8.4l0,0C134.9,387.8,131,392.4,126.6,392.4z M127.9,371.7c-2.8,0-5.5,3.6-6,8.2
				c-0.3,2.5,0.1,4.8,1,6.7c0.8,1.6,2,2.6,3.4,2.8c2.9,0.3,5.8-3.4,6.4-8.2l0,0c0.3-2.5-0.1-4.8-1-6.7c-0.8-1.6-2-2.6-3.4-2.8
				C128.2,371.7,128,371.7,127.9,371.7z"/>
		</g>
		<g>
			
				<ellipse transform="matrix(0.9977 -6.780923e-02 6.780923e-02 0.9977 -26.9385 9.557)" class="st10" cx="127.3" cy="401.6" rx="6.9" ry="10.4"/>
			<path d="M127.6,413.5c-2.2,0-4.3-1.2-5.9-3.3s-2.6-4.9-2.8-8c-0.5-6.6,2.9-12.1,7.6-12.4c4.7-0.3,8.8,4.6,9.2,11.3l0,0
				c0.2,3.1-0.4,6-1.7,8.3c-1.4,2.5-3.5,4-5.9,4.1C127.9,413.4,127.8,413.5,127.6,413.5z M126.9,392.7c-0.1,0-0.1,0-0.2,0
				c-2.9,0.2-5.1,4.4-4.8,9.2c0.2,2.5,1,4.7,2.2,6.4c1.1,1.5,2.5,2.2,3.8,2.1c1.3-0.1,2.6-1,3.5-2.6c1-1.8,1.5-4.1,1.3-6.6
				C132.4,396.5,129.7,392.7,126.9,392.7z"/>
		</g>
		<g>
			
				<ellipse transform="matrix(0.9847 -0.1742 0.1742 0.9847 -71.6171 29.1644)" class="st10" cx="130.3" cy="422.6" rx="6.9" ry="10.4"/>
			<path d="M131.2,434.4c-2,0-3.9-0.9-5.6-2.7c-1.8-1.9-3.1-4.6-3.7-7.7c-0.5-3-0.2-6,0.8-8.4c1.2-2.6,3.1-4.3,5.4-4.7
				c2.3-0.4,4.7,0.5,6.7,2.6c1.8,1.9,3.1,4.6,3.7,7.7c0.5,3,0.2,6-0.8,8.4c-1.2,2.6-3.1,4.3-5.4,4.7
				C132,434.3,131.6,434.4,131.2,434.4z M129.3,413.8c-0.2,0-0.4,0-0.6,0c-1.3,0.2-2.4,1.3-3.2,3c-0.8,1.9-1,4.3-0.6,6.7
				s1.5,4.6,2.9,6.1c1.3,1.3,2.7,1.9,4,1.7s2.4-1.3,3.2-3c0.8-1.9,1-4.3,0.6-6.7s-1.5-4.6-2.9-6.1
				C131.6,414.4,130.4,413.8,129.3,413.8z"/>
		</g>
		<g>
			
				<ellipse transform="matrix(0.9598 -0.2806 0.2806 0.9598 -118.7081 56.029)" class="st10" cx="136.3" cy="442.6" rx="6.9" ry="10.4"/>
			<path d="M137.8,454.2c-4,0-8-3.7-9.6-9.3c-1.9-6.4,0.2-12.4,4.7-13.8c4.5-1.3,9.5,2.7,11.4,9l0,0c0.9,2.9,0.9,6,0.1,8.5
				c-0.9,2.7-2.6,4.6-4.9,5.3C139,454.2,138.4,454.2,137.8,454.2z M134.7,433.9c-0.3,0-0.6,0-0.9,0.1c-2.8,0.8-4.1,5.4-2.7,10.1
				c1.4,4.6,4.9,7.8,7.7,7c1.3-0.4,2.3-1.5,2.8-3.3c0.6-2,0.6-4.4-0.1-6.7l0,0C140.3,436.9,137.3,433.9,134.7,433.9z"/>
		</g>
		<g>
			
				<ellipse transform="matrix(0.9454 -0.3259 0.3259 0.9454 -142.9289 71.9608)" class="st10" cx="143.3" cy="462.6" rx="6.9" ry="10.4"/>
			<path d="M145.1,474.2c-1.6,0-3.4-0.6-5-1.9c-2.1-1.6-3.8-4.1-4.8-7s-1.2-5.9-0.5-8.5c0.7-2.8,2.4-4.7,4.6-5.5
				c4.5-1.5,9.7,2.2,11.8,8.5l0,0c1,2.9,1.2,5.9,0.5,8.5c-0.7,2.8-2.4,4.7-4.6,5.5C146.5,474,145.8,474.2,145.1,474.2z M141.5,454
				c-0.4,0-0.7,0.1-1.1,0.2c-1.3,0.4-2.2,1.7-2.7,3.4c-0.5,2-0.4,4.4,0.4,6.7s2.2,4.3,3.8,5.6c1.5,1.1,3,1.5,4.2,1.1
				c1.3-0.4,2.2-1.7,2.7-3.4c0.5-2,0.4-4.4-0.4-6.7l0,0C147,456.8,144,454,141.5,454z"/>
		</g>
		<g>
			
				<ellipse transform="matrix(0.928 -0.3726 0.3726 0.928 -168.4649 91.4329)" class="st10" cx="152.3" cy="481.6" rx="6.9" ry="10.4"/>
			<path d="M154.3,493.1c-1.5,0-3.2-0.5-4.7-1.6c-2.2-1.5-4-3.9-5.2-6.7c-2.5-6.2-1-12.4,3.4-14.2c2.2-0.9,4.7-0.5,7.1,1.2
				c2.2,1.5,4,3.9,5.2,6.7c2.5,6.2,1,12.4-3.4,14.2C155.9,492.9,155.2,493.1,154.3,493.1z M150.2,473.1c-0.4,0-0.9,0.1-1.2,0.2
				c-2.7,1.1-3.5,5.8-1.7,10.3c0.9,2.3,2.4,4.2,4.1,5.4c1.5,1,3,1.3,4.3,0.8c2.7-1.1,3.5-5.8,1.7-10.3c-0.9-2.3-2.4-4.2-4.1-5.4
				C152.2,473.5,151.1,473.1,150.2,473.1z"/>
		</g>
		<g>
			
				<ellipse transform="matrix(0.928 -0.3726 0.3726 0.928 -174.151 96.0105)" class="st10" cx="161.3" cy="498.6" rx="6.9" ry="10.4"/>
			<path d="M163.3,510.1c-1.5,0-3.2-0.5-4.7-1.6c-2.2-1.5-4-3.9-5.2-6.7c-2.5-6.2-1-12.4,3.4-14.2c2.2-0.9,4.7-0.5,7.1,1.2
				c2.2,1.5,4,3.9,5.2,6.7c2.5,6.2,1,12.4-3.4,14.2C164.9,509.9,164.2,510.1,163.3,510.1z M159.2,490.1c-0.4,0-0.9,0.1-1.2,0.2
				c-2.7,1.1-3.5,5.8-1.7,10.3c0.9,2.3,2.4,4.2,4.1,5.4c1.5,1,3,1.3,4.3,0.8c2.7-1.1,3.5-5.8,1.7-10.3c-0.9-2.3-2.4-4.2-4.1-5.4
				C161.2,490.5,160.1,490.1,159.2,490.1z"/>
		</g>
		<g>
			
				<ellipse transform="matrix(0.9022 -0.4313 0.4313 0.9022 -206.2359 123.5422)" class="st10" cx="169.3" cy="516.6" rx="6.9" ry="10.4"/>
			<path d="M171.6,527.9c-1.4,0-2.9-0.4-4.4-1.3c-2.3-1.4-4.3-3.6-5.6-6.4c-2.9-6-1.8-12.3,2.5-14.4c4.3-2,9.8,1.1,12.7,7.1
				s1.8,12.3-2.5,14.4C173.5,527.7,172.6,527.9,171.6,527.9z M166.9,508.2c-0.5,0-1,0.1-1.5,0.3c-2.6,1.3-3.1,6-1.1,10.4
				c1.1,2.2,2.6,4.1,4.4,5.1c1.6,0.9,3.1,1.1,4.3,0.6c2.6-1.3,3.1-6,1.1-10.4l0,0C172.4,510.6,169.4,508.2,166.9,508.2z"/>
		</g>
		<g>
			<path class="st10" d="M140.1,124.9c0,21.3-12.3,38.5-27.5,38.5c-0.8,0-1.6,0-2.4-0.2c11.7-1.6,20.9-16.8,20.9-35.3
				c0-19.6-10.3-35.5-23-35.5c-12.3,0-22.4,15-23,33.8c0-0.4,0-0.9,0-1.3c0-21.3,12.3-38.5,27.5-38.5S140.1,103.6,140.1,124.9z"/>
			<path d="M112.6,164.9c0,0-0.9,0.1-2.9,0.1c-6.2,0-11.1-5.1-11.1-5.1l11.4,1.9c11-1.5,19.6-16.4,19.6-33.9c0-18.7-9.6-34-21.5-34
				c-11.5,0-20.9,14.2-21.5,32.4h-3c0-0.5,0-0.9,0-1.4c0-22.1,13-40,29-40s29,17.9,29,40S128.6,164.9,112.6,164.9z M108.1,90.9
				c13.5,0,24.5,16.6,24.5,37c0,14-5.1,26.3-12.7,32.5c10.8-4.5,18.7-18.7,18.7-35.5c0-20.4-11.7-37-26-37c-5.2,0-10.1,2.2-14.1,5.9
				C101.4,91.9,104.7,90.9,108.1,90.9z"/>
		</g>
	</g>
</g>
</svg>
