<?xml version="1.0" encoding="utf-8"?>
<!-- Generator: Adobe Illustrator 23.0.0, SVG Export Plug-In . SVG Version: 6.00 Build 0)  -->
<svg version="1.1" id="Ebene_1" xmlns="http://www.w3.org/2000/svg" xmlns:xlink="http://www.w3.org/1999/xlink" x="0px" y="0px"
	 viewBox="0 0 241.6 409.2" style="enable-background:new 0 0 241.6 409.2;" xml:space="preserve">
<style type="text/css">
	.st0{fill:#603813;}
	.st1{fill:#754C24;}
	.st2{fill:none;stroke:#000000;stroke-width:6;stroke-miterlimit:10;}
	.st3{fill:#FFFFFF;}
	.st4{fill:#020202;}
	.st5{fill:#FFCC33;}
	.st6{fill:#BC0606;}
	.st7{fill:#FFCC00;}
</style>
<g id="Ebene_3_1_">
	<path class="st0" d="M227.6,117.3l7.5-9.9l-19.6-5.2l0.9-9.1l-17.6,4c0,0-1.1-65.6-40.2-64.3l-11.7,1.7l-5.4-13.1l-8.6,9.1
		c0,0-6.2-2.5-11.8-23.2l-8.7,19.3l-13.5-7.4l4.7,15.4l-6.9,3.7c0,0-30-13.4-39,7.5S44.2,93.1,44.2,93.1l-14.5-3l-3.5,7.1l-11.4,5
		l-7.6,5.2l13.5,12.2l-4.1,4.9l11.3,6.1L13,138.1l12.9,17c0,0-22.2,40.2,6.4,74.5c0,0,68.9,37.3,65.8,92l2.6,82H143
		c0,0-4.1-132.3,34.2-147.9s56.2-46,48.9-79.6c-3.4-15.9-5.4-21.4-6.6-22.9l8.2-10.5l-6.1-9.1l6.1-8.1L227.6,117.3z M87.2,159
		c-10.9,0-20-17.2-20-37.6s9.2-37.6,20-37.6c10.9,0,20,17.2,20,37.6C107.3,141.8,98.1,159,87.2,159z M160,157.1
		c-10.9,0-20-17.2-20-37.6c0-8.2,1.5-15.8,3.9-22c8.1-4.6,9.3-8.6,16.1-15.6c10.9,0,20,17.2,20,37.6
		C180.1,140,170.9,157.1,160,157.1z"/>
	<path class="st1" d="M151.7,56.8c0.2-0.6,1.1-2.9,0.8-2.4c-0.5,1,1.7-2.7,0.8-1.5c1.6-2,4.3-2.6,7.5-2.7c1.7,0,3.3,0,4.9,0.7
		c0.2,0.1,1.8,1.1,1.3,0.8c0.4,0.2,0.7,0.7,1,1c0.5,0.5-1.1-0.4-0.2-0.2c0.1,0,0.4,0.6,0.4,0.7c0.4,0.8,0.8,1.9-0.6-1.5
		c1.8,4.5,6,7.7,11.1,6.3c4.3-1.2,8.1-6.5,6.3-11.1c-3.9-9.8-13.9-14.9-24.2-14.7c-13.5,0.3-22.3,7.4-26.5,19.8
		C130.6,62.9,148,67.7,151.7,56.8L151.7,56.8z"/>
	<path class="st1" d="M93.9,36.8c-8.1-5.4-21.4-6.7-29.6-0.9c-8.1,5.8-14.6,16.5-16,26.4c-0.7,4.8,1.2,9.7,6.3,11.1
		c4.2,1.2,10.4-1.4,11.1-6.3c0.8-5.5,3.6-11.8,7.9-15.4c3.1-2.6,8.1-1.4,11.3,0.7C94.5,58.8,103.5,43.3,93.9,36.8L93.9,36.8z"/>
	<path class="st2" d="M67.2,97.1"/>
	<path class="st1" d="M31.9,143.9c-4.2,6.4-7.5,14.3-10,21.6c-2.9,8.4-3.9,16.2-4.7,25c-0.7,8.5,0.9,18.6,5.2,26.2
		c3.5,6.2,8.2,10.7,13.8,15c3.9,3,10.1,0.6,12.3-3.2c2.7-4.6,0.6-9.3-3.2-12.3c-3.4-2.6-5.9-5.5-7.7-9.2c-1.5-3.2-1.8-7-2.6-10.4
		c-0.9-3.7-0.4,0.3-0.2-2.5c0.2-2.1,0.5-3.9,0.5-6c0.2-11.5,5.7-25.4,12.1-35C53.9,143.3,38.3,134.3,31.9,143.9L31.9,143.9z"/>
</g>
<g>
	<path d="M44.4,106.8c-1.9,0-3.5-1.5-3.5-3.4c-0.3-21.1,4.4-51,19-65.8c5.7-5.8,12.3-8.7,19.7-8.7c22.6,0,31,20.3,32.4,31
		c0.2,1.9-1.1,3.7-3,3.9s-3.7-1.1-3.9-3c-0.1-1-3.4-24.8-25.4-24.8c-5.5,0-10.4,2.2-14.8,6.6c-12.2,12.4-17.3,39.5-17,60.8
		C47.9,105.3,46.3,106.8,44.4,106.8L44.4,106.8z"/>
	<path d="M198.8,106.8L198.8,106.8c-2,0-3.5-1.6-3.5-3.6c0.3-21.3-4.8-48.4-17-60.8c-4.3-4.4-9.3-6.6-14.8-6.6
		c-22,0-25.3,23.8-25.4,24.8c-0.2,1.9-2,3.3-3.9,3c-1.9-0.2-3.3-2-3-3.9c1.3-10.7,9.8-31,32.4-31c7.4,0,14.1,2.9,19.7,8.7
		c14.6,14.8,19.3,44.7,19,65.8C202.3,105.3,200.7,106.8,198.8,106.8z"/>
	<path d="M103.7,37.9c-1.6,0-3.1-1.1-3.4-2.8l0,0c-1.1-5.5-3.9-11.9-6.1-12.9c-3.2-1.3-3.1-3.6-2.9-4.5c0.3-1.4,1.5-2.9,4-2.9l0,0
		c2.5,0,9.6,1.7,15.6,5.8c0-9.3,3.6-16.2,10.3-20.1c1.1-0.6,2.4-0.6,3.5,0c1.1,0.6,1.7,1.8,1.7,3.1c-0.1,6.5,1.2,17.1,4.6,22.8
		c2.7-5.3,3.2-9,2.6-9.6c-1.1-1.4-1.1-3.5,0.2-4.7c1.3-1.3,3.3-1.4,4.7-0.2c0.4,0.4,10.1,8.8,7.3,19.4c-0.5,1.9-2.4,3-4.3,2.5
		c-1.9-0.5-3-2.4-2.5-4.3c0.4-1.4,0.3-2.8,0-4.2c-1.4,3.8-3.5,7.3-4.5,8.9c-0.5,0.8-1.3,1.4-2.2,1.5c-0.9,0.2-1.9,0-2.7-0.5
		c-6.8-4.6-9.1-15.7-9.9-23.5c-3.2,6-1.8,14.3-0.7,18.6c0.4,1.1,0.8,2.2,1,3.5c0.3,1.8-0.8,3.5-2.5,4c-1.8,0.5-3.6-0.4-4.2-2.2
		c0-0.1-0.4-1.2-0.9-3c-1.6-3.5-4.9-6-8.3-7.8c1.6,3.8,2.5,7.6,2.8,8.8c0.4,1.9-0.8,3.7-2.7,4.1C104.1,37.9,103.9,37.9,103.7,37.9z"
		/>
	<path d="M87.2,76.7c-15.2,0-27,19.6-27,44.6s11.9,44.6,27,44.6c15.2,0,27-19.6,27-44.6C114.3,96.3,102.4,76.7,87.2,76.7z M87.2,159
		c-10.9,0-20-17.2-20-37.6s9.2-37.6,20-37.6c10.9,0,20,17.2,20,37.6C107.3,141.8,98.1,159,87.2,159z"/>
	<path d="M160,163.7c-7.5,0-14.4-4.9-19.4-13.7c-4.7-8.3-7.3-19.2-7.3-30.7c0-7.5,1.1-15,3.3-21.5l0.6-1.9l2-0.3
		c6.9-1,14.9-11.1,18.7-15.9c0.8-1,1.4-1.8,2-2.4c0.7-0.8,2.1-2.4,4.2-1.9c13.1,3.2,22.6,21.7,22.6,43.9c0,11.5-2.6,22.4-7.3,30.7
		C174.4,158.8,167.5,163.7,160,163.7z M142.3,101.6c-1.6,5.4-2.4,11.5-2.4,17.7c0,20.5,9.2,37.9,20.2,37.9s20.2-17.3,20.2-37.9
		c0-17.6-6.9-33.3-16-37c-0.4,0.4-0.8,1-1.1,1.4C158.7,89.2,150.9,99.1,142.3,101.6z"/>
	<path class="st3" d="M107.2,121.4c0.1,20.4-9.1,37.6-20,37.6s-20-17.2-20-37.6s9.2-37.6,20-37.6C98.1,83.8,107.2,101,107.2,121.4z"
		/>
	<path class="st3" d="M180,119.5c0.1,20.5-9.1,37.6-20,37.6s-20-17.2-20-37.6c0-8.1,1.5-15.8,3.9-22c6.2-2.4,11.4-12.2,16.1-15.6
		C170.9,81.9,180,99.1,180,119.5z"/>
	<path class="st4" d="M139.7,101.8c-0.3,0-0.6,0-0.9,0c-6.8-0.5-10-6.9-10.2-7.1c-0.8-1.5-0.1-3.4,1.4-4.1c1.5-0.8,3.3-0.1,4.1,1.4
		c0.1,0.1,1.9,3.5,5.2,3.8c3.9,0.3,9.2-3.9,14.8-11.7c7.3-10.2,14.2-15.2,20.6-14.8c5.1,0.4,8.3,4.1,9.5,6.3
		c0.8,1.5,0.2,3.4-1.3,4.1c-1.5,0.8-3.4,0.2-4.1-1.3c0-0.1-1.6-2.8-4.5-3c-2.3-0.1-7.3,1.3-15.1,12.2
		C152.3,97,145.8,101.8,139.7,101.8z"/>
	<path d="M87.2,103.3c-4.7,0-8.5,8.1-8.5,18.1s3.8,18.1,8.5,18.1s8.4-8.1,8.4-18.1C95.7,111.3,91.9,103.3,87.2,103.3z M85.8,115.6
		c0,0,0.3-3.5,1.7-5.7c1.4-2.2,4.6,2.3,4.6,5.7C92.1,121.6,85.8,115.6,85.8,115.6z"/>
	<g>
		<path class="st5" d="M171.4,172.5c-10.3,5.1-22.2-1.2-26.5-7.1c-4.3-5.8-27-19.2-41-1.8c-14,17.5-21.3,14.1-23.2,13.3
			c-14.2-5.7-25.6-5.2-27,7.4c-1.3,12.5,6.6,15.8,6.6,15.8c7.6,5.3,29.7,9.4,39.5,18.4c9.6,8.8,24.8,30.5,24.8,30.5
			s18.2-23.3,28.8-33.3c11.1-10.5,26.8-9.3,35.9-16.6C203.8,187.1,190.2,163.1,171.4,172.5z"/>
	</g>
	<path d="M145.1,409.3h-44.4c-0.9,0-1.8-0.4-2.5-1.1c-0.7-0.7-1-1.6-1-2.5c1.4-60.1-2.5-102.7-11.6-126.6
		c-7.2-19-16.1-22.4-22.6-24.8c-1.3-0.5-2.5-0.9-3.6-1.4c-5.3-2.4-15.5-7.9-25.2-16.7c-10.7-9.8-17.3-20.7-19.7-32.5
		C7.8,170.2,32,137.2,33,135.8c1.2-1.6,3.3-1.9,4.9-0.7c1.6,1.2,1.9,3.3,0.7,4.9c-0.2,0.3-23.3,31.9-17.2,62.4
		c5.3,26.4,35,41.4,40.9,44.2c0.9,0.4,2,0.8,3.1,1.2c7.3,2.7,18.4,6.8,26.7,28.9c9.3,24.6,13.3,65.8,12.1,125.7h37.2
		c-1.2-59.2,2.7-99.7,11.7-123.6c8.2-21.5,19.2-25.3,26.5-27.8c1.4-0.5,2.5-0.9,3.5-1.3c5.9-2.7,35.7-17.8,40.9-44.2
		c6.1-30.4-17-62-17.2-62.4c-1.1-1.6-0.8-3.7,0.7-4.9c1.6-1.1,3.7-0.8,4.9,0.7c1,1.4,25.2,34.4,18.5,67.9
		c-2.3,11.8-9,22.7-19.7,32.5c-9.7,8.8-19.9,14.2-25.2,16.7c-1.3,0.6-2.7,1.1-4.2,1.6c-12.8,4.4-36.6,12.5-33.4,148.2
		c0,0.9-0.3,1.9-1,2.5C146.9,409,146,409.3,145.1,409.3z"/>
	<g>
		<path class="st5" d="M171.5,172.5c-10.3,5.1-22.1-1.2-26.4-7c-4.3-5.8-27-19.2-40.9-1.8c-14,17.4-21.3,14.1-23.2,13.3
			c-14.2-5.7-27.3-4.1-28.6,8.5c-1.5,15,7.5,20.7,7.5,20.7c6.9,4.3,25.6,1.6,30.7,7.1c5.8,6.2,11.5,21.3,34.1,21.3
			c22.5,0,32.6-18.4,37.5-23.7c5-5.3,21.9-3.7,26.6-7.2C207.5,190,190.3,163.2,171.5,172.5z"/>
		<path d="M124.7,237.8c-19.9,0-27.9-11-33.3-18.3c-1.2-1.6-2.2-3.1-3.2-4.1c-1.9-2-8.6-2.6-13.9-3c-6.3-0.5-12.3-1.1-16.2-3.5
			c-0.4-0.3-10.7-7-9-23.8c0.5-5.3,3-9.5,7.1-12c6.1-3.7,15.5-3.4,26,0.8l0.1,0c3.2,1.3,9.2,0.2,19.3-12.4c5.3-6.6,12.4-10,20.6-9.8
			c11.1,0.2,21.9,7,25.5,11.7c1.9,2.6,5.6,5.2,9.4,6.5c3.2,1.1,8.1,2,12.9-0.4c0,0,0,0,0,0c5.2-2.6,10.6-3,15.7-1.2
			c4.6,1.6,8.5,4.9,11.2,9.2c2.7,4.5,3.8,9.6,3,14.5c-0.9,5.5-4,10.4-9.1,14.1c-2.7,2-7.3,2.6-12.7,3.2c-4.8,0.6-11.4,1.4-13.4,3.5
			c-0.7,0.7-1.6,1.9-2.6,3.2C156.2,223.8,145.2,237.8,124.7,237.8z M66.6,177.1c-2.8,0-5.2,0.5-7,1.6c-2.3,1.4-3.6,3.7-3.9,7
			c-1.3,12.8,6,17.6,6,17.6c2.5,1.6,8.2,2.1,13.2,2.5c7.5,0.6,14.5,1.2,18.1,5.1c1.3,1.3,2.5,3,3.7,4.7c5.1,6.9,11.4,15.6,28,15.6
			c17.3,0,26.6-11.9,32.2-19c1.1-1.4,2.1-2.7,3-3.6c3.6-3.9,10.6-4.7,17.4-5.6c3.7-0.5,8.3-1,9.6-2c8.5-6.2,7.7-14.6,4.4-20
			c-4.8-7.8-12.7-8.5-18.4-5.6c-11.7,5.8-25.3-0.9-30.5-8c-2.3-3.1-11.3-8.9-20.4-9.1c-6.2-0.1-11.4,2.4-15.4,7.4
			c-10.1,12.6-19.2,17.4-26.8,14.3l-0.1,0C74.9,178.1,70.3,177.1,66.6,177.1z"/>
	</g>
	<g>
		<path class="st5" d="M66.7,193.9c0,0,10.7,0,19.4,13.1c0,0,7.1,9.2,16.8,15.6c9.6,6.4,21.6,27,21.6,27s9.2-15.7,20.5-26.2
			c11.3-10.5,14.5-12,20.9-20c0,0,8-11.7,14.3-8.8"/>
		<path d="M124.5,252.8c-1.2,0-2.2-0.6-2.8-1.6c-0.1-0.2-11.7-20-20.6-25.9c-10-6.6-17.2-15.9-17.5-16.3c0-0.1-0.1-0.1-0.1-0.2
			c-7.5-11.3-16.4-11.6-16.8-11.6c-1.8,0-3.2-1.5-3.2-3.3c0-1.8,1.5-3.3,3.3-3.3c0.5,0,12.5,0.2,22.1,14.4
			c0.7,0.9,7.3,9.1,15.9,14.8c7.3,4.9,15.6,16.9,19.8,23.5c3.6-5.6,10.4-15.1,18.3-22.4c3.8-3.5,6.7-6,9-8
			c4.8-4.2,7.4-6.5,11.5-11.5c1.3-1.8,9.9-13.7,18.3-9.8c1.6,0.7,2.4,2.7,1.6,4.3c-0.7,1.6-2.7,2.4-4.3,1.6
			c-2.4-1.1-7.6,3.8-10.3,7.7c0,0.1-0.1,0.1-0.1,0.2c-4.4,5.6-7.4,8.1-12.3,12.4c-2.3,2-5.2,4.5-8.9,7.9
			c-10.9,10-19.8,25.3-19.9,25.4C126.7,252.2,125.7,252.8,124.5,252.8C124.5,252.8,124.5,252.8,124.5,252.8z"/>
	</g>
	<g>
		<path class="st6" d="M89.9,170.1c0,0-28.4-8-25.3,41.8s1.5,32.2-3.1,49.1c-4.6,16.9,3.5,46.4,18.4,46.8
			c14.9,0.4,25.5-17.2,6.8-49.8c0,0-2.2-13-2.6-26.1C83.7,218.8,75,191.6,89.9,170.1z"/>
		<path d="M80.4,311.1c-0.2,0-0.4,0-0.6,0c-5.2-0.1-10.1-3-14-8.3c-7.8-10.5-11.3-29.7-7.7-42.9c1.3-4.9,2.5-7.1,3.3-8.8
			c1.6-3.2,1.9-3.7-0.3-39.2c-1.3-20.5,2.5-34.4,11.1-41.3c8.5-6.8,18.2-4.1,18.6-4c1.1,0.3,2,1.1,2.3,2.2c0.4,1.1,0.2,2.2-0.4,3.2
			c-10.9,15.6-8.2,34.8-6.3,48.8c0.6,4.2,1.1,7.8,1.2,10.8c0.3,11.1,2,22.3,2.4,25c14.3,25.3,10.4,39.2,6.8,45.3
			C93.4,307.9,87.4,311.1,80.4,311.1z M84,173.1c-2.2,0.3-4.9,1-7.4,3.1c-6.6,5.4-9.6,17.6-8.5,35.4c2.3,37.3,2.1,37.7-0.4,42.7
			c-0.7,1.5-1.6,3.3-2.8,7.5c-3,11.1,0,28,6.5,36.9c2.6,3.6,5.5,5.4,8.6,5.5c4.7,0.1,8.5-1.9,10.8-5.8c2.3-3.9,6.2-15.4-7.2-38.8
			c-0.2-0.4-0.3-0.8-0.4-1.2c-0.1-0.5-2.2-13.4-2.6-26.5c-0.1-2.7-0.6-6.1-1.1-10.1C77.8,208.9,75.2,190,84,173.1z"/>
	</g>
	<path d="M212.3,107.8c-1.7,0-3.2-1.2-3.5-2.9c-0.3-1.9,1-3.7,2.9-4c0.7-0.1,1.3-1.1,1.9-2.5c-1.8,0.5-4,0.8-6.7,0.8
		c-1.9,0-3.5-1.6-3.5-3.5c0-1.9,1.6-3.5,3.5-3.5l0,0l0,0l0,0c3.5,0,7.1-1.2,7.3-2.1c0.8-3.6,3.4-3.6,4.1-3.6
		c1.2,0.1,3.3,0.9,3.4,4.6c0.1,3.9-1.3,15.3-9,16.6C212.7,107.8,212.5,107.8,212.3,107.8z"/>
	<path d="M227.6,120.8c-1.4,0-2.8-0.9-3.3-2.3c-0.7-1.8,0.3-3.8,2.1-4.5c2.1-0.8,3.8-3.6,4.8-6.2c-2.5,0.3-5.9,0.1-10.4-1
		c-1.9-0.5-3-2.4-2.6-4.2c0.5-1.9,2.3-3,4.2-2.6l0,0c3.9,1,8.6,1.2,9.7,0.4c1.8-2.3,3.9-1.8,4.5-1.6c0.8,0.3,2.7,1.2,2.7,4.2
		c0.1,3.9-3,14.8-10.6,17.5C228.4,120.6,228,120.8,227.6,120.8z"/>
	<path d="M223.3,150.8c-1.7,0-3.2-1.3-3.5-3.1c-0.2-1.8,0.9-3.4,2.6-3.8c0.5-0.4,1.1-1.2,1.7-2.2c-5.8-0.6-13-3.3-14.3-4.3
		c-1.8-1.3-2-3.1-1.6-4.4c1-2.8,4.1-2.6,5.3-2.6c2.4,0.1,6.8-1,11-2.4c-5.4-1.8-10.5-4.2-12.8-5.4c-1.7-0.9-2.4-3-1.6-4.7
		c0.9-1.7,3-2.4,4.7-1.6c8,4,18.4,7.6,21.3,6.7c1-0.3,3.2-1,4.7,0.9c0.9,1.1,1.1,2.6,0.5,3.8c-0.5,0.9-1,2.1-12,5.9
		c-1,0.4-2.1,0.7-3.3,1.1c0.3,0,0.6,0,0.8,0c2.1-1.3,3.8-0.4,4.3-0.1c0.7,0.4,2.2,1.8,1.6,4.6c-0.4,1.9-4.1,10.8-9.1,11.4
		C223.6,150.8,223.5,150.8,223.3,150.8z M222.9,143.9L222.9,143.9L222.9,143.9z M230.9,140.6L230.9,140.6L230.9,140.6z M212.6,137.3
		L212.6,137.3L212.6,137.3z"/>
	<path d="M30.1,103.6c-0.2,0-0.4,0-0.6,0c-7.7-1.2-9.1-12.7-9-16.6c0.1-3.7,2.2-4.5,3.4-4.6c0.8-0.1,3.3,0,4.1,3.6
		c0.2,0.9,3.8,2.1,7.3,2.1l0,0c1.9,0,3.5,1.6,3.5,3.5s-1.5,3.5-3.5,3.5c-2.7,0-4.9-0.3-6.7-0.8c0.5,1.4,1.2,2.4,1.9,2.5
		c1.9,0.3,3.2,2.1,2.9,4C33.2,102.3,31.8,103.6,30.1,103.6z"/>
	<path d="M16.8,119c-0.4,0-0.8-0.1-1.2-0.2c-6.8-2.5-14.9-13-14.9-16c0-1.5,1-2.8,2.4-3.3c1.5-0.5,2.8-0.1,4,1.3
		c1.9,0.1,7.3-2,11.8-4.6c1.7-0.9,3.8-0.3,4.8,1.3c0.9,1.7,0.3,3.8-1.3,4.8c-3.4,1.9-7.4,3.8-10.9,4.8c1.9,2.2,4.3,4.4,6.5,5.1
		c1.8,0.7,2.8,2.7,2.1,4.5C19.6,118.1,18.3,119,16.8,119z"/>
	<path d="M18.5,150.8c-0.1,0-0.3,0-0.4,0c-5-0.6-8.7-9.6-9.1-11.4c-0.6-2.8,0.9-4.2,1.6-4.6c0.5-0.3,2.1-1.1,4.1,0
		c1.1,0,3-0.6,5-1.5c-4.7-0.8-10.1-2-14.6-3.2c-0.5-0.1-1-0.2-1.5-0.3c-2.9-0.9-4.1-2.4-3.4-4.6c0.9-3.3,4.2-2.5,5.5-2.2
		c0.3,0.1,0.5,0.1,0.8,0.2c3.7,0.2,13.1-3.2,20.5-6.9c1.7-0.9,3.8-0.2,4.7,1.6c0.9,1.7,0.2,3.8-1.6,4.7c-1.7,0.8-4.9,2.4-8.6,3.8
		c2.8,0.5,5,0.6,6.4,0.6c3.5-0.2,4.8,1.4,5.3,2.8c0.7,2-0.2,3.9-2.7,5.7c-1.1,0.8-7.5,4.6-13,5.8c0.7,1.2,1.5,2.2,2,2.6
		c1.7,0.4,2.8,2.1,2.6,3.8C21.7,149.5,20.2,150.8,18.5,150.8z M18.9,143.9L18.9,143.9L18.9,143.9z M28.6,134.1L28.6,134.1
		L28.6,134.1z"/>
	<path d="M160,103.3c-4.7,0-8.5,8.1-8.5,18.1s3.8,18.1,8.5,18.1c4.7,0,8.4-8.1,8.4-18.1C168.5,111.3,164.7,103.3,160,103.3z
		 M158.6,115.6c0,0,0.3-3.5,1.7-5.7c1.4-2.2,4.6,2.3,4.6,5.7C164.9,121.6,158.6,115.6,158.6,115.6z"/>
	<g id="Monokel_1_">
		<g>
			
				<ellipse transform="matrix(0.9804 -0.1969 0.1969 0.9804 -30.4471 39.4981)" class="st7" cx="183.4" cy="172.9" rx="6.9" ry="10.4"/>
			<path d="M184.5,184.8c-1.9,0-3.8-0.9-5.5-2.6c-1.9-1.9-3.2-4.6-3.8-7.6c-0.6-3-0.4-6,0.6-8.5c1.1-2.7,3-4.4,5.3-4.8
				c2.3-0.5,4.7,0.4,6.8,2.4c1.9,1.9,3.2,4.6,3.8,7.6c0.6,3,0.4,6-0.6,8.5c-1.1,2.7-3,4.4-5.3,4.8
				C185.3,184.8,184.9,184.8,184.5,184.8z M182.3,164.1c-0.2,0-0.4,0-0.6,0.1c-1.3,0.3-2.4,1.3-3.1,3c-0.8,1.9-0.9,4.3-0.5,6.7
				c0.5,2.4,1.6,4.6,3,6c1.3,1.3,2.7,1.9,4,1.6c1.3-0.3,2.4-1.3,3.1-3c0.8-1.9,0.9-4.3,0.5-6.7s-1.6-4.6-3-6
				C184.6,164.8,183.4,164.1,182.3,164.1z"/>
		</g>
		<g>
			
				<ellipse transform="matrix(0.9804 -0.1969 0.1969 0.9804 -34.2876 40.8743)" class="st7" cx="188.4" cy="192.9" rx="6.9" ry="10.4"/>
			<path d="M189.5,204.8c-1.9,0-3.8-0.9-5.5-2.6c-1.9-1.9-3.2-4.6-3.8-7.6c-0.6-3-0.4-6,0.6-8.5c1.1-2.7,3-4.4,5.3-4.8
				c2.3-0.5,4.7,0.4,6.8,2.4c1.9,1.9,3.2,4.6,3.8,7.6c0.6,3,0.4,6-0.6,8.5c-1.1,2.7-3,4.4-5.3,4.8
				C190.3,204.8,189.9,204.8,189.5,204.8z M187.3,184.1c-0.2,0-0.4,0-0.6,0.1c-1.3,0.3-2.4,1.3-3.1,3c-0.8,1.9-0.9,4.3-0.5,6.7
				c0.5,2.4,1.6,4.6,3,6c1.3,1.3,2.7,1.9,4,1.6c1.3-0.3,2.4-1.3,3.1-3c0.8-1.9,0.9-4.3,0.5-6.7s-1.6-4.6-3-6
				C189.6,184.8,188.4,184.1,187.3,184.1z"/>
		</g>
		<g>
			
				<ellipse transform="matrix(0.9947 -0.1027 0.1027 0.9947 -20.9627 20.7903)" class="st7" cx="191.4" cy="214" rx="6.9" ry="10.4"/>
			<path d="M192,225.9c-2.1,0-4.2-1.1-5.8-3.1c-1.7-2-2.8-4.8-3.1-7.9c-0.7-6.6,2.5-12.2,7.2-12.7c2.4-0.2,4.7,0.8,6.5,3.1
				c1.7,2,2.8,4.8,3.1,7.9l0,0c0.7,6.6-2.5,12.2-7.2,12.7C192.4,225.9,192.2,225.9,192,225.9z M190.8,205.1c-0.1,0-0.2,0-0.3,0
				c-2.9,0.3-5,4.6-4.5,9.4c0.3,2.5,1.1,4.7,2.4,6.3c1.2,1.4,2.5,2.1,3.9,2c2.9-0.3,5-4.6,4.5-9.4c-0.3-2.5-1.1-4.7-2.4-6.3
				C193.3,205.9,192,205.1,190.8,205.1z"/>
		</g>
		<g>
			
				<ellipse transform="matrix(0.9947 -0.1027 0.1027 0.9947 -23.1091 21.1068)" class="st7" cx="193.4" cy="235" rx="6.9" ry="10.4"/>
			<path d="M194,246.9c-2.1,0-4.2-1.1-5.8-3.1c-1.7-2-2.8-4.8-3.1-7.9c-0.7-6.6,2.5-12.2,7.2-12.7c2.4-0.2,4.7,0.8,6.5,3.1
				c1.7,2,2.8,4.8,3.1,7.9l0,0c0.7,6.6-2.5,12.2-7.2,12.7C194.4,246.9,194.2,246.9,194,246.9z M192.8,226.1c-0.1,0-0.2,0-0.3,0
				c-2.9,0.3-5,4.6-4.5,9.4c0.3,2.5,1.1,4.7,2.4,6.3c1.2,1.4,2.5,2.1,3.9,2c2.9-0.3,5-4.6,4.5-9.4c-0.3-2.5-1.1-4.7-2.4-6.3
				C195.3,226.9,194,226.1,192.8,226.1z"/>
		</g>
		<g>
			
				<ellipse transform="matrix(0.9947 -0.1027 0.1027 0.9947 -25.2607 21.3205)" class="st7" cx="194.4" cy="256" rx="6.9" ry="10.4"/>
			<path d="M195,267.9c-2.1,0-4.2-1.1-5.8-3.1c-1.7-2-2.8-4.8-3.1-7.9c-0.7-6.6,2.5-12.2,7.2-12.7c2.4-0.2,4.7,0.8,6.5,3.1
				c1.7,2,2.8,4.8,3.1,7.9l0,0c0.7,6.6-2.5,12.2-7.2,12.7C195.4,267.9,195.2,267.9,195,267.9z M193.8,247.1c-0.1,0-0.2,0-0.3,0
				c-2.9,0.3-5,4.6-4.5,9.4c0.3,2.5,1.1,4.7,2.4,6.3c1.2,1.4,2.5,2.1,3.9,2c2.9-0.3,5-4.6,4.5-9.4c-0.3-2.5-1.1-4.7-2.4-6.3
				C196.3,247.9,195,247.1,193.8,247.1z"/>
		</g>
		<g>
			
				<ellipse transform="matrix(0.9977 -6.780912e-02 6.780912e-02 0.9977 -18.3298 13.9566)" class="st7" cx="196.4" cy="277" rx="6.9" ry="10.4"/>
			<path d="M196.8,288.9c-4.5,0-8.3-4.9-8.8-11.3c-0.5-6.6,2.9-12.1,7.6-12.4c4.7-0.3,8.8,4.6,9.2,11.3l0,0
				c0.5,6.6-2.9,12.1-7.6,12.4C197.1,288.9,196.9,288.9,196.8,288.9z M196,268.1c-0.1,0-0.1,0-0.2,0c-2.9,0.2-5.1,4.4-4.8,9.2
				s3.1,8.7,6,8.5s5.1-4.4,4.8-9.2C201.5,272,198.8,268.1,196,268.1z"/>
		</g>
		<g>
			
				<ellipse transform="matrix(0.1708 -0.9853 0.9853 0.1708 -132.3525 438.4721)" class="st7" cx="194.3" cy="297.9" rx="10.4" ry="6.9"/>
			<path d="M193.4,309.8c-0.4,0-0.7,0-1.1-0.1c-4.7-0.8-7.4-6.6-6.3-13.1c0.5-3,1.8-5.7,3.6-7.7c2-2.1,4.4-3,6.7-2.6
				c4.7,0.8,7.4,6.6,6.3,13.1C201.6,305.5,197.7,309.8,193.4,309.8z M195.4,289.1c-1.2,0-2.4,0.6-3.5,1.8c-1.4,1.5-2.4,3.7-2.9,6.1
				c-0.8,4.7,0.9,9.2,3.8,9.7c2.9,0.5,6-3.1,6.9-7.8c0.8-4.7-0.9-9.2-3.8-9.7C195.7,289.1,195.5,289.1,195.4,289.1z"/>
		</g>
		<g>
			
				<ellipse transform="matrix(0.1133 -0.9936 0.9936 0.1133 -147.0942 472.9153)" class="st7" cx="191.4" cy="318.9" rx="10.4" ry="6.9"/>
			<path d="M190.8,330.9c-0.2,0-0.5,0-0.7,0c-2.4-0.3-4.4-1.8-5.7-4.4c-1.2-2.4-1.7-5.3-1.3-8.4c0.8-6.6,5-11.4,9.7-10.9
				c2.4,0.3,4.4,1.8,5.7,4.4c1.2,2.4,1.7,5.3,1.3,8.4l0,0C199,326.3,195.2,330.9,190.8,330.9z M192,310.1c-2.8,0-5.5,3.6-6,8.2
				c-0.3,2.5,0.1,4.8,1,6.7c0.8,1.6,2,2.6,3.4,2.8c2.9,0.3,5.8-3.4,6.4-8.2l0,0c0.3-2.5-0.1-4.8-1-6.7c-0.8-1.6-2-2.6-3.4-2.8
				C192.3,310.1,192.2,310.1,192,310.1z"/>
		</g>
		<g>
			
				<ellipse transform="matrix(0.2499 -0.9683 0.9683 0.2499 -189.5176 437.2797)" class="st7" cx="187.5" cy="341" rx="10.4" ry="6.9"/>
			<path d="M186,352.6c-0.5,0-1.1-0.1-1.6-0.2c-2.3-0.6-4.1-2.4-5-5.1c-0.9-2.5-0.9-5.5-0.2-8.5c0.8-3,2.3-5.6,4.2-7.3
				c2.1-1.9,4.6-2.6,6.9-2.1c2.3,0.6,4.1,2.4,5,5.1c0.9,2.5,0.9,5.5,0.2,8.5c-0.8,3-2.3,5.6-4.2,7.3
				C189.6,352,187.8,352.6,186,352.6z M188.8,332.3c-1.1,0-2.2,0.5-3.3,1.5c-1.5,1.4-2.7,3.5-3.3,5.9c-0.6,2.4-0.6,4.8,0.1,6.8
				c0.6,1.7,1.6,2.9,2.9,3.2c1.3,0.3,2.8-0.2,4.1-1.4c1.5-1.4,2.7-3.5,3.3-5.9l0,0c0.6-2.4,0.6-4.8-0.1-6.7
				c-0.6-1.7-1.6-2.9-2.9-3.2C189.3,332.3,189.1,332.3,188.8,332.3z"/>
		</g>
		<g>
			
				<ellipse transform="matrix(0.1708 -0.9853 0.9853 0.1708 -204.5396 480.7074)" class="st7" cx="183.3" cy="361.9" rx="10.4" ry="6.9"/>
			<path d="M182.4,373.8c-0.4,0-0.7,0-1.1-0.1c-4.7-0.8-7.4-6.6-6.3-13.1c0.5-3,1.8-5.7,3.6-7.7c2-2.1,4.4-3,6.7-2.6
				c4.7,0.8,7.4,6.6,6.3,13.1C190.6,369.5,186.7,373.8,182.4,373.8z M184.4,353.1c-1.2,0-2.4,0.6-3.5,1.8c-1.4,1.5-2.4,3.7-2.9,6.1
				c-0.8,4.7,0.9,9.2,3.8,9.7s6-3.1,6.9-7.8c0.8-4.7-0.9-9.2-3.8-9.7C184.7,353.1,184.5,353.1,184.4,353.1z"/>
		</g>
		<g>
			
				<ellipse transform="matrix(0.1133 -0.9936 0.9936 0.1133 -219.555 519.7425)" class="st7" cx="181.4" cy="382.9" rx="10.4" ry="6.9"/>
			<path d="M180.8,394.9c-0.2,0-0.5,0-0.7,0c-2.4-0.3-4.4-1.8-5.7-4.4c-1.2-2.4-1.7-5.3-1.3-8.4c0.8-6.6,5-11.4,9.7-10.9
				c2.4,0.3,4.4,1.8,5.7,4.4c1.2,2.4,1.7,5.3,1.3,8.4l0,0C189,390.3,185.2,394.9,180.8,394.9z M182,374.1c-2.8,0-5.5,3.6-6,8.2
				c-0.3,2.5,0.1,4.8,1,6.7c0.8,1.6,2,2.6,3.4,2.8c2.9,0.3,5.8-3.4,6.4-8.2l0,0c0.3-2.5-0.1-4.8-1-6.7c-0.8-1.6-2-2.6-3.4-2.8
				C182.3,374.1,182.2,374.1,182,374.1z"/>
		</g>
		<g>
			
				<ellipse transform="matrix(0.9977 -6.780912e-02 6.780912e-02 0.9977 -26.9771 13.2317)" class="st7" cx="181.4" cy="404" rx="6.9" ry="10.4"/>
			<path d="M181.8,415.9c-2.2,0-4.3-1.2-5.9-3.3c-1.6-2.1-2.6-4.9-2.8-8c-0.5-6.6,2.9-12.1,7.6-12.4c4.7-0.3,8.8,4.6,9.2,11.3l0,0
				c0.2,3.1-0.4,6-1.7,8.3c-1.4,2.5-3.5,4-5.9,4.1C182.1,415.9,181.9,415.9,181.8,415.9z M181,395.1c-0.1,0-0.1,0-0.2,0
				c-2.9,0.2-5.1,4.4-4.8,9.2c0.2,2.5,1,4.7,2.2,6.4c1.1,1.5,2.5,2.2,3.8,2.1c1.3-0.1,2.6-1,3.5-2.6c1-1.8,1.5-4.1,1.3-6.6
				C186.5,399,183.8,395.1,181,395.1z"/>
		</g>
		<path class="st5" d="M150.9,94.1c0,0-16.5,7.8-17.3,38.5c-0.9,30.7,21.1,36.6,21.1,36.6s-15.3-16.8-16.3-42.7
			C138.3,126.5,137.6,113,150.9,94.1z"/>
		<path class="st5" d="M170.1,94.3c0,0,20.6,7.7,19.9,38.4c-0.7,29.3-17.6,34.4-17.6,34.4s15.1-15.9,13.4-41.7
			C185.8,125.3,185.2,111.8,170.1,94.3z"/>
		<path d="M165.3,171.3c-14.5,0-27.1-17.2-28.2-38.9c-0.5-10.6,1.7-20.8,6.3-28.6c4.7-8,11.4-12.6,18.7-13
			c14.9-0.7,28,16.7,29.1,38.9c0.5,10.6-1.7,20.8-6.3,28.6c-4.7,8-11.4,12.6-18.7,13C165.9,171.3,165.6,171.3,165.3,171.3z
			 M163.1,93.8c-0.3,0-0.5,0-0.8,0c-6.3,0.3-12.1,4.4-16.3,11.5c-4.3,7.3-6.4,16.9-5.9,27c1,20.6,12.7,36.7,25.9,36.1
			c6.3-0.3,12.1-4.4,16.3-11.5c4.3-7.3,6.4-16.9,5.9-27C187.3,109.6,176.1,93.8,163.1,93.8z"/>
		<path d="M160.2,171.6c-14.5,0-27.1-17.2-28.2-38.9c-0.5-10.6,1.7-20.8,6.3-28.6c4.7-8,11.4-12.6,18.7-13
			c14.9-0.7,28,16.7,29.1,38.9c1.1,22.2-10.1,40.9-25.1,41.6C160.8,171.6,160.5,171.6,160.2,171.6z M158,94c-0.3,0-0.5,0-0.8,0
			c-6.3,0.3-12.1,4.4-16.3,11.5c-4.3,7.3-6.4,16.9-5.9,27c1,20.6,12.7,36.8,25.9,36.1c13.3-0.7,23.2-17.9,22.2-38.5
			C182.2,110,171,94,158,94z"/>
	</g>
	<path d="M138.3,173c0,0-2.8,2.6,1.7,7.2c4.6,4.7,4.4-2.4,4.1-3.6S141.8,172.5,138.3,173z"/>
	<path d="M109.8,174c0,0,2.8,2.6-1.7,7.2c-4.6,4.7-4.4-2.4-4.1-3.6C104.3,176.3,106.3,173.5,109.8,174z"/>
</g>
</svg>
