<?xml version="1.0" encoding="utf-8"?>
<!-- Generator: Adobe Illustrator 23.0.0, SVG Export Plug-In . SVG Version: 6.00 Build 0)  -->
<svg version="1.1" id="Ebene_1" xmlns="http://www.w3.org/2000/svg" xmlns:xlink="http://www.w3.org/1999/xlink" x="0px" y="0px"
	 viewBox="0 0 883 294" style="enable-background:new 0 0 883 294;" xml:space="preserve">
<style type="text/css">
	.st0{clip-path:url(#SVGID_2_);fill:#F2CC16;}
	.st1{clip-path:url(#SVGID_4_);fill:#F2CC16;}
	.st2{clip-path:url(#SVGID_6_);fill:#0D3E59;}
	.st3{clip-path:url(#SVGID_8_);fill:#0D3E59;}
	.st4{clip-path:url(#SVGID_10_);fill:#0D3E59;}
	.st5{clip-path:url(#SVGID_12_);fill:#F2CC16;}
	.st6{clip-path:url(#SVGID_14_);fill:#F2CC16;}
	.st7{clip-path:url(#SVGID_16_);fill:#F2CC16;}
	.st8{clip-path:url(#SVGID_18_);fill:#F2CC16;}
	.st9{clip-path:url(#SVGID_20_);fill:#F2CC16;}
	.st10{clip-path:url(#SVGID_22_);fill:#F2CC16;}
	.st11{clip-path:url(#SVGID_24_);fill:#F2CC16;}
	.st12{clip-path:url(#SVGID_26_);fill:#0D3E59;}
	.st13{clip-path:url(#SVGID_28_);fill:#0D3E59;}
	.st14{clip-path:url(#SVGID_30_);fill:#0D3E59;}
	.st15{clip-path:url(#SVGID_32_);fill:#0D3E59;}
	.st16{clip-path:url(#SVGID_34_);enable-background:new    ;}
	.st17{clip-path:url(#SVGID_36_);}
	.st18{clip-path:url(#SVGID_38_);}
	.st19{clip-path:url(#SVGID_40_);fill:#0D3E59;}
	.st20{clip-path:url(#SVGID_42_);fill:#0D3E59;}
	.st21{clip-path:url(#SVGID_44_);fill:#0D3E59;}
	.st22{clip-path:url(#SVGID_46_);fill:#0D3E59;}
	.st23{clip-path:url(#SVGID_48_);fill:#0D3E59;}
	.st24{clip-path:url(#SVGID_50_);fill:#0D3E59;}
	.st25{clip-path:url(#SVGID_52_);fill:#0D3E59;}
	.st26{clip-path:url(#SVGID_54_);fill:#0D3E59;}
	.st27{clip-path:url(#SVGID_56_);fill:#0D3E59;}
	.st28{clip-path:url(#SVGID_58_);fill:#0D3E59;}
	.st29{clip-path:url(#SVGID_60_);fill:#0D3E59;}
	.st30{clip-path:url(#SVGID_62_);fill:#0D3E59;}
	.st31{clip-path:url(#SVGID_64_);fill:#0D3E59;}
	.st32{clip-path:url(#SVGID_66_);fill:#F2CC16;}
	.st33{fill:none;stroke:#0D3E59;stroke-width:3;stroke-miterlimit:10;}
	.st34{clip-path:url(#SVGID_68_);fill:#F2CC16;}
	.st35{clip-path:url(#SVGID_70_);fill:#F2CC16;}
	.st36{clip-path:url(#SVGID_72_);fill:#F2CC16;}
	.st37{clip-path:url(#SVGID_74_);fill:#F2CC16;}
	.st38{clip-path:url(#SVGID_76_);fill:#F2CC16;}
	.st39{clip-path:url(#SVGID_78_);fill:#0D3E59;}
	.st40{fill:#0D3E59;}
</style>
<g>
	<defs>
		<polygon id="SVGID_1_" points="56.7,103.4 58.7,116.4 72.7,118.1 78.7,115.4 79.7,106.4 		"/>
	</defs>
	<clipPath id="SVGID_2_">
		<use xlink:href="#SVGID_1_"  style="overflow:visible;"/>
	</clipPath>
	<rect x="51.7" y="98.4" class="st0" width="33" height="24.6"/>
</g>
<g>
	<defs>
		<polygon id="SVGID_3_" points="104.8,108 112.7,131.4 123.3,135 138.7,132.4 143.7,107.4 		"/>
	</defs>
	<clipPath id="SVGID_4_">
		<use xlink:href="#SVGID_3_"  style="overflow:visible;"/>
	</clipPath>
	<rect x="99.8" y="102.4" class="st1" width="49" height="37.5"/>
</g>
<g>
	<defs>
		<path id="SVGID_5_" d="M218.7,130.4c10-12,7-42,7-42c-12-21,0-19,0-19l-11-10l-6-11l-7,1c-9-18-45-20-45-20l-10-10l-3,7
			c-14-21-35-7-35-7l-12-10v13c0,0-11,1-11,4s10,7,4,12s-10-3-10-3c-41-57-32,88-32,88l11-7l1-15c4,6,20,5,20,5l11-1
			c4,34,37,47,37,47c23-1,25,7,25,7c11,19-2,20-2,20c-17-3-23,11-23,11c-7,31-48,23-48,23c-1,7,26,24,26,24
			c22.1,18,24.2,37.5,22.2,50.5c-0.9,0,27,0.3,27.1,0c10.6-53.2,27.7-49.6,27.7-49.6C257.7,180.4,218.7,130.4,218.7,130.4
			 M125.7,134.4c-20-1-23-27-23-27c27,8,41,0,41,0S145.7,135.4,125.7,134.4"/>
	</defs>
	<clipPath id="SVGID_6_">
		<use xlink:href="#SVGID_5_"  style="overflow:visible;"/>
	</clipPath>
	<rect x="41.9" y="4.4" class="st2" width="192" height="459"/>
</g>
<g>
	<defs>
		<path id="SVGID_7_" d="M50.7,126.4c0,0,18.9-26.3,28,4c1.3,4.5-6.6,8.7-13,7C57.7,135.3,50.7,126.4,50.7,126.4"/>
	</defs>
	<clipPath id="SVGID_8_">
		<use xlink:href="#SVGID_7_"  style="overflow:visible;"/>
	</clipPath>
	<rect x="45.7" y="110.9" class="st3" width="38.1" height="32"/>
</g>
<g>
	<defs>
		<path id="SVGID_9_" d="M55.7,203.4c0,0,5,28,0,40s-3,37,6,42s19,1,20-4s-1-32-9-41s0-30,0-30L55.7,203.4z"/>
	</defs>
	<clipPath id="SVGID_10_">
		<use xlink:href="#SVGID_9_"  style="overflow:visible;"/>
	</clipPath>
	<rect x="48" y="198.4" class="st4" width="38.9" height="94.3"/>
</g>
<g>
	<defs>
		<path id="SVGID_11_" d="M7.7,209.4c0,0-14-56,43-79l15,7L77,135l0.7-15.5l13-14c0,0-3.1,29,31,44c0,0,39.1,5.8,33.6,28.4
			c0,0-23.5,0.6-25.5,6.6s-11,26-25,30s-43-11-43-11s-28-8-33-4s-14.8,3.5-18,13C8.7,218.4,7.7,209.4,7.7,209.4"/>
	</defs>
	<clipPath id="SVGID_12_">
		<use xlink:href="#SVGID_11_"  style="overflow:visible;"/>
	</clipPath>
	<rect x="1.2" y="100.4" class="st5" width="159.6" height="119.7"/>
</g>
<g>
	<defs>
		<path id="SVGID_13_" d="M194.3,54.9c3.8,3.8,8.2,8.3,10.1,13.5c1.9,5.3,2.3,12.3,2.7,17.9c0.5,6.5,1,13.7,0.4,20.3
			c-0.2,2.1-0.4,4.6-0.7,6.8c-0.2,1.4-0.9,2.6-1.3,3.9c-0.2,0.7-1.6,5.4-0.8,3c1.4-1.8,2.8-3.6,4.1-5.4c-0.2,0.1-0.4,0.2-0.6,0.3
			c-10.3,5.3-1.2,20.8,9.1,15.5c2.4-1.2,3.9-3.2,4.7-5.7c0.4-1,0.6-2,0.6-3.1c-0.2,1.4-0.1,1.1,0.4-0.7c1.5-3.6,1.3-7.2,1.7-11
			c0.8-8,1-16.6,0.2-24.8c-0.8-7.9-1.4-17.6-4.5-24.9c-3.1-7.1-8.1-13.1-13.5-18.5C198.8,34,186.1,46.7,194.3,54.9"/>
	</defs>
	<clipPath id="SVGID_14_">
		<use xlink:href="#SVGID_13_"  style="overflow:visible;"/>
	</clipPath>
	<rect x="186.6" y="34.5" class="st6" width="43.9" height="102.4"/>
</g>
<g>
	<defs>
		<path id="SVGID_15_" d="M207.6,146.9c1.9,4.1,3.8,9.6,4,14.1c0.2,4.9,1.2,10,0.5,14.9c-0.6,4.5-6.1,9.8-3.1,18.9
			c0.1,0.3,0.3,0.5,0.4,0.7c3.6,6.7,14.7,5.3,16.4-2.1c1.1-4.6,3-8.7,3.8-13.4c1-5.9,0.4-11.8,0-17.7c-0.4-5.9-1.7-10.9-3.3-16.6
			c-0.8-2.7-1.9-5.4-3.1-7.9c-0.6-1.3-1.3-2.8-2.2-3.9c-0.2-0.4-0.4-0.8-0.6-1.1c0.1,1.4,0.1,1.2,0.1-0.5c0-6.6-7.8-16.5-12.8-15.5
			c-3.8,0.7-5.2,10.5-5.2,15.5C202.4,138,205.2,141.9,207.6,146.9z"/>
	</defs>
	<clipPath id="SVGID_16_">
		<use xlink:href="#SVGID_15_"  style="overflow:visible;"/>
	</clipPath>
	<rect x="197.4" y="111.7" class="st7" width="37.7" height="93.2"/>
</g>
<g>
	<defs>
		<path id="SVGID_17_" d="M127.7,83.7c2.1,3.6,3.8,6.5,6.6,9.8c5,5.9,11.6-1.6,6.7-7.5c0.4,0.5-0.5-1.9-0.6-2.5
			c-0.4-1.4-0.8-2.7-1.4-4c-1-2.4-2.8-4.2-4.1-6.4c-3.1-5.1-9.3-7.9-15.2-7.9c-7.7,0.1-7.7,12.1,0,12
			C123.6,77.3,125.8,80.4,127.7,83.7z"/>
	</defs>
	<clipPath id="SVGID_18_">
		<use xlink:href="#SVGID_17_"  style="overflow:visible;"/>
	</clipPath>
	<rect x="109" y="60.3" class="st8" width="38.8" height="40.4"/>
</g>
<g>
	<defs>
		<path id="SVGID_19_" d="M118.1,32c1-2.9,5.2-2.6,7.4-1.9c3.9,1.4,5.5,3.9,8.2,6.9c2.7,2.9,4.7,5.8,6.4,9.4c1.6,3.4,4.4,6.3,5.4,10
			c2,7.4,13.6,4.3,11.6-3.2c-0.8-3.1-2.6-6.5-4.3-9.1c-1.5-2.4-2.6-5-4.1-7.4c-3-4.9-7.5-10.3-11.7-14.1c-9.1-8.3-26.3-6.4-30.3,6.2
			C104.1,36.1,115.7,39.3,118.1,32"/>
	</defs>
	<clipPath id="SVGID_20_">
		<use xlink:href="#SVGID_19_"  style="overflow:visible;"/>
	</clipPath>
	<rect x="101.2" y="12.5" class="st9" width="61.1" height="53.1"/>
</g>
<g>
	<defs>
		<path id="SVGID_21_" d="M143.8,31.5c4.8,4.5,7.4,12.3,9.8,18.3c1.2,3,4,5.1,7.4,4.2c2.9-0.8,5.4-4.4,4.2-7.4
			c-3.2-8.1-6.5-17.5-12.9-23.6C146.7,17.7,138.2,26.2,143.8,31.5"/>
	</defs>
	<clipPath id="SVGID_22_">
		<use xlink:href="#SVGID_21_"  style="overflow:visible;"/>
	</clipPath>
	<rect x="136.9" y="16.4" class="st10" width="33.6" height="42.8"/>
</g>
<g>
	<defs>
		<path id="SVGID_23_" d="M80.9,33.6c0-4.4-3.1-8-7.1-9.4c-0.2-0.1-1.9-0.7-1-0.3c-0.7-0.3-1.4-0.7-2.1-1.1c-2.1-1-4-1.3-6.3-1.2
			c-3.2,0.1-6,2.7-6,6c0,3.2,2.7,6.1,6,6c0.7,0,7.2,6,10.4,6C78.2,39.6,80.9,36.8,80.9,33.6l-14.2-5.1"/>
	</defs>
	<clipPath id="SVGID_24_">
		<use xlink:href="#SVGID_23_"  style="overflow:visible;"/>
	</clipPath>
	<rect x="53.5" y="16.6" class="st11" width="32.4" height="28"/>
</g>
<g>
	<defs>
		<path id="SVGID_25_" d="M127.4,153.7c3.3,2.9,6.1,3.4,10.3,3.7c3.3,0.2,5.6,1.1,8.6,2.2c0.9,0.5,1.9,0.7,2.9,0.6
			c-1.4-0.2-1.5,0-0.5,0.5c0.9,1.1,1.5,1.8,2.1,3.1c1.2,2.9,1.6,6.3,2.5,9.4c2.8,9.2,17.3,5.3,14.5-4c-1.6-5.2-2.1-10.3-5.1-15
			c-3.1-4.8-7.8-8.2-13.4-8.9l3.8,1c-2.7-1.6-5.1-2.6-8.2-3.1c-1.6-0.3-3.2-0.5-4.8-0.7c-0.7-0.1-1.5-0.2-2.2-0.2
			c-2-0.2-1.9,0.1,0.3,0.7C130.8,136.8,120.1,147.4,127.4,153.7"/>
	</defs>
	<clipPath id="SVGID_26_">
		<use xlink:href="#SVGID_25_"  style="overflow:visible;"/>
	</clipPath>
	<rect x="120" y="136.2" class="st12" width="53.1" height="47.3"/>
</g>
<g>
	<defs>
		<path id="SVGID_27_" d="M123.8,287.9c0.3-3.5,0.4-7.7-0.1-12.6c-1.9-19.6-12.3-29.9-27.4-39.4c-16.4-10.2-18.1-13.8-20.5-20.9
			c-0.5-1.6-0.7-1.7-4.2-3.1c-3.1-1.2-7.7-3.1-14.6-7.6c-2.1-0.1-7.3-0.5-18.3-2c-13.2-1.8-17.2,2.2-26.8,13.8c-0.8,1-2,1.4-3.3,1.2
			c-1.2-0.2-2.3-1-2.7-2.2c-0.2-0.6-5.8-15.3-3.3-33.5c4-29.3,25.5-44.9,43.8-53c-3.3-5.3-9.2-22.7-2.7-78.2c0-0.1,0-0.1,0-0.2
			c0.9-5.2,5.9-31.5,18.4-34c6.1-1.2,12,3,18,12.7c1,1.6,0.5,3.8-1.1,4.8c-1.6,1-3.8,0.5-4.8-1.1c-4.1-6.6-8-10.1-10.7-9.5
			c-5.8,1.1-11.1,17.4-12.9,28.2c-4.5,38.2-2.9,59-0.5,68.3c3.6-5.5,8-7.3,11.5-7.7c7.7-1,15.4,4,17.4,7c1.4,2.1,4.8,9.3,2.4,15.3
			c-0.9,2.2-2.9,5-7.6,6.1c-10.9,2.4-15.1-1.8-19.2-5.9c-0.7-0.7-1.4-1.1-1.8-1c0,0-0.2,0-0.2,0c-0.3,0.3-0.7,0.6-1.1,0.8
			c-24.8,10.2-38.9,26.5-42,48.2c-1.4,9.9-0.1,18.8,1.2,24.3c7.9-8.9,14.5-13.2,28.9-11.3c14.4,1.9,18.5,2,18.6,2
			c0.7,0,1.4,0.2,1.9,0.6c6.7,4.5,11,6.2,14.1,7.4c3.7,1.5,6.7,2.7,8.3,7.4c1.8,5.4,2.6,7.8,17.5,17.1c14.6,9.1,28.4,20.8,30.6,44.6
			c0.5,5.2,0.6,9.5,0.3,13.4h21c0,0,0.7-2,0.8-2.6c5.8-38,24.7-49,27.7-50.5c3.4-2.5,46.3-34.5,46.3-69c0-35.4-27.8-49.7-28.1-49.9
			c-1.7-0.9-2.4-3-1.6-4.7c0.9-1.7,3-2.4,4.7-1.6c1.3,0.7,31.9,16.4,31.9,56.1c0,39.4-47.5,73.4-49.5,74.9c-0.2,0.1-0.4,0.2-0.6,0.3
			c-0.2,0.1-18.4,9-24,45.3c-0.1,0.6-0.2,1.1-0.3,1.7c-0.3-0.1-22.2-0.2-31.5-0.2C125.4,288,123.9,287.9,123.8,287.9z M54.5,126.5
			c1.7,0.3,3.4,1.2,5.2,3c3.8,3.8,5.6,5.6,12.8,4.1c1.8-0.4,2.3-1.2,2.6-1.8c1-2.5-0.6-7.1-1.7-8.8c-0.8-1-6.1-4.7-10.9-3.9
			C59.1,119.5,56.5,122.1,54.5,126.5z"/>
	</defs>
	<clipPath id="SVGID_28_">
		<use xlink:href="#SVGID_27_"  style="overflow:visible;"/>
	</clipPath>
	<rect x="-3" y="11.2" class="st13" width="241.7" height="465.2"/>
</g>
<g>
	<defs>
		<path id="SVGID_29_" d="M94.2,52.4c-0.4,0-0.9-0.1-1.3-0.3c-1.3-0.5-12.8-5.4-17.1-9.8c-0.8-0.8-2.9-2.9-1.7-5.4
			c1.2-2.5,3.9-2.3,5.8-2.1c1.8,0.2,4.4,0.4,6.8-0.3c-0.2-1.5-1-3.8-3.2-6.5c-3.5-4.2-1.2-6.8-0.5-7.5c2.2-2,6.7-1.5,10.5-0.3
			c-0.2-4.1-0.7-7.6-1.3-8.5c-1.5-2.3-0.4-4.2,0.5-5c2.4-2.1,4.8-0.2,6.9,1.4c1.2,1,2.9,2.3,4.9,4c3.5,2.9,6.9,5.9,6.9,5.9
			c1.5,1.3,1.6,3.5,0.3,4.9c-1.3,1.5-3.5,1.6-4.9,0.3c-2.1-1.8-4.4-3.8-6.5-5.6c0.3,3.1,0.3,6.1,0.3,7.9v8.5l-5.9-5.9
			c-0.6-0.4-2-1-3.6-1.4c3.2,5.6,2.5,10,2.4,10.6l-0.3,1.6L92,40c-1.6,0.9-3.2,1.4-4.8,1.7c2.9,1.6,6.1,3,8.4,4
			c1.8,0.7,2.6,2.8,1.9,4.6C96.9,51.6,95.6,52.4,94.2,52.4z"/>
	</defs>
	<clipPath id="SVGID_30_">
		<use xlink:href="#SVGID_29_"  style="overflow:visible;"/>
	</clipPath>
	<rect x="68.7" y="1" class="st14" width="49" height="56.5"/>
</g>
<g>
	<defs>
		<path id="SVGID_31_" d="M161.2,66.4c-1.3,0-2.5-0.7-3.1-1.9c-2.2-4.3-4.3-8.5-6.3-12.5c-9.4-19.2-16.8-34.3-29.4-33.6
			c-14.5,0.8-14.7,18.7-14.7,19.5c0,1.9-1.6,3.5-3.5,3.5c-1.9,0-3.5-1.6-3.5-3.5c0-8.8,4.5-25.6,21.3-26.5c17.3-1,26,16.9,36.1,37.5
			c2,4,4,8.2,6.2,12.4c0.9,1.7,0.2,3.8-1.5,4.7C162.3,66.3,161.8,66.4,161.2,66.4"/>
	</defs>
	<clipPath id="SVGID_32_">
		<use xlink:href="#SVGID_31_"  style="overflow:visible;"/>
	</clipPath>
	<rect x="95.7" y="6.4" class="st15" width="74" height="65"/>
</g>
<g>
	<defs>
		<rect id="SVGID_33_" x="118.1" width="87.6" height="53.4"/>
	</defs>
	<clipPath id="SVGID_34_">
		<use xlink:href="#SVGID_33_"  style="overflow:visible;"/>
	</clipPath>
	<g class="st16">
		<g>
			<defs>
				<rect id="SVGID_35_" x="117" y="-1" width="90" height="55"/>
			</defs>
			<clipPath id="SVGID_36_">
				<use xlink:href="#SVGID_35_"  style="overflow:visible;"/>
			</clipPath>
			<g class="st17">
				<defs>
					<path id="SVGID_37_" d="M202.2,53.4c-1.2,0-2.3-0.6-3-1.7c-11.4-18.5-27.2-18.2-36.6-18c-3.3,0.1-5.6,0.1-7.5-0.5
						c-4-1.3-6.1-6.1-7.5-10.7c-3.2,2.9-7,4.1-7.2,4.2l-2,0.6l-1.5-1.4c-4.2-4-8.2-8.4-10.8-11.4c-0.2,0.8-0.4,1.3-0.6,1.7
						c-0.7,1.8-2.7,2.7-4.5,2c-1.8-0.7-2.7-2.7-2.1-4.5c0.9-2.4,1.2-5,1.1-6.4c-2.2-2.9-2-3.4-1.7-4.7l0.5-2l2-0.5
						c2-0.6,3.4,0.8,3.9,1.3c0.7,0.7,1.2,1.6,1.6,2.5c2.6,3.3,8.1,9.7,13.8,15.3c1.8-0.9,4.3-2.6,4.7-4.9c0.5-3.3,2.3-4,3.7-4.1
						c3.2-0.1,3.8,2.6,4.6,6c2,8,3.4,10,4.2,10.4c0.8,0.2,3.1,0.2,5.2,0.2c10.2-0.2,29.2-0.6,42.7,21.3c1,1.6,0.5,3.8-1.1,4.8
						C203.5,53.3,202.9,53.4,202.2,53.4"/>
				</defs>
				<clipPath id="SVGID_38_">
					<use xlink:href="#SVGID_37_"  style="overflow:visible;"/>
				</clipPath>
				<g class="st18">
					<defs>
						<rect id="SVGID_39_" x="118" width="88" height="54"/>
					</defs>
					<clipPath id="SVGID_40_">
						<use xlink:href="#SVGID_39_"  style="overflow:visible;"/>
					</clipPath>
					<rect x="113.1" y="-5" class="st19" width="97.6" height="63.4"/>
				</g>
			</g>
		</g>
	</g>
</g>
<g>
	<defs>
		<path id="SVGID_41_" d="M219.2,78.4c-1.2,0-2.4-0.6-3-1.8c-1-1.7-0.4-3.8,1.3-4.8c1.9-1.1,3.9-1.8,5.8-2.3
			c-0.5-0.1-1.1-0.3-1.6-0.6c-0.8-0.4-2.6-1.3-3.1-5.9c-1.8,0.9-2.8,0.7-3.4,0.6c-1.4-0.2-2.5-1.1-3.1-2.3c-0.5-1.1-0.9-3.1-1.7-8.3
			c0,0,0,0-0.1,0c-1.8,0.6-3.8-0.4-4.4-2.2c-0.6-1.8,0.3-3.7,2-4.3c0.1-0.1,0.8-0.7,0.8-2.8c0-3.7,2.3-4.3,3.3-4.3
			c3.3-0.2,3.8,3,4.1,4.8c0.2,1.1,0.4,2.7,0.7,4.4c0.2,1.7,0.6,4.3,1,6.4c0.7-0.6,1.4-1.2,2-1.8l7-7l-1.1,9.9
			c-0.3,2.4-0.3,5.2-0.1,6.7c0.1,0,0.1,0,0.2,0c2.7,0.5,7.6,1.5,11.5,8.2l4.1,7.1l-8-2c-0.1,0-6.8-1.6-12.4,1.6
			C220.4,78.3,219.8,78.4,219.2,78.4z"/>
	</defs>
	<clipPath id="SVGID_42_">
		<use xlink:href="#SVGID_41_"  style="overflow:visible;"/>
	</clipPath>
	<rect x="200.7" y="34.6" class="st20" width="45.6" height="48.8"/>
</g>
<g>
	<defs>
		<path id="SVGID_43_" d="M219.2,133.7c-1,0-2-0.5-2.7-1.3c-1.2-1.5-1-3.7,0.5-4.9c3.5-2.8,5.4-11.6,5.3-24.1
			c-0.1-10.3-1.5-19.7-1.5-19.8c-0.3-1.9,1-3.7,2.9-4c1.9-0.3,3.7,1,4,2.9c0.6,4.1,5.9,40.8-6.3,50.5
			C220.7,133.4,219.9,133.7,219.2,133.7"/>
	</defs>
	<clipPath id="SVGID_44_">
		<use xlink:href="#SVGID_43_"  style="overflow:visible;"/>
	</clipPath>
	<rect x="210.7" y="74.4" class="st21" width="23.7" height="64.2"/>
</g>
<g>
	<defs>
		<path id="SVGID_45_" d="M74.8,122.7c-0.3,0-0.5,0-0.7,0c-1.9-0.2-3.3-1.9-3.1-3.8c0.2-1.9,1.9-3.3,3.8-3.1
			c2.6-0.7,7.1-20.4,2.2-38.6c-1.2-4.5-3.5-9.4-5.9-8.8c-4.4,1.2-7.7,10-8.8,24.2c-1,12-0.2,23.7-0.2,23.8c0.1,1.9-1.3,3.6-3.2,3.7
			c-1.9,0.1-3.6-1.3-3.7-3.2c0-0.5-0.9-12.3,0.2-24.8c1.5-18.3,6.1-28.3,14-30.4c2.1-0.6,6.3-0.8,9.9,3.8
			c8.2,10.5,8.9,41.5,2.9,52.3C79.8,121.9,76.8,122.7,74.8,122.7"/>
	</defs>
	<clipPath id="SVGID_46_">
		<use xlink:href="#SVGID_45_"  style="overflow:visible;"/>
	</clipPath>
	<rect x="49.8" y="56.3" class="st22" width="41.3" height="71.5"/>
</g>
<g>
	<defs>
		<path id="SVGID_47_" d="M72.4,111c-9.8,0-14.7-2.9-15-3c-1.7-1-2.2-3.1-1.2-4.8c1-1.6,3.1-2.2,4.8-1.2c0.2,0.1,6.8,3.6,20.3,1.3
			c1.9-0.3,3.7,0.9,4,2.8c0.3,1.9-0.9,3.7-2.8,4C78.7,110.7,75.3,111,72.4,111"/>
	</defs>
	<clipPath id="SVGID_48_">
		<use xlink:href="#SVGID_47_"  style="overflow:visible;"/>
	</clipPath>
	<rect x="50.7" y="96.4" class="st23" width="39.6" height="19.5"/>
</g>
<g>
	<defs>
		<path id="SVGID_49_" d="M72.7,111.2c0,2.9-1.6,5.2-3.5,5.2s-3.5-2.4-3.5-5.2s1.6-5.2,3.5-5.2S72.7,108.3,72.7,111.2"/>
	</defs>
	<clipPath id="SVGID_50_">
		<use xlink:href="#SVGID_49_"  style="overflow:visible;"/>
	</clipPath>
	<rect x="60.7" y="100.9" class="st24" width="17" height="20.5"/>
</g>
<g>
	<defs>
		<path id="SVGID_51_" d="M119.7,121.7c0,5.9-2,10.8-4.5,10.8s-4.5-4.8-4.5-10.8s2-10.8,4.5-10.8S119.7,115.8,119.7,121.7"/>
	</defs>
	<clipPath id="SVGID_52_">
		<use xlink:href="#SVGID_51_"  style="overflow:visible;"/>
	</clipPath>
	<rect x="105.7" y="105.9" class="st25" width="19" height="31.5"/>
</g>
<g>
	<defs>
		<path id="SVGID_53_" d="M127.1,138.5c-0.3,0-0.7,0-1,0c-15.9-0.8-25.7-13.8-26.8-35.8c-0.1-1.5-1.6-23.7,8.4-35.1
			c3.7-4.2,8.4-6.4,14-6.6c5.5-0.2,10.3,1.5,14.2,5.3c10.8,10.5,11,33.1,11,35.5c0.2,2.2,1.5,22.2-7.6,31.6
			C135.9,136.8,131.9,138.5,127.1,138.5 M122.6,67.9c-0.2,0-0.4,0-0.7,0c-3.7,0.2-6.6,1.6-9,4.3c-8.2,9.3-6.7,29.7-6.6,29.9l0,0.1
			c1.2,23.4,11.7,28.8,20.2,29.2c3.2,0.2,5.7-0.8,7.7-2.8c6-6.2,6.1-21.1,5.7-26.4l0-0.2l0-0.2c0-0.2,0.2-21.9-8.9-30.6
			C128.5,69,125.8,67.9,122.6,67.9"/>
	</defs>
	<clipPath id="SVGID_54_">
		<use xlink:href="#SVGID_53_"  style="overflow:visible;"/>
	</clipPath>
	<rect x="94.1" y="55.9" class="st26" width="57.8" height="87.5"/>
</g>
<g>
	<defs>
		<path id="SVGID_55_" d="M118.4,114.5c-12.7,0-18.3-8.1-19.5-12.6l6.7-1.9c0,0,0.7,2.1,2.7,4.1c2.7,2.6,6.7,3.7,11.7,3.4
			c3.6-0.2,6.8-0.3,9.5-0.4c9.7-0.2,10.2-0.7,10.4-2.6l6.9,0.9c-1,8.4-8.2,8.5-17.2,8.7c-2.7,0.1-5.7,0.1-9.2,0.4
			C119.7,114.5,119.1,114.5,118.4,114.5"/>
	</defs>
	<clipPath id="SVGID_56_">
		<use xlink:href="#SVGID_55_"  style="overflow:visible;"/>
	</clipPath>
	<rect x="93.8" y="95" class="st27" width="58" height="24.5"/>
</g>
<g>
	<defs>
		<path id="SVGID_57_" d="M58.9,204.4l-1.3-6.9c25.7-4.9,35.1-13,42-18.9c2.8-2.4,5.3-4.6,8.3-5.9c8.9-4,14.8-2,16.6-1.1
			c20.7,5,27,4.1,28.6,3.6c0.5-2.2,1.6-10-5.9-15.4c-3.4-2.5-6.2-2.5-10.1-2.6c-7-0.2-15.7-0.5-30.2-13.6
			c-7.3-6.6-15.9-17.5-18.9-33.4c-2.3,2.9-4.6,5.6-5.7,6.9l-5.2-4.6c4.3-4.9,9.3-11.4,9.7-13.3c0.8-3.2,3.4-3.1,3.9-3.1
			c3.1,0.3,3.2,3.4,3.2,4.4c0.7,18.8,10,31,17.6,37.9c12.5,11.4,19.5,11.6,25.7,11.8c4.4,0.1,8.9,0.3,14,4
			c10.2,7.4,9.9,18.6,8.3,23.7c-0.2,0.8-0.6,1.8-1.8,2.8c-2.7,2.1-9.2,4.1-35.4-2.2l-0.6-0.1l-0.4-0.3c-0.1,0-3.8-1.9-10.8,1.2
			c-2,0.9-4,2.6-6.5,4.8C97.1,190,86.4,199.2,58.9,204.4"/>
	</defs>
	<clipPath id="SVGID_58_">
		<use xlink:href="#SVGID_57_"  style="overflow:visible;"/>
	</clipPath>
	<rect x="52.6" y="91" class="st28" width="112.9" height="118.4"/>
</g>
<g>
	<defs>
		<path id="SVGID_59_" d="M102.2,217.4c-17.2,0-23.5-2-24.1-2.2l2.2-6.6c0.1,0,5.9,1.8,21.9,1.8c11.2,0,20.2-16.5,22.8-22.8l0.1-0.2
			c0.5-1,4.9-9.6,21.5-11.9l1,6.9c-12.2,1.7-15.7,7.2-16.1,7.9C130.4,192.9,119.8,217.4,102.2,217.4"/>
	</defs>
	<clipPath id="SVGID_60_">
		<use xlink:href="#SVGID_59_"  style="overflow:visible;"/>
	</clipPath>
	<rect x="73.1" y="170.6" class="st29" width="79.4" height="51.9"/>
</g>
<g>
	<defs>
		<path id="SVGID_61_" d="M72.1,293.7c-0.9,0-1.7-0.1-2.6-0.3c-11.6-2.5-13.7-7.2-15.5-14.1c-0.5-1.9-1-3.8-1.9-5.9
			c-4.2-9.4,0.7-28.3,1.7-32c0.9-28.5-2.2-39.3-2.3-39.4l6.7-2.1c0.1,0.5,3.6,11.9,2.6,42.2l0,0.4l-0.1,0.4
			c-1.6,5.5-5,21.2-2.2,27.6c1.1,2.6,1.8,4.9,2.3,6.9c1.4,5.2,2,7.3,10.2,9.1c1.5,0.3,3.4,0.3,5.4-2.8c4.5-7.2,4-23.5-0.8-29.6
			c-8.6-10.7-7.5-42.5-7.3-46.1l7,0.3c-0.4,9-0.1,34.1,5.8,41.4c6.6,8.3,7.3,27.9,1.3,37.6C79.7,291.5,76.2,293.7,72.1,293.7"/>
	</defs>
	<clipPath id="SVGID_62_">
		<use xlink:href="#SVGID_61_"  style="overflow:visible;"/>
	</clipPath>
	<rect x="45.4" y="194.9" class="st30" width="46" height="103.7"/>
</g>
<g>
	<defs>
		<path id="SVGID_63_" d="M109.2,164.4c-13.5,0-24.5-16.6-24.5-37c0-0.6,0-1.1,0-1.7l3,0c0.4,18.7,10.7,34,23.8,35.6l11.2,1.4
			l-11.2,1.6C110.8,164.4,110,164.4,109.2,164.4"/>
	</defs>
	<clipPath id="SVGID_64_">
		<use xlink:href="#SVGID_63_"  style="overflow:visible;"/>
	</clipPath>
	<rect x="79.7" y="120.7" class="st31" width="48" height="48.7"/>
</g>
<g>
	<defs>
		<path id="SVGID_65_" d="M137.2,168.8c1.1,5.6-1,10.8-4.7,11.5c-3.7,0.8-7.7-3.2-8.8-8.8c-1.1-5.6,1-10.8,4.7-11.5
			C132.1,159.2,136,163.1,137.2,168.8"/>
	</defs>
	<clipPath id="SVGID_66_">
		<use xlink:href="#SVGID_65_"  style="overflow:visible;"/>
	</clipPath>
	<rect x="118.3" y="154.9" class="st32" width="24.2" height="30.5"/>
</g>
<path class="st33" d="M137.2,168.8c1.1,5.6-1,10.8-4.7,11.5c-3.7,0.8-7.7-3.2-8.8-8.8c-1.1-5.6,1-10.8,4.7-11.5
	C132.1,159.2,136,163.1,137.2,168.8z"/>
<g>
	<defs>
		<path id="SVGID_67_" d="M142.2,188.8c1.1,5.6-1,10.8-4.7,11.5c-3.7,0.8-7.7-3.2-8.8-8.8c-1.1-5.6,1-10.8,4.7-11.5
			C137.1,179.2,141,183.1,142.2,188.8"/>
	</defs>
	<clipPath id="SVGID_68_">
		<use xlink:href="#SVGID_67_"  style="overflow:visible;"/>
	</clipPath>
	<rect x="123.3" y="174.9" class="st34" width="24.2" height="30.5"/>
</g>
<path class="st33" d="M142.2,188.8c1.1,5.6-1,10.8-4.7,11.5c-3.7,0.8-7.7-3.2-8.8-8.8c-1.1-5.6,1-10.8,4.7-11.5
	C137.1,179.2,141,183.1,142.2,188.8z"/>
<g>
	<defs>
		<path id="SVGID_69_" d="M145.3,210.4c0.6,5.7-2,10.6-5.8,11c-3.8,0.4-7.4-3.9-7.9-9.6c-0.6-5.7,2-10.7,5.8-11
			C141.1,200.4,144.7,204.7,145.3,210.4"/>
	</defs>
	<clipPath id="SVGID_70_">
		<use xlink:href="#SVGID_69_"  style="overflow:visible;"/>
	</clipPath>
	<rect x="126.4" y="195.8" class="st35" width="23.9" height="30.7"/>
</g>
<path class="st33" d="M145.3,210.4c0.6,5.7-2,10.6-5.8,11c-3.8,0.4-7.4-3.9-7.9-9.6c-0.6-5.7,2-10.6,5.8-11
	C141.1,200.4,144.7,204.7,145.3,210.4z"/>
<g>
	<defs>
		<path id="SVGID_71_" d="M147.3,231.4c0.6,5.7-2,10.6-5.8,11c-3.8,0.4-7.4-3.9-7.9-9.6c-0.6-5.7,2-10.7,5.8-11
			C143.1,221.4,146.7,225.7,147.3,231.4"/>
	</defs>
	<clipPath id="SVGID_72_">
		<use xlink:href="#SVGID_71_"  style="overflow:visible;"/>
	</clipPath>
	<rect x="128.4" y="216.8" class="st36" width="23.9" height="30.7"/>
</g>
<path class="st33" d="M147.3,231.4c0.6,5.7-2,10.6-5.8,11c-3.8,0.4-7.4-3.9-7.9-9.6c-0.6-5.7,2-10.6,5.8-11
	C143.1,221.4,146.7,225.7,147.3,231.4z"/>
<g>
	<defs>
		<path id="SVGID_73_" d="M148.3,252.4c0.6,5.7-2,10.6-5.8,11c-3.8,0.4-7.4-3.9-7.9-9.6c-0.6-5.7,2-10.7,5.8-11
			C144.1,242.4,147.7,246.7,148.3,252.4"/>
	</defs>
	<clipPath id="SVGID_74_">
		<use xlink:href="#SVGID_73_"  style="overflow:visible;"/>
	</clipPath>
	<rect x="129.4" y="237.8" class="st37" width="23.9" height="30.7"/>
</g>
<path class="st33" d="M148.3,252.4c0.6,5.7-2,10.6-5.8,11c-3.8,0.4-7.4-3.9-7.9-9.6c-0.6-5.7,2-10.6,5.8-11
	C144.1,242.4,147.7,246.7,148.3,252.4z"/>
<g>
	<defs>
		<path id="SVGID_75_" d="M150.3,273.7c0.4,5.7-2.4,10.6-6.2,10.8c-3.8,0.3-7.2-4.2-7.6-9.9c-0.4-5.7,2.4-10.6,6.2-10.8
			C146.5,263.5,149.9,267.9,150.3,273.7"/>
	</defs>
	<clipPath id="SVGID_76_">
		<use xlink:href="#SVGID_75_"  style="overflow:visible;"/>
	</clipPath>
	<rect x="131.5" y="258.8" class="st38" width="23.9" height="30.7"/>
</g>
<path class="st33" d="M150.3,273.7c0.4,5.7-2.4,10.6-6.2,10.8c-3.8,0.3-7.2-4.2-7.6-9.9c-0.4-5.7,2.4-10.6,6.2-10.8
	C146.5,263.5,149.9,267.9,150.3,273.7z"/>
<g>
	<defs>
		<path id="SVGID_77_" d="M141.2,124.4c0,21.3-12.3,38.5-27.5,38.5c-0.8,0-1.6,0-2.4-0.2c11.7-1.6,20.9-16.8,20.9-35.3
			c0-19.6-10.3-35.5-23-35.5c-12.3,0-22.4,15-23,33.8c0-0.4,0-0.9,0-1.3c0-21.3,12.3-38.5,27.5-38.5S141.2,103.2,141.2,124.4"/>
	</defs>
	<clipPath id="SVGID_78_">
		<use xlink:href="#SVGID_77_"  style="overflow:visible;"/>
	</clipPath>
	<rect x="81.2" y="80.9" class="st39" width="65" height="87"/>
</g>
<path class="st33" d="M141.2,124.4c0,21.3-12.3,38.5-27.5,38.5c-0.8,0-1.6,0-2.4-0.1c11.7-1.6,20.9-16.8,20.9-35.4
	c0-19.6-10.3-35.5-23-35.5c-12.3,0-22.4,15-23,33.8c0-0.4,0-0.9,0-1.3c0-21.3,12.3-38.5,27.5-38.5S141.2,103.2,141.2,124.4z"/>
<g>
	<defs>
		<rect id="SVGID_79_" x="-654" y="-336" width="1440" height="1024"/>
	</defs>
	<clipPath id="SVGID_80_">
		<use xlink:href="#SVGID_79_"  style="overflow:visible;"/>
	</clipPath>
</g>
<g>
	<path class="st40" d="M264.5,126.8L262.2,17l34.4,2.1l3.5,75l26.8,0.7l4.7,31.7L264.5,126.8z"/>
	<path class="st40" d="M347.1,125.7l27-105.7l47.7-0.7l25.6,106.6l-33.5,3.2l-4.2-21h-24.5l-4,21L347.1,125.7z M403.5,80.3
		l-6.8-32.8l-5.8,33.3L403.5,80.3z"/>
	<path class="st40" d="M517.8,89.1l-11.6,39.6l-31.9,1.6L462.8,21.1h32.8l4.4,41.9l3.5-24.9l27.9,0.5l3.9,26.8l8.1-44.3l34.5,3.5
		l-12.4,104.1l-38.2-2.8L517.8,89.1z"/>
	<path class="st40" d="M662.4,97.3l-0.7,30l-42.6-1.4l-1.1-28.6l-26.1-77l36.6-2.1l11.6,44l13-46.1l33.5,6L662.4,97.3z"/>
	<path class="st40" d="M779.3,126.6l-79.2,0.7l4-106.8l73.6-0.5c-0.4,5.7-0.6,10.9-0.9,15.4c-0.1,2-0.2,3.9-0.3,5.7
		c-0.1,1.8-0.1,3.4-0.2,4.9c-0.1,1.5-0.1,3-0.1,4.6l-36.5,0.2v9.6l27.2-0.4l-2.5,26.3l-25.9,0.9l-0.5,8.4c7.5-0.1,14.2-0.2,20.2-0.4
		c2.6,0,5.1,0,7.4-0.1c2.4-0.1,4.6-0.1,6.5-0.2c1.9-0.1,4.1-0.1,6.6-0.1L779.3,126.6z"/>
	<path class="st40" d="M879.4,106.4l-19.8,24.2l-24.4-20.3l-0.2,17l-34.7-1.4L803,19.3l25.9-1.2c6.5-0.4,12.2-0.1,17,0.6
		c4.8,0.8,8.9,1.9,12.3,3.5c3.4,1.6,6.2,3.5,8.6,5.8c2.3,2.3,4.4,4.8,6.1,7.5c1.3,2.1,2.4,5.6,3.3,10.4c0.9,4.9,1.3,10.2,1.1,16
		c-0.2,5.8-1.4,11.5-3.4,17.2c-2,5.7-5.4,10.3-10.1,13.9L879.4,106.4z M838.4,71.9c3.9-1.3,6.5-3.4,7.8-6.3
		c1.3-2.9,1.8-6.8,1.3-11.6c-1.3-2.9-3.1-5-5.4-6.1c-2.3-1.2-4.7-1.8-7.2-1.9l0.2,26.6c0.6-0.1,1.1-0.2,1.7-0.4
		C837.3,72.1,837.8,72,838.4,71.9z"/>
</g>
<g>
	<path class="st40" d="M260,162.2l50,1.2c8.2,0.7,14.7,2.9,19.6,6.5c4.9,3.6,8.6,8.2,11.2,13.7c2.6,5.5,4.2,11.7,4.9,18.6
		c0.7,6.9,0.9,13.9,0.7,21c-1.4,10.3-3.2,18.6-5.4,25.1c-2.2,6.4-5.1,11.5-8.6,15.1c-3.5,3.6-7.8,6.1-12.9,7.4
		c-5.1,1.3-11.2,1.9-18.3,1.8l-22.1-0.4c-2.8,0-5.5,0-8.2-0.1c-2.6-0.1-5-0.1-7-0.1c-2,0-4.3-0.1-6.7-0.2L260,162.2z M296.4,237.4
		c1.8-0.2,3.6-0.5,5.6-0.7c2-0.2,3.9-0.9,5.9-1.9c1.9-1.1,3.7-2.7,5.2-4.9c1.5-2.2,2.7-5.4,3.5-9.6c-0.1-2.6-0.1-5.2-0.1-7.8
		c0.1-2.6-0.2-5.2-0.9-7.6c-0.6-2.5-1.8-4.7-3.5-6.8c-1.7-2.1-4.4-4-8-5.6c-0.1,0-1,0-2.6-0.1c-1.6-0.1-3.4-0.1-5.4-0.3
		c-2.3-0.1-5-0.2-7.9-0.4l-1.9,45.2c2,0,3.7,0.1,5.1,0.2c1.3,0.1,2.4,0.2,3.4,0.3C295.7,237.4,296.3,237.4,296.4,237.4z"/>
	<path class="st40" d="M448.4,238.1c0,1.9-0.3,4.1-0.9,6.7c-0.6,2.6-1.5,5.2-2.7,8c-1.2,2.7-2.9,5.4-4.9,8.1c-2,2.6-4.6,4.9-7.5,6.9
		c-3,2-6.4,3.5-10.3,4.6c-3.9,1.1-8.4,1.3-13.6,0.9c-5.1-0.5-9.6-1.3-13.5-2.5c-3.9-1.2-7.2-2.7-10.1-4.5c-2.9-1.8-5.3-3.7-7.3-5.8
		c-2-2.1-3.6-4.2-4.9-6.3c-3-4.9-4.9-10.4-5.4-16.5l-4.9-70.5l36.3-1.9l3.5,65.2c0.6,3.3,1.7,5.6,3.4,7c1.7,1.4,3.4,2,5.2,1.8
		s3.3-1.1,4.6-2.7c1.3-1.6,2-4,2-7v-64.7l33.3,1.6L448.4,238.1z"/>
	<path class="st40" d="M471.2,162.2l50,1.2c8.2,0.7,14.7,2.9,19.6,6.5c4.9,3.6,8.6,8.2,11.2,13.7c2.6,5.5,4.2,11.7,4.9,18.6
		c0.7,6.9,0.9,13.9,0.7,21c-1.4,10.3-3.2,18.6-5.4,25.1c-2.2,6.4-5.1,11.5-8.6,15.1c-3.5,3.6-7.8,6.1-12.9,7.4
		c-5.1,1.3-11.2,1.9-18.3,1.8l-22.1-0.4c-2.8,0-5.5,0-8.2-0.1c-2.6-0.1-5-0.1-7-0.1c-2,0-4.3-0.1-6.7-0.2L471.2,162.2z M507.6,237.4
		c1.8-0.2,3.6-0.5,5.6-0.7c2-0.2,3.9-0.9,5.9-1.9c1.9-1.1,3.7-2.7,5.2-4.9c1.5-2.2,2.7-5.4,3.5-9.6c-0.1-2.6-0.1-5.2-0.1-7.8
		c0.1-2.6-0.2-5.2-0.9-7.6c-0.6-2.5-1.8-4.7-3.5-6.8c-1.7-2.1-4.4-4-8-5.6c-0.1,0-1,0-2.6-0.1c-1.6-0.1-3.4-0.1-5.4-0.3
		c-2.3-0.1-5-0.2-7.9-0.4l-1.9,45.2c2,0,3.7,0.1,5.1,0.2c1.3,0.1,2.4,0.2,3.4,0.3C507,237.4,507.5,237.4,507.6,237.4z"/>
	<path class="st40" d="M651.9,272.7l-79.2,0.7l4-106.8l73.6-0.5c-0.4,5.7-0.6,10.9-0.9,15.4c-0.1,2-0.2,3.9-0.3,5.7
		c-0.1,1.8-0.1,3.4-0.2,4.9c-0.1,1.5-0.1,3-0.1,4.6l-36.5,0.2v9.6l27.2-0.4l-2.5,26.3l-25.9,0.9l-0.5,8.4c7.5-0.1,14.2-0.2,20.2-0.4
		c2.6,0,5.1,0,7.4-0.1c2.4-0.1,4.6-0.1,6.5-0.2c1.9-0.1,4.1-0.1,6.6-0.1L651.9,272.7z"/>
</g>
</svg>
