<?xml version="1.0" encoding="utf-8"?>
<!-- Generator: Adobe Illustrator 23.0.0, SVG Export Plug-In . SVG Version: 6.00 Build 0)  -->
<svg version="1.1" id="lama-happy" xmlns="http://www.w3.org/2000/svg" xmlns:xlink="http://www.w3.org/1999/xlink" x="0px" y="0px"
	 viewBox="0 0 212 352" style="enable-background:new 0 0 212 352;" xml:space="preserve">
<path class="st0" d="M165.9,239c0,0,0,0,0,8c0,12.7-0.6,29.3-0.6,29.3l1.7,22.6l-5.1,5.1l2.6,7.7l4.5,3.9l-7,11.4
	c0,0,6.3,12.3,5.9,20.2c-0.1,1.8-0.1,3.4,0,4.8l-106.4,0c0,0-0.8-15.2,5.3-19.1l-6.1-11.4L62,310l-1.7-10.6l-1.1-21.2L58.9,262
	c0,0-6-10,2-15l-3-23l2-22l3-10c0,0,11,17,29,19s6.2,1.1,6.2,1.1l12.6-1.4c0,0,4-3.8,8.1-4.7l14,5l7.5,0.3l26.6-1.2L165.9,239z"/>
<path class="st1" d="M151.2,231c0.6-0.7,0.9-0.1-0.3,0.1c0.7-0.1-1.1,0.1-1,0.1c-2,0.3-4.9,0.7-6.9,0.2c-3.3-0.9-6.1-3.1-9.9-3.4
	c-4-0.3-7.9,0.1-11.8,0.3c-4,0.2-8.4,0.5-12.2,1.7c-3.2,1.1-5.1,3.7-8.4,4.6c-3.5,1-8.1,0.9-11.8,0.5c-4.4-0.5-7.1-0.9-10.8-1.4
	c-0.2,0-2.6-0.5-4.1-0.5c-2.2-0.1-4.5,0.1-6.6,0.7c-11.1,3.3-6.4,20.7,4.8,17.4c1.9-0.6,5.9,0.4,7.3,0.6c3.9,0.5,8.8,1.4,13.2,1.4
	c4.8,0,9.5,0,14-1.6c2.1-0.7,4.2-1.4,6.1-2.6c0.8-0.5,2.3-1.4,2.7-2.1c0.7-0.5,0.6-0.5-0.1-0.1c-1.1,0.5-0.8,0.5,0.8,0.1
	c3.7-0.1,7.5-0.8,11.3-1c0.8,0,1.6,0.1,2.4,0.1c0.5,0,3.7,0.3,1.6-0.3c1.9,0.6,3.6,2.1,5.5,2.8c7.7,2.7,21.2,1.6,27-4.7
	C171.8,235.2,159.1,222.4,151.2,231L151.2,231z"/>
<path d="M168.1,354.5c-1.3,0-2.4-1-2.5-2.4c-0.3-4.8-0.3-8-0.3-8.1c0-0.2,0-0.3,0-0.5c0.6-2.8-3-10.6-5.7-15.3
	c-0.4-0.7-0.4-1.4-0.2-2.1c0.3-0.7,0.8-1.3,1.5-1.5c1.9-0.6,3.9-2.9,5.1-5.7c0.8-1.8,0.8-3.1,0.8-3.6c-5-1.5-7.1-9.2-7.5-10.7
	c-0.2-0.8,0-1.7,0.6-2.4c0.6-0.6,1.5-0.9,2.3-0.7c0.7,0.2,0.9,0,1-0.2c2.4-2.3,2-13.2,1-19.9c-1.8-7.2-0.5-12.3,0-13.9
	c-0.1-10.1-2.3-16.1-2.3-16.2c-0.3-0.8-0.2-1.6,0.3-2.3c0,0,3.4-5.6,1.6-18.3c-1.1-8-0.6-12.8,1.7-14.8c0.2-0.2,0.4-0.4,0.7-0.5
	c0.2-1.5,0.3-3.6-0.8-4.1c-1.3-0.5-1.9-2-1.3-3.3c0.5-1.3,2-1.9,3.3-1.3c4.8,2,4.4,8.1,3.4,11.4c-0.3,0.9-1.1,1.6-2,1.7
	c-0.3,0.7-1,3.2,0,10.2c1.6,11.5-0.6,18.1-1.8,20.6c0.7,2.4,2.3,8.4,2.3,17.3c0,0.3-0.1,0.6-0.2,0.9c0,0-1.6,4.5,0.1,11.5
	c0,0.1,0,0.1,0,0.2c0.5,3.2,2.8,19.5-2.5,24.4c-0.5,0.5-1.1,0.9-1.7,1.1c0.9,2.1,2.1,4.2,3.3,4.4c2.1,0.5,3.4,2.3,3.5,4.9
	c0.2,4-2.6,9.7-6.7,12.6c2.1,4,5.8,11.7,5.1,16.2c0,0.8,0,3.7,0.2,7.7c0.1,1.4-1,2.6-2.4,2.6C168.2,354.5,168.2,354.5,168.1,354.5z
	 M167.8,219.9C167.8,219.9,167.8,219.9,167.8,219.9C167.8,219.9,167.8,219.9,167.8,219.9z"/>
<path class="st1" d="M59.5,239.7c0.7,4.8-2.1,8.4-2.2,13.1c-0.1,4-0.5,8-0.3,12c0.7,10.9,0.4,21.8,1.3,32.7
	c0.8,10.6,2.3,20.1,5.8,30.2c0.6,1.8,1.1,3.8,1.5,5.7c0.1,0.8,0.2,1.5,0.3,2.3c0-0.7,0.6-1.5,0-0.1c-1.9,4.3-3.9,7.4-3,12.3
	c0.8,4.8,6.7,7.5,11.1,6.3c5.1-1.4,7.1-6.3,6.3-11.1c0-0.1,0-0.3-0.1-0.4c0,1.6,0,3.2,0,4.8c0.3-1.3-0.6,0.5,0.1-0.5
	c0.4-0.7,0.8-1.6,1.2-2.3c0.8-1.6,1.5-3.2,1.9-5c1.1-5.5-0.1-11-1.8-16.3c-1.5-4.8-3-9.2-4-14.2c-1-4.8-1.1-9.3-1.5-14.2
	c-0.9-10.4-0.8-21-1.1-31.5c-0.1-3.9-0.3-8.4,1-12c2-5.7,1.8-10.7,0.9-16.6c-0.7-4.8-6.8-7.5-11.1-6.3
	C60.6,230.1,58.8,234.9,59.5,239.7L59.5,239.7z"/>
<path class="st2" d="M51.9,195c6,53,52.5,40.8,52.5,40.8c4-2,12.2,0.5,20.1,1.2c8.9,0.8,17.4,0,17.4,0c12,6,33-7,33-7
	c25-31,3.6-61.2,3.6-61.2l-2.2-25.7l-0.6-28.1c-5.2-0.9-16.9-6.7-16.9-6.7c-14.2,6.3-13.8-0.1-13.8-0.1c-11-10.7-15.8-6.5-15.8-6.5
	l1.2,16.4c-3.7-4.6-5.4,3.8-5.4,3.8s-5.1-7.9-8.6-11c-11.4-10-21.4,3-21.4,3l-8.2-14.4L66.9,102l-8,11v52
	C47.9,178,51.9,195,51.9,195z M152.4,140.5c1-22,22-15,22-15c3,6,1,20-8.5,19.8C156.4,145.1,152.4,140.5,152.4,140.5z M69.7,126.5
	c0,0,21-7,22,15c0,0-4,4.7-13.5,4.8C68.7,146.5,66.7,132.5,69.7,126.5z"/>
<path class="st0" d="M202.9,169l-8-3.3l6.5-6.2c0,0-9.3,3.3-11.5-4.5c-2-7-1-6.3-1-6l9.3-0.3l8.2-0.3l-8.8-10.9
	c-7.8-4.3,1.6-6.7,1.6-6.7c-13.3-5.8-15.5-12.2-15.5-12.2l-8-3.6l3.7,51.5l7.6,24.1l4.9,2.4l-3-10h10l6-3l-13-10
	C191.9,170,193.9,166,202.9,169z"/>
<path class="st1" d="M176.3,120.5c0,8,0.9,16.1,0.5,24c-0.5,11.8-2.3,26.4,6.3,35.9c3.9,4.3,10.3-2.1,6.4-6.4
	c-4.4-4.8-3.6-11.9-4.1-17.9c-0.4-4.6,0.5-9,0.4-13.5c-0.1-7.4-0.5-14.7-0.5-22.1C185.3,114.8,176.3,114.7,176.3,120.5L176.3,120.5z
	"/>
<path class="st1" d="M193.2,161c0.4-0.3-0.5,0-0.6,0.1c-0.6,0.1-1.2,0.4-1.8,0.7c-1,0.4-1.8,1-2.6,1.7c-1.5,1.6-2.2,3.9-2.5,6
	c-0.3,2.4,0.3,4.7,1.5,6.7c0.7,1.1,1.5,2,2.5,2.7c0.7,0.5,1.6,0.8,2.2,1.3c4,4.2,10.4-2.2,6.4-6.4c-0.9-1-2.1-1.4-3.1-2.2
	c-0.5-0.4-0.6-0.5-0.5-1.2c0-0.3,0.1-0.8,0.3-1c-0.4,0.6-0.3,0.3,0.3,0.2c1.5-0.2,3.1-1.4,4.2-2.3c1.9-1.5,1.6-4.8,0-6.4
	C197.6,159.1,195.1,159.5,193.2,161L193.2,161z"/>
<path class="st3" d="M132.6,198.1c0,0-22.3,0.8-22.3-9.9C110.4,183.1,132.9,187,132.6,198.1z"/>
<path class="st3" d="M135.9,198.6c0,0,25.7-8.3,17.5-13.7C146.9,180.6,135.9,198.6,135.9,198.6z"/>
<path class="st4" d="M160.4,173.1c-5.9-10.5-23.3-16.1-31.5-5.2c-2,2.6-0.4,6.7,2.2,8.2c3.1,1.8,6.3,0.4,8.2-2.2
	c-0.5,0.7,2.2,0.2,2.8,0.3c1.3,0.1,2.5,0.3,3.7,0.9c1.7,0.9,3.3,2.3,4.3,4.1C153.8,185.8,164.2,179.8,160.4,173.1L160.4,173.1z"/>
<g>
	<path d="M130.4,173.1c0,0,7-11,21-4c0,0,9,7,4,15c0,0-15,1-19,11c0,0,5-29-30-27c0,0-7,2-8,11c0,0,2,7,12,9c0,0,16-5,20,5
		c0,0,3,9,6,3"/>
	<path d="M134.2,200.7c-0.1,0-0.2,0-0.3,0c-3.3-0.2-5.2-4.7-5.9-6.7c-3.2-7.7-16.8-3.5-16.9-3.5c-0.4,0.1-0.8,0.1-1.2,0.1
		c-11.4-2.3-13.8-10.4-13.9-10.8c-0.1-0.3-0.1-0.6-0.1-1c1.2-10.5,9.4-13,9.8-13.1c0.2-0.1,0.4-0.1,0.5-0.1c9.7-0.5,17.3,1.1,22.9,5
		c3.5-4.3,11.8-9.5,23.4-3.7c0.1,0.1,0.3,0.2,0.4,0.3c3.7,2.9,9.5,10.5,4.6,18.3c-0.4,0.7-1.2,1.1-2,1.2c-0.1,0-13.1,1-16.7,9.1
		c0.1,0.5,0,1-0.2,1.5C137.2,200,135.5,200.7,134.2,200.7z M118.9,184.4c8.8,0,12.4,4.3,13.8,7.8c0,0,0,0.1,0.1,0.1
		c0.3,0.9,0.7,1.8,1.1,2.5c0,0,0-0.1,0-0.1c0-0.1,1.6-10.4-4.6-17.3c-4.5-5-12.1-7.3-22.4-6.8c-1,0.4-5,2.3-5.9,8.2
		c0.6,1.3,2.8,5.2,9.4,6.7C111.7,185.2,115.1,184.4,118.9,184.4z M132.9,173.9c0.1,0.1,0.1,0.1,0.2,0.2c3.9,4.3,5.3,9.5,5.8,13.6
		c5.1-4.2,12-5.5,14.9-5.9c1-2.2,0.7-4.4-0.7-6.9c-1.1-1.9-2.6-3.2-3.1-3.7C140,166.4,134.4,172,132.9,173.9z"/>
</g>
<path class="st5" d="M94.7,193.7c-0.7,3.4-0.7,6.2,0.9,9.4c1.2,2.3,2.4,4.3,4.3,6.1c2.4,2.2,6.2,2.3,8.5,0c2.2-2.2,2.4-6.2,0-8.5
	c-0.3-0.3-0.6-0.6-0.9-0.9c-0.5-0.5-0.6-0.6-0.2-0.2c-0.3-0.5-0.5-1.1-0.8-1.6c-0.1-0.2-0.3-0.5-0.4-0.8c-0.2-0.4-0.2-0.3,0,0.2
	c0,0.3,0,0.5-0.1,0.8c0.1-0.4,0.2-0.9,0.3-1.3c0.6-3.1-0.9-6.6-4.2-7.4C99.1,188.8,95.3,190.4,94.7,193.7L94.7,193.7z"/>
<path class="st5" d="M100.4,224.2c0.1,2.9,1.6,5.5,3.9,7.3c0.8,0.7,1.7,1.4,2.6,2c1.3,0.9,2.8,1.4,4.4,1.5c1.5,0.1,3.2-0.8,4.2-1.8
	c1-1,1.8-2.7,1.8-4.2c-0.1-1.6-0.6-3.2-1.8-4.2c-1.2-1.1-2.6-1.6-4.2-1.8c-0.1,0-0.1,0-0.2,0c0.5,0.1,1.1,0.1,1.6,0.2
	c-0.1,0-0.2-0.1-0.3-0.1c0.5,0.2,1,0.4,1.4,0.6c-0.4-0.2-0.7-0.4-1-0.6c0.4,0.3,0.8,0.6,1.2,0.9c-0.9-0.7-1.8-1.4-2.6-2.3
	c0.3,0.4,0.6,0.8,0.9,1.2c-0.2-0.3-0.4-0.6-0.6-0.9c0.2,0.5,0.4,1,0.6,1.4c-0.1-0.2-0.2-0.4-0.2-0.7c0.1,0.5,0.1,1.1,0.2,1.6
	c0-0.1,0-0.1,0-0.2c-0.1-3.1-2.7-6.1-6-6C103.3,218.3,100.3,220.8,100.4,224.2L100.4,224.2z"/>
<g>
	<path class="st4" d="M125.4,233.9c-1.2,0.9,3,0.1,4.5-0.4c0.7-0.2,1.5-0.4,2.2-0.6c0.8-0.2,1.5-0.6,2.3-0.9
		c1.4-0.5,2.5-1.4,3.7-2.3c0.8-0.6,1.4-1.2,2.1-1.9c0.4-0.4,0.6-0.8,1-1.2c0.3-0.3,0.4-0.4,0.5-0.8c0.2-0.7,0.3-1.3,0.3-2
		c0-0.5,0-0.9,0-1.4c0-0.4,0-0.5-0.4-0.6c-0.6-0.2-1.2-0.2-1.8-0.2c-0.6,0-1.2-0.1-1.8-0.2c-0.3-0.1-0.6-0.3-0.9-0.4
		c-0.3-0.1-0.6-0.1-0.9-0.2c-0.4-0.2-0.6-0.5-1-0.7c-0.4-0.2-0.8-0.3-1.2-0.6c-0.9-0.5-1.5,0.4-2.3,0.8c-0.6,0.3-1.1,0.7-1.7,1.1
		c-0.6,0.4-1.5,0.5-2.2,0.7c-0.7,0.2-1.4,0.3-2.1,0.4c-0.7,0.1-1.5-0.1-2.1,0c-0.4,0.1-0.5,0.2-0.9,0.1c-0.4-0.1-0.7-0.2-1.1-0.1
		C121.5,222.5,127.4,232.3,125.4,233.9z"/>
	<path class="st4" d="M121.5,231.6c-0.1,0.1-0.1,0.2-0.2,0.3c-1.5,2-0.2,5,1.6,6.2c3.6,2.2,10.4-0.5,13.7-2.1
		c5.1-2.4,9.9-6.8,9.8-12.8c-0.1-2.7-1-4.8-3.7-5.7c-1.1-0.4-2.3,0-3.4-0.3c-1.3-0.3-2.4-1.3-3.6-1.7c-3-1-4.6,0.2-7.1,1.5
		c-2.3,1.2-5.3,1.3-7.1,1.1c-3.5-0.5-5.5,4.1-3.9,6.8c0.7,1.2,1.4,2.4,2,3.6c0.4,0.9,0.9,1.7,1.2,2.6c0.9,2.4-0.3,1.7,1.4-0.4
		c-3.7,4.4,2.6,10.8,6.4,6.4c4.2-4.9-0.4-12.2-3.2-16.8c-1.3,2.3-2.6,4.5-3.9,6.8c3.7,0.5,8-0.3,11.2-2c0.1-0.1,2-1.2,2-1.3
		c-1.9-0.1-2.3,0.1-1.3,0.6c0.5,0.4,1,0.6,1.6,0.8c1.1,0.5,4.4,0.6,4.6,0.8c-0.7-0.9-1.4-1.8-2.1-2.7c0.4,2.2-3.9,4.3-5.5,5
		c-1.3,0.5-2.7,0.8-4,1.2c-2.1,0.5-2.4-0.3-0.5,0.9c0.5,2.1,1.1,4.1,1.6,6.2c0.1-0.1,0.1-0.2,0.2-0.3
		C132.8,231.5,125,227.1,121.5,231.6z"/>
</g>
<path class="st6" d="M147.3,210.5l-8.2,10h-24.7l-8.9-6.4C137.7,206.5,147.3,210.5,147.3,210.5z"/>
<path class="st7" d="M140.3,221c0,0-10.1-9.4-25.6-0.7l14,7.8L140.3,221z"/>
<path d="M118.2,215.8c-1.3,0-2.6-0.1-4-0.2c-9.5-0.8-15.8-3.4-19.1-8c-4-5.5-2.3-12.1-1.5-15.7c0.1-0.5,0.2-1,0.3-1.4
	c0.3-1.4,1.6-2.2,2.9-2c1.4,0.3,2.2,1.6,2,2.9c-0.1,0.5-0.2,1-0.4,1.6c-0.8,3.2-1.9,7.9,0.7,11.5c2.4,3.3,7.6,5.3,15.4,5.9
	c7.7,0.6,12.9-0.6,15.1-3.5c2.4-3.3,0.7-8.1,0.6-8.1c-0.5-1.3,0.1-2.7,1.4-3.2c1.3-0.5,2.7,0.1,3.2,1.4c0.1,0.3,2.8,7.4-1.3,12.9
	C130.9,213.9,125.7,215.8,118.2,215.8z"/>
<path d="M141.8,213.3c-2.9,0-5.2-0.8-6.9-2.5c-4.4-4.1-3.1-11.4-2.9-12.2c0.3-1.4,1.6-2.2,2.9-2c1.4,0.3,2.2,1.6,2,2.9
	c-0.3,1.5-0.6,5.7,1.4,7.6c1.7,1.6,5,1.2,7.5,0.5c4.3-1.1,7.1-3,8.3-5.4c1.4-3,0.1-6.1,0.1-6.1c-0.5-1.3,0-2.7,1.3-3.3
	c1.3-0.6,2.7,0,3.3,1.2c0.1,0.2,2.3,5.2-0.1,10.3c-1.8,3.9-5.7,6.6-11.5,8.2C145.1,213,143.3,213.3,141.8,213.3z"/>
<path class="st4" d="M174.4,180.2c1.4,11,3.6,22.5-0.4,33.2c-2,5.4-6.6,9.7-11.9,11.6c-3.1,1.1-6.1,2.1-9.3,2.7
	c-1.1,0.2-2.1,0.3-3.2,0.5c-1.4,0.6-1.4,0.6-0.1,0.1c-0.7,0-1.3,0.1-1.9,0.4c-5.3,2.1-3,10.8,2.4,8.7c0.2-0.1,4.1-0.9,1.7-0.5
	c1.6-0.3,3.3-0.4,4.9-0.8c4-0.9,8.2-2.2,12-3.9c5.2-2.3,10.3-7.8,12.8-12.8c6.1-12.3,3.7-26.2,2.2-39.2
	C182.7,174.6,173.7,174.5,174.4,180.2L174.4,180.2z"/>
<path class="st4" d="M104.1,126.9c1.3,7.6,1.1,16.2-1.6,23.5c-2.7,7.3,8.9,10.4,11.6,3.2c3.4-9.4,3.2-20.2,1.6-29.9
	C114.4,116.1,102.9,119.4,104.1,126.9L104.1,126.9z"/>
<path class="st5" d="M102.5,123c-1.4-4.1-2.8-9.2-7.6-10.4c-1.7-0.4-3.7,0.3-4.6-0.7c-1.4-1.6-1.1-6.5-1.5-8.5
	c-1-5.7-9.7-3.3-8.7,2.4c0.8,4.8,0.8,10.7,5.1,14c1.6,1.2,4.6,2,6.5,1.6c1.4-0.3,0.2-0.7,0.8,0.3c0.6,1.1,0.8,2.4,1.3,3.6
	C95.8,130.8,104.5,128.5,102.5,123L102.5,123z"/>
<path class="st5" d="M84.6,114c-3.3-1.3-8.8-2.9-12.1-1.1c-1.2,0.6-2.6,2.1-3.2,3.4c-0.8,1.9,1.7-0.9-0.6,0.5
	c-0.3,0.2-0.6,0.4-0.9,0.6c-1.9,1.4-3.4,3.7-4.9,5.5c-0.9,1.1-1.8,2.3-2.8,3.4c-0.4,0.5-0.9,0.9-1.2,1.4c-0.6,0.9-1.8,0.9,0.5,0.1
	c-5.4,1.9-3.1,10.6,2.4,8.7c4-1.4,6.8-6.5,9.4-9.6c0.6-0.7,1.2-1.5,1.8-2.1c0.7-0.8,0.1-0.2-0.1,0c-0.1,0.1,1.1-0.5,1.4-0.7
	c0.7-0.5,2.1-3,2.7-3.1c-0.7,0.2,1.6,0.9,2,1c1.1,0.2,2,0.5,3.1,0.9C87.6,124.9,89.9,116.2,84.6,114L84.6,114z"/>
<path class="st5" d="M101.7,112.7c-0.4,2.3-0.9,4.4-1.8,6.6c-0.3,0.8-0.6,1.4-1.1,2.1c-0.5,0.7-0.6,0.7-0.4,0.7
	c-2.4,0.4-3.7,3.4-3.1,5.5c0.7,2.6,3.1,3.5,5.5,3.1c6.2-0.9,8.9-10.6,9.6-15.6c0.4-2.4-0.6-4.8-3.1-5.5
	C105.1,109,102.1,110.3,101.7,112.7L101.7,112.7z"/>
<path d="M99.4,164c-0.5,0-0.9-0.1-1.3-0.4c-1.2-0.7-1.5-2.3-0.8-3.5c16.8-26.1-2.6-48.8-2.8-49c-0.9-1-0.8-2.6,0.2-3.5
	c1-0.9,2.6-0.8,3.5,0.2c0.2,0.3,22,25.8,3.2,55C101,163.5,100.2,164,99.4,164z"/>
<path class="st0" d="M56.9,165c1.4-4.9,0.7-21.9,0.8-35.6c0.1-5.9,9.1-7,9.1-7c2.9-22.5,14.6-1.1,14.6-1.1l1.9-20.8l5.6-1.4l1.7,8.7
	l-2.7,8.3c7-8,13,7,13,7c7-2,4.4-15.5,4.4-15.5l12,3.5l10.6,11l8.5-3.9l-4.5-9.1v-7c5-2,14,6.3,14,6.3c2,5.3,8.4,2.5,8.4,2.5
	l8.4-3.8c1.9,7.9,16.6,6.8,16.6,6.8l10.9,3.3c0,0,21.6,6.6,14.6,1.6s-11-12-11-12l-1.9-6.5l8.9-2.1l8.2,6.3l-1-8.3l-4.5-5.9
	l-5.3-5.5c0,0,13.2-6.7,3.5-14c-13.8-10.4-21.5,3.9-21.5,3.9L194.9,58l7-23l-10-27l-5,5l-23,17l-10,23l2-24v-5l-4-2l-8,17l-6-5l2-11
	l-2-8l-10,6l-7,16l-6-17l-4,10l-10-11l-2,2l3,16l-5,1l-8-10l-5-12l-3,12l-4,6l-8-8l-19-22l-14,24l-4,20l4,19l14,22l-26-29l-3,4l3,7
	l-6,1l-8,8l8,2c0,0,10-1-1,13l-8,8c0,0,27,5,3,8c0,0-9,1-8,6c0,0,20-2,20,9c0,0-13,1-14,12l-2,2l2,5c0,0,7,3,13-2c0,0,6,4-6,16
	c0,0,0,5,11,2l-5,6c0,0,2,9-18,19c-0.6,0.3,7.9,3.2,16,2c8.1-1.2,9-4,9-4l-7,17c10-12,11-7,11-7s-0.1,19.6-5.1,21.6
	s14.3-0.3,14.3-0.3l-3.7,15.2c0,0,16.6-4.1,21.6-6.1l-10-32.4L56.9,165z"/>
<path class="st5" d="M55.8,137.5c-0.2,6.1-0.8,12.3-1.3,18.4c-0.3,3.9-0.6,7.9-1,11.8c-0.1,1.6-0.3,3.2-0.5,4.9
	c-0.1,0.8-0.5,3.5-0.2,1.8c-2,10.1-3.6,22.4,0.5,32.2c2.5,5.9,4.2,11.1,8.2,16.2c2.7,3.4,7.9,9.2,12.2,10.3
	c7.5,1.9,10.7-9.7,3.2-11.6c1.3,0.9,1.5,1,0.7,0.3c-0.5-0.4-1-0.9-1.4-1.4c-0.8-0.7-1.6-1.5-2.4-2.2c-2.2-1.9-4.2-4.1-5.7-6.7
	c-1.4-2.3-1.8-5-2.8-7.4c-0.5-1.2-1.3-2.4-1.6-3.7c0.5,2-0.1-2.4,0-2c-1.6-8.4,0.4-16.4,1.3-24.6c1.3-12,2.6-24.3,2.9-36.3
	C68,129.7,56,129.7,55.8,137.5L55.8,137.5z"/>
<path class="st1" d="M50,141.7c0,7.6,1.3,16.7-0.4,24.1c-1.2,5.3-2,10.7-3.7,15.9c-1.8,5.4-2.4,11.8-2.1,17.4
	c0.3,5.2,0.3,11.7,3.1,16.3c3,4.9,10.8,0.4,7.8-4.5c-2.2-3.7-2-10.3-1.7-14.4c0.2-3.1,0.1-6.3,0.7-9.3c0.6-3.1,2-6,2.6-9.1
	c0.9-4.5,2.1-9.1,2.6-13.6c0.8-7.4,0.1-15.2,0.1-22.7C59,135.9,50,135.9,50,141.7L50,141.7z"/>
<path d="M90,240.5c-12.1,0-27.6-4.2-35.9-23c-9.2-20.9-3.6-39.2-0.6-49c0.7-2.2,1.3-4.2,1.4-5.3c1-6.7,0.3-33.4,0.3-33.7
	c0-1.4,1.1-2.5,2.4-2.6c1.4,0,2.5,1.1,2.6,2.4c0,1.1,0.7,27.4-0.3,34.6c-0.2,1.6-0.8,3.6-1.6,6.1c-3,9.9-8,26.3,0.4,45.5
	c5.4,12.3,14.9,19.1,28.2,20c10.1,0.7,18.6-2.3,18.7-2.3c1.3-0.5,2.7,0.2,3.2,1.5c0.5,1.3-0.2,2.7-1.5,3.2
	C107,237.9,99.6,240.5,90,240.5z"/>
<path class="st5" d="M144.1,115.2c-2.4,11.3-4.2,21.6-1.3,32.9c1.5,5.6,10.1,3.2,8.7-2.4c-0.5-1.8-1.2-3.5-1.4-5.3
	c-0.3-2.6,0.2-5.4,0.2-8c-0.1-5.1,1.4-9.8,2.5-14.8C154,112,145.3,109.5,144.1,115.2L144.1,115.2z"/>
<path class="st5" d="M173,112.5c-3.2-0.2-5.9-2.4-9.1-3c-3.2-0.7-5.8,0.1-8.9,1c-4,1.1-6.5,0.3-10.2-1.5c-2.4-1.1-6.1-3.2-7.1-5.8
	c-2.5,1.5-5,2.9-7.5,4.4c1,0.9,0.9,4.5,1.4,5.9c1.2,3,2.9,4.4,5,6.7c0.7-2.5,1.3-5,2-7.5c-0.1,0-0.3,0.1-0.4,0.1
	c-5.6,1.4-3.2,10.1,2.4,8.7c0.1,0,0.3-0.1,0.4-0.1c3.4-0.8,4.3-5.1,2-7.5c-2.1-2.2-3.2-3.8-3.7-6.9c-0.4-2.2-1-4.2-2.7-5.7
	c-3.1-2.7-9.2-0.2-7.5,4.4c2.9,7.8,11.4,12.2,19,14.3c4.3,1.2,7.7-0.9,11.8-1.5c4.3-0.6,8.6,3,13,3.2
	C178.8,121.7,178.8,112.7,173,112.5L173,112.5z"/>
<path d="M147.6,241.1c-4.9,0-8.2-0.7-8.3-0.7c-1.4-0.3-2.2-1.6-1.9-3s1.6-2.2,3-1.9c1.2,0.3,28.8,5.7,40.7-19.1
	c9.4-19.6-5.8-48.4-6-48.7c-0.2-0.3-0.3-0.7-0.3-1.1c-1-22.8-1-50.8-1-51.1c0-1.4,1.1-2.5,2.5-2.5s2.5,1.1,2.5,2.5
	c0,0.3,0,27.8,1,50.3c1,1.9,4.3,8.8,6.7,17.6c3.8,14,3.5,25.9-0.9,35.1C176.3,238,158.2,241.1,147.6,241.1z"/>
<path class="st2" d="M81.4,60.5c0,0-1.1-31.9-22.1-43c0,0-8.9-7-8.9-13c0,0-44,40,0,84C50.4,88.5,64.4,90.5,81.4,60.5z"/>
<path class="st2" d="M150.9,56c0,0,5.6-28.4,28.1-35.6c0,0,10-5.4,11.1-11.3c0,0,28.8,35.9-12.2,66.9C177.9,76,165.9,84,150.9,56z"
	/>
<path class="st4" d="M193.1,37.1c-0.3,3.8-0.6,9-2.2,12.5c-1,2.3-2.5,5.8-3.8,7.7c-3.8,5.4-10.9,6.9-14.8,12
	c-2.7,3.4-0.3,8.6,4.4,7.5c0.3-0.1,0.5-0.1,0.8-0.2c5.6-1.3,3.3-10-2.4-8.7c-0.3,0.1-0.5,0.1-0.8,0.2c1.5,2.5,2.9,5,4.4,7.5
	c1.8-2.3,5.5-3.8,8.1-5.8c2.9-2.1,6.2-5,8.1-8c4.7-7.4,6.6-16.1,7.3-24.8C202.5,31.4,193.5,31.4,193.1,37.1L193.1,37.1z"/>
<path class="st1" d="M20,69.4c2.3,2,2.6,4.3,4.1,6.8c1.5,2.5,3.8,4.6,5.9,6.6c4.4,4.1,8.6,5.3,13.2,8.9c4.5,3.6,10.9-2.8,6.4-6.4
	c-4.3-3.4-9.7-5.5-13.6-9.4c-2.1-2.1-3.9-3.7-5-6.5c-1.2-3-2.1-4.3-4.5-6.4C22.1,59.1,15.7,65.5,20,69.4L20,69.4z"/>
<path class="st1" d="M78.5,23.7c-2,3.4-2.1,8.6-1.5,12.4c1.1,6.5,2.5,12.6,2.7,19.3c0.2,5.8,9.2,5.8,9,0c-0.1-4.9-0.6-9.7-1.6-14.5
	c-0.7-3.5-2.9-9.2-0.9-12.6C89.2,23.2,81.4,18.7,78.5,23.7L78.5,23.7z"/>
<path class="st5" d="M42.2,7.2C37.3,13,35.7,20,33.8,27c-1.9,7.2-4.1,14.8-4.6,22.3c-1,13.8,3.6,28,15.6,35.8
	c6.5,4.2,12.5-6.2,6.1-10.4c-8.7-5.6-10.8-17.3-9.5-27c0.7-5.5,2.2-11.4,3.7-16.7c1.4-5,2-11.2,5.5-15.4C55.6,9.9,47.2,1.3,42.2,7.2
	L42.2,7.2z"/>
<path class="st5" d="M187.1,10.2c-3.8,4-8.8,4.5-13.3,7.1c-4,2.3-6.7,5.8-9.6,9.2c-2.7,3.1-4.2,6.4-6.3,9.9c-1,1.7-1.8,3-2.4,4.9
	c-0.5,1.7-0.6,4.1-1.4,5.5c-2.9,5,4.9,9.6,7.8,4.5c1.7-2.9,1.7-6.5,3.3-9.5c2-3.8,4.1-7.3,6.9-10.6c3-3.5,5.4-6.1,9.8-7.6
	c4.4-1.5,8.4-3.7,11.7-7.1C197.5,12.4,191.2,6,187.1,10.2L187.1,10.2z"/>
<path class="st4" d="M55.2,24.8c-1.7-0.6,1,1.2,1.7,1.8c1,0.9,1.9,1.9,2.9,2.8c2.9,2.6,6.3,4,8.8,7.1c5,6.2,5.8,14.9,6.6,22.5
	c0.6,5.7,9.6,5.8,9,0c-1-10-2.3-20.2-8.8-28.3c-2.9-3.6-6.7-5.5-10-8.5c-2.4-2.2-4.6-5-7.7-6.1C52.1,14.1,49.8,22.8,55.2,24.8
	L55.2,24.8z"/>
<path d="M49.4,91c-0.7,0-1.4-0.3-1.9-0.9C32.3,72.3,31.8,71.4,29,57.5c-0.3-1.6-0.7-3.4-1.1-5.5C24.3,34.9,41.1,6.9,47.7,1
	c0.6-0.5,2.2-2,4.1-1.4c1,0.3,1.8,1.2,2,2.3C54.1,3.3,54,4.4,54,5.4c-0.1,2.4-0.3,4.8,12.9,15.1c18.9,14.7,17,39.1,17,40.2
	c-0.1,1.4-1.3,2.4-2.7,2.3c-1.4-0.1-2.4-1.3-2.3-2.7l0,0c0-0.2,1.6-22.9-15-35.8C51.6,14.9,49.2,10.9,49,7c-6.1,7.8-19,30.3-16.1,44
	c0.4,2.1,0.8,3.9,1.1,5.6c2.6,13,2.6,13,17.3,30.3c0.9,1.1,0.8,2.6-0.3,3.5C50.5,90.8,49.9,91,49.4,91z"/>
<path d="M180.4,77c-0.7,0-1.3-0.3-1.8-0.8c-0.9-1-0.9-2.6,0.1-3.5c12.7-11.7,13.5-12.4,18.3-27.9c3.6-11.4-3.1-28.2-6.4-34.2
	c-2.5,3.2-7.7,8.4-17.1,13.2c-10.9,5.4-15.7,21.3-15.7,21.5c-0.4,1.3-1.8,2.1-3.1,1.7c-1.3-0.4-2.1-1.8-1.7-3.1
	c0.2-0.7,5.5-18.1,18.3-24.5c10.9-5.4,15.9-11.9,16.9-13.9c0.6-1.3,2.1-1.8,3.4-1.3c4,1.6,15,26.8,10.2,42.2
	c-5.1,16.4-6.3,17.7-19.7,30.1C181.6,76.7,181,77,180.4,77z"/>
<path d="M72.4,66.5c0,0-1.5-12.5-6-18s-15-11-15-15s-8,14-4,27s6,13,11,18S69.4,71.5,72.4,66.5z"/>
<path d="M158.9,58c0,0,22-20,27-29c0,0,0,8-1,16s-2,16-10,25C174.9,70,160.9,67,158.9,58z"/>
<path class="st5" d="M88.9,142.5c-1.4,1.3,0.6,0,0.6,0.1c0-0.2-2.3,0.5-2.7,0.6c-1.5,0.5,0.9-0.2-1.7,0.3c-0.4,0.1-0.7,0.1-1.1,0.2
	c0.4,0,0.3,0-0.3,0c-2.4,0.1-4.5,2-4.5,4.5c0,2.4,2.1,4.6,4.5,4.5c1.1,0,2.1-0.2,3.2-0.4c0.5-0.1,1.2-0.1,1.8-0.3
	c0.4-0.1,2.5-0.9,1.2-0.5c-1.5,0.4,1.8-0.3,1.2-0.1c0.5-0.1,0.9-0.3,1.4-0.5c1.1-0.5,1.9-1.2,2.8-2
	C99.4,144.9,93.1,138.5,88.9,142.5L88.9,142.5z"/>
<path d="M78.7,149.5c-3.5,0-7-1.1-9.7-4.2c-6.2-7-4.6-14.7-3.8-17.4c-0.9-0.1-1.6-0.5-2.1-1.1c-0.8-0.9-1-2.1-0.5-3.2
	c0.6-1.3,2.1-1.8,3.3-1.2c0.3,0.1,0.6,0.3,0.8,0.6c0.8-0.1,2.4-0.4,5.4-1.4c5.2-1.7,11.1-0.7,15.9,2.8c5.3,3.8,8.4,10.2,8.4,17.3
	c0,0.8-0.4,1.6-1.1,2.1C94.8,144.1,86.6,149.5,78.7,149.5z M70.3,127.3c0.1,0.5,0.1,1-0.1,1.5c-0.1,0.3-2.8,7.1,2.6,13.2
	c4.8,5.5,15.1,0.3,18.6-1.7c-0.3-5-2.5-9.2-6.2-11.9c-3.5-2.5-7.7-3.3-11.4-2.1C72.4,126.7,71.3,127.1,70.3,127.3z"/>
<ellipse transform="matrix(0.9988 -4.977385e-02 4.977385e-02 0.9988 -6.6559 4.1308)" cx="79.6" cy="135.7" rx="7.2" ry="11.2"/>
<path d="M165.6,147.8c-7.2,0-14.7-5-15.1-5.3c-0.7-0.5-1.1-1.2-1.1-2.1c0-6.7,2.8-12.6,7.8-16.1c4.4-3.1,9.8-4.1,14.5-2.5
	c4.4,1.5,5.7,0.7,5.9,0.6c0.5-1.2,1.7-1.8,2.9-1.5c1.3,0.3,2.2,1.7,1.8,3c-0.2,0.9-1,2.1-2.4,2.9c-0.6,0.3-1.2,0.6-1.9,0.7
	c0.7,2.2,2.4,9.7-3.4,16.4C172,146.8,168.8,147.8,165.6,147.8z M154.4,139.1c3.2,1.8,12.2,6.3,16.3,1.5c4.8-5.5,2.3-11.8,2.3-11.9
	c-0.2-0.5-0.2-1-0.1-1.4c-0.9-0.2-1.8-0.4-2.8-0.8c-3.2-1.1-6.9-0.4-10,1.8C156.7,130.8,154.7,134.6,154.4,139.1z M177.4,122.7
	C177.4,122.7,177.4,122.7,177.4,122.7C177.4,122.7,177.4,122.7,177.4,122.7z M177.4,122.7C177.4,122.7,177.4,122.7,177.4,122.7
	C177.4,122.7,177.4,122.7,177.4,122.7z"/>
<ellipse cx="164.7" cy="134.8" rx="6.5" ry="10.2"/>
<path class="st1" d="M38.3,115.4c1.1,1,2.2,2.1,3.3,3.1c0.6,0.5,1.2,1,1.8,1.5c0.8,0.6,0.6,0.5-0.5-0.4c0.2,0.4,0.3,0.7,0.4,1.1
	c0.4,1.9,1.5,3.7,1.9,5.6c0.5,2.1,0.2,4.4,0.6,6.6c1.2,5.7,9.8,3.3,8.7-2.4c-0.5-2.6-0.1-5-1-7.6c-0.7-2.1-1.3-4.2-2.2-6.2
	c-1.6-3.9-3.7-4.7-6.8-7.7C40.5,105.1,34.1,111.4,38.3,115.4L38.3,115.4z"/>
<path class="st8" d="M80.4,133.5l-3-5c0,0-1.5,0.5-2.5,5.5C74.9,134,76.4,135.5,80.4,133.5z"/>
<path class="st8" d="M162.9,129c0,0-1,0-2,5c0,0,0,1,4-1"/>
<path class="st1" d="M124.8,96.3c3.4,0,5.5,3.5,8.1,5.2c1.8,1.1,3.8,1.6,5.6,2.8c1.3,0.9,1.9,2,3.1,3.1c2,1.9,5.9,3.4,8.6,3.4
	c1.8,0,3.4-0.9,5.1-0.9c1.6,0,3.1,0.4,4.7-0.2c-1.2-0.2-2.3-0.3-3.5-0.5c-1.8-1.4-0.5,0.3,0,1c0.6,0.8,1,1.5,1.9,2
	c1.9,1.2,4.8,0.8,6.9,0.2c2.8-0.9,2.8-1.9,5.4-0.1c1.8,1.3,3.6,2.2,5.6,2.9c3.3,1.1,6.7,1.8,10,2.8c2,0.6,3.9,1.2,5.8,1.9
	c0.8,0.3,1.6,0.7,2.5,0.9c0.9,0.2,1.9,1.6,0.4-0.3c3.5,4.6,11.3,0.1,7.8-4.5c-3.6-4.8-12.1-6-17.6-7.6c-2.4-0.7-5.2-1.1-7.5-2.2
	c-4.2-1.9-6.6-5.5-11.8-4c-0.8,0.2-2,0.7-2.6,1.3c-0.4,0.3-0.8,0.5-1.2,0.5c1.8,1.8,2.4,2.2,1.8,1.1c0.3-1-2.2-3.2-2.9-3.6
	c-3.8-2.1-8.9,1.3-12.5-0.4c-1.7-0.8-2.9-2.9-4.7-4c-2-1.3-4.4-2-6.4-3.3c-4.5-2.9-6.9-6.4-12.7-6.4C119,87.4,119,96.4,124.8,96.3
	L124.8,96.3z"/>
<path class="st1" d="M81,96.3c1.9,1.4,4.9,2.5,6.3,4.4c1.3,1.9,0.7,5.4,1.2,7.6c1.2,5.7,9.8,3.3,8.7-2.4c-0.3-1.5-0.1-2.9-0.2-4.4
	c-0.2-2.3-1.1-4.5-2.5-6.3c-2.3-3-5.8-4.5-8.8-6.7c-2-1.4-5-0.3-6.2,1.6C78.1,92.4,79.1,94.9,81,96.3L81,96.3z"/>
<path class="st5" d="M130.3,117.8c-3.3,0-6.5-0.2-8.5-3c-1.1-1.5-1.7-3.2-3.1-4.6c-3.2-3.3-7.7-4.1-11.8-5.6
	c-5.4-2.1-7.7,6.6-2.4,8.7c1.8,0.7,2.8,0.6,5,1.7c3.2,1.4,3.2,2.9,5.1,5.5c3.7,5,9.7,6.4,15.6,6.4
	C136.1,126.7,136.1,117.7,130.3,117.8L130.3,117.8z"/>
<path d="M52.5,145.8c-0.1,0-0.1,0-0.2,0c-2.3-0.1-4.1-1.3-4.6-3.4c-0.1-0.4-0.1-0.8-0.1-1.3c-4.2-4-9.7-11.3-5-21.8
	c0-0.1,0.1-0.5-0.1-0.9c-0.3-0.6-1.2-1.1-2.4-1.5c-1.3-0.4-2.1-1.8-1.7-3.1s1.8-2.1,3.1-1.7c2.7,0.8,4.5,2.2,5.5,4.2
	c1.2,2.4,0.3,4.6,0.2,4.9c0,0,0,0.1,0,0.1c-2.9,6.5-0.7,11.2,2.1,14.4c2.2-4.1,6.3-8.3,10.2-10.4c8.2-4.5,8.4-17.7,8.4-17.8
	c0-0.8,0.4-1.6,1.1-2.1c0.8-0.5,1.8-0.7,2.7-0.5c2.4,0.6,4.1,3.7,6.8,9c0.5,0.9,1,2,1.6,3c1-4.9,1.6-13.3,1.8-18.6
	c0-0.8,0.4-1.5,1.1-2c0.6-0.5,1.5-0.6,2.2-0.3c2.8,0.9,7.8,4.2,6.7,9.9c-0.3,1.5-0.5,2.9-0.6,4.2c1.5-0.6,3-0.7,4.4-0.2
	c3.2,1.1,5,4.8,6.1,8.2c0.6-1.3,0.8-2.7,0.4-3.8c-3-7.4,0.9-16.5,1-16.9c0.4-1,1.5-1.7,2.7-1.5c1.1,0.2,2,1.1,2.1,2.2
	c0.7,6.3,3.5,8.4,4.3,8.9c1.7,0.3,6.4,1.9,7.8,8.8c0.4,1.9,0.9,4.6,1.3,7.2c1.9-2.7,4.6-5.4,8-7.1c0.2-0.1,0.3-0.2,0.4-0.3
	c0.1-0.9-2.2-3.9-4.7-5.9c-0.5-0.4-0.8-1-0.9-1.6c-0.7-5.5-1.4-8.1-1.9-9.3c-0.3,0-0.6-0.1-0.9-0.3c-1.2-0.7-1.6-2.2-0.9-3.4
	c0.6-1,1.8-1.9,3.3-1.6c2.3,0.4,3.8,2.7,5.2,12.9c2.1,1.8,6.2,5.9,5.8,9.7c-0.2,1.8-1.3,3.2-3.1,4.1c-5.7,2.9-8.8,9.7-8.9,11.1
	c0,1.3-1,2.4-2.3,2.5c-1.3,0.1-2.5-0.8-2.7-2.1c0-0.1-1.6-10.2-2.6-15c-0.9-4.4-3.6-4.9-3.9-4.9c-0.3,0-0.5-0.1-0.7-0.2
	c-0.2-0.1-2.5-1-4.5-4.1c0,1.6,0.2,3.3,0.8,4.8c2.5,6.3-3.8,13-4.6,13.7c-0.7,0.7-1.7,0.9-2.6,0.6c-0.9-0.3-1.6-1.1-1.6-2.1
	c-0.4-4.3-2.1-9.4-3.8-10c-0.6-0.2-1.9,0.3-3.8,2.4c-0.7,0.8-1.8,1-2.8,0.7c-1-0.4-1.6-1.3-1.6-2.3c0-0.2,0-5.3,1-10.5
	c0.1-0.7,0-1.3-0.2-1.8c-0.3,5.9-1.1,15.5-3.1,19.2c-0.6,1.1-1.6,1.8-2.8,1.8c0,0,0,0,0,0c-2.6,0-4.1-3-6.7-8
	c-0.5-1-1.1-2.2-1.8-3.4c-1,5.3-3.5,13-10.4,16.8c-4.2,2.3-7.6,6.8-8.8,9.6c0.1,0.1,0.1,0.1,0.2,0.2c1.6,1.3,3.1,2.6,2.4,4.6
	C55.4,144.8,54.5,145.8,52.5,145.8z"/>
<path d="M159.4,119.5c-0.1,0-0.1,0-0.2,0c-1-0.1-1.9-0.8-2.2-1.7c-1.3-4.1-3.5-7.6-4.5-7.8c0,0-0.2,0.1-0.6,0.6
	c-1.7,2.1-4,3-6.5,2.7c-5.8-0.7-11.2-8-12.8-11.2c-0.6-1.2-0.1-2.7,1.1-3.4c1.2-0.6,2.7-0.1,3.4,1.1c1.6,3.1,5.9,8.1,8.9,8.5
	c0.6,0.1,1.3,0,2.1-1c2-2.4,4.1-2.6,5.4-2.3c2.8,0.6,4.9,3.6,6.4,6.5c1.7-2.2,4.2-4.6,7.1-5.1c1.8-0.3,4.4-0.1,7.2,2.7
	c1,1,1,2.6,0,3.5c-1,1-2.6,1-3.5,0c-1.3-1.3-2.2-1.3-2.7-1.3c-2.5,0.4-5.3,4.7-6.2,6.8C161.2,118.9,160.3,119.5,159.4,119.5z"/>
<path class="st1" d="M184.3,93.7c-1.3-0.8-1.6-0.8-0.8-0.1c0.1,0.1,0.2,0.1,0.2,0.3c0.3,0.4,0.6,0.8,0.8,1.3
	c0.8,1.7,1.4,3.2,3.1,4.2c1.3,0.7,2.8,0.8,4.3,0.7c1.5-0.1,2.7,0.2,4.2,0.4c2.4,0.3,4.5-2.3,4.5-4.5c0-2.7-2.1-4.2-4.5-4.5
	c-1-0.1-2-0.4-3.1-0.4c-0.4,0-0.7,0-1.1,0c-0.3,0-0.5,0-0.8,0c-0.6,0-0.4,0.1,0.6,0.2c0.5,0.5,1.1,1.1,1.6,1.6
	c-1.2-1.7-1.8-3.6-3.2-5.2c-1.5-1.8-3.6-3.1-6-3C178.6,85,178.5,94,184.3,93.7L184.3,93.7z"/>
<path d="M205,126c-0.7,0-1.5-0.3-2.1-1.1c-0.7-0.6-4.7-1.5-7.9-1.4c-2.7,0.1-3.9-2-4.6-3.1c-0.8-1.3-0.8-1.3-1.7-1
	c-6.3,1.8-11.1-3.8-11.3-4.1c-0.9-1.1-0.7-2.6,0.3-3.5c1.1-0.9,2.6-0.7,3.5,0.3c0.1,0.1,2.9,3.4,6,2.5c4.6-1.3,6.5,1.7,7.4,3.2
	c0.1,0.2,0.3,0.5,0.4,0.7c1.6,0,4.1,0.2,6.5,0.7c-0.9-2.2-2.3-4.2-2.9-4.3c-0.5-0.1-4.3-0.7-6.4-3.5c-0.8-1.1-1.2-2.3-1.2-3.7
	c-1.1-0.8-3.2-2.4-6.7-4.8c-6.5-4.3-6.4-8.6-6.2-9.8c0-0.2,0-0.5-0.1-0.6c0,0-0.1,0-0.3,0c-0.3,0-0.8,0.1-1.7,0.4
	c-0.8,0.3-1.6,0.1-2.3-0.3c-0.7-0.5-1-1.2-1-2v-2c0-1.1,0.7-2.1,1.8-2.4c0.2-0.1,5.6-1.6,10.1,1c2.6,1.6,4.4,4.2,5.1,7.9
	c0.3,1.5,0.8,2.6,1.4,2.9c1.1,0.6,3.5-0.4,5-1c1.9-0.8,3.6-1.4,5.2-0.7c0.2,0.1,0.7,0.3,1.2,0.4c0.5,0.1,1,0.3,1.7,0.6
	c0.2-1.4,0.5-2.9,1.3-4.5c0,0,0,0,0,0c-0.3-0.1-0.7-0.1-1-0.1c-2.2-0.3-5.5-0.6-6.9-3.6c-1.7-3.5,0.2-7.2,1.8-10.1
	c0.8-1.6,1.8-3.3,1.8-4.4c0-0.8-0.6-1.8-1.7-2.6c-1.6-1.2-3.6-1.8-5-1.5c-1.3,0.3-2.7-0.5-3-1.8c-0.3-1.3,0.5-2.7,1.8-3
	c2.9-0.7,6.5,0.2,9.3,2.4c2.3,1.8,3.6,4.2,3.6,6.6c0,2.3-1.2,4.5-2.4,6.7c-1.1,2-2.3,4.4-1.8,5.5c0.3,0.6,1.9,0.8,3.1,0.9
	c1.8,0.2,4.1,0.5,5.2,2.4c1.1,1.9,0.1,4.1-0.2,4.8c-0.9,1.9-1,3.8-0.8,5.4c1.5,1.5,2.7,3.7,2.7,6.8c0,1.1-0.7,2-1.7,2.4
	c-1,0.3-2.1,0-2.8-0.9c-0.1-0.2-1.8-2.4-2.7-5.7c-1-0.6-2.3-1.1-3.7-1.5c-0.5-0.2-1-0.3-1.5-0.5c-0.4,0.1-1.1,0.4-1.6,0.6
	c-1.4,0.6-3.1,1.2-4.9,1.5c1.6,1.2,2.2,1.7,2.2,1.8c0.7,0.6,1,1.5,0.8,2.4c-0.2,0.8,0,1.2,0.2,1.4c0.7,1,2.5,1.4,2.9,1.5
	c5.4,0.7,7.8,9.7,8.2,12.1c0.3,1.9-0.2,3.1-1.5,3.7C205.8,125.9,205.4,126,205,126z M183.2,94c0,0.3,0.2,1.5,2,3.2
	c-0.1-0.4-0.2-0.8-0.3-1.3c-0.3-1.6-0.9-2.8-1.7-3.7c0.1,0.8,0,1.4,0,1.5C183.2,94,183.3,93.9,183.2,94z M183.2,94.1L183.2,94.1
	L183.2,94.1z"/>
<path d="M152.4,56c-0.4,0-0.9-0.1-1.3-0.4c-1.2-0.7-1.5-2.2-0.9-3.4c0.1-0.2,2.3-4.9,0.7-19.5c-0.4-3.9,0.4-6.8,1.8-8.8
	c-0.8,0.5-1.5,1.4-2.1,2.6c-3.7,7.4-3.8,10.6-3.8,11.2c0.1,0.3,0.1,0.3,0.1,0.7c0,0.7-0.1,4.3-2.7,6c-1.1,0.7-2.9,1.4-5.7,0.3
	c-0.9-0.4-1.6-1.3-1.6-2.3v-1.7l-1.9,1.6c-0.7,0.6-1.6,0.7-2.4,0.4c-0.8-0.3-1.4-1-1.6-1.9c-0.1-0.3-1.2-6.4,4.7-12.3
	c1.1-1.1,1-2.3,0.6-4.9c-0.3-1.8-0.7-4.2,0.2-6.4c-1.9,0.4-3.8,1.2-5.4,2.4c-1.9,1.6-2.9,3.7-3.2,6.6c0.2,1.5,0.5,6.6-3.7,10.9
	c-1.5,1.5-2.9,1.3-3.6,1.1c-2.2-0.7-2.7-3.1-3.4-6.4c-0.7-3.1-1.4-6-2.6-8c0,1.6-0.2,3.4-0.8,5.3c-0.8,2.4-2.6,2.8-3.3,2.9
	c-1.1,0.1-4.1,0.3-10.5-10.4c-0.4,2.2-0.3,5,0.7,7.9c3.5,9.4-0.2,12.4-1,13c-1.1,0.7-2.5,0.5-3.3-0.5c-4.7-5.4-11.2-13.7-14.2-20.3
	c-0.4,1.9-0.6,4.1-0.4,6.5c0.1,1.4-0.9,2.6-2.3,2.7c-1.4,0.1-2.6-0.9-2.7-2.3c-0.8-9.9,3.9-17.2,6-18.1c1.1-0.4,2.3-0.2,3,0.7
	c1.4,1.6,0.2,3.5-0.4,4.5c-0.6,2,4.6,10.5,11.5,19.2c-0.2-1-0.5-2.2-1-3.6c-3.4-9,1-16.8,1.2-17.1c0.5-0.8,1.3-1.2,2.2-1.3
	c0.9,0,1.7,0.5,2.2,1.3c2.7,5,5.9,9.9,7.8,12c0.7-3.8-1-6.3-1-6.3c-0.6-0.8-0.7-1.9-0.2-2.7c0.5-0.9,1.4-1.4,2.4-1.3
	c8.4,0.8,10.3,9.7,11.4,15c0,0.2,0.1,0.4,0.1,0.6c1.2-2.4,0.8-4.5,0.8-4.6c0-0.2-0.1-0.4,0-0.7c0.3-4.4,2-7.8,5-10.3
	c6.1-5,15.4-4,15.8-4c1.1,0.1,2,1,2.2,2.2c0.1,1.1-0.5,2.2-1.5,2.6c-3.9,1.6-3.7,2.9-3.1,6.2c0.4,2.6,1,6.2-2,9.2
	c-0.3,0.3-0.6,0.7-0.9,1c0.7-0.4,1.5-0.4,2.2,0c0.9,0.4,1.4,1.3,1.4,2.3v0.8c0.3-2.3,1.3-6.1,4.3-11.9c1.5-3.1,3.7-5,6.4-5.7
	c4.2-1,7.9,1.5,8.3,1.8c0.8,0.6,1.2,1.6,1,2.6c-0.2,1-1.1,1.7-2.1,1.9c-0.7,0.1-4.6,1.1-3.9,7.2c1.9,16.8-1,22-1.4,22.6
	C154,55.5,153.2,56,152.4,56z"/>
<path d="M27.4,88c-1.4,0-2.5-1.1-2.5-2.5c0-0.5-0.2-0.9-0.5-1.2c-2.4-2-10.5-1.4-15.4-0.4c-0.7,0.1-1.4,0-2-0.4
	c-0.6-0.4-0.9-1.1-1-1.8c-0.3-2.9,0.5-5.5,2.4-7.5c3.1-3.4,8.3-4.6,11.7-5c-1-1.1-2.5-2.6-4.1-3.7c-1.1-0.8-1.4-2.3-0.7-3.4
	c2.3-3.6,5.1-4.3,7-4.2c7.7,0.2,15.1,12.7,16.5,15.3c0.7,1.2,0.2,2.7-1,3.4s-2.7,0.2-3.4-1c-2.9-5.2-8.7-12.6-12.3-12.7
	c-0.2,0-0.6,0-1.1,0.3c2.7,2.3,5.8,5.8,4.7,9.1c-0.3,1-1.3,1.7-2.4,1.7c-2.3,0-8.8,0.7-11.4,3.6c-0.2,0.3-0.5,0.6-0.6,0.9
	c4.7-0.6,12.3-1.1,16.1,2c1.6,1.3,2.4,3,2.4,5.1C29.9,86.8,28.7,88,27.4,88z"/>
<path d="M21.5,122.7c-0.1,0-0.2,0-0.3,0c-1.4-0.1-2.4-1.4-2.2-2.7c-0.8-1.5-8.8-2.1-16-1.2c-1.3,0.2-2.5-0.7-2.8-2
	c-0.4-2.4,0-4.4,1.2-6c2.5-3.2,7.5-3.5,11.9-3.7c1.6-0.1,4-0.2,5.2-0.6c-1.6-1.1-7.3-2-12.6-1.9c-1.2,0-2.3-0.9-2.5-2.1
	c-0.2-1.2,0.6-2.4,1.7-2.8c8-2.4,13.4-15.1,13.5-15.3c0.5-1.3,2-1.9,3.3-1.3c1.3,0.5,1.9,2,1.3,3.3c-0.2,0.4-3.6,8.3-9.4,13.7
	c3.5,0.5,7.1,1.5,8.8,3.5c0.9,1.1,1.3,2.5,1,3.9c-0.8,4-5.5,4.3-10.1,4.6c-2.7,0.2-6.4,0.4-7.9,1.5c5.2-0.4,13.5-0.4,16.7,2.8
	c1.2,1.1,1.7,2.6,1.5,4.1C23.8,121.7,22.7,122.7,21.5,122.7z"/>
<path class="st1" d="M35,128.7c-3.5,3.1-8.2,1.5-12.1,3.7c-3.8,2.1-5.5,5.7-10.6,4.4c-3.7-0.9-5.3,4.8-1.6,5.8
	c4.8,1.2,9.1,0.2,12.9-3c1.2-1,2.2-2.1,3.9-2.6c1.6-0.4,3.5-0.1,5.1-0.5c2.6-0.6,4.7-1.9,6.7-3.6C42.1,130.4,37.9,126.1,35,128.7
	L35,128.7z"/>
<path d="M12.8,147.6c-0.5,0-1.1,0-1.6-0.1c-6.7-1-10.4-8.2-10.6-8.5c-0.6-1.2-0.2-2.7,1-3.3c1.2-0.7,2.6-0.3,3.4,0.8
	c0.2,0.3,0.4,0.6,0.7,0.8c0.2-0.5,0.6-1.4,0.9-3.1c1.8-9.6,11.5-11.6,16.4-11.4c1.4,0.1,2.4,1.2,2.4,2.6c-0.1,1.4-1.2,2.4-2.6,2.4
	c-0.4,0-9.8-0.3-11.3,7.3c-0.4,2-1,4.5-2.5,6.1c0.9,0.6,1.9,1.1,3,1.3c2.3,0.4,4.9-0.9,7.6-3.6c1-1,2.6-1,3.5,0c1,1,1,2.6,0,3.5
	C19.7,145.9,16.3,147.6,12.8,147.6z"/>
<path d="M23.1,169.3c-0.4,0-0.9-0.1-1.3-0.3c-1.2-0.7-1.6-2.2-0.9-3.4l1.6-2.7c-6.7,0.9-9.8-2.6-10-2.8c-0.7-0.8-0.8-2-0.3-2.9
	c0.5-0.9,1.6-1.4,2.7-1.2c1.4,0.3,4.7-3.4,7.1-8.5c0.6-1.3,2.1-1.8,3.3-1.2c1.3,0.6,1.8,2.1,1.2,3.3c-0.6,1.3-2.6,5.5-5.6,8.5
	c1.5-0.1,3.4-0.5,5.8-1.6c1-0.4,2.2-0.2,2.9,0.6c0.7,0.8,0.8,2,0.3,2.9l-4.8,8.2C24.8,168.9,24,169.3,23.1,169.3z"/>
<path d="M37.2,235.8c-0.4,0-0.8-0.1-1.2-0.3c-1.1-0.6-1.6-1.8-1.2-3l4.3-13.2c-10.4,2.8-15.2-2.5-15.5-2.8c-0.7-0.8-0.8-2-0.3-2.9
	s1.6-1.4,2.7-1.2c0.3,0.1,0.5,0,0.8-0.2c2-1.5,3.4-7.9,3.7-11.8c0.1-1.4,1.3-2.4,2.7-2.3c1.4,0.1,2.4,1.3,2.3,2.7
	c-0.1,1.8-1,10-4.4,14.1c2.4,0.4,5.9,0.2,10.8-2c0.9-0.4,2-0.2,2.7,0.4c0.7,0.7,1,1.7,0.7,2.6l-3.2,9.9c3.7-2.1,8.7-3.7,14.8-2.9
	c1.4,0.2,2.3,1.5,2.1,2.8c-0.2,1.4-1.4,2.3-2.8,2.1c-10.6-1.5-16.9,6.5-17.2,6.8C38.7,235.4,37.9,235.8,37.2,235.8z"/>
<path d="M202.4,152.4c-2.2,0-5.1-0.7-9-2.6c-0.1,0.1-0.3,0.2-0.5,0.2c-1.1,0.5-2.9,1.5-5.1,0.8c-1.3-0.4-2.1-1.8-1.7-3.1
	c0.4-1.3,1.8-2.1,3.1-1.7c0.3,0.1,0.6,0,1.4-0.4c1-0.5,2.7-1.4,4.7-0.4c2.2,1.2,4,1.8,5.3,2c-0.8-1.2-1.5-2.7-1.8-4.8
	c-1-1.3-5.6-3.3-7.7-3.6c-0.8,0.3-1.4,0.5-1.4,0.5c-1.6,0.4-2.7-0.6-3.1-1.6c-0.5-1.4,0.1-2.6,1.9-3.5c0.5-0.3,1.1-0.4,1.8-0.4
	c2-0.9,4.8-2.4,6.2-3.6c-0.9-0.3-2.6-0.6-5.8-0.7c-4.9-0.2-8.5-7.7-9.4-10c-0.5-1.3,0-2.7,1.3-3.3c1.3-0.5,2.7,0,3.3,1.3
	c1.6,3.8,4.1,6.9,5,7c5.3,0.2,10.8,0.9,11.2,4.9c0.2,2.4-2,4.6-4.6,6.3c0.5,0.2,0.9,0.4,1.2,0.6c3.2,1.7,4.9,3.4,5.2,5.2
	c0.5,3.7,3,4.3,3,4.4c0.8,0.2,1.5,0.7,1.8,1.5s0.3,1.6-0.2,2.3C208.2,150.1,206.6,152.4,202.4,152.4z M197.4,130.7L197.4,130.7
	L197.4,130.7z"/>
<path d="M202.7,171c-0.3,0-0.5,0-0.8-0.1l-9-3c-1-0.3-1.7-1.3-1.7-2.4c0-1.1,0.7-2,1.8-2.4c2.5-0.8,4.2-1.7,5.5-2.6
	c-4.2-0.3-8.5-2.1-9.8-2.7c-1.3-0.6-1.8-2.1-1.2-3.3c0.6-1.3,2.1-1.8,3.3-1.2c5.2,2.3,10.1,2.9,11,1.8c0.6-0.9,1.8-1.2,2.8-0.9
	c1,0.3,1.7,1.3,1.7,2.4c0,0.3-0.1,4.9-5.7,8.6l3,1c1.3,0.4,2,1.9,1.6,3.2C204.8,170.3,203.8,171,202.7,171z"/>
<path class="st1" d="M34.1,167.6c-4.4,5.5-4.8,13.7-5.3,20.5c-0.3,3.8,5.7,3.8,6,0c0.2-2.8,0.7-5.6,1.1-8.4c0.4-2.7,0.7-5.7,2.5-7.9
	C40.8,168.8,36.5,164.6,34.1,167.6L34.1,167.6z"/>
<path d="M23,203.2c-0.4,0-0.8-0.1-1.1-0.3c-1.2-0.6-1.7-2-1.2-3.2c0.3-0.7,0.7-1.5,1.3-2.3c2-3.7,3.6-7.4,4.3-9.9
	c-3,2.3-7.3,3.9-12.5,2.2c-0.2-0.1-0.4-0.1-0.5-0.3c-1.5-0.9-3.3-1.6-4.6-1.9c-1.3,0.5-2.3,0.8-2.7,0.9c-1.1,0.3-2.2-0.1-2.8-1
	c-0.6-0.9-0.6-2.1,0.1-3c1.2-1.5,2.9-2,4.6-2c5.5-2.2,11.2-5.8,10.6-8.8c-0.3-1.4,0.6-2.7,2-2.9c1.4-0.3,2.7,0.6,2.9,2
	c1,5.2-3.7,9.3-8.5,11.9c0.3,0.1,0.5,0.3,0.7,0.4c6,1.8,9.7-3.7,9.9-3.9c0.6-0.9,1.8-1.3,2.8-1c1.3,0.4,2.3,1.4,2.8,2.7
	c0.8,2,0.2,5.1-0.8,8.2c2.7-0.9,5.9-1,9.6,0c1.3,0.4,2.1,1.7,1.8,3.1c-0.4,1.3-1.7,2.1-3.1,1.8c-7-1.9-10.9,1.9-12.5,4.3
	c-0.4,0.8-0.8,1.4-1.1,1.9C24.7,202.7,23.8,203.2,23,203.2z"/>
<path class="st4" d="M130.7,132.4c-0.1,4.6,0.6,9.8,2,14.2c1,3,3.2,6.9,3.8,9c2.3,7.4,13.9,4.2,11.6-3.2c-0.9-2.9-2.6-5.6-3.6-8.4
	c-1.2-3.4-1.9-7.8-1.8-11.6C142.9,124.7,130.9,124.7,130.7,132.4L130.7,132.4z"/>
<path d="M149.6,160.1c-0.8,0-1.7-0.4-2.1-1.2c-13.4-22.2-6.8-43.3-6.5-44.2c0.4-1.3,1.8-2,3.1-1.6c1.3,0.4,2,1.8,1.6,3.1l0,0
	c-0.1,0.2-6.1,19.9,6,40.1c0.7,1.2,0.3,2.7-0.9,3.4C150.5,160,150.1,160.1,149.6,160.1z"/>
<path d="M198.4,198.7c-0.4,0-0.9-0.1-1.3-0.4c-0.1,0-5.6-3.4-10.8-3.4c-1.4,0-2.5-1.1-2.5-2.5s1.1-2.5,2.5-2.5
	c1.2,0,2.4,0.1,3.6,0.4c-2.4-3.2-4.3-6.7-4-9.3c0.2-1.4,0.9-2.6,2.1-3.3c0.9-0.6,2.2-0.5,3,0.3c0.2,0.2,4.7,4.1,9.7,1.7
	c-4.2-1.5-9.5-4.5-9.9-10.4c-0.1-1.4,0.9-2.6,2.3-2.7c1.4-0.1,2.6,0.9,2.7,2.3c0.3,3.8,5.1,5.7,8.2,6.5c0.9-0.2,2.2-0.1,3.8,1
	c0.9,0.7,1.3,1.9,0.9,2.9c-0.4,1.1-1.5,1.7-2.6,1.6c0,0-0.2,0-0.3,0c0,0.1,0,0.1,0,0.2c0,0.8-0.4,1.6-1.1,2.1
	c-4.5,3-9.2,2.5-12.6,1.1c1.6,2.7,4.8,6.7,8.3,10.2c0.9,0.9,1,2.3,0.2,3.3C199.9,198.4,199.2,198.7,198.4,198.7z"/>
<path class="st1" d="M142.3,70.2c-1.8,0-3.6-0.4-5.4-0.3c-1.1,0.1-2.6,0-4,0c-1.5,0-2.7,0.1-4,0.8c-0.9,0.4-2.2,1.3-2.7,1.4
	c-5.6,1.3-3.3,10,2.4,8.7c1.2-0.3,2.3-1,3.4-1.5c0.1,0,1.3-0.8,1.4-0.8c-1.3,0.3-1.6,0.5-0.9,0.5c0.3,0,0.6,0,1,0.1
	c1.5,0,2.9,0,4.4-0.1c1.5-0.1,2.9,0.4,4.4,0.4C148.1,79.1,148.1,70.1,142.3,70.2L142.3,70.2z"/>
<path class="st1" d="M137.4,57c-2.8,0-5.5,1.2-6.6,3.9c-1,2.4-0.3,5,1.4,6.8c1.6,1.7,4.7,1.8,6.4,0c1.7-1.8,1.7-4.5,0-6.4
	c-0.1-0.1-0.1-0.1-0.2-0.2c0.2,0.3,0.5,0.6,0.7,0.9c-0.1-0.1-0.2-0.3-0.3-0.5c0.2,0.4,0.3,0.7,0.5,1.1c-0.1-0.1-0.1-0.3-0.1-0.4
	c0.1,0.4,0.1,0.8,0.2,1.2c0-0.1,0-0.3,0-0.4c-0.1,0.4-0.1,0.8-0.2,1.2c0-0.1,0-0.2,0.1-0.3c-0.2,0.4-0.3,0.7-0.5,1.1
	c0-0.1,0.1-0.2,0.2-0.3c-0.2,0.3-0.5,0.6-0.7,0.9c0.1-0.1,0.2-0.2,0.3-0.3c-0.3,0.2-0.6,0.5-0.9,0.7c0.2-0.1,0.3-0.2,0.5-0.3
	c-0.4,0.2-0.7,0.3-1.1,0.5c0.3-0.1,0.5-0.2,0.8-0.2c-0.4,0.1-0.8,0.1-1.2,0.2c0.2,0,0.5,0,0.7,0c2.4,0,4.6-2,4.5-4.5
	C141.8,59,139.9,56.9,137.4,57L137.4,57z"/>
<path d="M121.4,80c-0.9,0-1.7-0.4-2.1-1.2c-0.6-1-0.4-2.3,0.4-3.1c0.3-0.2,3.4-3.1,8-5.2c1.2-1.4,2.2-3,2.2-5c0-3.3,1-5.8,2.9-7.5
	c2.8-2.5,6.5-2,6.9-2c1.4,0.2,2.3,1.5,2.1,2.8c-0.2,1.4-1.4,2.3-2.8,2.1c-0.1,0-1.8-0.2-3,0.8c-0.8,0.7-1.2,2-1.2,3.7
	c0,1-0.1,2-0.4,2.9c3.5-0.5,7.3-0.1,11.1,1.9c1.2,0.7,1.7,2.2,1,3.4c-0.7,1.2-2.2,1.7-3.4,1c-4.3-2.4-8.9-1.6-12.6,0
	c-3.5,3.4-8,5-8.3,5.2C121.9,79.9,121.6,80,121.4,80z"/>
<circle class="st1" cx="88" cy="179.5" r="1.5"/>
<circle class="st1" cx="87" cy="187.5" r="1.5"/>
<circle class="st1" cx="79" cy="182.5" r="1.5"/>
<circle class="st1" cx="167" cy="176" r="1.5"/>
<circle class="st1" cx="164.4" cy="186.2" r="1.5"/>
<circle class="st1" cx="170.3" cy="183.5" r="1.5"/>
<path d="M167.9,354.5H63.3c-0.9,0-1.7-0.4-2.1-1.2c-2.4-3.8-4.7-12.7,2.8-20c0-1.5-0.3-4.8-3.1-7.8c-0.9-0.6-3-2.1-3.7-5
	c-0.6-2.5,0-5.1,1.8-7.9c0.1-1.6,0.3-6.7-1.8-11c-0.2-0.5-0.3-1-0.2-1.6c0-0.1,1.8-10.6-0.9-19.8c-0.1-0.4-0.1-0.8-0.1-1.1
	c0.8-4.7,1.4-12.2,0.2-14.5c-0.3-0.6-5.4-12.2,1.9-19.4c0.4-2,1.1-8-1.1-13.8c-0.5-1.3,0.2-2.7,1.5-3.2c1.3-0.5,2.7,0.2,3.2,1.5
	c3.2,8.6,1.2,17.1,1.1,17.5c-0.1,0.5-0.4,1-0.8,1.3c-5.5,4.7-1.4,14-1.3,14.1c2.1,4.1,0.8,13.8,0.3,16.9c2.5,8.8,1.4,18,1,20.8
	c2.9,6.4,1.9,13.4,1.9,13.7c-0.1,0.4-0.2,0.8-0.4,1.1c-0.9,1.2-1.8,2.9-1.4,4.4c0.3,1.3,1.5,1.9,1.5,1.9c0.2,0.1,0.5,0.3,0.6,0.5
	c5.8,5.8,4.7,12.9,4.7,13.2c-0.1,0.6-0.4,1.1-0.8,1.5c-5.7,5.1-4.2,10.7-3.2,13.1h103.1c1.4,0,2.5,1.1,2.5,2.5
	S169.3,354.5,167.9,354.5z"/>
<path d="M126.4,241.1c-0.7,0-1.5,0-2.3-0.1c-17.6-1.8-22.4-19.1-22.4-28.1c0-1.1,0.6-2,1.6-2.4c1-0.4,2.1-0.1,2.8,0.7
	c13,15.6,24,13.4,29.5,10.8c4.6-2.3,7.2-5.7,8-7.8c0.2-1.3,0.3-2.1,0.3-2.1c0.1-1.2,1.1-2.2,2.3-2.3c1.2-0.1,2.4,0.7,2.6,1.9
	c0.2,1.1,0.1,2.3-0.3,3.6c-0.8,5.1-3.2,15.5-10.2,21.4C134.9,239.6,130.9,241.1,126.4,241.1z M107.8,220.2c1.7,6.4,6,14.7,16.8,15.8
	c4.1,0.4,7.6-0.6,10.5-3c2.5-2.1,4.4-5.1,5.7-8.2c-0.9,0.6-1.9,1.2-2.9,1.7C125.6,232.5,114.7,226.3,107.8,220.2z"/>
</svg>
