<?xml version="1.0" encoding="utf-8"?>
<!-- Generator: Adobe Illustrator 23.0.0, SVG Export Plug-In . SVG Version: 6.00 Build 0)  -->
<svg version="1.1" id="Ebene_1" xmlns="http://www.w3.org/2000/svg" xmlns:xlink="http://www.w3.org/1999/xlink" x="0px" y="0px"
	 viewBox="0 0 241.6 409.2" style="enable-background:new 0 0 241.6 409.2;" xml:space="preserve">
<style type="text/css">
	.st0{fill:#603813;}
	.st1{fill:#754C24;}
	.st2{fill:none;stroke:#000000;stroke-width:6;stroke-miterlimit:10;}
	.st3{fill:#FFFFFF;}
	.st4{fill:#601717;}
	.st5{fill:#CC6969;}
	.st6{fill:#FFCC33;}
	.st7{fill:#C61A2F;}
	.st8{fill:#FFCC00;}
</style>
<g id="Ebene_3">
	<path class="st0" d="M227.6,117.2l7.5-9.9l-19.6-5.2l0.9-9.1l-17.6,4c0,0-1.1-65.6-40.2-64.3l-11.7,1.7l-5.4-13.1l-8.6,9.1
		c0,0-6.2-2.5-11.8-23.2l-8.7,19.3l-13.5-7.4l4.7,15.4l-6.9,3.7c0,0-30-13.4-39,7.5S44.2,93,44.2,93l-14.5-3l-3.5,7.1l-11.4,5
		l-7.6,5.2l13.5,12.2l-4.1,4.9l11.3,6.1L13,138l12.9,17c0,0-22.2,40.2,6.4,74.5c0,0,68.9,37.3,65.8,92l2.6,82H143
		c0,0-4.1-132.3,34.2-147.9s56.2-46,48.9-79.6c-3.4-15.9-5.4-21.4-6.6-22.9l8.2-10.5l-6.1-9.1l6.1-8.1L227.6,117.2z M87.2,158.9
		c-10.9,0-20-17.2-20-37.6s9.2-37.6,20-37.6c10.9,0,20,17.2,20,37.6C107.3,141.7,98.1,158.9,87.2,158.9z M160,157
		c-10.9,0-20-17.2-20-37.6s9.2-37.6,20-37.6c10.9,0,20,17.2,20,37.6C180.1,139.9,170.9,157,160,157z"/>
	<path class="st1" d="M151.7,56.7c0.2-0.6,1.1-2.9,0.8-2.4c-0.5,1,1.7-2.7,0.8-1.5c1.6-2,4.3-2.6,7.5-2.7c1.7,0,3.3,0,4.9,0.7
		c0.2,0.1,1.8,1.1,1.3,0.8c0.4,0.2,0.7,0.7,1,1c0.5,0.5-1.1-0.4-0.2-0.2c0.1,0,0.4,0.6,0.4,0.7c0.4,0.8,0.8,1.9-0.6-1.5
		c1.8,4.5,6,7.7,11.1,6.3c4.3-1.2,8.1-6.5,6.3-11.1c-3.9-9.8-13.9-14.9-24.2-14.7c-13.5,0.3-22.3,7.4-26.5,19.8
		C130.6,62.8,148,67.6,151.7,56.7L151.7,56.7z"/>
	<path class="st1" d="M93.9,36.7c-8.1-5.4-21.4-6.7-29.6-0.9c-8.1,5.8-14.6,16.5-16,26.4c-0.7,4.8,1.2,9.7,6.3,11.1
		c4.2,1.2,10.4-1.4,11.1-6.3c0.8-5.5,3.6-11.8,7.9-15.4c3.1-2.6,8.1-1.4,11.3,0.7C94.5,58.7,103.5,43.2,93.9,36.7L93.9,36.7z"/>
	<path class="st2" d="M67.2,97"/>
	<path class="st1" d="M31.9,143.8c-4.2,6.4-7.5,14.3-10,21.6c-2.9,8.4-3.9,16.2-4.7,25c-0.7,8.5,0.9,18.6,5.2,26.2
		c3.5,6.2,8.2,10.7,13.8,15c3.9,3,10.1,0.6,12.3-3.2c2.7-4.6,0.6-9.3-3.2-12.3c-3.4-2.6-5.9-5.5-7.7-9.2c-1.5-3.2-1.8-7-2.6-10.4
		c-0.9-3.7-0.4,0.3-0.2-2.5c0.2-2.1,0.5-3.9,0.5-6c0.2-11.5,5.7-25.4,12.1-35C53.9,143.2,38.3,134.2,31.9,143.8L31.9,143.8z"/>
</g>
<g>
	<path d="M44.4,106.7c-1.9,0-3.5-1.5-3.5-3.4c-0.3-21.1,4.4-51,19-65.8c5.7-5.8,12.3-8.7,19.7-8.7c22.6,0,31,20.3,32.4,31
		c0.2,1.9-1.1,3.7-3,3.9s-3.7-1.1-3.9-3c-0.1-1-3.4-24.8-25.4-24.8c-5.5,0-10.4,2.2-14.8,6.6c-12.2,12.4-17.3,39.5-17,60.8
		C47.9,105.2,46.3,106.7,44.4,106.7L44.4,106.7z"/>
	<path d="M198.8,106.7L198.8,106.7c-2,0-3.5-1.6-3.5-3.6c0.3-21.3-4.8-48.4-17-60.8c-4.3-4.4-9.3-6.6-14.8-6.6
		c-22,0-25.3,23.8-25.4,24.8c-0.2,1.9-2,3.3-3.9,3c-1.9-0.2-3.3-2-3-3.9c1.3-10.7,9.8-31,32.4-31c7.4,0,14.1,2.9,19.7,8.7
		c14.6,14.8,19.3,44.7,19,65.8C202.3,105.2,200.7,106.7,198.8,106.7z"/>
	<path d="M103.7,37.8c-1.6,0-3.1-1.1-3.4-2.8l0,0c-1.1-5.5-3.9-11.9-6.1-12.9c-3.2-1.3-3.1-3.6-2.9-4.5c0.3-1.4,1.5-2.9,4-2.9l0,0
		c2.5,0,9.6,1.7,15.6,5.8c0-9.3,3.6-16.2,10.3-20.1c1.1-0.6,2.4-0.6,3.5,0s1.7,1.8,1.7,3.1c-0.1,6.5,1.2,17.1,4.6,22.8
		c2.7-5.3,3.2-9,2.6-9.6c-1.1-1.4-1.1-3.5,0.2-4.7c1.3-1.3,3.3-1.4,4.7-0.2c0.4,0.4,10.1,8.8,7.3,19.4c-0.5,1.9-2.4,3-4.3,2.5
		c-1.9-0.5-3-2.4-2.5-4.3c0.4-1.4,0.3-2.8,0-4.2c-1.4,3.8-3.5,7.3-4.5,8.9c-0.5,0.8-1.3,1.4-2.2,1.5c-0.9,0.2-1.9,0-2.7-0.5
		c-6.8-4.6-9.1-15.7-9.9-23.5c-3.2,6-1.8,14.3-0.7,18.6c0.4,1.1,0.8,2.2,1,3.5c0.3,1.8-0.8,3.5-2.5,4c-1.8,0.5-3.6-0.4-4.2-2.2
		c0-0.1-0.4-1.2-0.9-3c-1.6-3.5-4.9-6-8.3-7.8c1.6,3.8,2.5,7.6,2.8,8.8c0.4,1.9-0.8,3.7-2.7,4.1C104.1,37.8,103.9,37.8,103.7,37.8z"
		/>
	<path d="M87.2,76.6c-15.2,0-27,19.6-27,44.6s11.9,44.6,27,44.6c15.2,0,27-19.6,27-44.6C114.3,96.2,102.4,76.6,87.2,76.6z
		 M87.2,158.9c-10.9,0-20-17.2-20-37.6s9.2-37.6,20-37.6c10.9,0,20,17.2,20,37.6C107.3,141.7,98.1,158.9,87.2,158.9z"/>
	<path class="st3" d="M107.2,121.3c0.1,20.4-9.1,37.6-20,37.6s-20-17.2-20-37.6s9.2-37.6,20-37.6C98.1,83.7,107.2,100.9,107.2,121.3
		z"/>
	<path d="M160,74.7c-15.2,0-27,19.6-27,44.6s11.9,44.6,27,44.6c15.2,0,27-19.6,27-44.6C187.1,94.4,175.2,74.7,160,74.7z M160,157
		c-10.9,0-20-17.2-20-37.6s9.2-37.6,20-37.6c10.9,0,20,17.2,20,37.6C180.1,139.9,170.9,157,160,157z"/>
	<path class="st3" d="M180,119.4c0.1,20.5-9.1,37.6-20,37.6s-20-17.2-20-37.6s9.2-37.6,20-37.6C170.9,81.8,180,99,180,119.4z"/>
	<path d="M87.2,103.2c-4.7,0-8.5,8.1-8.5,18.1s3.8,18.1,8.5,18.1s8.4-8.1,8.4-18.1C95.7,111.2,91.9,103.2,87.2,103.2z M85.8,115.5
		c0,0,0.3-3.5,1.7-5.7s4.6,2.3,4.6,5.7C92.1,121.5,85.8,115.5,85.8,115.5z"/>
	<polygon class="st4" points="88.5,204.5 106.4,222.2 145,222.2 160.6,204.5 	"/>
	<path class="st5" d="M105.5,224c0,0,14.3-14.9,39.5-0.7l-21.4,21.8L105.5,224z"/>
	<g>
		<path class="st6" d="M171.4,172.4c-10.3,5.1-22.2-1.2-26.5-7.1c-4.3-5.8-27-19.2-41-1.8c-14,17.5-21.3,14.1-23.2,13.3
			c-14.2-5.7-25.6-5.2-27,7.4c-1.3,12.5,6.6,15.8,6.6,15.8c7.6,5.3,21.8,20.2,31.6,29.2c9.6,8.8,31.6,44.8,31.6,44.8
			s25.7-37,36.3-47c11.1-10.5,20.4-20.7,29.5-28C203.8,187,190.2,163,171.4,172.4z M149.7,219.5c-21.1,18.2-25.2,30-25.2,30
			s-9.3-16.2-21.6-27c-12.1-10.5-11.8-10-34.2-36.5c3.5,3.9,13.4,13.4,30.3,18.9c21.7,7.1,24.3,17.3,24.3,17.3s10.3-14.7,27.9-18.2
			c17.1-3.4,25.4-18.7,25.9-19.7C176.8,185.4,170.1,202,149.7,219.5z"/>
		<path d="M123.5,277.5L123.5,277.5c-1.3,0-2.4-0.7-3-1.7c-0.2-0.4-21.8-35.6-31-44c-3.3-3-7-6.7-11-10.5
			c-7.5-7.3-15.2-14.8-20-18.2c-2-1-9.7-5.8-8.3-19.2c0.7-6.9,4.1-10.2,6.7-11.8c5.6-3.4,14-2.9,25,1.5H82c6,2.5,14.5-6.7,19.1-12.3
			c5.4-6.7,12.5-10.1,20.8-10c11.2,0.2,22.1,7,25.7,11.9c3.3,4.5,13.5,10.3,22.1,6l0,0c11.4-5.6,21.2-0.9,25.9,6.4
			c4.7,7.4,4.8,18.7-4.2,26c-5.6,4.5-11.4,10.3-17.6,16.5c-3.7,3.7-7.5,7.5-11.7,11.4c-10.3,9.7-35.6,46.1-35.8,46.5
			C125.8,276.9,124.7,277.5,123.5,277.5z M65.9,176.9c-2.2,0-3.9,0.4-5.3,1.2c-1.9,1.2-3,3.3-3.4,6.6c-1,9.6,4.3,12.1,4.5,12.2
			c0.2,0.1,0.4,0.2,0.6,0.4c5.3,3.7,13.3,11.5,21.1,19.1c3.9,3.8,7.6,7.4,10.8,10.4c7.9,7.2,23.1,31,29.4,41
			c7.2-10.2,25-35,33.7-43.2c4-3.8,7.8-7.6,11.5-11.2c6.3-6.3,12.3-12.2,18.2-17c6.1-4.9,5.6-12.1,2.7-16.8
			c-4.4-6.9-11.6-6.5-16.8-3.9l0,0c-11.9,5.9-25.5-0.9-30.9-8.1c-2.3-3.1-11.2-8.8-20.2-9c-6.1-0.1-11.2,2.3-15.2,7.3
			c-10.2,12.7-19.4,17.6-27.2,14.4C74.1,177.9,69.4,176.9,65.9,176.9z M124.5,253c-1.2,0-2.4-0.7-3-1.7c-0.1-0.2-9.1-15.8-20.9-26.1
			l-1-0.8c-11.4-9.9-12-10.6-33.6-36.1c-1.2-1.5-1.1-3.6,0.4-4.9c1.4-1.3,3.6-1.1,4.9,0.3c3.3,3.6,12.7,12.7,28.8,17.9
			c13.8,4.5,20.6,10.4,23.8,14.5c4.6-5,13.8-13,26.7-15.6c15.1-3,22.7-16.4,23.5-17.9c0.9-1.6,2.9-2.3,4.6-1.5
			c1.7,0.8,2.5,2.7,1.8,4.5c-0.7,1.9-7.8,18.7-28.5,36.7l0,0c-19.9,17.2-24.1,28.4-24.2,28.5c-0.5,1.3-1.6,2.2-3,2.3
			C124.7,253,124.6,253,124.5,253z M89.6,205c5.5,6.1,8.2,8.5,14.7,14.1l1,0.8c8.3,7.3,15.2,16.8,19.1,22.6
			c3.4-5.4,10.2-14.4,23.1-25.6l0,0c4.7-4.1,8.6-8.1,11.9-11.8c-2.3,1-4.7,1.7-7.3,2.3c-16,3.2-25.7,16.7-25.8,16.8
			c-0.8,1.1-2.2,1.7-3.5,1.4c-1.3-0.2-2.4-1.2-2.8-2.6c0,0-2.9-8.6-22-14.9C94.9,207.2,92.2,206.2,89.6,205z"/>
	</g>
	<path d="M145.1,409.2h-44.4c-0.9,0-1.8-0.4-2.5-1.1s-1-1.6-1-2.5c1.4-60.1-2.5-102.7-11.6-126.6c-7.2-19-16.1-22.4-22.6-24.8
		c-1.3-0.5-2.5-0.9-3.6-1.4c-5.3-2.4-15.5-7.9-25.2-16.7c-10.7-9.8-17.3-20.7-19.7-32.5C7.8,170.1,32,137.1,33,135.7
		c1.2-1.6,3.3-1.9,4.9-0.7c1.6,1.2,1.9,3.3,0.7,4.9c-0.2,0.3-23.3,31.9-17.2,62.4c5.3,26.4,35,41.4,40.9,44.2c0.9,0.4,2,0.8,3.1,1.2
		c7.3,2.7,18.4,6.8,26.7,28.9c9.3,24.6,13.3,65.8,12.1,125.7h37.2c-1.2-59.2,2.7-99.7,11.7-123.6c8.2-21.5,19.2-25.3,26.5-27.8
		c1.4-0.5,2.5-0.9,3.5-1.3c5.9-2.7,35.7-17.8,40.9-44.2c6.1-30.4-17-62-17.2-62.4c-1.1-1.6-0.8-3.7,0.7-4.9c1.6-1.1,3.7-0.8,4.9,0.7
		c1,1.4,25.2,34.4,18.5,67.9c-2.3,11.8-9,22.7-19.7,32.5c-9.7,8.8-19.9,14.2-25.2,16.7c-1.3,0.6-2.7,1.1-4.2,1.6
		c-12.8,4.4-36.6,12.5-33.4,148.2c0,0.9-0.3,1.9-1,2.5C146.9,408.9,146,409.2,145.1,409.2z"/>
	<g>
		<path class="st7" d="M89.9,170c0,0-28.4-8-25.3,41.8c3.1,49.8,1.5,32.2-3.1,49.1s3.5,46.4,18.4,46.8s25.5-17.2,6.8-49.8
			c0,0-2.2-13-2.6-26.1S75,191.5,89.9,170z"/>
		<path d="M80.4,311c-0.2,0-0.4,0-0.6,0c-5.2-0.1-10.1-3-14-8.3c-7.8-10.5-11.3-29.7-7.7-42.9c1.3-4.9,2.5-7.1,3.3-8.8
			c1.6-3.2,1.9-3.7-0.3-39.2c-1.3-20.5,2.5-34.4,11.1-41.3c8.5-6.8,18.2-4.1,18.6-4c1.1,0.3,2,1.1,2.3,2.2c0.4,1.1,0.2,2.2-0.4,3.2
			c-10.9,15.6-8.2,34.8-6.3,48.8c0.6,4.2,1.1,7.8,1.2,10.8c0.3,11.1,2,22.3,2.4,25c14.3,25.3,10.4,39.2,6.8,45.3
			C93.4,307.8,87.4,311,80.4,311z M84,173c-2.2,0.3-4.9,1-7.4,3.1c-6.6,5.4-9.6,17.6-8.5,35.4c2.3,37.3,2.1,37.7-0.4,42.7
			c-0.7,1.5-1.6,3.3-2.8,7.5c-3,11.1,0,28,6.5,36.9c2.6,3.6,5.5,5.4,8.6,5.5c4.7,0.1,8.5-1.9,10.8-5.8s6.2-15.4-7.2-38.8
			c-0.2-0.4-0.3-0.8-0.4-1.2c-0.1-0.5-2.2-13.4-2.6-26.5c-0.1-2.7-0.6-6.1-1.1-10.1C77.8,208.8,75.2,189.9,84,173z"/>
	</g>
	<path d="M212.3,107.7c-1.7,0-3.2-1.2-3.5-2.9c-0.3-1.9,1-3.7,2.9-4c0.7-0.1,1.3-1.1,1.9-2.5c-1.8,0.5-4,0.8-6.7,0.8
		c-1.9,0-3.5-1.6-3.5-3.5s1.6-3.5,3.5-3.5l0,0l0,0l0,0c3.5,0,7.1-1.2,7.3-2.1c0.8-3.6,3.4-3.6,4.1-3.6c1.2,0.1,3.3,0.9,3.4,4.6
		c0.1,3.9-1.3,15.3-9,16.6C212.7,107.7,212.5,107.7,212.3,107.7z"/>
	<path d="M227.6,120.7c-1.4,0-2.8-0.9-3.3-2.3c-0.7-1.8,0.3-3.8,2.1-4.5c2.1-0.8,3.8-3.6,4.8-6.2c-2.5,0.3-5.9,0.1-10.4-1
		c-1.9-0.5-3-2.4-2.6-4.2c0.5-1.9,2.3-3,4.2-2.6l0,0c3.9,1,8.6,1.2,9.7,0.4c1.8-2.3,3.9-1.8,4.5-1.6c0.8,0.3,2.7,1.2,2.7,4.2
		c0.1,3.9-3,14.8-10.6,17.5C228.4,120.5,228,120.7,227.6,120.7z"/>
	<path d="M223.3,150.7c-1.7,0-3.2-1.3-3.5-3.1c-0.2-1.8,0.9-3.4,2.6-3.8c0.5-0.4,1.1-1.2,1.7-2.2c-5.8-0.6-13-3.3-14.3-4.3
		c-1.8-1.3-2-3.1-1.6-4.4c1-2.8,4.1-2.6,5.3-2.6c2.4,0.1,6.8-1,11-2.4c-5.4-1.8-10.5-4.2-12.8-5.4c-1.7-0.9-2.4-3-1.6-4.7
		c0.9-1.7,3-2.4,4.7-1.6c8,4,18.4,7.6,21.3,6.7c1-0.3,3.2-1,4.7,0.9c0.9,1.1,1.1,2.6,0.5,3.8c-0.5,0.9-1,2.1-12,5.9
		c-1,0.4-2.1,0.7-3.3,1.1c0.3,0,0.6,0,0.8,0c2.1-1.3,3.8-0.4,4.3-0.1c0.7,0.4,2.2,1.8,1.6,4.6c-0.4,1.9-4.1,10.8-9.1,11.4
		C223.6,150.7,223.5,150.7,223.3,150.7z M222.9,143.8L222.9,143.8L222.9,143.8z M230.9,140.5L230.9,140.5L230.9,140.5z M212.6,137.2
		L212.6,137.2L212.6,137.2z"/>
	<path d="M30.1,103.5c-0.2,0-0.4,0-0.6,0c-7.7-1.2-9.1-12.7-9-16.6c0.1-3.7,2.2-4.5,3.4-4.6c0.8-0.1,3.3,0,4.1,3.6
		c0.2,0.9,3.8,2.1,7.3,2.1l0,0c1.9,0,3.5,1.6,3.5,3.5S37.3,95,35.3,95c-2.7,0-4.9-0.3-6.7-0.8c0.5,1.4,1.2,2.4,1.9,2.5
		c1.9,0.3,3.2,2.1,2.9,4C33.2,102.2,31.8,103.5,30.1,103.5z"/>
	<path d="M16.8,118.9c-0.4,0-0.8-0.1-1.2-0.2c-6.8-2.5-14.9-13-14.9-16c0-1.5,1-2.8,2.4-3.3c1.5-0.5,2.8-0.1,4,1.3
		c1.9,0.1,7.3-2,11.8-4.6c1.7-0.9,3.8-0.3,4.8,1.3c0.9,1.7,0.3,3.8-1.3,4.8C19,104.1,15,106,11.5,107c1.9,2.2,4.3,4.4,6.5,5.1
		c1.8,0.7,2.8,2.7,2.1,4.5C19.6,118,18.3,118.9,16.8,118.9z"/>
	<path d="M18.5,150.7c-0.1,0-0.3,0-0.4,0c-5-0.6-8.7-9.6-9.1-11.4c-0.6-2.8,0.9-4.2,1.6-4.6c0.5-0.3,2.1-1.1,4.1,0
		c1.1,0,3-0.6,5-1.5c-4.7-0.8-10.1-2-14.6-3.2c-0.5-0.1-1-0.2-1.5-0.3c-2.9-0.9-4.1-2.4-3.4-4.6c0.9-3.3,4.2-2.5,5.5-2.2
		c0.3,0.1,0.5,0.1,0.8,0.2c3.7,0.2,13.1-3.2,20.5-6.9c1.7-0.9,3.8-0.2,4.7,1.6c0.9,1.7,0.2,3.8-1.6,4.7c-1.7,0.8-4.9,2.4-8.6,3.8
		c2.8,0.5,5,0.6,6.4,0.6c3.5-0.2,4.8,1.4,5.3,2.8c0.7,2-0.2,3.9-2.7,5.7c-1.1,0.8-7.5,4.6-13,5.8c0.7,1.2,1.5,2.2,2,2.6
		c1.7,0.4,2.8,2.1,2.6,3.8C21.7,149.4,20.2,150.7,18.5,150.7z M18.9,143.8L18.9,143.8L18.9,143.8z M28.6,134L28.6,134L28.6,134z"/>
	<path d="M160,103.2c-4.7,0-8.5,8.1-8.5,18.1s3.8,18.1,8.5,18.1s8.4-8.1,8.4-18.1C168.5,111.2,164.7,103.2,160,103.2z M158.6,115.5
		c0,0,0.3-3.5,1.7-5.7s4.6,2.3,4.6,5.7C164.9,121.5,158.6,115.5,158.6,115.5z"/>
	<g id="Monokel_2_">
		<g>
			
				<ellipse transform="matrix(0.9804 -0.1969 0.1969 0.9804 -30.4338 39.4944)" class="st8" cx="183.4" cy="172.8" rx="6.9" ry="10.4"/>
			<path d="M184.5,184.7c-1.9,0-3.8-0.9-5.5-2.6c-1.9-1.9-3.2-4.6-3.8-7.6s-0.4-6,0.6-8.5c1.1-2.7,3-4.4,5.3-4.8
				c2.3-0.5,4.7,0.4,6.8,2.4c1.9,1.9,3.2,4.6,3.8,7.6s0.4,6-0.6,8.5c-1.1,2.7-3,4.4-5.3,4.8C185.3,184.7,184.9,184.7,184.5,184.7z
				 M182.3,164c-0.2,0-0.4,0-0.6,0.1c-1.3,0.3-2.4,1.3-3.1,3c-0.8,1.9-0.9,4.3-0.5,6.7c0.5,2.4,1.6,4.6,3,6c1.3,1.3,2.7,1.9,4,1.6
				c1.3-0.3,2.4-1.3,3.1-3c0.8-1.9,0.9-4.3,0.5-6.7s-1.6-4.6-3-6C184.6,164.7,183.4,164,182.3,164z"/>
		</g>
		<g>
			
				<ellipse transform="matrix(0.9804 -0.1969 0.1969 0.9804 -34.2739 40.8704)" class="st8" cx="188.4" cy="192.8" rx="6.9" ry="10.4"/>
			<path d="M189.5,204.7c-1.9,0-3.8-0.9-5.5-2.6c-1.9-1.9-3.2-4.6-3.8-7.6s-0.4-6,0.6-8.5c1.1-2.7,3-4.4,5.3-4.8
				c2.3-0.5,4.7,0.4,6.8,2.4c1.9,1.9,3.2,4.6,3.8,7.6s0.4,6-0.6,8.5c-1.1,2.7-3,4.4-5.3,4.8C190.3,204.7,189.9,204.7,189.5,204.7z
				 M187.3,184c-0.2,0-0.4,0-0.6,0.1c-1.3,0.3-2.4,1.3-3.1,3c-0.8,1.9-0.9,4.3-0.5,6.7c0.5,2.4,1.6,4.6,3,6c1.3,1.3,2.7,1.9,4,1.6
				c1.3-0.3,2.4-1.3,3.1-3c0.8-1.9,0.9-4.3,0.5-6.7s-1.6-4.6-3-6C189.6,184.7,188.4,184,187.3,184z"/>
		</g>
		<g>
			
				<ellipse transform="matrix(0.9947 -0.1027 0.1027 0.9947 -20.9555 20.7878)" class="st8" cx="191.4" cy="213.9" rx="6.9" ry="10.4"/>
			<path d="M192,225.8c-2.1,0-4.2-1.1-5.8-3.1c-1.7-2-2.8-4.8-3.1-7.9c-0.7-6.6,2.5-12.2,7.2-12.7c2.4-0.2,4.7,0.8,6.5,3.1
				c1.7,2,2.8,4.8,3.1,7.9l0,0c0.7,6.6-2.5,12.2-7.2,12.7C192.4,225.8,192.2,225.8,192,225.8z M190.8,205c-0.1,0-0.2,0-0.3,0
				c-2.9,0.3-5,4.6-4.5,9.4c0.3,2.5,1.1,4.7,2.4,6.3c1.2,1.4,2.5,2.1,3.9,2c2.9-0.3,5-4.6,4.5-9.4c-0.3-2.5-1.1-4.7-2.4-6.3
				C193.3,205.8,192,205,190.8,205z"/>
		</g>
		<g>
			
				<ellipse transform="matrix(0.9947 -0.1027 0.1027 0.9947 -23.1016 21.1043)" class="st8" cx="193.4" cy="234.9" rx="6.9" ry="10.4"/>
			<path d="M194,246.8c-2.1,0-4.2-1.1-5.8-3.1c-1.7-2-2.8-4.8-3.1-7.9c-0.7-6.6,2.5-12.2,7.2-12.7c2.4-0.2,4.7,0.8,6.5,3.1
				c1.7,2,2.8,4.8,3.1,7.9l0,0c0.7,6.6-2.5,12.2-7.2,12.7C194.4,246.8,194.2,246.8,194,246.8z M192.8,226c-0.1,0-0.2,0-0.3,0
				c-2.9,0.3-5,4.6-4.5,9.4c0.3,2.5,1.1,4.7,2.4,6.3c1.2,1.4,2.5,2.1,3.9,2c2.9-0.3,5-4.6,4.5-9.4c-0.3-2.5-1.1-4.7-2.4-6.3
				C195.3,226.8,194,226,192.8,226z"/>
		</g>
		<g>
			
				<ellipse transform="matrix(0.9947 -0.1027 0.1027 0.9947 -25.253 21.318)" class="st8" cx="194.4" cy="255.9" rx="6.9" ry="10.4"/>
			<path d="M195,267.8c-2.1,0-4.2-1.1-5.8-3.1c-1.7-2-2.8-4.8-3.1-7.9c-0.7-6.6,2.5-12.2,7.2-12.7c2.4-0.2,4.7,0.8,6.5,3.1
				c1.7,2,2.8,4.8,3.1,7.9l0,0c0.7,6.6-2.5,12.2-7.2,12.7C195.4,267.8,195.2,267.8,195,267.8z M193.8,247c-0.1,0-0.2,0-0.3,0
				c-2.9,0.3-5,4.6-4.5,9.4c0.3,2.5,1.1,4.7,2.4,6.3c1.2,1.4,2.5,2.1,3.9,2c2.9-0.3,5-4.6,4.5-9.4c-0.3-2.5-1.1-4.7-2.4-6.3
				C196.3,247.8,195,247,193.8,247z"/>
		</g>
		<g>
			
				<ellipse transform="matrix(0.9977 -6.780901e-02 6.780901e-02 0.9977 -18.3243 13.955)" class="st8" cx="196.4" cy="276.9" rx="6.9" ry="10.4"/>
			<path d="M196.8,288.8c-4.5,0-8.3-4.9-8.8-11.3c-0.5-6.6,2.9-12.1,7.6-12.4c4.7-0.3,8.8,4.6,9.2,11.3l0,0
				c0.5,6.6-2.9,12.1-7.6,12.4C197.1,288.8,196.9,288.8,196.8,288.8z M196,268c-0.1,0-0.1,0-0.2,0c-2.9,0.2-5.1,4.4-4.8,9.2
				s3.1,8.7,6,8.5s5.1-4.4,4.8-9.2C201.5,271.9,198.8,268,196,268z"/>
		</g>
		<g>
			
				<ellipse transform="matrix(0.1708 -0.9853 0.9853 0.1708 -132.2962 438.4102)" class="st8" cx="194.3" cy="297.8" rx="10.4" ry="6.9"/>
			<path d="M193.4,309.7c-0.4,0-0.7,0-1.1-0.1c-4.7-0.8-7.4-6.6-6.3-13.1c0.5-3,1.8-5.7,3.6-7.7c2-2.1,4.4-3,6.7-2.6
				c4.7,0.8,7.4,6.6,6.3,13.1C201.6,305.4,197.7,309.7,193.4,309.7z M195.4,289c-1.2,0-2.4,0.6-3.5,1.8c-1.4,1.5-2.4,3.7-2.9,6.1
				c-0.8,4.7,0.9,9.2,3.8,9.7c2.9,0.5,6-3.1,6.9-7.8c0.8-4.7-0.9-9.2-3.8-9.7C195.7,289,195.5,289,195.4,289z"/>
		</g>
		<g>
			
				<ellipse transform="matrix(0.1133 -0.9936 0.9936 0.1133 -146.9801 472.8421)" class="st8" cx="191.4" cy="318.8" rx="10.4" ry="6.9"/>
			<path d="M190.8,330.8c-0.2,0-0.5,0-0.7,0c-2.4-0.3-4.4-1.8-5.7-4.4c-1.2-2.4-1.7-5.3-1.3-8.4c0.8-6.6,5-11.4,9.7-10.9
				c2.4,0.3,4.4,1.8,5.7,4.4c1.2,2.4,1.7,5.3,1.3,8.4l0,0C199,326.2,195.2,330.8,190.8,330.8z M192,310c-2.8,0-5.5,3.6-6,8.2
				c-0.3,2.5,0.1,4.8,1,6.7c0.8,1.6,2,2.6,3.4,2.8c2.9,0.3,5.8-3.4,6.4-8.2l0,0c0.3-2.5-0.1-4.8-1-6.7c-0.8-1.6-2-2.6-3.4-2.8
				C192.3,310,192.2,310,192,310z"/>
		</g>
		<g>
			
				<ellipse transform="matrix(0.2499 -0.9683 0.9683 0.2499 -189.3691 437.2177)" class="st8" cx="187.5" cy="340.8" rx="10.4" ry="6.9"/>
			<path d="M186,352.5c-0.5,0-1.1-0.1-1.6-0.2c-2.3-0.6-4.1-2.4-5-5.1c-0.9-2.5-0.9-5.5-0.2-8.5c0.8-3,2.3-5.6,4.2-7.3
				c2.1-1.9,4.6-2.6,6.9-2.1c2.3,0.6,4.1,2.4,5,5.1c0.9,2.5,0.9,5.5,0.2,8.5c-0.8,3-2.3,5.6-4.2,7.3
				C189.6,351.9,187.8,352.5,186,352.5z M188.8,332.2c-1.1,0-2.2,0.5-3.3,1.5c-1.5,1.4-2.7,3.5-3.3,5.9s-0.6,4.8,0.1,6.8
				c0.6,1.7,1.6,2.9,2.9,3.2c1.3,0.3,2.8-0.2,4.1-1.4c1.5-1.4,2.7-3.5,3.3-5.9l0,0c0.6-2.4,0.6-4.8-0.1-6.7
				c-0.6-1.7-1.6-2.9-2.9-3.2C189.3,332.2,189.1,332.2,188.8,332.2z"/>
		</g>
		<g>
			
				<ellipse transform="matrix(0.1708 -0.9853 0.9853 0.1708 -204.4756 480.6422)" class="st8" cx="183.3" cy="361.8" rx="10.4" ry="6.9"/>
			<path d="M182.4,373.7c-0.4,0-0.7,0-1.1-0.1c-4.7-0.8-7.4-6.6-6.3-13.1c0.5-3,1.8-5.7,3.6-7.7c2-2.1,4.4-3,6.7-2.6
				c4.7,0.8,7.4,6.6,6.3,13.1C190.6,369.4,186.7,373.7,182.4,373.7z M184.4,353c-1.2,0-2.4,0.6-3.5,1.8c-1.4,1.5-2.4,3.7-2.9,6.1
				c-0.8,4.7,0.9,9.2,3.8,9.7c2.9,0.5,6-3.1,6.9-7.8c0.8-4.7-0.9-9.2-3.8-9.7C184.7,353,184.5,353,184.4,353z"/>
		</g>
		<g>
			
				<ellipse transform="matrix(0.1133 -0.9936 0.9936 0.1133 -219.4397 519.6685)" class="st8" cx="181.4" cy="382.8" rx="10.4" ry="6.9"/>
			<path d="M180.8,394.8c-0.2,0-0.5,0-0.7,0c-2.4-0.3-4.4-1.8-5.7-4.4c-1.2-2.4-1.7-5.3-1.3-8.4c0.8-6.6,5-11.4,9.7-10.9
				c2.4,0.3,4.4,1.8,5.7,4.4c1.2,2.4,1.7,5.3,1.3,8.4l0,0C189,390.2,185.2,394.8,180.8,394.8z M182,374c-2.8,0-5.5,3.6-6,8.2
				c-0.3,2.5,0.1,4.8,1,6.7c0.8,1.6,2,2.6,3.4,2.8c2.9,0.3,5.8-3.4,6.4-8.2l0,0c0.3-2.5-0.1-4.8-1-6.7c-0.8-1.6-2-2.6-3.4-2.8
				C182.3,374,182.2,374,182,374z"/>
		</g>
		<g>
			
				<ellipse transform="matrix(0.9977 -6.780901e-02 6.780901e-02 0.9977 -26.9706 13.2302)" class="st8" cx="181.4" cy="403.9" rx="6.9" ry="10.4"/>
			<path d="M181.8,415.8c-2.2,0-4.3-1.2-5.9-3.3c-1.6-2.1-2.6-4.9-2.8-8c-0.5-6.6,2.9-12.1,7.6-12.4c4.7-0.3,8.8,4.6,9.2,11.3l0,0
				c0.2,3.1-0.4,6-1.7,8.3c-1.4,2.5-3.5,4-5.9,4.1C182.1,415.8,181.9,415.8,181.8,415.8z M181,395c-0.1,0-0.1,0-0.2,0
				c-2.9,0.2-5.1,4.4-4.8,9.2c0.2,2.5,1,4.7,2.2,6.4c1.1,1.5,2.5,2.2,3.8,2.1s2.6-1,3.5-2.6c1-1.8,1.5-4.1,1.3-6.6
				C186.5,398.9,183.8,395,181,395z"/>
		</g>
		<path class="st6" d="M150.9,94c0,0-16.5,7.8-17.3,38.5c-0.9,30.7,21.1,36.6,21.1,36.6s-15.3-16.8-16.3-42.7
			C138.3,126.4,137.6,112.9,150.9,94z"/>
		<path class="st6" d="M170.1,94.2c0,0,20.6,7.7,19.9,38.4c-0.7,29.3-17.6,34.4-17.6,34.4s15.1-15.9,13.4-41.7
			C185.8,125.2,185.2,111.7,170.1,94.2z"/>
		<path d="M165.3,171.2c-14.5,0-27.1-17.2-28.2-38.9c-0.5-10.6,1.7-20.8,6.3-28.6c4.7-8,11.4-12.6,18.7-13
			c14.9-0.7,28,16.7,29.1,38.9c0.5,10.6-1.7,20.8-6.3,28.6c-4.7,8-11.4,12.6-18.7,13C165.9,171.2,165.6,171.2,165.3,171.2z
			 M163.1,93.7c-0.3,0-0.5,0-0.8,0c-6.3,0.3-12.1,4.4-16.3,11.5c-4.3,7.3-6.4,16.9-5.9,27c1,20.6,12.7,36.7,25.9,36.1
			c6.3-0.3,12.1-4.4,16.3-11.5c4.3-7.3,6.4-16.9,5.9-27C187.3,109.5,176.1,93.7,163.1,93.7z"/>
		<path d="M160.2,171.5c-14.5,0-27.1-17.2-28.2-38.9c-0.5-10.6,1.7-20.8,6.3-28.6c4.7-8,11.4-12.6,18.7-13
			c14.9-0.7,28,16.7,29.1,38.9S176,170.8,161,171.5C160.8,171.5,160.5,171.5,160.2,171.5z M158,93.9c-0.3,0-0.5,0-0.8,0
			c-6.3,0.3-12.1,4.4-16.3,11.5c-4.3,7.3-6.4,16.9-5.9,27c1,20.6,12.7,36.8,25.9,36.1c13.3-0.7,23.2-17.9,22.2-38.5
			C182.2,109.9,171,93.9,158,93.9z"/>
	</g>
	<path d="M138.3,172.9c0,0-2.8,2.6,1.7,7.2c4.6,4.7,4.4-2.4,4.1-3.6S141.8,172.4,138.3,172.9z"/>
	<path d="M109.8,173.9c0,0,2.8,2.6-1.7,7.2c-4.6,4.7-4.4-2.4-4.1-3.6C104.3,176.2,106.3,173.4,109.8,173.9z"/>
</g>
</svg>
