<?xml version="1.0" encoding="utf-8"?>
<!-- Generator: Adobe Illustrator 23.0.0, SVG Export Plug-In . SVG Version: 6.00 Build 0)  -->
<svg version="1.1" id="lama-sceptical" xmlns="http://www.w3.org/2000/svg" xmlns:xlink="http://www.w3.org/1999/xlink" x="0px" y="0px"
	 viewBox="0 0 212 352" style="enable-background:new 0 0 212 352;" xml:space="preserve">

<path class="st1" d="M165.6,239.2c0,0,0,0,0,8c0,12.7-0.6,29.3-0.6,29.3l1.7,22.6l-5.1,5.1l2.6,7.7l4.5,3.9l-7,11.4
	c0,0,6.3,12.3,5.9,20.2c-0.1,1.8-0.1,3.4,0,4.8l-106.4,0c0,0-0.8-15.2,5.3-19.1l-6.1-11.4l1.4-11.4l-1.7-10.6L59,278.4l-0.4-16.2
	c0,0-6-10,2-15l-3-23l2-22l3-10c0,0,11,17,29,19s6.2,1.1,6.2,1.1l12.6-1.4c0,0,4-3.8,8.1-4.7l14,5l7.5,0.3l26.6-1.2L165.6,239.2z"/>
<path class="st2" d="M150.9,231.2c0.6-0.7,0.9-0.1-0.3,0.1c0.7-0.1-1.1,0.1-1,0.1c-2,0.3-4.9,0.7-6.9,0.2c-3.3-0.9-6.1-3.1-9.9-3.4
	c-4-0.3-7.9,0.1-11.8,0.3c-4,0.2-8.4,0.5-12.2,1.7c-3.2,1.1-5.1,3.7-8.4,4.6c-3.5,1-8.1,0.9-11.8,0.5c-4.4-0.5-7.1-0.9-10.8-1.4
	c-0.2,0-2.6-0.5-4.1-0.5c-2.2-0.1-4.5,0.1-6.6,0.7c-11.1,3.3-6.4,20.7,4.8,17.4c1.9-0.6,5.9,0.4,7.3,0.6c3.9,0.5,8.8,1.4,13.2,1.4
	c4.8,0,9.5,0,14-1.6c2.1-0.7,4.2-1.4,6.1-2.6c0.8-0.5,2.3-1.4,2.7-2.1c0.7-0.5,0.6-0.5-0.1-0.1c-1.1,0.5-0.8,0.5,0.8,0.1
	c3.7-0.1,7.5-0.8,11.3-1c0.8,0,1.6,0.1,2.4,0.1c0.5,0,3.7,0.3,1.6-0.3c1.9,0.6,3.6,2.1,5.5,2.8c7.7,2.7,21.2,1.6,27-4.7
	C171.5,235.5,158.8,222.7,150.9,231.2L150.9,231.2z"/>
<path d="M167.8,354.7c-1.3,0-2.4-1-2.5-2.4c-0.3-4.8-0.3-8-0.3-8.1c0-0.2,0-0.3,0-0.5c0.6-2.8-3-10.6-5.7-15.3
	c-0.4-0.7-0.4-1.4-0.2-2.1c0.3-0.7,0.8-1.3,1.5-1.5c1.9-0.6,3.9-2.9,5.1-5.7c0.8-1.8,0.8-3.1,0.8-3.6c-5-1.5-7.1-9.2-7.5-10.7
	c-0.2-0.8,0-1.7,0.6-2.4c0.6-0.6,1.5-0.9,2.3-0.7c0.7,0.2,0.9,0,1-0.2c2.4-2.3,2-13.2,1-19.9c-1.8-7.2-0.5-12.3,0-13.9
	c-0.1-10.1-2.3-16.1-2.3-16.2c-0.3-0.8-0.2-1.6,0.3-2.3c0,0,3.4-5.6,1.6-18.3c-1.1-8-0.6-12.8,1.7-14.8c0.2-0.2,0.4-0.4,0.7-0.5
	c0.2-1.5,0.3-3.6-0.8-4.1c-1.3-0.5-1.9-2-1.3-3.3c0.5-1.3,2-1.9,3.3-1.3c4.8,2,4.4,8.1,3.4,11.4c-0.3,0.9-1.1,1.6-2,1.7
	c-0.3,0.7-1,3.2,0,10.2c1.6,11.5-0.6,18.1-1.8,20.6c0.7,2.4,2.3,8.4,2.3,17.3c0,0.3-0.1,0.6-0.2,0.9c0,0-1.6,4.5,0.1,11.5
	c0,0.1,0,0.1,0,0.2c0.5,3.2,2.8,19.5-2.5,24.4c-0.5,0.5-1.1,0.9-1.7,1.1c0.9,2.1,2.1,4.2,3.3,4.4c2.1,0.5,3.4,2.3,3.5,4.9
	c0.2,4-2.6,9.7-6.7,12.6c2.1,4,5.8,11.7,5.1,16.2c0,0.8,0,3.7,0.2,7.7c0.1,1.4-1,2.6-2.4,2.6C167.9,354.7,167.9,354.7,167.8,354.7z
	 M167.5,220.2C167.5,220.2,167.5,220.2,167.5,220.2C167.5,220.2,167.5,220.2,167.5,220.2z"/>
<path class="st2" d="M59.2,240c0.7,4.8-2.1,8.4-2.2,13.1c-0.1,4-0.5,8-0.3,12c0.7,10.9,0.4,21.8,1.3,32.7
	c0.8,10.6,2.3,20.1,5.8,30.2c0.6,1.8,1.1,3.8,1.5,5.7c0.1,0.8,0.2,1.5,0.3,2.3c0-0.7,0.6-1.5,0-0.1c-1.9,4.3-3.9,7.4-3,12.3
	c0.8,4.8,6.7,7.5,11.1,6.3c5.1-1.4,7.1-6.3,6.3-11.1c0-0.1,0-0.3-0.1-0.4c0,1.6,0,3.2,0,4.8c0.3-1.3-0.6,0.5,0.1-0.5
	c0.4-0.7,0.8-1.6,1.2-2.3c0.8-1.6,1.5-3.2,1.9-5c1.1-5.5-0.1-11-1.8-16.3c-1.5-4.8-3-9.2-4-14.2c-1-4.8-1.1-9.3-1.5-14.2
	c-0.9-10.4-0.8-21-1.1-31.5c-0.1-3.9-0.3-8.4,1-12c2-5.7,1.8-10.7,0.9-16.6c-0.7-4.8-6.8-7.5-11.1-6.3
	C60.3,230.4,58.5,235.2,59.2,240L59.2,240z"/>
<path class="st3" d="M51.6,195.2c6,53,52.5,40.8,52.5,40.8c8.5-4.2,37.5,1.2,37.5,1.2c12,6,33-7,33-7c25-31,3.6-61.2,3.6-61.2
	l-2.2-25.7l-0.6-28.1c-5.2-0.9-16.9-6.7-16.9-6.7c-14.2,6.3-13.8-0.1-13.8-0.1c-11-10.7-15.8-6.5-15.8-6.5l1.2,16.4
	c-3.7-4.6-5.4,3.8-5.4,3.8s-5.1-7.9-8.6-11c-11.4-10-21.4,3-21.4,3l-8.2-14.4l-19.8,2.4l-8,11v52C47.6,178.2,51.6,195.2,51.6,195.2z
	 M152.1,140.7c5.3-18.2,22-15,22-15c3,6,1,20-8.5,19.8C156.1,145.4,152.1,140.7,152.1,140.7z M69.4,126.7c0,0,21-7,22,15
	c0,0-4,4.7-13.5,4.8C68.4,146.7,66.4,132.7,69.4,126.7z"/>
<path class="st1" d="M202.6,169.2l-8-3.3l6.5-6.2c0,0-9.3,3.3-11.5-4.5c-2-7-1-6.3-1-6l9.3-0.3l8.2-0.3l-8.8-10.9
	c-7.8-4.3,1.6-6.7,1.6-6.7c-13.3-5.8-15.5-12.2-15.5-12.2l-8-3.6l3.7,51.5l7.6,24.1l4.9,2.4l-3-10h10l6-3l-13-10
	C191.6,170.2,193.6,166.2,202.6,169.2z"/>
<path class="st2" d="M176.1,120.8c0,8,0.9,16.1,0.5,24c-0.5,11.8-2.3,26.4,6.3,35.9c3.9,4.3,10.3-2.1,6.4-6.4
	c-4.4-4.8-3.6-11.9-4.1-17.9c-0.4-4.6,0.5-9,0.4-13.5c-0.1-7.4-0.5-14.7-0.5-22.1C185,115,176,115,176.1,120.8L176.1,120.8z"/>
<path class="st2" d="M192.9,161.3c0.4-0.3-0.5,0-0.6,0.1c-0.6,0.1-1.2,0.4-1.8,0.7c-1,0.4-1.8,1-2.6,1.7c-1.5,1.6-2.2,3.9-2.5,6
	c-0.3,2.4,0.3,4.7,1.5,6.7c0.7,1.1,1.5,2,2.5,2.7c0.7,0.5,1.6,0.8,2.2,1.3c4,4.2,10.4-2.2,6.4-6.4c-0.9-1-2.1-1.4-3.1-2.2
	c-0.5-0.4-0.6-0.5-0.5-1.2c0-0.3,0.1-0.8,0.3-1c-0.4,0.6-0.3,0.3,0.3,0.2c1.5-0.2,3.1-1.4,4.2-2.3c1.9-1.5,1.6-4.8,0-6.4
	C197.4,159.4,194.8,159.8,192.9,161.3L192.9,161.3z"/>
<path class="st4" d="M132.8,201.9c0,0-22.3,0.8-22.3-9.9C110.5,186.9,133.1,190.8,132.8,201.9z"/>
<path class="st4" d="M136,202.4c0,0,25.7-8.3,17.5-13.7C147,184.4,136,202.4,136,202.4z"/>
<path class="st5" d="M160.5,176.9c-5.9-10.5-23.3-16.1-31.5-5.2c-2,2.6-0.4,6.7,2.2,8.2c3.1,1.8,6.3,0.4,8.2-2.2
	c-0.5,0.7,2.2,0.2,2.8,0.3c1.3,0.1,2.5,0.3,3.7,0.9c1.7,0.9,3.3,2.3,4.3,4.1C154,189.6,164.3,183.6,160.5,176.9L160.5,176.9z"/>
<g>
	<path d="M130.5,176.9c0,0,7-11,21-4c0,0,9,7,4,15c0,0-15,1-19,11c0,0,5-29-30-27c0,0-7,2-8,11c0,0,2,7,12,9c0,0,16-5,20,5
		c0,0,3,9,6,3"/>
	<path d="M134.3,204.5c-0.1,0-0.2,0-0.3,0c-3.3-0.2-5.2-4.7-5.9-6.7c-3.2-7.7-16.8-3.5-16.9-3.5c-0.4,0.1-0.8,0.1-1.2,0.1
		c-11.4-2.3-13.8-10.4-13.9-10.8c-0.1-0.3-0.1-0.6-0.1-1c1.2-10.5,9.4-13,9.8-13.1c0.2-0.1,0.4-0.1,0.5-0.1c9.7-0.5,17.3,1.1,22.9,5
		c3.5-4.3,11.8-9.5,23.4-3.7c0.1,0.1,0.3,0.2,0.4,0.3c3.7,2.9,9.5,10.5,4.6,18.3c-0.4,0.7-1.2,1.1-2,1.2c-0.1,0-13.1,1-16.7,9.1
		c0.1,0.5,0,1-0.2,1.5C137.4,203.9,135.6,204.5,134.3,204.5z M119,188.2c8.8,0,12.4,4.3,13.8,7.8c0,0,0,0.1,0.1,0.1
		c0.3,0.9,0.7,1.8,1.1,2.5c0,0,0-0.1,0-0.1c0-0.1,1.6-10.4-4.6-17.3c-4.5-5-12.1-7.3-22.4-6.8c-1,0.4-5,2.3-5.9,8.2
		c0.6,1.3,2.8,5.2,9.4,6.7C111.8,189,115.3,188.2,119,188.2z M133.1,177.7c0.1,0.1,0.1,0.1,0.2,0.2c3.9,4.3,5.3,9.5,5.8,13.6
		c5.1-4.2,12-5.5,14.9-5.9c1-2.2,0.7-4.4-0.7-6.9c-1.1-1.9-2.6-3.2-3.1-3.7C140.1,170.2,134.6,175.8,133.1,177.7z"/>
</g>
<path class="st6" d="M94.8,197.5c-0.7,3.4-0.7,6.2,0.9,9.4c1.2,2.3,2.4,4.3,4.3,6.1c2.4,2.2,6.2,2.3,8.5,0c2.2-2.2,2.4-6.2,0-8.5
	c-0.3-0.3-0.6-0.6-0.9-0.9c-0.5-0.5-0.6-0.6-0.2-0.2c-0.3-0.5-0.5-1.1-0.8-1.6c-0.1-0.2-0.3-0.5-0.4-0.8c-0.2-0.4-0.2-0.3,0,0.2
	c0,0.3,0,0.5-0.1,0.8c0.1-0.4,0.2-0.9,0.3-1.3c0.6-3.1-0.9-6.6-4.2-7.4C99.2,192.6,95.5,194.2,94.8,197.5L94.8,197.5z"/>
<path d="M118.4,219.6c-1.3,0-2.6-0.1-4-0.2c-9.5-0.8-15.8-3.4-19.1-8c-4-5.5-2.3-12.1-1.5-15.7c0.1-0.5,0.2-1,0.3-1.4
	c0.3-1.4,1.6-2.2,2.9-2c1.4,0.3,2.2,1.6,2,2.9c-0.1,0.5-0.2,1-0.4,1.6c-0.8,3.2-1.9,7.9,0.7,11.5c2.4,3.3,7.6,5.3,15.4,5.9
	c7.7,0.6,12.9-0.6,15.1-3.5c2.4-3.3,0.7-8.1,0.6-8.1c-0.5-1.3,0.1-2.7,1.4-3.2c1.3-0.5,2.7,0.1,3.2,1.4c0.1,0.3,2.8,7.4-1.3,12.9
	C131.1,217.7,125.8,219.6,118.4,219.6z"/>
<path d="M141.9,217.1c-2.9,0-5.2-0.8-6.9-2.5c-4.4-4.1-3.1-11.4-2.9-12.2c0.3-1.4,1.6-2.2,2.9-2c1.4,0.3,2.2,1.6,2,2.9
	c-0.3,1.5-0.6,5.7,1.4,7.6c1.7,1.6,5,1.2,7.5,0.5c4.3-1.1,7.1-3,8.3-5.4c1.4-3,0.1-6.1,0.1-6.1c-0.5-1.3,0-2.7,1.3-3.3
	c1.3-0.6,2.7,0,3.3,1.2c0.1,0.2,2.3,5.2-0.1,10.3c-1.8,3.9-5.7,6.6-11.5,8.2C145.3,216.9,143.5,217.1,141.9,217.1z"/>
<path class="st5" d="M174.1,180.5c1.4,11,3.6,22.5-0.4,33.2c-2,5.4-6.6,9.7-11.9,11.6c-3.1,1.1-6.1,2.1-9.3,2.7
	c-1.1,0.2-2.1,0.3-3.2,0.5c-1.4,0.6-1.4,0.6-0.1,0.1c-0.7,0-1.3,0.1-1.9,0.4c-5.3,2.1-3,10.8,2.4,8.7c0.2-0.1,4.1-0.9,1.7-0.5
	c1.6-0.3,3.3-0.4,4.9-0.8c4-0.9,8.2-2.2,12-3.9c5.2-2.3,10.3-7.8,12.8-12.8c6.1-12.3,3.7-26.2,2.2-39.2
	C182.4,174.8,173.4,174.8,174.1,180.5L174.1,180.5z"/>
<path class="st5" d="M103.9,127.2c1.3,7.6,1.1,16.2-1.6,23.5c-2.7,7.3,8.9,10.4,11.6,3.2c3.4-9.4,3.2-20.2,1.6-29.9
	C114.2,116.4,102.6,119.6,103.9,127.2L103.9,127.2z"/>
<path class="st6" d="M102.3,123.3c-1.4-4.1-2.8-9.2-7.6-10.4c-1.7-0.4-3.7,0.3-4.6-0.7c-1.4-1.6-1.1-6.5-1.5-8.5
	c-1-5.7-9.7-3.3-8.7,2.4c0.8,4.8,0.8,10.7,5.1,14c1.6,1.2,4.6,2,6.5,1.6c1.4-0.3,0.2-0.7,0.8,0.3c0.6,1.1,0.8,2.4,1.3,3.6
	C95.5,131.1,104.2,128.8,102.3,123.3L102.3,123.3z"/>
<path class="st6" d="M84.3,114.3c-3.3-1.3-8.8-2.9-12.1-1.1c-1.2,0.6-2.6,2.1-3.2,3.4c-0.8,1.9,1.7-0.9-0.6,0.5
	c-0.3,0.2-0.6,0.4-0.9,0.6c-1.9,1.4-3.4,3.7-4.9,5.5c-0.9,1.1-1.8,2.3-2.8,3.4c-0.4,0.5-0.9,0.9-1.2,1.4c-0.6,0.9-1.8,0.9,0.5,0.1
	c-5.4,1.9-3.1,10.6,2.4,8.7c4-1.4,6.8-6.5,9.4-9.6c0.6-0.7,1.2-1.5,1.8-2.1c0.7-0.8,0.1-0.2-0.1,0c-0.1,0.1,1.1-0.5,1.4-0.7
	c0.7-0.5,2.1-3,2.7-3.1c-0.7,0.2,1.6,0.9,2,1c1.1,0.2,2,0.5,3.1,0.9C87.3,125.2,89.6,116.5,84.3,114.3L84.3,114.3z"/>
<path class="st6" d="M101.5,113c-0.4,2.3-0.9,4.4-1.8,6.6c-0.3,0.8-0.6,1.4-1.1,2.1c-0.5,0.7-0.6,0.7-0.4,0.7
	c-2.4,0.4-3.7,3.4-3.1,5.5c0.7,2.6,3.1,3.5,5.5,3.1c6.2-0.9,8.9-10.6,9.6-15.6c0.4-2.4-0.6-4.8-3.1-5.5
	C104.9,109.3,101.8,110.6,101.5,113L101.5,113z"/>
<path d="M99.1,164.2c-0.5,0-0.9-0.1-1.3-0.4c-1.2-0.7-1.5-2.3-0.8-3.5c16.8-26.1-2.6-48.8-2.8-49c-0.9-1-0.8-2.6,0.2-3.5
	c1-0.9,2.6-0.8,3.5,0.2c0.2,0.3,22,25.8,3.2,55C100.7,163.8,99.9,164.2,99.1,164.2z"/>
<path class="st1" d="M56.6,165.2c1.4-4.9,0.7-21.9,0.8-35.6c0.1-5.9,9.1-7,9.1-7c2.9-22.5,14.6-1.1,14.6-1.1l1.9-20.8l5.6-1.4
	l1.7,8.7l-2.7,8.3c7-8,13,7,13,7c7-2,4.4-15.5,4.4-15.5l12,3.5l3.3,14.9l11.1-8.9l-3.5-7.5l3.7-7.5c5-2,14,6.3,14,6.3
	c2,5.3,8.4,2.5,8.4,2.5l8.4-3.8c1.9,7.9,16.6,6.8,16.6,6.8l10.9,3.3c0,0,21.6,6.6,14.6,1.6s-11-12-11-12l-1.9-6.5l8.9-2.1l8.2,6.3
	l-1-8.3l-4.5-5.9l-5.3-5.5c0,0,13.2-6.7,3.5-14c-13.8-10.4-21.5,3.9-21.5,3.9l14.5-16.5l7-23l-10-27l-5,5l-23,17l-10,23l2-24v-5
	l-4-2l-8,17l-6-5l2-11l-2-8l-10,6l-7,16l-6-17l-4,10l-10-11l-2,2l3,16l-5,1l-8-10l-5-12l-3,12l-4,6l-8-8l-19-22l-14,24l-4,20l4,19
	l14,22l-26-29l-3,4l3,7l-6,1l-8,8l8,2c0,0,10-1-1,13l-8,8c0,0,27,5,3,8c0,0-9,1-8,6c0,0,20-2,20,9c0,0-13,1-14,12l-2,2l2,5
	c0,0,7,3,13-2c0,0,6,4-6,16c0,0,0,5,11,2l-5,6c0,0,2,9-18,19c-0.6,0.3,7.9,3.2,16,2c8.1-1.2,9-4,9-4l-7,17c10-12,11-7,11-7
	s-0.1,19.6-5.1,21.6s14.3-0.3,14.3-0.3L39,230.7c0,0,16.6-4.1,21.6-6.1l-10-32.4L56.6,165.2z"/>
<path class="st6" d="M55.5,137.7c-0.2,6.1-0.8,12.3-1.3,18.4c-0.3,3.9-0.6,7.9-1,11.8c-0.1,1.6-0.3,3.2-0.5,4.9
	c-0.1,0.8-0.5,3.5-0.2,1.8c-2,10.1-3.6,22.4,0.5,32.2c2.5,5.9,4.2,11.1,8.2,16.2c2.7,3.4,7.9,9.2,12.2,10.3
	c7.5,1.9,10.7-9.7,3.2-11.6c1.3,0.9,1.5,1,0.7,0.3c-0.5-0.4-1-0.9-1.4-1.4c-0.8-0.7-1.6-1.5-2.4-2.2c-2.2-1.9-4.2-4.1-5.7-6.7
	c-1.4-2.3-1.8-5-2.8-7.4c-0.5-1.2-1.3-2.4-1.6-3.7c0.5,2-0.1-2.4,0-2c-1.6-8.4,0.4-16.4,1.3-24.6c1.3-12,2.6-24.3,2.9-36.3
	C67.7,130,55.7,130,55.5,137.7L55.5,137.7z"/>
<path class="st2" d="M49.7,142c0,7.6,1.3,16.7-0.4,24.1c-1.2,5.3-2,10.7-3.7,15.9c-1.8,5.4-2.4,11.8-2.1,17.4
	c0.3,5.2,0.3,11.7,3.1,16.3c3,4.9,10.8,0.4,7.8-4.5c-2.2-3.7-2-10.3-1.7-14.4c0.2-3.1,0.1-6.3,0.7-9.3c0.6-3.1,2-6,2.6-9.1
	c0.9-4.5,2.1-9.1,2.6-13.6c0.8-7.4,0.1-15.2,0.1-22.7C58.7,136.2,49.7,136.2,49.7,142L49.7,142z"/>
<path d="M89.7,240.8c-12.1,0-27.6-4.2-35.9-23c-9.2-20.9-3.6-39.2-0.6-49c0.7-2.2,1.3-4.2,1.4-5.3c1-6.7,0.3-33.4,0.3-33.7
	c0-1.4,1.1-2.5,2.4-2.6c1.4,0,2.5,1.1,2.6,2.4c0,1.1,0.7,27.4-0.3,34.6c-0.2,1.6-0.8,3.6-1.6,6.1c-3,9.9-8,26.3,0.4,45.5
	c5.4,12.3,14.8,19,28,20c10.1,0.8,18.8-2.3,18.9-2.3c1.3-0.5,2.7,0.2,3.2,1.5c0.5,1.3-0.2,2.7-1.5,3.2
	C106.8,238.1,99.3,240.8,89.7,240.8z"/>
<path class="st6" d="M151.7,119.5c-3.8,3.9-9.9,7.4-11,13.2c-1,5.2,0.6,10.7,1.9,15.7c1.5,5.6,10.1,3.2,8.7-2.4
	c-0.9-3.3-2.8-8-1.7-11.5c1-3.3,6.1-6.2,8.6-8.7C162.1,121.7,155.8,115.4,151.7,119.5L151.7,119.5z"/>
<path class="st5" d="M140.7,127.1c0.4,0,0.8,0,1.1,0c-0.9-0.2-0.5-0.1,1.2,0.1c1.5,0.1,3-0.2,4.3-1c0.6-0.4,1.2-0.8,1.7-1.2
	c-0.8,0.7-0.5,0.5,0.8-0.6c1.1-1.1-1.3,0.5-0.2,0.1c1.4-0.6,3.3-1.3,4.5-2.2c2.6-2,3.9-5.2,2.2-8.2c-1.5-2.5-5.6-4.1-8.2-2.2
	c-1.1,0.9-2.7,1.4-4,2c-0.9,0.4-1.5,1-2.4,1.7c0.2-0.1,0.3-0.2,0.5-0.4c-2.1,1.4-1.5,1.4,1.8,0.1c-0.8-0.4-2.4-0.2-3.3-0.2
	c-3.2,0.1-6,2.7-6,6C134.7,124.3,137.4,127.2,140.7,127.1L140.7,127.1z"/>
<path class="st6" d="M176.6,115c-2.3-3.1-0.6-7.3-5.2-9.2c-3.6-1.5-7.1,0.2-8.2,3.9c-0.3,1.1-1,3.8-0.6,4.9c0.7,1.8,5.4,0.5,4.4-1
	c-0.2-0.4-1.1-0.7-1.4-1c-2.8-2-5.4-4.3-8.1-6.4c-1.9-1.5-4-3.2-6.6-2.9c-1.8,0.3-3.1,1.4-4.2,2.7c-0.6,0.6-1.3,1.4-1.7,2.1
	c-0.2,0.3-0.4,0.5-0.6,0.8c-0.9,0.9-0.2,0.9,2,0c-0.1,0.5-7.3-4.4-7.8-4.9c-1.1-1.1-1.9-2.2-3.2-3.1c-0.6-0.4-1.3-0.8-2-1.1
	c-1-0.5-2-1.9-0.7,0c-2.4,1.8-4.7,3.6-7.1,5.5c-0.5-0.4,0.3,1.8,0.5,2.5c0.3,1.8,0.6,3.5,0.8,5.3c0.2,1.4,0.2,2.8,0.6,4.2
	c0.8,3.2,0.4-1.1,0.6-1.1c-1.6,0.3-4.9,4.8-6.2,6c-1.7,1.5-3.5,3-4.8,4.9c-3.2,4.8,4.5,9.3,7.8,4.5c-0.7,1,1.5-1.3,2-1.8
	c1.4-1.3,2.9-2.6,4.3-3.9c2.1-2,5.4-4.5,5.5-7.7c0.1-3-1-6.6-1.5-9.5c-0.5-3-0.8-7.4-3.3-9.6c-3.7-3.1-10,0.9-7.1,5.5
	c0.8,1.2,1.9,2,3.1,2.8c1.9,1.1,2.1,1,2.9,1.8c2.1,2,4.1,4.1,6.6,5.6c2.3,1.4,5.9,3.5,8.6,3.3c1.8-0.1,3.1-1,4.3-2.2
	c0.3-0.3,3.3-3.5,3.2-3.9c0.2,0.7-3.5-0.9-3,0.6c0.1,0.3,1.3,0.9,1.5,1.1c1.3,0.9,2.5,2,3.7,3c2.1,1.7,4.3,3.8,6.8,5.1
	c2.7,1.4,5.7,1.1,7.5-1.6c1.5-2.2,0.4-6.1,1.7-7.8c-0.9,0.7-1.8,1.4-2.7,2.1c-2.2-2-3.1-2.1-2.6-0.2c0.1,0.6,0.1,1.2,0.3,1.8
	c0.4,1.4,0.9,2.6,1.8,3.8C172.2,124.1,180.1,119.6,176.6,115L176.6,115z"/>
<path d="M147.4,241.4c-4.9,0-8.2-0.7-8.3-0.7c-1.4-0.3-2.2-1.6-1.9-3c0.3-1.4,1.6-2.2,3-1.9c1.2,0.3,28.8,5.7,40.7-19.1
	c9.4-19.6-5.8-48.4-6-48.7c-0.2-0.3-0.3-0.7-0.3-1.1c-1-22.8-1-50.8-1-51.1c0-1.4,1.1-2.5,2.5-2.5s2.5,1.1,2.5,2.5
	c0,0.3,0,27.8,1,50.3c1,1.9,4.3,8.8,6.7,17.6c3.8,14,3.5,25.9-0.9,35.1C176,238.3,158,241.4,147.4,241.4z"/>
<path class="st3" d="M81.1,60.7c0,0-1.1-31.9-22.1-43c0,0-8.9-7-8.9-13c0,0-44,40,0,84C50.1,88.7,64.1,90.7,81.1,60.7z"/>
<path class="st3" d="M150.6,56.2c0,0,5.6-28.4,28.1-35.6c0,0,10-5.4,11.1-11.3c0,0,28.8,35.9-12.2,66.9
	C177.6,76.2,165.6,84.2,150.6,56.2z"/>
<path class="st5" d="M192.8,37.4c-0.3,3.8-0.6,9-2.2,12.5c-1,2.3-2.5,5.8-3.8,7.7c-3.8,5.4-10.9,6.9-14.8,12
	c-2.7,3.4-0.3,8.6,4.4,7.5c0.3-0.1,0.5-0.1,0.8-0.2c5.6-1.3,3.3-10-2.4-8.7c-0.3,0.1-0.5,0.1-0.8,0.2c1.5,2.5,2.9,5,4.4,7.5
	c1.8-2.3,5.5-3.8,8.1-5.8c2.9-2.1,6.2-5,8.1-8c4.7-7.4,6.6-16.1,7.3-24.8C202.2,31.6,193.2,31.7,192.8,37.4L192.8,37.4z"/>
<path class="st2" d="M19.8,69.6c2.3,2,2.6,4.3,4.1,6.8c1.5,2.5,3.8,4.6,5.9,6.6c4.4,4.1,8.6,5.3,13.2,8.9c4.5,3.6,10.9-2.8,6.4-6.4
	c-4.3-3.4-9.7-5.5-13.6-9.4c-2.1-2.1-3.9-3.7-5-6.5c-1.2-3-2.1-4.3-4.5-6.4C21.8,59.4,15.4,65.8,19.8,69.6L19.8,69.6z"/>
<path class="st2" d="M78.2,24c-2,3.4-2.1,8.6-1.5,12.4c1.1,6.5,2.5,12.6,2.7,19.3c0.2,5.8,9.2,5.8,9,0c-0.1-4.9-0.6-9.7-1.6-14.5
	c-0.7-3.5-2.9-9.2-0.9-12.6C88.9,23.5,81.2,19,78.2,24L78.2,24z"/>
<path class="st6" d="M41.9,7.5c-4.9,5.8-6.4,12.7-8.3,19.8c-1.9,7.2-4.1,14.8-4.6,22.3c-1,13.8,3.6,28,15.6,35.8
	c6.5,4.2,12.5-6.2,6.1-10.4c-8.7-5.6-10.8-17.3-9.5-27c0.7-5.5,2.2-11.4,3.7-16.7c1.4-5,2-11.2,5.5-15.4
	C55.4,10.1,46.9,1.6,41.9,7.5L41.9,7.5z"/>
<path class="st6" d="M186.8,10.4c-3.8,4-8.8,4.5-13.3,7.1c-4,2.3-6.7,5.8-9.6,9.2c-2.7,3.1-4.2,6.4-6.3,9.9c-1,1.7-1.8,3-2.4,4.9
	c-0.5,1.7-0.6,4.1-1.4,5.5c-2.9,5,4.9,9.6,7.8,4.5c1.7-2.9,1.7-6.5,3.3-9.5c2-3.8,4.1-7.3,6.9-10.6c3-3.5,5.4-6.1,9.8-7.6
	c4.4-1.5,8.4-3.7,11.7-7.1C197.2,12.6,190.9,6.3,186.8,10.4L186.8,10.4z"/>
<path class="st5" d="M54.9,25.1c-1.7-0.6,1,1.2,1.7,1.8c1,0.9,1.9,1.9,2.9,2.8c2.9,2.6,6.3,4,8.8,7.1c5,6.2,5.8,14.9,6.6,22.5
	c0.6,5.7,9.6,5.8,9,0c-1-10-2.3-20.2-8.8-28.3c-2.9-3.6-6.7-5.5-10-8.5c-2.4-2.2-4.6-5-7.7-6.1C51.8,14.4,49.5,23.1,54.9,25.1
	L54.9,25.1z"/>
<path d="M49.1,91.2c-0.7,0-1.4-0.3-1.9-0.9C32.1,72.6,31.6,71.6,28.8,57.8c-0.3-1.6-0.7-3.4-1.1-5.5c-3.6-17.1,13.2-45.1,19.8-51
	c0.6-0.5,2.2-2,4.1-1.4c1,0.3,1.8,1.2,2,2.3c0.3,1.4,0.2,2.5,0.2,3.4c-0.1,2.4-0.3,4.8,12.9,15.1c18.9,14.7,17,39.1,17,40.2
	c-0.1,1.4-1.3,2.4-2.7,2.3c-1.4-0.1-2.4-1.3-2.3-2.7l0,0c0-0.2,1.6-22.9-15-35.8C51.3,15.2,48.9,11.1,48.7,7.3
	c-6.1,7.8-19,30.3-16.1,44c0.4,2.1,0.8,3.9,1.1,5.6c2.6,13,2.6,13,17.3,30.3c0.9,1.1,0.8,2.6-0.3,3.5C50.2,91,49.7,91.2,49.1,91.2z"
	/>
<path d="M180.1,77.2c-0.7,0-1.3-0.3-1.8-0.8c-0.9-1-0.9-2.6,0.1-3.5c12.7-11.7,13.5-12.4,18.3-27.9c3.6-11.4-3.1-28.2-6.4-34.2
	c-2.5,3.2-7.7,8.4-17.1,13.2c-10.9,5.4-15.7,21.3-15.7,21.5c-0.4,1.3-1.8,2.1-3.1,1.7c-1.3-0.4-2.1-1.8-1.7-3.1
	c0.2-0.7,5.5-18.1,18.3-24.5c10.9-5.4,15.9-11.9,16.9-13.9c0.6-1.3,2.1-1.8,3.4-1.3c4,1.6,15,26.8,10.2,42.2
	c-5.1,16.4-6.3,17.7-19.7,30.1C181.3,77,180.7,77.2,180.1,77.2z"/>
<path d="M72.1,66.7c0,0-1.5-12.5-6-18s-15-11-15-15s-8,14-4,27s6,13,11,18S69.1,71.7,72.1,66.7z"/>
<path d="M158.6,58.2c0,0,22-20,27-29c0,0,0,8-1,16s-2,16-10,25C174.6,70.2,160.6,67.2,158.6,58.2z"/>
<path class="st6" d="M88.6,142.8c-1.4,1.3,0.6,0,0.6,0.1c0-0.2-2.3,0.5-2.7,0.6c-1.5,0.5,0.9-0.2-1.7,0.3c-0.4,0.1-0.7,0.1-1.1,0.2
	c0.4,0,0.3,0-0.3,0c-2.4,0.1-4.5,2-4.5,4.5c0,2.4,2.1,4.6,4.5,4.5c1.1,0,2.1-0.2,3.2-0.4c0.5-0.1,1.2-0.1,1.8-0.3
	c0.4-0.1,2.5-0.9,1.2-0.5c-1.5,0.4,1.8-0.3,1.2-0.1c0.5-0.1,0.9-0.3,1.4-0.5c1.1-0.5,1.9-1.2,2.8-2
	C99.2,145.1,92.8,138.8,88.6,142.8L88.6,142.8z"/>
<path d="M78.4,149.7c-3.5,0-7-1.1-9.7-4.2c-7-8-4-16.8-3.5-18.2c-0.3,0.1-0.6,0.1-0.9,0.1c-1.3-0.2-2.3-1.3-2.3-2.6
	c0.1-2.3,2.3-2.5,3.6-2.6c1.4-0.1,3.7-0.3,6.8-0.5c12.3-0.7,18.3,9.1,23.4,19.1c0.6,1.1,0.2,2.5-0.8,3.2
	C94.5,144.4,86.3,149.7,78.4,149.7z M69.7,126.9c0.4,0.7,0.5,1.5,0.2,2.2c-0.1,0.3-2.8,7.1,2.6,13.2c4.5,5.1,13.8,0.9,17.8-1.3
	c-5.8-11-10.4-14.7-17.6-14.3C71.6,126.8,70.6,126.8,69.7,126.9z"/>
<ellipse transform="matrix(0.9988 -4.977385e-02 4.977385e-02 0.9988 -6.6699 4.1177)" cx="79.3" cy="136" rx="7.2" ry="11.2"/>
<path d="M165.3,148.1c-7.2,0-14.7-5-15.1-5.3c-0.6-0.4-1-1-1.1-1.7c-0.1-0.7,0.1-1.4,0.5-1.9c1.3-1.7,2.4-3.4,3.5-5
	c4.9-7.1,9.5-13.8,17.9-12.2c4.4,0.8,6,0.4,6.5,0.2c0.6-0.9,1.6-1.3,2.7-1.1c1.3,0.3,2.2,1.7,1.8,3c-0.3,1.2-1.3,2.7-4.5,3.2
	c0.5,1.5,3.1,9.6-3.2,16.8C171.8,147.1,168.6,148.1,165.3,148.1z M155.2,140c3.8,2,11.5,5.3,15.2,0.9c4.7-5.5,2.4-11.6,2.3-11.9
	c-0.2-0.6-0.2-1.2-0.1-1.7c-0.8-0.1-1.7-0.2-2.6-0.4c-5-0.9-8,3.1-12.9,10.2C156.6,138,155.9,139,155.2,140z M177.2,123L177.2,123
	C177.2,123,177.2,123,177.2,123z"/>
<ellipse cx="164.5" cy="135.1" rx="6.5" ry="10.2"/>
<path class="st2" d="M38,115.7c1.1,1,2.2,2.1,3.3,3.1c0.6,0.5,1.2,1,1.8,1.5c0.8,0.6,0.6,0.5-0.5-0.4c0.2,0.4,0.3,0.7,0.4,1.1
	c0.4,1.9,1.5,3.7,1.9,5.6c0.5,2.1,0.2,4.4,0.6,6.6c1.2,5.7,9.8,3.3,8.7-2.4c-0.5-2.6-0.1-5-1-7.6c-0.7-2.1-1.3-4.2-2.2-6.2
	c-1.6-3.9-3.7-4.7-6.8-7.7C40.2,105.3,33.9,111.7,38,115.7L38,115.7z"/>
<path class="st7" d="M80.1,133.7l-3-5c0,0-1.5,0.5-2.5,5.5C74.6,134.2,76.1,135.7,80.1,133.7z"/>
<path class="st7" d="M162.6,129.2c0,0-1,0-2,5c0,0,0,1,4-1"/>
<path class="st2" d="M124.5,96.6c3.4,0,5.5,3.5,8.1,5.2c1.8,1.1,3.8,1.6,5.6,2.8c1.3,0.9,1.9,2,3.1,3.1c2,1.9,5.9,3.4,8.6,3.1
	c2.1-0.3,3-0.9,5.3-0.7c1.6,0.2,2.9,0.4,4.5-0.1c-1.2-0.2-2.3-0.3-3.5-0.5c-1.8-1.4-0.5,0.3,0,1c0.6,0.8,1,1.5,1.9,2
	c1.9,1.2,4.8,0.8,6.9,0.2c2.8-0.9,2.8-1.9,5.4-0.1c1.8,1.3,3.6,2.2,5.6,2.9c3.3,1.1,6.7,1.8,10,2.8c2,0.6,3.9,1.2,5.8,1.9
	c0.8,0.3,1.6,0.7,2.5,0.9c0.9,0.2,1.9,1.6,0.4-0.3c3.5,4.6,11.3,0.1,7.8-4.5c-2.7-3.6-8-4.7-12.1-6c-4.2-1.3-9-2-13-3.8
	c-3-1.4-4.8-4-8.3-4.2c-1.8-0.1-3.4,0.2-5,1c-0.3,0.1-1.8,0.7-1.9,1c-0.1,0.2,1.4,2,1.5,1.2c0.4-3.2-4.6-3.9-6.4-4.1
	c-4.2-0.4-6.3-0.5-10.2,1.2c1.2-0.2,2.3-0.3,3.5-0.5c-2.9-0.5-3.1-1.7-5.2-3.5c-2.1-1.8-4.8-2.7-7.2-4c-4.9-2.6-7.5-6.9-13.6-6.9
	C118.8,87.7,118.7,96.7,124.5,96.6L124.5,96.6z"/>
<path class="st2" d="M80.8,96.6C82.7,98,85.6,99,87,101c1.3,1.9,0.7,5.4,1.2,7.6c1.2,5.7,9.8,3.3,8.7-2.4c-0.3-1.5-0.1-2.9-0.2-4.4
	c-0.2-2.3-1.1-4.5-2.5-6.3c-2.3-3-5.8-4.5-8.8-6.7c-2-1.4-5-0.3-6.2,1.6C77.8,92.7,78.8,95.1,80.8,96.6L80.8,96.6z"/>
<path class="st6" d="M123.7,129.5c-2.3-4.6-2.1-10.1-3.8-14.9c-2.7-7.6-8.5-9.2-15.4-11.9c-5.4-2.1-7.7,6.6-2.4,8.7
	c2,0.8,5.6,1,7.8,3.3c1.2,1.3,1.7,3.4,2.1,5.1c1.1,4.8,1.6,9.8,3.9,14.3C118.5,139.2,126.3,134.6,123.7,129.5L123.7,129.5z"/>
<path d="M52.2,146c-0.1,0-0.1,0-0.2,0c-2.3-0.1-4.1-1.3-4.6-3.4c-0.1-0.4-0.1-0.8-0.1-1.3c-4.2-4-9.7-11.3-5-21.8
	c0-0.1,0.1-0.5-0.1-0.9c-0.3-0.6-1.2-1.1-2.4-1.5c-1.3-0.4-2.1-1.8-1.7-3.1c0.4-1.3,1.8-2.1,3.1-1.7c2.7,0.8,4.5,2.2,5.5,4.2
	c1.2,2.4,0.3,4.6,0.2,4.9c0,0,0,0.1,0,0.1c-2.9,6.5-0.7,11.2,2.1,14.4c2.2-4.1,6.3-8.3,10.2-10.4c8.2-4.5,8.4-17.7,8.4-17.8
	c0-0.8,0.4-1.6,1.1-2.1c0.8-0.5,1.8-0.7,2.7-0.5c2.4,0.6,4.1,3.7,6.8,9c0.5,0.9,1,2,1.6,3c1-4.9,1.6-13.3,1.8-18.6
	c0-0.8,0.4-1.5,1.1-2c0.6-0.5,1.5-0.6,2.2-0.3c2.8,0.9,7.8,4.2,6.7,9.9c-0.3,1.5-0.5,2.9-0.6,4.2c1.5-0.6,3-0.7,4.4-0.2
	c3.2,1.1,5,4.8,6.1,8.2c0.6-1.3,0.8-2.7,0.4-3.8c-3-7.4,0.9-16.5,1-16.9c0.4-1,1.5-1.7,2.7-1.5c1.1,0.2,2,1.1,2.1,2.2
	c0.7,6.3,3.5,8.4,4.3,8.9c1.7,0.3,6.4,1.9,7.8,8.8c0.4,1.9,0.9,4.6,1.3,7.2c1.9-2.7,4.6-5.4,8-7.1c0.2-0.1,0.3-0.2,0.4-0.3
	c0.1-0.9-2.2-3.9-4.7-5.9c-0.5-0.4-0.8-1-0.9-1.6c-0.7-5.5-1.4-8.1-1.9-9.3c-0.3,0-0.6-0.1-0.9-0.3c-1.2-0.7-1.6-2.2-0.9-3.4
	c0.6-1,1.8-1.9,3.3-1.6c2.3,0.4,3.8,2.7,5.2,12.9c2.1,1.8,6.2,5.9,5.8,9.7c-0.2,1.8-1.3,3.2-3.1,4.1c-5.7,2.9-8.8,9.7-8.9,11.1
	c0,1.3-1,2.4-2.3,2.5c-1.3,0.1-2.5-0.8-2.7-2.1c0-0.1-1.6-10.2-2.6-15c-0.9-4.6-3.8-4.9-3.8-4.9c-0.3,0-0.5-0.1-0.8-0.2
	c-0.2-0.1-2.5-1-4.5-4.1c0,1.6,0.2,3.3,0.8,4.8c2.5,6.3-3.8,13-4.6,13.7c-0.7,0.7-1.7,0.9-2.6,0.6c-0.9-0.3-1.6-1.1-1.6-2.1
	c-0.4-4.3-2.1-9.4-3.8-10c-0.6-0.2-1.9,0.3-3.8,2.4c-0.7,0.8-1.8,1-2.8,0.7c-1-0.4-1.6-1.3-1.6-2.3c0-0.2,0-5.3,1-10.5
	c0.1-0.7,0-1.3-0.2-1.8c-0.3,5.9-1.1,15.5-3.1,19.2c-0.6,1.1-1.6,1.8-2.8,1.8c0,0,0,0,0,0c-2.6,0-4.1-3-6.7-8
	c-0.5-1-1.1-2.2-1.8-3.4c-1,5.3-3.5,13-10.4,16.8c-4.2,2.3-7.6,6.8-8.8,9.6c0.1,0.1,0.1,0.1,0.2,0.2c1.6,1.3,3.1,2.6,2.4,4.6
	C55.1,145.1,54.3,146,52.2,146z"/>
<path d="M166.1,120.4c-0.8,0-1.5-0.3-2-1c-2.9-3.8-8.4-9.2-11.4-9.2c-0.4,0-0.7,0.1-1.1,0.5c-1.7,2.1-4,3-6.5,2.7
	c-5.8-0.7-11.2-8-12.8-11.2c-0.6-1.2-0.1-2.7,1.1-3.4c1.2-0.6,2.7-0.1,3.4,1.1c1.6,3.1,5.9,8.1,8.9,8.5c0.6,0.1,1.3,0,2.1-1
	c1.3-1.6,3-2.4,5-2.3c3.9,0.1,8.1,3.4,11.1,6.5c0.5-2.1,1.4-4,3.2-4.8c2-0.9,4.3-0.1,6.7,2.4c1,1,1,2.6,0,3.5c-1,1-2.6,1-3.5,0
	c-0.5-0.5-0.9-0.8-1.2-1c-0.4,1.1-0.7,3.7-0.6,6c0.1,1.1-0.6,2.1-1.6,2.5C166.7,120.4,166.4,120.4,166.1,120.4z M168.7,111.6
	L168.7,111.6L168.7,111.6z"/>
<path class="st2" d="M184.1,94c-1.3-0.8-1.6-0.8-0.8-0.1c0.1,0.1,0.2,0.1,0.2,0.3c0.3,0.4,0.6,0.8,0.8,1.3c0.8,1.7,1.4,3.2,3.1,4.2
	c1.3,0.7,2.8,0.8,4.3,0.7c1.5-0.1,2.7,0.2,4.2,0.4c2.4,0.3,4.5-2.3,4.5-4.5c0-2.7-2.1-4.2-4.5-4.5c-1-0.1-2-0.4-3.1-0.4
	c-0.4,0-0.7,0-1.1,0c-0.3,0-0.5,0-0.8,0c-0.6,0-0.4,0.1,0.6,0.2c0.5,0.5,1.1,1.1,1.6,1.6c-1.2-1.7-1.8-3.6-3.2-5.2
	c-1.5-1.8-3.6-3.1-6-3C178.3,85.3,178.3,94.3,184.1,94L184.1,94z"/>
<path d="M204.8,126.2c-0.7,0-1.5-0.3-2.1-1.1c-0.7-0.6-4.7-1.5-7.9-1.4c-2.7,0.1-3.9-2-4.6-3.1c-0.8-1.3-0.8-1.3-1.7-1
	c-6.3,1.8-11.1-3.8-11.3-4.1c-0.9-1.1-0.7-2.6,0.3-3.5c1.1-0.9,2.6-0.7,3.5,0.3c0.1,0.1,2.9,3.4,6,2.5c4.6-1.3,6.5,1.7,7.4,3.2
	c0.1,0.2,0.3,0.5,0.4,0.7c1.6,0,4.1,0.2,6.5,0.7c-0.9-2.2-2.3-4.2-2.9-4.3c-0.5-0.1-4.3-0.7-6.4-3.5c-0.8-1.1-1.2-2.3-1.2-3.7
	c-1.1-0.8-3.2-2.4-6.7-4.8c-6.5-4.3-6.4-8.6-6.2-9.8c0-0.2,0-0.5-0.1-0.6c0,0-0.1,0-0.3,0c-0.3,0-0.8,0.1-1.7,0.4
	c-0.8,0.3-1.6,0.1-2.3-0.3c-0.7-0.5-1-1.2-1-2v-2c0-1.1,0.7-2.1,1.8-2.4c0.2-0.1,5.6-1.6,10.1,1c2.6,1.6,4.4,4.2,5.1,7.9
	c0.3,1.5,0.8,2.6,1.4,2.9c1.1,0.6,3.5-0.4,5-1c1.9-0.8,3.6-1.4,5.2-0.7c0.2,0.1,0.7,0.3,1.2,0.4c0.5,0.1,1,0.3,1.7,0.6
	c0.2-1.4,0.5-2.9,1.3-4.5c0,0,0,0,0,0c-0.3-0.1-0.7-0.1-1-0.1c-2.2-0.3-5.5-0.6-6.9-3.6c-1.7-3.5,0.2-7.2,1.8-10.1
	c0.8-1.6,1.8-3.3,1.8-4.4c0-0.8-0.6-1.8-1.7-2.6c-1.6-1.2-3.6-1.8-5-1.5c-1.3,0.3-2.7-0.5-3-1.8c-0.3-1.3,0.5-2.7,1.8-3
	c2.9-0.7,6.5,0.2,9.3,2.4c2.3,1.8,3.6,4.2,3.6,6.6c0,2.3-1.2,4.5-2.4,6.7c-1.1,2-2.3,4.4-1.8,5.5c0.3,0.6,1.9,0.8,3.1,0.9
	c1.8,0.2,4.1,0.5,5.2,2.4c1.1,1.9,0.1,4.1-0.2,4.8c-0.9,1.9-1,3.8-0.8,5.4c1.5,1.5,2.7,3.7,2.7,6.8c0,1.1-0.7,2-1.7,2.4
	c-1,0.3-2.1,0-2.8-0.9c-0.1-0.2-1.8-2.4-2.7-5.7c-1-0.6-2.3-1.1-3.7-1.5c-0.5-0.2-1-0.3-1.5-0.5c-0.4,0.1-1.1,0.4-1.6,0.6
	c-1.4,0.6-3.1,1.2-4.9,1.5c1.6,1.2,2.2,1.7,2.2,1.8c0.7,0.6,1,1.5,0.8,2.4c-0.2,0.8,0,1.2,0.2,1.4c0.7,1,2.5,1.4,2.9,1.5
	c5.4,0.7,7.8,9.7,8.2,12.1c0.3,1.9-0.2,3.1-1.5,3.7C205.5,126.1,205.2,126.2,204.8,126.2z M183,94.3c0,0.3,0.2,1.5,2,3.2
	c-0.1-0.4-0.2-0.8-0.3-1.3c-0.3-1.6-0.9-2.8-1.7-3.7c0.1,0.8,0,1.4,0,1.5C183,94.2,183,94.2,183,94.3z M182.9,94.4L182.9,94.4
	L182.9,94.4z"/>
<path d="M152.1,56.2c-0.4,0-0.9-0.1-1.3-0.4c-1.2-0.7-1.5-2.2-0.9-3.4c0.1-0.2,2.3-4.9,0.7-19.5c-0.4-3.9,0.4-6.8,1.8-8.8
	c-0.8,0.5-1.5,1.4-2.1,2.6c-3.7,7.4-3.8,10.6-3.8,11.2c0.1,0.3,0.1,0.3,0.1,0.7c0,0.7-0.1,4.3-2.7,6c-1.1,0.7-2.9,1.4-5.7,0.3
	c-0.9-0.4-1.6-1.3-1.6-2.3v-1.7l-1.9,1.6c-0.7,0.6-1.6,0.7-2.4,0.4c-0.8-0.3-1.4-1-1.6-1.9c-0.1-0.3-1.2-6.4,4.7-12.3
	c1.1-1.1,1-2.3,0.6-4.9c-0.3-1.8-0.7-4.2,0.2-6.4c-1.9,0.4-3.8,1.2-5.4,2.4c-1.9,1.6-2.9,3.7-3.2,6.6c0.2,1.5,0.5,6.6-3.7,10.9
	c-1.5,1.5-2.9,1.3-3.6,1.1c-2.2-0.7-2.7-3.1-3.4-6.4c-0.7-3.1-1.4-6-2.6-8c0,1.6-0.2,3.4-0.8,5.3c-0.8,2.4-2.6,2.8-3.3,2.9
	c-1.1,0.1-4.1,0.3-10.5-10.4c-0.4,2.2-0.3,5,0.7,7.9c3.5,9.4-0.2,12.4-1,13c-1.1,0.7-2.5,0.5-3.3-0.5C91.5,36.9,85,28.7,82,22.1
	c-0.4,1.9-0.6,4.1-0.4,6.5c0.1,1.4-0.9,2.6-2.3,2.7c-1.4,0.1-2.6-0.9-2.7-2.3c-0.8-9.9,3.9-17.2,6-18.1c1.1-0.4,2.3-0.2,3,0.7
	c1.4,1.6,0.2,3.5-0.4,4.5c-0.6,2,4.6,10.5,11.5,19.2c-0.2-1-0.5-2.2-1-3.6c-3.4-9,1-16.8,1.2-17.1c0.5-0.8,1.3-1.3,2.2-1.3
	c0.9,0,1.7,0.5,2.2,1.3c2.7,5,5.9,9.9,7.8,12c0.7-3.8-1-6.3-1-6.3c-0.6-0.8-0.7-1.9-0.2-2.7c0.5-0.9,1.4-1.4,2.4-1.3
	c8.4,0.8,10.3,9.7,11.4,15c0,0.2,0.1,0.4,0.1,0.6c1.2-2.4,0.8-4.5,0.8-4.6c0-0.2-0.1-0.4,0-0.7c0.3-4.4,2-7.8,5-10.3
	c6.1-5,15.4-4,15.8-4c1.1,0.1,2,1,2.2,2.2c0.1,1.1-0.5,2.2-1.5,2.6c-3.9,1.6-3.7,2.9-3.1,6.2c0.4,2.6,1,6.2-2,9.2
	c-0.3,0.3-0.6,0.7-0.9,1c0.7-0.4,1.5-0.4,2.2,0c0.9,0.4,1.4,1.3,1.4,2.3v0.8c0.3-2.3,1.3-6.1,4.3-11.9c1.5-3.1,3.7-5,6.4-5.7
	c4.2-1,7.9,1.5,8.3,1.8c0.8,0.6,1.2,1.6,1,2.6c-0.2,1-1.1,1.7-2.1,1.9c-0.7,0.1-4.6,1.1-3.9,7.2c1.9,16.8-1,22-1.4,22.6
	C153.8,55.8,152.9,56.2,152.1,56.2z"/>
<path d="M27.1,88.2c-1.4,0-2.5-1.1-2.5-2.5c0-0.5-0.2-0.9-0.5-1.2c-2.4-2-10.5-1.4-15.4-0.4c-0.7,0.1-1.4,0-2-0.4
	c-0.6-0.4-0.9-1.1-1-1.8c-0.3-2.9,0.5-5.5,2.4-7.5c3.1-3.4,8.3-4.6,11.7-5c-1-1.1-2.5-2.6-4.1-3.7c-1.1-0.8-1.4-2.3-0.7-3.4
	c2.3-3.6,5.1-4.3,7-4.2c7.7,0.2,15.1,12.7,16.5,15.3c0.7,1.2,0.2,2.7-1,3.4c-1.2,0.7-2.7,0.2-3.4-1c-2.9-5.2-8.7-12.6-12.3-12.7
	c-0.2,0-0.6,0-1.1,0.3c2.7,2.3,5.8,5.8,4.7,9.1c-0.3,1-1.3,1.7-2.4,1.7c-2.3,0-8.8,0.7-11.4,3.6c-0.2,0.3-0.5,0.6-0.6,0.9
	c4.7-0.6,12.3-1.1,16.1,2c1.6,1.3,2.4,3,2.4,5.1C29.6,87.1,28.5,88.2,27.1,88.2z"/>
<path d="M21.2,122.9c-0.1,0-0.2,0-0.3,0c-1.4-0.1-2.4-1.4-2.2-2.7c-0.8-1.5-8.8-2.1-16-1.2c-1.3,0.2-2.5-0.7-2.8-2
	c-0.4-2.4,0-4.4,1.2-6c2.5-3.2,7.5-3.5,11.9-3.7c1.6-0.1,4-0.2,5.2-0.6c-1.6-1.1-7.3-2-12.6-1.9c-1.3,0-2.3-0.9-2.5-2.1
	c-0.2-1.2,0.6-2.4,1.7-2.8c8-2.4,13.4-15.1,13.5-15.3c0.5-1.3,2-1.9,3.3-1.3c1.3,0.5,1.9,2,1.3,3.3c-0.2,0.4-3.6,8.3-9.4,13.7
	c3.5,0.5,7.1,1.5,8.8,3.5c0.9,1.1,1.3,2.5,1,3.9c-0.8,4-5.5,4.3-10.1,4.6c-2.7,0.2-6.4,0.4-7.9,1.5c5.2-0.4,13.5-0.4,16.7,2.8
	c1.2,1.1,1.7,2.6,1.5,4.1C23.5,122,22.5,122.9,21.2,122.9z"/>
<path class="st2" d="M34.7,129c-3.5,3.1-8.2,1.5-12.1,3.7c-3.8,2.1-5.5,5.7-10.6,4.4c-3.7-0.9-5.3,4.8-1.6,5.8
	c4.8,1.2,9.1,0.2,12.9-3c1.2-1,2.2-2.1,3.9-2.6c1.6-0.4,3.5-0.1,5.1-0.5c2.6-0.6,4.7-1.9,6.7-3.6C41.9,130.6,37.6,126.4,34.7,129
	L34.7,129z"/>
<path d="M12.5,147.9c-0.5,0-1.1,0-1.6-0.1c-6.7-1-10.4-8.2-10.6-8.5c-0.6-1.2-0.2-2.7,1-3.3c1.2-0.7,2.6-0.3,3.4,0.8
	c0.2,0.3,0.4,0.6,0.7,0.8c0.2-0.5,0.6-1.4,0.9-3.1c1.8-9.6,11.5-11.6,16.4-11.4c1.4,0.1,2.4,1.2,2.4,2.6c-0.1,1.4-1.2,2.4-2.6,2.4
	c-0.4,0-9.8-0.3-11.3,7.3c-0.4,2-1,4.5-2.5,6.1c0.9,0.6,1.9,1.1,3,1.3c2.4,0.4,4.9-0.9,7.6-3.6c1-1,2.6-1,3.5,0c1,1,1,2.6,0,3.5
	C19.5,146.2,16,147.9,12.5,147.9z"/>
<path d="M22.8,169.6c-0.4,0-0.9-0.1-1.3-0.3c-1.2-0.7-1.6-2.2-0.9-3.4l1.6-2.7c-6.7,0.9-9.8-2.6-10-2.8c-0.7-0.8-0.8-2-0.3-2.9
	s1.6-1.4,2.7-1.2c1.4,0.3,4.8-3.4,7.1-8.5c0.6-1.3,2.1-1.8,3.3-1.2c1.3,0.6,1.8,2.1,1.2,3.3c-0.6,1.3-2.6,5.5-5.6,8.5
	c1.5-0.1,3.4-0.5,5.8-1.6c1-0.4,2.2-0.2,2.9,0.6c0.7,0.8,0.8,2,0.3,2.9l-4.8,8.2C24.5,169.1,23.7,169.6,22.8,169.6z"/>
<path d="M36.9,236.1c-0.4,0-0.8-0.1-1.2-0.3c-1.1-0.6-1.6-1.8-1.2-3l4.3-13.2c-10.4,2.8-15.2-2.5-15.5-2.8c-0.7-0.8-0.8-2-0.3-2.9
	c0.5-0.9,1.6-1.4,2.7-1.2c0.3,0.1,0.5,0,0.8-0.2c2.1-1.5,3.4-7.8,3.7-11.8c0.1-1.4,1.3-2.4,2.7-2.3c1.4,0.1,2.4,1.3,2.3,2.7
	c-0.1,1.8-1,10-4.4,14.1c2.3,0.4,5.9,0.2,10.8-2c0.9-0.4,2-0.2,2.7,0.4c0.7,0.7,1,1.7,0.7,2.6l-3.2,9.9c3.7-2.1,8.7-3.7,14.8-2.9
	c1.4,0.2,2.3,1.5,2.1,2.8c-0.2,1.4-1.4,2.3-2.8,2.1c-10.7-1.5-17.1,6.7-17.2,6.8C38.4,235.7,37.7,236.1,36.9,236.1z"/>
<path d="M202.1,152.7c-2.2,0-5.1-0.7-9-2.6c-0.1,0.1-0.3,0.2-0.5,0.2c-1.1,0.5-2.9,1.5-5.1,0.8c-1.3-0.4-2.1-1.8-1.7-3.1
	c0.4-1.3,1.8-2.1,3.1-1.7c0.3,0.1,0.6,0,1.4-0.4c1-0.5,2.7-1.4,4.7-0.4c2.2,1.2,4,1.8,5.3,2c-0.8-1.2-1.5-2.7-1.8-4.8
	c-1-1.3-5.6-3.3-7.7-3.6c-0.8,0.3-1.4,0.5-1.4,0.5c-1.6,0.4-2.7-0.6-3.1-1.6c-0.5-1.4,0.1-2.6,1.9-3.5c0.5-0.3,1.1-0.4,1.8-0.4
	c2-0.9,4.8-2.4,6.2-3.6c-0.9-0.3-2.6-0.6-5.8-0.7c-4.9-0.2-8.5-7.7-9.4-10c-0.5-1.3,0-2.7,1.3-3.3c1.3-0.5,2.7,0,3.3,1.3
	c1.6,3.8,4.1,6.9,5,7c5.3,0.2,10.8,0.9,11.2,4.9c0.2,2.4-2,4.6-4.6,6.3c0.5,0.2,0.9,0.4,1.2,0.6c3.2,1.7,4.9,3.4,5.2,5.2
	c0.5,3.6,2.8,4.3,3.1,4.4c0.8,0.2,1.4,0.7,1.8,1.4c0.3,0.7,0.2,1.6-0.2,2.3C207.9,150.3,206.3,152.7,202.1,152.7z M197.2,130.9
	L197.2,130.9L197.2,130.9z"/>
<path d="M202.5,171.2c-0.3,0-0.5,0-0.8-0.1l-9-3c-1-0.3-1.7-1.3-1.7-2.4c0-1.1,0.7-2,1.8-2.4c2.5-0.8,4.2-1.7,5.5-2.6
	c-4.2-0.3-8.5-2.1-9.8-2.7c-1.3-0.6-1.8-2.1-1.2-3.3c0.6-1.3,2.1-1.8,3.3-1.2c5.2,2.3,10.1,2.9,11,1.8c0.6-0.9,1.8-1.2,2.8-0.9
	c1,0.3,1.7,1.3,1.7,2.4c0,0.3-0.1,4.9-5.7,8.6l3,1c1.3,0.4,2,1.9,1.6,3.2C204.5,170.6,203.5,171.2,202.5,171.2z"/>
<path class="st2" d="M33.9,167.9c-4.4,5.5-4.8,13.7-5.3,20.5c-0.3,3.8,5.7,3.8,6,0c0.2-2.8,0.7-5.6,1.1-8.4c0.4-2.7,0.7-5.7,2.5-7.9
	C40.5,169.1,36.3,164.8,33.9,167.9L33.9,167.9z"/>
<path d="M22.7,203.4c-0.4,0-0.8-0.1-1.1-0.3c-1.2-0.6-1.7-2-1.2-3.2c0.3-0.7,0.7-1.5,1.3-2.3c2-3.7,3.6-7.4,4.3-9.9
	c-3,2.3-7.3,3.9-12.5,2.2c-0.2-0.1-0.4-0.1-0.5-0.3c-1.5-0.9-3.3-1.6-4.6-1.9c-1.3,0.5-2.3,0.8-2.7,0.9c-1.1,0.3-2.2-0.1-2.8-1
	c-0.6-0.9-0.6-2.1,0.1-3c1.2-1.5,2.9-2,4.6-2c0,0,0,0,0,0c5.5-2.2,11.2-5.8,10.6-8.8c-0.3-1.4,0.6-2.7,2-2.9c1.4-0.3,2.7,0.6,2.9,2
	c1,5.2-3.7,9.3-8.5,11.9c0.3,0.1,0.5,0.3,0.7,0.4c6,1.8,9.7-3.7,9.9-3.9c0.6-0.9,1.8-1.3,2.8-1c1.3,0.4,2.3,1.4,2.8,2.7
	c0.8,2,0.2,5.1-0.8,8.2c2.7-0.9,5.9-1,9.6,0c1.3,0.4,2.1,1.7,1.8,3.1c-0.4,1.3-1.7,2.1-3.1,1.8c-7-1.9-10.9,1.9-12.5,4.3
	c-0.4,0.8-0.8,1.4-1.1,1.9C24.4,203,23.6,203.4,22.7,203.4z"/>
<path class="st5" d="M128.4,133.7c-0.1,4.6,0.6,9.8,2,14.2c1,3,3.2,6.9,3.8,9c2.3,7.4,13.9,4.2,11.6-3.2c-0.9-2.9-2.6-5.6-3.6-8.4
	c-1.2-3.4-1.9-7.8-1.8-11.6C140.6,125.9,128.6,125.9,128.4,133.7L128.4,133.7z"/>
<path d="M147.4,161.4c-0.9,0-1.8-0.5-2.2-1.4c-10.1-20.1-7.2-31.7-7.1-32.2c0.3-1.3,1.7-2.1,3-1.8c1.3,0.3,2.1,1.7,1.8,3
	c0,0.2-2.4,10.6,6.7,28.7c0.6,1.2,0.1,2.7-1.1,3.4C148.1,161.3,147.7,161.4,147.4,161.4z"/>
<path d="M198.2,199c-0.4,0-0.9-0.1-1.3-0.4c-0.1,0-5.6-3.4-10.8-3.4c-1.4,0-2.5-1.1-2.5-2.5s1.1-2.5,2.5-2.5c1.2,0,2.4,0.1,3.6,0.4
	c-2.4-3.2-4.3-6.7-4-9.3c0.2-1.4,0.9-2.6,2.1-3.3c0.9-0.6,2.2-0.5,3,0.3c0.2,0.2,4.7,4.1,9.7,1.7c-4.2-1.5-9.5-4.5-9.9-10.4
	c-0.1-1.4,0.9-2.6,2.3-2.7c1.4-0.1,2.6,0.9,2.7,2.3c0.3,3.8,5.1,5.7,8.2,6.5c0.9-0.2,2.2-0.1,3.8,1c0.9,0.7,1.3,1.9,0.9,2.9
	c-0.4,1.1-1.5,1.7-2.6,1.6c0,0-0.2,0-0.3,0c0,0.1,0,0.1,0,0.2c0,0.9-0.4,1.7-1.1,2.1c-4.5,3-9.2,2.5-12.6,1.1
	c1.6,2.7,4.8,6.7,8.3,10.2c0.9,0.9,1,2.3,0.2,3.3C199.6,198.6,198.9,199,198.2,199z"/>
<path class="st2" d="M142,70.5c-1.8,0-3.6-0.4-5.4-0.3c-1.1,0.1-2.6,0-4,0c-1.5,0-2.7,0.1-4,0.8c-0.9,0.4-2.2,1.3-2.7,1.4
	c-5.6,1.3-3.3,10,2.4,8.7c1.2-0.3,2.3-1,3.4-1.5c0.1,0,1.3-0.8,1.4-0.8c-1.3,0.3-1.6,0.5-0.9,0.5c0.3,0,0.6,0,1,0.1
	c1.5,0,2.9,0,4.4-0.1c1.5-0.1,2.9,0.4,4.4,0.4C147.8,79.4,147.8,70.4,142,70.5L142,70.5z"/>
<path class="st2" d="M137.1,57.2c-2.8,0-5.5,1.2-6.6,3.9c-1,2.4-0.3,5,1.4,6.8c1.6,1.7,4.7,1.8,6.4,0c1.7-1.8,1.7-4.5,0-6.4
	c-0.1-0.1-0.1-0.1-0.2-0.2c0.2,0.3,0.5,0.6,0.7,0.9c-0.1-0.1-0.2-0.3-0.3-0.5c0.2,0.4,0.3,0.7,0.5,1.1c-0.1-0.1-0.1-0.3-0.1-0.4
	c0.1,0.4,0.1,0.8,0.2,1.2c0-0.1,0-0.3,0-0.4c-0.1,0.4-0.1,0.8-0.2,1.2c0-0.1,0-0.2,0.1-0.3c-0.2,0.4-0.3,0.7-0.5,1.1
	c0-0.1,0.1-0.2,0.2-0.3c-0.2,0.3-0.5,0.6-0.7,0.9c0.1-0.1,0.2-0.2,0.3-0.3c-0.3,0.2-0.6,0.5-0.9,0.7c0.2-0.1,0.3-0.2,0.5-0.3
	c-0.4,0.2-0.7,0.3-1.1,0.5c0.3-0.1,0.5-0.2,0.8-0.2c-0.4,0.1-0.8,0.1-1.2,0.2c0.2,0,0.5,0,0.7,0c2.4,0,4.6-2,4.5-4.5
	C141.5,59.3,139.6,57.2,137.1,57.2L137.1,57.2z"/>
<path d="M121.1,80.2c-0.9,0-1.7-0.4-2.1-1.2c-0.6-1-0.4-2.3,0.4-3.1c0.3-0.2,3.4-3.1,8-5.2c1.2-1.4,2.2-3,2.2-5c0-3.3,1-5.8,2.9-7.5
	c2.8-2.5,6.5-2,6.9-2c1.4,0.2,2.3,1.5,2.1,2.8c-0.2,1.4-1.4,2.3-2.8,2.1c-0.1,0-1.8-0.2-3,0.8c-0.8,0.7-1.2,2-1.2,3.7
	c0,1-0.1,2-0.4,2.9c3.5-0.5,7.3-0.1,11.1,1.9c1.2,0.7,1.7,2.2,1,3.4c-0.7,1.2-2.2,1.7-3.4,1c-4.3-2.4-8.9-1.6-12.6,0
	c-3.5,3.4-8,5-8.3,5.2C121.7,80.2,121.4,80.2,121.1,80.2z"/>
<path d="M167.6,354.7H63c-0.9,0-1.7-0.4-2.1-1.2c-2.4-3.8-4.7-12.7,2.8-20c0-1.5-0.3-4.8-3.1-7.8c-0.9-0.6-3-2.1-3.7-5
	c-0.6-2.5,0-5.1,1.8-7.9c0.1-1.6,0.3-6.7-1.8-11c-0.2-0.5-0.3-1-0.2-1.6c0-0.1,1.8-10.6-0.9-19.8c-0.1-0.4-0.1-0.8-0.1-1.1
	c0.8-4.7,1.4-12.2,0.2-14.5c-0.3-0.6-5.4-12.2,1.9-19.4c0.4-2,1.1-8-1.1-13.8c-0.5-1.3,0.2-2.7,1.5-3.2c1.3-0.5,2.7,0.2,3.2,1.5
	c3.2,8.6,1.2,17.1,1.1,17.5c-0.1,0.5-0.4,1-0.8,1.3c-5.5,4.7-1.4,14-1.3,14.1c2.1,4.1,0.8,13.8,0.3,16.9c2.5,8.8,1.4,18,1,20.8
	c2.9,6.4,1.9,13.4,1.9,13.7c-0.1,0.4-0.2,0.8-0.4,1.1c-0.9,1.2-1.8,2.9-1.4,4.4c0.3,1.3,1.5,1.9,1.5,1.9c0.2,0.1,0.5,0.3,0.6,0.5
	c5.8,5.8,4.7,12.9,4.7,13.2c-0.1,0.6-0.4,1.1-0.8,1.5c-5.7,5.1-4.3,10.7-3.2,13.1h103.1c1.4,0,2.5,1.1,2.5,2.5
	S169,354.7,167.6,354.7z"/>
<path class="st3" d="M104,217.1c0,0,2.7,16.5,19.9,19.1c6.3,1,12-0.3,16.4-3.8c9.3-7.4,12.7-22.4,5.2-25.7c-10.9-4.8-8.3,9-21.1,8.5
	C118.8,215,104,217.1,104,217.1z"/>
<g>
	<path class="st5" d="M127.9,232c-1.2,0.9,3,0.1,4.5-0.4c0.7-0.2,1.5-0.4,2.2-0.6c0.8-0.2,1.5-0.6,2.3-0.9c1.4-0.5,2.5-1.4,3.7-2.3
		c0.8-0.6,1.4-1.2,2.1-1.9c0.4-0.4,0.6-0.8,1-1.2c0.3-0.3,0.4-0.4,0.5-0.8c0.2-0.7,0.3-1.3,0.3-2c0-0.5,0-0.9,0-1.4
		c0-0.4-1.1-9.9-1.4-10.1c-0.4-0.2-6.6,0.2-7,0c-0.9-0.5-2.2,6.6-3,7c-0.6,0.3-5,2-4.8,3.2c0.1,0.7-1.5-0.1-2.1,0
		c-0.4,0.1-0.5,0.2-0.9,0.1c-0.4-0.1-0.7-0.2-1.1-0.1C124,220.7,129.9,230.4,127.9,232z"/>
	<path class="st5" d="M124,229.8c-0.1,0.1-0.1,0.2-0.2,0.3c-1.5,2-0.2,5,1.6,6.2c2.8,1.7,6.9,0.2,9.8-0.6c4.5-1.3,8.7-3.8,11.6-7.6
		c3.5-4.4,2.1-12.9,0.7-18c-0.9-3.2-3.3-4-6.3-4c-3.2,0-6.2-0.9-8.6,1.4c-0.6,0.5-3.8,7.6-3.3,7.8c-1.5-0.5,3-1.7-0.1-0.8
		c-0.7,0.2-1.6,0.8-2.2,1.2c-0.7,0.4-1.3,1-1.9,1.6c-0.2,0.2-1.8,2.7-1,1.6c1.3-0.7,2.6-1.5,3.9-2.2c-1.7-0.2-2.9-0.1-4-0.3
		c-3.5-0.5-5.5,4.1-3.9,6.8c0.7,1.2,1.3,2.3,2,3.5c0.5,0.9,0.8,2,1.3,2.8c1.2,1.9-0.8,2.1,1.4-0.5c-3.7,4.4,2.7,10.8,6.4,6.4
		c4.1-5-0.4-12.2-3.2-16.8c-1.3,2.3-2.6,4.5-3.9,6.8c1.2,0.2,1.6-0.1,2.8,0c-1.5-0.1,0.7,0.2,1.2,0.3c1.6,0.2,3-1,3.9-2.2
		c1.5-2.1-0.8-0.7-0.4,0.1c0-0.1,1.7-1,1.8-1c1.1-0.5,2.2-0.9,3.1-1.8c1-1,1.4-2.4,1.8-3.6c0.3-0.8,0.5-1.6,0.7-2.4
		c0.2-0.7,1.2-2.1,0-0.8c-1.1,0.4-2.1,0.9-3.2,1.3c-1.8,0.2,0.5,0,0.9,0c0.6,0,1.3,0,1.9,0c0.7,0,1.5,0,2.2-0.1c0.3,0,2.3,0.1,1-0.1
		c-0.9-0.7-1.8-1.4-2.7-2.1c-0.8-1.4-0.1,0.5,0,1c0.1,1,0.3,2,0.4,2.9c0.2,1.2,0.5,2.6,0.4,3.8c-0.1,2.9-2.7,4.7-5.4,5.8
		c-1.3,0.5-2.7,0.8-4,1.2c-2.1,0.5-2.4-0.3-0.5,0.9c0.5,2.1,1.1,4.1,1.6,6.2c0.1-0.1,0.1-0.2,0.2-0.3
		C135.3,229.7,127.5,225.2,124,229.8z"/>
</g>
<path class="st6" d="M103.1,224c1.3,4.3,6.9,8.2,10.6,10.4c5,2.9,11.7,3.5,17.2,4.4c7.6,1.3,10.8-10.3,3.2-11.6
	c-3.6-0.6-7.1-1.2-10.6-2.1c-0.8-0.2-1.5-0.4-2.3-0.6c-0.4-0.1-2.5-1.1-0.9-0.2c-0.7-0.4-1.3-0.8-2-1.3c-0.8-0.6-1.7-1.2-2.4-1.9
	c-1.3-1.1-2-2.9-1.2-0.3C112.5,213.4,100.9,216.5,103.1,224L103.1,224z"/>
<path d="M129.3,239.2c-0.9,0-1.8,0-2.7-0.1c-16-1.6-24.7-9.4-25.7-23.2c-0.1-0.7,0.2-1.4,0.7-1.9c0.5-0.5,1.2-0.8,1.9-0.8
	c0.1,0,13.5,0.3,21-1.4c2.9-0.7,4.3-1.9,6-3.3c2.4-2,5-4.2,11.2-4.3c3.8,0,6.5,1.1,8.2,3.3c2.4,3.2,1.7,7.3,1.4,8.5
	c-0.2,1.7-1.6,12.5-9.2,18.7C138.6,237.8,134.2,239.2,129.3,239.2z M106.2,218.2c2.2,12.5,12.9,15.1,20.9,15.9
	c4.7,0.5,8.7-0.6,11.8-3.2c6.5-5.3,7.4-15.5,7.4-15.6c0-0.2,0-0.3,0.1-0.5c0.2-0.7,0.5-3-0.5-4.3c-0.7-0.9-2.1-1.4-4.2-1.4
	c-4.4,0-6,1.3-8.1,3.1c-1.9,1.6-4,3.4-8.1,4.3C119.6,218,110.8,218.2,106.2,218.2z"/>
<path d="M142.5,132.1c-0.3,0-0.7,0-1-0.1c-4.7-0.8-8.1-7.4-8.8-8.8c-0.7-1.5-0.1-3.3,1.4-4c1.5-0.7,3.3-0.1,4,1.4l0,0
	c1.3,2.8,3.5,5.3,4.4,5.5c0,0,0.1-0.1,0.2-0.2l1.1-1.1c3.9-3.8,5.6-5.4,8.1-6.2c1.6-0.5,3.3,0.3,3.8,1.9c0.5,1.6-0.3,3.3-1.9,3.8
	c-1.2,0.4-2.3,1.5-5.8,4.8l-1.1,1.1C145.5,131.5,144,132.1,142.5,132.1z"/>
<circle class="st2" cx="92" cy="179.5" r="1.5"/>
<circle class="st2" cx="91" cy="187.5" r="1.5"/>
<circle class="st2" cx="83" cy="182.5" r="1.5"/>
<circle class="st2" cx="168" cy="176" r="1.5"/>
<circle class="st2" cx="165.4" cy="186.2" r="1.5"/>
<circle class="st2" cx="171.3" cy="183.5" r="1.5"/>
</svg>
