<?xml version="1.0" encoding="utf-8"?>
<!-- Generator: Adobe Illustrator 23.0.0, SVG Export Plug-In . SVG Version: 6.00 Build 0)  -->
<svg version="1.1" id="lawyer-icon" xmlns="http://www.w3.org/2000/svg" xmlns:xlink="http://www.w3.org/1999/xlink" x="0px"
	 y="0px" viewBox="0 0 883 294" style="enable-background:new 0 0 883 294;" xml:space="preserve">
<g>
	<path class="st0" d="M264.5,126.8L262.2,17l34.4,2.1l3.5,75l26.8,0.7l4.7,31.7L264.5,126.8z"/>
	<path class="st0" d="M347.1,125.7l27-105.7l47.7-0.7l25.6,106.6l-33.5,3.2l-4.2-21h-24.5l-4,21L347.1,125.7z M403.5,80.3l-6.8-32.8
		l-5.8,33.3L403.5,80.3z"/>
	<path class="st0" d="M517.8,89.1l-11.6,39.6l-31.9,1.6L462.8,21.1h32.8L500,63l3.5-24.9l27.9,0.5l3.9,26.8l8.1-44.3l34.5,3.5
		l-12.4,104.1l-38.2-2.8L517.8,89.1z"/>
	<path class="st0" d="M662.4,97.3l-0.7,30l-42.6-1.4L618,97.3l-26.1-77l36.6-2.1l11.6,44l13-46.1l33.5,6L662.4,97.3z"/>
	<path class="st0" d="M779.3,126.6l-79.2,0.7l4-106.8l73.6-0.5c-0.4,5.7-0.6,10.9-0.9,15.4c-0.1,2-0.2,3.9-0.3,5.7s-0.1,3.4-0.2,4.9
		c-0.1,1.5-0.1,3-0.1,4.6l-36.5,0.2v9.6l27.2-0.4l-2.5,26.3l-25.9,0.9l-0.5,8.4c7.5-0.1,14.2-0.2,20.2-0.4c2.6,0,5.1,0,7.4-0.1
		c2.4-0.1,4.6-0.1,6.5-0.2s4.1-0.1,6.6-0.1L779.3,126.6z"/>
	<path class="st0" d="M879.4,106.4l-19.8,24.2l-24.4-20.3l-0.2,17l-34.7-1.4L803,19.3l25.9-1.2c6.5-0.4,12.2-0.1,17,0.6
		c4.8,0.8,8.9,1.9,12.3,3.5c3.4,1.6,6.2,3.5,8.6,5.8c2.3,2.3,4.4,4.8,6.1,7.5c1.3,2.1,2.4,5.6,3.3,10.4c0.9,4.9,1.3,10.2,1.1,16
		s-1.4,11.5-3.4,17.2c-2,5.7-5.4,10.3-10.1,13.9L879.4,106.4z M838.4,71.9c3.9-1.3,6.5-3.4,7.8-6.3s1.8-6.8,1.3-11.6
		c-1.3-2.9-3.1-5-5.4-6.1c-2.3-1.2-4.7-1.8-7.2-1.9l0.2,26.6c0.6-0.1,1.1-0.2,1.7-0.4C837.3,72.1,837.8,72,838.4,71.9z"/>
</g>
<g>
	<path class="st0" d="M260,162.2l50,1.2c8.2,0.7,14.7,2.9,19.6,6.5s8.6,8.2,11.2,13.7s4.2,11.7,4.9,18.6c0.7,6.9,0.9,13.9,0.7,21
		c-1.4,10.3-3.2,18.6-5.4,25.1c-2.2,6.4-5.1,11.5-8.6,15.1s-7.8,6.1-12.9,7.4s-11.2,1.9-18.3,1.8l-22.1-0.4c-2.8,0-5.5,0-8.2-0.1
		c-2.6-0.1-5-0.1-7-0.1s-4.3-0.1-6.7-0.2L260,162.2z M296.4,237.4c1.8-0.2,3.6-0.5,5.6-0.7s3.9-0.9,5.9-1.9c1.9-1.1,3.7-2.7,5.2-4.9
		s2.7-5.4,3.5-9.6c-0.1-2.6-0.1-5.2-0.1-7.8c0.1-2.6-0.2-5.2-0.9-7.6c-0.6-2.5-1.8-4.7-3.5-6.8s-4.4-4-8-5.6c-0.1,0-1,0-2.6-0.1
		s-3.4-0.1-5.4-0.3c-2.3-0.1-5-0.2-7.9-0.4l-1.9,45.2c2,0,3.7,0.1,5.1,0.2c1.3,0.1,2.4,0.2,3.4,0.3
		C295.7,237.4,296.3,237.4,296.4,237.4z"/>
	<path class="st0" d="M448.4,238.1c0,1.9-0.3,4.1-0.9,6.7c-0.6,2.6-1.5,5.2-2.7,8c-1.2,2.7-2.9,5.4-4.9,8.1c-2,2.6-4.6,4.9-7.5,6.9
		c-3,2-6.4,3.5-10.3,4.6s-8.4,1.3-13.6,0.9c-5.1-0.5-9.6-1.3-13.5-2.5s-7.2-2.7-10.1-4.5s-5.3-3.7-7.3-5.8c-2-2.1-3.6-4.2-4.9-6.3
		c-3-4.9-4.9-10.4-5.4-16.5l-4.9-70.5l36.3-1.9l3.5,65.2c0.6,3.3,1.7,5.6,3.4,7c1.7,1.4,3.4,2,5.2,1.8s3.3-1.1,4.6-2.7
		c1.3-1.6,2-4,2-7v-64.7l33.3,1.6L448.4,238.1z"/>
	<path class="st0" d="M471.2,162.2l50,1.2c8.2,0.7,14.7,2.9,19.6,6.5c4.9,3.6,8.6,8.2,11.2,13.7c2.6,5.5,4.2,11.7,4.9,18.6
		c0.7,6.9,0.9,13.9,0.7,21c-1.4,10.3-3.2,18.6-5.4,25.1c-2.2,6.4-5.1,11.5-8.6,15.1s-7.8,6.1-12.9,7.4c-5.1,1.3-11.2,1.9-18.3,1.8
		l-22.1-0.4c-2.8,0-5.5,0-8.2-0.1c-2.6-0.1-5-0.1-7-0.1s-4.3-0.1-6.7-0.2L471.2,162.2z M507.6,237.4c1.8-0.2,3.6-0.5,5.6-0.7
		s3.9-0.9,5.9-1.9c1.9-1.1,3.7-2.7,5.2-4.9s2.7-5.4,3.5-9.6c-0.1-2.6-0.1-5.2-0.1-7.8c0.1-2.6-0.2-5.2-0.9-7.6
		c-0.6-2.5-1.8-4.7-3.5-6.8s-4.4-4-8-5.6c-0.1,0-1,0-2.6-0.1c-1.6-0.1-3.4-0.1-5.4-0.3c-2.3-0.1-5-0.2-7.9-0.4l-1.9,45.2
		c2,0,3.7,0.1,5.1,0.2c1.3,0.1,2.4,0.2,3.4,0.3C507,237.4,507.5,237.4,507.6,237.4z"/>
	<path class="st0" d="M651.9,272.7l-79.2,0.7l4-106.8l73.6-0.5c-0.4,5.7-0.6,10.9-0.9,15.4c-0.1,2-0.2,3.9-0.3,5.7s-0.1,3.4-0.2,4.9
		c-0.1,1.5-0.1,3-0.1,4.6l-36.5,0.2v9.6l27.2-0.4l-2.5,26.3l-25.9,0.9l-0.5,8.4c7.5-0.1,14.2-0.2,20.2-0.4c2.6,0,5.1,0,7.4-0.1
		c2.4-0.1,4.6-0.1,6.5-0.2c1.9-0.1,4.1-0.1,6.6-0.1L651.9,272.7z"/>
</g>
<polygon class="st1" points="54.6,103.8 56.6,116.8 70.6,118.4 76.6,115.8 77.6,106.8 "/>
<polygon class="st1" points="102.6,108.4 110.6,131.8 121.1,135.3 136.6,132.8 141.6,107.8 "/>
<path class="st0" d="M216.6,130.8c10-12,7-42,7-42c-12-21,0-19,0-19l-11-10l-6-11l-7,1c-9-18-45-20-45-20l-10-10l-3,7
	c-14-21-35-7-35-7l-12-10v13c0,0-11,1-11,4s10,7,4,12s-10-3-10-3c-41-57-32,88-32,88l11-7l1-15c4,6,20,5,20,5l11-1c4,34,37,47,37,47
	c23-1,25,7,25,7c11,19-2,20-2,20c-17-3-23,11-23,11c-7,31-48,23-48,23c-1,7,26,24,26,24c25.4,20.7,24.4,43.3,21,55.9
	c0,0,27.3,0.1,27.3,0.1c10.5-59.1,28.7-55,28.7-55C255.6,180.8,216.6,130.8,216.6,130.8z M123.6,134.8c-20-1-23-27-23-27
	c27,8,41,0,41,0S143.6,135.8,123.6,134.8z"/>
<path class="st0" d="M48.6,126.8c0,0,18.9-26.3,28,4c1.3,4.4-6.6,8.7-13,7C55.6,135.7,48.6,126.8,48.6,126.8z"/>
<path class="st0" d="M53.6,203.8c0,0,5,28,0,40s-3,37,6,42s19,1,20-4s-1-32-9-41s0-30,0-30L53.6,203.8z"/>
<path class="st1" d="M5.6,209.8c0,0-14-56,43-79l15,7l11.3-2.5l0.7-15.5l13-14c0,0-3.1,29,31,44c0,0,39.1,5.8,33.6,28.4
	c0,0-23.5,0.6-25.5,6.6c-2,6-11,26-25,30s-43-11-43-11s-28-8-33-4s-14.8,3.5-18,13C6.6,218.8,5.6,209.8,5.6,209.8z"/>
<g>
	<g>
		<path class="st1" d="M192.1,55.3c3.8,3.8,8.2,8.3,10.1,13.5c1.9,5.3,2.3,12.3,2.7,17.9c0.5,6.5,1,13.7,0.4,20.3
			c-0.2,2.1-0.4,4.6-0.7,6.8c-0.2,1.4-0.9,2.6-1.3,3.9c-0.2,0.7-1.6,5.4-0.8,3c1.4-1.8,2.8-3.6,4.1-5.4c-0.2,0.1-0.4,0.2-0.6,0.3
			c-10.3,5.3-1.2,20.8,9.1,15.5c2.4-1.2,3.9-3.2,4.7-5.7c0.4-1,0.6-2,0.6-3.1c-0.2,1.4-0.1,1.1,0.4-0.7c1.5-3.6,1.3-7.2,1.7-11
			c0.8-8,1-16.6,0.2-24.8c-0.8-7.9-1.4-17.6-4.5-24.9c-3.1-7.1-8.1-13.1-13.5-18.5C196.7,34.3,184,47.1,192.1,55.3L192.1,55.3z"/>
	</g>
</g>
<g>
	<g>
		<path class="st1" d="M200.3,132.6c0,5.7,2.8,9.6,5.2,14.6c1.9,4.1,3.8,9.6,4,14.1c0.2,4.9,1.2,10,0.5,14.9
			c-0.6,4.5-2.6,8.3-3.7,12.7c5.5-0.7,11-1.4,16.4-2.1c-0.1-0.2-0.3-0.5-0.4-0.7c-5.5-10.2-21-1.1-15.5,9.1c0.1,0.2,0.3,0.5,0.4,0.7
			c3.6,6.7,14.7,5.3,16.4-2.1c1.1-4.6,3-8.7,3.8-13.4c1-5.9,0.4-11.8,0-17.7c-0.4-5.9-1.7-10.9-3.3-16.6c-0.8-2.7-1.9-5.4-3.1-7.9
			c-0.6-1.3-1.3-2.8-2.2-3.9c-0.2-0.4-0.4-0.8-0.6-1.1c0.1,1.4,0.1,1.2,0.1-0.5C218.2,121,200.2,121,200.3,132.6L200.3,132.6z"/>
	</g>
</g>
<g>
	<g>
		<path class="st1" d="M117.7,77.7c3.8-0.1,6,3.1,7.9,6.4c2.1,3.6,2,7.5,4.8,10.9c5,5.9,13.4-2.6,8.5-8.5c0.4,0.5-0.5-1.9-0.6-2.5
			c-0.4-1.4-0.8-2.7-1.3-4c-1-2.4-2.8-4.2-4.1-6.4c-3.1-5.1-9.3-7.9-15.2-7.9C110,65.8,109.9,77.8,117.7,77.7L117.7,77.7z"/>
	</g>
</g>
<g>
	<g>
		<path class="st1" d="M116,32.3c1-2.9,5.2-2.6,7.4-1.9c3.9,1.4,5.5,3.9,8.2,6.9c2.7,2.9,4.7,5.8,6.4,9.4c1.6,3.4,4.4,6.3,5.4,10
			c2,7.4,13.6,4.3,11.6-3.2c-0.8-3.1-2.6-6.5-4.3-9.1c-1.5-2.4-2.6-5-4.1-7.4c-3-4.9-7.5-10.3-11.7-14.1c-9.1-8.3-26.3-6.4-30.3,6.2
			C102,36.5,113.6,39.7,116,32.3L116,32.3z"/>
	</g>
</g>
<g>
	<g>
		<path class="st1" d="M141.7,31.9c4.8,4.5,7.4,12.3,9.8,18.3c1.2,3,4,5.1,7.4,4.2c2.9-0.8,5.4-4.4,4.2-7.4
			c-3.2-8.1-6.5-17.5-12.9-23.6C144.5,18.1,136,26.6,141.7,31.9L141.7,31.9z"/>
	</g>
</g>
<g>
	<g>
		<path class="st1" d="M78.8,33.9c0-4.4-3.1-8-7.1-9.4c-0.2-0.1-1.9-0.7-1-0.3c-0.7-0.3-1.4-0.7-2.1-1.1c-2.1-1-4-1.3-6.3-1.2
			c-3.2,0.1-6,2.7-6,6c0,3.2,2.7,6.1,6,6c0.7,0,1.6,0.1,0.6-0.3c1.1,0.4,2,1.1,3.1,1.5c0.5,0.2,1,0.4,1.5,0.6
			c0.4,0.1,0.7,0.4,0.6,0.1c-0.1-0.2-0.7-0.4-0.8-0.7c-0.3-0.4-0.4-0.8-0.4-1.3c0,3.2,2.8,6,6,6C76.1,39.9,78.8,37.2,78.8,33.9
			L78.8,33.9z"/>
	</g>
</g>
<path class="st0" d="M120.9,293.7c0.9-4.4,1.5-10.4,0.8-18.1c-1.9-19.6-12.3-29.9-27.4-39.4c-16.4-10.2-18.1-13.8-20.5-20.9
	c-0.5-1.6-0.7-1.7-4.2-3.1c-3.1-1.2-7.7-3.1-14.6-7.6c-2.1-0.1-7.3-0.5-18.3-2c-13.2-1.8-17.2,2.2-26.8,13.8c-0.8,1-2,1.4-3.3,1.2
	c-1.2-0.2-2.2-1-2.7-2.2c-0.2-0.6-5.8-15.3-3.3-33.5c4-29.3,25.5-44.9,43.8-53c-3.3-5.3-9.2-22.7-2.7-78.2c0-0.1,0-0.1,0-0.2
	c0.9-5.2,5.9-31.5,18.4-34c6.1-1.2,12,3,18,12.7c1,1.6,0.5,3.8-1.1,4.8s-3.8,0.5-4.8-1.1c-4.1-6.6-8-10.1-10.7-9.5
	c-5.8,1.1-11.1,17.4-12.9,28.2c-4.5,38.2-2.9,59-0.5,68.3c3.6-5.5,8-7.3,11.5-7.7c7.7-1,15.4,4,17.4,7c1.4,2.1,4.8,9.3,2.4,15.3
	c-0.9,2.2-2.9,5-7.6,6.1c-10.9,2.4-15.1-1.8-19.2-5.9c-0.7-0.7-1.4-1.1-1.8-1h-0.2c-0.3,0.3-0.7,0.6-1.1,0.8
	c-24.8,10.2-38.9,26.5-42,48.2c-1.4,9.9-0.1,18.8,1.2,24.3c7.9-8.9,14.5-13.2,28.9-11.3c14.4,1.9,18.5,2,18.6,2
	c0.7,0,1.4,0.2,1.9,0.6c6.7,4.5,11,6.2,14.1,7.4c3.7,1.5,6.7,2.7,8.3,7.4c1.8,5.4,2.6,7.8,17.5,17.1c14.6,9.1,28.4,20.8,30.6,44.6
	c0.4,3.8,0.4,7.3,0.3,10.4c0,0.2,21.6,0.6,21.7,0.4c5.8-38,24.7-49,27.7-50.5c3.4-2.5,46.3-34.5,46.3-69c0-35.4-27.8-49.7-28.1-49.9
	c-1.7-0.9-2.4-3-1.6-4.7c0.9-1.7,3-2.4,4.7-1.6c1.3,0.7,31.9,16.4,31.9,56.1c0,39.4-47.5,73.4-49.5,74.9c-0.2,0.1-0.4,0.2-0.6,0.3
	c-0.2,0.1-18.4,9-24,45.3c-0.4,2.4-1.1,7.3-1.1,7.3S121,293.7,120.9,293.7z M180.1,238.3L180.1,238.3L180.1,238.3z M52.4,126.9
	c1.7,0.3,3.4,1.2,5.2,3c3.8,3.8,5.6,5.6,12.8,4.1c1.8-0.4,2.3-1.2,2.6-1.8c1-2.5-0.6-7.1-1.7-8.8c-0.8-1-6.1-4.7-10.9-3.9
	C57,119.9,54.3,122.4,52.4,126.9z"/>
<path class="st0" d="M92.1,52.8c-0.4,0-0.9-0.1-1.3-0.3C89.5,52,78,47.1,73.7,42.7c-0.8-0.8-2.9-2.9-1.7-5.4
	c1.2-2.5,3.9-2.3,5.8-2.1c1.8,0.2,4.4,0.4,6.8-0.3c-0.2-1.5-1-3.8-3.2-6.5c-3.5-4.2-1.2-6.8-0.5-7.5c2.2-2,6.7-1.5,10.5-0.3
	c-0.2-4.1-0.7-7.6-1.3-8.5c-1.5-2.3-0.4-4.2,0.5-5C93,5,95.4,6.9,97.5,8.5c1.2,1,2.9,2.3,4.9,4c3.5,2.9,6.9,5.9,6.9,5.9
	c1.5,1.3,1.6,3.5,0.3,4.9c-1.3,1.5-3.5,1.6-4.9,0.3c-2.1-1.8-4.4-3.8-6.5-5.6c0.3,3.1,0.3,6.1,0.3,7.9v8.4l-5.9-5.9
	c-0.6-0.4-2-1-3.6-1.4c3.2,5.6,2.5,10,2.4,10.6l-0.3,1.6L89.7,40c-1.6,0.9-3.2,1.4-4.8,1.7c2.9,1.6,6.1,3,8.4,4
	c1.8,0.7,2.6,2.8,1.9,4.6C94.8,52,93.5,52.8,92.1,52.8z M92.6,28.8L92.6,28.8L92.6,28.8z"/>
<path class="st0" d="M159.1,66.8c-1.3,0-2.5-0.7-3.1-1.9c-2.2-4.3-4.3-8.5-6.3-12.5c-9.4-19.2-16.8-34.3-29.4-33.6
	c-14.5,0.8-14.7,18.7-14.7,19.5c0,1.9-1.6,3.5-3.5,3.5s-3.5-1.6-3.5-3.5c0-8.8,4.5-25.6,21.3-26.5c17.3-1,26,16.9,36.1,37.5
	c2,4,4,8.2,6.2,12.4c0.9,1.7,0.2,3.8-1.5,4.7C160.2,66.7,159.6,66.8,159.1,66.8z"/>
<path class="st0" d="M200.1,53.8c-1.2,0-2.3-0.6-3-1.7c-11.4-18.5-27.2-18.2-36.6-18c-3.3,0.1-5.6,0.1-7.5-0.5
	c-4-1.3-6.1-6.1-7.5-10.7c-3.2,2.9-7,4.1-7.2,4.2l-2,0.6l-1.5-1.4c-4.2-4-8.2-8.4-10.8-11.4c-0.2,0.8-0.4,1.3-0.6,1.7
	c-0.7,1.8-2.7,2.7-4.5,2s-2.7-2.7-2.1-4.5c0.9-2.4,1.2-5,1.1-6.4c-2.2-2.9-2-3.4-1.7-4.7l0.5-2l2-0.6c2-0.6,3.4,0.8,3.9,1.3
	c0.7,0.7,1.2,1.6,1.6,2.5c2.6,3.3,8.1,9.7,13.8,15.3c1.8-0.9,4.3-2.6,4.7-4.9c0.5-3.3,2.3-4,3.7-4.1c3.2-0.1,3.8,2.6,4.6,6
	c2,8,3.4,10,4.2,10.4c0.8,0.2,3.1,0.2,5.2,0.2c10.2-0.2,29.2-0.6,42.7,21.3c1,1.6,0.5,3.8-1.1,4.8C201.4,53.6,200.7,53.8,200.1,53.8
	z"/>
<path class="st0" d="M217.1,78.8c-1.2,0-2.4-0.6-3-1.8c-1-1.7-0.4-3.8,1.3-4.8c1.9-1.1,3.9-1.8,5.8-2.3c-0.5-0.1-1.1-0.3-1.6-0.6
	c-0.8-0.4-2.6-1.3-3.1-5.9c-1.8,0.9-2.8,0.7-3.4,0.6c-1.4-0.2-2.5-1.1-3.1-2.3c-0.5-1.1-0.9-3.1-1.7-8.3c0,0,0,0-0.1,0
	c-1.8,0.6-3.8-0.4-4.4-2.2c-0.6-1.8,0.3-3.7,2-4.3c0.1-0.1,0.8-0.7,0.8-2.8c0-3.7,2.3-4.3,3.3-4.3c3.3-0.2,3.8,3,4.1,4.8
	c0.2,1.1,0.4,2.7,0.7,4.4c0.2,1.7,0.6,4.3,1,6.4c0.7-0.6,1.4-1.2,2-1.8l7-7l-1.1,9.9c-0.3,2.4-0.3,5.2-0.1,6.7c0.1,0,0.1,0,0.2,0
	c2.7,0.5,7.6,1.5,11.5,8.2l4.1,7.1l-8-2c-0.1,0-6.8-1.6-12.4,1.6C218.3,78.7,217.7,78.8,217.1,78.8z M206,47L206,47L206,47z M206,47
	L206,47L206,47z M206,47L206,47L206,47z"/>
<path class="st0" d="M217.1,134c-1,0-2-0.4-2.7-1.3c-1.2-1.5-1-3.7,0.5-4.9c3.5-2.8,5.4-11.6,5.3-24.1c-0.1-10.3-1.5-19.7-1.5-19.8
	c-0.3-1.9,1-3.7,2.9-4s3.7,1,4,2.9c0.6,4.1,5.9,40.8-6.3,50.5C218.6,133.8,217.8,134,217.1,134z"/>
<path class="st0" d="M72.7,123.1c-0.3,0-0.5,0-0.7,0c-1.9-0.2-3.3-1.9-3.1-3.8s1.9-3.3,3.8-3.1c2.6-0.7,7.1-20.4,2.2-38.6
	c-1.2-4.5-3.5-9.4-5.9-8.8c-4.4,1.2-7.7,10-8.8,24.2c-1,12-0.2,23.7-0.2,23.8c0.1,1.9-1.3,3.6-3.2,3.7c-1.9,0.1-3.6-1.3-3.7-3.2
	c0-0.5-0.9-12.3,0.2-24.8c1.5-18.3,6.1-28.3,14-30.4c2.1-0.6,6.3-0.8,10,3.8c8.2,10.5,8.9,41.5,2.9,52.3
	C77.7,122.3,74.6,123.1,72.7,123.1z"/>
<path class="st0" d="M70.3,111.3c-9.8,0-14.7-2.9-15-3c-1.7-1-2.2-3.1-1.2-4.8c1-1.6,3.1-2.2,4.8-1.2c0.2,0.1,6.8,3.6,20.3,1.3
	c1.9-0.3,3.7,0.9,4,2.8s-0.9,3.7-2.8,4C76.6,111.1,73.2,111.3,70.3,111.3z"/>
<ellipse class="st0" cx="67.1" cy="111.6" rx="3.5" ry="5.2"/>
<ellipse class="st0" cx="113.1" cy="122" rx="4.5" ry="10.8"/>
<path class="st0" d="M125,138.8c-0.3,0-0.7,0-1,0C108.1,138,98.3,125,97.2,103c-0.1-1.5-1.6-23.7,8.4-35.1c3.7-4.2,8.4-6.4,14-6.6
	c5.5-0.2,10.3,1.5,14.2,5.3c10.8,10.5,11,33.1,11,35.5c0.2,2.2,1.5,22.2-7.6,31.6C133.8,137.1,129.7,138.8,125,138.8z M120.4,68.3
	c-0.2,0-0.4,0-0.7,0c-3.7,0.2-6.6,1.6-9,4.3c-8.2,9.3-6.7,29.7-6.6,29.9v0.1c1.2,23.4,11.7,28.8,20.2,29.2c3.2,0.2,5.7-0.8,7.7-2.8
	c6-6.2,6.1-21.1,5.7-26.4v-0.2v-0.2c0-0.2,0.2-21.9-8.8-30.6C126.4,69.4,123.7,68.3,120.4,68.3z"/>
<path class="st0" d="M116.3,114.9c-12.7,0-18.3-8.1-19.5-12.6l6.7-1.9c0,0,0.7,2.1,2.7,4.1c2.7,2.6,6.7,3.7,11.7,3.4
	c3.6-0.2,6.8-0.3,9.5-0.4c9.7-0.2,10.2-0.7,10.4-2.6l6.9,0.9c-1,8.4-8.2,8.5-17.2,8.7c-2.7,0.1-5.7,0.1-9.2,0.4
	C117.6,114.8,116.9,114.9,116.3,114.9z"/>
<path class="st0" d="M56.8,204.7l-1.3-6.9c25.7-4.9,35.1-13,42-18.9c2.8-2.4,5.3-4.6,8.3-5.9c8.9-4,14.8-2,16.6-1.1
	c20.7,5,27,4.1,28.6,3.6c0.5-2.3,1.6-10-5.9-15.4c-3.4-2.5-6.2-2.5-10.1-2.6c-7-0.2-15.7-0.5-30.2-13.6
	c-7.3-6.6-15.9-17.5-18.9-33.4c-2.3,2.9-4.6,5.6-5.7,6.9l-5.2-4.6c4.3-4.9,9.3-11.4,9.7-13.3c0.8-3.2,3.4-3.1,3.9-3.1
	c3.1,0.3,3.2,3.4,3.2,4.4c0.7,18.8,10,31,17.6,37.9c12.5,11.4,19.5,11.6,25.7,11.8c4.4,0.1,8.9,0.3,14,4c10.2,7.4,9.9,18.6,8.3,23.7
	c-0.2,0.8-0.6,1.8-1.8,2.8c-2.7,2.1-9.2,4.1-35.4-2.2l-0.6-0.1l-0.4-0.3c-0.1,0-3.8-1.9-10.8,1.2c-2,0.9-4,2.6-6.5,4.8
	C94.9,190.4,84.3,199.5,56.8,204.7z"/>
<path class="st0" d="M100.1,217.8c-17.2,0-23.5-2-24.1-2.2l2.2-6.6c0.1,0,5.9,1.8,21.9,1.8c11.2,0,20.2-16.5,22.8-22.8l0.1-0.2
	c0.5-1,4.9-9.6,21.5-11.9l1,6.9c-12.2,1.7-15.7,7.2-16.1,7.9C128.2,193.3,117.7,217.8,100.1,217.8z"/>
<path class="st0" d="M70,294c-0.9,0-1.7-0.1-2.6-0.3c-11.6-2.5-13.7-7.2-15.5-14.1c-0.5-1.9-1-3.8-1.9-5.9c-4.2-9.4,0.7-28.3,1.7-32
	c0.9-28.5-2.2-39.3-2.3-39.4l6.7-2.1c0.1,0.5,3.6,11.9,2.6,42.2v0.4l-0.1,0.4c-1.6,5.5-5,21.2-2.2,27.6c1.1,2.6,1.8,4.9,2.3,6.9
	c1.4,5.2,2,7.3,10.2,9.1c1.5,0.3,3.4,0.3,5.4-2.8c4.5-7.2,4-23.5-0.8-29.6c-8.6-10.7-7.5-42.5-7.3-46.1l7,0.3
	c-0.4,9-0.1,34.1,5.8,41.4c6.6,8.3,7.3,27.9,1.3,37.6C77.6,291.8,74.1,294,70,294z"/>
<path class="st0" d="M107.1,164.8c-13.5,0-24.5-16.6-24.5-37c0-0.6,0-1.1,0-1.7h3c0.4,18.7,10.7,34,23.8,35.6l11.2,1.4l-11.2,1.6
	C108.7,164.7,107.9,164.8,107.1,164.8z"/>
<g>
	
		<ellipse transform="matrix(0.9804 -0.1969 0.1969 0.9804 -31.0534 28.6087)" class="st1" cx="128.3" cy="170.5" rx="6.9" ry="10.4"/>
	<path class="st0" d="M129.4,182.3c-1.9,0-3.8-0.9-5.5-2.6c-1.9-1.9-3.2-4.6-3.8-7.6c-0.6-3-0.4-6,0.6-8.5c1.1-2.7,3-4.4,5.3-4.8
		c2.3-0.5,4.7,0.4,6.8,2.4c1.9,1.9,3.2,4.6,3.8,7.6s0.4,6-0.6,8.5c-1.1,2.7-3,4.4-5.3,4.8C130.2,182.2,129.8,182.3,129.4,182.3z
		 M127.2,161.7c-0.2,0-0.4,0-0.6,0.1c-1.3,0.3-2.4,1.3-3.1,3c-0.8,1.9-0.9,4.3-0.5,6.7c0.5,2.4,1.6,4.6,3,6c1.3,1.3,2.7,1.9,4,1.6
		s2.4-1.3,3.1-3c0.8-1.9,0.9-4.3,0.5-6.7s-1.6-4.6-3-6C129.5,162.3,128.3,161.7,127.2,161.7z"/>
</g>
<g>
	
		<ellipse transform="matrix(0.9804 -0.1969 0.1969 0.9804 -34.8934 29.9848)" class="st1" cx="133.3" cy="190.5" rx="6.9" ry="10.4"/>
	<path class="st0" d="M134.4,202.3c-1.9,0-3.8-0.9-5.5-2.6c-1.9-1.9-3.2-4.6-3.8-7.6c-0.6-3-0.4-6,0.6-8.5c1.1-2.7,3-4.4,5.3-4.8
		c2.3-0.5,4.7,0.4,6.8,2.4c1.9,1.9,3.2,4.6,3.8,7.6s0.4,6-0.6,8.5c-1.1,2.7-3,4.4-5.3,4.8C135.2,202.2,134.8,202.3,134.4,202.3z
		 M132.2,181.7c-0.2,0-0.4,0-0.6,0.1c-1.3,0.3-2.4,1.3-3.1,3c-0.8,1.9-0.9,4.3-0.5,6.7c0.5,2.4,1.6,4.6,3,6c1.3,1.3,2.7,1.9,4,1.6
		s2.4-1.3,3.1-3c0.8-1.9,0.9-4.3,0.5-6.7s-1.6-4.6-3-6C134.5,182.3,133.3,181.7,132.2,181.7z"/>
</g>
<g>
	
		<ellipse transform="matrix(0.9947 -0.1027 0.1027 0.9947 -21.0007 15.1195)" class="st1" cx="136.3" cy="211.5" rx="6.9" ry="10.4"/>
	<path class="st0" d="M136.8,223.3c-2.1,0-4.2-1.1-5.8-3.1c-1.7-2-2.8-4.8-3.1-7.9c-0.7-6.6,2.5-12.2,7.2-12.7
		c2.4-0.2,4.7,0.8,6.5,3.1c1.7,2,2.8,4.8,3.1,7.9l0,0c0.7,6.6-2.5,12.2-7.2,12.7C137.3,223.3,137.1,223.3,136.8,223.3z M135.7,202.6
		c-0.1,0-0.2,0-0.3,0c-2.9,0.3-5,4.6-4.5,9.4c0.3,2.5,1.1,4.7,2.4,6.3c1.2,1.4,2.5,2.1,3.9,2c2.9-0.3,5-4.6,4.5-9.4
		c-0.3-2.5-1.1-4.7-2.4-6.3C138.2,203.3,136.9,202.6,135.7,202.6z"/>
</g>
<g>
	
		<ellipse transform="matrix(0.9947 -0.1027 0.1027 0.9947 -23.1468 15.4359)" class="st1" cx="138.3" cy="232.5" rx="6.9" ry="10.4"/>
	<path class="st0" d="M138.8,244.3c-2.1,0-4.2-1.1-5.8-3.1c-1.7-2-2.8-4.8-3.1-7.9c-0.7-6.6,2.5-12.2,7.2-12.7
		c2.4-0.2,4.7,0.8,6.5,3.1c1.7,2,2.8,4.8,3.1,7.9l0,0c0.7,6.6-2.5,12.2-7.2,12.7C139.3,244.3,139.1,244.3,138.8,244.3z M137.7,223.6
		c-0.1,0-0.2,0-0.3,0c-2.9,0.3-5,4.6-4.5,9.4c0.3,2.5,1.1,4.7,2.4,6.3c1.2,1.4,2.5,2.1,3.9,2c2.9-0.3,5-4.6,4.5-9.4
		c-0.3-2.5-1.1-4.7-2.4-6.3C140.2,224.3,138.9,223.6,137.7,223.6z"/>
</g>
<g>
	
		<ellipse transform="matrix(0.9947 -0.1027 0.1027 0.9947 -25.2982 15.6496)" class="st1" cx="139.3" cy="253.5" rx="6.9" ry="10.4"/>
	<path class="st0" d="M139.8,265.3c-2.1,0-4.2-1.1-5.8-3.1c-1.7-2-2.8-4.8-3.1-7.9c-0.7-6.6,2.5-12.2,7.2-12.7
		c2.4-0.2,4.7,0.8,6.5,3.1c1.7,2,2.8,4.8,3.1,7.9l0,0c0.7,6.6-2.5,12.2-7.2,12.7C140.3,265.3,140.1,265.3,139.8,265.3z M138.7,244.6
		c-0.1,0-0.2,0-0.3,0c-2.9,0.3-5,4.6-4.5,9.4c0.3,2.5,1.1,4.7,2.4,6.3c1.2,1.4,2.5,2.1,3.9,2c2.9-0.3,5-4.6,4.5-9.4
		c-0.3-2.5-1.1-4.7-2.4-6.3C141.2,245.3,139.9,244.6,138.7,244.6z"/>
</g>
<g>
	
		<ellipse transform="matrix(0.9977 -6.780923e-02 6.780923e-02 0.9977 -18.2882 10.2162)" class="st1" cx="141.3" cy="274.5" rx="6.9" ry="10.4"/>
	<path class="st0" d="M141.6,286.4c-4.5,0-8.3-4.9-8.8-11.3c-0.5-6.6,2.9-12.1,7.6-12.4c4.7-0.3,8.8,4.6,9.2,11.3l0,0
		c0.5,6.6-2.9,12.1-7.6,12.4C141.9,286.3,141.8,286.4,141.6,286.4z M140.9,265.6c-0.1,0-0.1,0-0.2,0c-2.9,0.2-5.1,4.4-4.8,9.2
		c0.3,4.8,3.1,8.7,6,8.5s5.1-4.4,4.8-9.2C146.4,269.4,143.7,265.6,140.9,265.6z"/>
</g>
<g>
	<path class="st1" d="M132.6,293.8c1.1-5.4,4.8-9.2,8.5-8.6c3.1,0.5,5.2,4.2,5.3,8.6L132.6,293.8z"/>
	<path class="st0" d="M131,293.8c0.5-2.9,1.8-5.4,3.5-7.4c2-2.1,4.4-3,6.7-2.6c3.9,0.7,6.5,4.9,6.5,10l-15.2-0.1L131,293.8z
		 M140.2,286.7c-1.2,0-2.4,0.6-3.5,1.8c-1.3,1.3-2.2,3.2-2.7,5.3l10.7,0c-0.1-3.6-1.7-6.6-4-7C140.6,286.7,140.4,286.7,140.2,286.7z
		"/>
</g>
<g>
	<path class="st0" d="M139.1,124.8c0,21.3-12.3,38.5-27.5,38.5c-0.8,0-1.6,0-2.4-0.2c11.7-1.6,20.9-16.8,20.9-35.3
		c0-19.6-10.3-35.5-23-35.5c-12.3,0-22.4,15-23,33.8c0-0.4,0-0.9,0-1.3c0-21.3,12.3-38.5,27.5-38.5S139.1,103.5,139.1,124.8z"/>
	<path class="st0" d="M111.6,164.8c0,0-0.9,0.1-2.9,0.1c-6.2,0-11.1-5.1-11.1-5.1l11.4,1.9c11-1.5,19.6-16.4,19.6-33.9
		c0-18.7-9.6-34-21.5-34c-11.5,0-20.9,14.2-21.5,32.4h-3c0-0.5,0-0.9,0-1.4c0-22.1,13-40,29-40s29,17.9,29,40
		S127.6,164.8,111.6,164.8z M107.1,90.8c13.5,0,24.5,16.6,24.5,37c0,14-5.1,26.3-12.7,32.5c10.8-4.5,18.7-18.7,18.7-35.5
		c0-20.4-11.7-37-26-37c-5.2,0-10.1,2.2-14.1,5.9C100.4,91.8,103.7,90.8,107.1,90.8z"/>
</g>
</svg>
