<?xml version="1.0" encoding="utf-8"?>
<!-- Generator: Adobe Illustrator 23.0.0, SVG Export Plug-In . SVG Version: 6.00 Build 0)  -->
<svg version="1.1" id="llama" xmlns="http://www.w3.org/2000/svg" xmlns:xlink="http://www.w3.org/1999/xlink" x="0px" y="0px"
	 viewBox="0 0 296 902" style="enable-background:new 0 0 296 902;" xml:space="preserve">
<g id="llama-full">
	<path class="st0" d="M85,239c0,0,0,0,0,8c0,12.7,0.6,29.3,0.6,29.3l-1.7,22.6L89,304l-2.6,7.7l-4.5,3.9l7,11.4
		c0,0-6.3,12.3-5.9,20.2c0.9,17.8-8.7,18.7-8.7,18.7s4.4,76,22,99.6L92,470l4,27l4,30l-4,29l5.4,18.8v20.1L53,623
		c0,0-16.2,15.9-4.6,27.5c0,0,1.7,6.8-0.8,11.2c0,0,2.4,8.4,5.4,12.4s-2.7,7.8-2.4,16.4c0.4,8.6-0.6,13.1,3.9,17.9l-3.6,18.4
		l4.5,13.7V759c0,0,3.5,10.4,10,13.7c0.6,0.3-3.1,9.8-3.1,9.8l1.1,10L68,802c0,0-9,20,7,29l11,8h16l5-5l4.2,2.3l5.8-0.3
		c0,0,12.4,3.5,11.2-10.3L128,813l4.1-4l-2-5.6c0,0-4-3.6-3.1-17c0.9-13.4,6.1-16.5,6.1-16.5L130,760c0,0,6-19-2-26c0,0,8-10,1-43
		c0,0,18,13,41,0c0,0,5,10-1.5,16.5c0,0,1.4,14.5,7.4,17.5v14l-2.2,12.3l3.9,6.1c0,0-1.6,6.6,5.4,11.6c0,0,3.2,3.2,1.6,12.1
		c-1.6,8.9,5,10,9.2,14c4.2,4-0.8,15.3-0.8,15.3l3.6,3.6l2.5,7.5c0,0,1.1,4.7,5,5.6c3.9,0.9,4.5,5.6,4.5,5.6s-3.6,5.4,13.4,3.3
		c0,0,11,9.9,24,0.9c0,0,15-3,6-13c0,0,7-5,4-20c0,0,15-13,2-25c0,0,13.4-16.5,2.2-29.7c0,0,7.1-7.9-5.6-22.6c0,0,2-13.6,6.7-22.6
		c0,0,1.7-6.1-8.3-9.1c0,0,6.7-11.2,8.3-14.1C263,678,259,674,255,668c0,0,11.3-21.6,4.7-32.3c0,0,10.6-17.9,2-33.8L188,472
		c0,0,52-102,3.6-113.7l-2.2-7.3c0,0,0.8-14.2-5.3-18.1l6.1-11.4l-1.4-11.4l1.7-10.6l1.1-21.2L192,262c0,0,6-10-2-15l3-23l-2-22
		l-3-10c0,0-11,17-29,19s-6.2,1.1-6.2,1.1l-12.6-1.4c0,0-4-3.8-8.1-4.7l-14,5l-7.5,0.3L84,210L85,239z"/>
	<path class="st1" d="M61,853l4.9-5.9L76,844l3.8-8.4L86,839l13.2-1.2l6.8-1.8l8.1,1.6l7.8-0.9c0,0,8.1,43.3-8.9,48.3
		c0,0-7-21-20-24s-23,8-23,8l-3.7-8.9L61,853z"/>
	<path class="st1" d="M189,853l4.9-5.9L204,844l3.8-8.4L219,837l8,3l7,2l8-3l7.9-2.3c0,0,8.1,43.3-8.9,48.3c0,0-7-21-20-24
		s-23,8-23,8l-3.7-8.9L189,853z"/>
	<path class="st2" d="M95.7,392.7c0.2,4,1.3,8.2,1.3,12.2c0,4.4-1,3.8-4.9,4.6c-10.6,2.2-12.9,12.5-11.9,22c0.5,4.8,1.9,8.7,4.2,13
		c1.9,3.4,2.2,7.5,3.8,11.1c3.3,7.2,3.5,16.4,3.3,24.4c-0.1,4.1,1.1,8.3,0.6,12.4c-0.5,4.5-1.8,8.8-2.1,13.3
		c-0.3,4.1,0.2,8,0.7,12.1c0.5,4.3,1.7,8.9,1.5,13.2c-0.2,3.9-1.4,7.7-1.7,11.7c-0.3,4.3,0.3,8.4,0.5,12.7c0.2,4.1,0.6,8.1,0.6,12.3
		c0,2-0.1,4.1,0,6.1c0.2,3,1.8,5,2.3,7.7c0.3,2.1-0.5,4.9-0.7,7c-0.2,2.1-0.4,4-0.5,6c-0.1,2.3-0.8,4.6-0.7,7c0,2.4,0.7,4.7,0.8,7.2
		c0.2,4.4,0.2,8.7,0.5,13.1c0.2,4,0.8,11.5-1,14.3c1.1-1.1,2.2-2.2,3.2-3.2c2.1-0.5,2.5-0.6,1.2-0.6c-1-0.2-2-0.4-3-0.6
		c-2-0.4-3.7-0.8-5.6-1.4c-4.2-1.2-8.5-1.3-12.8-1.8c-1.7-0.2-3.5-0.3-5.2-0.6c-0.7-0.1-5-1.8-2.2-0.6c-1.3-0.6-2.6-1.2-3.8-1.8
		c-0.5-0.2-4.1-2.5-1.8-0.7c-3.8-3-9-3.7-12.7,0c-3.1,3.1-3.8,9.7,0,12.7c6.5,5.1,14.4,7.7,22.5,8.7c4.6,0.5,8.9,0.9,13.3,2.2
		c4.7,1.3,10.9,2.6,15.7,1.5c11.4-2.6,10.8-19.2,10.3-28.2c-0.2-4.2-0.6-8.1-0.5-12.3c0.1-2.6-0.4-5-0.6-7.5
		c-0.2-2.2,0.5-4.4,0.6-6.7c0.2-4.3,0.9-8.6,1-12.9c0.1-3-0.7-5.4-1.6-8.2c-0.7-2.3-0.6-4.6-0.6-7.2c0.1-8.7-2.7-18-0.8-26.6
		c1-4.3,1.7-8.3,1.3-12.7c-0.4-5.1-1.9-10.2-2.3-15.4c-0.2-4.1,0.1-8.5,1-12.5c1.4-6,0.9-10.9,0.5-16.8c-0.3-5.4,0.2-10.5-0.6-15.9
		c-0.8-5.8-1-12.8-3.8-18.1c-2.1-4-2.4-8.6-4.8-12.6c-2.4-4-3.3-8.3-1.7-12.9c-0.8,1.3-1.5,2.6-2.3,4c-1.1,0.2-1.2,0.1-0.4,0
		c1.3-0.1,2.5-0.3,3.8-0.6c1.7-0.4,3.4-1.1,4.9-1.9c3.9-2,6.7-5.4,8.3-9.4c3-7.6,1.1-14.5,0.7-22.4C113,381.2,95,381.1,95.7,392.7
		L95.7,392.7z"/>
	<path class="st2" d="M86.9,243.7c5.7,6.2,18.8,7.3,26.5,4.9c2.2-0.7,3.9-2.3,6-3c-1.9,0.6,2.8,0.2,3.7,0.3c3.9,0.1,7.8,0.8,11.6,1
		c1.6,0.1,1.6,0.6,0.2-0.4c1,0.7,1.8,1.5,2.8,2.2c1.8,1.3,3.9,1.9,5.9,2.7c4.5,1.6,8.9,1.8,13.7,1.9c4.9,0.1,9.5-0.8,14.2-1.4
		c0.4-0.1,2-0.1,2.7-0.2c1.8-0.2,3.2-0.7,4.5-0.3c11.1,3.3,15.9-14,4.8-17.4c-1.9-0.6-4-0.8-6-0.8c-1.2,0-2.4,0.2-3.6,0.4
		c-0.3,0-1.6,0.3-0.6,0.1c-3.9,0.5-6.3,0.8-10.6,1.3c-3.7,0.4-8.3,0.7-11.9-0.1c-3.6-0.8-5.5-3.6-9-4.8c-6.9-2.3-16-2.4-23.2-2.1
		c-2.6,0.1-4.9,0.5-7.2,1.7c-1.1,0.5-2.4,1.6-3.4,1.9c-1.7,0.4-4.1,0.1-5.8-0.1c-0.5,0-2-0.2-2.3-0.3c-0.7-0.1-1.1-1-0.2,0
		C91.8,222.5,79.1,235.2,86.9,243.7L86.9,243.7z"/>
	<path d="M50,669.5c-0.6,0-1.3-0.2-1.8-0.7c-4.7-4.7-3.9-10-2.7-12.5c0.6-5.5-1.7-7-1.8-7.1c-0.6-0.2-0.8-0.5-1-1.1
		c-5.2-10.4,6.5-26.9,9.3-30.6l26.4-248.8c0,0,0-0.1,0-0.1c1.8-10.8,2-22.7,2-24.4c-0.7-4.5,2.9-12.2,5.1-16.2
		c-4-2.9-6.8-8.6-6.7-12.6c0.1-2.5,1.4-4.3,3.5-4.9c1.1-0.3,2.4-2.3,3.3-4.4c-0.6-0.3-1.2-0.6-1.7-1.1c-5.3-5-3-21.2-2.5-24.4
		c0-0.1,0-0.1,0-0.2c1.8-7,0.1-11.4,0.1-11.5c-0.1-0.3-0.2-0.6-0.2-0.9c0-8.8,1.6-14.9,2.3-17.3c-1.2-2.5-3.4-9.1-1.8-20.6
		c1-7,0.3-9.5,0-10.2c-0.9-0.2-1.7-0.8-2-1.7c-1-3.3-1.4-9.4,3.4-11.4c1.3-0.5,2.7,0.1,3.3,1.3c0.5,1.3-0.1,2.7-1.3,3.3
		c-1.1,0.5-1.1,2.5-0.8,4.1c0.2,0.1,0.5,0.3,0.7,0.5c2.3,2.1,2.8,6.8,1.7,14.8c-1.8,12.7,1.6,18.2,1.6,18.3c0.4,0.7,0.5,1.5,0.2,2.3
		c0,0.1-2.3,6.1-2.3,16.2c0.5,1.6,1.7,6.7,0,13.9c-1.3,8-1.2,17.8,1,19.9c0.2,0.1,0.4,0.3,1,0.2c0.8-0.2,1.7,0.1,2.3,0.7
		s0.8,1.5,0.6,2.4c-0.4,1.5-2.5,9.2-7.5,10.7c-0.1,0.5,0,1.8,0.8,3.6c1.2,2.8,3.2,5.1,5.1,5.7c0.7,0.2,1.3,0.8,1.5,1.5
		c0.3,0.7,0.2,1.5-0.2,2.1c-2.7,4.6-6.3,12.4-5.7,15.3c0,0.2,0,0.3,0,0.5c0,0.5,0,13.3-2,25.3L57,618.8c0,0.5-0.2,0.9-0.5,1.3
		c-3.7,4.7-12.3,18.1-9.5,25.3c1.6,1.2,4.4,4.5,3.5,12c0,0.3-0.2,0.7-0.3,1c-0.2,0.3-1.8,3.5,1.6,6.9c1,1,1,2.6,0,3.5
		C51.3,669.3,50.6,669.5,50,669.5z M83.1,219.9C83.1,219.9,83.1,219.9,83.1,219.9C83.1,219.9,83.1,219.9,83.1,219.9z"/>
	<path class="st2" d="M49.1,688.9c-2.9,7,0.7,16,2.2,22.9c1.4,6.4-2.5,12.5-1.9,19.1c0.3,3.1,1.6,5.8,2.1,8.9
		c0.7,3.9,0.9,7.7,1.8,11.6c0.9,3.9,1.2,8.1,2.5,11.8c1.4,4.1,5.2,7.4,7,9.6c-0.8-1.3-1.5-2.6-2.3-4c0.7,2.3,0,6.6-0.1,9.4
		c-0.1,3.4,0.3,6.7,0.7,10.1c0.4,3.3,1.2,7.1,3,10c0.5,0.6,0.9,1.2,1.4,1.8c-0.8-3-1.2-3.5-1.1-1.3c-0.3,1.5-0.2,3.3-0.2,4.9
		c0.2,6.1,0.3,14.6,3.3,20c3.2,5.7,10.3,12.6,16.7,14.2c11.2,2.8,16-14.6,4.8-17.4c2.8,0.7-0.8-0.7-1.7-1.4c-1.1-0.9-2.3-1.9-3.2-3
		c-1.2-1.4-1-2.6-1.3-5.3c-0.3-3.2-0.7-6.3-0.6-9.5c0.1-2.8,0.4-5.6-0.4-8.4c-0.6-1.8-1.7-3.4-2.9-4.8c1.8,2,0.4,0.9,0.1-0.9
		c-0.5-2.2-0.7-4.9-0.8-7.3c-0.1-6.5,1.8-14.9-3.1-20.1c-0.7-0.7-2.7-2.3-2.7-2.2c0.2,0.4-0.2-2.1-0.3-2.7
		c-0.7-3.5-1.6-7.1-2.1-10.7c-0.5-3.2-0.6-6.1-1.3-9.3c-0.5-2.4-1.7-4.5-1.6-6.8c0.1-2.3,1.4-4.6,1.8-6.9c0.7-3.4,0.6-6.9,0.3-10.3
		c-0.4-3.3-1.9-6.2-2.5-9.4c-0.3-1.9-1.1-6.2-0.4-7.8c1.9-4.5-2-9.9-6.3-11.1C55,681.2,51,684.4,49.1,688.9L49.1,688.9z"/>
	<path d="M60.5,771c-0.7,0-1.5-0.3-2-0.9c-8.3-10.4-6.7-21.6-6.5-22.9c0.8-7-1.8-12.6-2.5-14.1c-4.5-4.2-1.1-14.4-0.4-16.4
		c0-0.1,0-0.1,0.1-0.2c2.4-5.4,2.3-7.7,2.2-8.4c-8.6-7.2-3.6-22.7-3.3-23.4c0.4-1.3,1.8-2,3.2-1.6c1.3,0.4,2,1.9,1.6,3.2l0,0
		c-1.2,3.7-3.2,14.2,2.1,18.2c0.1,0.1,0.2,0.1,0.3,0.2c1.2,1.2,2.6,4.6-1.4,13.7c-1.6,4.4-2.2,10-0.8,11.1c0.3,0.2,0.5,0.5,0.7,0.8
		c0.2,0.3,4.4,7.8,3.3,17.5c0,0.1,0,0.1,0,0.2c0,0.1-1.7,10.1,5.5,19c0.9,1.1,0.7,2.7-0.4,3.5C61.6,770.8,61,771,60.5,771z"/>
	<path class="st3" d="M243.4,844.3c1.5,5.4,2.3,12.6,1.1,18.1c-0.5,2.2-1.1,5.2-2.2,7.1c-1.3,2.3-3.4,4.1-4.8,6.3
		c-3,5,4.7,9.5,7.8,4.5c1.8-3,4.4-5.1,5.7-8.4c1.1-2.6,1.9-5.7,2.4-8.5c1.3-6.8,0.4-15-1.4-21.6
		C250.5,836.4,241.9,838.7,243.4,844.3L243.4,844.3z"/>
	<path class="st3" d="M113.7,841.3c0.4,5.7,1.7,11.4,2,17.1c0.2,2.9,0.8,6,0.2,8.9c-0.6,2.8-2.4,5.2-4.3,7.3
		c-3.9,4.3,2.4,10.6,6.4,6.4c4.5-4.9,7.5-10.3,7.2-17.1c-0.3-7.6-2.1-15-2.5-22.5C122.4,835.5,113.4,835.5,113.7,841.3L113.7,841.3z
		"/>
	<path class="st4" d="M81.8,844.9c3.6-0.3,6.8,0.8,10.3,0.8c1.7,0,3.1-0.5,4.7-0.9c1.7-0.4,2.9,0,4.6,0.1c2.9,0.1,5.2-1.5,8-1.5
		c1.6,0,3.2,0.5,4.8,0.4c1.5-0.1,3-1.1,4.4-1.1c5.8-0.2,5.8-9.2,0-9c-1.7,0.1-2.9,0.7-4.5,1.1c-1,0.2-2.7-0.2-4-0.4
		c-3.2-0.5-5.2,1.2-8.1,1.5c-1.6,0.2-3.3-0.4-5-0.2c-1.3,0.2-2.4,0.7-3.7,0.9c-3.7,0.6-7.7-1-11.5-0.7
		C76.1,836.4,76,845.4,81.8,844.9L81.8,844.9z"/>
	<path class="st4" d="M210.5,843.9c1.9,0.1,3.6,0.1,5.5,0c1.7,0,2.1,0.2,3.7,0.9c3.3,1.6,6.5,2.1,10.1,2.5
		c6.4,0.6,13.4,0.3,18.8-3.7c4.6-3.4,0.1-11.2-4.5-7.8c-4.8,3.5-11.7,3.3-17.2,2c-2.8-0.6-4.9-2.7-7.8-3.2c-2.7-0.4-5.7,0.3-8.5,0.2
		C204.7,834.7,204.7,843.7,210.5,843.9L210.5,843.9z"/>
	<path d="M101.5,841c-0.1,0-0.2,0-0.2,0c-0.7-0.1-1.4-0.5-1.8-1.1c-0.8-0.7-5.1-0.7-9,0c-6,3.5-13-2.2-16.6-6.4
		c-17.1-10.2-11.6-26.4-9.3-31.6l-4-4.8c-0.4-0.4-0.6-1-0.6-1.6v-7.7c-2-9.8,3.2-18.2,3.4-18.6c0.7-1.2,2.3-1.5,3.4-0.8
		s1.5,2.3,0.8,3.4c-0.1,0.1-4.4,7.3-2.7,15.1c0,0.2,0.1,0.4,0.1,0.5v7.1l4.4,5.3c0.7,0.8,0.8,1.9,0.2,2.9c0,0-2.5,4.4-2.8,9.9
		c-0.4,7,3,12.6,9.9,16.6c0.3,0.2,0.5,0.4,0.7,0.6c1.7,2.1,7.3,7.7,10.7,5.5c0.3-0.2,0.6-0.3,0.9-0.4c2.8-0.6,8.6-1.4,12.2,0.2
		l3.5-3.5c0.6-0.6,1.3-0.8,2.1-0.7c0.8,0.1,1.5,0.6,1.8,1.2c0.4,0.6,1.6,2.2,3.1,2.5c0.9,0.2,2-0.2,3.1-1.2c0.7-0.6,1.6-0.7,2.5-0.4
		c1.4,0.5,5.7,1.6,7.5-0.1c1.4-1.3,1.4-4.4,0.2-8.8c-1.3-3.1-2-9.7,3.7-13.7c0.4-0.6,1.6-3-2.2-7.5c-0.9-1-0.8-2.6,0.3-3.5
		c1-0.9,2.6-0.8,3.5,0.3c5.9,6.9,3.8,12.4,1.9,14.4c-0.1,0.1-0.2,0.2-0.4,0.3c-4.1,2.7-2.3,7.4-2.1,7.9c0,0.1,0.1,0.2,0.1,0.3
		c1.8,6.6,1.3,11.3-1.7,13.9c-3.4,3.2-8.8,2.2-11.3,1.5c-2.4,1.6-4.6,1.7-6.1,1.4c-1.9-0.4-3.5-1.4-4.6-2.5l-3,3
		C102.8,840.7,102.2,841,101.5,841z"/>
	<path d="M127.5,793c-1.3,0-2.3-0.9-2.5-2.2c0-0.4-1-9.9,4.3-19.5c0.2-0.4,0.3-0.5,0.6-0.7c0.6-0.8,1.1-3.7-2.6-9.8
		c-0.3-0.6-0.4-1.2-0.3-1.9c0-0.1,1.9-7.8,1.9-13.4c0-5.9-1.1-8-3.3-10.2c-0.8-0.8-1-2-0.4-3c0.1-0.1,6.4-11.3,2.8-23
		c-0.4-1.3,0.3-2.7,1.7-3.1c1.3-0.4,2.7,0.3,3.1,1.7c3.4,11.1-0.5,21.4-2.4,25.3c2.5,3.1,3.5,6.6,3.5,12.4c0,5-1.3,11.2-1.8,13.6
		c5.2,9.2,2.6,13.5,1.4,14.9c-4.4,8.1-3.5,16.1-3.5,16.2c0.2,1.4-0.8,2.6-2.2,2.8C127.7,793,127.6,793,127.5,793z M130,770.5
		L130,770.5L130,770.5L130,770.5z M130,770.5L130,770.5L130,770.5z"/>
	<path class="st2" d="M148.4,698.7c3.3-0.5,6.6-0.9,9.8-1.4c1.3-0.2,2.7-0.3,4-0.6c2.4-0.4,6.2-2.2,8.1-1.9c-1.5-0.4-3-0.8-4.5-1.2
		c-2.1-3.6-2.8-4.2-2.1-2c0.1,0.9,0.3,1.7,0.4,2.6c0.2,1.6,0.2,1.8,0.3,3.5c0.2,4.2,1.1,8.3,1.9,12.4c0.7,3.6,0.5,7.4,2.6,10.6
		c1.6,2.5,2.9,3.3,3.5,6.1c1.5,6.6,1.4,13.4,1.7,20.1c0.2,3.8-0.2,8.7,0.8,12.3c0.4,1.6,1.4,3.4,2.5,4.6c0.5,0.5,5.7,3,4.1,2.3
		c-1.1-1.1-2.2-2.2-3.2-3.2c0.1,0.2,0.2,0.4,0.3,0.6c-0.4-1.5-0.8-3-1.2-4.5c0.4,4.9,2.7,8.4,4,12.9c0.9,3.4,1.7,6.9,2.6,10.3
		c1,3.6,2.3,7.1,4.5,10.1c2.6,3.7,6.2,6.9,8.4,10.8c-0.4-1.5-0.8-3-1.2-4.5c0.3,4.2-0.5,8.3-0.2,12.4c0.3,5.8,2.7,10.1,5.1,15.2
		c2.1,4.4,8.4,5.5,12.3,3.2c4.5-2.6,5.3-7.9,3.2-12.3c-1.3-2.8-2.8-4.9-2.7-8.2c0.1-2.5,0.5-6.1,0.3-9.1c-0.4-8-7.3-11.8-10.9-18.3
		c-2.7-4.9-3-11.4-4.7-16.7c-0.6-1.9-1.6-3.4-2.4-5.2c-0.5-1.2-0.6-2.7-1.1-4.1c-0.7-1.7-1.6-3.1-3.1-4.2c-0.5-0.4-5.3-2.6-3.2-1.6
		c1.4,1.8,2.8,3.6,4.1,5.4c-0.4-1-0.2-5.6-0.3-7.3c-0.2-3.4-0.2-6.7-0.5-10c-0.5-5.2-0.6-10.5-1.9-15.7c-0.7-2.7-1.3-5.2-2.9-7.6
		c-0.6-0.8-1.7-2.8-2.6-3.2c-0.8-0.9-0.6-0.5,0.5,1.1c-0.1-0.8-0.2-1.6-0.3-2.4c-0.9-5.9-1.6-11.9-2.5-17.8
		c-0.7-4.8-1.3-9.9-5.5-13.1c-5.2-3.9-10.4-1.6-15.9-0.3c-5.5,1.4-11.3,1.8-16.9,2.6c-4.8,0.7-7.5,6.8-6.3,11.1
		C138.7,697.6,143.6,699.4,148.4,698.7L148.4,698.7z"/>
	<path d="M149.6,700.4c-9.1,0-16.3-4.8-16.4-4.8c-1.1-0.8-1.5-2.3-0.7-3.5c0.8-1.1,2.3-1.5,3.5-0.7c0.1,0.1,3.6,2.3,8.5,3.4
		c6.3,1.4,11.9,0.3,16.6-3.3c1.1-0.8,2.7-0.6,3.5,0.5c0.8,1.1,0.6,2.7-0.5,3.5C159.2,699.2,154.2,700.4,149.6,700.4z"/>
	<path d="M175.5,756c-0.5,0-1-0.2-1.5-0.5c-5.2-3.9-4-7.4-2.2-12.7l0.4-1c1.3-4,0.6-13,0.1-17.5c-3.4-1.7-5.6-4.1-6.4-7.2
		c-1.7-5.9,2.5-11.7,2.7-12c0.8-1.1,2.4-1.4,3.5-0.6c1.1,0.8,1.4,2.4,0.6,3.5c0,0.1-2.9,4.2-1.9,7.7c0.5,1.9,2.2,3.4,4.9,4.5
		c0.8,0.3,1.4,1.1,1.5,2c0.2,1.5,2,14.8-0.1,21.1l-0.4,1.1c-1.8,5.3-1.8,5.5,0.5,7.1c1.1,0.8,1.3,2.4,0.5,3.5
		C177,755.7,176.3,756,175.5,756z"/>
	<path d="M234.9,844.1c-6,0-12-3-15.9-5.8c-4.2,1.3-7.7,1.1-10.4-0.8c-2.8-1.9-3.9-5.1-4.4-7.4c-2.5-0.1-4.2-1.1-5.2-2.1
		c-3.2-3-3.4-8.3-3.2-11.1l-2.5-1.2c-4.8-2.4-3.6-8.8-2.2-12.2c0,0,0-0.1,0.1-0.1c2.6-5.1,0-7.1-0.7-7.6c-9.4-2.9-10.3-9.6-9.5-12.9
		c1.3-7.1,0.8-11,0.4-12.6c-3.6-1.5-5.7-3.7-6.4-6.5c-1.2-4.6,2.2-8.6,2.6-9c0.9-1,2.5-1.1,3.5-0.2c1,0.9,1.1,2.5,0.2,3.5
		c-0.6,0.7-1.9,2.8-1.5,4.5c0.5,1.7,2.7,2.8,4.5,3.5c0.6,0.2,1.1,0.7,1.4,1.2c0.2,0.5,2.3,5.1,0.2,16.6c0,0.1,0,0.2-0.1,0.2
		c-0.1,0.4-0.9,4.7,6.3,6.9c0.1,0,0.3,0.1,0.4,0.2c0.2,0.1,2.2,1.2,3.6,3.5c1.2,2.1,2.1,5.7-0.4,10.8c-0.7,1.7-1.4,5.1-0.2,5.7l4,2
		c1,0.5,1.5,1.5,1.4,2.6c-0.2,1.6-0.4,6.7,1.6,8.6c0.3,0.3,1.1,1.1,3.5,0.6c0.7-0.1,1.5,0,2.1,0.5c0.6,0.5,0.9,1.2,0.9,1.9
		c0,1.2,0.5,4.5,2.5,5.9c1.5,1,3.9,1,7.1-0.3c0.8-0.3,1.8-0.2,2.5,0.4c0.6,0.5,14.2,11.3,22.5,1.3c0.5-0.6,1.2-0.9,1.9-0.9
		c2.1,0,6.8-0.7,7.9-2.8c0.7-1.3,0-3.5-1.9-6.3c-0.8-1.1-0.5-2.7,0.6-3.5c1.1-0.8,2.7-0.5,3.5,0.6c3.1,4.5,3.9,8.3,2.2,11.4
		c-2.3,4.4-8.5,5.3-11.1,5.4C243.2,842.7,239,844.1,234.9,844.1z"/>
	<path d="M256.5,820c-0.4,0-0.8-0.1-1.1-0.3c-1.2-0.6-1.7-2.1-1.1-3.3c0.1-0.2,1.5-4.1-0.2-14.5c-0.2-1,0.3-2.1,1.2-2.6
		c0,0,4.5-2.7,5.2-7.2c0.5-3.3-1.1-7-4.8-10.9c-0.7-0.8-0.9-2-0.3-2.9c5-8.8,7.1-16.7,6-18.5c-0.7-1.2-0.3-2.7,0.9-3.4
		c1.2-0.7,2.7-0.3,3.4,0.9c3.1,5.2-2.3,16.7-5.1,21.9c3.9,4.7,5.5,9.3,4.8,13.7c-0.8,4.9-4.2,8.2-6.2,9.8c1.7,11.3-0.2,15.5-0.5,16
		C258.3,819.5,257.4,820,256.5,820z"/>
	<path d="M256.5,761c-0.5,0-1-0.2-1.5-0.5c-1.1-0.8-1.4-2.4-0.6-3.5c0.5-0.7,11.4-16.2,0.5-24.6c-1.1-0.9-6.1-6.2,2.2-25
		c0.1-0.1,0.1-0.3,0.2-0.4c0.6-0.9,2-3.6,1.2-5.6c-0.8-2-3.5-3-5.7-3.5c-0.9-0.2-1.6-0.9-1.9-1.8c-0.2-0.9-0.9-5.7,7.5-14.2
		c0.4-0.7,1.3-2.5,0.9-4.1c-0.3-1.2-1.3-2.2-3.1-3.1c-1.2-0.6-1.7-2.1-1.1-3.4s2.1-1.7,3.4-1.1c3.1,1.5,5,3.7,5.7,6.4
		c1,4.2-1.5,7.9-1.8,8.3c-0.1,0.1-0.2,0.2-0.3,0.3c-4.1,4.1-5.5,6.9-6,8.4c3.7,1.2,6,3.2,7.1,6c1.7,4.5-0.9,8.9-1.6,10.1
		c-6.5,14.6-3.7,18.8-3.6,18.8c11.8,9.1,5.5,24.5,0.5,31.4C258,760.6,257.3,761,256.5,761z"/>
	<path class="st2" d="M188.9,435.3c-1.4,9.5-2.9,20.3-7.2,28.9c-2.2,4.4-4.1,7.9-4.2,13c0,2.1,0.3,4.2,0.1,6.3
		c-0.2,2.9-1,5.7-0.9,8.7c0.5,8.9,6.2,17.2,4.5,26c-0.9,4.4-0.3,9-0.1,13.5c0.2,4.8-0.9,9.3-1,14c-0.1,4.6-0.2,9.3,0.3,14
		c0.3,2.3,0.9,4.5,1.3,6.7c0.4,2.6-0.6,5.1-0.8,7.7c-0.7,9-1.1,18-1.7,27c-0.6,9.1-1.1,19.8,5.1,27.4c2.9,3.5,6.9,5.9,11.4,7
		c4.7,1.1,8.7,0,13.4-0.3c5.9-0.5,11.8,0.3,17.7-0.7c5.1-0.9,10.5-2.6,15.5-4c8.2-2.4,20.5-7.3,22.5-16.9
		c2.4-11.3-14.9-16.1-17.4-4.8c0.2-0.9,2.1-2.1,0-0.5c-0.5,0.3-0.9,0.8-1.3,1.1c-0.9,0.7-1.9,1.6-3,2.1c-3.3,1.4-7.1,2-10.5,2.8
		c-3.7,0.8-7.1,2.5-10.8,2.9c-4.6,0.5-9.4-0.2-14,0.2c-2.4,0.2-6.2,1.8-8.6,0.6c-2.2-1.1-2.1-4.9-2.4-7.1c-1-7.6,1.3-15.5,1.2-23.1
		c0-7.5,2.3-15.2,1.5-22.8c-0.9-7.7-2.4-15.3-1-23.1c1.3-7.4-0.5-14.9,0.8-22.2c1.7-9.5-3.3-17.2-4.5-26.3
		c-0.6-4.1,0.8-8.2,0.8-12.3c0-1.9-0.4-3.7,0.2-5.5c0.7-2.2,2.3-4.2,3.1-6.4c3.7-9.3,5.7-19.1,7.2-28.9c0.7-4.8-1.2-9.7-6.3-11.1
		C195.7,427.8,189.6,430.4,188.9,435.3L188.9,435.3z"/>
	<path class="st2" d="M177.2,342.3c-2.9,1.6-5.3,3.8-8.1,5.8c-3.1,2.2-6.8,3.9-9.2,7c-4.2,5.4-5.6,11.2-6.1,17.9
		c-1.1,12.7,0,25.4,1.7,38c0.8,6.2,4,11.8,7.5,16.9c4.1,5.8,10.6,7.9,17.3,9c3.4,0.5,6.5-0.2,9.9-0.2c3.8,0,7.4-0.1,11.2-1
		c3.6-0.8,7.3-2.2,10.4-4.2c1.6-1.1,3-2.3,4.2-3.8c0.8-1.1,1.3-2.7,2.2-3.7c7.9-8.5-4.8-21.2-12.7-12.7c-1.4,1.5-2.5,4.1-3.5,5.2
		c-0.9,0.9-3.8,1.6-5.3,1.9c-2.4,0.5-4.8,0.3-7.3,0.3c-1.2,0-2.3,0.1-3.5,0.3c0.1,0-3.7,0.3-2.3,0.4c-1.1-0.1-2.2-0.5-3.2-0.8
		c-0.5-0.1-3.3-1.2-2.5-0.6c0.8,0.6-0.5-1-0.5-1.1c-0.6-1.2-1.7-2.1-2.3-3.3c-1.4-2.9-1.8-6.2-2.2-9.3c-0.6-4.8-1.2-9.7-1.5-14.6
		c-0.3-4.4,0.4-8.9,0.4-13.3c0-2.2,0-5.3,0.8-7.4c0,0.1,2.3-3.5,1.6-2.7c-0.9,0.9,2.6-1.6,2.7-1.6c1-0.6,1.9-1.2,2.9-1.9
		c2.3-1.6,4.2-3.5,6.7-4.8C196.5,352.3,187.4,336.8,177.2,342.3L177.2,342.3z"/>
	<path class="st2" d="M174,235c-0.4,3-0.9,6.1-0.7,9.2c0.2,3.4,1.6,5.8,2.2,9c0.8,3.9,0.6,8.6,0.3,12.6c-1.1,12.4-0.5,25.1-1.4,37.5
		c-0.3,4.9-1.6,10.7-3.1,15.3c-1.8,5.3-4.2,10.7-4.2,16.5c0,2.6,0.7,5.2,1.1,7.8c0.2,1.8,0.1,3.7,0.6,5.5c0.9,4,2.4,7.8,4.9,11
		c3,3.8,9.6,3.1,12.7,0c3.8-3.8,3-8.9,0-12.7c2.1,2.7,0.8,0.5,0.2-1.3c-0.2-0.7-0.4-1.4-0.6-2.2c-0.3-1.2,0,3.2,0.2,0.2
		c0.1-2.3-0.6-4.6-0.9-6.8c-0.3-2.1,0.3-3.9,0.9-6c1.3-4.7,3.2-9.1,4.1-14c1-5.5,2-10.7,2.2-16.3c0.2-5.5,0.6-11.1,0.8-16.7
		c0.2-5.2-0.2-10.5,0.3-15.6c0.4-4.9,0.4-9.6,0.1-14.4c-0.2-4.8-2.9-8.9-2.2-13.8c0.7-4.8-1.2-9.7-6.3-11.1
		C180.9,227.5,174.7,230.1,174,235L174,235z"/>
	<path d="M257.5,665c-0.5,0-1.1-0.2-1.5-0.5c-1.1-0.8-1.3-2.4-0.5-3.5l0,0c0.4-0.5,8.7-11.8,0-24c-0.4-0.6-0.5-1.2-0.4-1.9
		c0.1-0.7,0.5-1.3,1.1-1.6c0.4-0.3,10.4-7.3,6-22.2c0,0,0-0.1,0-0.1l-56.9-234.5c-4-5.7-14.6-20-19.1-23c-1.1-0.8-1.5-2.3-0.7-3.5
		c0.5-0.7,4.5-7.4-2.6-13.7c-0.4-0.4-0.7-0.9-0.8-1.5c0-0.3-1.1-7.3,4.7-13.2c0.2-0.2,0.4-0.3,0.6-0.5l0,0c0,0,1.2-0.7,1.5-2
		c0.3-1.4-0.6-3.2-1.5-4.3c-0.2-0.3-0.4-0.7-0.4-1.1c0-0.3-1-7.3,1.9-13.7c-0.4-2.8-1.5-12,1-20.8c-0.5-3.1-1.8-12.8,0.3-17
		c0,0,4.1-9.3-1.4-14c-0.4-0.3-0.7-0.8-0.8-1.3c-0.1-0.4-2.2-8.9,1.1-17.5c2.6-7-0.9-15-0.9-15.1c-0.1-0.2-0.1-0.3-0.2-0.5
		c-0.5-2.4-2-10.3,0.4-13.9c0.4-0.6-0.9-3.7-2.8-6c-0.9-1.1-0.7-2.6,0.3-3.5c1.1-0.9,2.6-0.7,3.5,0.3c1,1.2,6,7.7,3.2,12
		c-0.8,1.2-0.5,6.1,0.3,9.9c0.7,1.6,4,10.5,0.9,18.6c-2.2,5.9-1.4,11.8-1.1,13.8c7.4,7.2,2.2,18.8,2,19.3c-1.2,2.3-0.6,9.9,0.2,14.6
		c0.1,0.4,0,0.8-0.1,1.1c-2.8,9.3-1,19.7-0.9,19.8c0.1,0.5,0,1.1-0.2,1.6c-2.2,4.3-2,9.4-1.8,11c1.8,2.8,2.5,5.5,1.8,7.9
		c-0.7,2.8-2.8,4.4-3.7,5c-2.9,3-3.2,6.4-3.1,7.8c6.3,6.2,5.6,13.3,3.8,17.5c6.6,5.9,17.5,21.3,18.9,23.2c0.2,0.3,0.3,0.5,0.4,0.8
		l57,234.9c4.1,14.1-2.6,22.7-6.1,26.1c8.8,14.6-1.2,27.9-1.3,28.1C259,664.7,258.2,665,257.5,665z"/>
	<path class="st5" d="M191.5,623.5c0,0-4-30.8,1.5-46.4s-2.5-22.6-2.5-22.6l0.5-40.4l-5.8-21l2.3-21.6c0,0,25.6-58,24.5-79.5
		s-1.5-33.5-1.5-33.5l22.2,8.2l18.4,15.5l18.1,25.5l5.8,17.1l14.9,26.8l2.6,16.8l-3,18c0,0,5.3,6.2,3.6,15.6
		c-1.6,9.4-2.9,14.5-2.9,14.5l-0.3,15.5l-5.2,16.5l-7.1,19.1l-8.4,9.4l-13.9,0.6l7.1,14.2l-2.6,9.4l-35.5,16.2l-20,5.2L191.5,623.5z
		"/>
	<path class="st5" d="M97.5,472.5c0,0-22-47-28-103l-20.1,10.8l-5.8,9.6l-5.8,4.2l-2.4,4.3l-4.7,4.7l0.7,5.3l-13,15l-3,22
		c0,0-5,14,0,20c0,0-5,4-5,13l-5.8,26.6l-1.3,16.1l3,5.4L6,536.9l3.5,2.6l4,12l7.3,12.4l4.5,10.3l7.2,3.3l5.4,8.9l4.6,2.1l-2,9l8,4
		l7-3.2l4,7.2c0,0-8.4,0.1-10.7,8.5l6.8,10.3c0,0,14,8.2,23,5.2c0,0,27.1,20.8,22-2.6l2.9-50.5l-5.9-11.9l1.1-10.9l4.2-13.5v-15.4
		l-4.3-13.2l-0.9-16.4L97.5,472.5z"/>
	<path class="st6" d="M51.6,887.1c0,0-2.3-31.6,8.6-32.4C71,854,66.5,876,66.5,876s10.5-14.9,23-13.4s22.2,23.4,19.3,26.4
		c-2.9,3-17,11.6-40.9,7.8l-6.3-4.8L51.6,887.1z"/>
	<path class="st6" d="M180.6,886.1c0,0-2.3-31.6,8.6-32.4c10.9-0.8,6.4,21.3,6.4,21.3s10.5-14.9,23-13.4s22.2,23.4,19.3,26.4
		c-2.9,3-17,11.6-40.9,7.8l-6.3-4.8L180.6,886.1z"/>
	<path d="M209.1,901.5c-7.8,0-13.5-1.5-13.7-1.5c-0.2,0-0.3-0.1-0.5-0.2c-3.4-1.7-4.7-5.3-5.1-7.7H183c-1.2,0-2.2-0.8-2.4-2
		c-6-27.1,5.2-44.1,18.2-48.4c5.7-1.9,6.3-4.9,6.3-5c0.2-1.4,1.4-2.3,2.8-2.2c1.4,0.2,2.4,1.4,2.2,2.8c-0.1,0.6-0.9,6.2-9.7,9.1
		c-7.6,2.5-20.4,14.3-15.3,40.6h7c1.4,0,2.5,1.1,2.5,2.5c0,0,0.1,4.3,2.4,5.6c1.4,0.3,7.7,1.7,15.3,1.2c11.3-0.7,20.2-4.7,26.3-12
		c0.3-0.4,0.7-0.6,1.1-0.8c0.3-0.1,7.6-2.7,8.8-11.5c0-0.1,0-0.2,0.1-0.3c0-0.1,3.8-14-0.1-35c-0.2-1.4,0.7-2.7,2-2.9
		c1.3-0.3,2.7,0.7,2.9,2c3.9,21.2,0.5,35.3,0,37.1c-1.5,10.1-9.1,14.1-11.5,15.1c-7,8-17.2,12.6-29.6,13.3
		C211.3,901.4,210.2,901.5,209.1,901.5z"/>
	<path d="M191.5,893.5c-1,0-2-0.6-2.3-1.6c-1.5-4,0.6-14.2,6-22.5c4.8-7.4,11.1-11.5,18.2-11.9c7.8-0.5,18,2,28.4,25.5
		c0.6,1.3,0,2.7-1.3,3.3c-1.3,0.6-2.7,0-3.3-1.3c-9.1-20.5-17-22.9-23.6-22.5c-6.9,0.4-11.6,5.5-14.3,9.6c-4.8,7.4-6.2,16.1-5.5,18
		c0.5,1.3-0.2,2.7-1.5,3.2C192.1,893.4,191.8,893.5,191.5,893.5z"/>
	<path d="M194.5,877.5c-0.1,0-0.2,0-0.3,0c-1.4-0.2-2.3-1.4-2.1-2.8c2.1-15.3-1.7-19.3-3.3-19.5c0.1,0,0.1,0,0.1,0l0.2-5
		c0.5,0,2.9,0.2,5,2.9c3.4,4.1,4.4,11.6,2.9,22.3C196.8,876.6,195.7,877.5,194.5,877.5z"/>
	<path d="M79,901c-8.1,0-14-1.4-14.3-1.5c-0.2,0-0.3-0.1-0.5-0.2c-3.5-1.6-4.9-5-5.4-7.4h-7.2c-1.2,0-2.2-0.8-2.4-1.9
		c-6.3-26,5.4-42.2,19-46.3c5.9-1.8,6.6-4.7,6.6-4.7l0,0.1l5,0.6c-0.1,0.6-1,6-10.1,8.8c-8,2.4-21.3,13.5-16,38.5h7.4
		c1.4,0,2.5,1.1,2.5,2.5c0,0,0.1,3.9,2.5,5.2c2.9,0.6,29.2,5.7,43.9-10.3c0.3-0.3,0.7-0.6,1.1-0.7c0.3-0.1,8-2.6,9.3-10.9
		c0-0.1,0-0.2,0.1-0.4c0-0.1,3.9-13.3-0.1-33.2c-0.3-1.4,0.6-2.7,2-2.9c1.4-0.3,2.7,0.6,2.9,2c4.1,20.2,0.5,33.7,0,35.4
		c-1.6,9.8-9.6,13.5-12,14.5c-7.3,7.6-18,12-30.9,12.6C81.3,901,80.1,901,79,901z"/>
	<path d="M66.5,878.5c-0.1,0-0.2,0-0.3,0c-1.4-0.2-2.3-1.4-2.1-2.8c0.9-6.7,1-15.2-0.5-17.2c-0.1-0.1-0.1-0.1-0.1-0.2l0,0
		c0,0-1.1-1.6-2.5-1.8c-1.1-0.1-2.6,0.8-4.1,2.6c-0.9,1.1-2.5,1.2-3.5,0.3c-1.1-0.9-1.2-2.5-0.3-3.5c2.6-3.1,5.4-4.6,8.3-4.3
		c3.7,0.3,5.8,3.3,6.3,4.1c3.3,4.7,1.8,18.1,1.4,20.7C68.8,877.6,67.7,878.5,66.5,878.5z"/>
	<path d="M61.5,891.5c-0.1,0-0.2,0-0.3,0c-1.4-0.2-2.3-1.4-2.2-2.8c0-0.3,3.5-25.9,27-30.1c0.6-0.1,16.1-3.1,27.8,26.5
		c0.5,1.3-0.1,2.7-1.4,3.2c-1.3,0.5-2.7-0.1-3.2-1.4c-9.9-25.3-22-23.5-22.1-23.5c-20,3.6-23,25.6-23,25.9
		C63.8,890.6,62.7,891.5,61.5,891.5z"/>
	<path class="st7" d="M248.8,587c-0.1,2.3,0.4,4.7,0.8,7c0.1,0.4,0.2,0.8,0.3,1.2c0,0.1,0.2,1.1,0.1,0.5c-0.1-0.7,0,0.7,0,0.7
		c0,0.5,0,0.4,0.2-0.4c0.3-0.8,0.3-0.9-0.1-0.3c-1.9,2.6-0.4,6.7,2.2,8.2c3.1,1.8,6.3,0.4,8.2-2.2c3.3-4.5,0-10.4,0.3-14.7
		c0.2-3.2-2.9-6-6-6C251.4,581,249,583.7,248.8,587L248.8,587z"/>
	<path class="st7" d="M215.8,374c6.9,1.4,14.7,5.5,20.9,9c2.8,1.6,5.7,3.8,7.9,6.1c1,1,1.7,2.4,2.8,3.4c1.6,1.4,1.6,1.2,0.1-0.4
		c0.3,1,0.8,1.9,1.5,2.6c4,5.4,8.6,10.3,9.4,17.4c0.4,3.6,0.1,7.1-1.6,10.4c-1.8,3.4-4.1,6.3-4.9,10.1c-1.8,7.5,9.8,10.7,11.6,3.2
		c0.9-3.8,3.8-7.1,5.4-10.7c1.9-4.3,1.8-9,1.5-13.7c-0.3-3.9-1.4-8.5-3.2-12c-1.8-3.6-4.7-8.4-7.7-11.1c-0.6-0.5-1.4-1.4-0.5-0.2
		c-0.6-0.8-0.9-1.8-1.5-2.6c-1.2-1.4-2.5-2.8-3.7-4.2c-2.6-2.9-6.3-5.6-9.6-7.7c-3.5-2.3-7.8-4.1-11.6-5.7
		c-4.4-1.9-8.6-4.2-13.3-5.2C211.5,360.8,208.2,372.4,215.8,374L215.8,374z"/>
	<path class="st7" d="M203.8,555.9c1.1,2.4,3.1,4.2,4.9,6.2c2.1,2.3,3.8,4.9,5.7,7.4c3.2,4.2,6.8,7.9,10.4,11.7
		c5.4,5.6,13.8-2.9,8.5-8.5c-3.3-3.5-6.7-6.8-9.6-10.6c-1.5-2-2.9-4.1-4.4-6.1c-1.6-2.1-4-3.6-5.2-6.1
		C211,542.9,200.7,549,203.8,555.9L203.8,555.9z"/>
	<path class="st7" d="M275.3,454.4c-0.9-1.7,0.1,2,0.2,2.7c0.3,1.7,0.7,3.3,1.2,4.9c0.9,3.5,1.6,6.9,1.7,10.5
		c0.1,3.8-0.1,7.5,0.6,11.3c0.7,3.4,1.6,6.4,2,9.9c0.4,3.3-0.3,5.9-1.3,9c-1.1,3.5-0.8,6.8-0.4,10.4c0.4,3.4,0,7.5-0.8,10.8
		c-0.5,2.2-2.2,6.9-3.4,8.1c-5.5,5.5,3,14,8.5,8.5c5.2-5.3,6.9-14.4,7.5-21.5c0.4-3.8-1-8.2-0.3-11.9c0.7-3.8,2.4-7.1,2.3-11.2
		c0-4-0.6-8.4-1.8-12.3c-1.1-3.7-0.9-7.3-1.1-11.2c-0.2-4.7-1-9.1-2.1-13.6c-0.9-3.5-0.9-7.3-2.6-10.5
		C282.1,441.4,271.7,447.5,275.3,454.4L275.3,454.4z"/>
	<path d="M195,627.5c-1.2,0-2.3-0.9-2.5-2.2c-0.2-1.4,0.8-2.6,2.2-2.8c36.3-4.3,59.9-20.2,64.8-23.8c-0.2-13.1-3.2-19-3.2-19.1
		c-0.4-0.8-0.4-1.7,0.1-2.5c0.5-0.7,1.3-1.2,2.1-1.2c7.1,0,10.5-0.5,11.7-0.8c10-10.6,14.3-36.4,14.3-36.6c0-0.2,0.1-0.5,0.2-0.7
		c6.4-12.9,1.9-24.9,1.9-25c-0.3-0.7-0.2-1.4,0.1-2.1c6.3-11.7,3-20.5,2.9-20.9c-3.2-7.4-0.4-21.1-0.1-22.4
		c1.8-11.7-5.4-20.9-5.5-21c-0.2-0.2-0.3-0.5-0.4-0.8c-4.8-15.3-13.4-25-13.5-25.1c-0.5-0.5-0.7-1.3-0.6-2
		c0.8-6.3-1.9-11.2-2.5-12.1c-2-2.2-4.3-7.3-5.1-9.1l-1.7-1.7c-0.1-0.1-0.3-0.3-0.4-0.5c-10.4-16.9-23.5-25.2-32.5-29.2
		c-6-2.6-11.2-3.8-14.3-4.3c2,12.5,6.1,57.2-23.4,110.8c-0.7,1.2-2.2,1.7-3.4,1c-1.2-0.7-1.7-2.2-1-3.4
		c33.2-60.5,22.4-110.2,22.3-110.7c-0.2-0.8,0-1.5,0.5-2.1s1.2-0.9,2-0.9c1.3,0,32.4,1.4,53.9,35.9l1.8,1.8c0.2,0.2,0.4,0.5,0.5,0.8
		c1.2,2.7,3.3,7.1,4.5,8.2c0.1,0.1,0.2,0.2,0.3,0.4c0.2,0.3,4.1,6.3,3.5,14.6c2.3,2.8,9.3,12,13.7,25.6c1.5,2.1,8.2,11.9,6.2,24.5
		c0,0,0,0.1,0,0.1c-0.8,3.7-2.3,14.4-0.1,19.5c0.2,0.5,4.2,10.8-2.6,24.2c1.1,3.6,3.8,15.1-2.3,27.6c-0.6,3.5-5.3,28.6-16.1,39.5
		c-0.3,0.3-0.6,0.5-1,0.6c-0.3,0.1-2.9,0.9-10.2,1.1c1.1,3.5,2.4,9.8,2.4,19c0,0.8-0.3,1.5-0.9,2c-1,0.8-26,20.5-68.3,25.5
		C195.2,627.5,195.1,627.5,195,627.5z"/>
	<path d="M190.5,618c-1.3,0-2.4-1-2.5-2.3c-0.2-2.6-2-25.8,1.2-34.1c3.1-8.2,3.1-23.1,0.1-25c-0.8-0.5-1.2-1.3-1.2-2.1v-28
		c0-0.1,0-0.2,0-0.3c0.7-6.7,0.6-17.6-2.1-19.8c-0.4-0.4-0.8-0.9-0.9-1.4c-0.2-0.8-4.1-18.8,0-34.2c0.2-0.6,0.5-1.1,1-1.4
		c0.1-0.1,13-8.7,24.5-25.8c10.6-15.7,22.2-41.9,17.4-77.8c-0.2-1.4,0.8-2.6,2.1-2.8c1.4-0.2,2.6,0.8,2.8,2.1
		c5.1,37.6-7.1,65-18.3,81.5c-10.5,15.5-21.9,24.2-25,26.4c-3,12.4-0.5,26.9,0.1,30.2c4.8,5.3,3.6,20,3.2,23.4v26.7
		c2.9,2.9,3.5,8.7,3.5,13.3c0,5.9-1,12.4-2.7,16.8c-2.3,6.1-1.4,25.1-0.8,31.9c0.1,1.4-0.9,2.6-2.3,2.7
		C190.6,618,190.6,618,190.5,618z"/>
	<path d="M232.5,581c-0.7,0-1.3-0.3-1.8-0.8c-29.5-30.5-23.1-42.8-22.3-44.1l4.2,2.7l0.1-0.1c-0.1,0.1-5,10.5,21.6,38
		c1,1,0.9,2.6-0.1,3.5C233.8,580.8,233.1,581,232.5,581z"/>
	<path class="st8" d="M221.1,479.5c-1.3,4.3-1,8.9-0.4,13.2c0.8,5.2,0.6,9.9-0.5,15c-1,5.1-3.6,10.5-5.6,15.2
		c-1.8,4.2-4.1,7.2-7.6,10.1c-6,4.9,2.6,13.3,8.5,8.5c8.3-6.8,11.9-17.3,15.4-27.2c1.8-5,2.6-11.4,2.4-16.8
		c-0.2-4.9-2.2-10-0.7-14.8C235,475.3,223.4,472.1,221.1,479.5L221.1,479.5z"/>
	<path d="M210.8,550.9c-0.9,0-1.8-0.5-2.2-1.3c-3.7-6.9-7.1-12.7-7.2-12.8c-0.7-1.2-0.3-2.7,0.8-3.4c1.2-0.7,2.7-0.3,3.4,0.8
		c0,0.1,3.6,5.9,7.3,13c0.6,1.2,0.2,2.7-1,3.4C211.5,550.8,211.1,550.9,210.8,550.9z"/>
	<path d="M192.5,602c-0.6,0-0.9,0-1,0c-1.4,0-2.5-1.2-2.4-2.6c0-1.4,1.2-2.5,2.6-2.4c0.3,0,34.4,0.7,59.4-19.4
		c1.1-0.9,2.6-0.7,3.5,0.4c0.9,1.1,0.7,2.6-0.4,3.5C229.9,601,198.6,602,192.5,602z"/>
	<path d="M208.5,520c-0.3,0-0.6-0.1-0.9-0.2c-1.3-0.5-1.9-1.9-1.4-3.2c9.2-24,9.8-34.1,9.8-35c-1-15.4,3.1-23.8,3.3-24.2
		c0,0,0-0.1,0.1-0.1c6-10.5,7.8-16.1,8.2-19c0.2-1.3,0.1-2,0-2.2c-0.3-0.4-0.5-0.8-0.5-1.3c-1-9,4.1-13.8,5.7-15
		c8.7-12.3,9.3-16.2,9.3-16.4c0,0.1,0,0.2,0,0.2h5c0,1.1-0.8,5.9-10.5,19.5c-0.2,0.2-0.4,0.5-0.6,0.6c-0.2,0.1-4.4,3.2-4,10
		c1.5,2.6,1.4,9.3-8.2,26.1c-0.3,0.6-3.6,8.2-2.7,21.7c0,0.1,0,0.1,0,0.2c0,0.4-0.1,10.8-10.2,36.9C210.5,519.4,209.5,520,208.5,520
		z"/>
	<path d="M253,459.5c-0.1,0-0.2,0-0.3,0c-1.4-0.2-2.3-1.4-2.2-2.8c0-0.4,1.2-8.8,11.5-22.2c7.8-10.1,7.8-14.3,7.7-14.4
		c-0.6-1.2-0.1-2.7,1.1-3.4c1.2-0.6,2.7-0.1,3.4,1.1c0.8,1.6,1.6,6.8-8.3,19.6c-9.3,12.1-10.5,19.7-10.5,19.8
		C255.3,458.6,254.2,459.5,253,459.5z"/>
	<path d="M211.5,551c-0.5,0-1-0.2-1.5-0.5c-1.1-0.8-1.3-2.4-0.5-3.5c4-5.4,7.1-7.9,9.2-9c-0.4-1.3-0.5-2.8-0.1-4.6
		c0.7-2.8,2.5-5.2,4-6.7c-0.8-1.6-1.2-3.8,0-6.5c0.4-1.8,2.4-8.5,10.8-10.6c0.1,0,0.2,0,0.3-0.1c0.3,0,8-1,13.2-8.9
		c0.8-1.1,2.3-1.5,3.5-0.7c1.1,0.8,1.5,2.3,0.7,3.5c-6.1,9.2-15.1,10.9-16.6,11.1c-6.2,1.6-7,6.8-7,6.9c0,0.3-0.1,0.5-0.2,0.8
		c-1,2,0,2.7,0.2,2.8c0.7,0.5,1.1,1.2,1.1,2c0,0.8-0.3,1.6-1,2.1c-0.9,0.7-3.4,3.1-4.1,5.6c-0.4,1.7,0.3,2.7,0.7,3.1
		c0.2,0.1,0.4,0.3,0.6,0.5c0.9,0.9,1,2.4,0.2,3.4c-0.8,1-2.2,1.2-3.3,0.5c0,0,0,0-0.1,0c-1.5,0.5-5.2,4.1-8.1,7.9
		C213,550.6,212.3,551,211.5,551z"/>
	<path d="M230.5,514C230.5,514,230.5,514,230.5,514c-1.4,0-2.5-1.1-2.5-2.5c0-2.2,1-5.9,4.2-8.6c-2.8-1.4-5.7-3.5-6.6-6.5
		c-0.5-1.7-0.5-4.1,1.7-7.1c-1.7-3.2-2.9-8.5,1.2-13.4c0.9-1.1,2.5-1.2,3.5-0.3c1.1,0.9,1.2,2.5,0.3,3.5c-3.6,4.3-0.2,8.6,0,8.8
		c0.8,1,0.8,2.5-0.2,3.4c-1,1-2.2,2.5-1.8,3.7c0.6,2.2,5.5,4.4,8.6,5.1c1.1,0.3,1.9,1.3,1.9,2.4c0,1.2-0.8,2.2-1.9,2.4
		c-5.8,1.5-6.1,6.1-6.1,6.6C233,512.9,231.9,514,230.5,514z"/>
	<path d="M237.8,581.3c-4.5,0-9.2-3.4-9.8-3.8c-1.1-0.8-1.3-2.4-0.5-3.5s2.4-1.3,3.5-0.5c2.1,1.5,6,3.4,7.8,2.7
		c1.1-0.5,1.5-2.2,1.7-3.5c0.2-1.4,1.4-2.3,2.8-2.2c1.4,0.2,2.3,1.4,2.2,2.8c-0.6,4.8-2.9,6.7-4.7,7.5
		C239.8,581.2,238.8,581.3,237.8,581.3z"/>
	<path d="M258.5,561c-6.4,0-9.9-4.1-13.2-8c-2.3-2.7-4.6-5.4-8-7.3c-1.2-0.7-1.6-2.2-1-3.4c0.7-1.2,2.2-1.6,3.4-1
		c4.2,2.3,6.9,5.6,9.4,8.4c3.4,4,5.5,6.3,9.4,6.3c8.1,0,16.2-1.4,25.8-18.7c0.7-1.2,2.2-1.6,3.4-1c1.2,0.7,1.6,2.2,1,3.4
		C277.8,559.4,267.4,561,258.5,561z"/>
	<path d="M247.1,575c-0.2,0-0.5,0-0.7,0c-6.2-0.7-11.2-11.4-12.2-13.5c-0.6-1.3,0-2.7,1.3-3.3c1.3-0.6,2.7,0,3.3,1.3
		c1.9,4.3,5.8,10.3,8.2,10.6c0.2,0,0.7,0.1,1.5-1c5.5-7.3,5.4-7.5,3.4-10.8c-0.7-1.2-0.3-2.7,0.9-3.4c1.2-0.7,2.7-0.3,3.4,0.9
		c3.4,5.8,2.4,8.1-3.7,16.3C250.7,574.4,248.6,575,247.1,575z"/>
	<path class="st7" d="M66.3,421.2c0.2,3.6,1,6.9,2,10.3c0.9,3,1.1,6,2,9c0.7,2.4,2.6,4.5,3.9,6.7c1.6,2.8,3.1,5.6,4.9,8.3
		c4.3,6.3,14.7,0.3,10.4-6.1c-2.6-3.8-5.8-8.4-7.6-12.4c-0.7-1.5-0.6-4.4-1.2-6.3c-0.9-3.2-2.2-6.2-2.4-9.5
		C77.8,413.5,65.8,413.5,66.3,421.2L66.3,421.2z"/>
	<path class="st8" d="M5.1,506c0,3.8-0.5,7.6-0.4,11.3c0.2,3.5,0.7,6.8,0.7,10.2c0.1,3.2,0.4,6.7,1.7,9.7c1.4,3.2,4.2,5.5,5.6,8.6
		c0.9,2,1.4,4.1,2.6,6c1.1,1.7,2.5,3.2,3.7,4.8c2.5,3.6,4.3,7.4,5.5,11.5c1.1,3.5,2.7,6.6,5.2,9.3c0.5,0.6,2.3,2.5,3.1,2.8
		c1.2,1.3,1.2,0.9,0.2-1.4c0,0.7,0.1,1.4,0.4,2.1c1,3.4,4.1,4.7,7.4,4.2c0.3,0,0.6-0.1,0.9-0.1c7.6-1.2,4.4-12.7-3.2-11.6
		c-0.3,0-0.6,0.1-0.9,0.1c2.5,1.4,4.9,2.8,7.4,4.2c-0.7-2.5-2-4.7-4.4-6.9c-2.1-1.9-3.6-3.1-4.5-5.9c-1.3-4.1-2.8-8-5.1-11.7
		c-2-3.3-5.1-6.2-6.5-9.8c-1.3-3.6-2.9-5.9-5-9c-1.7-2.5-2.2-4.8-2.1-7.9c0.1-3.2-0.6-6.2-0.7-9.3c-0.2-3.8,0.4-7.6,0.4-11.3
		C17,498.3,5,498.3,5.1,506L5.1,506z"/>
	<path d="M42.5,591c-0.3,0-0.6-0.1-0.9-0.2c-7.1-2.7-10.4-8.3-11.5-10.8c-7.3-2.8-11.2-11.6-11.4-12c-0.1-0.2-0.2-0.5-0.2-0.7
		c-0.9-7-7.2-13.5-7.3-13.5c-0.3-0.3-0.5-0.6-0.6-1l-3.7-11.1c-4-2.5-5.7-7.1-4.4-12.3c0.7-2.9,0.2-4.3,0.2-4.4c0,0,0-0.1,0-0.1
		c0,0,0,0,0-0.1c-4.3-10.7-2.1-17.4-2.1-17.7c0-0.1,0.1-0.3,0.2-0.4c5.3-9.7,7.4-26.3,7.7-28.8c-0.8-5.8-0.1-10.2,2.2-12.9
		c0.4-0.4,0.7-0.8,1.1-1.1c-1.9-3.7-1.4-8.7-1.3-9.4c0-0.2,0.1-0.3,0.1-0.5c1.5-4.5,2.4-7.9,2.8-9.2c-1.2-5.1,0.5-11.4,1.9-16.5
		c0.6-2.2,1.2-4.5,1.2-5.5c0-4.2,7.6-11.5,12.8-16l-0.8-5.6c-0.1-1,0.3-2,1.2-2.5l4.2-2.5c1.3-3.8,2.4-6.2,3.3-7.1
		c0.6-0.6,1.3-0.9,2.1-1.2c1.5-0.6,3.6-1.5,5.4-5.1c3.2-6.5,20-13.8,23.3-15.2c0.7-0.3,1.6-0.2,2.3,0.2c0.7,0.4,1.1,1.1,1.2,1.9
		c0,0.5,4.7,50.6,27.3,96.6c0.5,1,0.2,2.3-0.6,3c-0.9,0.7-2.1,0.8-3.1,0.1c-0.6-0.4-15.5-10.9-28.2-27.4
		c-15.7-20.3-21-40.8-15.5-59.5c-1,0.9-1.8,1.7-2.2,2.5c-2.6,5.3-6.1,6.7-8,7.5c-0.2,0.1-0.4,0.2-0.5,0.2c-0.5,0.9-1.6,3.7-2.4,6
		c-0.2,0.6-0.6,1-1.1,1.4l-3.6,2.1l0.8,5.4c0.1,0.9-0.2,1.7-0.9,2.3c-6.2,5.3-11.9,11.4-12.1,13.1c0,1.7-0.6,3.9-1.4,6.8
		c-1.2,4.5-2.8,10.6-1.7,14.5c0.1,0.4,0.1,0.9,0,1.3c0,0.2-1,4.1-3,9.9c-0.3,2.6,0.1,6.5,1.7,7.2c1,0.5,1.6,1.7,1.3,2.8
		c-0.3,1.1-1.3,1.9-2.4,1.9c0,0-0.8,0.1-1.6,1c-0.7,0.9-1.8,3.3-1,9.1c0,0.2,0,0.4,0,0.6c-0.1,0.8-2.1,19.3-8.2,30.7
		c-0.2,0.9-1.2,6.1,2,14.1c0.3,0.7,1.2,3.3,0.1,7.6c-0.5,1.9-0.8,5.4,2.7,7.2c0.6,0.3,1,0.8,1.3,1.4l3.8,11.5
		c1.6,1.7,7.1,8.1,8.2,15.6c0.7,1.5,4.1,7.9,9.3,9.3c0.8,0.2,1.4,0.8,1.7,1.6c0.1,0.3,2.3,6.4,9,9c1.3,0.5,1.9,1.9,1.5,3.2
		C44.5,590.4,43.5,591,42.5,591z M58,378.2c0,0.4,0,0.8-0.2,1.2c-13.8,34.1,16.6,66.1,32,79.5c-16-36.9-21.5-74-22.9-85.2
		C64.1,375,60.9,376.6,58,378.2z"/>
	<path class="st7" d="M81.4,569.7c-0.1,1.3-1,2.8-1.2,4.1c-0.2,1.3-0.2,2.6-0.4,3.9c-0.5,2.8-2.2,5.3-3.8,7.7
		c-1.6,2.3-3.6,3.9-5.3,6c-1.1,1.3-2,2.8-3.1,4.2c-1.2,1.5-2.3,1.1,0.3,1c-7.7,0.2-7.7,12.2,0,12c3.6-0.1,5.9-1.9,8.2-4.5
		c2.9-3.4,6.1-6.8,8.7-10.4c5.4-7.3,7.6-15.1,8.6-24C94.2,562,82.2,562.1,81.4,569.7L81.4,569.7z"/>
	<path class="st8" d="M74,570c-3.3,4.4-5.2,10.2-8.4,14.8c-2.9,4.3-5.8,8.5-8.7,12.7c-2.2,3.2,3,6.2,5.2,3c2.9-4.2,5.8-8.4,8.7-12.7
		c3.2-4.7,5.1-10.4,8.4-14.8C81.5,569.9,76.3,567,74,570L74,570z"/>
	<path d="M59,608.5c-0.3,0-0.5,0-0.8-0.1c-2-0.7-3.4-2-4.2-3.8c-0.1-0.4-0.2-0.7-0.3-1.1c-2.1,1-4.2,1.2-5.7,1.1
		c-3.6,0.6-6.2-0.2-7.8-2.2c-2.8-3.7-0.6-9.8,0.2-11.8c0.2-4.5,2.8-13.1,3.1-14.2c0.4-1.3,1.8-2.1,3.1-1.7c1.3,0.4,2.1,1.8,1.7,3.1
		c-0.8,2.7-2.9,10.3-2.9,13.3c0,0.4-0.1,0.7-0.2,1c-1.2,2.5-1.9,6.1-1,7.2c0.4,0.5,1.6,0.6,3.3,0.3c0.3,0,0.5-0.1,0.8,0
		c0.4,0.1,4.1,0.4,6.5-3.7c0.4-1.1,0.9-1.9,1-2.1c0.6-1.1,2-1.6,3.2-1.1c1.2,0.5,1.8,1.9,1.3,3.1c-0.3,0.8-0.6,1.5-1,2.2
		c-0.6,1.5-1,3.3-0.7,4.4c4.8-6.1,19.1-25.3,24-42.2c0.4-1.3,1.8-2.1,3.1-1.7c1.3,0.4,2.1,1.8,1.7,3.1
		c-6.1,21.3-25.7,44.9-26.5,45.9C60.4,608.2,59.7,608.5,59,608.5z"/>
	<path class="st7" d="M88.1,494.9c-0.1,4.1-0.5,8.2,0.3,12.2c0.9,3.9,3.5,7.4,4.1,11.3c0.5,3.6,0.1,8,0.1,11.7c0,3.9,0.1,8.5-1.5,12
		c-3.1,7,7.2,13.1,10.4,6.1c3.8-8.4,2.9-17.4,3-26.5c0.1-4.5-0.6-8.4-2.6-12.5c-2.4-4.8-2-9.1-1.8-14.3
		C100.2,487.1,88.2,487.1,88.1,494.9L88.1,494.9z"/>
	<path d="M102,635.5c-1.2,0-2.3-0.9-2.5-2.2c-0.1-0.9-3-22.6,1-42.8c1.9-9.5,0.7-15.7-0.7-19.2c-1.5-3.7-3.4-5.3-3.4-5.4
		c-0.3-0.2-0.5-0.5-0.7-0.8c-0.3-0.5-2.4-5.2,0.9-14.9c0.5-1.4,0.9-2.7,1.4-4c2.3-6.5,3.9-10.8,1.6-18.5c-0.1-0.5-0.1-1,0-1.5
		c0.1-0.3,2.4-7.8-2.5-13.6c-0.1-0.2-0.2-0.3-0.3-0.5c-0.1-0.3-3.3-6.9-1.2-20.5c0.2-1.4,1.5-2.3,2.9-2.1c1.4,0.2,2.3,1.5,2.1,2.9
		c-1.6,10.5,0.2,16.1,0.7,17.3c5.5,6.7,4.1,14.8,3.4,17.3c2.5,8.8,0.5,14.2-1.9,20.9c-0.4,1.2-0.9,2.5-1.4,3.9
		c-2.1,6.3-1.5,9.8-1.2,10.8c2.2,2.1,9,10.5,5.3,28.9c-3.9,19.3-1,41-1,41.2c0.2,1.4-0.8,2.6-2.1,2.8
		C102.2,635.5,102.1,635.5,102,635.5z"/>
	<path class="st8" d="M69.4,606.7c-2.2,0.9-6.1,0.5-8.9,1.3c-1.5,0.4-3.1,1.1-4.4,1.9c-0.8,0.5-1.7,1.1-2.3,1.7
		c-0.2,0.2-1.6,2.1-1.1,1.5c-5.3,5.7,3.2,14.2,8.5,8.5c0.5-0.5,1-1.1,1.4-1.7c0.4-0.6,0.4-0.7,0-0.1c-0.5,0.5-0.5,0.5,0,0.3
		c0.6,0.1,2.3-0.8,3-0.9c2.5-0.2,4.9,0.1,7.2-0.9c3-1.3,5.1-4,4.2-7.4C76,608,72.4,605.4,69.4,606.7L69.4,606.7z"/>
	<path d="M94,638.5c-0.5,0-0.9-0.1-1.3-0.4c-6.4-4-12.9-5.3-14.6-5.6c-13.9,2.9-26.2-7.2-26.7-7.6c-3.5-2.9-5.2-6.2-5-9.7
		c0.4-7.1,8.6-12.4,8.9-12.6c1.2-0.7,2.7-0.4,3.4,0.8c0.7,1.2,0.4,2.7-0.8,3.4c-1.8,1.1-6.4,4.9-6.6,8.7c-0.1,1.9,0.9,3.7,3.2,5.6
		c0.1,0.1,11.2,9.2,22.9,6.5c0.3-0.1,0.6-0.1,0.9,0c0.3,0,8.6,1.1,17,6.4c1.2,0.7,1.5,2.3,0.8,3.4C95.6,638.1,94.8,638.5,94,638.5z"
		/>
	<polygon class="st9" points="62.9,374.5 65.8,359.5 79.8,353.1 93.6,355.2 104.2,366 109.1,381.9 108,396.6 105,412.6 94,422.1 
		77.4,416.8 67.4,405.4 63,383.9 	"/>
	<polygon class="st9" points="210.2,373.8 206.8,358.8 192.6,353 179,355.5 168.7,366.7 164.3,382.7 166,397.4 169.5,413.3 
		180.8,422.4 197.2,416.5 206.9,404.8 210.5,383.1 	"/>
	<path d="M69,383.3c-0.8,0-1.6-0.4-2.1-1.1c-0.2-0.3-16.7-26,12.1-46.5c1.1-0.8,2.7-0.5,3.5,0.6c0.8,1.1,0.5,2.7-0.6,3.5
		c-24.9,17.7-11.4,38.8-10.8,39.6c0.8,1.2,0.4,2.7-0.7,3.5C70,383.1,69.5,383.3,69,383.3z"/>
	<path d="M76.1,403.1c-0.5,0-1.1-0.2-1.5-0.5l-9.3-7c-0.7-0.5-1.1-1.4-1-2.3l2.8-27.9c0.1-0.9,0.7-1.7,1.5-2
		c0.8-0.4,1.8-0.2,2.5,0.3l10.2,8.1c0.7,0.6,1,1.4,0.9,2.3l-3.7,26.8c-0.1,0.9-0.7,1.6-1.5,2C76.7,403,76.4,403.1,76.1,403.1z
		 M69.4,392.5l4.8,3.6l3-21.1l-5.5-4.4L69.4,392.5z"/>
	<path d="M76.5,416.3c-3.1,0-6.2-2.3-9.2-6.8c-1.5-1.6-7-8.9-7.5-31.4c0,0,0-0.1,0-0.1c0.1-1.8,0.7-18,8.3-22.3
		c1.9-1.1,5.2-1.9,9.5,0.5c14.8,8.2,12.5,30.3,11.6,38.7c-0.5,4.9-3.6,19.4-11.1,21.2C77.6,416.2,77,416.3,76.5,416.3z M64.8,378.1
		c0.5,22.2,6.1,28,6.2,28c0.2,0.2,0.3,0.3,0.4,0.5c2.1,3.3,4.2,5,5.5,4.7c3.2-0.8,6.6-9.8,7.3-16.9c0.8-7.4,2.8-27.2-9.1-33.8
		c-2.8-1.6-4.2-0.8-4.6-0.6C66.7,362.2,65,372.2,64.8,378.1z"/>
	<path class="st10" d="M83.3,358.8c4,1,9.5,3.3,11.8,6.8c2.4,3.5,3.4,8.7,4,13.1c0.8,5.5,0.6,11-0.5,16.5
		c-1.1,5.5-2.1,11.9-5.8,16.1c-3.8,4.3,2.5,10.7,6.4,6.4c2.4-2.7,3.8-4.6,4.9-8.1c1.3-4,2.3-7.9,3.3-12c1.6-6.9,1.8-14.2,0.5-21.2
		c-1.2-6.2-2.5-12.9-6.7-17.8c-2.1-2.4-5.5-4.3-8.4-5.9c-2.1-1.1-4.8-1.9-7.1-2.5C80.1,348.8,77.7,357.4,83.3,358.8L83.3,358.8z"/>
	<path d="M93.3,423.9c-0.5,0-1,0-1.5-0.1c-9.6-1-11-1.3-19.6-8.5c-1.1-0.9-1.2-2.5-0.3-3.5c0.9-1.1,2.5-1.2,3.5-0.3
		c7.8,6.4,8.1,6.4,17,7.3c6.4,0.6,9.8-5.8,10.3-7c3.5-15.2,4-20.1,4-30c0-8.4-4.1-15.4-5.6-17.1c-1.7-2.1-5-6.1-13.1-9.8
		c-6.8-3.1-12.5,3.7-12.6,3.8c-0.9,1.1-2.5,1.2-3.5,0.3c-1.1-0.9-1.2-2.5-0.3-3.5c2.8-3.4,10.3-8.8,18.5-5.1
		c9.2,4.1,13.1,8.9,14.9,11.2c1.9,2.3,6.7,10.4,6.7,20.3c0,10.3-0.5,15.4-4.2,31.3c0,0.1-0.1,0.3-0.1,0.4
		C107.1,414,102.9,423.9,93.3,423.9z"/>
	<path d="M204.7,382.7c-0.4,0-0.9-0.1-1.3-0.4c-1.2-0.7-1.5-2.3-0.8-3.4c0.6-0.9,13.2-22.5-12.2-39.3c-1.2-0.8-1.5-2.3-0.7-3.5
		c0.8-1.2,2.3-1.5,3.5-0.7c29.4,19.5,13.8,45.8,13.7,46C206.4,382.3,205.6,382.7,204.7,382.7z"/>
	<path class="st10" d="M187.5,362.1c2.1,0.2,7.3,2.7,8.8,4.2c2,2,2.3,6.3,2.8,8.9c1.2,6.7,1.6,12.8-0.1,19.4c-1.4,5.6,7.3,8,8.7,2.4
		c2.5-9.7,1.6-19.3-0.9-28.9c-1-4.1-2.2-7.4-6-9.6c-4.2-2.5-8.5-4.8-13.4-5.4C181.8,352.4,181.8,361.4,187.5,362.1L187.5,362.1z"/>
	<path d="M198.4,402.7c-0.3,0-0.6-0.1-0.9-0.2c-0.8-0.3-1.4-1-1.6-1.9l-4.7-26.6c-0.2-0.9,0.2-1.8,0.8-2.3l9.9-8.4
		c0.7-0.6,1.7-0.8,2.5-0.4c0.9,0.3,1.5,1.1,1.6,2l3.8,27.7c0.1,0.9-0.2,1.7-0.9,2.3l-9.1,7.3C199.5,402.5,198.9,402.7,198.4,402.7z
		 M196.4,374.6l3.7,21l4.7-3.8l-3-21.8L196.4,374.6z"/>
	<path d="M198.2,416c-0.5,0-0.9,0-1.4-0.1c-7.5-1.5-11.2-15.9-11.8-20.8c-1.1-8.3-4.2-30.4,10.3-39.1c4.3-2.6,7.5-1.9,9.5-0.9
		c7.7,4,8.9,20.2,9,22c0,0,0,0.1,0,0.1c0.3,22.5-5,30-6.5,31.6C204.5,413.6,201.5,416,198.2,416z M201.1,359.2
		c-0.7,0-1.8,0.2-3.2,1.1c-11.6,7-8.9,26.7-7.9,34.1c1,7,4.7,16,7.9,16.6c1.4,0.3,3.4-1.5,5.4-4.9c0.1-0.2,0.3-0.4,0.4-0.5
		c0,0,5.4-6,5.2-28.2c-0.4-5.8-2.4-15.8-6.3-17.8C202.3,359.4,201.8,359.2,201.1,359.2z"/>
	<path d="M179.4,424.5c-5.6,0-8.4-3.4-9.2-5.6c-5.3-10.9-5.8-19.9-6.2-27c-0.1-2.5-0.3-4.8-0.6-7c-1.4-9.9,2.8-20.1,4.7-22.6
		c1.8-2.3,5.5-7.2,14.5-11.7c8.1-4,15.7,1.2,18.7,4.5c0.9,1,0.8,2.6-0.2,3.5c-1,0.9-2.6,0.8-3.5-0.2l0,0c-0.2-0.3-6-6.6-12.7-3.3
		c-8,3.9-11.1,8-12.8,10.2c-1.3,1.7-4.9,10.6-3.7,18.9c0.3,2.4,0.5,4.8,0.6,7.4c0.4,7.1,0.8,15.2,5.8,25.2c0.1,0.1,0.1,0.2,0.1,0.4
		c0.1,0.3,1.5,3.5,7.6,1.9c1.5-0.4,2.8-0.7,4-0.9c5.2-1.2,6.7-1.5,13-7c1-0.9,2.6-0.8,3.5,0.2c0.9,1,0.8,2.6-0.2,3.5
		c-7.2,6.4-9.5,6.9-15.2,8.2c-1.1,0.3-2.4,0.5-3.9,0.9C182.2,424.3,180.7,424.5,179.4,424.5z"/>
	<path d="M66.2,610.1c-4.6,0-7.5-1.2-7.7-1.3c-1.3-0.5-1.9-2-1.3-3.3c0.5-1.3,2-1.9,3.3-1.3c0.3,0.1,6.3,2.5,15.1-1
		c5.4-2.2,13-0.8,18.5,0.3c2,0.4,4.5,0.9,5.4,0.8c1.1-0.5,2.5-0.1,3.2,0.9c0.7,1.2,0.4,2.7-0.8,3.4c-1.7,1.1-4.2,0.6-8.7-0.2
		c-4.9-0.9-11.7-2.2-15.7-0.6C73.1,609.6,69.3,610.1,66.2,610.1z M99.2,604.4C99.2,604.4,99.2,604.4,99.2,604.4
		C99.2,604.4,99.2,604.4,99.2,604.4z"/>
	<path class="st7" d="M56.1,549.4c0.4,0,3.8,1.1,3.9,0.9c-0.9-1.6-1.3-2-1.3-1.1c0,0.7,0,1.3-0.1,2c-0.2,2.3-1.3,5.1-0.6,7.8
		c1.7,6.4,8.1,5.1,12.2,8.7c5.8,5.1,14.3-3.3,8.5-8.5c-2.5-2.3-5.8-4.6-9.2-5.4c-0.3-0.1-2.1-0.3-2.1-0.4c0.8,0.9,1.6,1.8,2.4,2.7
		c0.1-0.3,0.2-0.7,0.2-1c0.6-1,0.5-3.7,0.6-5c0.1-3.2-0.5-6.9-2.9-9.2c-2.7-2.6-8.1-3.5-11.7-3.6C48.4,537.2,48.4,549.2,56.1,549.4
		L56.1,549.4z"/>
	<path class="st8" d="M50.7,470.4c0.9,4.3,1.5,8.9,1.4,13.3c-0.1,2.9-0.3,6-0.1,8.9c0.2,2.4,1.2,4,1.9,6.3c1.3,4-1.1,6.8-1.4,10.8
		c-0.2,2.1,0,4.3,1.1,6.2c1.1,2,3.4,3,4.4,4.9c1.2,2.2,0.6,5.9,1.6,8.6c0.9,2.2,2.4,3.2,3.9,4.8c1.7,1.9,2.3,4.3,3.1,6.6
		c0.4,1.2,0.9,2.4,1.7,3.4c1.4,1.9-0.5-2.1,0,0.2c0.5,2,2,3.8,3.2,5.3c0.2,0.2,1.6,2.1,1.1,1.1c-0.6-1.2,0.3,1.5,0.4,1.8
		c0.3,0.9,0.7,1.9,1.1,2.6c0.4,0.7,1.3,2.5,1.3,1.5c-0.1,7.7,11.9,7.7,12,0c0-4.1-2.4-6.4-3.6-9.9c-1.1-3.3-4-5.8-5.5-9
		c-2-4.4-3.1-9.6-7.2-12.7c-2.1-1.6-0.5,0.5-0.6-0.5c0-0.6-0.2-1.1-0.3-1.7c-0.2-2-0.1-3.8-0.8-5.8c-0.6-2-1.7-3.4-3.2-4.8
		c-1.7-1.7-2.1-1-1.5-3.3c1.2-4.3,2.1-8.3,0.8-12.8c-0.7-2.4-1.7-3.9-1.7-6.4c0-2.6,0.1-5.2,0.1-7.8c0-4.9-0.8-10.1-1.8-14.8
		C60.6,459.7,49,462.9,50.7,470.4L50.7,470.4z"/>
	<path d="M57.4,578.7c-0.6,0-1.2-0.2-1.7-0.6c-1-0.9-1.1-2.5-0.2-3.5c0.2-0.3,5.8-6.3,15.4-8.4c5.1-1.1,5.9-2,6.1-2.3
		c0.2-0.3-0.1-1.5-0.9-3.3c-0.8-1.9-1.8-3.1-2.8-3.3c-1.1-0.2-2.5,0.5-4.1,2.1c-1,1-2.5,1-3.5,0c-1-0.9-1-2.5-0.1-3.5
		c1.8-2,3.4-4.6,3.6-5.8c-0.2,0-0.4-0.1-0.8-0.1c-1.2,0-2.3-0.7-2.6-1.8c-0.3-1.1,0.1-2.2,1.1-2.7c0.4-0.4,0.6-1.5-0.7-3.7
		c-0.4-0.7-0.7-1.3-1.1-1.8c-0.6-1-1.2-2.1-1.6-2.4c-0.2,0-0.6,0.1-1.8,0.5l-6.4,2.7c-1.3,0.5-2.7-0.1-3.3-1.3
		c-0.5-1.3,0.1-2.7,1.3-3.3l6.5-2.8c5.7-2.2,7.4,0.1,9.6,4c0.3,0.5,0.6,1.1,1,1.7c1.6,2.7,1.9,4.9,1.6,6.7c0.9,0.5,1.4,1.3,1.7,1.9
		c0.6,1.3,0.5,2.8-0.1,4.3c0.2,0,0.4,0.1,0.5,0.1c2.7,0.6,5,2.8,6.4,6.3c1,2.6,1.9,5.2,0.6,7.5c-1.4,2.6-4.8,3.8-9.4,4.8
		c-8.1,1.8-12.8,6.9-12.8,6.9C58.8,578.4,58.1,578.7,57.4,578.7z"/>
	<path class="st7" d="M30.8,492.9c2.6,3.6,5.9,5.9,10,7.6c1.5,0.6,3.8,0.9,5.2,1.7c-1.3-0.8,0.8,1.5,0.9,2.1
		c0.2-1.5,0.4-3.1,0.6-4.6c0.5-0.4,0.9-0.7,1.4-1.1c-7.5,2-4.3,13.6,3.2,11.6c3.3-0.9,6.6-3.8,6.6-7.5c0-3.1-2.2-6.5-4.2-8.7
		c-3.5-3.9-10.3-3-13.3-7.1c-1.9-2.6-5.2-3.9-8.2-2.2C30.4,486.2,28.9,490.2,30.8,492.9L30.8,492.9z"/>
	<path class="st7" d="M36.8,522.6c2.5,2,5,2.7,8.1,2.4c0.4,0,1,0,1.3-0.1c0.5,0,0.3,0-0.4-0.1c0.2,0.1,0.4,0.1,0.6,0.2
		c-0.5-0.2-0.6-0.2-0.2,0c0.4,0.2,0.3,0.2-0.2-0.1c-0.2-0.3-0.6-1.5-0.4-0.3c0.9-2.3,1.8-4.5,2.8-6.8c-0.9,0.7-2,1.1-2.7,2
		c-2,2.6-2.5,6,0,8.5c2.1,2.1,6.5,2.6,8.5,0c-0.6,0.4-0.7,0.4-0.3,0.3c0.2-0.1,0.4-0.2,0.6-0.4c2.3-1.6,3.4-4,2.8-6.8
		c-0.8-3.7-3.6-6.5-7.1-7.8c-1.3-0.5-2.7-0.7-4.1-0.7c-0.5,0-1.1,0.1-1.6,0.2c-0.4,0-0.7,0.1-1.1,0.1c0.8,0.1,1.4,0.4,2,1
		c-2.5-2-6-2.5-8.5,0C34.7,516.2,34.3,520.5,36.8,522.6L36.8,522.6z"/>
	<path d="M50.5,532c-0.6,0-1.1-0.2-1.6-0.6c-1.1-0.9-1.2-2.5-0.3-3.5c2.8-3.3,5.7-3.6,7.5-3.8c0.1,0,0.3,0,0.4,0
		c0-0.5-0.1-1.4-0.4-3.1c-0.5-2.7-0.9-2.7-3.9-2.6c-3.4,0.2-8.6,0.4-12.8-6.6c-2.6-4.3-5.9-6-6-6c-1.2-0.6-1.7-2.1-1.1-3.4
		c0.6-1.2,2.1-1.7,3.4-1.1c0.2,0.1,4.7,2.4,8,8c2.7,4.5,5.3,4.4,8.3,4.2c3-0.1,7.6-0.4,9,6.6c0.7,3.3,0.8,5.6-0.4,7.3
		c-1.1,1.5-2.8,1.7-4,1.8c-1.4,0.1-2.7,0.3-4.1,2C51.9,531.7,51.2,532,50.5,532z"/>
	<path d="M51.5,511c-1.1,0-2.1-0.8-2.4-1.9c-0.3-1.3,0.5-2.7,1.8-3c1.1-0.3,2.6-0.9,3.3-2.1c0.6-1.1,0.6-2.7-0.1-4.6
		c-1.8-5.3-5-7.3-6.6-7.3c-3.4,0-10.5-4.5-13.4-6.4c-1.1-0.8-1.5-2.3-0.7-3.5c0.8-1.2,2.3-1.5,3.5-0.7c4.4,2.9,9.4,5.5,10.6,5.6
		c3.9,0,8.9,3.3,11.4,10.7c1.1,3.3,1,6.2-0.3,8.6c-1.2,2.3-3.5,3.8-6.5,4.6C51.9,511,51.7,511,51.5,511z"/>
	<path d="M54.5,481c-1.1,0-2.1-0.7-2.4-1.8C49,468,49,451.2,49,450.5c0-1.4,1.1-2.5,2.5-2.5c1.4,0,2.5,1.1,2.5,2.5
		c0,0.2,0,16.8,2.9,27.3c0.4,1.3-0.4,2.7-1.8,3.1C54.9,481,54.7,481,54.5,481z"/>
	<path class="st1" d="M192,165v-52l-8-11l-19.8-2.4L156,114c0,0-10-13-21.4-3c-3.5,3.1-8.6,11-8.6,11s-10.6-0.2-14.3,4.4l10.1-24.6
		c0,0-4.8-4.3-15.8,6.5c0,0,0.4,6.4-13.8,0.1c0,0-11.7,5.8-16.9,6.7l-0.6,28.1l-2.2,25.7c0,0-21.4,30.2,3.6,61.2c0,0,21,13,33,7
		c0,0,29-5.4,37.5-1.2c0,0,46.5,12.2,52.5-40.8C199,195,203,178,192,165z M85,145.3c-9.5,0.2-11.5-13.8-8.5-19.8c0,0,21-7,22,15
		C98.5,140.5,94.5,145.2,85,145.3z M172.7,146.3c-9.5-0.1-13.5-4.8-13.5-4.8c1-22,22-15,22-15C184.2,132.5,182.2,146.5,172.7,146.3z
		"/>
	<path class="st0" d="M48,169l8-3.3l-6.5-6.2c0,0,9.3,3.3,11.5-4.5c2-7,1-6.3,1-6l-9.3-0.3l-5.1-5.4l3.9-1.7l8-8l7.5-2l7.1-5.6
		l-2.6,40.6l-7.6,24.1L59,193l3-10H52l-6-3l13-10C59,170,57,166,48,169z"/>
	<path class="st2" d="M65,136.5c0,6.5,1,13.2,0.4,19.6c-0.5,6,0.3,13.1-4.1,17.9c-3.9,4.3,2.5,10.7,6.4,6.4
		c4.9-5.4,6.1-11.9,6.4-18.9c0.1-3.8,0.8-7.4,0.5-11.2c-0.3-4.6-0.6-9.1-0.6-13.8C74,130.8,65,130.7,65,136.5L65,136.5z"/>
	<path class="st2" d="M50.7,166.5c0.9,0.9,1.8,1.7,2.8,2.6c0.2,0.2,2.4,2.2,2.5,2.1c-0.2-0.4-0.4-0.8-0.5-1.1
		c-0.1,0.1-0.1,0.3-0.2,0.4c0.6-0.1-0.2,0.2-0.3,0.3c-1.1,0.8-2.2,1.2-3.1,2.2c-4,4.2,2.3,10.6,6.4,6.4c0.5-0.5,1.3-0.7,1.9-1.1
		c1-0.7,1.9-1.5,2.6-2.6c1.1-1.7,1.9-3.8,1.9-5.8c-0.2-4.6-4.6-6.8-7.5-9.6C52.9,156.1,46.5,162.4,50.7,166.5L50.7,166.5z"/>
	<path class="st6" d="M113.2,204.4c0,0,22.3,0.8,22.3-9.9C135.5,189.5,112.9,193.4,113.2,204.4z"/>
	<path class="st6" d="M110,205c0,0-25.7-8.3-17.5-13.7C99,187,110,205,110,205z"/>
	<path class="st3" d="M128.8,181.5c1.7-1,4-1.5,5.9-1.2c1.4,0.2,2.1,0.4,3.4,1.1c0.7,0.4,2.6,2.2,2.5,1.2c0.4,3.2,2.5,6,6,6
		c3,0,6.4-2.8,6-6c-0.8-6.7-5.7-11.3-12.1-13.3c-6-1.9-12.3-1.4-17.8,1.8C116.1,175,122.1,185.4,128.8,181.5L128.8,181.5z"/>
	<g>
		<path d="M115.5,179.5c0,0-7-11-21-4c0,0-9,7-4,15c0,0,15,1,19,11c0,0-5-29,30-27c0,0,7,2,8,11c0,0-2,7-12,9c0,0-16-5-20,5
			c0,0-3,9-6,3"/>
		<path d="M111.7,207.1c-1.3,0-3-0.6-4.4-3.4c-0.2-0.5-0.3-1-0.2-1.5c-3.6-8.1-16.6-9.1-16.7-9.1c-0.8-0.1-1.5-0.5-2-1.2
			c-4.9-7.8,0.9-15.4,4.6-18.3c0.1-0.1,0.3-0.2,0.4-0.3c11.6-5.8,19.9-0.6,23.4,3.7c5.6-3.8,13.2-5.5,22.9-5c0.2,0,0.4,0,0.5,0.1
			c0.4,0.1,8.6,2.6,9.8,13.1c0,0.3,0,0.6-0.1,1c-0.1,0.3-2.5,8.5-13.9,10.8c-0.4,0.1-0.8,0.1-1.2-0.1c-0.1,0-13.8-4.2-16.9,3.5
			c-0.7,2-2.5,6.4-5.9,6.7C111.9,207.1,111.8,207.1,111.7,207.1z M136.1,176.9c-8.9,0-15.5,2.3-19.5,6.8c-6.3,7-4.6,17.2-4.6,17.3
			c0,0,0,0.1,0,0.1c0.4-0.7,0.9-1.6,1.1-2.5c0,0,0-0.1,0.1-0.1c1.4-3.6,5-7.8,13.8-7.8c3.8,0,7.2,0.8,8.6,1.2
			c6.6-1.5,8.8-5.4,9.4-6.7c-0.9-5.9-4.9-7.8-5.9-8.2C138,176.9,137.1,176.9,136.1,176.9z M92.1,188.2c2.9,0.4,9.8,1.7,14.9,5.9
			c0.5-4.2,2-9.3,5.8-13.6c0.1-0.1,0.1-0.1,0.2-0.2c-1.6-2-7.1-7.5-17.1-2.6C94.8,178.5,89.9,183,92.1,188.2z"/>
	</g>
	<path class="st3" d="M139.6,203.3c0.1,0.4,0.2,0.9,0.3,1.3c-0.1-0.2-0.1-0.5-0.1-0.8c0-0.1,0.1-0.3,0.1-0.4c-0.2,0.3-0.4,0.7-0.6,1
		c-0.3,0.5-0.5,1.1-0.8,1.6c0.4-0.4,0.4-0.3-0.2,0.2c-0.3,0.3-0.6,0.6-0.9,0.9c-2.4,2.2-2.2,6.2,0,8.5c2.3,2.3,6.1,2.2,8.5,0
		c1.9-1.8,3.1-3.8,4.3-6.1c1.7-3.1,1.6-6,0.9-9.4c-0.6-3.1-4.4-5.1-7.4-4.2C140.5,196.9,138.9,200,139.6,203.3L139.6,203.3z"/>
	<path class="st3" d="M133.4,223.2c0,0.1,0,0.1,0,0.2c0.1-0.5,0.1-1.1,0.2-1.6c0,0.2-0.1,0.4-0.2,0.7c0.2-0.5,0.4-1,0.6-1.4
		c-0.2,0.3-0.3,0.6-0.6,0.9c0.3-0.4,0.6-0.8,0.9-1.2c-0.7,0.9-1.7,1.6-2.6,2.3c0.4-0.3,0.8-0.6,1.2-0.9c-0.3,0.2-0.6,0.4-1,0.6
		c0.5-0.2,1-0.4,1.4-0.6c-0.1,0.1-0.2,0.1-0.3,0.1c0.5-0.1,1.1-0.1,1.6-0.2c-0.1,0-0.1,0-0.2,0c-1.6,0.1-3.1,0.6-4.2,1.8
		c-1,1-1.8,2.7-1.8,4.2c0.1,3,2.7,6.3,6,6c1.6-0.1,3-0.5,4.3-1.4c0.9-0.6,1.8-1.4,2.7-2.1c2.2-1.8,3.8-4.4,3.9-7.3
		c0.1-3.1-2.8-6.1-6-6C136.1,217.4,133.6,219.9,133.4,223.2L133.4,223.2z"/>
	<g>
		<path class="st4" d="M120.5,232.9c1.2,0.9-3,0.1-4.5-0.4c-0.7-0.2-1.5-0.4-2.2-0.6c-0.8-0.2-1.5-0.6-2.3-0.9
			c-1.4-0.5-2.5-1.4-3.7-2.3c-0.8-0.6-1.4-1.2-2.1-1.9c-0.4-0.4-0.6-0.8-1-1.2c-0.3-0.3-0.4-0.4-0.5-0.8c-0.2-0.7-0.3-1.3-0.3-2
			c0-0.5,0-0.9,0-1.4c0-0.4,0-0.5,0.4-0.6c0.6-0.2,1.2-0.2,1.8-0.2c0.6,0,1.2-0.1,1.8-0.2c0.3-0.1,0.6-0.3,0.9-0.4
			c0.3-0.1,0.6-0.1,0.9-0.2c0.4-0.2,0.6-0.5,1-0.7c0.4-0.2,0.8-0.3,1.2-0.6c0.9-0.5,1.5,0.4,2.3,0.8c0.6,0.3,1.1,0.7,1.7,1.1
			c0.6,0.4,1.5,0.5,2.2,0.7c0.7,0.2,1.4,0.3,2.1,0.4c0.7,0.1,1.5-0.1,2.1,0c0.4,0.1,0.5,0.2,0.9,0.1c0.4-0.1,0.7-0.2,1.1-0.1
			C124.4,221.6,118.4,231.3,120.5,232.9z"/>
		<path class="st4" d="M116.6,235.2c0.1,0.1,0.1,0.2,0.2,0.3c0.5-2.1,1.1-4.1,1.6-6.2c1.9-1.2,1.5-0.4-0.5-0.9
			c-1.3-0.3-2.8-0.6-4-1.2c-1.6-0.6-5.9-2.8-5.5-5c-0.7,0.9-1.4,1.8-2.1,2.7c0.2-0.1,3.5-0.3,4.6-0.8c0.4-0.2,0.7-0.3,1.1-0.5
			c1.3-0.5,1.3-0.8,0.1-0.8c-1.1-0.3-1.2-0.2-0.2,0.3c0.4,0.2,0.9,0.5,1.3,0.8c3.2,1.8,7.6,2.5,11.2,2c-1.3-2.3-2.6-4.5-3.9-6.8
			c-2.8,4.6-7.4,11.9-3.2,16.8c3.7,4.4,10.1-2,6.4-6.4c1.5,1.8,0.2,2.8,1.3,0.7c0.5-1,0.8-2,1.3-3c0.6-1.2,1.3-2.4,2-3.6
			c1.6-2.6-0.4-7.2-3.9-6.8c-1.8,0.2-4.8,0.1-7.1-1.1c-2.2-1.2-3.9-2.4-6.6-1.7c-1.5,0.4-2.7,1.5-4.2,1.9c-1.1,0.3-2.3,0-3.4,0.3
			c-2.7,0.9-3.7,3-3.7,5.7c-0.1,5.8,4.4,10.2,9.3,12.6c3.4,1.7,10.6,4.6,14.2,2.3c1.9-1.2,3.1-4.2,1.6-6.2c-0.1-0.1-0.1-0.2-0.2-0.3
			C120.9,226.1,113.1,230.6,116.6,235.2z"/>
	</g>
	<path d="M127.7,222.2c-7.5,0-12.7-1.9-15.5-5.7c-4.1-5.5-1.4-12.6-1.3-12.9c0.5-1.3,2-1.9,3.2-1.4c1.3,0.5,1.9,2,1.4,3.2
		c0,0.1-1.8,4.8,0.6,8.1c2.2,2.9,7.4,4.2,15.1,3.5c7.9-0.6,13.1-2.6,15.4-5.9c2.6-3.6,1.4-8.4,0.7-11.5c-0.1-0.6-0.3-1.1-0.4-1.6
		c-0.3-1.4,0.6-2.7,2-2.9c1.3-0.3,2.7,0.6,2.9,2c0.1,0.4,0.2,0.9,0.3,1.4c0.9,3.6,2.5,10.2-1.5,15.7c-3.3,4.6-9.6,7.2-19.1,8
		C130.3,222.1,128.9,222.2,127.7,222.2z"/>
	<path d="M104.1,219.7c-1.6,0-3.3-0.3-5.2-0.8c-5.8-1.6-9.7-4.3-11.5-8.2c-2.4-5.1-0.2-10.1-0.1-10.3c0.6-1.3,2.1-1.8,3.3-1.2
		c1.3,0.6,1.8,2.1,1.2,3.3c0,0-1.3,3.1,0.1,6.1c1.2,2.5,4,4.3,8.3,5.4c2.4,0.7,5.7,1.1,7.5-0.5c2-1.9,1.7-6.1,1.4-7.6
		c-0.3-1.4,0.6-2.7,2-2.9c1.4-0.3,2.7,0.6,2.9,2c0.2,0.8,1.5,8.1-2.9,12.2C109.3,218.9,107,219.7,104.1,219.7z"/>
	<path class="st4" d="M67.5,180.3c-1.6,13-4,26.9,2.2,39.2c2.5,5,7.6,10.5,12.8,12.8c3.8,1.7,7.9,3,12,3.9c1.6,0.3,3.3,0.5,4.9,0.8
		c-2.4-0.5,1.4,0.4,1.7,0.5c5.4,2.1,7.7-6.6,2.4-8.7c-0.6-0.3-1.2-0.4-1.9-0.4c1.2,0.5,1.3,0.5,0.5,0.2c-1.2-0.2-2.5-0.5-3.8-0.7
		c-3.2-0.6-6.3-1.6-9.3-2.7c-5.4-1.9-9.9-6.2-11.9-11.6c-4.1-10.7-1.8-22.2-0.4-33.2C77.2,174.6,68.2,174.6,67.5,180.3L67.5,180.3z"
		/>
	<path d="M119.1,240.1c-5,0-9.3-1.5-12.9-4.4c-8.1-6.7-9.2-18.5-9.2-19c-0.1-1.4,0.9-2.6,2.3-2.7c1.4-0.1,2.6,0.9,2.7,2.3l0,0
		c0,0.1,1,10.2,7.4,15.6c3.1,2.6,7.1,3.6,11.8,3.2c17.9-1.8,20.7-11.5,21.2-18.6c0.1-1.4,1.3-2.4,2.7-2.3c1.4,0.1,2.4,1.3,2.3,2.7
		c-1,13.8-9.7,21.6-25.7,23.2C120.8,240.1,119.9,240.1,119.1,240.1z"/>
	<path class="st3" d="M135.2,123.8c-1,6.2-1.5,12.9-0.8,19.1c0.7,6.1,3.3,11.3,4.5,17.2c1.6,7.5,13.2,4.4,11.6-3.2
		c-1-4.7-3.3-8.9-4-13.8c-0.8-5.1-0.5-11.1,0.3-16.2C148,119.4,136.4,116.2,135.2,123.8L135.2,123.8z"/>
	<path class="st4" d="M157,125.5c0.4-1.2,0.7-2.5,1.3-3.6c0.6-1.1-0.7-0.5,0.8-0.3c2.1,0.3,4.9-0.4,6.5-1.6c4.3-3.2,4.3-9.2,5.1-14
		c1-5.7-7.7-8.1-8.7-2.4c-0.4,2.5-0.4,5.5-1.3,7.9c-0.8,2-2.6,0.7-4.7,1.3c-4.9,1.2-6.2,6.3-7.6,10.4
		C146.4,128.5,155.1,130.9,157,125.5L157,125.5z"/>
	<path class="st4" d="M169.7,115.6c4.5-2,10-1,14.8-0.8c5.8,0.2,5.8-8.8,0-9c-6.6-0.3-13-0.7-19.3,2
		C159.9,110.1,164.5,117.9,169.7,115.6L169.7,115.6z"/>
	<path class="st4" d="M140.5,115.1c0.8,5.1,3.4,14.7,9.6,15.6c2.4,0.4,4.8-0.6,5.5-3.1c0.6-2.1-0.7-5.2-3.1-5.5c0.2,0,0,0-0.4-0.7
		c-0.5-0.7-0.8-1.3-1.1-2.1c-0.9-2.2-1.5-4.2-1.8-6.6c-0.4-2.4-3.4-3.7-5.5-3.1C141,110.3,140.1,112.7,140.5,115.1L140.5,115.1z"/>
	<path d="M151.5,164c-0.8,0-1.6-0.4-2.1-1.1c-18.8-29.2,3-54.7,3.2-55c0.9-1,2.5-1.1,3.5-0.2c1,0.9,1.1,2.5,0.2,3.5l0,0
		c-0.8,0.9-19.5,23-2.8,49c0.7,1.2,0.4,2.7-0.8,3.5C152.4,163.9,152,164,151.5,164z"/>
	<path class="st0" d="M194,165c-2-7-2-52-2-52c-5-8-22-5-22-5l-2.4-7.6L162,99l-1.7,8.7l2.7,8.3c-7-8-13,7-13,7
		c-7-2-4.4-15.5-4.4-15.5l-12,3.5L123,122l-8.5-3.9l4.5-9.1v-7c-5-2-14,6.3-14,6.3c-2,5.3-8.4,2.5-8.4,2.5l-8.4-3.8
		c-1.9,7.9-16.6,6.8-16.6,6.8l-9.3,8.4c0,0-20.2,4.8-13.2-0.2s8-15.3,8-15.3l1.9-6.5L50,98l-10,4l-5.8-7.3L47.2,90l1.1-7.1l3-8.4
		C58.6,67,69,77,69,77L56,58l-7-23L59,8l5,5l23,17l10,23l-2-24v-5l4-2l8,17l6-5l-2-11l2-8l10,6l7,16l6-17l4,10l10-11l2,2l-3,16l5,1
		l8-10l5-12l3,12l4,6l8-8l19-22l14,24l4,20l-4,19l-14,22l26-29l3,4l-3,7l6,1l8,8l-8,2c0,0-10-1,1,13l8,8c0,0-27,5-3,8c0,0,9,1,8,6
		c0,0-20-2-20,9c0,0,13,1,14,12l2,2l-2,5c0,0-7,3-13-2c0,0-6,4,6,16c0,0,0,5-11,2l5,6c0,0-2,9,18,19c0.6,0.3-7.9,3.2-16,2s-9-4-9-4
		l7,17c-10-12-11-7-11-7s1,15,6,17s-13,1-13,1l4,12c0,0-15-3-20-5l6-27L194,165z"/>
	<path class="st3" d="M184.8,167.8c0.4,5.6,2.2,10.9,2.8,16.5c0.6,5.3,0.2,10.6-0.6,15.8c-0.3,2,0.4-0.6-0.1,1.1
		c-0.4,1.3-1.1,2.4-1.6,3.7c-0.9,2.3-1.3,4.6-2.5,6.7c-1.5,2.6-3.5,4.8-5.7,6.7c-0.8,0.7-1.6,1.4-2.4,2.2c-1,1-3.2,1.7-0.7,1.1
		c-7.5,1.9-4.3,13.5,3.2,11.6c2.8-0.7,4.4-2.7,6.5-4.6c2.2-2.1,4.4-3.9,6.2-6.3c4-5.3,6.1-10.8,8.3-17c1.9-5.2,1.7-11,1.7-16.5
		c0-7.2-2.5-13.8-3-20.9C196.3,160.1,184.3,160.1,184.8,167.8L184.8,167.8z"/>
	<path class="st2" d="M191.5,125c1.2,15.5-1.5,31.7,1.9,46.9c0.7,3,1,6.1,1.8,9c1,3.7,2.2,6.9,2.5,10.7c0.3,5.5,1.5,14.3-1.5,19.3
		c-3,5,4.8,9.5,7.8,4.5c3-4.9,3.4-13,3.1-18.6c-0.2-3.6-0.3-7.4-1-10.9c-0.8-4.1-2.4-7.9-3.1-12c-0.5-2.9-1.2-5.8-1.8-8.7
		c-0.9-4.3-0.3-9.1-0.3-13.5c0-8.9,0.3-17.9-0.4-26.8C200.1,119.3,191.1,119.2,191.5,125L191.5,125z"/>
	<path d="M160.9,240.5c-9.6,0-17.1-2.6-17.2-2.7c-1.3-0.5-2-1.9-1.5-3.2c0.5-1.3,1.9-2,3.2-1.5l0,0c0.1,0,8.7,3.1,18.9,2.3
		c13.2-1,22.6-7.7,28-20c8.4-19.2,3.4-35.7,0.4-45.5c-0.8-2.5-1.4-4.5-1.6-6.1c-1-7.1-0.1-49.6,0-51.4c0-1.4,1.2-2.5,2.6-2.4
		c1.4,0,2.5,1.2,2.4,2.6c-0.3,15.1-0.8,45.2,0,50.6c0.2,1.2,0.8,3.1,1.4,5.3c3,9.8,8.6,28.1-0.6,49
		C188.5,236.3,173,240.5,160.9,240.5z"/>
	<path class="st4" d="M98.1,117.6c0.9,4.4,2.5,8.8,2.5,13.3c0,4.5,0.1,8.8-0.4,13.2c-0.5,4.6-4.5,12.2-6.9,15.2
		c-3.6,4.4,2.7,10.8,6.4,6.4c2.1-2.5,3.5-5.6,5.1-8.5c1.7-3.1,3.9-6.4,4.3-10c1.5-11,0-21.2-2.3-31.9
		C105.5,109.6,96.9,112,98.1,117.6L98.1,117.6z"/>
	<path class="st4" d="M77.9,121.5c4.2-0.2,8.3-3.6,12.3-3.3c4.4,0.3,8,2.8,12.5,1.6c7.7-2.1,16.1-6.5,19-14.3
		c1.7-4.5-4.5-7.1-7.5-4.4c-1.7,1.5-2.3,3.5-2.7,5.7c-0.6,3.2-1.5,4.6-3.7,6.9c-2.3,2.4-1.4,6.7,2,7.5c0.1,0,0.3,0.1,0.4,0.1
		c5.6,1.4,8-7.3,2.4-8.7c-0.1,0-0.3-0.1-0.4-0.1c0.7,2.5,1.3,5,2,7.5c2.1-2.2,3.8-3.7,5-6.7c0.5-1.2,0.6-5.1,1.4-5.9
		c-2.5-1.5-5-2.9-7.5-4.4c-1,2.7-4.6,4.6-7.1,5.8c-3.6,1.8-6.3,2.6-10.2,1.5c-3-0.8-5.7-1.7-8.9-1c-3.1,0.7-5.8,2.9-9.1,3
		C72.1,112.8,72.1,121.8,77.9,121.5L77.9,121.5z"/>
	<path d="M103.2,241.1c-10.6,0-28.6-3.1-38-22.5c-4.5-9.2-4.8-21.1-0.9-35.1c2.4-8.9,5.8-15.7,6.7-17.6c1-22.6,1-50.1,1-50.3
		c0-1.4,1.1-2.5,2.5-2.5s2.5,1.1,2.5,2.5c0,0.3,0,28.3-1,51.1c0,0.4-0.1,0.7-0.3,1.1c-0.2,0.3-15.4,29.2-6,48.7
		c12,24.9,39.6,19.4,40.7,19.1c1.4-0.3,2.7,0.6,3,1.9c0.3,1.3-0.6,2.7-1.9,3C111.4,240.5,108.1,241.1,103.2,241.1z"/>
	<path class="st1" d="M169.5,60.5c0,0,1.1-31.9,22.1-43c0,0,8.9-7,8.9-13c0,0,44,40,0,84C200.5,88.5,186.5,90.5,169.5,60.5z"/>
	<path class="st1" d="M100,56c0,0-5.6-28.4-28.1-35.6c0,0-10-5.4-11.1-11.3C60.8,9.1,32,45,73,76C73,76,85,84,100,56z"/>
	<path class="st4" d="M48.8,37.2c0.6,8.7,2.5,17.4,7.3,24.8c1.8,2.8,5,5.6,7.6,7.6c2.7,2.1,6.6,3.6,8.6,6.1c1.5-2.5,2.9-5,4.4-7.5
		c-0.3-0.1-0.5-0.1-0.8-0.2c-5.6-1.3-8,7.4-2.4,8.7c0.3,0.1,0.5,0.1,0.8,0.2c4.7,1.1,7.1-4.1,4.4-7.5c-4-5-11-6.5-14.8-12
		C62.5,55.5,61,52,60,49.7c-1.5-3.5-1.9-8.7-2.2-12.5C57.4,31.5,48.4,31.4,48.8,37.2L48.8,37.2z"/>
	<path class="st2" d="M224.5,63c-2.4,2.2-3.4,3.5-4.5,6.4c-1.1,2.8-2.9,4.4-5,6.5c-4,3.9-9.3,5.9-13.6,9.4c-4.5,3.6,1.9,9.9,6.4,6.4
		c4.6-3.7,8.7-4.7,13.2-8.9c2.1-2,4.3-4.1,5.9-6.6c1.6-2.5,1.8-4.8,4.1-6.8C235.1,65.5,228.8,59.2,224.5,63L224.5,63z"/>
	<path class="st2" d="M164.6,28.3c2,3.4-0.2,9.2-0.9,12.6c-1,4.8-1.4,9.6-1.6,14.5c-0.2,5.8,8.8,5.8,9,0c0.2-6.6,1.6-12.8,2.7-19.3
		c0.6-3.8,0.5-9-1.5-12.4C169.4,18.8,161.7,23.3,164.6,28.3L164.6,28.3z"/>
	<path class="st3" d="M200.2,15.8c3.4,4,4,9.7,5.3,14.5c1.5,5.7,3.2,11.7,4,17.6c1.3,9.6-0.8,21.3-9.5,27
		c-6.5,4.2-0.5,14.6,6.1,10.4c12-7.8,16.6-22,15.6-35.8c-0.5-7.5-2.6-15.1-4.6-22.3c-2-7.1-3.4-14-8.3-19.8
		C203.7,1.4,195.2,9.9,200.2,15.8L200.2,15.8z"/>
	<path class="st3" d="M57.4,16.6c3.1,3.2,6.8,5.4,11,6.9c4.8,1.7,7.3,4,10.5,7.8c2.7,3.2,4.6,6.5,6.6,10.2c1.8,3.1,1.8,6.9,3.6,10
		c2.9,5,10.7,0.5,7.8-4.5c-0.8-1.4-0.9-3.9-1.4-5.5c-0.6-1.9-1.4-3.2-2.4-4.9c-2-3.5-3.6-6.8-6.3-9.9c-3-3.5-5.6-7-9.6-9.2
		c-4.6-2.6-9.5-3.1-13.3-7.1C59.7,6,53.4,12.4,57.4,16.6L57.4,16.6z"/>
	<path class="st4" d="M193.3,16.2c-2.9,1.1-5.2,3.7-7.4,5.8c-3.3,3.2-7.4,5.1-10.3,8.8c-6.5,8.1-7.8,18.3-8.8,28.3
		c-0.6,5.8,8.4,5.7,9,0c0.8-7.6,1.6-16.3,6.6-22.5c2.4-3,5.7-4.5,8.6-6.9c0.9-0.8,1.8-1.7,2.7-2.6c0.6-0.6,1.3-1.1,1.8-1.7
		c0.4-0.5,1.8-1.1,0.2-0.5C201.1,22.9,198.8,14.2,193.3,16.2L193.3,16.2z"/>
	<path d="M201.5,91c-0.6,0-1.1-0.2-1.6-0.6c-1.1-0.9-1.2-2.5-0.3-3.5c14.7-17.3,14.7-17.3,17.3-30.3c0.3-1.6,0.7-3.5,1.1-5.6
		c2.9-13.7-10-36.2-16.1-44c-0.2,3.9-2.6,7.9-14.9,17.4c-16.7,13-15.1,35.6-15,35.8c0.1,1.4-0.9,2.6-2.3,2.7
		c-1.4,0.1-2.6-0.9-2.7-2.3c-0.1-1-1.9-25.5,17-40.2C197.2,10.2,197,7.8,196.9,5.4c-0.1-0.9-0.1-2,0.2-3.4c0.2-1.1,1-2,2-2.3
		c1.9-0.6,3.5,0.8,4.1,1.4c6.6,5.9,23.4,33.9,19.8,51c-0.4,2.1-0.8,3.9-1.1,5.5c-2.8,13.9-3.3,14.8-18.4,32.6
		C202.9,90.7,202.2,91,201.5,91z"/>
	<path d="M70.5,77c-0.6,0-1.2-0.2-1.7-0.7C55.4,63.9,54.2,62.6,49.1,46.2C44.3,30.9,55.2,5.7,59.3,4.1c1.3-0.5,2.8,0,3.4,1.3
		c1,2,6,8.4,16.9,13.9c12.8,6.4,18.1,23.8,18.3,24.5c0.4,1.3-0.4,2.7-1.7,3.1c-1.3,0.4-2.7-0.4-3.1-1.7l0,0c0-0.2-4.9-16-15.7-21.5
		c-9.5-4.7-14.6-10-17.1-13.2c-3.3,6-9.9,22.7-6.4,34.2c4.8,15.5,5.6,16.2,18.3,27.9c1,0.9,1.1,2.5,0.1,3.5
		C71.8,76.7,71.2,77,70.5,77z"/>
	<path d="M178.5,66.5c0,0,1.5-12.5,6-18s15-11,15-15s8,14,4,27s-6,13-11,18S181.5,71.5,178.5,66.5z"/>
	<path d="M92,58c0,0-22-20-27-29c0,0,0,8,1,16s2,16,10,25C76,70,90,67,92,58z"/>
	<path class="st4" d="M155.6,148.9c0.7,0.6,1.4,1.3,2.2,1.8c0.5,0.3,1.3,0.6,1.9,0.7c0.4,0.1,0.8,0.1,1.2,0.2c0.6,0.1,0.6,0,0,0
		c-0.6-0.1-0.6-0.1,0.1,0.1c0.3,0.2,0.7,0.3,1.1,0.4c0.5,0.1,1.4,0.2,1.8,0.3c1,0.2,2.1,0.4,3.2,0.5c2.4,0.1,4.5-2.1,4.5-4.5
		c0-2.5-2.1-4.4-4.5-4.5c-0.6,0-0.7,0-0.3,0c-0.4-0.1-0.7-0.2-1.1-0.2c-2.6-0.5-0.2,0.2-1.7-0.3c-0.4-0.1-2.7-0.8-2.7-0.6
		c0-0.1,1.9,1.3,0.6-0.1C157.8,138.6,151.4,144.9,155.6,148.9L155.6,148.9z"/>
	<path d="M172.2,149.5c-7.9,0-16.1-5.4-16.6-5.7c-0.7-0.5-1.1-1.2-1.1-2.1c0-7.2,3-13.5,8.4-17.3c4.8-3.5,10.7-4.5,15.9-2.8
		c4.6,1.5,6.3,0.9,6.7,0.7c0,0,0.1,0.1,0.1,0.1c0.3-1.3,1.7-2.1,3-1.8c1.3,0.3,2.1,1.7,1.8,3c-0.2,0.9-1,2.2-2.5,3
		c-0.7,0.4-1.5,0.7-2.4,0.8c0.7,2.1,3,10.4-3.6,17.9C179.2,148.4,175.7,149.5,172.2,149.5z M159.5,140.3c3.5,2,13.8,7.2,18.6,1.7
		c5.4-6.2,2.6-13.1,2.6-13.2c-0.2-0.5-0.2-1.1-0.1-1.6c-1.1-0.2-2.2-0.5-3.4-0.9c-3.7-1.2-7.9-0.4-11.4,2.1
		C162.1,131.1,159.9,135.3,159.5,140.3z"/>
	
		<ellipse transform="matrix(4.977385e-02 -0.9988 0.9988 4.977385e-02 27.1445 300.0309)" cx="171.2" cy="135.8" rx="11.2" ry="7.2"/>
	<path d="M85.3,147.8c-3.2,0-6.5-1-9-3.9c-5.8-6.7-4.1-14.1-3.4-16.4c-0.7-0.1-1.4-0.4-1.9-0.7c-1.5-0.8-2.2-2-2.4-2.9
		c-0.3-1.3,0.5-2.7,1.8-3c1.2-0.3,2.5,0.4,2.9,1.5c0.2,0.1,1.6,0.9,5.9-0.6c4.7-1.6,10.1-0.6,14.5,2.5c4.9,3.6,7.8,9.4,7.8,16.1
		c0,0.8-0.4,1.6-1.1,2.1C100,142.9,92.5,147.8,85.3,147.8z M78,127.4c0.1,0.5,0,0.9-0.1,1.4c-0.1,0.2-2.5,6.4,2.3,11.9
		c4.2,4.8,13.2,0.3,16.3-1.5c-0.3-4.5-2.3-8.3-5.6-10.7c-3.1-2.2-6.8-2.9-10-1.8C79.8,127,78.9,127.2,78,127.4z M73.4,122.7
		C73.4,122.7,73.4,122.7,73.4,122.7C73.4,122.7,73.4,122.7,73.4,122.7z M73.4,122.7C73.4,122.7,73.4,122.7,73.4,122.7
		C73.4,122.7,73.4,122.7,73.4,122.7z"/>
	<ellipse cx="86.1" cy="134.9" rx="6.5" ry="10.2"/>
	<path class="st11" d="M170.5,133.5l3-5c0,0,1.5,0.5,2.5,5.5C176,134,174.5,135.5,170.5,133.5z"/>
	<path class="st11" d="M88,129c0,0,1,0,2,5c0,0,0,1-4-1"/>
	<path class="st2" d="M126.1,87.4c-3.1,0-6,1-8.5,2.8c-1.5,1.1-2.6,2.6-4.2,3.6c-1.7,1.1-3.8,1.7-5.6,2.8c-2.2,1.3-4.2,4.6-6.6,5
		c-2.5,0.4-6.8-0.7-8.5-0.8c-2.9-0.1-6,0.1-8.6,1.6c-1.5,0.8-2.6,1.6-4.4,1.9c2.4-0.4-2.1-0.1-2.5,0c-2.5,0.5-3.7,2.5-5.6,3.4
		c-2.9,1.4-5,1.9-7.1,4.6c-3.5,4.6,4.3,9.1,7.8,4.5c-0.2,0.3,2-0.5,2.6-0.7c1-0.4,2-0.6,2.9-1.2c1.2-0.8,1.6-1.9,2.6-2.9
		c-2.2,2-1.3,1.3,0.7,1.1c3-0.4,5-1.9,7.7-3c1.8-0.7,4-0.1,6.6-0.1c3.3,0,5.2,1.2,8.6,0.1c3-1,4.3-2.2,6.5-4.3
		c2.2-2.1,5.2-2.8,7.8-4.5c2.5-1.7,4.4-4.8,7.6-4.8C131.8,96.5,131.9,87.5,126.1,87.4L126.1,87.4z"/>
	<path class="st2" d="M165.3,88.6c-3,2.2-6.5,3.7-8.8,6.7c-1.3,1.6-2.2,3.6-2.4,5.7c-0.2,1.7,0.1,3.3-0.3,5
		c-1.2,5.7,7.5,8.1,8.7,2.4c0.5-2.2-0.2-5.7,1.2-7.6c1.4-1.9,4.4-3,6.3-4.4c2-1.4,2.9-3.9,1.6-6.2C170.3,88.2,167.2,87.1,165.3,88.6
		L165.3,88.6z"/>
	<path class="st4" d="M120.6,126.8c5.9,0,11.9-1.3,15.6-6.4c1.6-2.2,1.8-3.9,4.4-5.2c2.5-1.2,3.9-1.3,5.7-2c5.3-2.1,3-10.8-2.4-8.7
		c-4,1.6-8.6,2.4-11.8,5.6c-1.2,1.2-1.8,2.6-2.6,3.9c-2.1,3.3-5.2,3.7-9,3.7C114.8,117.8,114.8,126.8,120.6,126.8L120.6,126.8z"/>
	<path d="M110.5,129c-0.3,0-0.5,0-0.8-0.1c-1-0.3-1.7-1.3-1.7-2.4c0-2.6,2-5.8,2.4-6.4c0.1-0.1,0.2-0.3,0.3-0.4
		c5.3-5.3,6.3-10.6,6.3-10.6c0.9-7,3.1-11.7,6.5-13.9c2.8-1.9,5.4-1.2,5.7-1.1l-1.4,4.8l0.1,0c-0.1,0-0.8-0.1-1.8,0.6
		c-1.1,0.8-3.2,3.2-4.1,10.3c0,0.3-0.7,4.1-3.9,8.8c0.2,0,0.3,0,0.5-0.1c1.8-0.2,3.6,0.2,5.2,1.1c1.1-0.6,2.9-2.1,4.5-5.3
		c3-6.1,8.6-7.2,10.6-7.3c0.8-0.5,3.5-2.7,4.2-8.8c0.1-1.1,1-2,2.1-2.2c1.1-0.2,2.2,0.4,2.7,1.5c0.2,0.4,4,9.5,1,16.9
		c-0.5,1.1-0.2,2.5,0.4,3.8c1-3.4,2.8-7.2,6.1-8.2c1.4-0.5,2.9-0.4,4.4,0.2c-0.1-1.3-0.3-2.8-0.6-4.2c-1.1-5.7,3.9-8.9,6.7-9.9
		c1-0.3,2,0,2.7,0.7c0.9,1,4.1,5,4.4,8.9c3.8-1.2,6.9-1.8,9.1-0.3c1.1,0.8,1.5,2.3,0.7,3.5c-0.8,1.1-2.3,1.4-3.4,0.7
		c-1.1-0.3-5,0.9-6.4,1.4c-2.7,0.9-4.7,1.5-5.9-0.4c-0.5-0.8-0.8-2.2,0.9-3.8c0.5-0.5-0.4-2.8-2-5.1c-1,0.7-2.1,1.8-1.8,3.4
		c1,5.2,1,10.3,1,10.5c0,1-0.6,2-1.6,2.3c-1,0.4-2.1,0.1-2.8-0.7c-1.9-2.1-3.2-2.6-3.8-2.4c-1.7,0.6-3.4,5.7-3.8,10
		c-0.1,1-0.7,1.8-1.6,2.1c-0.9,0.3-1.9,0.1-2.6-0.6c-0.7-0.7-7.1-7.3-4.6-13.7c0.6-1.5,0.8-3.2,0.8-4.8c-2.1,3.1-4.4,4-4.5,4.1
		c-0.3,0.1-0.6,0.2-0.9,0.2c-0.2,0-4.5,0.1-6.8,4.6c-3.4,6.8-8.1,8.2-8.6,8.3c-0.8,0.2-1.6,0-2.2-0.5c-0.9-0.7-1.8-1-2.8-0.9
		c-2.8,0.3-5.8,3.4-6.6,4.5C112,128.7,111.3,129,110.5,129z M179.2,109.6L179.2,109.6L179.2,109.6z M179.1,109.6
		C179.1,109.6,179.1,109.6,179.1,109.6C179.1,109.6,179.1,109.6,179.1,109.6z"/>
	<path d="M100.6,114.8c-2,0-4.6-0.7-7.1-3.7c-0.7-0.8-1.7-1.8-2.7-1.8c-1,0-2,1.2-2.3,1.6c-0.8,1.1-2.3,1.4-3.5,0.7
		c-1.1-0.8-1.4-2.3-0.7-3.4c0.2-0.4,2.5-3.6,6.2-3.8c2.5-0.1,4.7,1.1,6.8,3.6c1.7,2.1,3.1,1.9,3.6,1.9c2.1-0.2,4.3-2.4,5.2-4.4
		c0.6-1.2,2.1-1.7,3.4-1.1c1.2,0.6,1.7,2.1,1.1,3.4c-1.6,3.2-5,6.6-9.1,7.1C101.3,114.8,101,114.8,100.6,114.8z"/>
	<path class="st2" d="M66.5,84.8c-2.4-0.1-4.5,1.2-6,3c-1.4,1.6-2,3.5-3.2,5.2c0.5-0.5,1.1-1.1,1.6-1.6c0.6-0.4,1.4-0.1,0.1-0.2
		c-0.4-0.1-0.9,0-1.4-0.1c-1.1,0-2.2,0.3-3.1,0.4c-2.4,0.3-4.5,1.8-4.5,4.5c0,2.2,2.1,4.8,4.5,4.5c1.4-0.2,2.6-0.4,4-0.4
		c1.6,0.1,3.2,0.1,4.6-0.7c1.6-1,2.3-2.5,3.1-4.1c0.2-0.4,0.4-0.8,0.7-1.2c0.1-0.2,0.2-0.4,0.4-0.5c0.8-0.7,0.5-0.6-0.8,0.1
		C72.3,94,72.3,85,66.5,84.8L66.5,84.8z"/>
	<path d="M44.5,132C44.5,132,44.5,132,44.5,132c-1.3,0-2.3-1-2.5-2.2c-0.4-3.9,0.9-11.4,8.7-12.7c1-0.6,3.9-2.5,3.4-5.1
		c0-0.2-0.9-4.7,3.1-9c-1.6-0.3-3.1-0.9-4.4-1.4c-0.5-0.2-1.2-0.5-1.6-0.6c-2.6,1.4-8,5-10.7,8.7c-0.7,2.5-1.5,4.4-1.7,4.9
		c-0.5,1.1-1.7,1.6-2.8,1.4c-1.1-0.3-2-1.3-2-2.4c0-2,0.7-4,1.8-5.8c0.5-2.2,0.8-4.7,0.2-6.3c-0.3-0.8-0.8-1.3-1.5-1.6
		c-2.1-0.9-3.1-2.2-3.1-3.8c0-2.9,3.4-4.3,8.1-6.2c2.2-0.9,6.2-2.5,6.8-3.5c1.1-2.2,1-2.5,0.9-3.9c-0.1-0.7-0.2-1.6-0.2-2.9
		c0-3.2,1.4-6.3,3.7-8.1c1.9-1.4,4.1-1.9,6.4-1.4c1.3,0.3,2.2,1.7,1.8,3c-0.3,1.3-1.7,2.2-3,1.8c-0.8-0.2-1.5,0-2.1,0.5
		c-1.1,0.8-1.8,2.5-1.8,4.1c0,1,0.1,1.8,0.1,2.4c0.2,2,0.3,3.4-1.4,6.7c-1.3,2.5-5.2,4.1-9.4,5.8c-1.1,0.4-2.4,1-3.5,1.5
		c1.3,0.9,2.3,2.1,2.9,3.7c0.3,0.7,0.4,1.4,0.5,2.1c3.9-3.3,8.1-5.4,8.1-5.5c1.6-0.8,3.3-0.1,5.2,0.7c1.6,0.6,3.9,1.6,5,1
		c0.6-0.3,1.1-1.4,1.4-2.9c0.7-3.6,2.4-6.3,5.1-7.9c4.5-2.7,9.9-1.1,10.1-1c1.1,0.3,1.8,1.3,1.8,2.4v2c0,0.8-0.4,1.6-1,2
		c-0.7,0.5-1.5,0.6-2.3,0.3c-3-1-4.9,1.8-5.6,3.1c0,1.8-0.8,5-6.2,8.6c-4.4,2.9-3.9,6.3-3.9,6.5c1.1,5.4-3.5,9.2-6.3,10.7
		c-0.2,0.1-0.4,0.2-0.7,0.2c7.2-0.6,9.5-1.6,10.1-2c0.1-0.3,0.2-0.6,0.4-0.8c6.8-10.2,19-8.2,19.5-8.1c1.4,0.2,2.3,1.5,2,2.9
		c-0.2,1.4-1.5,2.3-2.9,2c-0.4-0.1-9.1-1.5-14.1,5.4c-0.1,0.4-0.3,0.8-0.5,1.2c-1,1.5-3.6,3.6-14.7,4.4c-0.2,0-0.4,0-0.6,0
		c-1.1-0.2-3.6-0.2-4.1,2.9C46.8,131.1,45.7,132,44.5,132z M62.1,121.3C62.1,121.3,62.1,121.3,62.1,121.3
		C62.1,121.3,62.1,121.3,62.1,121.3z M62.1,121.3C62.1,121.3,62.1,121.3,62.1,121.3C62.1,121.3,62.1,121.3,62.1,121.3z M62.1,121.3
		C62.1,121.3,62.1,121.3,62.1,121.3S62.1,121.3,62.1,121.3z"/>
	<path d="M98.5,56c-0.9,0-1.7-0.4-2.2-1.2C96,54.3,93.2,49,95,32.2c0.7-6.1-3.1-7.1-3.9-7.3c-1-0.2-1.8-0.9-2-1.9
		c-0.2-1,0.1-2,1-2.6c0.4-0.3,4.1-2.8,8.3-1.8c2.7,0.7,4.8,2.6,6.4,5.7c2.9,5.9,4,9.6,4.3,11.9v-0.8c0-1,0.6-1.9,1.4-2.3
		c0.7-0.3,1.5-0.3,2.2,0c-0.3-0.3-0.6-0.7-0.9-1c-3-3-2.4-6.6-2-9.2c0.5-3.3,0.8-4.6-3.1-6.2c-1.1-0.4-1.7-1.5-1.5-2.6
		c0.2-1.1,1.1-2,2.2-2.2c0.4,0,9.7-1.1,15.8,4c3,2.5,4.7,6,5,10.3c0,0.2,0,0.4,0,0.7c0,0.1-0.4,2.3,0.8,4.6c0-0.2,0.1-0.4,0.1-0.6
		c1.1-5.3,3-14.2,11.4-15c1-0.1,1.9,0.4,2.4,1.3c0.5,0.9,0.4,1.9-0.2,2.7c-0.1,0.1-1.7,2.5-1,6.3c1.9-2,5.1-6.9,7.8-12
		c0.4-0.8,1.3-1.3,2.2-1.3c0.9,0,1.8,0.5,2.2,1.3c0.2,0.3,4.5,8.1,1.2,17.1c-0.5,1.4-0.9,2.6-1,3.6c7.5-9.4,12-17.4,11.5-19.3
		c-0.6-1-1.7-2.9-0.4-4.5c0.7-0.8,1.9-1.1,3-0.7c2.2,0.9,6.9,8.2,6,18.1c-0.1,1.4-1.3,2.4-2.7,2.3c-1.4-0.1-2.4-1.3-2.3-2.7
		c0.2-2.4,0-4.6-0.4-6.5c-3,6.6-9.5,14.8-14.2,20.3c-0.8,1-2.2,1.2-3.3,0.5c-0.8-0.5-4.5-3.6-1-13c1.1-2.9,1.1-5.7,0.7-7.9
		c-6.4,10.8-9.4,10.5-10.5,10.4c-0.7-0.1-2.5-0.5-3.3-2.9c-0.6-2-0.9-3.7-0.8-5.3c-1.2,2-1.9,4.9-2.6,8c-0.7,3.3-1.2,5.7-3.4,6.4
		c-0.7,0.2-2.1,0.3-3.6-1.1c-4.2-4.2-3.9-9.4-3.7-10.9c-0.3-2.9-1.3-5-3.2-6.6c-1.5-1.3-3.5-2-5.3-2.4c0.9,2.2,0.5,4.6,0.2,6.4
		c-0.4,2.6-0.5,3.8,0.6,4.9c5.9,5.9,4.7,12,4.7,12.3c-0.2,0.9-0.8,1.6-1.6,1.9c-0.8,0.3-1.8,0.1-2.4-0.4l-1.9-1.6v1.7
		c0,1-0.6,1.9-1.6,2.3c-2.7,1.1-4.6,0.5-5.7-0.3c-2.6-1.8-2.7-5.3-2.7-6c0-0.4-0.1-0.4,0.1-0.7c0-0.6-0.1-3.7-3.8-11.2
		c-0.6-1.2-1.3-2.1-2.1-2.6c1.4,2,2.3,4.8,1.8,8.8c-1.7,14.9,0.7,19.4,0.7,19.5c0.7,1.2,0.3,2.7-0.8,3.4C99.4,55.9,99,56,98.5,56z"
		/>
	<path d="M223.5,88c-1.4,0-2.5-1.1-2.5-2.5c0-2,0.8-3.8,2.4-5.1c0.8-0.7,5.2-3.6,16.1-2c-0.2-0.3-0.4-0.6-0.6-0.8
		c-2.7-2.9-9.1-3.6-11.4-3.6c-1.1,0-2-0.7-2.4-1.7c-1.1-3.3,2-6.8,4.7-9.1c-0.5-0.3-0.9-0.3-1.1-0.3c-3.6,0.1-9.4,7.5-12.3,12.7
		c-0.7,1.2-2.2,1.6-3.4,1c-1.2-0.7-1.6-2.2-1-3.4c1.4-2.5,8.8-15,16.5-15.3c1.9-0.1,4.7,0.6,7,4.2c0.7,1.1,0.4,2.6-0.7,3.4
		c-1.6,1.1-3.1,2.5-4.1,3.7c3.5,0.4,8.7,1.6,11.7,5c1.8,2,2.7,4.6,2.4,7.5c-0.1,0.7-0.4,1.3-1,1.8c-0.6,0.4-1.3,0.6-2,0.4
		c-4.9-1-13-1.6-15.4,0.4c-0.4,0.3-0.5,0.7-0.5,1.2C226,86.9,224.9,88,223.5,88z"/>
	<path d="M229.4,122.7c-1.3,0-2.3-1-2.5-2.2c-0.2-1.6,0.4-3,1.5-4.1c3.2-3.2,11.6-3.2,16.7-2.8c-1.5-1.1-5.1-1.3-7.9-1.5
		c-4.6-0.3-9.4-0.5-10.1-4.6c-0.3-1.4,0.1-2.8,1-3.9c1.7-2,5.3-3,8.8-3.5c-5.8-5.4-9.2-13.3-9.4-13.7c-0.5-1.3,0.1-2.7,1.3-3.3
		c1.3-0.5,2.7,0.1,3.3,1.3c0.1,0.2,5.5,12.8,13.5,15.3c1.2,0.4,1.9,1.5,1.7,2.8c-0.2,1.2-1.2,2.1-2.5,2.1c-5.2,0-10.9,0.9-12.6,1.9
		c1.1,0.4,3.6,0.5,5.2,0.6c4.4,0.3,9.4,0.5,11.9,3.7c1.2,1.6,1.7,3.6,1.2,6c-0.2,1.3-1.4,2.2-2.8,2c-8.1-1-15.3-0.2-16.1,1.2
		c0.1,1.4-0.9,2.6-2.2,2.7C229.6,122.7,229.5,122.7,229.4,122.7z"/>
	<path class="st2" d="M211.7,133c2,1.7,4.1,3,6.7,3.6c1.5,0.4,3.7,0.1,5.1,0.5c1.7,0.5,2.6,1.5,3.9,2.6c3.8,3.2,8.1,4.2,12.9,3
		c3.7-0.9,2.2-6.7-1.6-5.8c-5.1,1.3-6.8-2.3-10.6-4.4c-3.9-2.2-8.6-0.6-12.1-3.7C213,126.2,208.7,130.4,211.7,133L211.7,133z"/>
	<path d="M238.1,147.7c-3.5,0-7-1.7-10.4-5.2c-1-1-1-2.6,0-3.5c1-1,2.6-1,3.5,0c2.7,2.8,5.3,4,7.7,3.6c1.1-0.2,2.1-0.7,3-1.3
		c-1.5-1.5-2.1-4.1-2.5-6.1c-0.6-3.2-2.6-5.4-6-6.5c-2.7-0.9-5.3-0.8-5.3-0.8c-1.4,0.1-2.6-1-2.6-2.4s1-2.6,2.4-2.6
		c4.9-0.2,14.6,1.8,16.4,11.4c0.3,1.7,0.7,2.6,0.9,3.1c0.2-0.2,0.5-0.5,0.7-0.8c0.7-1.1,2.2-1.5,3.4-0.8c1.2,0.7,1.6,2.1,1,3.3
		c-0.2,0.3-3.9,7.5-10.6,8.5C239.2,147.6,238.6,147.7,238.1,147.7z"/>
	<path d="M227.8,169.3c-0.9,0-1.7-0.4-2.2-1.2l-4.8-8.2c-0.6-0.9-0.4-2.1,0.3-2.9s1.9-1.1,2.9-0.6c2.4,1.1,4.3,1.5,5.8,1.6
		c-2.9-3-5-7.2-5.6-8.5c-0.6-1.3,0-2.7,1.2-3.3c1.3-0.6,2.7,0,3.3,1.2c2.4,5.2,5.8,8.8,7.1,8.5c1-0.2,2.1,0.2,2.7,1.2
		s0.4,2.1-0.3,2.9c-0.2,0.2-3.3,3.7-10,2.8l1.6,2.7c0.7,1.2,0.3,2.7-0.9,3.4C228.6,169.2,228.2,169.3,227.8,169.3z"/>
	<path d="M214.5,228c-0.8,0-1.5-0.3-2-1c-0.2-0.2-4.9-6.1-12.7-5.1c-1.4,0.2-2.6-0.8-2.8-2.1c-0.2-1.4,0.8-2.6,2.1-2.8
		c4.2-0.6,7.7,0.3,10.4,1.6l-2-6.2c-0.3-0.9,0-2,0.7-2.6c0.7-0.7,1.8-0.8,2.7-0.4c3,1.4,5.3,1.7,7,1.6c-2.2-3.5-2.8-9-2.9-10.3
		c-0.1-1.4,0.9-2.6,2.3-2.7c1.4-0.1,2.6,0.9,2.7,2.3c0.4,4.3,1.9,8.5,2.8,8.7c1.1-0.2,2.2,0.2,2.7,1.2s0.5,2.1-0.2,2.9
		c-0.2,0.2-3.8,4.2-11.4,2.5l3,9.1c0.4,1.2-0.1,2.4-1.2,3C215.3,227.9,214.9,228,214.5,228z"/>
	<path d="M61.4,151.1c-1.5,0-2.7-0.6-3.5-1c-0.1-0.1-0.3-0.2-0.5-0.2c-3.7,1.8-6.4,1.1-8,0.2c-5.1-2.9-5.9-11.5-5.9-12.4
		c-0.1-1.4,0.9-2.5,2.3-2.7c1.4-0.1,2.6,0.9,2.7,2.2c0.1,0.4,0.2,1,0.4,1.3c0.4-0.2,1.3-0.9,2.6-2.6c4.9-6.3,7.4-6.9,11.7-6.1
		c0.4,0.1,0.8,0.1,1.2,0.2c1.6,0.2,4.2-2,5.3-3.2c0.9-1,2.5-1.2,3.5-0.2c1,0.9,1.2,2.5,0.2,3.5c-0.5,0.6-4.9,5.5-9.8,4.8
		c-0.5-0.1-1-0.2-1.5-0.2c-2.1-0.4-3-0.6-6.8,4.3c-0.8,1-2.8,3.6-5.3,4.4c0.5,1,1.1,1.9,1.8,2.3c0.3,0.2,1.3,0.7,3.6-0.5
		c1.9-1,3.7-0.1,4.7,0.4c0.8,0.4,1.1,0.5,1.4,0.4c1.3-0.4,2.7,0.3,3.1,1.7s-0.3,2.7-1.7,3.1C62.4,151.1,61.9,151.1,61.4,151.1z"/>
	<path d="M48.1,171c-1,0-2-0.7-2.4-1.7c-0.4-1.3,0.3-2.7,1.6-3.2l3-1c-5.6-3.7-5.7-8.4-5.7-8.6c0-1.1,0.7-2,1.7-2.4
		c1-0.3,2.1,0,2.8,0.9c0.8,1.1,5.8,0.6,11-1.8c1.3-0.6,2.7,0,3.3,1.2c0.6,1.3,0,2.7-1.2,3.3c-1.3,0.6-5.6,2.4-9.8,2.7
		c1.2,0.9,3,1.9,5.5,2.6c1,0.3,1.8,1.3,1.8,2.4c0,1.1-0.7,2.1-1.7,2.4l-9,3C48.7,171,48.4,171,48.1,171z"/>
	<path class="st2" d="M212.5,171.9c1.8,2.2,2.1,5.2,2.5,7.9c0.4,2.8,0.8,5.6,1.1,8.4c0.3,3.8,6.3,3.9,6,0c-0.5-6.8-0.9-15-5.3-20.5
		C214.3,164.6,210.1,168.9,212.5,171.9L212.5,171.9z"/>
	<path d="M227.9,203.2c-0.9,0-1.7-0.4-2.2-1.2c-0.3-0.5-0.7-1.1-1.1-1.9c-1.6-2.4-5.5-6.1-12.4-4.2c-1.3,0.4-2.7-0.4-3.1-1.8
		c-0.4-1.3,0.4-2.7,1.8-3.1c3.7-1,6.9-0.8,9.6,0c-1.1-3.1-1.6-6.2-0.8-8.2c0.5-1.3,1.5-2.3,2.8-2.7c1.1-0.3,2.2,0.1,2.9,1
		c0.2,0.2,3.9,5.8,9.9,3.9c0.2-0.1,0.4-0.2,0.7-0.4c-4.8-2.7-9.5-6.7-8.5-11.9c0.3-1.4,1.6-2.2,2.9-2c1.4,0.3,2.2,1.6,2,2.9
		c-0.6,3.1,5.2,6.6,10.6,8.8c0,0,0,0,0,0c1.7,0,3.4,0.5,4.6,2c0.7,0.9,0.8,2.1,0.1,3c-0.6,0.9-1.8,1.3-2.8,1
		c-0.4-0.1-1.4-0.4-2.7-0.9c-1.3,0.2-3,0.9-4.6,1.9c-0.2,0.1-0.3,0.2-0.5,0.2c-5.1,1.8-9.5,0.1-12.5-2.2c0.7,2.5,2.3,6.3,4.3,9.9
		c0.5,0.8,1,1.6,1.3,2.3c0.5,1.2,0,2.6-1.2,3.2C228.7,203.1,228.3,203.2,227.9,203.2z"/>
	<path class="st3" d="M108.1,135.4c0.2,6.7-1.7,14.5-4.8,20.4c-3.5,6.9,6.8,12.9,10.4,6.1c4.1-7.9,6.6-17.6,6.4-26.5
		C120,127.7,108,127.7,108.1,135.4L108.1,135.4z"/>
	<path d="M102.5,162c-0.6,0-1.2-0.2-1.7-0.7c-1-0.9-1.1-2.5-0.1-3.5c12.8-13.8,4.5-41.3,4.4-41.6c-0.4-1.3,0.3-2.7,1.6-3.1
		c1.3-0.4,2.7,0.3,3.1,1.6c0.4,1.2,9.3,30.6-5.6,46.4C103.8,161.7,103.2,162,102.5,162z"/>
	<path d="M52.4,198.8c-0.7,0-1.5-0.3-2-1c-0.8-1-0.7-2.4,0.2-3.3c3.5-3.5,6.7-7.5,8.3-10.2c-3.5,1.4-8.1,1.9-12.6-1.1
		c-0.2-0.1-0.3-0.2-0.4-0.4c-1.2-1.3-2.8-2.4-3.9-3c-1.4,0.1-2.5,0.2-2.9,0.2c-1.1,0-2.1-0.6-2.5-1.7c-0.4-1,0-2.2,0.9-2.8
		c1.6-1.1,3.3-1.2,5-0.8c5.8-0.7,12.3-2.7,12.6-5.8c0.1-1.4,1.3-2.4,2.7-2.3c1.4,0.1,2.4,1.3,2.3,2.7c-0.4,5.3-5.9,8-11.3,9.4
		c0.2,0.2,0.4,0.4,0.5,0.5c5.3,3.3,10.3-1.1,10.6-1.3c0.8-0.7,2.1-0.8,3-0.2c1.2,0.7,1.9,1.9,2.1,3.3c0.3,2.6-1.7,6.1-4,9.3
		c1.2-0.2,2.4-0.4,3.6-0.4c1.4,0,2.5,1.1,2.5,2.5s-1.1,2.5-2.5,2.5c-4.3,0-9.2,2.4-10.8,3.4C53.3,198.6,52.9,198.8,52.4,198.8z"/>
	<path class="st2" d="M108.6,79.3c1.5,0,2.9-0.4,4.4-0.4c1.5,0.1,2.9,0.1,4.4,0.1c0.2,0,0.4,0,0.6,0c1,0,0.9-0.1-0.5-0.5
		c0.2-0.1,1.3,0.7,1.4,0.8c1.1,0.6,2.2,1.3,3.4,1.5c5.6,1.3,8-7.4,2.4-8.7c-0.4-0.1-1.7-0.9-2.5-1.3c-1.5-0.7-2.6-0.8-4.2-0.9
		c-1.1,0-2.7,0.1-3.4,0.1c-2-0.1-4,0.2-6,0.2C102.8,70.2,102.8,79.2,108.6,79.3L108.6,79.3z"/>
	<path class="st2" d="M113.5,66c0.2,0,0.5,0,0.7,0c-0.4-0.1-0.8-0.1-1.2-0.2c0.3,0,0.6,0.1,0.8,0.2c-0.4-0.2-0.7-0.3-1.1-0.5
		c0.2,0.1,0.3,0.2,0.5,0.3c-0.3-0.2-0.6-0.5-0.9-0.7c0.1,0.1,0.2,0.2,0.3,0.3c-0.2-0.3-0.5-0.6-0.7-0.9c0.1,0.1,0.1,0.2,0.2,0.3
		c-0.2-0.4-0.3-0.7-0.5-1.1c0,0.1,0.1,0.2,0.1,0.3c-0.1-0.4-0.1-0.8-0.2-1.2c0,0.1,0,0.3,0,0.4c0.1-0.4,0.1-0.8,0.2-1.2
		c0,0.1-0.1,0.3-0.1,0.4c0.2-0.4,0.3-0.7,0.5-1.1c-0.1,0.2-0.2,0.3-0.3,0.5c0.2-0.3,0.5-0.6,0.7-0.9c-0.1,0.1-0.1,0.1-0.2,0.2
		c-1.6,1.7-1.8,4.7,0,6.4c1.8,1.6,4.6,1.8,6.4,0c1.7-1.8,2.4-4.4,1.4-6.8c-1.1-2.7-3.8-3.9-6.6-3.9c-2.4,0-4.6,2.1-4.5,4.5
		C109.1,64,111,66,113.5,66L113.5,66z"/>
	<path d="M129.5,80c-0.3,0-0.6,0-0.9-0.2c-0.3-0.1-4.7-1.8-8.3-5.1c-3.7-1.6-8.4-2.4-12.7,0c-1.2,0.7-2.7,0.2-3.4-1
		c-0.7-1.2-0.2-2.7,1-3.4c3.8-2.1,7.6-2.4,11.1-1.9c-0.2-0.9-0.4-1.9-0.4-2.9c0-1.8-0.4-3-1.2-3.7c-1.1-1-2.9-0.8-2.9-0.8
		c-1.4,0.2-2.6-0.8-2.8-2.1c-0.2-1.4,0.8-2.6,2.1-2.8c0.4-0.1,4.1-0.5,6.9,2c2,1.7,2.9,4.2,2.9,7.5c0,1.9,0.9,3.6,2.2,5
		c4.6,2.1,7.7,4.9,8,5.2c0.9,0.8,1.1,2.1,0.4,3.1C131.2,79.6,130.4,80,129.5,80z"/>
	<circle class="st2" cx="85" cy="175.5" r="1.5"/>
	<circle class="st2" cx="158" cy="179.5" r="1.5"/>
	<circle class="st2" cx="159" cy="187.5" r="1.5"/>
	<circle class="st2" cx="167" cy="182.5" r="1.5"/>
	<circle class="st2" cx="84" cy="187.5" r="1.5"/>
	<circle class="st2" cx="80" cy="182.5" r="1.5"/>
</g>
</svg>
