<?xml version="1.0" encoding="utf-8"?>
<svg version="1.1" id="resource-icon" xmlns="http://www.w3.org/2000/svg" xmlns:xlink="http://www.w3.org/1999/xlink" x="0px" y="0px"
	 viewBox="0 0 30 30" style="enable-background:new 0 0 30 30;" xml:space="preserve">
<path id="book-bookmark" class="st4" d="M11.7,9.7l-2.8,1l5.3,14.5l10.4-3.8L19.4,7.3l-0.1-0.3L18.9,7c-0.6,0.2-1.2-0.1-1.4-0.7
	c-0.2-0.6,0.1-1.2,0.7-1.4l0.3-0.1l-0.3-0.7L6.2,8.5c-1,0.3-1.4,1.4-1.1,2.4l4.9,13.5c0.4,1.1,1.7,1.7,2.8,1.3l0.7-0.3L8.2,10.9
	l-1,0.4c-0.6,0.2-1.2-0.1-1.4-0.7c-0.2-0.6,0.1-1.2,0.7-1.4l10.4-3.8c0,0-0.2,0.6,0,1.1c0.2,0.5,0.7,0.9,0.7,0.9l-1.7,0.6l3,8.3
	L16,15.2L14.7,18L11.7,9.7L11.7,9.7z M12.4,9.4l2.4,6.6l0.9-1.9l1.9,0.9l-2.4-6.6L12.4,9.4L12.4,9.4z"/>
</svg>
