
<svg viewBox="0 0 52 52" version="1.1" xmlns="http://www.w3.org/2000/svg" xmlns:xlink="http://www.w3.org/1999/xlink">
    <g id="settings" stroke="none" stroke-width="1" fill="none" fill-rule="evenodd">
        <g transform="translate(-1.000000, 0.000000)" fill-rule="nonzero" stroke="#FFFFFF" stroke-width="3">
            <g transform="translate(2.000000, 1.000000)" id="Shape-path">
                <path d="M43.1311908,27.6983435 C43.1311908,26.9429341 43.3828426,26.1875248 43.3828426,25.1803123 C43.3828426,24.1730998 43.3828426,23.4176904 43.1311908,22.6622811 L48.4158796,18.381628 C48.9191833,17.8780217 48.9191833,17.3744155 48.6675315,16.8708092 L43.6344945,8.05769993 C43.3828426,7.80589681 42.8795389,7.55409368 42.1245834,7.80589681 L35.8332871,10.323928 C34.5750278,9.31671554 33.0651167,8.56130617 31.5552056,7.80589681 L30.5485982,1.25901561 C30.8002501,0.503606246 30.0452945,0 29.5419908,0 L19.4759168,0 C18.9726131,0 18.2176575,0.503606246 18.2176575,1.00721249 L17.2110501,7.80589681 C15.701139,8.30950305 14.4428798,9.31671554 12.9329686,10.323928 L6.89332422,7.80589681 C6.13836867,7.55409368 5.63506496,7.80589681 5.13176126,8.30950305 L0.0987242405,17.1226123 C-0.152927611,17.3744155 0.0987242405,18.1298248 0.602027943,18.6334311 L5.88671682,22.6622811 C5.88671682,23.4176904 5.63506496,24.1730998 5.63506496,25.1803123 C5.63506496,26.1875248 5.63506496,26.9429341 5.88671682,27.6983435 L0.602027943,31.9789966 C0.0987242405,32.4826028 0.0987242405,32.9862091 0.350376092,33.4898153 L5.38341311,42.3029246 C5.63506496,42.5547278 6.13836867,42.8065309 6.89332422,42.5547278 L13.1846205,40.0366965 C14.4428798,41.043909 15.9527909,41.7993184 17.462702,42.5547278 L18.4693094,49.1016089 C18.4693094,49.6052152 18.9726131,50.1088214 19.7275686,50.1088214 L29.7936427,50.1088214 C30.2969464,50.1088214 31.0519019,49.6052152 31.0519019,49.1016089 L32.0585093,42.5547278 C33.5684204,41.7993184 35.0783315,41.043909 36.3365908,40.0366965 L42.6278871,42.5547278 C43.1311908,42.8065309 43.8861463,42.5547278 44.1377982,42.0511215 L49.1708352,33.2380122 C49.4224871,32.734406 49.4224871,31.9789966 48.9191833,31.7271935 L43.1311908,27.6983435 Z"></path>
                <path d="M24.1853374,34.3502055 C19.2101233,34.3502055 15.0204693,30.1605515 15.0204693,25.1853374 C15.0204693,20.2101233 19.2101233,16.0204693 24.1853374,16.0204693 C29.1605515,16.0204693 33.3502055,20.2101233 33.3502055,25.1853374 C33.3502055,30.1605515 29.1605515,34.3502055 24.1853374,34.3502055 Z"></path>
            </g>
        </g>
    </g>
</svg>