<?xml version="1.0" encoding="utf-8"?>
<!-- Generator: Adobe Illustrator 23.0.0, SVG Export Plug-In . SVG Version: 6.00 Build 0)  -->
<svg version="1.1" id="Ebene_1" xmlns="http://www.w3.org/2000/svg" xmlns:xlink="http://www.w3.org/1999/xlink" x="0px" y="0px"
	 viewBox="0 0 541 363.9" style="enable-background:new 0 0 541 363.9;" xml:space="preserve">
<style type="text/css">
	.st0{fill-rule:evenodd;clip-rule:evenodd;fill:#69BFAF;}
</style>
<g id="Page-1">
	<g id="Intro_v2-3-Copy-3" transform="translate(-630.000000, -524.000000)">
		<g id="dialogue-box" transform="translate(630.000000, 524.000000)">
			<path id="Path-4" class="st0" d="M436.8,363.9c-43.3-22.3-56.7-25.2-63.7-52.7c-10.1-20.6-53.3-0.5-163.3-0.5s-84.2-7.9-145.6,0
				c-26,2.1-52.5,0-61.3-30.5s5.8-108.1,0-167S-0.2,2.8,32.3,2.8s99.3,5.3,151.9,5.3s89.3-5.3,114.5-5.3c25.2,0,59.8,2.4,101.1,2.4
				c41.3,0,112.4-19.6,125.4,17.8c13,37.3,38.7,280-28,288.4c-31.5,8.4-58.5-9.2-72.8,8.4C424.3,319.7,417.1,323.3,436.8,363.9z"/>
		</g>
	</g>
</g>
</svg>
