<?xml version="1.0" encoding="utf-8"?>
<!-- Generator: Adobe Illustrator 23.0.0, SVG Export Plug-In . SVG Version: 6.00 Build 0)  -->
<svg version="1.1" id="Ebene_1" xmlns="http://www.w3.org/2000/svg" xmlns:xlink="http://www.w3.org/1999/xlink" x="0px" y="0px"
	 viewBox="0 0 541 286" style="enable-background:new 0 0 541 286;" xml:space="preserve">
<style type="text/css">
	.st0{fill-rule:evenodd;clip-rule:evenodd;fill:#69BFAF;}
</style>
<g id="Page-1">
	<g id="Intro_v2-3-Copy-3" transform="translate(-630.000000, -524.000000)">
		<g id="dialogue-box" transform="translate(630.000000, 524.000000)">
			<path id="Path-4" class="st0" d="M420.5,217.5c-28.4-18.9-49.4-27.3-49.4-45.8c-10.1-14.4-53.3-0.4-163.3-0.4s-84.2-5.5-145.6,0
				c-26,1.5-57.7,0.8-58.3-28.4c-0.5-26.4,1.3-28.5,0-63.8C-1.9,38.1,0.8,1.9,33.3,1.9s99.3,3.7,151.9,3.7s89.3-3.7,114.5-3.7
				c25.2,0,59.8,1.7,101.1,1.7C442,3.6,513.1-10.1,526.1,16c13,26.1,35.9,149.9-30.9,155.7c-31.5,5.9-58.5-6.4-72.8,5.9
				C412.9,185.8,408.8,194.9,420.5,217.5z"/>
		</g>
	</g>
</g>
</svg>
