
<svg width="542px" height="356px" viewBox="0 0 542 356" version="1.1" xmlns="http://www.w3.org/2000/svg" xmlns:xlink="http://www.w3.org/1999/xlink">
    <g id="Page-1" stroke="none" stroke-width="1" fill="none" fill-rule="evenodd">
        <g id="Intro_v2-3-Copy-2" transform="translate(-630.000000, -523.000000)" fill="#69BFAF">
            <g id="dialogue-box" transform="translate(630.000000, 523.000000)">
                <path d="M111.049075,355.927682 C149.231574,322.310049 168.322823,294.000463 168.322823,270.998925 C178.383947,253.084265 221.565899,270.555199 331.576112,270.555199 C441.586324,270.555199 415.678756,263.70036 477.074886,270.555199 C503.107022,272.385256 529.513023,270.555199 538.295767,244.063343 C547.07851,217.571486 532.495142,150.162839 538.295767,99 C544.096391,47.8371608 541.433202,2.94253447 508.90342,2.94253447 C476.373638,2.94253447 409.629813,7.54316809 357.133322,7.54316809 C304.63683,7.54316809 267.863,2.94253447 242.686311,2.94253447 C217.509622,2.94253447 182.961805,5 141.686311,5 C100.410817,5 29.3859224,-12 16.4008249,20.4393296 C3.41572735,52.8786592 -22.3230311,263.70036 44.3630222,270.998925 C75.8084782,278.29749 102.858858,263.036854 117.11508,278.29749 C126.619228,288.471247 124.597226,314.347978 111.049075,355.927682 Z" id="Path-4" transform="translate(270.843155, 178.237835) scale(-1, 1) translate(-270.843155, -178.237835) "></path>
            </g>
        </g>
    </g>
</svg>