<?xml version="1.0" encoding="utf-8"?>
<!-- Generator: Adobe Illustrator 23.0.0, SVG Export Plug-In . SVG Version: 6.00 Build 0)  -->
<svg version="1.1" id="Ebene_1" xmlns="http://www.w3.org/2000/svg" xmlns:xlink="http://www.w3.org/1999/xlink" x="0px" y="0px"
	 viewBox="0 0 541 286" style="enable-background:new 0 0 541 286;" xml:space="preserve">
<style type="text/css">
	.st0{fill-rule:evenodd;clip-rule:evenodd;fill:#F21D2F;}
</style>
<g id="Page-1">
	<g id="Intro_v2-3-Copy-3" transform="translate(-630.000000, -524.000000)">
		<g id="dialogue-box" transform="translate(630.000000, 524.000000)">
			<path id="Path-4" class="st0" d="M430.4,286c-38.2-27.1-57.3-49.8-57.3-68.3c-10.1-14.4-53.3-0.4-163.3-0.4s-84.2-5.5-145.6,0
				c-26,1.5-52.5,0-61.3-21.3s5.8-75.6,0-116.7S-0.2,1.9,32.3,1.9s99.3,3.7,151.9,3.7s89.3-3.7,114.5-3.7c25.2,0,59.8,1.7,101.1,1.7
				C441,3.6,512.1-10.1,525.1,16c13,26.1,38.7,195.8-28,201.6c-31.5,5.9-58.5-6.4-72.8,5.9C414.8,231.7,416.8,252.5,430.4,286z"/>
		</g>
	</g>
</g>
</svg>
