<?xml version="1.0" encoding="utf-8"?>
<svg version="1.1" id="switch-icon" xmlns="http://www.w3.org/2000/svg" xmlns:xlink="http://www.w3.org/1999/xlink" x="0px" y="0px"
	 viewBox="0 0 30 30" style="enable-background:new 0 0 30 30;" xml:space="preserve">
<polygon points="26.2,26.9 26.1,20.9 29.6,23.8 "/>
<polygon points="26.2,9.1 26.1,3.1 29.6,6 "/>
<path d="M11.6,11.1l-2.1,2.2L4.8,8.4C4,7.5,3.3,7.6,3.2,7.6l-0.1,0H0.4v-3h2.5C3.5,4.5,5.3,4.5,7,6.3L11.6,11.1z"/>
<path d="M26.8,22.4v3h-3.4c-2.5,0-4.4-2.1-4.6-2.4l-4-4.1l2.1-2.2L21,21c0.3,0.4,1.4,1.4,2.4,1.4H26.8z"/>
<path d="M3.3,25.4c-0.2,0-0.3,0-0.4,0H0.4v-3l2.9,0c0,0,0.8,0.1,1.6-0.8l14-14.7c0.2-0.2,2-2.3,4.6-2.3h3.4v3h-3.4c-1,0-2,1-2.3,1.3
	L7,23.7C5.6,25.1,4.1,25.4,3.3,25.4z"/>
</svg>
