<?xml version="1.0" encoding="utf-8"?>
<svg id="usecase-icon"  xmlns="http://www.w3.org/2000/svg" xmlns:xlink="http://www.w3.org/1999/xlink" x="0px" y="0px"
	 viewBox="0 0 30 30" style="enable-background:new 0 0 30 30;" xml:space="preserve">
     <path d="M15,6.87a8.13,8.13,0,0,1,7.57,5A8.05,8.05,0,0,1,23.13,15a8.41,8.41,0,0,1-.59,3.12,7.16,7.16,0,0,1-1.73,2.57,8.64,8.64,0,0,1-2.69,1.8,8.25,8.25,0,0,1-3.12.64,8,8,0,0,1-3.07-.61,8.37,8.37,0,0,1-2.64-1.78A7.87,7.87,0,0,1,6.87,15a8.23,8.23,0,0,1,.61-3.1A8.06,8.06,0,0,1,9.29,9.24,7.66,7.66,0,0,1,15,6.87ZM15,8.35a6.35,6.35,0,0,0-4.7,2,6.85,6.85,0,0,0-1.47,2.16A6.14,6.14,0,0,0,8.35,15,6.71,6.71,0,0,0,15,21.63a6.77,6.77,0,0,0,2.54-.51,7.12,7.12,0,0,0,2.21-1.47A6.26,6.26,0,0,0,21.65,15a6.73,6.73,0,0,0-.48-2.56,6.28,6.28,0,0,0-1.45-2.16A6.37,6.37,0,0,0,15,8.35Zm-.11,5.3-1.09.56a1,1,0,0,0-.43-.5.91.91,0,0,0-.48-.16c-.74,0-1.09.49-1.09,1.45a1.78,1.78,0,0,0,.28,1,.92.92,0,0,0,.81.38,1,1,0,0,0,1-.68l1,.5a2.19,2.19,0,0,1-.89.94,2.33,2.33,0,0,1-1.24.33A2.37,2.37,0,0,1,11,16.85,2.48,2.48,0,0,1,10.35,15,2.51,2.51,0,0,1,11,13.15a2.28,2.28,0,0,1,1.7-.69A2.38,2.38,0,0,1,14.92,13.65Zm4.68,0-1.07.56a1.08,1.08,0,0,0-.43-.5.91.91,0,0,0-.48-.16c-.74,0-1.1.49-1.1,1.45a1.86,1.86,0,0,0,.28,1,1,1,0,0,0,.82.38,1,1,0,0,0,1-.68l1,.5a2.52,2.52,0,0,1-.89.94,2.31,2.31,0,0,1-1.24.33,2.33,2.33,0,0,1-1.75-.66A2.52,2.52,0,0,1,15.08,15a2.5,2.5,0,0,1,.68-1.85,2.3,2.3,0,0,1,1.7-.69A2.34,2.34,0,0,1,19.6,13.65Z"/><path d="M25.74,8.3V9.72a.24.24,0,0,1-.07.16.25.25,0,0,1-.17.08H24.08a.23.23,0,0,1-.17-.08.2.2,0,0,1-.07-.16V8.3a.24.24,0,0,1,.24-.24H25.5a.23.23,0,0,1,.17.07A.26.26,0,0,1,25.74,8.3Zm1.87-3.56a2,2,0,0,1-.09.6,1.89,1.89,0,0,1-.21.45,1.45,1.45,0,0,1-.32.35,3.11,3.11,0,0,1-.34.26l-.37.21a1.15,1.15,0,0,0-.4.39.78.78,0,0,0-.17.39.31.31,0,0,1-.07.2.19.19,0,0,1-.16.09H24.05a.18.18,0,0,1-.15-.11.46.46,0,0,1-.06-.22V7.08a1.37,1.37,0,0,1,.39-.93,2.51,2.51,0,0,1,.84-.64,1.53,1.53,0,0,0,.5-.33.69.69,0,0,0,.15-.46.51.51,0,0,0-.28-.43,1,1,0,0,0-.63-.19,1.07,1.07,0,0,0-.64.17,4,4,0,0,0-.64.68.23.23,0,0,1-.18.09.28.28,0,0,1-.15,0l-1-.74a.25.25,0,0,1-.1-.15.33.33,0,0,1,0-.17,3,3,0,0,1,2.75-1.58,2.68,2.68,0,0,1,.95.19,3.1,3.1,0,0,1,.87.49,2.44,2.44,0,0,1,.63.76A1.93,1.93,0,0,1,27.61,4.74Z"/>
     <path d="M6.73,25.39v1.16a.18.18,0,0,1-.06.14.16.16,0,0,1-.13.06H5.37a.18.18,0,0,1-.13-.06.18.18,0,0,1-.06-.14V25.39a.2.2,0,0,1,.06-.14.18.18,0,0,1,.13-.06H6.54a.16.16,0,0,1,.13.06A.2.2,0,0,1,6.73,25.39Zm1.54-2.91a1.62,1.62,0,0,1-.08.49,1.84,1.84,0,0,1-.17.37,1.41,1.41,0,0,1-.27.29l-.27.21-.3.17a.92.92,0,0,0-.33.32.64.64,0,0,0-.14.32.3.3,0,0,1,0,.16.17.17,0,0,1-.14.07H5.35a.15.15,0,0,1-.12-.09.41.41,0,0,1-.05-.18v-.22a1.09,1.09,0,0,1,.32-.76,2.1,2.1,0,0,1,.69-.52,1.31,1.31,0,0,0,.41-.27.57.57,0,0,0,.12-.37.44.44,0,0,0-.23-.36A.85.85,0,0,0,6,22a.94.94,0,0,0-.52.14,3,3,0,0,0-.52.56.21.21,0,0,1-.15.08.19.19,0,0,1-.12,0l-.8-.61A.2.2,0,0,1,3.78,22a.19.19,0,0,1,0-.13,2.47,2.47,0,0,1,2.25-1.3,2.16,2.16,0,0,1,.78.15,2.75,2.75,0,0,1,.71.41,2,2,0,0,1,.52.62A1.61,1.61,0,0,1,8.27,22.48Z"/>
     <path d="M8.46,4.74v.59a.11.11,0,0,1,0,.07l-.06,0H7.78l-.07,0a.11.11,0,0,1,0-.07V4.74a.07.07,0,0,1,0-.06.11.11,0,0,1,.07,0h.59a.09.09,0,0,1,.06,0A.07.07,0,0,1,8.46,4.74Zm.77-1.46a.69.69,0,0,1,0,.25.68.68,0,0,1-.08.19L9,3.86,8.84,4l-.15.08a.52.52,0,0,0-.17.16.4.4,0,0,0-.07.16.11.11,0,0,1,0,.08.06.06,0,0,1-.06,0H7.77a.07.07,0,0,1-.06,0,.17.17,0,0,1,0-.1V4.24a.61.61,0,0,1,.16-.38,1.06,1.06,0,0,1,.35-.26.59.59,0,0,0,.21-.14.24.24,0,0,0,.06-.18.21.21,0,0,0-.12-.18A.45.45,0,0,0,8.08,3a.44.44,0,0,0-.26.07,1.92,1.92,0,0,0-.26.28.09.09,0,0,1-.08,0l-.06,0L7,3.09A.09.09,0,0,1,7,3,.08.08,0,0,1,7,3a1.24,1.24,0,0,1,1.13-.65,1.09,1.09,0,0,1,.39.08,1.1,1.1,0,0,1,.35.2.86.86,0,0,1,.26.31A.75.75,0,0,1,9.23,3.28Z"/>
     <path d="M22,26.07v.59a.11.11,0,0,1,0,.07.09.09,0,0,1-.07,0h-.58a.09.09,0,0,1-.07,0,.11.11,0,0,1,0-.07v-.59a.09.09,0,0,1,0-.06.09.09,0,0,1,.07,0h.58A.09.09,0,0,1,22,26,.09.09,0,0,1,22,26.07Zm.77-1.46a1,1,0,0,1,0,.25.67.67,0,0,1-.09.19.79.79,0,0,1-.13.14l-.14.11-.15.08a.64.64,0,0,0-.17.16.35.35,0,0,0-.06.16.11.11,0,0,1,0,.08.08.08,0,0,1-.07,0h-.58a.08.08,0,0,1-.07,0,.3.3,0,0,1,0-.1v-.1a.56.56,0,0,1,.16-.39,1.1,1.1,0,0,1,.35-.26.54.54,0,0,0,.2-.14.24.24,0,0,0,.06-.18.22.22,0,0,0-.11-.18.5.5,0,0,0-.26-.08.54.54,0,0,0-.27.07,2.75,2.75,0,0,0-.26.28.08.08,0,0,1-.07,0l-.06,0-.4-.3s0,0,0-.06a.15.15,0,0,1,0-.07,1.25,1.25,0,0,1,1.13-.65,1.09,1.09,0,0,1,.39.08,1.15,1.15,0,0,1,.36.2,1.13,1.13,0,0,1,.26.31A.86.86,0,0,1,22.78,24.61Z"/>
     <path d="M26.69,22.24v.9a.13.13,0,0,1,0,.1.14.14,0,0,1-.1.05h-.9a.18.18,0,0,1-.15-.15v-.9a.18.18,0,0,1,.15-.15h.9a.14.14,0,0,1,.1.05A.13.13,0,0,1,26.69,22.24ZM27.87,20a1.21,1.21,0,0,1-.06.38.91.91,0,0,1-.13.28,1,1,0,0,1-.2.22,1.06,1.06,0,0,1-.22.16l-.22.14a.66.66,0,0,0-.26.24.48.48,0,0,0-.1.25.28.28,0,0,1,0,.12.14.14,0,0,1-.11.06h-.89s-.07,0-.1-.07a.43.43,0,0,1,0-.14v-.17a.82.82,0,0,1,.25-.58,1.46,1.46,0,0,1,.53-.41.76.76,0,0,0,.31-.21.41.41,0,0,0,.09-.28.32.32,0,0,0-.17-.27.7.7,0,0,0-.4-.12.63.63,0,0,0-.4.11,2.36,2.36,0,0,0-.4.42.14.14,0,0,1-.12.06.16.16,0,0,1-.09,0l-.61-.46a.21.21,0,0,1-.06-.1.18.18,0,0,1,0-.1,1.91,1.91,0,0,1,1.73-1,1.61,1.61,0,0,1,.6.12,2,2,0,0,1,.54.3,1.43,1.43,0,0,1,.4.48A1.23,1.23,0,0,1,27.87,20Z"/>
     <path d="M5.86,9.69v.89a.16.16,0,0,1-.05.11.13.13,0,0,1-.1,0H4.82a.14.14,0,0,1-.15-.15V9.69a.14.14,0,0,1,.15-.15h.89a.13.13,0,0,1,.1,0A.16.16,0,0,1,5.86,9.69ZM7,7.45A1.16,1.16,0,0,1,7,7.83a1,1,0,0,1-.13.28,1.1,1.1,0,0,1-.21.23l-.21.16-.23.13A.72.72,0,0,0,6,8.87a.55.55,0,0,0-.11.25.19.19,0,0,1,0,.12.14.14,0,0,1-.11.06H4.8a.09.09,0,0,1-.09-.07.23.23,0,0,1,0-.14V8.92a.87.87,0,0,1,.24-.58,1.52,1.52,0,0,1,.53-.4.92.92,0,0,0,.31-.21.39.39,0,0,0,.1-.28.34.34,0,0,0-.18-.28.65.65,0,0,0-.4-.12.72.72,0,0,0-.4.11,2.55,2.55,0,0,0-.4.43.14.14,0,0,1-.11.06l-.09,0-.62-.47a.11.11,0,0,1,0-.09.15.15,0,0,1,0-.11A1.89,1.89,0,0,1,5.34,6a1.61,1.61,0,0,1,.6.12,2,2,0,0,1,.55.31,1.61,1.61,0,0,1,.39.47A1.27,1.27,0,0,1,7,7.45Z"/>
</svg>